<svg width="285" height="271" viewBox="0 0 285 271" fill="none" xmlns="http://www.w3.org/2000/svg">
<path d="M104.889 260.859C96.1644 261.046 87.6223 258.344 80.5916 253.174C73.4389 247.701 67.5828 240.717 63.4418 232.719C58.7447 223.871 55.3278 214.4 53.2934 204.591C51.1206 194.571 50.0167 184.35 50 174.097C50.0183 163.49 51.1218 152.912 53.2934 142.53C55.3202 132.393 58.7826 122.597 63.5759 113.438C67.8909 105.094 74.0373 97.8344 81.5552 92.2021C88.8738 86.8108 97.5667 84.1151 107.634 84.1151C116.356 83.9224 124.896 86.6247 131.919 91.7997C139.069 97.2608 144.925 104.233 149.069 112.218C153.762 121.044 157.183 130.489 159.23 140.273C161.395 150.145 162.499 160.221 162.523 170.328C162.495 180.842 161.392 191.326 159.23 201.615C157.169 211.83 153.705 221.71 148.935 230.975C144.679 239.444 138.581 246.854 131.09 252.662C123.869 258.126 115.135 260.859 104.889 260.859ZM109.61 253.711C116.928 253.711 122.828 250.003 127.309 242.587C131.789 235.171 135.042 225.522 137.067 213.642C139.146 200.941 140.158 188.089 140.092 175.219C140.102 165.11 139.319 155.016 137.75 145.03C136.382 135.827 133.988 126.805 130.614 118.134C127.993 111.013 123.983 104.483 118.819 98.923C116.738 96.6691 114.212 94.8713 111.401 93.6432C108.589 92.415 105.554 91.7831 102.486 91.7875C95.1678 91.7875 89.3576 95.3533 85.056 102.485C80.7543 109.616 77.6439 119.086 75.7248 130.893C73.7414 143.558 72.7788 156.362 72.8461 169.181C72.8427 179.391 73.6216 189.585 75.1759 199.675C76.5415 208.986 78.8422 218.136 82.0431 226.986C85.06 235.118 88.8575 241.623 93.4357 246.502C95.4654 248.783 97.9575 250.606 100.746 251.848C103.535 253.091 106.557 253.726 109.61 253.711Z" fill="#ED057D"/>
<path d="M198.751 257.833C198.198 257.865 197.645 257.784 197.125 257.595C196.605 257.407 196.129 257.114 195.726 256.735C195.405 256.461 195.143 256.125 194.955 255.748C194.766 255.371 194.655 254.96 194.628 254.54C194.628 252.913 196.002 251.726 198.751 250.978C205.695 249.148 211.412 247.453 215.901 245.891C219.785 244.746 223.23 242.45 225.781 239.305C227.879 236.475 228.932 232.409 228.94 227.107V122.207C229.034 120.717 228.785 119.225 228.212 117.847C227.639 116.468 226.757 115.239 225.634 114.255C223.15 112.287 220.216 110.967 217.096 110.412C213.386 109.65 209.621 109.189 205.838 109.034C204.141 108.881 202.488 108.418 200.958 107.668C200.303 107.405 199.742 106.949 199.351 106.361C198.959 105.774 198.754 105.081 198.763 104.375C198.791 103.695 198.995 103.035 199.354 102.458C199.713 101.881 200.215 101.407 200.812 101.081C202.253 100.144 203.905 99.5779 205.618 99.4346C213.079 98.3196 220.458 96.7141 227.708 94.6286C234.213 92.7014 240.572 88.6355 246.785 82.431C246.874 82.3405 246.98 82.2691 247.098 82.2209C247.215 82.1727 247.341 82.1487 247.468 82.1505H248.163C249.024 82.1466 249.869 82.3832 250.603 82.8336C250.926 82.9912 251.184 83.2563 251.333 83.5835C251.482 83.9106 251.513 84.2794 251.42 84.6266C251.054 87.3752 250.782 90.3472 250.603 93.543C250.42 96.751 250.334 100.264 250.334 104.106V230.352C250.334 234.926 251.188 238.402 252.933 240.781C254.677 243.159 257.641 245.038 261.861 246.404C266.082 247.77 271.912 249.38 279.426 251.21C280.545 251.403 281.615 251.817 282.573 252.429C283.009 252.651 283.38 252.985 283.645 253.396C283.911 253.807 284.063 254.282 284.085 254.771C284.085 256.784 282.805 257.784 280.243 257.784C275.12 257.784 270.4 257.65 266.106 257.369C261.812 257.089 257.568 256.869 253.481 256.686C249.395 256.503 244.846 256.418 239.905 256.418C234.965 256.418 230.294 256.503 225.903 256.686C221.511 256.869 217.12 257.101 212.729 257.369C208.338 257.638 203.679 257.833 198.751 257.833Z" fill="#ED057D"/>
<path d="M101.95 87.0654L107.085 86.919C106.439 64.8779 110.879 48.3258 114.709 38.3115C118.868 27.4678 123.247 21.7471 123.247 21.6984L119.185 18.5391C118.454 19.5149 100.645 42.9222 101.95 87.0654Z" fill="#ED057D"/>
<path d="M109.452 38.7641C105.915 32.1774 106.537 22.9071 111.074 14.5761C115.612 6.24512 123.089 0.707444 130.591 0.134156L132.262 0L133.054 1.47586C136.604 8.06258 135.982 17.3329 131.432 25.6638C126.882 33.9948 119.418 39.5325 111.916 40.118L110.245 40.2399L109.452 38.7641ZM115.551 17.04C112.258 23.0657 111.404 29.7866 113.221 34.7266C118.344 33.58 123.54 29.2377 126.834 23.1999C130.127 17.1621 130.969 10.4534 129.163 5.52556C124.089 6.65994 118.893 10.9779 115.6 17.0767L115.551 17.04Z" fill="#ED057D"/>
<path d="M103.84 64.8173C97.9124 64.4514 91.9356 60.1822 88.2397 53.6687C84.5439 47.1552 83.9583 39.8243 86.6906 34.5428L87.4713 33.0547L89.1423 33.1644C95.0704 33.5304 101.047 37.8117 104.743 44.3131C108.439 50.8144 109.024 58.1574 106.292 63.439L105.512 64.9271L103.84 64.8173ZM92.7162 51.1316C95.1558 55.3764 98.815 58.4501 102.389 59.4015C103.426 55.8154 102.67 51.095 100.267 46.8503C97.8636 42.6055 94.1678 39.5317 90.5939 38.5925C89.5571 42.1786 90.3133 46.8869 92.7162 51.1316Z" fill="#ED057D"/>
<path d="M107.025 76.0024C110.599 60.4992 130.127 48.143 130.322 48.021L127.59 43.6543C123.612 46.2617 119.873 49.217 116.417 52.4854C108.574 59.8893 103.732 67.403 102.012 74.8436L107.025 76.0024Z" fill="#ED057D"/>
<g clip-path="url(#clip0)">
<path d="M0 269.8V251.6C0 251.2 0.2 251 0.6 251H26C26.2 251 26.4 251.1 26.5 251.2C26.6 251.4 26.7 251.5 26.7 251.7V253.3C26.7 253.5 26.6 253.7 26.5 253.8C26.3 254 26.2 254 26 254H3.1V267.1H26C26.2 267.1 26.4 267.2 26.5 267.3C26.7 267.5 26.7 267.6 26.7 267.8V269.4C26.7 269.6 26.6 269.8 26.5 269.9C26.3 270.1 26.2 270.1 26 270.1H0.7C0.2 270.3 0 270.2 0 269.8Z" fill="#ED057D"/>
<path d="M0 244.4V237.2C0 235.3 0.5 233.5 1.4 231.8C2.3 230.2 3.6 228.8 5.3 227.9C6.1 227.4 7 227 7.9 226.8C8.8 226.5 9.8 226.4 10.8 226.4C12.3 226.4 13.6 226.7 15 227.2C16.3 227.8 17.5 228.5 18.5 229.5C19.5 230.5 20.3 231.7 20.9 233C21.5 234.3 21.8 235.7 21.8 237.2V242.2H25.9C26.5 242.2 26.8 242.5 26.8 243.1V244.4C26.8 245 26.5 245.3 25.9 245.3H1C0.3 245.3 0 245 0 244.4ZM3.1 242.2H18.7V237.2C18.7 236.2 18.5 235.2 18.1 234.3C17.7 233.4 17.2 232.5 16.4 231.8C15.7 231.1 14.8 230.5 13.9 230.1C13 229.7 11.9 229.5 10.9 229.5C9.8 229.5 8.8 229.7 7.8 230.1C6.9 230.5 6 231.1 5.3 231.9C4.6 232.6 4 233.5 3.6 234.5C3.2 235.5 3 236.5 3 237.6V242.2H3.1Z" fill="#ED057D"/>
<path d="M0.6 219.399H10.8L0.2 204.299C0.1 204.099 0 203.899 0 203.699V201.799C0 201.599 0.1 201.499 0.2 201.399C0.3 201.299 0.5 201.199 0.6 201.199H26.1C26.5 201.199 26.7 201.399 26.7 201.799V203.699C26.7 204.099 26.5 204.299 26.1 204.299H4.1L14.5 219.399H26.1C26.5 219.399 26.7 219.599 26.7 219.999V221.899C26.7 222.299 26.5 222.599 26.1 222.599H0.6C0.4 222.599 0.3 222.499 0.2 222.399C0.1 222.199 0 221.999 0 221.899V219.999C0 219.799 0.1 219.699 0.2 219.599C0.3 219.499 0.4 219.399 0.6 219.399Z" fill="#ED057D"/>
<path d="M0.8 178.1H26C26.2 178.1 26.4 178.2 26.5 178.3C26.7 178.5 26.7 178.6 26.7 178.8V180.3C26.7 180.6 26.6 180.8 26.5 180.9C26.4 181.1 26.2 181.1 26 181.1H16.9C17.9 181.7 18.7 182.6 19.3 183.7C19.9 184.8 20.2 186 20.2 187.2C20.2 188.5 20 189.7 19.5 190.8C19 191.9 18.3 192.8 17.5 193.6C16.6 194.4 15.7 195 14.5 195.4C13.4 195.8 12.2 196 10.9 196H0.9C0.7 196 0.5 195.9 0.4 195.8C0.2 195.6 0.2 195.5 0.2 195.3V193.8C0.2 193.6 0.3 193.4 0.4 193.2C0.4 193.1 0.5 193 0.7 193H11.7C12.4 193 13.1 192.8 13.7 192.5C14.3 192.2 14.9 191.7 15.4 191.2C15.9 190.7 16.3 190 16.5 189.4C16.7 188.8 17 188 17 187.3C17 186.6 16.9 185.9 16.6 185.2C16.3 184.5 16 183.8 15.5 183.3C15 182.7 14.5 182.2 13.9 181.8C13.3 181.4 12.6 181.2 11.9 181.2H0.7C0.5 181.2 0.3 181.1 0.2 181C0.1 180.8 0 180.6 0 180.4V178.9C0 178.7 0.1 178.5 0.2 178.4C0.4 178.2 0.6 178.1 0.8 178.1Z" fill="#ED057D"/>
<path d="M0.6 169.399H10.8L0.2 154.299C0.1 154.099 0 153.899 0 153.699V151.799C0 151.599 0.1 151.499 0.2 151.399C0.3 151.299 0.5 151.199 0.6 151.199H26.1C26.5 151.199 26.7 151.399 26.7 151.799V153.699C26.7 154.099 26.5 154.299 26.1 154.299H4.1L14.5 169.399H26.1C26.5 169.399 26.7 169.599 26.7 169.999V171.899C26.7 172.299 26.5 172.599 26.1 172.599H0.6C0.4 172.599 0.3 172.499 0.2 172.399C0.1 172.099 0 171.999 0 171.799V169.899C0 169.699 0.1 169.599 0.2 169.499C0.3 169.399 0.4 169.399 0.6 169.399Z" fill="#ED057D"/>
<path d="M15.5 126.499H0.6C0.4 126.499 0.3 126.399 0.2 126.299C0.1 126.199 0 126.099 0 125.899V123.999C0 123.799 0.1 123.699 0.2 123.499C0.3 123.399 0.5 123.299 0.6 123.299H26.1C26.5 123.299 26.7 123.499 26.7 123.899V125.799C26.7 126.199 26.5 126.399 26.1 126.399H18.6V142.299H26.1C26.5 142.299 26.7 142.499 26.7 142.899V144.799C26.7 145.199 26.5 145.399 26.1 145.399H0.6C0.4 145.399 0.3 145.299 0.2 145.199C0.1 145.099 0 144.999 0 144.799V142.899C0 142.699 0.1 142.599 0.2 142.499C0.3 142.399 0.5 142.299 0.6 142.299H15.5V126.499Z" fill="#ED057D"/>
<path d="M23.2 113.4L26.3 114.6C26.6 114.7 26.8 115 26.8 115.3V117.2C26.8 117.6 26.7 117.8 26.4 117.8C26.2 117.8 26.1 117.8 26.1 117.8H26L0.6 107.3H0.5C0.3 107.2 0.2 107.2 0.2 107.1C0.2 107 0 106.8 0 106.5V105.3C0 105.1 0 104.9 0.1 104.8C0.2 104.7 0.3 104.6 0.5 104.6H0.4H0.5L25.9 94.0996H26.1H26.3C26.6 94.0996 26.7 94.2996 26.7 94.6996V96.5996C26.7 96.9996 26.5 97.1996 26.2 97.3996L24.9 97.8996L23.2 98.5996V113.4ZM5.3 105.7V106.1C6.3 106.5 7.5 107 9.1 107.6L9.6 107.8L16.1 110.5L20.1 112.1V99.7996L5.3 105.7Z" fill="#ED057D"/>
</g>
<defs>
<clipPath id="clip0">
<rect width="26.8" height="176.3" fill="white" transform="translate(0 94)"/>
</clipPath>
</defs>
</svg>
