<svg width="334" height="187" viewBox="0 0 334 187" fill="none" xmlns="http://www.w3.org/2000/svg">
<g clip-path="url(#clip0)">
<path d="M0 186.491V168.291C0 167.891 0.2 167.691 0.6 167.691H26C26.2 167.691 26.4 167.791 26.5 167.891C26.6 168.091 26.7 168.191 26.7 168.391V169.991C26.7 170.191 26.6 170.391 26.5 170.491C26.3 170.691 26.2 170.691 26 170.691H3.1V183.791H26C26.2 183.791 26.4 183.891 26.5 183.991C26.7 184.191 26.7 184.291 26.7 184.491V186.091C26.7 186.291 26.6 186.491 26.5 186.591C26.3 186.791 26.2 186.791 26 186.791H0.7C0.2 186.991 0 186.891 0 186.491Z" fill="#ED057D"/>
<path d="M0 161.092V153.892C0 151.992 0.5 150.192 1.4 148.492C2.3 146.892 3.6 145.492 5.3 144.592C6.1 144.092 7 143.692 7.9 143.492C8.8 143.192 9.8 143.092 10.8 143.092C12.3 143.092 13.6 143.392 15 143.892C16.3 144.492 17.5 145.192 18.5 146.192C19.5 147.192 20.3 148.392 20.9 149.692C21.5 150.992 21.8 152.392 21.8 153.892V158.892H25.9C26.5 158.892 26.8 159.192 26.8 159.792V161.092C26.8 161.692 26.5 161.992 25.9 161.992H1C0.3 161.992 0 161.692 0 161.092ZM3.1 158.892H18.7V153.892C18.7 152.892 18.5 151.892 18.1 150.992C17.7 150.092 17.2 149.192 16.4 148.492C15.7 147.792 14.8 147.192 13.9 146.792C13 146.392 11.9 146.192 10.9 146.192C9.8 146.192 8.8 146.392 7.8 146.792C6.9 147.192 6 147.792 5.3 148.592C4.6 149.292 4 150.192 3.6 151.192C3.2 152.192 3 153.192 3 154.292V158.892H3.1Z" fill="#ED057D"/>
<path d="M0.6 136.091H10.8L0.2 120.991C0.1 120.791 0 120.591 0 120.391V118.491C0 118.291 0.1 118.191 0.2 118.091C0.3 117.991 0.5 117.891 0.6 117.891H26.1C26.5 117.891 26.7 118.091 26.7 118.491V120.391C26.7 120.791 26.5 120.991 26.1 120.991H4.1L14.5 136.091H26.1C26.5 136.091 26.7 136.291 26.7 136.691V138.591C26.7 138.991 26.5 139.291 26.1 139.291H0.6C0.4 139.291 0.3 139.191 0.2 139.091C0.1 138.891 0 138.691 0 138.591V136.691C0 136.491 0.1 136.391 0.2 136.291C0.3 136.191 0.4 136.091 0.6 136.091Z" fill="#ED057D"/>
<path d="M0.8 94.791H26C26.2 94.791 26.4 94.891 26.5 94.991C26.7 95.191 26.7 95.291 26.7 95.491V96.991C26.7 97.291 26.6 97.491 26.5 97.591C26.4 97.791 26.2 97.791 26 97.791H16.9C17.9 98.391 18.7 99.291 19.3 100.391C19.9 101.491 20.2 102.691 20.2 103.891C20.2 105.191 20 106.391 19.5 107.491C19 108.591 18.3 109.491 17.5 110.291C16.6 111.091 15.7 111.691 14.5 112.091C13.4 112.491 12.2 112.691 10.9 112.691H0.9C0.7 112.691 0.5 112.591 0.4 112.491C0.2 112.291 0.2 112.191 0.2 111.991V110.491C0.2 110.291 0.3 110.091 0.4 109.891C0.4 109.791 0.5 109.691 0.7 109.691H11.7C12.4 109.691 13.1 109.491 13.7 109.191C14.3 108.891 14.9 108.391 15.4 107.891C15.9 107.391 16.3 106.691 16.5 106.091C16.7 105.491 17 104.691 17 103.991C17 103.291 16.9 102.591 16.6 101.891C16.3 101.191 16 100.491 15.5 99.991C15 99.391 14.5 98.891 13.9 98.491C13.3 98.091 12.6 97.891 11.9 97.891H0.7C0.5 97.891 0.3 97.791 0.2 97.691C0.1 97.491 0 97.291 0 97.091V95.591C0 95.391 0.1 95.191 0.2 95.091C0.4 94.891 0.6 94.791 0.8 94.791Z" fill="#ED057D"/>
<path d="M0.6 86.0906H10.8L0.2 70.9906C0.1 70.7906 0 70.5906 0 70.3906V68.4906C0 68.2906 0.1 68.1906 0.2 68.0906C0.3 67.9906 0.5 67.8906 0.6 67.8906H26.1C26.5 67.8906 26.7 68.0906 26.7 68.4906V70.3906C26.7 70.7906 26.5 70.9906 26.1 70.9906H4.1L14.5 86.0906H26.1C26.5 86.0906 26.7 86.2906 26.7 86.6906V88.5906C26.7 88.9906 26.5 89.2906 26.1 89.2906H0.6C0.4 89.2906 0.3 89.1906 0.2 89.0906C0.1 88.7906 0 88.6906 0 88.4906V86.5906C0 86.3906 0.1 86.2906 0.2 86.1906C0.3 86.0906 0.4 86.0906 0.6 86.0906Z" fill="#ED057D"/>
<path d="M15.5 43.1902H0.6C0.4 43.1902 0.3 43.0902 0.2 42.9902C0.1 42.8902 0 42.7902 0 42.5902V40.6902C0 40.4902 0.1 40.3902 0.2 40.1902C0.3 40.0902 0.5 39.9902 0.6 39.9902H26.1C26.5 39.9902 26.7 40.1902 26.7 40.5902V42.4902C26.7 42.8902 26.5 43.0902 26.1 43.0902H18.6V58.9902H26.1C26.5 58.9902 26.7 59.1902 26.7 59.5902V61.4902C26.7 61.8902 26.5 62.0902 26.1 62.0902H0.6C0.4 62.0902 0.3 61.9902 0.2 61.8902C0.1 61.7902 0 61.6902 0 61.4902V59.5902C0 59.3902 0.1 59.2902 0.2 59.1902C0.3 59.0902 0.5 58.9902 0.6 58.9902H15.5V43.1902Z" fill="#ED057D"/>
<path d="M23.2 30.091L26.3 31.291C26.6 31.391 26.8 31.691 26.8 31.991V33.891C26.8 34.291 26.7 34.491 26.4 34.491C26.2 34.491 26.1 34.491 26.1 34.491H26L0.6 23.991H0.5C0.3 23.891 0.2 23.891 0.2 23.791C0.2 23.691 0 23.491 0 23.191V21.991C0 21.791 0 21.591 0.1 21.491C0.2 21.391 0.3 21.291 0.5 21.291H0.4H0.5L25.9 10.791H26.1H26.3C26.6 10.791 26.7 10.991 26.7 11.391V13.291C26.7 13.691 26.5 13.891 26.2 14.091L24.9 14.591L23.2 15.291V30.091ZM5.3 22.391V22.791C6.3 23.191 7.5 23.691 9.1 24.291L9.6 24.491L16.1 27.191L20.1 28.791V16.491L5.3 22.391Z" fill="#ED057D"/>
</g>
<path d="M88.6603 179.273C79.8164 179.465 71.1576 176.725 64.0338 171.481C56.7732 165.936 50.83 158.852 46.6306 150.738C41.8676 141.766 38.4027 132.162 36.3396 122.215C34.1364 112.055 33.0169 101.689 33 91.2928C33.0186 80.5366 34.1376 69.8104 36.3396 59.2819C38.3935 49.0007 41.909 39.0666 46.779 29.782C51.1417 21.3055 57.3713 13.9298 64.9985 8.21058C72.4199 2.7435 81.2348 0.00995203 91.4434 0.00995203C100.288 -0.18732 108.949 2.55301 116.07 7.80231C123.327 13.3476 129.267 20.4315 133.461 28.5451C138.219 37.4947 141.688 47.0725 143.764 56.9937C145.96 67.0048 147.079 77.2219 147.104 87.4708C147.075 98.1325 145.956 108.763 143.764 119.197C141.68 129.557 138.167 139.577 133.325 148.969C129.013 157.557 122.835 165.072 115.241 170.961C107.902 176.503 99.042 179.273 88.6603 179.273ZM93.3853 172.037C100.807 172.037 106.793 168.277 111.345 160.757C115.897 153.237 119.195 143.453 121.24 131.405C123.349 118.526 124.375 105.493 124.308 92.4432C124.316 82.1929 123.527 71.9576 121.945 61.83C120.546 52.4999 118.119 43.353 114.709 34.5564C111.46 26.3929 107.469 19.8992 102.736 15.0753C100.626 12.7891 98.0649 10.9657 95.2141 9.72016C92.3633 8.47467 89.2851 7.83428 86.1742 7.83945C78.7528 7.83945 72.8652 11.4553 68.5113 18.6871C64.1574 25.9188 61.0033 35.5211 59.049 47.4943C57.0271 60.3362 56.0468 73.3206 56.1176 86.3205C56.1121 96.6737 56.906 107.012 58.4924 117.243C59.8732 126.684 62.2021 135.963 65.4438 144.937C68.5113 153.183 72.3622 159.78 76.9964 164.727C79.0554 167.035 81.5812 168.879 84.4066 170.137C87.232 171.396 90.2925 172.039 93.3853 172.025V172.037Z" fill="#ED057D"/>
<path d="M270.67 176.205C269.433 176.205 267.33 176.106 264.547 175.933C261.764 175.76 258.61 175.549 255.085 175.376L244.089 174.819C240.279 174.63 236.614 174.535 233.093 174.535C229.572 174.535 224.563 174.63 218.065 174.819C211.575 175.009 204.756 175.145 197.607 175.228C190.457 175.31 184.199 175.45 178.83 175.648C173.454 175.83 170.02 175.924 168.527 175.933C167.258 175.671 166.096 175.038 165.187 174.114C163.703 172.877 162.961 171.937 162.961 171.195C162.888 170.5 163.088 169.804 163.518 169.253L165.187 167.584L212.783 118.318C222.032 108.705 229.813 97.7812 235.876 85.899C241.808 74.7019 244.96 62.2423 245.066 49.5713C245.066 39.7421 242.098 31.995 236.161 26.33C233.412 23.6081 230.153 21.4571 226.569 20.0009C222.986 18.5446 219.15 17.8118 215.282 17.8449C207.771 17.8145 200.416 19.9908 194.131 24.1037C187.706 28.2018 182.361 33.7845 178.546 40.3811C178.036 41.4354 177.326 42.3806 176.456 43.1641C175.75 43.8558 174.809 44.2537 173.821 44.2774C173.079 44.2774 172.188 43.4982 171.174 41.915C170.089 40.1124 169.555 38.0309 169.64 35.9283C169.64 33.7019 170.984 30.6428 173.673 26.7507C176.897 22.2867 180.689 18.2617 184.953 14.7774C190.158 10.4655 195.973 6.9477 202.208 4.33809C209.077 1.45296 216.465 0.00888882 223.915 0.0954722C233.192 0.0954722 241.17 2.04149 247.849 5.93359C254.404 9.69269 259.721 15.2804 263.15 22.0132C266.807 29.4515 268.623 37.6602 268.444 45.9472C268.364 51.4289 267.472 56.8686 265.797 62.0887C263.969 67.9811 261.544 73.6714 258.561 79.0713C255.55 84.5654 252.056 89.7808 248.121 94.6561C245.714 97.6247 242.143 101.566 237.41 106.481C232.677 111.396 227.577 116.636 222.109 122.202C216.634 127.768 211.439 133.008 206.525 137.923C201.61 142.837 197.574 146.919 194.415 150.168C191.265 153.425 189.686 155.235 189.678 155.598C189.678 156.526 190.977 157.181 193.574 157.552C196.724 157.742 200.295 157.928 204.286 158.109C208.277 158.29 212.87 158.381 218.065 158.381C223.441 158.381 228.801 158.29 234.144 158.109L249.729 157.552C253.928 157.316 258.111 156.849 262.259 156.155C265.029 155.694 267.623 154.493 269.767 152.679C272.312 150.287 274.473 147.517 276.174 144.466C276.916 143.353 277.881 141.992 279.093 140.434C279.529 139.747 280.122 139.175 280.823 138.764C281.525 138.353 282.314 138.116 283.126 138.071C283.492 138.017 283.866 138.101 284.175 138.307C284.483 138.512 284.704 138.825 284.795 139.184C284.981 139.912 285.077 140.66 285.08 141.411C284.828 143.28 284.312 145.104 283.546 146.828C282.52 149.525 281.369 152.815 280.07 156.724C278.694 160.918 277.578 165.193 276.731 169.526C276.17 172.494 275.242 174.349 273.948 175.092C272.965 175.73 271.838 176.112 270.67 176.205Z" fill="#ED057D"/>
<path d="M280.602 149.414L276.384 146.94C296.397 112.221 292.191 85.5781 292.142 85.3183L296.953 84.502C297.139 85.6894 301.48 113.198 280.602 149.414Z" fill="#ED057D"/>
<path d="M294.43 66.1465C289.482 69.449 285.97 76.6477 286.019 84.9968C286.069 93.3458 289.618 100.495 294.677 103.736C299.625 100.433 303.138 93.2345 303.088 84.8855C303.039 76.5364 299.476 69.3624 294.43 66.1465Z" fill="#ED057D"/>
<path d="M285.092 141.028L281.121 138.208C289.487 126.336 301.81 117.833 315.878 114.225L316.843 118.999L316.36 116.612L316.843 118.999C304.022 122.432 292.796 130.221 285.092 141.028Z" fill="#ED057D"/>
<path d="M333.083 108.027C332.465 113.989 327.678 120.396 320.257 124.193C312.835 127.991 304.845 128.176 299.638 125.195C300.256 119.234 305.043 112.826 312.464 109.029C319.886 105.232 327.876 105.046 333.083 108.027Z" fill="#ED057D"/>
<path d="M284.758 120.163C280.788 120.448 276.1 118.061 272.698 113.645C269.297 109.229 268.32 104.034 269.668 100.286C273.638 99.9895 278.326 102.389 281.715 106.805C285.104 111.221 286.106 116.366 284.758 120.163Z" fill="#ED057D"/>
<defs>
<clipPath id="clip0">
<rect width="26.8" height="176.3" fill="white" transform="translate(0 10.6914)"/>
</clipPath>
</defs>
</svg>
