<svg width="289" height="245" viewBox="0 0 289 245" fill="none" xmlns="http://www.w3.org/2000/svg">
<g clip-path="url(#clip0)">
<path d="M0 244.173V225.973C0 225.573 0.2 225.373 0.6 225.373H26C26.2 225.373 26.4 225.473 26.5 225.573C26.6 225.773 26.7 225.873 26.7 226.073V227.673C26.7 227.873 26.6 228.073 26.5 228.173C26.3 228.373 26.2 228.373 26 228.373H3.1V241.473H26C26.2 241.473 26.4 241.573 26.5 241.673C26.7 241.873 26.7 241.973 26.7 242.173V243.773C26.7 243.973 26.6 244.173 26.5 244.273C26.3 244.473 26.2 244.473 26 244.473H0.7C0.2 244.673 0 244.573 0 244.173Z" fill="#ED057D"/>
<path d="M0 218.772V211.572C0 209.672 0.5 207.872 1.4 206.172C2.3 204.572 3.6 203.172 5.3 202.272C6.1 201.772 7 201.372 7.9 201.172C8.8 200.872 9.8 200.772 10.8 200.772C12.3 200.772 13.6 201.072 15 201.572C16.3 202.172 17.5 202.872 18.5 203.872C19.5 204.872 20.3 206.072 20.9 207.372C21.5 208.672 21.8 210.072 21.8 211.572V216.572H25.9C26.5 216.572 26.8 216.872 26.8 217.472V218.772C26.8 219.372 26.5 219.672 25.9 219.672H1C0.3 219.672 0 219.372 0 218.772ZM3.1 216.572H18.7V211.572C18.7 210.572 18.5 209.572 18.1 208.672C17.7 207.772 17.2 206.872 16.4 206.172C15.7 205.472 14.8 204.872 13.9 204.472C13 204.072 11.9 203.872 10.9 203.872C9.8 203.872 8.8 204.072 7.8 204.472C6.9 204.872 6 205.472 5.3 206.272C4.6 206.972 4 207.872 3.6 208.872C3.2 209.872 3 210.872 3 211.972V216.572H3.1Z" fill="#ED057D"/>
<path d="M0.6 193.772H10.8L0.2 178.672C0.1 178.472 0 178.272 0 178.072V176.172C0 175.972 0.1 175.872 0.2 175.772C0.3 175.672 0.5 175.572 0.6 175.572H26.1C26.5 175.572 26.7 175.772 26.7 176.172V178.072C26.7 178.472 26.5 178.672 26.1 178.672H4.1L14.5 193.772H26.1C26.5 193.772 26.7 193.972 26.7 194.372V196.272C26.7 196.672 26.5 196.972 26.1 196.972H0.6C0.4 196.972 0.3 196.872 0.2 196.772C0.1 196.572 0 196.372 0 196.272V194.372C0 194.172 0.1 194.072 0.2 193.972C0.3 193.872 0.4 193.772 0.6 193.772Z" fill="#ED057D"/>
<path d="M0.8 152.473H26C26.2 152.473 26.4 152.573 26.5 152.673C26.7 152.873 26.7 152.973 26.7 153.173V154.673C26.7 154.973 26.6 155.173 26.5 155.273C26.4 155.473 26.2 155.473 26 155.473H16.9C17.9 156.073 18.7 156.973 19.3 158.073C19.9 159.173 20.2 160.373 20.2 161.573C20.2 162.873 20 164.073 19.5 165.173C19 166.273 18.3 167.173 17.5 167.973C16.6 168.773 15.7 169.373 14.5 169.773C13.4 170.173 12.2 170.373 10.9 170.373H0.9C0.7 170.373 0.5 170.273 0.4 170.173C0.2 169.973 0.2 169.873 0.2 169.673V168.173C0.2 167.973 0.3 167.773 0.4 167.573C0.4 167.473 0.5 167.373 0.7 167.373H11.7C12.4 167.373 13.1 167.173 13.7 166.873C14.3 166.573 14.9 166.073 15.4 165.573C15.9 165.073 16.3 164.373 16.5 163.773C16.7 163.173 17 162.373 17 161.673C17 160.973 16.9 160.273 16.6 159.573C16.3 158.873 16 158.173 15.5 157.673C15 157.073 14.5 156.573 13.9 156.173C13.3 155.773 12.6 155.573 11.9 155.573H0.7C0.5 155.573 0.3 155.473 0.2 155.373C0.1 155.173 0 154.973 0 154.773V153.273C0 153.073 0.1 152.873 0.2 152.773C0.4 152.573 0.6 152.473 0.8 152.473Z" fill="#ED057D"/>
<path d="M0.6 143.772H10.8L0.2 128.672C0.1 128.472 0 128.272 0 128.072V126.172C0 125.972 0.1 125.872 0.2 125.772C0.3 125.672 0.5 125.572 0.6 125.572H26.1C26.5 125.572 26.7 125.772 26.7 126.172V128.072C26.7 128.472 26.5 128.672 26.1 128.672H4.1L14.5 143.772H26.1C26.5 143.772 26.7 143.972 26.7 144.372V146.272C26.7 146.672 26.5 146.972 26.1 146.972H0.6C0.4 146.972 0.3 146.872 0.2 146.772C0.1 146.472 0 146.372 0 146.172V144.272C0 144.072 0.1 143.972 0.2 143.872C0.3 143.772 0.4 143.772 0.6 143.772Z" fill="#ED057D"/>
<path d="M15.5 100.873H0.6C0.4 100.873 0.3 100.773 0.2 100.673C0.1 100.573 0 100.473 0 100.273V98.3729C0 98.1729 0.1 98.0729 0.2 97.8729C0.3 97.7729 0.5 97.6729 0.6 97.6729H26.1C26.5 97.6729 26.7 97.8729 26.7 98.2729V100.173C26.7 100.573 26.5 100.773 26.1 100.773H18.6V116.673H26.1C26.5 116.673 26.7 116.873 26.7 117.273V119.173C26.7 119.573 26.5 119.773 26.1 119.773H0.6C0.4 119.773 0.3 119.673 0.2 119.573C0.1 119.473 0 119.373 0 119.173V117.273C0 117.073 0.1 116.973 0.2 116.873C0.3 116.773 0.5 116.673 0.6 116.673H15.5V100.873Z" fill="#ED057D"/>
<path d="M23.2 87.7727L26.3 88.9727C26.6 89.0727 26.8 89.3727 26.8 89.6727V91.5727C26.8 91.9727 26.7 92.1727 26.4 92.1727C26.2 92.1727 26.1 92.1727 26.1 92.1727H26L0.6 81.6727H0.5C0.3 81.5727 0.2 81.5727 0.2 81.4727C0.2 81.3727 0 81.1727 0 80.8727V79.6727C0 79.4727 0 79.2727 0.1 79.1727C0.2 79.0727 0.3 78.9727 0.5 78.9727H0.4H0.5L25.9 68.4727H26.1H26.3C26.6 68.4727 26.7 68.6727 26.7 69.0727V70.9727C26.7 71.3727 26.5 71.5727 26.2 71.7727L24.9 72.2727L23.2 72.9727V87.7727ZM5.3 80.0727V80.4727C6.3 80.8727 7.5 81.3727 9.1 81.9727L9.6 82.1727L16.1 84.8727L20.1 86.4727V74.1727L5.3 80.0727Z" fill="#ED057D"/>
</g>
<path d="M101.352 236.953C92.5078 237.145 83.849 234.405 76.7251 229.161C69.4645 223.615 63.5214 216.532 59.322 208.418C54.559 199.445 51.094 189.842 49.031 179.895C46.8277 169.734 45.7083 159.369 45.6914 148.973C45.71 138.216 46.8289 127.49 49.031 116.962C51.0848 106.68 54.6004 96.7463 59.4705 87.4617C63.8331 78.9852 70.0627 71.6095 77.6899 65.8903C85.1113 60.4232 93.9262 57.6896 104.135 57.6896C112.979 57.4924 121.64 60.2327 128.761 65.482C136.017 71.0237 141.956 78.1033 146.152 86.2124C150.911 95.162 154.38 104.74 156.456 114.661C158.651 124.672 159.771 134.889 159.795 145.138C159.767 155.8 158.648 166.431 156.456 176.865C154.372 187.224 150.858 197.244 146.016 206.637C141.705 215.225 135.526 222.739 127.933 228.629C120.594 234.178 111.733 236.953 101.352 236.953ZM106.077 229.717C113.498 229.717 119.485 225.957 124.036 218.437C128.588 210.916 131.887 201.132 133.932 189.085C136.04 176.206 137.066 163.173 136.999 150.123C137.008 139.873 136.218 129.637 134.637 119.51C133.238 110.18 130.811 101.033 127.401 92.2361C124.152 84.0726 120.161 77.5788 115.428 72.755C113.318 70.4688 110.756 68.6453 107.906 67.3998C105.055 66.1544 101.977 65.514 98.8656 65.5191C91.4442 65.5191 85.5565 69.135 81.2027 76.3667C76.8488 83.5985 73.6948 93.2008 71.7405 105.174C69.7186 118.016 68.7381 131 68.8089 144C68.8034 154.353 69.5974 164.692 71.1838 174.923C72.5646 184.364 74.8935 193.642 78.1352 202.617C81.2027 210.863 85.0535 217.459 89.6877 222.407C91.7467 224.715 94.2725 226.559 97.0979 227.817C99.9234 229.075 102.984 229.719 106.077 229.705V229.717Z" fill="#ED057D"/>
<path d="M211.56 243.63C206.949 243.57 202.37 242.866 197.954 241.54C193.704 240.375 189.597 238.74 185.709 236.667C182.369 234.811 180.699 233.141 180.699 231.657C180.94 229.825 181.714 228.104 182.926 226.71C184.399 224.685 186.128 222.859 188.071 221.28C190.025 219.709 191.646 218.917 192.945 218.917C194.926 218.9 196.866 219.482 198.511 220.587C200.16 221.7 201.924 222.999 203.804 224.483C206.416 226.667 209.209 228.624 212.153 230.334C215.312 232.189 219.484 233.117 224.671 233.117C231.52 233.119 238.246 231.291 244.152 227.823C250.321 224.257 255.53 219.244 259.329 213.215C263.302 207.037 265.379 199.83 265.303 192.485C265.326 185.368 264.104 178.302 261.691 171.606C259.517 165.298 255.841 159.614 250.98 155.044C246.238 150.69 240.252 148.513 233.02 148.513C230.274 148.572 227.536 148.803 224.819 149.206C221.321 149.69 217.956 150.872 214.924 152.681C214.429 152.956 213.869 153.089 213.303 153.065C212.738 153.041 212.19 152.861 211.721 152.545C210.484 151.902 210.001 151.11 210.187 150.183C210.825 147.957 211.968 145.909 213.526 144.196C214.904 142.692 216.592 141.506 218.474 140.721C220.123 139.978 222.815 138.539 226.551 136.404C230.677 133.993 234.629 131.294 238.376 128.327C242.476 125.165 246.086 121.414 249.087 117.195C252.001 113.198 253.561 108.374 253.54 103.428C253.599 96.0216 250.961 88.8464 246.119 83.2419C243.865 80.4429 240.999 78.1981 237.742 76.68C234.485 75.1618 230.923 74.4108 227.33 74.4848C220.09 74.4848 214.293 75.7217 209.939 78.1954C205.948 80.4028 202.407 83.3398 199.5 86.8537C197.284 89.5481 195.329 92.4473 193.662 95.512C192.425 97.9858 191.188 99.2227 190.038 99.2227C188.937 99.0259 187.946 98.4317 187.255 97.5529C186.746 97.0959 186.335 96.5399 186.048 95.9189C185.761 95.2979 185.603 94.625 185.585 93.9411C185.585 91.525 186.607 88.3215 188.652 84.3304C191.135 79.7779 194.382 75.686 198.251 72.2335C203.144 67.8127 208.803 64.3212 214.949 61.9302C221.719 59.1513 229.837 57.7619 239.303 57.7619C245.334 57.7437 251.287 59.124 256.694 61.7942C262.021 64.367 266.65 68.1854 270.189 72.9263C273.735 77.7105 275.596 83.5344 275.483 89.4883C275.42 94.2586 274.477 98.9762 272.7 103.403C270.541 108.702 267.426 113.557 263.509 117.727C258.453 123.078 252.615 127.633 246.193 131.234C245.636 131.419 245.364 131.741 245.364 132.198C245.364 132.656 245.735 132.903 246.477 132.903C254.045 132.789 261.484 134.863 267.9 138.878C274.181 142.846 279.393 148.295 283.077 154.747C286.891 161.39 288.859 168.931 288.779 176.591C288.938 186.326 286.641 195.944 282.1 204.557C277.693 212.765 271.627 219.968 264.289 225.708C256.828 231.58 248.397 236.101 239.378 239.066C230.412 242.077 221.018 243.619 211.56 243.63Z" fill="#ED057D"/>
<path d="M238.413 67.373C236.1 46.5189 204.286 4.4891 203.965 4.06855L206.835 1.8916C208.17 3.64799 239.563 45.183 241.987 66.9771L238.413 67.373Z" fill="#ED057D"/>
<path d="M236.978 53.3597L234.343 52.333C224.782 48.6223 215.357 38.7272 209.16 25.814C205.602 18.6227 203.448 10.8184 202.814 2.82001L202.629 0L205.264 1.02657C214.825 4.73726 224.25 14.6325 230.447 27.5457C234.005 34.7371 236.158 42.5411 236.792 50.5396L236.978 53.3597ZM212.363 24.2555C217.484 34.8681 225.153 43.5634 232.871 47.6946C231.956 41.2492 230.032 34.988 227.169 29.1412C222.048 18.5163 214.379 9.82088 206.661 5.64017C207.571 12.0867 209.496 18.3486 212.363 24.1936V24.2555Z" fill="#ED057D"/>
<path d="M240.811 61.4842H237.212C237.212 57.0437 238.906 51.4777 241.405 44.4893L244.794 45.7262C242.728 51.4282 240.811 57.3159 240.811 61.4842Z" fill="#ED057D"/>
<path d="M240.885 51.1959L240.613 48.0665C240.233 42.2391 240.981 36.3932 242.814 30.8488C245.981 20.6815 251.844 11.7883 258.486 7.06332L261.046 5.24512L261.318 8.3745C261.698 14.2019 260.95 20.0476 259.117 25.592C255.95 35.7593 250.087 44.6526 243.445 49.3775L240.885 51.1959ZM257.83 12.2706C252.994 16.8595 248.702 24.0706 246.241 31.9249C244.964 35.8881 244.244 40.0091 244.101 44.1702C248.937 39.5813 253.229 32.3702 255.69 24.5159C256.967 20.5528 257.687 16.4317 257.83 12.2706Z" fill="#ED057D"/>
<defs>
<clipPath id="clip0">
<rect width="26.8" height="176.3" fill="white" transform="translate(0 68.373)"/>
</clipPath>
</defs>
</svg>
