<svg width="122" height="256" viewBox="0 0 122 256" fill="none" xmlns="http://www.w3.org/2000/svg">
<path d="M81.0714 44.7348L81.3344 44.6587C91.2673 41.9653 100.917 38.3192 110.149 33.771C115.174 31.1823 120.892 27.0154 121.854 23.0908C122.012 22.519 122.042 21.9196 121.943 21.3347C121.844 20.7498 121.617 20.1938 121.279 19.7062C119.639 17.3667 115.257 17.4083 111.873 17.8582C108.025 18.335 104.296 19.5077 100.867 21.319C91.9929 26.4388 84.6896 33.8904 79.7494 42.866L79.7009 42.956C79.6366 43.0452 79.5853 43.143 79.5486 43.2467L79.4379 43.5373L79.6386 44.6518L80.4415 44.7833H80.6492C80.7917 44.7935 80.9349 44.777 81.0714 44.7348ZM81.2375 44.6379C81.3997 44.5187 81.5362 44.3679 81.639 44.1949C81.5489 44.3769 81.4099 44.5304 81.2375 44.6379ZM79.9709 42.7276C80.0939 42.6415 80.2326 42.5803 80.3792 42.5476C80.2357 42.5893 80.0985 42.6498 79.9709 42.7276ZM119.424 21.0282C119.573 21.2489 119.67 21.5009 119.708 21.7648C119.745 22.0287 119.721 22.2976 119.639 22.5511C119.009 25.1259 114.794 28.815 109.125 31.729C100.748 35.8624 92.0172 39.2353 83.0371 41.8069C87.7369 34.1616 94.2698 27.8096 102.044 23.3262C105.609 21.2497 111.347 19.9069 115.292 19.9069C117.306 19.9069 118.864 20.2529 119.41 21.0282H119.424Z" fill="#ED057D"/>
<path d="M82.7887 43.6563L81.9857 42.9226L80.9683 42.2789C84.6516 38.4246 88.673 34.908 92.9842 31.7717C99.5805 26.9266 109.658 20.8633 120.255 19.5967L120.525 21.8668C110.51 23.0712 100.882 28.8369 94.5624 33.4606C90.3543 36.5172 86.4154 39.9283 82.7887 43.6563Z" fill="#ED057D"/>
<path d="M82.0896 43.7454L81.6259 42.721L80.6222 42.1119C80.816 41.7935 80.996 41.7174 81.5151 41.4959C88.3191 38.5957 111.16 28.4555 119.418 19.8242L121.072 21.4024C112.517 30.359 89.3227 40.6584 82.4149 43.6001L82.0896 43.7454Z" fill="#ED057D"/>
<path d="M42.6083 186.027L49.2393 181.487L42.5114 183.695C40.6771 180.365 35.6451 171.976 28.142 165.089C25.3734 162.507 19.6769 159.067 17.0051 159.552C16.6797 159.596 16.3695 159.718 16.1 159.905C15.8305 160.093 15.6093 160.342 15.4547 160.632C13.5236 164.307 22.141 172.135 23.1308 173.014C27.1027 176.502 31.312 179.71 35.7282 182.615C37.4932 183.778 38.9398 184.657 39.8396 185.19C40.338 185.487 40.7256 185.709 40.9956 185.882C41.1202 185.951 41.2378 186.02 41.3555 186.076C41.5237 186.194 41.7244 186.257 41.93 186.255H41.9992C42.2211 186.245 42.4342 186.165 42.6083 186.027ZM26.5847 166.764C31.305 171.227 35.4068 176.302 38.7807 181.853C33.8036 178.709 29.0801 175.179 24.6536 171.298C18.7633 166.051 17.3859 162.563 17.4689 161.781C18.5833 161.601 23.29 163.684 26.5847 166.785V166.764Z" fill="#ED057D"/>
<path d="M49.1217 194.984C38.2409 180.248 15.5172 163.837 15.2887 163.664L16.6316 161.802C16.86 161.968 39.8744 178.601 50.9629 193.641L49.1217 194.984Z" fill="#ED057D"/>
<path d="M62.411 83.6488C62.5785 83.6349 62.7401 83.5803 62.8817 83.4896L63.2693 83.2752C63.5392 83.1229 63.9615 82.9014 64.4252 82.583C65.3181 82.0431 66.7578 81.1572 68.5159 79.9805C72.9149 77.0433 77.1056 73.8055 81.0579 70.2902C82.0408 69.3973 90.6098 61.5203 88.6717 57.8796C88.5174 57.5855 88.2948 57.3327 88.0227 57.1425C87.7505 56.9522 87.4366 56.83 87.1074 56.7861C84.4288 56.3223 78.7461 59.8038 76.0328 62.3925C68.5644 69.3141 63.5739 77.7447 61.7743 81.0809L53.2606 78.3123L61.7396 83.4413C61.9077 83.5472 62.1017 83.6047 62.3003 83.6074L62.411 83.6488ZM86.6368 59.0633C86.7337 59.7901 85.4047 63.2992 79.5075 68.615C75.1057 72.5299 70.4004 76.0896 65.4358 79.2606C68.7802 73.6868 72.8564 68.5862 77.5556 64.0952C80.698 61.112 85.1694 59.0495 86.4914 59.0495L86.6368 59.0633Z" fill="#ED057D"/>
<path d="M55.2124 92.4604L53.3643 91.1105C64.3628 76.0213 87.2803 59.271 87.5018 59.0771L88.8516 60.9253C88.6231 61.0915 66.0033 77.6619 55.2124 92.4604Z" fill="#ED057D"/>
<path d="M53.3368 56.2393L60.833 53.5675L53.8352 53.9621C52.8524 50.1967 49.3084 38.8107 40.3518 29.1273C37.1471 25.5419 30.2739 21.1396 26.5086 21.0358C26.0767 20.9988 25.6419 21.0523 25.2319 21.193C24.8219 21.3336 24.4458 21.5584 24.1275 21.8527C21.1651 24.8082 25.9618 32.3873 30.98 37.9799C35.4271 42.8516 40.2907 47.3261 45.5154 51.3526C47.5919 52.9792 49.35 54.1836 50.4228 54.9104C52.0287 55.9971 52.4993 56.2947 52.9285 56.2947C53.0669 56.3023 53.2054 56.2835 53.3368 56.2393ZM26.4809 23.3269C29.2496 23.403 35.5275 27.1685 38.6561 30.6708C44.3297 36.9722 48.5582 44.437 51.0458 52.5431C44.3522 47.8777 38.2021 42.4775 32.7104 36.4434C26.647 29.6878 24.7644 24.4828 25.7888 23.4653C25.9774 23.3501 26.199 23.3014 26.4186 23.3269H26.4809Z" fill="#ED057D"/>
<path d="M51.0385 53.9143C35.5686 28.9964 24.5978 23.7568 24.494 23.7083L25.4353 21.6318C25.8991 21.8395 37.0636 27.0653 52.9834 52.7238L51.0385 53.9143Z" fill="#ED057D"/>
<path d="M52.6934 52.3906C33.5758 38.1459 26.0935 22.3715 26.0035 22.1777L23.927 23.1398C24.2316 23.8319 31.6931 39.5994 51.3229 54.2317L52.6934 52.3906ZM26.0035 22.1777L24.9652 22.6622L26.0035 22.1777Z" fill="#ED057D"/>
<path d="M65.0413 46.0784C65.422 45.9399 65.6919 45.843 66.9932 43.3097C67.5954 42.1192 68.5436 40.1188 69.6234 37.3847C72.0714 31.2433 73.7703 24.829 74.6831 18.281C75.0641 14.7396 75.0153 11.1652 74.5377 7.63557C73.9009 2.97731 72.745 0.49924 71.0077 0.0700983C70.6131 -0.0204756 70.2035 -0.0232604 69.8076 0.061649C69.4118 0.146558 69.0394 0.317238 68.7167 0.561676C65.9065 2.5205 63.9477 9.51825 63.2486 15.5955C62.2334 25.3104 62.3193 35.109 63.5047 44.8047C63.4721 44.9929 63.4866 45.1863 63.547 45.3674C63.6074 45.5486 63.7118 45.712 63.8508 45.843L64.3768 46.3344L65.0413 46.0784ZM70.4471 2.2713C70.7447 2.37512 71.7068 3.65555 72.2882 8.07155C72.7245 11.3494 72.7664 14.6678 72.4128 17.9557C71.2813 26.0388 68.9239 33.9021 65.422 41.2746C64.6062 32.8111 64.641 24.2872 65.5258 15.8307C66.3564 8.5768 68.4675 3.51025 70.0249 2.42356C70.1307 2.3343 70.2609 2.27886 70.3986 2.26437L70.4471 2.2713Z" fill="#ED057D"/>
<path d="M66.3284 43.7875L64.1135 43.206C64.1896 42.9084 71.9142 13.1177 69.5954 1.37863L71.838 0.935547C74.2606 13.1868 66.6537 42.5416 66.3284 43.7875Z" fill="#ED057D"/>
<path d="M65.4916 45.5451L63.2004 45.4135C63.2766 44.0292 65.1662 11.7053 69.6583 0.727539L71.7764 1.59274C67.4296 12.2175 65.5054 45.2129 65.4916 45.5451Z" fill="#ED057D"/>
<path d="M58.3757 174.696C58.5425 174.661 58.6989 174.588 58.8325 174.482C65.595 170.195 71.0606 164.145 74.6415 156.984C76.6557 153.046 79.0645 142.31 75.4652 139.368C74.9948 138.996 74.4434 138.739 73.8554 138.619C73.2675 138.498 72.6594 138.518 72.0805 138.676C69.035 139.368 65.4772 143.154 63.0131 148.366C57.8981 159.199 57.0814 170.287 56.9499 173.43V173.54C56.9469 173.559 56.9469 173.578 56.9499 173.596L56.8737 175.112L58.3757 174.696ZM59.2617 173.637C59.2552 173.866 59.1751 174.087 59.0332 174.267C59.1598 174.079 59.2383 173.863 59.2617 173.637ZM74.0532 141.106C76.0259 142.718 74.8561 151.564 72.6689 155.911C69.58 162.057 65.04 167.357 59.4416 171.353C60.0531 163.714 61.9851 156.238 65.1519 149.259C67.6091 144.089 70.7654 141.279 72.655 140.85C72.823 140.81 72.9947 140.789 73.1672 140.787C73.4876 140.794 73.7959 140.911 74.0393 141.119L74.0532 141.106Z" fill="#ED057D"/>
<path d="M58.9578 174.399L57.2828 172.834C72.7942 156.285 73.6317 140.379 73.6386 140.22L75.9297 140.317C75.8951 140.967 75.0437 157.198 58.9578 174.399Z" fill="#ED057D"/>
<path d="M59.2199 173.914L57.0258 173.222C64.8749 147.508 73.6377 139.673 74.0322 139.348L75.5342 141.078L74.7797 140.213L75.5342 141.078C75.4234 141.175 66.8406 148.948 59.2199 173.914Z" fill="#ED057D"/>
<path d="M35.4583 86.9916C35.5692 86.7482 35.5888 86.4731 35.5137 86.2164C35.1122 83.5378 33.368 76.6091 25.7334 69.376C22.4664 66.2682 13.5029 61.1808 9.31529 62.1083C8.67996 62.2116 8.08753 62.4945 7.60794 62.9238C7.12836 63.3531 6.78164 63.9108 6.6089 64.5309C5.97211 66.9465 7.84095 70.4558 11.6202 73.9167C19.3655 80.9421 29.6164 85.7456 33.7002 87.4899L33.8594 87.5523C33.9277 87.5893 33.9997 87.6194 34.074 87.6422L35.0569 87.9399L35.4583 86.9916ZM35.4583 86.0434C35.2935 85.7825 35.0516 85.5793 34.7662 85.4619C34.9112 85.5091 35.0453 85.5848 35.1607 85.6846C35.276 85.7845 35.3701 85.9065 35.4375 86.0434H35.4583ZM24.1829 71.0372C25.8718 72.6361 31.1046 78.0212 32.8627 84.6036C28.1906 82.4718 19.7116 78.1526 13.1845 72.2207C9.89668 69.2167 8.51242 66.3652 8.84466 65.1124C8.89312 64.9393 8.99689 64.5309 9.83441 64.344C10.0617 64.2944 10.294 64.2711 10.5266 64.2747C13.9182 64.2747 21.2758 68.2962 24.1622 71.0372H24.1829Z" fill="#ED057D"/>
<path d="M33.4159 87.123C25.3868 73.4389 7.80588 64.4409 7.63283 64.3509L8.66415 62.2744C9.41169 62.6551 27.0134 71.6601 35.3955 85.9394L33.4159 87.123Z" fill="#ED057D"/>
<path d="M33.8044 87.519C23.7319 81.1808 14.7593 73.2438 7.23919 64.0201L9.05958 62.6357C16.4086 71.638 25.1727 79.3852 35.0088 85.574L33.8044 87.519Z" fill="#ED057D"/>
<path d="M34.3436 137.402L34.7727 137.09L34.8211 136.564C34.8211 136.253 34.8627 136.066 33.5407 133.892C32.4841 132.168 31.3286 130.506 30.0798 128.916C26.2709 123.926 21.5788 119.677 16.2366 116.38C12.485 114.062 5.56345 112.144 2.26875 113.148C1.84108 113.251 1.44135 113.448 1.09803 113.723C0.754704 113.998 0.476135 114.345 0.282166 114.74C-0.472294 116.422 0.28223 118.616 2.60098 121.274C4.89975 123.803 7.53908 126 10.4432 127.801C15.4167 130.972 20.7343 133.568 26.2937 135.54C28.5294 136.329 30.3152 136.841 31.4227 137.131C32.1567 137.368 32.9125 137.531 33.6791 137.616C33.9196 137.63 34.1568 137.554 34.3436 137.402ZM15.0945 118.339C23.615 123.447 29.0416 131.006 31.3534 134.723C24.4229 132.74 17.8175 129.76 11.7444 125.877C5.39037 121.807 1.74271 117.239 2.4418 115.681C2.58375 115.503 2.78535 115.383 3.00933 115.342C3.4986 115.21 4.00461 115.149 4.51136 115.162C8.23798 115.379 11.8621 116.465 15.0945 118.332V118.339Z" fill="#ED057D"/>
<path d="M32.848 137.264C32.6542 137.056 12.6784 116.499 1.36152 116.353V114.062C13.6267 114.208 33.6302 134.827 34.4746 135.672L32.848 137.264Z" fill="#ED057D"/>
<path d="M33.0909 137.451C32.0942 136.863 8.59525 122.916 0.628448 116.077L2.12355 114.34C9.93807 121.075 34.0185 135.34 34.2607 135.479L33.0909 137.451Z" fill="#ED057D"/>
<path d="M57.1923 87.6362L54.9566 87.1517C58.1267 72.4363 66.1489 59.7698 72.323 51.7338C76.1575 46.6724 80.4384 41.9653 85.1141 37.6689L86.623 39.3924C82.0778 43.6156 77.9091 48.2268 74.1641 53.1735C68.0938 61.0157 60.2724 73.343 57.1923 87.6362Z" fill="#ED057D"/>
<path d="M58.8117 80.9562L56.5345 80.6863C58.4033 65.168 46.3666 42.3403 46.242 42.1119L48.2701 41.0322C50.5488 45.4892 52.5506 50.0822 54.2642 54.7854C58.1196 65.3271 59.6492 74.1314 58.8117 80.9562Z" fill="#ED057D"/>
<path d="M46.7607 167.609C45.5287 152.049 28.8337 132.198 28.6676 132.004L30.4118 130.516C31.104 131.353 47.7575 151.128 49.0449 167.429L46.7607 167.609Z" fill="#ED057D"/>
<path d="M53.8358 100.856L51.5654 100.551C51.5654 100.302 54.258 78.4848 40.6708 65.8459L42.2351 64.1709C48.2362 69.7567 52.1468 77.8757 53.5381 87.649C54.1861 92.0217 54.2861 96.4582 53.8358 100.856Z" fill="#ED057D"/>
<path d="M61.5805 255.77C54.4275 231.26 49.7026 206.105 47.4742 180.67C45.8497 161.951 45.9655 143.122 47.8203 124.425C50.9696 93.9696 58.2027 76.9631 58.2512 76.79L60.3276 77.6968C57.8635 83.4418 52.5408 100.67 50.056 124.764C48.2279 143.308 48.1213 161.982 49.7376 180.545C51.953 205.803 56.6477 230.781 63.7539 255.119L61.5805 255.77Z" fill="#ED057D"/>
<path d="M58.8114 81.1782L56.6311 80.4861C61.9746 63.5627 63.5527 38.714 63.5527 38.4648L65.8438 38.6032C65.7745 38.8524 64.2172 63.978 58.8114 81.1782Z" fill="#ED057D"/>
<path d="M48.2348 121.656C48.2348 121.483 46.8505 103.763 33.0072 86.7776L34.7792 85.3311C49.107 102.912 50.4359 120.756 50.4844 121.504L48.2348 121.656Z" fill="#ED057D"/>
<path d="M48.5951 134.716L47.2108 132.896C58.5346 124.299 59.3652 113.474 59.3722 113.37L61.6562 113.515C61.6286 114 60.7426 125.497 48.5951 134.716Z" fill="#ED057D"/>
<path d="M63.3386 113.731C64.009 113.226 64.4838 112.505 64.6822 111.69C64.8807 110.875 64.7904 110.016 64.4268 109.26C64.0632 108.504 63.4488 107.898 62.6881 107.544C61.9275 107.19 61.0677 107.11 60.2552 107.319C59.4427 107.528 58.7277 108.012 58.2321 108.689C57.7364 109.366 57.4907 110.194 57.5368 111.031C57.5829 111.869 57.9179 112.665 58.4848 113.283C59.0517 113.901 59.8155 114.304 60.646 114.423C60.827 114.451 61.0097 114.464 61.1928 114.464C61.9682 114.456 62.7206 114.199 63.3386 113.731ZM62.2726 110.027C62.3761 110.168 62.4508 110.328 62.4924 110.498C62.5339 110.668 62.5416 110.844 62.5148 111.017C62.4908 111.192 62.4318 111.359 62.3415 111.51C62.2511 111.661 62.1311 111.793 61.9888 111.896C61.8484 112.001 61.6886 112.077 61.5188 112.12C61.3489 112.162 61.1723 112.171 60.999 112.145C60.7382 112.104 60.4951 111.987 60.3005 111.809C60.1058 111.63 59.9681 111.398 59.9046 111.142C59.8411 110.886 59.8545 110.616 59.9433 110.368C60.0321 110.119 60.1923 109.902 60.4038 109.744C60.6904 109.537 61.0467 109.451 61.3962 109.504C61.7456 109.557 62.0603 109.745 62.2726 110.027Z" fill="#ED057D"/>
<path d="M73.6308 116.105C74.4049 115.532 74.9203 114.676 75.0635 113.724C75.1696 113.015 75.0636 112.292 74.7589 111.644C74.4543 110.996 73.9646 110.452 73.3516 110.082C72.7387 109.712 72.0298 109.531 71.3145 109.563C70.5991 109.595 69.9092 109.838 69.3317 110.262C68.7543 110.685 68.3151 111.27 68.0695 111.943C67.824 112.616 67.7831 113.346 67.9519 114.042C68.1208 114.738 68.4918 115.368 69.0183 115.853C69.5449 116.339 70.2032 116.657 70.9106 116.769C71.0915 116.796 71.2743 116.81 71.4574 116.811C72.239 116.816 73.0013 116.568 73.6308 116.105ZM72.551 112.388C72.7564 112.677 72.8431 113.033 72.7933 113.384C72.7703 113.558 72.7117 113.725 72.6212 113.875C72.5307 114.025 72.4102 114.155 72.2672 114.257C72.1275 114.363 71.9679 114.439 71.7978 114.482C71.6277 114.525 71.4507 114.533 71.2774 114.506C70.9279 114.449 70.6133 114.261 70.3984 113.98C70.2942 113.838 70.2189 113.678 70.1768 113.507C70.1347 113.337 70.1266 113.16 70.1529 112.986C70.1793 112.813 70.2396 112.646 70.3304 112.496C70.4212 112.346 70.5407 112.215 70.6822 112.111C70.9088 111.938 71.1863 111.846 71.4712 111.848C71.6803 111.85 71.886 111.9 72.073 111.994C72.2601 112.087 72.4235 112.222 72.551 112.388Z" fill="#ED057D"/>
<path d="M41.5559 65.7285C42.2301 65.223 42.7081 64.4994 42.9084 63.6809C43.1086 62.8624 43.0188 61.9999 42.6542 61.2403C42.2896 60.4806 41.6728 59.8708 40.9089 59.5151C40.1451 59.1594 39.2815 59.0797 38.4654 59.2895C37.6493 59.4993 36.9313 59.9855 36.4337 60.6655C35.9361 61.3455 35.6898 62.1772 35.7367 63.0185C35.7837 63.8598 36.121 64.6588 36.6911 65.2792C37.2613 65.8996 38.0291 66.303 38.8634 66.4207C39.0444 66.4485 39.2271 66.4624 39.4102 66.4622C40.1857 66.4548 40.9382 66.1974 41.5559 65.7285ZM40.4762 62.0184C40.5814 62.1584 40.6572 62.3184 40.6988 62.4886C40.7404 62.6587 40.7471 62.8356 40.7184 63.0083C40.6954 63.1821 40.6369 63.3492 40.5464 63.4993C40.4559 63.6493 40.3353 63.7791 40.1923 63.8805C40.0516 63.9843 39.8916 64.0591 39.7217 64.1007C39.5518 64.1423 39.3754 64.1497 39.2026 64.1226C38.8531 64.0661 38.5385 63.8779 38.3235 63.5966C38.2194 63.4553 38.144 63.2949 38.1019 63.1244C38.0598 62.954 38.0517 62.777 38.0781 62.6035C38.1044 62.4299 38.1647 62.2631 38.2555 62.1129C38.3463 61.9627 38.4659 61.8318 38.6073 61.7278C38.834 61.5552 39.1115 61.4628 39.3963 61.4648C39.6051 61.461 39.8118 61.5067 39.9994 61.5982C40.1871 61.6896 40.3505 61.8242 40.4762 61.9909V62.0184Z" fill="#ED057D"/>
<path d="M57.2199 125.351L56.154 123.323C62.5842 119.946 68.6129 113.91 68.6614 113.848L70.2949 115.46C70.0388 115.723 63.9685 121.794 57.2199 125.351Z" fill="#ED057D"/>
<path d="M54.3676 227.26C51.081 222.648 46.8115 218.822 41.8672 216.06C39.9372 214.956 37.8643 214.122 35.7069 213.583L36.1499 211.333C36.5998 211.423 47.2937 213.638 56.2227 225.91L54.3676 227.26Z" fill="#ED057D"/>
<path d="M35.4096 214.696C36.1943 214.139 36.7262 213.294 36.8884 212.345C37.0506 211.397 36.8299 210.422 36.2748 209.636C35.7195 208.851 34.8748 208.318 33.9265 208.155C32.9783 207.992 32.0042 208.213 31.2186 208.768C30.4329 209.323 29.9 210.168 29.7371 211.116C29.5742 212.064 29.7946 213.038 30.3499 213.824C30.6235 214.215 30.9726 214.548 31.3768 214.803C31.781 215.057 32.232 215.228 32.7033 215.305C32.9063 215.344 33.1126 215.363 33.3193 215.361C34.068 215.361 34.7983 215.129 35.4096 214.696ZM34.406 210.959C34.5546 211.174 34.6365 211.429 34.6416 211.691C34.6467 211.952 34.5747 212.21 34.4346 212.431C34.2945 212.653 34.0924 212.828 33.8535 212.935C33.6145 213.043 33.3493 213.077 33.0908 213.035C32.83 212.991 32.5881 212.87 32.396 212.688C32.2038 212.506 32.0699 212.272 32.0113 212.014C31.9528 211.756 31.9721 211.486 32.0669 211.239C32.1618 210.992 32.3279 210.779 32.5441 210.626C32.7679 210.466 33.037 210.381 33.3124 210.384C33.5273 210.385 33.7389 210.438 33.9292 210.538C34.1195 210.638 34.283 210.782 34.406 210.959Z" fill="#ED057D"/>
<path d="M51.8419 198.347L49.5855 197.932C51.285 188.686 53.9339 179.64 57.4899 170.938L59.5664 171.865C56.087 180.403 53.4985 189.278 51.8419 198.347Z" fill="#ED057D"/>
</svg>
