<svg width="1750" height="465" viewBox="0 0 1750 465" fill="none" xmlns="http://www.w3.org/2000/svg">
<g clip-path="url(#clip0)">
<path d="M100.058 414.358C98.7532 414.436 97.4562 414.112 96.3422 413.429C95.4249 412.767 94.7302 411.842 94.3503 410.776C93.8929 409.545 93.6689 408.24 93.6898 406.927C93.6791 406.236 93.7239 405.546 93.824 404.863C93.9095 404.323 94.0407 403.791 94.2161 403.273L125.787 323.702C126.582 322.014 127.161 320.231 127.51 318.398C127.768 316.798 127.015 316.003 125.25 316.003C122.02 316.141 118.855 316.957 115.961 318.398C111.62 320.442 107.45 322.834 103.494 325.55C103.137 325.874 102.718 326.124 102.262 326.283C101.807 326.443 101.324 326.509 100.842 326.479C99.9543 326.396 99.5106 325.735 99.5106 324.497C99.686 322.897 101.059 320.782 103.639 318.129C106.617 315.135 109.908 312.467 113.454 310.172C117.339 307.568 121.417 305.263 125.652 303.278C129.065 301.518 132.819 300.522 136.654 300.357C139.131 300.357 141.343 301.861 143.29 304.867C145.237 307.874 145.678 310.791 144.611 313.619L130.823 347.574C130.286 348.988 130.286 349.865 130.823 350.226C131.205 350.522 131.663 350.705 132.144 350.752L172.466 349.163C172.868 349.127 173.239 348.934 173.498 348.626C173.898 348.176 174.173 347.627 174.293 347.037L189.939 308.046C190.757 306.339 192.108 304.944 193.789 304.073C195.592 303.033 197.502 302.189 199.486 301.555C200.851 301.053 202.278 300.741 203.727 300.626C205.141 300.626 205.987 300.977 206.245 301.658C206.568 302.78 206.704 303.948 206.648 305.115C206.42 306.63 205.975 308.103 205.327 309.491C204.439 311.7 203.287 314.393 201.87 317.572L174.087 387.524C171.61 394.405 171.699 397.845 174.355 397.845C176.471 397.845 179.082 397.009 182.178 395.316C185.412 393.551 188.516 391.558 191.466 389.351C194.563 387.06 197.26 384.937 199.558 382.983C201.859 381.043 203.356 379.722 204.068 379.01C204.243 378.834 204.377 378.742 204.47 378.742H204.863C205.188 378.686 205.522 378.709 205.837 378.809C206.152 378.909 206.438 379.083 206.672 379.316C206.905 379.55 207.08 379.836 207.18 380.151C207.28 380.466 207.303 380.8 207.247 381.126C207.235 381.883 207.006 382.621 206.586 383.252C206.249 383.823 205.851 384.356 205.399 384.841C202.386 388.205 199.424 391.346 196.513 394.264C193.603 397.181 190.686 399.878 187.761 402.355C185.036 404.682 182.103 406.755 178.999 408.547C176.262 410.15 173.376 411.484 170.382 412.531C167.565 413.498 164.608 413.99 161.63 413.986C159.721 413.924 157.913 413.116 156.593 411.736C155.052 410.313 153.871 408.545 153.146 406.576C152.454 405.075 152.358 403.367 152.878 401.798L168.524 362.28C168.856 361.324 169.256 360.393 169.721 359.494C169.989 359.05 169.721 358.833 168.792 358.833L128.48 360.423C127.982 360.448 127.49 360.539 127.015 360.691C126.261 360.985 125.646 361.553 125.291 362.28L106.415 409.301C105.882 410.718 104.963 411.958 103.763 412.882C102.731 413.781 101.424 414.301 100.058 414.358Z" fill="#ED057D"/>
<path d="M253.09 414.068C249.541 413.933 246.138 412.627 243.409 410.353C240.122 407.888 237.323 404.833 235.153 401.343C233.114 398.364 231.961 394.868 231.83 391.26C231.83 385.604 233.333 381.184 236.34 377.998C239.347 374.813 244.122 371.895 250.665 369.247L277.715 358.111C281.258 356.693 283.322 355.455 283.907 354.395C284.526 353.363 284.939 351.041 285.104 347.501L285.631 330.524C285.896 326.203 284.526 321.94 281.791 318.583C279.039 315.233 275.104 313.554 269.985 313.547C267.279 313.557 264.592 314.003 262.028 314.868C259.633 315.621 257.39 316.792 255.402 318.325C254.312 319.073 253.551 320.211 253.276 321.504C252.913 322.979 252.736 324.495 252.75 326.014C252.75 326.702 252.791 327.497 252.873 328.398C252.959 329.19 253.004 329.986 253.008 330.782C253.008 331.67 251.903 332.867 249.695 334.374C247.357 335.943 244.867 337.274 242.264 338.347C240.142 339.35 237.847 339.935 235.504 340.07C234.739 340.111 233.985 339.877 233.378 339.41C233.123 339.202 232.919 338.939 232.781 338.64C232.643 338.342 232.575 338.015 232.583 337.686C232.704 334.445 233.664 331.291 235.37 328.532C237.432 325.051 240.094 321.962 243.234 319.409C247.312 315.698 251.755 312.409 256.496 309.594C260.96 306.896 265.683 304.653 270.594 302.896C274.505 301.437 278.63 300.631 282.803 300.512C285.765 300.434 288.709 300.997 291.433 302.164C294.157 303.331 296.596 305.074 298.583 307.272C302.711 311.785 304.7 317.4 304.548 324.115L303.227 387.772C302.901 390.988 303.8 394.21 305.745 396.792C306.564 397.878 307.627 398.756 308.848 399.355C310.069 399.954 311.414 400.257 312.774 400.239C317.191 400.239 320.463 399.265 322.589 397.318C323.116 396.642 323.865 396.174 324.704 395.997C325.094 395.97 325.485 396.026 325.851 396.163C326.217 396.299 326.55 396.512 326.827 396.788C327.103 397.064 327.318 397.396 327.455 397.761C327.593 398.127 327.651 398.518 327.625 398.908C327.625 400.858 326.655 402.798 324.704 404.749C322.028 407.466 318.943 409.747 315.56 411.509C312.752 413.064 309.614 413.927 306.406 414.027C298.273 414.027 291.82 409.431 287.045 400.239H286.25C281.214 404.518 275.587 408.046 269.541 410.714C264.336 412.917 258.742 414.057 253.09 414.068ZM265.557 401.343C268.653 401.429 271.731 400.841 274.577 399.62C277.044 398.476 279.287 396.904 281.203 394.976C282.186 393.943 282.954 392.726 283.463 391.394C284.232 389.037 284.636 386.577 284.661 384.098L285.187 371.104C285.403 369.687 285.312 368.241 284.919 366.863C284.76 366.44 284.467 366.081 284.085 365.84C283.703 365.6 283.253 365.491 282.803 365.531C282.177 365.569 281.556 365.658 280.945 365.799C279.77 366.051 278.618 366.396 277.498 366.832C268.12 370.189 261.622 373.681 258.003 377.307C254.384 380.933 252.557 384.259 252.522 387.287C252.522 391.883 253.899 395.375 256.651 397.762C259.071 400.021 262.247 401.298 265.557 401.343Z" fill="#ED057D"/>
<path d="M434.246 414.068C428.106 414.196 421.982 413.392 416.082 411.684C411.331 410.21 406.678 408.438 402.15 406.38C400.142 405.334 398.273 404.04 396.587 402.53C394.741 401.033 393.511 398.91 393.129 396.565C392.606 392.85 391.991 388.377 391.282 383.148C390.599 378.182 390.254 373.176 390.25 368.163C390.277 367.59 390.449 367.034 390.751 366.546C391.052 366.059 391.473 365.656 391.974 365.376C393.015 364.618 394.267 364.203 395.555 364.19C396.614 364.19 398.737 368.077 401.923 375.852C405.624 385.058 410.839 392.354 417.568 397.741C424.297 403.129 431.281 405.826 438.519 405.833C447.89 405.833 455.582 403.621 461.596 399.197C467.543 394.859 472.141 388.927 474.858 382.085C477.68 375.137 479.12 367.705 479.099 360.206C479.15 353.607 478.028 347.051 475.786 340.845C473.755 335.088 470.186 329.998 465.466 326.128C460.746 322.336 454.76 320.441 447.508 320.441C446.265 320.443 445.023 320.533 443.793 320.709C442.554 320.885 441.233 321.06 439.819 321.236L434.773 321.906C432.486 322.187 430.183 322.318 427.879 322.299C426.412 322.277 424.95 322.146 423.503 321.906C421.911 321.667 420.379 321.124 418.993 320.307C418.363 319.952 417.844 319.429 417.495 318.797C417.145 318.165 416.977 317.447 417.011 316.726C417.011 314.434 418.291 312.756 420.85 311.689C422.896 310.747 425.103 310.207 427.352 310.1C429.829 310.1 431.811 310.1 433.318 310.234C434.713 310.306 436.097 310.527 437.446 310.894C438.86 311.07 440.408 311.256 442.09 311.421C444.337 311.628 446.593 311.717 448.85 311.689C453.983 311.689 458.052 310.055 461.059 306.787C464.216 303.229 466.446 298.946 467.551 294.32C468.872 289.343 469.541 284.215 469.543 279.066C469.494 273.597 468.738 268.158 467.293 262.884C465.795 257.243 462.599 252.199 458.138 248.435C453.535 244.451 446.655 242.459 437.497 242.459C434.006 242.455 430.55 243.159 427.338 244.526C424.126 245.894 421.224 247.897 418.807 250.416C413.406 255.721 409.116 264.387 405.937 276.414C405.754 277.396 405.371 278.329 404.812 279.157C404.253 279.984 403.529 280.687 402.686 281.223C400.911 282.462 399.673 283.081 398.971 283.081C398.259 283.081 397.639 282.276 397.113 280.686C396.626 279.323 396.358 277.892 396.318 276.445C396.289 272.32 396.554 268.198 397.113 264.112C397.636 260.493 398.255 256.471 398.971 252.047C399.249 250.835 399.594 249.64 400.003 248.466C400.189 247.978 400.514 247.554 400.938 247.248C401.361 246.942 401.865 246.766 402.387 246.742C405.497 245.997 408.52 244.928 411.407 243.553C414.407 242.136 417.544 240.722 420.819 239.312C424.137 237.88 427.551 236.683 431.037 235.73C434.756 234.735 438.591 234.246 442.441 234.275C451.031 234.231 459.561 235.712 467.633 238.651C475.184 241.286 481.876 245.923 486.995 252.068C491.948 258.074 494.425 265.942 494.425 275.671C494.425 285.399 492.127 293.136 487.531 298.881C482.928 304.626 476.475 309.178 468.17 312.535C467.881 312.573 467.616 312.716 467.426 312.937C467.235 313.158 467.133 313.441 467.138 313.733C467.147 314.05 467.25 314.357 467.434 314.616C467.618 314.875 467.874 315.074 468.17 315.188C473.88 316.93 479.424 319.179 484.734 321.906C490.589 324.916 495.567 329.389 499.183 334.89C503.071 340.642 505.018 348.643 505.025 358.895C505.025 368.968 502.857 377.499 498.523 384.49C494.276 391.409 488.5 397.263 481.638 401.601C474.583 406.056 466.827 409.287 458.696 411.158C450.685 413.065 442.481 414.042 434.246 414.068Z" fill="#ED057D"/>
<path d="M525.49 465C524.558 465.059 523.627 464.854 522.806 464.409C521.985 463.963 521.305 463.296 520.846 462.482C519.848 460.734 519.259 458.783 519.122 456.775C518.586 448.457 517.884 441.294 516.996 435.102C516.109 428.91 515.314 423.522 514.612 418.661C513.918 413.876 513.573 409.048 513.58 404.213C513.585 403.113 513.948 402.044 514.612 401.168C514.938 400.699 515.376 400.319 515.886 400.063C516.396 399.807 516.962 399.683 517.533 399.703C527.427 399.703 536.533 395.196 544.851 386.183C553.17 377.169 559.799 362.58 564.739 342.414C569.693 322.261 572.17 295.651 572.17 262.585C572.17 257.452 571.021 253.606 568.723 251.046C566.425 248.487 561.915 246.584 555.193 245.339C549.365 244.279 546.448 242.511 546.441 240.034C546.441 239.002 547.143 238.228 548.567 237.784C550.378 237.286 552.252 237.06 554.13 237.114C555.894 237.114 558.113 237.206 560.766 237.382C563.418 237.557 566.37 237.743 569.652 237.919C572.934 238.094 576.143 238.177 579.332 238.177H620.181C624.598 238.177 629.07 238.132 633.598 238.042C638.125 237.953 642.855 237.912 647.788 237.919C651.679 237.919 654.951 237.867 657.603 237.784C660.256 237.702 663.083 237.557 666.097 237.382C669.111 237.206 672.991 237.114 677.759 237.114C679.64 237.061 681.518 237.287 683.332 237.784C684.746 238.228 685.458 238.971 685.458 240.034C685.419 240.705 685.201 241.354 684.827 241.913C684.453 242.471 683.937 242.92 683.332 243.213C681.272 244.32 679.026 245.04 676.706 245.339C670.163 246.577 665.209 248.521 661.845 251.17C658.48 253.819 656.802 258.24 656.808 264.432V391.26C656.808 393.386 657.913 395.017 660.121 396.173C662.757 397.449 665.579 398.299 668.481 398.691C671.73 399.208 675.008 399.518 678.296 399.62C681.475 399.703 683.948 399.744 685.716 399.744C687.13 399.744 687.976 400.281 688.245 401.344C688.502 402.384 688.634 403.451 688.637 404.522C688.513 408.121 688.168 411.709 687.605 415.266C686.917 420.302 686.167 426.357 685.355 433.43C684.543 440.503 683.969 448.195 683.631 456.507C683.49 458.514 682.901 460.464 681.908 462.214C681.448 463.027 680.769 463.695 679.948 464.14C679.126 464.586 678.196 464.791 677.264 464.732C676.742 464.794 676.212 464.743 675.711 464.584C675.21 464.425 674.749 464.161 674.358 463.809C673.968 463.457 673.656 463.026 673.445 462.545C673.235 462.063 673.129 461.542 673.136 461.017C672.867 458.54 672.644 455.977 672.465 453.328C672.043 444.729 670.981 436.174 669.286 427.733C667.869 421.458 665.481 416.986 662.124 414.316C658.766 411.647 653.815 410.319 647.272 410.333H555.461C548.918 410.333 543.967 411.709 540.61 414.461C537.252 417.213 534.865 421.723 533.447 427.991C532.023 434.259 531.049 442.791 530.526 453.586C530.354 456.242 530.09 458.805 529.732 461.275C529.714 461.803 529.589 462.323 529.363 462.801C529.137 463.28 528.815 463.707 528.418 464.056C528.02 464.405 527.555 464.669 527.052 464.831C526.548 464.994 526.017 465.051 525.49 465ZM554.13 400.807H626.28C630.347 400.807 632.91 400.102 633.969 398.691C635.029 397.281 635.558 395.158 635.558 392.323V262.357C635.558 257.761 634.984 254.135 633.835 251.48C632.686 248.824 630.433 247.499 627.075 247.506H590.2C587.372 247.506 585.383 248.39 584.234 250.159C583.085 251.927 582.511 254.93 582.511 259.168C582.654 277.375 581.768 295.575 579.859 313.681C578.496 326.856 576.055 339.896 572.562 352.672C569.466 363.378 565.929 372.174 561.952 379.062C558.512 385.244 554.279 390.951 549.361 396.039C547.06 398.34 546.792 399.703 548.567 400.167C550.387 400.609 552.256 400.824 554.13 400.807Z" fill="#ED057D"/>
<path d="M799.211 414.068C787.778 414.127 776.437 412.026 765.783 407.876C749.47 401.598 735.48 390.458 725.707 375.966C715.934 361.473 710.851 344.327 711.146 326.85C711.09 315.052 713.052 303.331 716.946 292.194C720.743 281.322 726.61 271.288 734.223 262.646C742.085 253.788 751.766 246.73 762.604 241.954C773.916 236.821 786.913 234.258 801.595 234.265C813.025 234.206 824.363 236.307 835.013 240.457C851.325 246.735 865.314 257.873 875.086 272.363C884.859 286.854 889.943 303.998 889.65 321.473C889.67 333.214 887.698 344.873 883.819 355.954C880.062 366.889 874.211 376.988 866.594 385.687C858.73 394.526 849.053 401.567 838.223 406.328C826.863 411.495 813.86 414.075 799.211 414.068ZM803.185 403.459C816.801 403.459 828.119 400.586 837.139 394.841C846.201 389.046 853.279 380.625 857.429 370.702C861.936 360.381 864.189 348.313 864.189 334.497C864.26 322.87 862.834 311.281 859.948 300.017C857.403 289.866 853.141 280.225 847.346 271.512C842.036 263.549 834.898 256.971 826.53 252.326C818.211 247.73 808.486 245.432 797.354 245.432C784.095 245.432 772.956 248.263 763.936 253.925C754.895 259.604 747.777 267.876 743.511 277.663C738.908 287.832 736.607 299.81 736.607 313.598C736.517 325.292 737.886 336.952 740.684 348.306C743.161 358.499 747.378 368.187 753.151 376.946C758.443 385.005 765.579 391.688 773.967 396.441C782.306 401.12 792.045 403.459 803.185 403.459Z" fill="#ED057D"/>
<path d="M915.647 411.684C913.768 411.734 911.89 411.512 910.074 411.024C908.66 410.58 907.948 409.827 907.948 408.764C907.948 406.651 910.865 405.062 916.7 403.996C923.415 402.757 928.324 400.724 931.427 397.896C934.53 395.068 936.079 390.379 936.072 383.829V271.935C936.072 263.974 935.04 257.875 932.976 253.636C930.911 249.398 926.535 246.646 919.848 245.38C917.524 245.083 915.275 244.362 913.212 243.254C912.607 242.962 912.092 242.512 911.72 241.953C911.348 241.394 911.132 240.746 911.096 240.075C911.096 239.043 911.798 238.269 913.212 237.825C915.026 237.328 916.904 237.102 918.785 237.155H929.549C931.933 237.155 934.193 237.206 936.309 237.289C938.425 237.371 941.263 237.423 944.803 237.423C948.343 237.423 951.914 237.289 955.546 237.031C959.179 236.773 962.575 236.494 965.753 236.226C968.932 235.957 971.76 235.833 974.237 235.833C994.403 235.833 1010.63 239.989 1022.91 248.301C1035.19 256.612 1041.33 268.195 1041.34 283.05C1041.45 293.342 1039.28 303.531 1034.98 312.886C1030.78 321.94 1024 329.551 1015.49 334.766C1006.74 340.27 995.552 343.022 981.936 343.022C978.045 343.022 975.073 342.444 973.05 341.299C971.027 340.153 969.954 339.038 969.954 337.975C970.025 337.501 970.19 337.046 970.44 336.636C970.69 336.227 971.02 335.871 971.409 335.591C972.142 334.82 973.135 334.349 974.196 334.27C975.083 334.27 976.456 334.353 978.324 334.528C980.192 334.704 982.875 334.797 986.415 334.797C997.011 334.797 1005.01 330.376 1010.41 321.535C1015.81 312.694 1018.51 300.491 1018.5 284.928C1018.5 270.789 1014.35 260.314 1006.03 253.502C997.723 246.691 987.114 243.285 974.206 243.285C969.995 243.125 965.808 243.993 962.007 245.813C958.828 247.492 957.239 250.365 957.239 254.431V380.919C957.239 387.283 958.563 392.409 961.212 396.296C963.861 400.184 968.475 402.764 975.052 404.037C977.338 404.351 979.571 404.976 981.688 405.895C982.291 406.115 982.815 406.509 983.193 407.027C983.572 407.545 983.788 408.164 983.814 408.805C983.814 409.837 983.102 410.621 981.688 411.065C979.872 411.553 977.995 411.776 976.115 411.726C972.441 411.783 968.766 411.607 965.114 411.199C962.54 410.842 960.239 410.532 958.209 410.27C955.527 409.967 952.828 409.833 950.128 409.868C945.697 409.868 941.762 410.002 938.322 410.27C934.881 410.539 931.441 410.848 928.001 411.199C924.54 411.523 920.422 411.684 915.647 411.684Z" fill="#ED057D"/>
<path d="M1128.36 414.068C1114.56 414.068 1103.29 410.931 1094.54 404.656C1085.8 398.379 1079.04 389.725 1075.07 379.722C1070.75 368.975 1068.58 357.484 1068.7 345.902C1068.78 332.707 1071.07 319.619 1075.47 307.179C1080 294.044 1086.78 281.794 1095.49 270.975C1104.34 259.92 1115.41 250.84 1127.98 244.317C1140.8 237.602 1155.52 234.244 1172.14 234.244C1185.95 234.244 1197.26 237.382 1206.1 243.656C1214.89 249.883 1221.67 258.552 1225.59 268.591C1229.81 279.361 1231.91 290.844 1231.79 302.411C1231.7 315.606 1229.41 328.694 1225.02 341.133C1220.48 354.265 1213.7 366.514 1204.99 377.338C1196.16 388.408 1185.09 397.504 1172.53 404.037C1159.69 410.731 1144.97 414.075 1128.36 414.068ZM1129.16 405.812C1138.48 405.868 1147.65 403.537 1155.82 399.042C1164.28 394.332 1171.83 388.133 1178.09 380.743C1184.88 372.811 1190.55 363.979 1194.93 354.498C1199.54 344.643 1203.1 334.327 1205.54 323.723C1207.97 313.423 1209.22 302.879 1209.26 292.297C1209.28 284.096 1207.98 275.945 1205.41 268.157C1203.12 260.815 1198.91 254.221 1193.21 249.064C1187.64 244.111 1180.35 241.634 1171.33 241.634C1162.21 241.615 1153.24 243.992 1145.33 248.528C1136.94 253.349 1129.48 259.642 1123.32 267.105C1116.58 275.185 1110.84 284.045 1106.22 293.494C1101.34 303.337 1097.6 313.704 1095.07 324.394C1092.56 334.728 1091.28 345.32 1091.23 355.954C1091.2 364.067 1092.5 372.131 1095.07 379.825C1097.38 387.043 1101.6 393.504 1107.28 398.526C1112.84 403.411 1120.13 405.853 1129.16 405.853V405.812Z" fill="#ED057D"/>
<path d="M1244.8 411.685C1242.92 411.735 1241.04 411.512 1239.23 411.024C1237.81 410.58 1237.1 409.827 1237.1 408.764C1237.1 406.652 1240.02 405.062 1245.85 403.996C1252.57 402.758 1257.7 400.724 1261.24 397.897C1264.78 395.069 1266.55 390.469 1266.55 384.098V264.711C1266.55 258.343 1265.22 253.668 1262.56 250.654C1259.9 247.641 1255.34 245.886 1248.77 245.349C1246.44 245.213 1244.17 244.531 1242.15 243.358C1241.54 243.031 1241.03 242.556 1240.66 241.976C1240.28 241.397 1240.07 240.732 1240.02 240.045C1240.02 239.013 1240.72 238.239 1242.15 237.795C1243.96 237.298 1245.83 237.072 1247.71 237.124H1258.86C1261.51 237.124 1264.02 237.176 1266.41 237.258C1268.81 237.341 1271.76 237.392 1275.3 237.392C1278.22 237.411 1281.14 237.28 1284.05 237C1286.53 236.732 1289.31 236.515 1292.41 236.329C1295.5 236.144 1299.63 236.071 1304.79 236.071C1325.48 236.071 1340.9 239.033 1351.07 244.957C1361.24 250.881 1366.32 261.092 1366.32 275.588C1366.42 281.009 1365.37 286.388 1363.23 291.368C1361.16 295.882 1359.17 299.109 1357.25 301.049C1354.91 303.469 1352.34 305.647 1349.56 307.551C1346.37 309.499 1343 311.141 1339.49 312.453C1339.2 312.491 1338.94 312.634 1338.75 312.855C1338.56 313.076 1338.45 313.359 1338.46 313.65C1338.47 313.968 1338.57 314.275 1338.75 314.534C1338.94 314.793 1339.19 314.992 1339.49 315.106C1343.78 316.432 1347.99 318.028 1352.08 319.884C1356.46 321.861 1360.56 324.401 1364.28 327.439C1368.26 330.753 1371.43 334.923 1373.57 339.637C1375.95 344.681 1377.14 351.093 1377.15 358.875C1377.15 368.597 1375.6 376.289 1372.51 381.951C1369.88 387.065 1366.11 391.509 1361.5 394.945C1357.69 397.679 1353.7 400.161 1349.56 402.376C1343.51 405.403 1337.1 407.63 1330.47 409.001C1321.91 410.716 1313.2 411.515 1304.47 411.385C1302.17 411.385 1298.73 411.21 1294.15 410.859C1289.58 410.508 1284.63 410.329 1279.3 410.322C1274.7 410.322 1270.81 410.412 1267.63 410.591C1264.44 410.766 1261.13 410.993 1257.68 411.251C1254.23 411.509 1249.92 411.685 1244.8 411.685ZM1299.44 311.958C1304.64 311.909 1309.82 311.377 1314.92 310.368C1320.73 309.216 1326.33 307.158 1331.5 304.269C1333.44 303.21 1335.92 300.643 1338.92 296.57C1341.93 292.497 1343.43 286.649 1343.43 279.025C1343.39 273.635 1342.4 268.295 1340.51 263.245C1338.57 257.844 1334.86 253.289 1329.38 249.581C1323.89 245.872 1315.67 244.018 1304.71 244.018C1297.45 244.018 1292.72 244.988 1290.52 246.928C1288.3 248.879 1287.21 251.882 1287.21 255.949V302.102C1287.21 306.705 1288.71 309.488 1291.72 310.451C1294.2 311.35 1296.8 311.858 1299.44 311.958ZM1308.19 400.549C1315.76 400.601 1323.23 398.778 1329.93 395.244C1336.47 391.878 1342.03 386.906 1346.12 380.796C1350.18 374.715 1352.3 367.548 1352.22 360.237C1352.22 353.357 1351.07 347.656 1348.77 343.136C1346.77 339.036 1344.08 335.311 1340.81 332.124C1338.36 329.708 1335.58 327.654 1332.56 326.025C1329.12 324.143 1325.47 322.674 1321.69 321.649C1316.73 320.149 1310.28 319.396 1302.33 319.389C1296.66 319.389 1292.72 320.538 1290.52 322.836C1288.3 325.137 1287.21 327.181 1287.21 328.945V381.724C1287.21 389.155 1289.02 394.15 1292.64 396.71C1296.25 399.269 1301.44 400.549 1308.19 400.549Z" fill="#ED057D"/>
<path d="M1400.49 411.685C1398.61 411.735 1396.73 411.512 1394.92 411.024C1393.5 410.58 1392.8 409.827 1392.8 408.764C1392.8 406.652 1395.71 405.062 1401.55 403.996C1408.27 402.757 1413.4 400.724 1416.94 397.896C1420.47 395.069 1422.24 390.38 1422.24 383.83V264.71C1422.24 258.343 1420.91 253.843 1418.26 251.18C1415.6 248.518 1410.92 246.588 1404.2 245.349C1398.37 244.29 1395.45 242.521 1395.45 240.045C1395.45 239.012 1396.15 238.238 1397.57 237.795C1399.39 237.297 1401.26 237.071 1403.14 237.124C1407.91 237.124 1411.85 237.213 1414.94 237.392C1418.04 237.568 1421 237.702 1423.83 237.795C1426.66 237.888 1430.11 237.929 1434.15 237.929C1438.04 237.929 1441.22 237.877 1443.7 237.795C1446.17 237.712 1448.86 237.568 1451.65 237.392C1454.45 237.217 1458.29 237.124 1463.01 237.124C1464.89 237.071 1466.77 237.298 1468.58 237.795C1469.99 238.238 1470.71 238.982 1470.71 240.045C1470.67 240.716 1470.45 241.364 1470.07 241.923C1469.7 242.482 1469.19 242.93 1468.58 243.223C1466.52 244.33 1464.27 245.051 1461.95 245.349C1455.41 246.588 1450.59 248.531 1447.51 251.18C1444.42 253.829 1442.87 258.25 1442.86 264.442V308.738C1442.86 312.814 1444.28 314.837 1447.1 314.837C1447.45 314.835 1447.8 314.793 1448.13 314.713C1448.49 314.612 1448.84 314.477 1449.17 314.311C1451.47 313.623 1455.1 312.739 1460.04 311.658C1465.23 310.585 1470.52 310.07 1475.81 310.121C1491.91 310.121 1504.82 314.407 1514.54 322.98C1524.26 331.553 1529.14 343.528 1529.17 358.906C1529.17 368.627 1527.62 376.32 1524.53 381.982C1521.92 387.07 1518.2 391.51 1513.65 394.976C1509.52 397.976 1505.85 400.452 1502.65 402.406C1496.9 405.754 1490.61 408.086 1484.07 409.301C1476.2 410.767 1468.21 411.459 1460.2 411.365C1458.61 411.365 1456.53 411.272 1454.01 411.107C1451.49 410.942 1448.53 410.745 1445.26 410.57C1441.98 410.395 1438.58 410.302 1435.04 410.302C1430.45 410.302 1426.56 410.391 1423.38 410.57C1420.19 410.745 1416.87 410.972 1413.43 411.23C1409.98 411.489 1405.61 411.685 1400.49 411.685ZM1463.88 403.201C1470.68 403.229 1477.44 402.184 1483.91 400.105C1490.25 398.02 1495.69 393.805 1499.28 388.175C1503.27 382.251 1505.26 373.365 1505.26 361.517C1505.39 355.654 1504.3 349.827 1502.07 344.405C1500.26 340.022 1497.7 335.986 1494.52 332.475C1492.26 329.92 1489.62 327.727 1486.69 325.973C1483.94 324.333 1481.06 322.914 1478.07 321.731C1474.63 320.314 1469.55 319.605 1462.82 319.605C1459.84 319.665 1456.88 319.93 1453.94 320.4C1451.34 320.667 1448.79 321.292 1446.37 322.258C1445.78 322.503 1445.23 322.864 1444.78 323.319C1444.32 323.774 1443.96 324.315 1443.72 324.91C1443.19 326.17 1442.92 327.526 1442.92 328.894V382.994C1442.94 385.446 1443.21 387.891 1443.72 390.29C1444.15 392.623 1445.26 394.777 1446.91 396.482C1448.99 398.326 1451.36 399.806 1453.94 400.858C1457.04 402.358 1460.44 403.158 1463.88 403.201Z" fill="#ED057D"/>
<path d="M1536.29 411.685C1534.67 411.758 1533.05 411.534 1531.51 411.024C1531.04 410.87 1530.63 410.567 1530.34 410.159C1530.06 409.751 1529.91 409.262 1529.93 408.764C1529.93 406.652 1533.11 405.062 1539.47 403.996C1548.31 402.578 1554.63 400.411 1558.43 397.494C1562.24 394.577 1565.02 390.104 1566.79 384.077L1603.13 264.71C1605.61 257.142 1605.7 252.147 1603.4 249.725C1601.1 247.303 1596.06 245.583 1588.28 244.565C1586.37 244.465 1584.52 243.943 1582.84 243.037C1582.37 242.713 1581.99 242.276 1581.73 241.765C1581.47 241.254 1581.35 240.688 1581.37 240.117C1581.37 239.085 1582.22 238.311 1583.9 237.867C1585.76 237.399 1587.68 237.174 1589.6 237.196C1591.02 237.196 1593.54 237.286 1597.16 237.464C1600.79 237.643 1604.86 237.777 1609.36 237.867C1613.87 237.949 1618 237.994 1621.75 238.001H1664.37C1674.09 238.001 1681.48 237.777 1686.52 237.33C1690.08 237.087 1693.62 236.646 1697.13 236.009C1698.31 235.713 1699.5 235.489 1700.71 235.338C1701.11 235.37 1701.5 235.494 1701.84 235.702C1702.19 235.91 1702.48 236.195 1702.69 236.536C1703.24 237.164 1703.57 237.96 1703.62 238.796C1703.39 240.765 1702.85 242.687 1702.03 244.493C1700.96 247.245 1699.81 250.651 1698.58 254.71C1697.25 259.223 1696.27 263.833 1695.66 268.498C1695.65 269.222 1695.48 269.935 1695.19 270.596C1694.89 271.257 1694.47 271.853 1693.94 272.348C1693.18 273.056 1692.19 273.475 1691.15 273.534C1690.26 273.534 1689.52 272.915 1688.9 271.677C1688.24 270.181 1688.01 268.529 1688.24 266.909C1688.77 258.776 1688.06 253.162 1686.12 250.066C1684.17 246.97 1679.66 245.421 1672.59 245.421H1640.23C1635.99 245.421 1633.01 245.999 1631.21 247.145C1629.41 248.291 1628.11 250.375 1627.24 253.337L1609.47 309.563C1608.4 312.756 1608.13 314.968 1608.67 316.199C1609.21 317.431 1610.89 317.961 1613.71 317.789L1646.6 316.994C1651.19 316.815 1654.86 315.783 1657.6 313.898C1660.36 312.022 1662.82 309.739 1664.9 307.128C1666.14 305.71 1667.51 303.99 1669.03 301.967C1670.54 299.945 1672.09 298.93 1673.67 298.923C1673.97 298.893 1674.28 298.93 1674.57 299.032C1674.85 299.134 1675.11 299.299 1675.33 299.514C1675.55 299.729 1675.71 299.989 1675.82 300.276C1675.92 300.563 1675.96 300.869 1675.93 301.173C1675.95 302.963 1675.54 304.732 1674.73 306.333C1673.14 309.347 1671.77 312.174 1670.6 314.816C1669.45 317.469 1668.44 320.039 1667.51 322.516C1666.42 325.425 1665.49 328.391 1664.72 331.401C1663.93 334.498 1663.09 337.989 1662.2 341.877C1662.01 343.172 1661.6 344.427 1661.01 345.592C1660.39 346.831 1659.63 347.45 1658.76 347.45C1657.34 347.45 1656.41 346.48 1655.97 344.529C1655.61 343.141 1655.39 341.72 1655.31 340.287C1655.31 334.783 1654.38 330.937 1652.52 328.749C1651.64 327.674 1650.53 326.816 1649.26 326.24C1648 325.664 1646.62 325.385 1645.23 325.426L1614.73 324.9C1612.07 324.845 1609.43 325.25 1606.91 326.097C1604.69 326.891 1603.06 329.193 1601.99 333.125L1588.46 381.394C1585.99 390.414 1585.5 396.338 1587.01 399.166C1588.51 401.994 1592.01 403.408 1597.48 403.408H1638.6C1642.63 403.48 1646.64 402.761 1650.4 401.292C1653.71 399.952 1656.87 398.26 1659.82 396.245C1662.57 394.211 1665.06 391.851 1667.24 389.217C1669.77 386.16 1672.08 382.925 1674.14 379.536L1676.21 376.358C1676.47 375.883 1676.86 375.487 1677.32 375.208C1677.79 374.929 1678.32 374.777 1678.86 374.768C1679.75 374.768 1680.27 375.387 1680.45 376.626C1680.62 377.767 1680.71 378.919 1680.72 380.073C1680.49 382.629 1679.87 385.133 1678.86 387.493C1677.62 390.858 1676.21 394.264 1674.62 397.711C1673.03 401.158 1671.61 403.903 1670.38 406.06C1669.47 407.661 1668.25 409.064 1666.8 410.188C1665.28 411.213 1663.47 411.723 1661.64 411.643C1654.38 411.643 1647.26 411.599 1640.28 411.509C1633.31 411.42 1626.54 411.289 1619.99 411.117L1601.16 410.58C1595.14 410.408 1589.35 410.278 1583.79 410.188C1578.22 410.099 1572.96 410.054 1568.01 410.054C1563.76 410.054 1560.05 410.188 1556.86 410.446L1547.45 411.241C1544.43 411.537 1540.71 411.685 1536.29 411.685Z" fill="#ED057D"/>
<path d="M234.008 189.691C232.431 189.775 230.854 189.55 229.363 189.03C228.916 188.852 228.534 188.538 228.274 188.133C228.013 187.728 227.885 187.251 227.908 186.77C227.908 185.542 228.662 184.613 230.158 183.983C231.655 183.354 233.915 182.621 236.918 181.734C241.251 180.629 245.47 179.119 249.519 177.223C252.272 175.813 254.26 173.161 255.485 169.266L295.012 42.2211C296.953 36.0288 297.658 31.6529 297.128 29.0934C296.598 26.534 293.426 24.6316 287.612 23.3862C284.957 22.8564 283.237 22.1478 282.452 21.2602C281.638 20.3918 281.194 19.2407 281.214 18.0505C281.214 17.0185 282.008 16.2444 283.608 15.8007C285.424 15.3271 287.295 15.1015 289.171 15.1298C293.588 15.1298 297.028 15.2193 299.491 15.3982C301.955 15.577 304.253 15.7112 306.386 15.8007C308.498 15.8832 311.15 15.9245 314.343 15.9245C317.7 15.9245 320.483 15.8832 322.692 15.8007C324.901 15.7181 327.333 15.5839 329.989 15.3982C332.644 15.2193 336.181 15.1298 340.598 15.1298C344.84 15.1298 346.966 16.1103 346.966 18.0505C346.966 19.289 346.078 20.352 344.313 21.2292C342.04 22.2824 339.628 23.0086 337.151 23.3862C333.347 23.9475 329.667 25.1589 326.273 26.9674C323.435 28.4945 320.952 30.6048 318.987 33.1597C317.004 35.8827 315.522 38.9371 314.611 42.1798L298.428 94.4325C298.067 96.0218 298.955 96.8165 301.081 96.8165H389.93C390.962 96.8165 391.881 95.7845 392.583 93.6378L408.765 41.9115C410.183 37.1366 410.227 33.1597 408.899 29.981C407.571 26.8023 403.99 24.5903 398.156 23.3449C395.5 22.8151 393.78 22.1065 392.995 21.2189C392.225 20.3466 391.815 19.2138 391.85 18.0505C391.85 17.0185 392.644 16.2444 394.244 15.8007C396.06 15.3271 397.931 15.1015 399.807 15.1298C404.224 15.1298 407.857 15.2227 410.685 15.3982C413.513 15.5736 416.206 15.7078 418.776 15.8007C421.346 15.8935 424.473 15.9245 428.188 15.9245C431.188 15.9245 433.486 15.8832 435.082 15.8007C436.682 15.7078 438.571 15.5736 440.79 15.3982C443.009 15.2227 446.311 15.1298 450.739 15.1298C452.356 15.0544 453.973 15.2819 455.507 15.8007C455.974 15.9581 456.378 16.262 456.659 16.6673C456.94 17.0727 457.082 17.5577 457.065 18.0505C457.065 20.5274 453.797 22.2957 447.261 23.3553C440.704 24.5937 436.369 26.7163 434.257 29.723C431.789 33.4803 429.913 37.5946 428.694 41.9218L390.229 166.882C388.991 171.121 388.946 174.478 390.095 176.955C391.241 179.442 394.296 181.083 399.25 182.002C401.899 182.525 403.667 183.144 404.554 183.86C404.987 184.207 405.333 184.652 405.562 185.157C405.792 185.663 405.899 186.215 405.875 186.77C405.875 187.829 405.081 188.583 403.491 189.03C401.671 189.495 399.797 189.718 397.918 189.691C394.511 189.734 391.104 189.6 387.711 189.288C385.327 189.03 383.067 188.803 380.951 188.628C378.836 188.452 376.08 188.359 372.695 188.359C369.31 188.359 366.503 188.452 364.077 188.628C361.652 188.803 359.165 189.03 356.512 189.288C353.86 189.546 350.32 189.691 345.903 189.691C341.658 189.691 339.535 188.717 339.535 186.77C339.535 185.542 340.371 184.561 342.053 183.86C344.325 182.987 346.685 182.364 349.092 182.002C354.331 181.315 359.288 179.226 363.437 175.954C367.519 172.472 370.475 167.856 371.931 162.692L388.372 110.935C388.723 110.047 389.032 109.17 389.301 108.283C389.569 107.395 389.301 106.962 388.372 106.962H296.901C296.013 106.962 295.301 107.932 294.775 109.872L279.098 160.783C276.793 168.386 276.924 173.546 279.49 176.264C282.057 178.981 286.082 180.884 291.565 181.971C294.214 182.494 295.982 183.113 296.87 183.829C297.303 184.176 297.648 184.621 297.878 185.126C298.107 185.632 298.214 186.184 298.191 186.739C298.191 187.799 297.396 188.552 295.807 188.999C293.987 189.464 292.113 189.687 290.234 189.66C285.817 189.66 282.184 189.525 279.356 189.257C276.528 188.989 273.793 188.772 271.1 188.597C268.406 188.421 265.258 188.328 261.553 188.328C258.013 188.328 255 188.421 252.533 188.597C250.066 188.772 247.445 188.999 244.71 189.257C241.975 189.515 238.425 189.691 234.008 189.691Z" fill="#ED057D"/>
<path d="M488.863 192.343C479.141 192.343 470.654 189.956 463.402 185.181C455.939 180.157 450.053 173.122 446.425 164.891C442.379 156.139 440.356 146.014 440.356 134.517C440.237 124.74 442.659 115.099 447.385 106.539C451.873 98.3533 458.293 91.3881 466.085 86.2484C473.612 81.1973 482.481 78.519 491.546 78.5596C498.075 78.4349 504.536 79.8901 510.381 82.8014C515.678 85.4659 520.13 89.55 523.24 94.5977C526.39 99.8396 528 105.863 527.885 111.977C527.885 117.482 525.232 120.234 519.927 120.234H463.959C461.482 120.234 459.762 120.894 458.799 122.215C457.836 123.536 457.351 126.144 457.344 130.038C457.243 138.118 459.159 146.096 462.917 153.249C466.39 159.975 471.496 165.72 477.768 169.958C483.789 174.049 490.913 176.209 498.192 176.15C503.175 176.22 508.11 175.18 512.641 173.106C517.075 170.998 521.009 167.968 524.18 164.22C524.645 163.589 525.178 163.011 525.769 162.496C526.156 162.219 526.624 162.078 527.1 162.094C528.514 162.094 529.226 162.981 529.226 164.746C529.226 168.111 527.633 171.826 524.448 175.892C521.747 179.294 518.525 182.248 514.901 184.644C511.143 187.164 507.027 189.105 502.692 190.403C498.203 191.726 493.543 192.379 488.863 192.343ZM464.496 111.967H488.625C492.877 111.967 496.503 111.878 499.503 111.699C502.44 111.544 505.363 111.199 508.255 110.667C508.684 110.589 509.079 110.383 509.387 110.075C509.695 109.767 509.901 109.372 509.979 108.943C510.289 107.59 510.424 106.203 510.381 104.815C510.381 99.6891 508.128 95.3132 503.621 91.6873C499.074 88.0511 493.394 86.1262 487.573 86.2484C483.255 86.3197 479.036 87.5571 475.363 89.8296C471.444 92.0856 468.018 95.1076 465.291 98.7156C462.832 101.718 461.432 105.447 461.307 109.325C461.307 111.09 462.37 111.967 464.496 111.967Z" fill="#ED057D"/>
<path d="M660.235 192.87C655.383 192.893 650.585 191.854 646.178 189.825C641.761 187.761 639.553 185.153 639.553 182.002C639.497 179.165 640.436 176.398 642.205 174.179C643.966 171.964 645.735 170.856 647.51 170.856C649.187 170.979 650.753 171.74 651.886 172.982C653.379 174.399 654.837 175.903 656.262 177.492C657.857 179.264 659.635 180.862 661.566 182.26C663.745 183.752 666.349 184.498 668.987 184.386C675.007 184.386 680.577 182.133 685.696 177.626C691.222 172.602 695.804 166.628 699.226 159.989C703.159 152.626 706.101 144.777 707.978 136.644C706.784 137.844 705.5 138.951 704.138 139.956C702.977 140.829 701.732 141.586 700.423 142.217C699.46 142.7 698.404 142.971 697.327 143.011C695.44 143.072 693.558 142.803 691.764 142.217C690.317 141.669 688.897 141.049 687.512 140.359C686.293 139.659 685.006 139.081 683.673 138.635C682.081 138.152 680.423 137.926 678.76 137.965C677.492 137.972 676.235 138.199 675.045 138.635C673.806 139.079 672.661 139.471 671.598 139.822C670.359 140.534 669.255 141.195 668.285 141.814C667.466 142.387 666.498 142.71 665.498 142.743C664.776 142.738 664.059 142.605 663.383 142.351C662.671 142.082 662.351 141.422 662.351 140.359C662.351 139.12 663.544 137.352 665.932 135.054C668.475 132.634 671.239 130.457 674.188 128.552C677.278 126.488 679.796 125.473 681.743 125.508C683.325 125.503 684.896 125.772 686.387 126.302C687.917 126.849 689.384 127.558 690.763 128.418C692.352 129.106 693.986 129.77 695.665 130.41C697.409 131.04 699.25 131.355 701.104 131.339C702.971 131.388 704.837 131.253 706.677 130.936C707.683 130.753 708.661 130.441 709.588 130.007C710.124 127.004 710.517 124.001 710.785 120.998C711.053 117.994 711.187 115.074 711.187 112.246C711.187 104.987 709.467 99.593 706.027 96.0634C704.399 94.3479 702.447 92.9721 700.284 92.0155C698.121 91.0589 695.79 90.5405 693.426 90.4903C688.944 90.4222 684.517 91.4872 680.556 93.5865C675.831 95.943 671.692 99.3243 668.44 103.484C666.671 105.782 664.993 106.934 663.403 106.941C661.804 106.941 661.009 105.971 661.009 104.021C661.009 103.332 661.983 101.654 663.93 98.9841C666.38 95.7934 669.146 92.8578 672.186 90.222C676.061 86.8096 680.445 84.0238 685.18 81.9656C690.617 79.6029 696.497 78.4277 702.425 78.5186C707.461 78.4482 712.403 79.8859 716.616 82.6468C720.768 85.3874 724.111 89.1897 726.297 93.6587C728.595 98.27 729.776 103.358 729.744 108.51C729.753 119.038 728.141 129.505 724.965 139.544C721.935 149.318 717.273 158.509 711.177 166.728C705.353 174.606 697.884 181.121 689.287 185.821C680.36 190.602 670.361 193.028 660.235 192.87Z" fill="#ED057D"/>
<path d="M758.909 192.343C757.811 192.252 756.778 191.781 755.989 191.012C754.9 190.104 753.96 189.031 753.202 187.833C752.481 186.823 752.066 185.626 752.005 184.386V180.537C752.041 179.76 752.223 178.996 752.542 178.287C752.892 177.399 753.512 175.806 754.399 173.508C757.406 165.555 760.279 157.687 763.017 149.905C765.755 142.124 768.318 134.521 770.706 127.097C773.1 119.666 775.164 112.504 776.898 105.61C777.93 101.719 778.663 98.8086 779.024 96.8581C779.385 94.9075 778.663 93.9374 776.898 93.9374C774.018 93.9863 771.178 94.6182 768.549 95.7951C765.631 97.0335 762.05 100.474 757.805 106.116C757.467 106.463 757.046 106.719 756.583 106.86C756.119 107 755.627 107.021 755.153 106.921C754.121 106.745 753.563 106.033 753.563 104.795C753.611 103.396 753.832 102.009 754.224 100.666C754.683 98.9293 755.305 97.2395 756.082 95.6196C756.691 94.2625 757.445 92.9753 758.331 91.7804C761.223 88.1723 764.619 84.9989 768.415 82.3578C772.13 79.7983 776.991 78.5185 782.997 78.5185C785.784 78.4147 788.542 79.1017 790.955 80.5001C793.099 81.8588 794.626 84.0042 795.207 86.4757C795.895 89.1246 795.626 92.3067 794.402 96.0221L782.997 129.749C782.296 131.69 782.337 132.577 783.132 132.402C784.045 132.147 784.843 131.586 785.392 130.812C790.368 124.213 795.737 117.92 801.471 111.967C807.127 106.03 813.105 100.407 819.377 95.1242C824.604 90.6509 830.193 86.619 836.086 83.0699C841.212 80.0563 845.368 78.553 848.553 78.5598C854.395 78.5598 858.33 80.2799 860.36 83.7201C862.39 87.1602 863.319 90.2082 863.147 92.864C863.147 95.5164 862.166 96.8477 860.226 96.8477C859.067 96.8174 857.913 96.6827 856.779 96.4452C855.365 96.1872 853.858 95.9602 852.269 95.7847L848.027 95.2584C846.62 95.082 845.203 94.9924 843.785 94.9901C839.54 95.1393 835.395 96.3225 831.71 98.4371C827.155 100.886 822.848 103.772 818.851 107.055C814.895 110.265 811.106 113.675 807.498 117.272C804.134 120.636 801.568 123.389 799.799 125.528C799.255 125.985 798.845 126.581 798.612 127.252C798.567 127.467 798.579 127.69 798.648 127.898C798.717 128.107 798.84 128.293 799.005 128.439C803.954 134.021 807.862 140.446 810.543 147.408C813.467 154.749 816.164 162.042 818.634 169.287C819.314 171.004 820.372 172.546 821.73 173.797C822.97 175.003 824.635 175.67 826.364 175.655C828.762 175.628 831.105 174.939 833.135 173.663C835.653 172.096 837.968 170.224 840.029 168.09C842.503 165.604 844.849 162.993 847.057 160.267C847.88 159.214 848.631 158.107 849.307 156.954C849.452 156.613 849.691 156.319 849.996 156.107C850.301 155.895 850.659 155.774 851.03 155.757C851.319 155.77 851.601 155.848 851.854 155.986C852.108 156.124 852.328 156.317 852.496 156.552C853.022 157.43 853.253 158.453 853.156 159.472C853.156 162.3 851.742 165.527 848.915 169.153C845.846 173.04 842.426 176.637 838.697 179.897C835.057 183.188 831.107 186.119 826.901 188.648C823.007 190.947 820 192.096 817.881 192.096C816.552 192.125 815.23 191.882 813.999 191.381C812.767 190.881 811.65 190.133 810.718 189.185C808.764 187.231 806.907 183.96 805.145 179.37L795.072 152.052C793.483 147.625 791.976 144.714 790.697 143.29C789.948 142.555 789.052 141.987 788.069 141.623C787.085 141.258 786.036 141.105 784.989 141.174C783.957 141.174 782.874 141.835 781.811 143.166C780.779 144.442 779.89 145.826 779.158 147.294C776.088 153.92 773.444 160.735 771.242 167.698C769.557 173.354 767.744 178.834 765.803 184.138C765.042 186.327 764.001 188.408 762.707 190.331C762.291 190.955 761.726 191.466 761.063 191.817C760.4 192.169 759.66 192.349 758.909 192.343Z" fill="#ED057D"/>
<path d="M923.883 192.075C914.483 192.214 905.218 189.834 897.05 185.181C889.157 180.655 882.613 174.107 878.091 166.212C873.34 157.869 870.926 148.4 871.104 138.801C871.111 131.331 872.598 123.936 875.48 117.045C878.427 109.92 882.601 103.367 887.813 97.6837C893.056 91.8957 899.363 87.1692 906.39 83.7614C913.495 80.3105 921.3 78.5447 929.198 78.6012C938.946 78.4674 948.541 81.0358 956.919 86.0216C964.96 90.8074 971.696 97.5039 976.528 105.517C981.363 113.465 983.89 122.603 983.825 131.906C983.841 142.013 981.513 151.986 977.023 161.041C972.534 170.213 965.603 177.97 956.991 183.457C948.171 189.209 937.135 192.082 923.883 192.075ZM929.456 184.118C935.039 184.212 940.569 183.033 945.628 180.671C950.481 178.305 954.404 174.385 956.775 169.535C959.063 164.877 960.499 159.848 961.016 154.684C961.687 149.226 962.032 143.732 962.048 138.233C962.065 129.836 960.489 121.511 957.404 113.701C954.638 106.325 950.189 99.6951 944.411 94.3399C939.036 89.3775 931.961 86.6693 924.647 86.775C920.256 86.7058 915.892 87.4729 911.787 89.0352C907.608 90.8305 903.987 93.7137 901.302 97.3845C897.661 102.097 895.304 107.672 894.459 113.567C893.403 119.876 892.871 126.263 892.87 132.66C892.839 141.148 894.462 149.561 897.648 157.429C900.453 164.75 904.898 171.331 910.642 176.666C915.728 181.468 922.462 184.135 929.456 184.118Z" fill="#ED057D"/>
<path d="M1005.57 189.164C1004.29 189.147 1003 189.058 1001.73 188.896C1000.22 188.721 999.471 188.008 999.471 186.77C999.447 186.119 999.625 185.476 999.982 184.931C1000.34 184.385 1000.86 183.964 1001.46 183.725C1002.79 183.106 1004.16 182.528 1005.59 182.002C1008.18 181.133 1010.7 180.099 1013.16 178.906C1015.54 177.757 1016.73 175.325 1016.74 171.609V98.9839C1016.74 95.4405 1015.7 93.0083 1013.64 91.6873C1011.48 90.2871 1009.11 89.2418 1006.61 88.5911C1005.2 88.068 1003.82 87.4473 1002.48 86.7334C1001.9 86.4958 1001.41 86.0935 1001.05 85.5763C1000.7 85.0592 1000.5 84.4497 1000.49 83.8231C1000.49 82.5846 1001.25 81.8725 1002.75 81.697C1004.03 81.5349 1005.31 81.4453 1006.59 81.4287C1010.13 81.4287 1012.73 81.5216 1014.41 81.697C1016.1 81.8725 1017.74 82.0995 1019.33 82.3575C1021.61 82.6708 1023.92 82.8054 1026.22 82.76C1028.53 82.818 1030.83 82.6834 1033.12 82.3575C1034.53 82.0995 1036.08 81.8725 1037.76 81.697C1039.44 81.5216 1041.96 81.4287 1045.31 81.4287C1046.6 81.4456 1047.89 81.5352 1049.16 81.697C1050.66 81.8725 1051.41 82.5846 1051.41 83.8231C1051.4 84.4482 1051.21 85.0563 1050.86 85.5731C1050.5 86.0899 1050.01 86.4931 1049.43 86.7334C1048.1 87.445 1046.72 88.0657 1045.3 88.5911C1042.81 89.2418 1040.44 90.2871 1038.28 91.6873C1036.21 93.0083 1035.18 95.4405 1035.18 98.9839V126.849C1035.15 127.16 1035.25 127.469 1035.44 127.715C1035.63 127.961 1035.9 128.127 1036.21 128.181C1036.73 128.327 1037.26 128.413 1037.8 128.439H1087.13C1087.32 128.432 1087.5 128.381 1087.66 128.289C1087.82 128.197 1087.96 128.068 1088.06 127.912C1088.36 127.438 1088.5 126.881 1088.45 126.323V98.9839C1088.45 95.4405 1087.57 93.0083 1085.81 91.6873C1083.82 90.2403 1081.57 89.1892 1079.18 88.5911C1077.76 88.068 1076.38 87.4473 1075.05 86.7334C1074.47 86.4958 1073.97 86.0935 1073.62 85.5763C1073.26 85.0592 1073.07 84.4497 1073.06 83.8231C1073.06 82.5846 1073.76 81.8725 1075.12 81.697C1076.44 81.5261 1077.77 81.4365 1079.1 81.4287C1082.65 81.4287 1085.21 81.5181 1086.79 81.697C1088.38 81.8725 1089.89 82.0995 1091.44 82.3575C1093.68 82.6749 1095.94 82.8095 1098.2 82.76C1100.55 82.8141 1102.9 82.6795 1105.22 82.3575C1106.73 82.0995 1108.32 81.8725 1110.14 81.697C1111.95 81.5216 1114.47 81.4287 1117.83 81.4287C1119.16 81.4369 1120.49 81.5265 1121.81 81.697C1123.22 81.8725 1123.87 82.5846 1123.87 83.8231C1123.86 84.4482 1123.67 85.0563 1123.32 85.5731C1122.96 86.0899 1122.47 86.4931 1121.89 86.7334C1120.56 87.445 1119.18 88.0657 1117.76 88.5911C1115.16 89.2897 1112.67 90.3308 1110.34 91.6873C1108.04 93.0083 1106.89 95.4405 1106.89 98.9839V171.65C1106.89 175.19 1108.18 177.585 1110.74 178.813C1113.27 180.041 1115.89 181.107 1118.56 182.002C1119.97 182.528 1121.35 183.106 1122.69 183.725C1123.3 183.959 1123.82 184.38 1124.17 184.927C1124.53 185.473 1124.7 186.118 1124.67 186.77C1124.67 188.008 1123.92 188.721 1122.42 188.896C1121.14 189.058 1119.86 189.147 1118.57 189.164C1115.91 189.202 1113.25 189.068 1110.61 188.762C1108.67 188.493 1106.86 188.277 1105.17 188.101C1103.49 187.926 1101.05 187.833 1097.89 187.833C1094.87 187.833 1092.49 187.922 1090.72 188.101C1088.95 188.277 1087.14 188.493 1085.29 188.762C1082.6 189.076 1079.9 189.21 1077.19 189.164C1075.91 189.147 1074.62 189.058 1073.34 188.896C1071.85 188.721 1071.1 188.008 1071.1 186.77C1071.06 186.117 1071.24 185.471 1071.6 184.924C1071.95 184.377 1072.48 183.958 1073.09 183.725C1074.41 183.106 1075.78 182.528 1077.22 182.002C1079.82 181.136 1082.34 180.069 1084.78 178.813C1087.16 177.585 1088.35 175.19 1088.35 171.65V138.501C1088.35 137.799 1088.27 137.397 1088.09 137.304C1087.84 137.205 1087.57 137.159 1087.3 137.17H1035.84C1035.48 137.17 1035.26 137.304 1035.18 137.572C1035.07 138.048 1035.02 138.538 1035.05 139.027V171.65C1035.05 175.366 1036.33 177.798 1038.88 178.947C1041.45 180.103 1044.04 181.114 1046.72 182.043C1048.12 182.57 1049.49 183.147 1050.85 183.767C1051.45 184.006 1051.97 184.427 1052.33 184.972C1052.68 185.517 1052.86 186.16 1052.84 186.811C1052.84 188.05 1052.08 188.762 1050.58 188.937C1049.3 189.099 1048.02 189.188 1046.74 189.206C1044.08 189.244 1041.42 189.11 1038.78 188.803C1036.83 188.535 1035.01 188.318 1033.34 188.143C1031.67 187.967 1029.21 187.874 1026.05 187.874C1023.03 187.874 1020.64 187.964 1018.88 188.143C1017.12 188.318 1015.3 188.535 1013.44 188.803C1010.83 189.094 1008.2 189.214 1005.57 189.164Z" fill="#ED057D"/>
<path d="M1193.36 192.075C1183.96 192.214 1174.7 189.834 1166.53 185.181C1158.64 180.654 1152.09 174.107 1147.57 166.212C1142.8 157.864 1140.37 148.383 1140.54 138.769C1140.55 131.3 1142.04 123.905 1144.92 117.014C1147.88 109.885 1152.07 103.331 1157.3 97.6525C1162.55 91.8645 1168.85 87.138 1175.88 83.7302C1182.98 80.2793 1190.79 78.5135 1198.69 78.5699C1208.44 78.4362 1218.03 81.0046 1226.41 85.9903C1234.45 90.7761 1241.19 97.4726 1246.02 105.486C1250.85 113.434 1253.38 122.572 1253.31 131.875C1253.35 141.993 1251.04 151.98 1246.55 161.051C1242.07 170.223 1235.13 177.98 1226.52 183.467C1217.67 189.212 1206.62 192.082 1193.36 192.075ZM1198.94 184.118C1204.52 184.212 1210.05 183.033 1215.11 180.671C1219.96 178.304 1223.88 174.385 1226.25 169.535C1228.54 164.877 1229.98 159.847 1230.5 154.684C1231.17 149.225 1231.51 143.732 1231.53 138.233C1231.54 129.836 1229.96 121.512 1226.88 113.701C1224.12 106.324 1219.67 99.6948 1213.89 94.3396C1208.52 89.3772 1201.44 86.669 1194.13 86.7747C1189.73 86.7065 1185.36 87.4735 1181.26 89.0349C1177.08 90.8335 1173.47 93.7163 1170.78 97.3842C1167.12 102.091 1164.75 107.667 1163.89 113.567C1162.83 119.876 1162.3 126.262 1162.3 132.66C1162.27 141.148 1163.89 149.561 1167.08 157.429C1169.88 164.75 1174.33 171.33 1180.07 176.666C1185.16 181.475 1191.91 184.143 1198.92 184.118H1198.94Z" fill="#ED057D"/>
<path d="M1262.9 192.075C1261.66 192.075 1260.21 191.369 1258.53 189.959C1256.78 188.468 1255.22 186.773 1253.88 184.912C1252.7 183.484 1251.97 181.726 1251.82 179.876C1251.77 178.206 1252.04 176.542 1252.61 174.974C1252.85 174.339 1253.29 173.801 1253.87 173.441C1254.44 173.082 1255.12 172.92 1255.79 172.982C1265.7 172.982 1272.99 171.877 1277.67 169.669C1282.41 167.339 1286.11 163.324 1288.05 158.409C1292.23 148.643 1295.86 138.651 1298.92 128.48C1302.46 116.997 1305.64 106.212 1308.48 96.125C1309.88 93.1218 1311.21 90.5107 1312.45 88.3021C1313.5 86.3668 1314.75 84.5443 1316.17 82.8632C1317.32 81.5107 1318.72 80.387 1320.29 79.5503C1321.98 78.7059 1323.85 78.2944 1325.73 78.3532C1326.77 78.3532 1327.32 79.5503 1327.32 81.9344C1327.32 84.3184 1327.42 86.9295 1327.59 89.7573L1335.85 156.84C1335.87 157.123 1335.99 157.389 1336.17 157.604C1336.36 157.819 1336.6 157.97 1336.88 158.038C1337.14 158.08 1337.41 158.039 1337.65 157.92C1337.89 157.802 1338.09 157.612 1338.21 157.377L1373.75 107.509C1377.97 101.356 1382.72 95.585 1387.95 90.263C1391.42 86.6702 1395.4 83.5912 1399.74 81.119C1402.57 79.4658 1405.76 78.5106 1409.03 78.3325C1410.05 78.2842 1411.06 78.5125 1411.95 78.993C1412.28 79.1875 1412.56 79.4571 1412.77 79.7799C1412.97 80.1027 1413.1 80.4696 1413.14 80.8507C1413.16 81.3115 1413.09 81.7723 1412.93 82.2052C1412.77 82.6381 1412.53 83.034 1412.21 83.3689C1411.32 84.6074 1410.22 86.3825 1408.9 88.6736C1407.43 91.2991 1406.23 94.065 1405.32 96.93L1383.83 163.508C1382.59 167.047 1382.01 169.648 1382.1 171.33C1382.2 173.013 1383.03 173.849 1384.62 173.849C1387.27 173.712 1389.86 172.986 1392.19 171.723C1395.24 170.235 1398.16 168.509 1400.94 166.562C1403.86 164.498 1406.42 162.599 1408.63 160.865C1410.84 159.101 1412.3 157.862 1413 157.15C1413.11 157.055 1413.24 156.982 1413.37 156.936C1413.51 156.89 1413.65 156.871 1413.8 156.882C1414.39 156.91 1414.96 157.143 1415.4 157.542C1415.65 157.75 1415.86 158.013 1416 158.312C1416.13 158.611 1416.2 158.937 1416.19 159.266C1416.19 160.69 1415.13 162.727 1413 165.376C1410.46 168.47 1407.67 171.352 1404.65 173.993C1401.1 177.164 1397.34 180.088 1393.38 182.745C1389.57 185.348 1385.52 187.61 1381.31 189.505C1378.04 191.1 1374.47 192.003 1370.83 192.157C1369.25 192.02 1367.76 191.367 1366.59 190.3C1365 189.058 1363.64 187.528 1362.61 185.789C1362.11 185.062 1361.78 184.232 1361.64 183.361C1361.5 182.49 1361.56 181.599 1361.81 180.753L1387.02 107.023C1387.72 105.073 1387.85 103.834 1387.41 103.308C1386.97 102.782 1386.13 103.308 1384.89 104.897L1331.32 182.611C1330.2 184.407 1328.91 186.094 1327.47 187.647C1326.15 189.061 1324.95 189.773 1323.89 189.773C1322.82 189.773 1322.16 189.154 1321.89 187.915C1321.63 186.677 1321.41 185.439 1321.23 184.2L1314.34 108.076C1314.34 107.55 1314.16 107.281 1313.8 107.281C1313.44 107.281 1313.1 107.818 1312.77 108.871C1309.06 123.732 1305.47 136.42 1302.03 146.933C1299.27 155.85 1295.62 164.469 1291.15 172.662C1287.35 179.301 1283.15 184.21 1278.55 187.389C1273.95 190.539 1268.48 192.176 1262.9 192.075Z" fill="#ED057D"/>
<path d="M1443.74 189.165C1442.45 189.125 1441.17 188.99 1439.9 188.762C1438.22 188.494 1437.38 187.833 1437.38 186.77C1437.35 186.119 1437.52 185.474 1437.88 184.927C1438.23 184.38 1438.75 183.96 1439.36 183.726C1440.69 183.106 1442.06 182.528 1443.49 182.002C1446.07 181.133 1448.6 180.099 1451.05 178.906C1453.43 177.757 1454.62 175.325 1454.63 171.609V98.9841C1454.63 95.4407 1453.83 93.0085 1452.24 91.6875C1450.37 90.2052 1448.2 89.1487 1445.87 88.5914C1444.46 88.0683 1443.08 87.4476 1441.75 86.7337C1441.17 86.496 1440.67 86.0938 1440.32 85.5766C1439.96 85.0594 1439.77 84.4499 1439.75 83.8233C1439.75 82.7913 1440.46 82.0998 1441.87 81.8315C1443.09 81.5836 1444.34 81.4489 1445.59 81.429C1448.11 81.3895 1450.64 81.4791 1453.15 81.6973C1454.65 81.8727 1456.1 82.0998 1457.53 82.3578C1459.72 82.6794 1461.94 82.814 1464.15 82.7603C1466.46 82.8189 1468.76 82.6843 1471.05 82.3578C1472.46 82.0998 1473.97 81.8727 1475.56 81.6973C1477.15 81.5218 1479.62 81.429 1482.99 81.429C1484.28 81.469 1485.57 81.6035 1486.84 81.8315C1488.51 82.0998 1489.36 82.7603 1489.36 83.8233C1489.34 84.4499 1489.15 85.0594 1488.79 85.5766C1488.44 86.0938 1487.94 86.496 1487.36 86.7337C1486.03 87.4457 1484.65 88.0663 1483.24 88.5914C1480.74 89.2401 1478.37 90.2855 1476.21 91.6875C1474.14 93.0085 1473.11 95.4442 1473.11 98.9841V125.817C1473.09 126.129 1473.17 126.439 1473.33 126.702C1473.5 126.966 1473.75 127.169 1474.04 127.283C1474.58 127.54 1475.19 127.584 1475.76 127.407C1477.35 126.526 1480.1 125.952 1484.02 125.683C1487.9 125.425 1491.09 125.291 1493.57 125.291C1497.15 125.367 1500.71 125.855 1504.18 126.746C1508.43 127.801 1512.5 129.499 1516.24 131.783C1520.25 134.209 1523.66 137.524 1526.19 141.474C1528.84 145.54 1530.17 150.576 1530.17 156.583C1530.17 164.371 1528.11 170.694 1523.98 175.552C1519.58 180.573 1513.82 184.211 1507.4 186.027C1500.08 188.213 1492.49 189.288 1484.86 189.216C1482.2 189.255 1479.54 189.12 1476.9 188.814C1474.95 188.545 1473.14 188.329 1471.46 188.153C1469.78 187.978 1467.33 187.885 1464.16 187.885C1461.16 187.885 1458.77 187.978 1457 188.153C1455.24 188.329 1453.42 188.545 1451.57 188.814C1448.97 189.106 1446.35 189.224 1443.74 189.165ZM1487.51 181.734C1493.44 181.758 1499.19 179.64 1503.69 175.769C1508.46 171.785 1510.85 165.906 1510.85 158.131C1510.85 149.29 1508.79 142.836 1504.66 138.77C1500.53 134.703 1494.21 132.667 1485.69 132.66C1480.91 132.66 1477.56 133.289 1475.61 134.518C1475.03 134.93 1474.54 135.463 1474.18 136.082C1473.83 136.7 1473.61 137.388 1473.54 138.099C1473.39 139.201 1473.3 140.31 1473.28 141.422V168.998C1473.28 173.25 1474.87 176.436 1478.05 178.555C1480.82 180.529 1484.11 181.636 1487.51 181.734Z" fill="#ED057D"/>
<path d="M20.5276 428.073C16.8741 417.753 12.7665 398.34 13.9018 364.736C14.6655 342.166 17.8133 317.912 22.3233 299.862C26.8334 281.811 37.9589 265.804 46.5147 255.618C51.8784 249.121 57.7784 243.087 64.1524 237.578L66.103 239.941C65.7831 240.209 33.6553 267.115 25.2957 300.605C20.8372 318.459 17.7204 342.475 16.9567 364.84C15.8421 397.968 19.8567 416.948 23.4173 427.052L20.5276 428.073Z" fill="#ED057D"/>
<path d="M64.3794 238.775C64.3794 238.775 68.8172 224.595 81.2019 223.955C86.4611 223.662 91.7366 223.988 96.92 224.925C93.3904 230.519 90.7896 236.175 84.7831 239.033C78.7765 241.892 72.254 241.149 64.3794 238.775Z" fill="#ED057D"/>
<path d="M50.9008 251.294C50.9008 251.294 60.9014 242.243 58.507 233.914C56.1127 225.586 51.6335 221.757 51.6335 221.757C51.6335 221.757 41.4678 229.167 42.9024 237.31C43.8691 242.757 46.6961 247.699 50.9008 251.294Z" fill="#ED057D"/>
<path d="M37.7525 269.675C37.7525 269.675 42.3864 258.518 38.5988 253.482C34.8111 248.446 27.8138 243.481 27.8138 243.481C27.8138 243.481 17.71 257.115 37.7525 269.675Z" fill="#ED057D"/>
<path d="M29.2895 283.586C29.2895 283.586 31.4878 276.228 27.5247 271.708C23.5616 267.187 17.0597 265.866 17.0597 265.866C17.0597 265.866 12.9315 278.932 29.2895 283.586Z" fill="#ED057D"/>
<path d="M52.3044 252.326C52.3044 252.326 60.2306 246.01 68.6315 249.457C77.6723 253.183 78.952 258.745 78.952 258.745C78.952 258.745 65.3909 267.456 52.3044 252.326Z" fill="#ED057D"/>
<path d="M38.5264 269.943C38.5264 269.943 46.8654 263.214 55.2559 265.763C63.6465 268.312 67.1865 273.266 67.1865 273.266C67.1865 273.266 54.8225 286.724 38.5264 269.943Z" fill="#ED057D"/>
<path d="M28.7427 289.48C28.7427 289.48 32.231 283.432 38.2892 284.319C41.9061 284.841 45.2978 286.388 48.0627 288.778C48.0627 288.778 42.6547 297.932 28.7427 289.48Z" fill="#ED057D"/>
<path d="M23.572 304.785C23.572 304.785 28.7323 299.408 35.2858 300.068C39.5684 300.647 43.576 302.507 46.7829 305.404C46.7829 305.404 35.4819 315.745 23.572 304.785Z" fill="#ED057D"/>
<path d="M20.0735 313.433C20.0735 313.433 22.344 307.551 19.6813 302.597C18.9983 301.204 17.9916 299.996 16.7453 299.073C15.4991 298.15 14.0498 297.539 12.5188 297.292C12.5188 297.292 7.62692 306.622 20.0735 313.433Z" fill="#ED057D"/>
<path d="M20.6514 320.276C20.6514 320.276 24.6557 313.537 34.6976 315.487C44.7395 317.438 43.2636 317.551 43.2636 317.551C43.2636 317.551 38.7123 329.275 20.6514 320.276Z" fill="#ED057D"/>
<path d="M16.2445 336.716C16.2445 336.716 14.3352 328.656 9.96959 325.364C5.94459 322.268 0.113491 322.03 0.113491 322.03C0.113491 322.03 -2.3944 335.333 16.2445 336.716Z" fill="#ED057D"/>
<path d="M16.6882 355.077C16.6882 355.077 18.3395 348.162 21.993 345.055C25.6464 341.949 31.1163 342.32 31.1163 342.32C31.1163 342.32 35.6574 356.284 16.6882 355.077Z" fill="#ED057D"/>
<path d="M139.492 110.553C139.492 110.553 126.53 107.529 119.698 117.303C116.82 121.407 114.398 125.813 112.473 130.441C118.511 130.172 124.104 130.688 129.327 127.159C134.549 123.629 137.284 117.994 139.492 110.553Z" fill="#ED057D" stroke="#ED057D" stroke-width="4" stroke-miterlimit="10"/>
<path d="M160.422 90.7482C160.422 90.7482 146.386 92.224 138.006 84.6384C129.626 77.0529 127.097 70.9741 127.097 70.9741C127.097 70.9741 139.358 68.2392 147.914 74.9475C157.491 82.4814 160.422 90.7482 160.422 90.7482Z" fill="#ED057D" stroke="#ED057D" stroke-width="4" stroke-miterlimit="10"/>
<path d="M220.302 93.2253C220.302 93.2253 212.479 86.4138 211.509 81.202C210.928 77.3815 210.762 73.5095 211.013 69.6533C211.013 69.6533 222.521 76.372 220.302 93.2253Z" fill="#ED057D" stroke="#ED057D" stroke-width="4" stroke-miterlimit="10"/>
<path d="M211.581 93.029C211.581 93.029 198.722 88.4364 192.663 80.7579C186.605 73.0795 186.678 65.979 186.678 65.979C186.678 65.979 209.61 73.9567 211.581 93.029Z" fill="#ED057D" stroke="#ED057D" stroke-width="4" stroke-miterlimit="10"/>
<path d="M128.263 103.38C128.263 103.38 119.481 96.0942 109.232 97.9725C98.2204 100.037 96.2595 105.021 96.2595 105.021C96.2595 105.021 111.42 115.517 128.263 103.38Z" fill="#ED057D" stroke="#ED057D" stroke-width="4" stroke-miterlimit="10"/>
<path d="M169.112 116.095C169.112 116.095 157.326 116.622 148.874 122.556C140.421 128.49 138.285 133.217 138.285 133.217C138.285 133.217 157.016 134.445 169.112 116.095Z" fill="#ED057D" stroke="#ED057D" stroke-width="4" stroke-miterlimit="10"/>
<path d="M226.536 116.746C222.966 117.318 219.547 118.598 216.479 120.51C213.411 122.423 210.756 124.929 208.671 127.881C201.601 137.923 200.414 146.231 200.414 146.231C200.414 146.231 216.917 144.363 226.536 116.746Z" fill="#ED057D" stroke="#ED057D" stroke-width="4" stroke-miterlimit="10"/>
<path d="M174.386 118.221C170.263 120.413 166.913 123.817 164.788 127.974C162.906 131.998 162.068 136.431 162.352 140.864C162.352 140.864 175.697 133.33 174.386 118.221Z" fill="#ED057D" stroke="#ED057D" stroke-width="4" stroke-miterlimit="10"/>
<path d="M304.631 102.018C286.498 103.504 129.182 104.082 122.484 104.082V101.317C124.125 101.317 286.394 100.77 304.414 99.2524L304.631 102.018Z" fill="#ED057D" stroke="#ED057D" stroke-width="4" stroke-miterlimit="10"/>
<path d="M160.051 103.762C150.835 106.084 133.692 113.856 133.517 113.928L132.371 111.42C133.083 111.09 149.916 103.463 159.38 101.1L160.051 103.762Z" fill="#ED057D" stroke="#ED057D" stroke-width="4" stroke-miterlimit="10"/>
<path d="M212.076 103.607C193.18 106.146 156.211 123.464 155.84 123.64L154.663 121.142C156.201 120.42 192.385 103.473 211.715 100.873L212.076 103.607Z" fill="#ED057D" stroke="#ED057D" stroke-width="4" stroke-miterlimit="10"/>
<path d="M178.493 101.296L176.883 103.546C168.266 97.3536 150.05 86.0733 149.895 86.001L151.35 83.6479C151.526 83.7305 169.793 95.0727 178.493 101.296Z" fill="#ED057D" stroke="#ED057D" stroke-width="4" stroke-miterlimit="10"/>
<path d="M233.739 100.666L233.13 103.36C228.62 102.328 216.618 98.633 203.025 86.2072L204.893 84.1431C218.031 96.1458 229.446 99.696 233.739 100.666Z" fill="#ED057D" stroke="#ED057D" stroke-width="4" stroke-miterlimit="10"/>
<path d="M232.986 100.274L231.706 102.679L231.231 102.431C228.579 101.069 223.037 98.2307 215.75 87.2188L218.052 85.7017C224.925 96.1047 229.838 98.6229 232.501 99.9749L232.986 100.274Z" fill="#ED057D" stroke="#ED057D" stroke-width="4" stroke-miterlimit="10"/>
<path d="M256.847 103.184C238.187 105.692 214.77 128.8 214.533 128.986L212.582 127.025C213.562 126.044 236.897 103.03 256.465 100.398L256.847 103.184Z" fill="#ED057D" stroke="#ED057D" stroke-width="4" stroke-miterlimit="10"/>
<path d="M1146.16 305.012C1138.73 290.501 1128.61 285.971 1128.54 285.929L1129.32 284.103C1129.77 284.288 1140.15 288.912 1147.9 304.104L1146.16 305.012Z" fill="#ED057D"/>
<path d="M1122.46 280.883C1122.46 283.329 1124.18 286.115 1127.05 287.952C1129.92 289.789 1133.17 290.161 1135.4 289.15C1135.4 286.704 1133.68 283.917 1130.81 282.08C1127.94 280.243 1124.69 279.871 1122.46 280.883Z" fill="#ED057D"/>
<path d="M1144.22 301.441C1142.01 295.938 1141.83 289.829 1143.71 284.206L1145.56 284.939C1143.9 290.096 1144.08 295.669 1146.06 300.709L1144.22 301.441Z" fill="#ED057D"/>
<path d="M1145.39 276.93C1147.3 278.467 1148.43 281.522 1148.09 284.918C1147.75 288.313 1146.02 291.11 1143.85 292.204C1141.95 290.666 1140.82 287.611 1141.16 284.216C1141.5 280.821 1143.18 278.055 1145.39 276.93Z" fill="#ED057D"/>
<path d="M1138.83 296.188C1138.25 296.96 1137.51 297.599 1136.66 298.062C1135.82 298.525 1134.88 298.801 1133.92 298.872C1132.95 298.944 1131.99 298.808 1131.08 298.475C1130.17 298.142 1129.35 297.619 1128.66 296.942C1129.24 296.17 1129.98 295.531 1130.83 295.068C1131.68 294.605 1132.61 294.329 1133.57 294.257C1134.54 294.186 1135.5 294.321 1136.41 294.654C1137.32 294.987 1138.14 295.51 1138.83 296.188Z" fill="#ED057D"/>
<path d="M1178.4 364.014C1178.24 364.91 1177.9 365.764 1177.39 366.517C1176.88 367.27 1176.22 367.905 1175.44 368.381C1174.67 368.857 1173.8 369.162 1172.9 369.275C1172 369.389 1171.08 369.309 1170.21 369.04C1170.36 368.143 1170.7 367.288 1171.21 366.533C1171.72 365.778 1172.39 365.141 1173.16 364.665C1173.94 364.188 1174.81 363.884 1175.71 363.772C1176.61 363.66 1177.53 363.742 1178.4 364.014Z" fill="#ED057D"/>
<path d="M1167.82 368.277L1166.31 366.986C1169.82 362.856 1171.79 357.636 1171.88 352.218L1173.86 352.125C1173.83 358.056 1171.69 363.784 1167.82 368.277Z" fill="#ED057D"/>
<path d="M1174.6 344.694C1172.3 345.541 1170.24 348.069 1169.44 351.392C1168.63 354.716 1169.44 357.884 1171.1 359.649C1173.4 358.813 1175.46 356.284 1176.26 352.961C1177.07 349.638 1176.29 346.459 1174.6 344.694Z" fill="#ED057D"/>
<path d="M1149.99 343.631C1150.87 344.011 1151.83 344.197 1152.79 344.177C1153.76 344.157 1154.71 343.931 1155.58 343.515C1156.45 343.099 1157.22 342.502 1157.84 341.764C1158.46 341.026 1158.92 340.163 1159.18 339.235C1158.29 338.855 1157.34 338.669 1156.37 338.689C1155.41 338.709 1154.46 338.935 1153.59 339.351C1152.72 339.767 1151.95 340.364 1151.32 341.102C1150.7 341.84 1150.25 342.703 1149.99 343.631Z" fill="#ED057D"/>
<path d="M1156.25 322.505L1154.64 321.349C1164.14 308.098 1163.55 297.055 1163.54 296.941L1165.52 296.807C1165.56 297.241 1166.21 308.593 1156.25 322.505Z" fill="#ED057D"/>
<path d="M1165.24 289.19C1163.07 290.336 1161.38 293.112 1161.11 296.508C1160.84 299.903 1161.95 302.958 1163.87 304.475C1166.03 303.34 1167.73 300.553 1167.99 297.158C1168.26 293.762 1167.16 290.708 1165.24 289.19Z" fill="#ED057D"/>
<path d="M1159.7 317.107L1158.02 316.075C1161.88 310.028 1169.57 306.498 1169.89 306.354L1170.72 308.16C1170.61 308.16 1163.21 311.565 1159.7 317.107Z" fill="#ED057D"/>
<path d="M1158.5 318.955L1156.64 318.253C1158.51 313.194 1158.49 307.631 1156.58 302.587L1158.39 301.771C1160.55 307.288 1160.59 313.411 1158.5 318.955Z" fill="#ED057D"/>
<path d="M1179.42 305.28C1178.83 307.654 1176.54 309.976 1173.32 311.091C1170.1 312.205 1166.86 311.834 1164.93 310.337C1165.51 307.964 1167.81 305.641 1171.03 304.527C1174.25 303.412 1177.48 303.784 1179.42 305.28Z" fill="#ED057D"/>
<path d="M1132.37 335.179C1134.26 336.747 1137.53 337.243 1140.73 336.211C1143.93 335.179 1146.36 332.96 1147.03 330.607C1145.14 329.038 1141.87 328.543 1138.66 329.575C1135.45 330.607 1133.04 332.826 1132.37 335.179Z" fill="#ED057D"/>
<path d="M1142.15 312.907C1143.99 312.639 1146.41 314.393 1148.34 317.727C1150.19 320.785 1151.09 324.324 1150.91 327.893C1149.08 328.161 1146.65 326.396 1144.72 323.073C1142.87 320.015 1141.98 316.476 1142.15 312.907Z" fill="#ED057D"/>
<path d="M1158.66 304.723C1157.7 304.722 1156.75 304.514 1155.87 304.114C1154.99 303.713 1154.21 303.13 1153.58 302.403C1152.94 301.675 1152.47 300.821 1152.2 299.897C1151.92 298.973 1151.85 298 1151.98 297.044C1152.94 297.046 1153.89 297.254 1154.77 297.654C1155.65 298.054 1156.43 298.637 1157.07 299.365C1157.7 300.092 1158.17 300.946 1158.45 301.871C1158.72 302.795 1158.8 303.767 1158.66 304.723Z" fill="#ED057D"/>
<path d="M1160.2 336.015C1152.98 334.57 1148.67 326.871 1148.49 326.54L1150.23 325.57C1150.23 325.643 1154.36 332.795 1160.55 334.064L1160.2 336.015Z" fill="#ED057D"/>
<path d="M1136.8 335.272L1135.43 333.827C1135.74 333.538 1143.12 326.768 1154.31 330.731L1153.64 332.609C1150.85 331.524 1147.82 331.198 1144.86 331.666C1141.9 332.134 1139.12 333.378 1136.8 335.272Z" fill="#ED057D"/>
<path d="M1169.76 401.168H1167.77C1169.09 334.023 1143.14 300.264 1142.87 299.934L1144.44 298.706C1144.71 299.005 1171.05 333.321 1169.76 401.168Z" fill="#ED057D"/>
<path d="M1663.16 160.938C1658.22 159.78 1653.45 157.961 1648.99 155.53L1648.12 155.045L1648.34 154.075C1653.43 132.402 1669.81 115.796 1691.09 110.811C1708.92 106.683 1726.28 111.668 1736.39 123.929C1740.86 129.359 1744.63 135.338 1747.59 141.721L1748.05 142.753L1747.15 143.393C1741.01 147.697 1734.42 151.307 1727.48 154.157L1726.28 154.663L1723.98 149.503L1721.92 156.356L1721.29 156.572C1715.9 158.461 1710.38 159.965 1704.78 161.072C1689.65 163.962 1675.22 163.879 1663.16 160.938ZM1651.16 153.714C1664.44 160.732 1683.69 162.455 1704.18 158.44C1709.46 157.398 1714.66 155.999 1719.75 154.25L1723.53 141.938L1727.66 151.226C1733.64 148.677 1739.36 145.546 1744.73 141.876C1741.95 136.074 1738.48 130.627 1734.41 125.652C1724.94 114.176 1708.6 109.49 1691.75 113.433C1681.93 115.747 1672.94 120.732 1665.78 127.838C1658.61 134.943 1653.55 143.891 1651.16 153.693V153.714Z" fill="#ED057D" stroke="#ED057D" stroke-width="3" stroke-miterlimit="10"/>
<path d="M1637.13 173.219C1639.63 162.28 1647.84 154.065 1651.24 151.051L1651.37 150.938C1674.44 130.142 1699.24 128.583 1715.98 130.936C1726.88 132.42 1737.41 135.879 1747.07 141.143L1745.71 143.414C1736.31 138.349 1726.08 135.008 1715.51 133.548C1692.01 130.255 1671.03 136.778 1653.13 152.909L1653 153.022C1649.78 155.881 1642.04 163.611 1639.71 173.808L1637.13 173.219Z" fill="#ED057D" stroke="#ED057D" stroke-width="3" stroke-miterlimit="10"/>
<path d="M1737.73 127.665L1728.2 134.137L1729.69 136.323L1739.21 129.85L1737.73 127.665Z" fill="#ED057D" stroke="#ED057D" stroke-width="3" stroke-miterlimit="10"/>
<path d="M1729.86 119.244L1715.5 131.208L1717.19 133.238L1731.55 121.274L1729.86 119.244Z" fill="#ED057D" stroke="#ED057D" stroke-width="3" stroke-miterlimit="10"/>
<path d="M1720.06 113.379L1702.63 130.429L1704.48 132.317L1721.9 115.267L1720.06 113.379Z" fill="#ED057D" stroke="#ED057D" stroke-width="3" stroke-miterlimit="10"/>
<path d="M1706.41 110.146L1690.49 131.708L1692.62 133.277L1708.54 111.715L1706.41 110.146Z" fill="#ED057D" stroke="#ED057D" stroke-width="3" stroke-miterlimit="10"/>
<path d="M1693.59 111.042L1680.46 134.14L1682.76 135.445L1695.88 112.347L1693.59 111.042Z" fill="#ED057D" stroke="#ED057D" stroke-width="3" stroke-miterlimit="10"/>
<path d="M1678.66 115.63L1667.81 139.457L1670.21 140.552L1681.06 116.725L1678.66 115.63Z" fill="#ED057D" stroke="#ED057D" stroke-width="3" stroke-miterlimit="10"/>
<path d="M1665.55 124.554L1657.08 146.488L1659.55 147.439L1668.01 125.505L1665.55 124.554Z" fill="#ED057D" stroke="#ED057D" stroke-width="3" stroke-miterlimit="10"/>
<path d="M1730.58 134.63L1728.21 135.792L1734.81 149.258L1737.18 148.095L1730.58 134.63Z" fill="#ED057D" stroke="#ED057D" stroke-width="3" stroke-miterlimit="10"/>
<path d="M1717.56 131.672L1715.27 132.988L1726.86 153.169L1729.15 151.854L1717.56 131.672Z" fill="#ED057D" stroke="#ED057D" stroke-width="3" stroke-miterlimit="10"/>
<path d="M1704.77 130.903L1702.39 132.052L1714.67 157.469L1717.05 156.32L1704.77 130.903Z" fill="#ED057D" stroke="#ED057D" stroke-width="3" stroke-miterlimit="10"/>
<path d="M1692.79 132.092L1690.35 133.111L1701.87 160.669L1704.31 159.65L1692.79 132.092Z" fill="#ED057D" stroke="#ED057D" stroke-width="3" stroke-miterlimit="10"/>
<path d="M1682.75 134.238L1680.27 135.174L1690.41 161.948L1692.88 161.012L1682.75 134.238Z" fill="#ED057D" stroke="#ED057D" stroke-width="3" stroke-miterlimit="10"/>
<path d="M1670.37 139.643L1667.94 140.665L1677.04 162.354L1679.47 161.332L1670.37 139.643Z" fill="#ED057D" stroke="#ED057D" stroke-width="3" stroke-miterlimit="10"/>
<path d="M1659.43 146.24L1657.1 147.488L1664.03 160.406L1666.35 159.158L1659.43 146.24Z" fill="#ED057D" stroke="#ED057D" stroke-width="3" stroke-miterlimit="10"/>
<path d="M1619.2 175.954L1618.32 175.717C1608.25 173 1598.98 167.876 1591.33 160.785C1583.67 153.694 1577.86 144.85 1574.38 135.013C1570.95 125.156 1569.97 114.614 1571.52 104.294C1573.07 93.9746 1577.11 84.1867 1583.28 75.7733L1583.82 75.0405L1584.7 75.2779C1594.79 77.9629 1604.07 83.0739 1611.74 90.166C1619.4 97.258 1625.22 106.116 1628.67 115.969C1632.13 125.822 1633.13 136.371 1631.58 146.698C1630.03 157.025 1625.98 166.817 1619.79 175.222L1619.2 175.954ZM1576.88 134.136C1580.17 143.427 1585.63 151.796 1592.81 158.544C1599.99 165.291 1608.69 170.221 1618.17 172.92C1623.9 164.904 1627.62 155.626 1629.02 145.868C1630.41 136.111 1629.44 126.161 1626.18 116.859C1622.92 107.558 1617.46 99.1779 1610.28 92.4273C1603.1 85.6768 1594.4 80.754 1584.91 78.0748C1579.2 86.1019 1575.49 95.3797 1574.1 105.133C1572.71 114.886 1573.67 124.83 1576.9 134.136H1576.88Z" fill="#ED057D" stroke="#ED057D" stroke-width="3" stroke-miterlimit="10"/>
<path d="M1623.76 225.813C1619.4 167.749 1608.94 130.606 1600.92 109.666C1592.24 86.9607 1584.49 77.9302 1584.41 77.8374L1586.4 76.1035C1587.68 77.569 1617.97 113.453 1626.39 225.606L1623.76 225.813Z" fill="#ED057D" stroke="#ED057D" stroke-width="3" stroke-miterlimit="10"/>
<path d="M1605.97 87.981L1597.39 100.942L1599.59 102.4L1608.17 89.4393L1605.97 87.981Z" fill="#ED057D" stroke="#ED057D" stroke-width="3" stroke-miterlimit="10"/>
<path d="M1613.58 95.5502L1603 111.532L1605.21 112.99L1615.78 97.0085L1613.58 95.5502Z" fill="#ED057D" stroke="#ED057D" stroke-width="3" stroke-miterlimit="10"/>
<path d="M1621.45 106.385L1607.25 128.232L1609.46 129.673L1623.67 107.825L1621.45 106.385Z" fill="#ED057D" stroke="#ED057D" stroke-width="3" stroke-miterlimit="10"/>
<path d="M1628.09 122.583L1612.12 147.148L1614.33 148.588L1630.31 124.023L1628.09 122.583Z" fill="#ED057D" stroke="#ED057D" stroke-width="3" stroke-miterlimit="10"/>
<path d="M1629.69 140.228L1615.07 159.436L1617.18 161.036L1631.8 141.828L1629.69 140.228Z" fill="#ED057D" stroke="#ED057D" stroke-width="3" stroke-miterlimit="10"/>
<path d="M1580.23 82.8597L1579.11 85.249L1593.16 91.8815L1594.29 89.4921L1580.23 82.8597Z" fill="#ED057D" stroke="#ED057D" stroke-width="3" stroke-miterlimit="10"/>
<path d="M1575.06 94.1602L1573.94 96.5503L1600.48 109.057L1601.61 106.667L1575.06 94.1602Z" fill="#ED057D" stroke="#ED057D" stroke-width="3" stroke-miterlimit="10"/>
<path d="M1572.29 114.859L1571.26 117.293L1609.01 133.24L1610.04 130.807L1572.29 114.859Z" fill="#ED057D" stroke="#ED057D" stroke-width="3" stroke-miterlimit="10"/>
<path d="M1576.5 135.481L1575.75 138.012L1613.39 149.257L1614.15 146.725L1576.5 135.481Z" fill="#ED057D" stroke="#ED057D" stroke-width="3" stroke-miterlimit="10"/>
<path d="M1587.11 152.479L1586.28 154.986L1616.32 164.951L1617.15 162.444L1587.11 152.479Z" fill="#ED057D" stroke="#ED057D" stroke-width="3" stroke-miterlimit="10"/>
<path d="M1654.05 110.326L1653.45 109.882C1636.31 97.147 1629.47 77.538 1634.2 54.6575C1639.02 31.4777 1651.16 12.8802 1660.91 3.20987L1661.88 2.23975L1662.82 3.2718C1673.91 15.4397 1686.19 36.8547 1687.42 60.4989C1688.6 83.0595 1676.69 101.131 1654.74 110.037L1654.05 110.326ZM1636.81 55.2045C1632.36 76.7537 1638.62 95.2274 1654.46 107.323C1675.1 98.6331 1685.92 82.0687 1684.8 60.6228C1683.64 38.3408 1672.34 18.0714 1661.81 6.08929C1652.52 15.7389 1641.36 33.3767 1636.81 55.2045Z" fill="#ED057D" stroke="#ED057D" stroke-width="3" stroke-miterlimit="10"/>
<path d="M1615.92 258.766L1613.42 257.899C1620.33 237.97 1632.29 197.524 1650.08 117.933C1650.46 116.199 1650.73 115.002 1650.86 114.413C1658.09 83.2041 1661.83 41.4887 1660.66 5.55278L1663.3 5.47021C1664.48 41.5919 1660.71 83.586 1653.44 115.002L1652.66 118.5C1634.85 198.216 1622.85 238.775 1615.92 258.766Z" fill="#ED057D" stroke="#ED057D" stroke-width="3" stroke-miterlimit="10"/>
<path d="M1663.25 33.2631L1661.41 31.3744C1666.91 26.0284 1670.7 22.1376 1672.76 19.8052L1674.83 21.5287C1672.68 23.9231 1668.81 27.8758 1663.25 33.2631Z" fill="#ED057D" stroke="#ED057D" stroke-width="3" stroke-miterlimit="10"/>
<path d="M1662.65 49.4145L1660.93 47.3504C1665.33 43.6247 1674.44 35.4302 1678.16 31.5601L1680.06 33.3868C1676.29 37.3602 1667.08 45.6475 1662.65 49.4145Z" fill="#ED057D" stroke="#ED057D" stroke-width="3" stroke-miterlimit="10"/>
<path d="M1661.43 65.3391L1659.85 63.213C1667.93 57.3388 1675.52 50.8264 1682.56 43.7383L1684.46 45.565C1677.4 52.9854 1668.03 60.4162 1661.43 65.3391Z" fill="#ED057D" stroke="#ED057D" stroke-width="3" stroke-miterlimit="10"/>
<path d="M1659.62 81.0059L1658.17 78.7973C1667.78 72.4502 1678.58 65.1846 1685.18 59.2812L1686.94 61.2525C1680.21 67.2693 1669.31 74.6072 1659.62 81.0059Z" fill="#ED057D" stroke="#ED057D" stroke-width="3" stroke-miterlimit="10"/>
<path d="M1657.25 96.3522L1655.91 94.0714C1664.02 89.3136 1678.88 80.469 1683.11 77.5586L1684.61 79.7362C1679.33 83.3793 1659.49 95.0415 1657.25 96.3522Z" fill="#ED057D" stroke="#ED057D" stroke-width="3" stroke-miterlimit="10"/>
<path d="M1661.1 31.168C1658.36 27.7829 1654.8 23.1181 1651.94 19.3717L1650.74 17.7824L1652.8 16.1724L1654.01 17.772C1656.86 21.4977 1660.4 26.1523 1663.11 29.5064L1661.1 31.168Z" fill="#ED057D" stroke="#ED057D" stroke-width="3" stroke-miterlimit="10"/>
<path d="M1660.24 48.2276C1657.22 44.6464 1654.05 40.0538 1650.95 35.6057C1648.77 32.5095 1646.7 29.5166 1644.76 27.05L1646.83 25.4297C1648.77 27.9479 1650.84 30.9305 1653.02 34.0886C1656.11 38.4851 1659.21 43.0364 1662.19 46.5248L1660.24 48.2276Z" fill="#ED057D" stroke="#ED057D" stroke-width="3" stroke-miterlimit="10"/>
<path d="M1659.56 63.2237C1653.49 56.3605 1645.95 47.2682 1639.38 38.888L1641.45 37.2573C1647.99 45.5963 1655.49 54.6474 1661.53 61.4692L1659.56 63.2237Z" fill="#ED057D" stroke="#ED057D" stroke-width="3" stroke-miterlimit="10"/>
<path d="M1657.9 78.9414C1653.45 74.1733 1642.33 62.1087 1635 53.1402L1637.06 51.4683C1644.29 60.3336 1655.42 72.3466 1659.85 77.1044L1657.9 78.9414Z" fill="#ED057D" stroke="#ED057D" stroke-width="3" stroke-miterlimit="10"/>
<path d="M1655.66 94.2883C1653.38 91.9765 1650.61 89.3035 1647.69 86.4653C1642.4 81.3051 1636.94 76.0726 1633.24 71.8618L1635.24 70.1177C1638.87 74.2459 1644.3 79.499 1649.55 84.5664C1652.49 87.4148 1655.27 90.0981 1657.56 92.4306L1655.66 94.2883Z" fill="#ED057D" stroke="#ED057D" stroke-width="3" stroke-miterlimit="10"/>
<path d="M820.234 408.289L813.928 408.104C815.445 356.388 794.319 328.378 794.082 328.109L799.067 324.239C799.995 325.436 821.823 354.148 820.234 408.289Z" fill="#ED057D"/>
<path d="M784.897 304.795C781.223 311.638 781.697 321.969 786.878 331.464C792.059 340.958 800.501 346.944 808.252 347.543C811.926 340.7 811.451 330.37 806.27 320.875C801.089 311.38 792.647 305.404 784.897 304.795Z" fill="#ED057D"/>
<path d="M813.402 388.288C812.855 365.531 826.819 342.62 827.407 341.66L832.784 344.963C832.65 345.19 819.212 367.276 819.708 388.144L813.402 388.288Z" fill="#ED057D"/>
<path d="M813.794 396.534C807.117 368.761 786.094 355.531 785.856 355.417L789.159 350.04C790.108 350.628 812.649 364.778 819.924 395.058L813.794 396.534Z" fill="#ED057D"/>
<path d="M850.731 321.999C853.404 329.296 851.464 339.462 844.983 348.121C838.501 356.78 829.306 361.537 821.545 361.001C818.882 353.704 820.822 343.549 827.304 334.89C833.785 326.231 842.98 321.473 850.731 321.999Z" fill="#ED057D"/>
<path d="M795.052 357.368C791.223 360.825 784.484 362.136 777.507 360.278C770.53 358.421 765.391 353.921 763.781 349.029C767.62 345.572 774.359 344.261 781.326 346.119C788.292 347.976 793.452 352.435 795.052 357.368Z" fill="#ED057D"/>
<path d="M936.515 20.4556C933.75 25.6158 934.111 33.3562 938.012 40.4876C941.913 47.6191 948.24 52.1085 954.06 52.5729C956.826 47.4127 956.465 39.6723 952.574 32.5409C948.683 25.4094 942.336 20.8993 936.515 20.4556Z" fill="#ED057D"/>
<path d="M993.154 32.7471C994.661 36.8753 991.679 43.3875 984.826 49.5075C977.973 55.6276 969.159 59.6423 962.275 60.2821C960.769 56.1539 963.751 49.6314 970.594 43.5113C977.436 37.3913 986.312 33.3766 993.154 32.7471Z" fill="#ED057D"/>
<path d="M952.409 85.8977H947.662C947.662 68.4148 963.627 54.6473 964.298 54.0693L967.394 57.6815C967.229 57.8054 952.409 70.6234 952.409 85.8977Z" fill="#ED057D"/>
<path d="M957.115 69.6531L952.43 68.9719C956.114 43.8622 939.106 31.3434 938.383 30.7861L941.139 26.9263C941.934 27.5558 961.233 41.6123 957.115 69.6531Z" fill="#ED057D"/>
</g>
<defs>
<clipPath id="clip0">
<rect width="1750" height="465" fill="white"/>
</clipPath>
</defs>
</svg>
