<svg width="789" height="235" viewBox="0 0 789 235" fill="none" xmlns="http://www.w3.org/2000/svg">
<path d="M6.5 232.601C4.5 232.601 3 232.401 1.8 232.001C0.6 231.601 0 231.001 0 230.101C0 228.301 2.5 226.901 7.4 226.001C13.1 225.001 17.4 223.201 20.4 220.801C23.4 218.401 24.9 214.601 24.9 209.301V107.801C24.9 102.601 23.8 98.8006 21.6 96.6006C19.4 94.4006 15.5 92.7006 9.8 91.6006C4.8 90.7006 2.4 89.2006 2.4 87.1006C2.4 86.2006 3 85.6006 4.2 85.2006C5.5 84.8006 7 84.6006 9 84.6006C13 84.6006 16.2 84.7006 18.6 84.8006C20.9 85.0006 23.1 85.1006 25.2 85.3006C27.3 85.5006 29.8 85.5006 32.8 85.5006C43.4 85.5006 52.6 85.5006 60.4 85.6006C68.1 85.7006 76.1 85.7006 84.4 85.7006C92.6 85.7006 100.7 85.6006 108.6 85.5006C116.5 85.4006 125.7 85.3006 136.2 85.3006C139.5 85.3006 142.2 85.3006 144.3 85.2006C146.4 85.1006 148.6 85.0006 151.1 84.9006C153.5 84.8006 156.7 84.7006 160.8 84.7006C162.7 84.7006 164.3 84.9006 165.5 85.3006C166.7 85.7006 167.3 86.3006 167.3 87.2006C167.3 89.3006 164.8 90.8006 159.9 91.7006C154.3 92.8006 150.3 94.4006 147.7 96.7006C145.1 98.9006 143.9 102.701 143.9 107.901V209.601C143.9 214.901 145.5 218.701 148.6 221.101C151.8 223.501 156.1 225.201 161.6 226.301C166.6 227.201 169 228.501 169 230.401C169 231.301 168.4 231.901 167.2 232.301C166 232.701 164.4 232.901 162.5 232.901C158.5 232.901 155.1 232.801 152.5 232.601C149.9 232.401 147.4 232.201 145 232.001C142.6 231.801 139.7 231.801 136.2 231.801C132.4 231.801 129.2 231.901 126.4 232.001C123.6 232.101 120.8 232.301 117.8 232.601C114.9 232.801 111.4 232.901 107.3 232.901C105.3 232.901 103.8 232.701 102.6 232.301C101.4 231.901 100.8 231.301 100.8 230.401C100.8 229.401 101.4 228.501 102.6 227.901C103.8 227.301 105.7 226.801 108.2 226.301C113.9 225.301 118.2 223.301 121 220.601C123.8 217.801 125.3 214.101 125.5 209.501C126 190.801 126.1 171.901 125.8 153.001C125.6 134.101 125.5 115.301 125.5 96.5006C125.5 95.8006 125.3 95.3006 124.9 95.1006C124.5 95.0006 124.1 94.9006 123.7 94.9006C117.5 94.9006 112.1 94.9006 107.4 94.8006C102.7 94.7006 98.2 94.6006 94 94.5006C89.8 94.4006 85.2 94.3006 80.3 94.3006C74.4 94.3006 68.8 94.3006 63.4 94.4006C58 94.5006 51.5 94.7006 44 95.0006C43.2 95.0006 42.9 95.8006 42.9 97.5006C42.3 116.101 42 134.701 42 153.401C42 172.101 42.3 190.801 42.9 209.501C43 214.201 44.7 217.901 47.7 220.601C50.8 223.401 55.1 225.301 60.6 226.301C63.1 226.801 65 227.301 66.2 227.901C67.4 228.501 68 229.301 68 230.401C68 231.301 67.4 231.901 66.2 232.301C65 232.701 63.4 232.901 61.5 232.901C57.4 232.901 54.1 232.801 51.5 232.601C48.9 232.401 46.4 232.201 44 232.001C41.6 231.801 38.7 231.801 35.2 231.801C31.4 231.801 28.2 231.901 25.4 232.001C22.6 232.101 19.8 232.301 16.9 232.601C14.1 232.501 10.6 232.601 6.5 232.601Z" fill="#ED057D"/>
<path d="M193 234.701C191.3 234.701 189.7 234.001 187.9 232.601C186.2 231.201 184.9 229.501 184 227.501C183.1 225.601 182.9 224.001 183.3 222.801L206.9 165.901C207.9 163.401 208.6 161.201 208.9 159.401C209.2 157.601 208.7 156.701 207.6 156.701C206.8 156.701 205.6 157.301 203.9 158.501C202.2 159.701 200.2 161.201 198.1 163.001C195.9 164.801 193.7 166.701 191.5 168.601C191.2 168.901 190.6 169.001 189.8 168.801C189 168.701 188.6 168.401 188.6 167.901C188.6 167.301 188.7 166.401 189 165.301C189.3 164.201 190 162.801 191.2 161.101C194.9 156.001 199.1 151.701 203.7 148.301C208.3 144.901 212.6 142.201 216.7 140.301C220.8 138.401 223.9 137.501 226 137.501C226.7 137.501 227.6 137.901 228.6 138.701C229.6 139.501 230.4 140.501 231 141.601C231.6 142.701 231.6 143.801 231 144.901C226 155.101 221.3 165.501 216.8 175.901C212.3 186.401 207.8 196.801 203.3 206.901C202 209.901 201.1 212.701 200.8 215.201C200.5 217.801 201.1 219.001 202.6 219.001C204.1 219.001 206.3 217.701 209.4 215.201C212.4 212.701 215.8 209.401 219.6 205.301C223.4 201.201 227.4 196.901 231.6 192.201C237.3 185.801 242.8 179.101 248.1 172.201C253.4 165.301 258 159.101 261.9 153.501C265.8 148.001 268.3 144.001 269.6 141.801C270.3 140.301 271.2 139.301 272.3 138.901C273.3 138.401 274.3 138.201 275.2 138.201C276.1 138.201 277 138.701 277.9 139.601C278.8 140.501 279.5 141.601 280 142.701C280.5 143.901 280.6 144.901 280.1 145.901L251.3 212.101C250.1 215.001 249.6 217.101 249.7 218.601C249.8 220.101 250.6 220.801 251.9 220.801C253.8 220.801 256.4 219.801 259.5 217.701C262.7 215.601 265.9 213.201 269.2 210.401C272.5 207.601 275.3 205.101 277.5 202.901C277.6 202.801 277.9 202.701 278.2 202.701C278.6 202.701 279.1 202.901 279.5 203.301C280 203.701 280.2 204.201 280.2 204.801C280.2 205.101 280.1 205.401 280 205.701C279.8 206.001 279.7 206.401 279.4 206.801C279.2 207.301 278.9 207.801 278.5 208.401C278.1 209.001 277.7 209.601 277.2 210.301C276.7 211.001 276 211.801 275.3 212.701C272.4 216.301 269.1 219.801 265.4 223.201C261.6 226.601 257.6 229.401 253.4 231.501C249.1 233.701 244.6 234.801 239.8 234.801C237.8 234.801 236.1 233.501 234.5 231.001C232.9 228.501 232.6 226.201 233.5 224.201C235.6 219.701 237.8 214.901 240.3 209.801C242.7 204.701 244.8 200.001 246.7 195.601C248.6 191.301 249.9 188.001 250.6 185.901C251.3 184.101 251.3 183.101 250.4 183.001C249.5 182.901 248.7 183.201 247.9 184.101C240.1 192.601 233.2 200.101 227.2 206.501C221.2 212.901 216 218.101 211.6 222.301C207.2 226.401 203.4 229.501 200.4 231.601C197.5 233.601 195 234.701 193 234.701Z" fill="#ED057D"/>
<path d="M320.6 232.201C319.8 232.201 318.8 232.101 317.5 231.901C316.1 231.701 315.5 231.101 315.5 230.201C315.5 229.001 316.1 228.101 317.2 227.601C318.3 227.101 319.5 226.601 320.7 226.101C322.9 225.401 325.1 224.501 327.1 223.401C329.1 222.401 330.1 220.201 330.1 216.901V155.901C330.1 154.501 329.9 153.001 329.6 151.301C329.3 149.601 328.5 148.701 327.4 148.701H313.9C311.7 148.701 309.9 149.201 308.5 150.001C307.1 150.901 306 152.301 305 154.201C304 156.101 303.1 158.701 302.2 162.001C301.9 163.201 301.3 164.401 300.3 165.701C299.3 167.001 298.2 167.601 297 167.601C296.4 167.601 295.9 167.301 295.4 166.701C295 166.101 294.7 165.301 294.7 164.201C294.7 163.901 294.7 163.501 294.8 163.101C294.9 162.701 295 162.201 295.1 161.801C295.7 159.701 296.3 156.701 296.9 152.701C297.5 148.701 297.8 145.301 297.8 142.501C297.8 141.301 298.1 140.301 298.6 139.601C299.1 138.901 300 138.501 301.2 138.501C302.4 138.501 303.4 138.701 304.3 139.001C305.2 139.301 306.5 139.701 308.4 140.101C310 140.601 311.7 140.901 313.2 141.201C314.8 141.501 316.9 141.701 319.6 141.701H365.9C367.8 141.701 369.8 141.601 371.7 141.501C373.6 141.401 374.9 141.001 375.5 140.601C376.2 140.001 377.1 139.501 378 139.101C378.9 138.701 379.5 138.501 379.8 138.501C380.3 138.501 380.8 138.801 381.4 139.401C382 140.001 382.3 140.801 382.3 141.901C382.3 143.401 382.1 145.101 381.8 146.901C381.5 148.701 381.4 150.601 381.4 152.501C381.4 154.301 381.4 156.101 381.5 157.801C381.6 159.501 381.7 161.201 381.8 162.901C381.9 164.001 381.8 165.001 381.2 166.201C380.7 167.301 379.9 167.901 378.8 167.901C377.7 167.901 376.9 167.201 376.2 165.801C375.5 164.401 375.1 163.201 375 162.301C374.8 159.601 374.3 157.201 373.4 155.201C372.5 153.201 371.2 151.601 369.3 150.601C367.5 149.601 365.2 149.001 362.3 149.001H348.8C347.3 149.001 346.4 149.801 346 151.501C345.6 153.201 345.4 154.701 345.4 156.201V217.401C345.4 220.601 346.5 222.701 348.7 223.701C350.9 224.801 353.1 225.701 355.3 226.401C356.5 226.901 357.7 227.301 358.8 227.901C359.9 228.401 360.5 229.301 360.5 230.501C360.5 231.401 359.8 232.001 358.5 232.201C357.2 232.401 356.1 232.501 355.4 232.501C352.5 232.501 350.3 232.401 348.6 232.201C346.9 232.001 345.4 231.801 344 231.601C342.6 231.501 340.5 231.401 337.8 231.401C335.2 231.401 333.2 231.501 331.7 231.601C330.2 231.801 328.7 231.901 327.1 232.201C325.9 232.101 323.6 232.201 320.6 232.201Z" fill="#ED057D"/>
<path d="M411.1 234.7C408.4 234.7 405.7 233.6 402.9 231.5C400.1 229.4 397.8 226.9 395.9 223.8C394 220.8 393.1 218 393.1 215.3C393.1 210.5 394.4 206.8 396.9 204.1C399.4 201.4 403.5 198.9 409.1 196.7L432.1 187.2C435.1 186 436.9 185 437.4 184.1C437.9 183.2 438.3 181.3 438.4 178.2L438.9 163.8C439 159.9 438 156.5 435.6 153.7C433.3 150.9 429.9 149.4 425.6 149.4C423.4 149.4 421.1 149.8 418.8 150.5C416.6 151.3 414.7 152.2 413.2 153.4C412.3 154 411.7 154.9 411.4 156.1C411.1 157.3 410.9 158.6 410.9 159.9C410.9 160.5 410.9 161.2 411 161.9C411.1 162.7 411.1 163.3 411.1 163.9C411.1 164.7 410.2 165.7 408.3 166.9C406.4 168.2 404.3 169.3 402 170.3C399.7 171.3 397.8 171.8 396.3 171.8C395.5 171.8 395 171.6 394.5 171.2C394 170.8 393.8 170.3 393.8 169.7C393.8 167.3 394.6 164.7 396.2 161.9C397.8 159.1 400 156.5 402.8 154.1C406.2 150.9 410 148.2 414 145.8C418 143.4 422 141.5 425.9 140.2C429.8 138.9 433.2 138.2 436.2 138.2C441.6 138.2 446.1 140.1 449.6 143.9C453.1 147.7 454.8 152.5 454.7 158.2L453.6 212.2C453.4 215.4 454.2 217.9 455.7 219.9C457.3 221.9 459.3 222.8 461.7 222.8C465.4 222.8 468.2 222 470 220.3C470.7 219.6 471.4 219.2 471.8 219.2C472.5 219.2 473.1 219.4 473.6 219.9C474.1 220.3 474.3 221 474.3 221.7C474.3 223.4 473.5 225 471.8 226.7C469.4 229.1 466.8 231 464 232.4C461.2 233.8 458.6 234.5 456.2 234.5C449.3 234.5 443.8 230.6 439.8 222.8H439.1C434.1 226.8 429.4 229.8 424.9 231.7C420.5 233.7 415.9 234.7 411.1 234.7ZM421.6 223.9C424.6 223.9 427.1 223.4 429.3 222.4C431.4 221.4 433.3 220.1 434.9 218.5C435.6 217.8 436.3 216.7 436.8 215.5C437.3 214.2 437.7 212.2 437.8 209.3L438.3 198.3C438.4 196.7 438.4 195.5 438.1 194.7C437.8 194 437.2 193.6 436.3 193.6C436 193.6 435.5 193.7 434.7 193.8C433.9 194 433 194.3 431.8 194.7C423.8 197.6 418.3 200.5 415.3 203.6C412.2 206.7 410.7 209.5 410.7 212C410.7 215.9 411.9 218.9 414.2 220.9C416.4 222.8 418.9 223.9 421.6 223.9Z" fill="#ED057D"/>
<path d="M485.1 232.201C484.2 232.201 483.1 232.101 481.8 232.001C480.5 231.801 479.9 231.301 479.9 230.201C479.9 229.001 480.5 228.101 481.6 227.601C482.7 227.101 483.9 226.601 485.1 226.101C487.3 225.401 489.5 224.501 491.5 223.501C493.5 222.501 494.5 220.501 494.5 217.301V155.601C494.5 152.601 493.6 150.501 491.9 149.401C490.2 148.301 488.2 147.401 485.9 146.801C484.7 146.301 483.5 145.801 482.4 145.201C481.3 144.601 480.7 143.801 480.7 142.701C480.7 141.701 481.3 141.101 482.6 140.901C483.9 140.801 485 140.701 485.9 140.701C488.9 140.701 491.1 140.801 492.5 140.901C493.9 141.101 495.3 141.201 496.7 141.501C498 141.701 500 141.801 502.5 141.801C505.2 141.801 507.1 141.701 508.4 141.501C509.6 141.301 510.9 141.101 512.3 140.901C513.7 140.801 515.9 140.701 518.7 140.701C519.6 140.701 520.7 140.801 522 140.901C523.3 141.101 523.9 141.701 523.9 142.701C523.9 143.801 523.3 144.601 522.2 145.201C521.1 145.801 519.9 146.301 518.7 146.801C516.5 147.401 514.5 148.301 512.7 149.401C511 150.501 510.1 152.601 510.1 155.601V179.201C510.1 179.801 510.4 180.201 511 180.301C511.6 180.501 512 180.501 512.4 180.501H554.2C554.5 180.501 554.8 180.401 555 180.001C555.2 179.701 555.3 179.301 555.3 178.601V155.401C555.3 152.401 554.5 150.301 553.1 149.201C551.6 148.101 549.7 147.201 547.5 146.601C546.3 146.101 545.1 145.601 544 145.001C542.9 144.401 542.3 143.601 542.3 142.501C542.3 141.501 542.9 140.901 544.1 140.701C545.3 140.601 546.4 140.501 547.5 140.501C550.5 140.501 552.7 140.601 554 140.701C555.3 140.901 556.7 141.001 557.9 141.301C559.2 141.501 561.1 141.601 563.6 141.601C566.3 141.601 568.3 141.501 569.6 141.301C570.9 141.101 572.3 140.901 573.8 140.701C575.3 140.601 577.5 140.501 580.3 140.501C581.3 140.501 582.5 140.601 583.7 140.701C584.9 140.901 585.5 141.501 585.5 142.501C585.5 143.601 584.9 144.401 583.8 145.001C582.7 145.601 581.5 146.101 580.3 146.601C578.1 147.201 575.9 148.101 574 149.201C572 150.301 571.1 152.401 571.1 155.401V217.101C571.1 220.101 572.2 222.101 574.4 223.201C576.6 224.301 578.8 225.201 581 225.901C582.2 226.401 583.4 226.801 584.5 227.401C585.6 227.901 586.2 228.801 586.2 230.001C586.2 231.101 585.6 231.601 584.3 231.801C583 231.901 581.9 232.001 581 232.001C578.1 232.001 575.9 231.901 574.2 231.701C572.5 231.501 571 231.301 569.6 231.101C568.2 231.001 566.1 230.901 563.4 230.901C560.8 230.901 558.8 231.001 557.3 231.101C555.8 231.301 554.3 231.401 552.7 231.701C551.1 231.901 548.8 232.001 545.8 232.001C544.9 232.001 543.8 231.901 542.5 231.801C541.2 231.601 540.6 231.101 540.6 230.001C540.6 228.801 541.2 227.901 542.3 227.401C543.4 226.901 544.6 226.401 545.8 225.901C548 225.201 550.2 224.301 552.2 223.201C554.2 222.201 555.2 220.101 555.2 217.101V189.001C555.2 188.401 555.1 188.101 555 188.001C554.8 187.901 554.6 187.901 554.3 187.901H511C510.7 187.901 510.5 188.001 510.4 188.201C510.3 188.401 510.3 188.801 510.3 189.401V217.101C510.3 220.201 511.4 222.301 513.6 223.301C515.8 224.301 518 225.101 520.2 225.901C521.4 226.401 522.6 226.801 523.7 227.401C524.8 227.901 525.4 228.801 525.4 230.001C525.4 231.101 524.8 231.601 523.5 231.801C522.2 231.901 521.1 232.001 520.2 232.001C517.3 232.001 515.1 231.901 513.4 231.701C511.7 231.501 510.2 231.301 508.8 231.101C507.4 231.001 505.3 230.901 502.6 230.901C500 230.901 498 231.001 496.5 231.101C495 231.301 493.5 231.401 491.9 231.701C490.4 232.101 488.1 232.201 485.1 232.201Z" fill="#ED057D"/>
<path d="M606.8 234.701C605.1 234.701 603.5 234.001 601.7 232.601C600 231.201 598.7 229.501 597.8 227.501C596.9 225.601 596.7 224.001 597.1 222.801L620.7 165.901C621.7 163.401 622.4 161.201 622.7 159.401C623 157.601 622.5 156.701 621.4 156.701C620.6 156.701 619.4 157.301 617.7 158.501C616 159.701 614 161.201 611.9 163.001C609.7 164.801 607.5 166.701 605.3 168.601C605 168.901 604.4 169.001 603.6 168.801C602.8 168.701 602.4 168.401 602.4 167.901C602.4 167.301 602.5 166.401 602.8 165.301C603.1 164.201 603.8 162.801 605 161.101C608.7 156.001 612.9 151.701 617.5 148.301C622.1 144.901 626.4 142.201 630.5 140.301C634.6 138.401 637.7 137.501 639.8 137.501C640.5 137.501 641.4 137.901 642.4 138.701C643.4 139.501 644.2 140.501 644.8 141.601C645.4 142.701 645.4 143.801 644.8 144.901C639.8 155.101 635.1 165.501 630.6 175.901C626.1 186.401 621.6 196.801 617.1 206.901C615.8 209.901 614.9 212.701 614.6 215.201C614.3 217.801 614.9 219.001 616.4 219.001C617.9 219.001 620.1 217.701 623.2 215.201C626.2 212.701 629.6 209.401 633.4 205.301C637.2 201.201 641.2 196.901 645.4 192.201C651.1 185.801 656.6 179.101 661.9 172.201C667.2 165.301 671.8 159.101 675.7 153.501C679.6 148.001 682.1 144.001 683.4 141.801C684.1 140.301 685 139.301 686.1 138.901C687.1 138.401 688.1 138.201 689 138.201C689.9 138.201 690.8 138.701 691.7 139.601C692.6 140.501 693.3 141.601 693.8 142.701C694.3 143.901 694.4 144.901 693.9 145.901L665.1 212.101C663.9 215.001 663.4 217.101 663.5 218.601C663.6 220.101 664.4 220.801 665.7 220.801C667.6 220.801 670.2 219.801 673.3 217.701C676.5 215.601 679.7 213.201 683 210.401C686.3 207.601 689.1 205.101 691.3 202.901C691.4 202.801 691.7 202.701 692 202.701C692.4 202.701 692.9 202.901 693.3 203.301C693.8 203.701 694 204.201 694 204.801C694 205.101 693.9 205.401 693.8 205.701C693.6 206.001 693.5 206.401 693.2 206.801C693 207.301 692.7 207.801 692.3 208.401C691.9 209.001 691.5 209.601 691 210.301C690.5 211.001 689.8 211.801 689.1 212.701C686.2 216.301 682.9 219.801 679.2 223.201C675.4 226.601 671.4 229.401 667.2 231.501C662.9 233.701 658.4 234.801 653.6 234.801C651.6 234.801 649.9 233.501 648.3 231.001C646.7 228.501 646.4 226.201 647.3 224.201C649.4 219.701 651.6 214.901 654.1 209.801C656.5 204.701 658.6 200.001 660.5 195.601C662.4 191.301 663.7 188.001 664.4 185.901C665.1 184.101 665.1 183.101 664.2 183.001C663.3 182.901 662.5 183.201 661.7 184.101C653.9 192.601 647 200.101 641 206.501C635 212.901 629.8 218.101 625.4 222.301C621 226.401 617.2 229.501 614.2 231.601C611.3 233.601 608.8 234.701 606.8 234.701Z" fill="#ED057D"/>
<path d="M754.2 234.9C745.9 234.9 738.7 232.9 732.6 228.8C726.4 224.8 721.6 219 718.2 211.6C714.7 204.2 713 195.6 713 185.8C713 177.1 715 169.2 719 162.1C723 155 728.3 149.2 734.9 144.9C741.5 140.6 748.7 138.4 756.5 138.4C762.5 138.4 767.8 139.6 772.5 142C777.1 144.4 780.8 147.7 783.4 152C786 156.3 787.3 161.2 787.3 166.7C787.3 171.4 785.1 173.7 780.5 173.7H733C730.9 173.7 729.4 174.3 728.6 175.4C727.8 176.5 727.4 178.7 727.4 182C727.4 189.2 729 195.8 732.1 201.7C735.3 207.6 739.4 212.4 744.7 215.9C749.9 219.4 755.7 221.2 762 221.2C766.5 221.2 770.6 220.3 774.3 218.6C778 216.9 781.2 214.4 784.1 211.1C784.7 210.4 785.1 209.9 785.4 209.6C785.7 209.4 786.1 209.3 786.5 209.3C787.7 209.3 788.3 210.1 788.3 211.5C788.3 214.4 787 217.5 784.3 221C782.1 223.9 779.3 226.3 776.2 228.4C773 230.5 769.6 232.1 765.8 233.2C762.1 234.3 758.2 234.9 754.2 234.9ZM733.5 166.7H754C757.6 166.7 760.7 166.6 763.2 166.5C765.7 166.4 768.2 166.1 770.6 165.6C771.3 165.5 771.8 165 772.1 164.1C772.3 163.3 772.4 162.1 772.4 160.6C772.4 156.3 770.5 152.5 766.7 149.5C762.9 146.4 758.3 144.9 753.1 144.9C749.6 144.9 746.2 145.9 742.8 147.9C739.3 149.9 736.5 152.4 734.3 155.4C732.1 158.4 730.9 161.4 730.9 164.4C730.8 166 731.7 166.7 733.5 166.7Z" fill="#ED057D"/>
<path d="M267.5 173.501L264.3 171.601C280.8 143.401 287.1 117.001 289.4 99.8006C292 81.2006 290.6 69.1006 290.6 69.0006L294.3 68.6006C294.5 69.1006 299.7 118.301 267.5 173.501Z" fill="#ED057D"/>
<path d="M277.901 134.3L276.501 133.9C270.601 132.4 264.7 126.7 261.3 119C257.9 111.3 257.501 103.2 260.401 97.8L261.101 96.5L262.501 96.9C268.501 98.4 274.301 104.1 277.701 111.8C281.101 119.4 281.501 127.6 278.601 133L277.901 134.3ZM263.101 101C261.501 105.4 262.1 111.7 264.8 117.6C267.4 123.5 271.701 128.1 276.001 129.9C277.601 125.5 277 119.2 274.3 113.3C271.7 107.5 267.401 102.8 263.101 101Z" fill="#ED057D"/>
<path d="M279.8 148.7L276.2 148C277.6 141.2 276 137.6 273.9 132.9C273.5 132.1 273.2 131.2 272.8 130.4L276.2 129C276.6 129.8 276.9 130.7 277.3 131.5C279.4 136.2 281.4 140.8 279.8 148.7Z" fill="#ED057D"/>
<path d="M306.701 126C302.001 126 297.601 125.1 293.901 123.4L292.601 122.8L292.901 121.4C295.001 111.6 304.101 101.7 316.501 95.6003C328.901 89.5003 342.301 88.4003 351.401 92.7003L352.701 93.3003L352.401 94.7003C350.301 104.5 341.201 114.4 328.801 120.5C321.401 124.1 313.701 126 306.701 126ZM296.901 120.6C304.901 123.7 316.501 122.4 327.201 117.1C337.801 111.9 346.001 103.4 348.401 95.3003C340.401 92.2003 328.801 93.5003 318.201 98.8003C307.501 104 299.401 112.4 296.901 120.6Z" fill="#ED057D"/>
<path d="M284.6 136.4L281.4 134.6C286.4 125.9 296.2 117.3 310.6 109.2C321.1 103.3 332.4 98.6002 339.5 96.2002L340.7 99.7002C324.5 105.2 294.4 119.2 284.6 136.4Z" fill="#ED057D"/>
<path d="M291 70.4008C289 70.4008 286.9 69.9008 285.1 68.8008C282 67.0008 279.8 64.0008 279.2 60.4008L282.8 59.7008C283.3 62.2008 284.7 64.3008 286.9 65.5008C291 67.8008 296.3 66.3008 298.7 62.1008C299.5 60.7008 299.9 59.0008 299.9 57.4008L303.6 57.3008C303.7 59.6008 303.1 61.9008 301.9 63.9008C299.5 68.1008 295.3 70.4008 291 70.4008Z" fill="#ED057D"/>
<path d="M286.8 62.6004C277 62.6004 265.6 59.3004 256.2 49.9004C249 42.7004 246.2 33.2004 249 25.7004C250.8 20.9004 254.7 17.8004 259.6 17.5004C259.8 17.5004 260.1 17.5004 260.3 17.5004C259.5 12.2004 260.9 7.4004 264.2 4.2004C268.3 0.200405 274.8 -0.799595 282.3 1.5004C285.4 2.4004 288 4.0004 290 6.1004C292.6 1.8004 296.5 -0.299595 301.2 0.200405C310.4 1.2004 318.9 11.7004 321 24.6004C325.3 51.2004 303.1 59.6004 298.6 61.0004C295.2 61.9004 291.2 62.6004 286.8 62.6004ZM260.2 21.1004C260.1 21.1004 260 21.1004 259.8 21.1004C256.4 21.3004 253.7 23.5004 252.4 26.9004C250.6 31.6004 251.3 39.7004 258.7 47.2004C271.2 59.6004 287.3 60.4004 297.4 57.2004C301.4 56.0004 321.1 48.6004 317.3 24.9004C315.3 12.5004 307.3 4.3004 300.8 3.6004C296.9 3.2004 293.8 5.5004 292.1 10.0004L290.8 13.4004L288.8 10.3004C287.1 7.6004 284.5 5.80041 281.2 4.80041C275 2.9004 269.9 3.6004 266.7 6.6004C263.8 9.4004 263 13.9004 264.3 19.0004L265.2 22.4004L261.9 21.3004C261.4 21.3004 260.8 21.1004 260.2 21.1004Z" fill="#ED057D"/>
<path d="M279.5 35.8006C278.6 32.7006 276.9 28.7006 274 23.3006L277.3 21.6006C280.3 27.2006 282.2 31.4006 283.1 34.8006L279.5 35.8006Z" fill="#ED057D"/>
<path d="M293 33.3006L289.3 33.1006C289.5 27.6006 290.3 23.2006 291.5 20.1006L295 21.4006C293.9 24.2006 293.2 28.2006 293 33.3006Z" fill="#ED057D"/>
<path d="M285.903 17.9313L282.234 18.4131L284.213 33.4839L287.882 33.0021L285.903 17.9313Z" fill="#ED057D"/>
<path d="M286.8 62.6C277 62.6 265.6 59.3 256.2 49.9C250.5 44.2 247.5 37 248 30.3L248.1 29.3L249 28.8C253.1 26.5 257.4 26 261.4 27.3C266.2 28.8 270.3 33.1 273.6 39.8C276.8 35.8 282.1 33 285.6 31.8C288.2 31 291.8 30.9 295.6 34.2C296.1 29.8 298.2 25.6 301.8 21.6C308.5 14.3 314.5 15 318.4 16.9L319.1 17.2L319.4 17.9C320.1 20 320.6 22.1 321 24.3C325.3 50.9 303.1 59.3 298.6 60.7C295.2 61.9 291.2 62.6 286.8 62.6ZM251.7 31.6C251.6 36.9 254.2 42.6 258.9 47.3C271.4 59.7 287.5 60.5 297.6 57.3C301.6 56.1 321.3 48.7 317.5 25C317.2 23.3 316.8 21.6 316.3 20C312.5 18.5 308.6 19.9 304.7 24.2C300.4 28.9 298.8 33.5 299.5 38.9L300.5 46.2L296.2 40.2C293.2 36 290.1 34.4 286.9 35.4C283 36.7 276.8 40.3 275.2 44.6L274.4 44.3L272 45.3L271.7 44.7L271.6 44.5C271.3 43.9 271.1 43.2 270.8 42.6C268.8 38.2 265.4 32.6 260.3 31C257.5 30 254.6 30.2 251.7 31.6Z" fill="#ED057D"/>
</svg>
