<svg width="568" height="315" viewBox="0 0 568 315" fill="none" xmlns="http://www.w3.org/2000/svg">
<g clip-path="url(#clip0)">
<path d="M26.7001 300.9C27.9001 301.4 29.1 301.9 30.2001 302.5C31.3001 303.1 32.2 303.8 33.1 304.6C33.9 305.5 34.6 306.5 35 307.7C35.5 308.9 35.7001 310.4 35.7001 312.2C35.7001 312.6 35.6001 312.9 35.4001 313.1C35.2001 313.3 34.9001 313.4 34.7001 313.4H32.1C31.7 313.4 31.5 313.3 31.4 313C31.4 312.8 31.3 312.5 31.3 312.2C31.3 311.4 31.3001 310.6 31.2001 310C31.1 309.4 31 308.9 30.7001 308.4C30.4001 307.9 30 307.5 29.4 307C28.8 306.6 28 306.1 26.9 305.6L23 303.8L1.70005 313.2C1.40005 313.3 1.10005 313.3 0.800049 313.3C0.500049 313.2 0.300049 312.9 0.300049 312.5V310.5C0.300049 310 0.300049 309.6 0.400049 309.4C0.500049 309.1 0.700049 308.9 1.00005 308.8L17.9 301.6L1.20005 295C0.700049 294.8 0.400049 294.6 0.400049 294.3C0.300049 294 0.300049 293.7 0.300049 293.5V291.4C0.300049 291 0.400049 290.8 0.500049 290.6C0.600049 290.4 0.800049 290.4 0.900049 290.3C1.10005 290.3 1.30005 290.3 1.50005 290.4C1.70005 290.5 1.90005 290.5 2.10005 290.6L26.7001 300.9Z" fill="#ED057D"/>
<path d="M4.8 284.1C4.6 284.3 4.3 284.3 4.1 284.3C3.9 284.3 3.7 284.2 3.5 284C3.3 283.9 3.2 283.7 3 283.5C2.9 283.3 2.7 283.1 2.6 282.9C2.1 282.1 1.6 281.2 1.3 280.3C1 279.4 0.7 278.5 0.5 277.6C0.3 276.7 0.2 275.8 0.1 275C0 274.2 0 273.4 0 272.7C0 271 0.2 269.5 0.6 268.1C1 266.7 1.6 265.5 2.5 264.5C3.3 263.5 4.3 262.7 5.5 262.1C6.7 261.5 8.1 261.2 9.7 261.2C11.1 261.2 12.5 261.5 13.8 262.2C15.1 262.9 16.1 263.7 16.9 264.8C17.9 263.3 19.1 262.1 20.6 261.1C22.1 260.2 23.7 259.7 25.6 259.7C27.2 259.7 28.6 260.1 29.8 260.8C31.1 261.5 32.2 262.5 33.1 263.7C34 264.9 34.7 266.3 35.2 267.8C35.7 269.4 35.9 271 35.9 272.6C35.9 273.8 35.9 275 35.8 276C35.7 277 35.5 278 35.3 278.9C35.1 279.8 34.7 280.6 34.3 281.4C33.9 282.2 33.4 283 32.8 283.7C32.7 283.9 32.5 284.1 32.3 284.3C32.1 284.5 31.9 284.7 31.7 284.8C31.5 284.9 31.3 285 31.1 285C30.9 285 30.7 284.9 30.5 284.7L29 283.1C28.8 282.9 28.7 282.7 28.7 282.5C28.7 282.3 28.8 282.1 29 281.9C30.2 280.8 31.1 279.6 31.5 278.1C31.9 276.6 32.1 275 32.1 273.2V271.7C32.1 270.6 31.9 269.6 31.6 268.7C31.3 267.8 30.8 266.9 30.2 266.2C29.6 265.5 28.9 264.9 28.2 264.5C27.4 264.1 26.6 263.9 25.7 263.9C24.9 263.9 24.1 264.1 23.3 264.4C22.5 264.7 21.9 265.2 21.3 265.8C20.7 266.4 20.3 267 19.9 267.8C19.6 268.6 19.4 269.4 19.4 270.2V275.9C19.4 276.1 19.3 276.3 19.2 276.4C19.1 276.5 18.9 276.6 18.7 276.6H16.8C16.4 276.6 16.1 276.5 15.9 276.4C15.7 276.2 15.5 275.8 15.5 275V271C15.5 270.2 15.4 269.5 15.1 268.8C14.8 268.1 14.4 267.5 13.9 267C13.4 266.5 12.8 266.1 12.1 265.8C11.4 265.5 10.7 265.4 10 265.4C8.2 265.4 6.8 265.9 5.8 267C4.8 268 4.3 269.6 4.3 271.7V272.5C4.3 273 4.3 273.7 4.4 274.4C4.5 275.2 4.6 276 4.9 276.8C5.1 277.6 5.4 278.5 5.8 279.3C6.2 280.1 6.6 280.8 7.1 281.4C7.3 281.6 7.4 281.8 7.3 282.1C7.2 282.4 7.2 282.6 7 282.7L4.8 284.1Z" fill="#ED057D"/>
<path d="M4.09997 225.2C3.79997 225.2 3.49997 225 3.29997 224.8C3.09997 224.6 2.99997 224.3 3.09997 223.9L3.29997 222.1C3.29997 221.7 3.49997 221.5 3.69997 221.3C3.89997 221.1 4.19997 221 4.59997 221.1L37.5 224.7C38.3 224.8 38.6 225.2 38.5 226L38.3 227.8C38.2 228.6 37.8 228.9 37 228.9L21.5 227.2L19.2 248.3L34.7 250C35.5 250.1 35.8 250.5 35.7 251.3L35.5 253.2C35.4 254 35 254.3 34.2 254.3L1.29997 250.7C0.999973 250.7 0.699973 250.5 0.499973 250.3C0.299973 250.1 0.199973 249.8 0.299973 249.4L0.499973 247.5C0.499973 247.1 0.699973 246.9 0.899973 246.7C1.09997 246.5 1.39997 246.4 1.79997 246.5L15 248L17.3 226.9L4.09997 225.2Z" fill="#ED057D"/>
<path d="M38.1 195L33.6 211.6V211.7L39.9 216.6C40.2 216.9 40.3 217.2 40.2 217.7L39.6 219.9C39.5 220.3 39.3 220.5 39.1 220.7C38.9 220.8 38.4 220.7 37.9 220.2L9.8 198.3C9.5 198.1 9.3 197.8 9.2 197.6C9.1 197.4 9.1 197 9.2 196.6L9.5 195.6C9.6 195.2 9.8 194.9 10 194.8C10.2 194.6 10.5 194.5 10.9 194.5L46.1 190C46.8 189.9 47.3 190 47.4 190.2C47.5 190.4 47.6 190.7 47.5 191.1L46.9 193.3C46.8 193.8 46.5 194 46.1 194.1L38.1 195ZM30 208.9L33.6 195.6L15.7 197.8L30 208.9Z" fill="#ED057D"/>
<path d="M13.8001 158.7C13.0001 159.4 12.2001 159.9 11.3001 160.3C10.4001 160.7 9.5001 160.8 8.5001 160.9C7.5001 160.9 6.6001 160.7 5.8001 160.3C5.5001 160.2 5.2001 159.9 5.0001 159.6C4.8001 159.3 4.8001 159 5.0001 158.6L5.5001 157.5C5.7001 157.1 5.9001 156.9 6.3001 156.8C6.6001 156.8 7.0001 156.8 7.3001 156.9C7.7001 157.1 8.1001 157.2 8.6001 157.2C9.1001 157.2 9.6001 157.1 10.0001 157C10.5001 156.8 10.9001 156.5 11.3001 156.2C11.7001 155.8 12.1001 155.3 12.4001 154.8C12.7001 154.2 12.8001 153.6 12.8001 153C12.8001 152.4 12.7001 151.9 12.6001 151.4C12.4001 150.9 12.2001 150.5 11.8001 150.1C11.5001 149.7 11.1001 149.5 10.7001 149.3C10.4001 149.2 10.1001 148.9 9.9001 148.7C9.7001 148.4 9.7001 148.1 9.9001 147.7L10.4001 146.6C10.6001 146.2 10.8001 146 11.2001 146C11.6001 145.9 11.9001 146 12.2001 146.1C13.1001 146.5 13.8001 147 14.4001 147.8C15.0001 148.5 15.5001 149.3 15.8001 150.2C16.1001 151.1 16.3001 152.1 16.2001 153.1C16.2001 154.1 16.0001 155.2 15.5001 156.2C15.2001 157.2 14.6001 158 13.8001 158.7ZM49.4001 183.5C49.8001 183.7 50.0001 183.9 50.0001 184.1C50.1001 184.3 50.0001 184.6 50.0001 184.8L49.1001 186.7C48.8001 187.4 48.3001 187.6 47.7001 187.3L17.6001 173.7C17.3001 173.5 17.0001 173.3 16.9001 173C16.8001 172.7 16.8001 172.3 17.0001 171.9L17.6001 170.6C17.8001 170.2 18.0001 170 18.3001 169.8C18.6001 169.6 19.0001 169.7 19.3001 169.9L30.6001 175L27.1001 150.6C27.1001 150.3 27.0001 150.1 27.0001 149.8C27.0001 149.5 27.1001 149.3 27.2001 149L28.0001 147.1C28.1001 146.8 28.3001 146.6 28.6001 146.5C28.9001 146.4 29.2001 146.5 29.5001 146.6L59.6001 160.2C60.3001 160.5 60.5001 161 60.2001 161.7L59.4001 163.4C59.1001 164.1 58.6001 164.3 57.9001 164L31.7001 152.2L35.1001 177L49.4001 183.5Z" fill="#ED057D"/>
<path d="M101.6 100.8L80.1 79.7999C79.8 79.4999 79.7 79.2999 79.7 78.9999C79.7 78.6999 79.8 78.3999 80.1 78.1999L81.4001 76.8999C81.9001 76.3999 82.5 76.2999 83 76.8999L104.5 97.9999L107.2 95.1999C107.7 94.6999 108.2 94.6999 108.8 95.1999L116.2 102.4C116.7 102.9 116.7 103.4 116.2 103.9L114.9 105.3C114.4 105.8 113.9 105.8 113.3 105.3L108.1 100.2L87.6 121.2C87.3 121.5 87.1001 121.6 86.8001 121.6C86.6001 121.6 86.3 121.5 86 121.2L62.3 97.9999C61.8 97.4999 61.8 96.8999 62.3 96.2999L63.5 94.9999C63.8 94.6999 64.1001 94.5999 64.3001 94.5999C64.6001 94.5999 64.9 94.6999 65.1 94.9999L86.6 116L101.6 100.8Z" fill="#860064"/>
<path d="M112.5 52.0001C113.1 51.5001 113.7 51.6001 114.1 52.2001L115.2 53.7001C115.4 54.0001 115.5 54.3001 115.5 54.6001C115.5 54.9001 115.3 55.1001 115 55.4001L99.2 67.2001L108.8 79.9001L121.7 70.2001C122 70.0001 122.3 69.9001 122.5 69.9001C122.8 69.9001 123.1 70.1001 123.3 70.4001L124.4 71.9001C124.8 72.5001 124.8 73.0001 124.2 73.5001L111.3 83.2001L115.4 88.7001L131.8 76.4001C132.1 76.2001 132.4 76.1001 132.7 76.1001C133 76.1001 133.3 76.3001 133.5 76.6001L134.6 78.1001C135.1 78.7001 135 79.3001 134.3 79.7001L115.3 94.0001C115.1 94.2001 114.8 94.2001 114.6 94.1001C114.3 94.0001 114.1 93.8001 113.9 93.6001L94.1 67.3001C93.9 67.0001 93.8 66.7001 93.8 66.4001C93.9 66.1001 94 65.9001 94.3 65.7001L112.5 52.0001Z" fill="#860064"/>
<path d="M145 34.6C144.8 34.3 144.8 34 144.9 33.7C145 33.4 145.2 33.2 145.5 33L147.1 32.1C147.4 31.9 147.7 31.9 148 32C148.3 32.1 148.5 32.3 148.7 32.6L164.3 61.8C164.7 62.5 164.5 63 163.8 63.4L162.2 64.3C161.5 64.7 161 64.5 160.6 63.8L153.3 50.1L134.6 60.1L141.9 73.8C142.3 74.5 142.1 75 141.4 75.4L139.7 76.3C139 76.7 138.5 76.5 138.1 75.8L122.5 46.6C122.3 46.3 122.3 46 122.4 45.7C122.5 45.4 122.7 45.2 123 45L124.7 44.1C125 43.9 125.3 43.9 125.6 44C125.9 44.1 126.1 44.3 126.3 44.6L132.6 56.3L151.3 46.3L145 34.6Z" fill="#860064"/>
<path d="M181.7 47C181.6 48.3 181.5 49.6 181.3 50.8C181.1 52 180.8 53.2001 180.2 54.2001C179.7 55.3 178.9 56.2001 177.9 57C176.9 57.8 175.6 58.6001 173.9 59.2001C173.5 59.3 173.2 59.3 172.9 59.2001C172.6 59.1001 172.5 58.9 172.4 58.6L171.5 56.2001C171.4 55.8 171.4 55.6001 171.6 55.4001C171.8 55.3001 172 55.2 172.3 55.1C173.1 54.8 173.8 54.6 174.3 54.3C174.8 54 175.3 53.7001 175.7 53.3C176.1 52.9 176.4 52.3 176.6 51.6C176.8 50.9 177 49.9 177.1 48.8L177.5 44.5L161.5 27.6C161.3 27.3 161.2 27.1 161.1 26.8C161.1 26.5 161.3 26.3 161.7 26.1L163.6 25.4C164.1 25.2 164.4 25.1 164.7 25.1C165 25.1 165.2 25.2 165.5 25.5L178.1 39L178.7 21C178.7 20.5 178.9 20.2 179.1 20C179.3 19.9 179.6 19.7 179.9 19.6L181.8 18.9C182.1 18.8 182.4 18.8 182.6 18.8C182.8 18.9 182.9 19 183 19.1C183.1 19.2 183.1 19.4001 183.1 19.7001C183.1 19.9001 183.1 20.1 183.1 20.3L181.7 47Z" fill="#860064"/>
<path d="M240.8 15.8C240.2 15.3 239.5 14.9 238.7 14.5C237.9 14.1 237.1 13.8 236.2 13.6C235.3 13.4 234.4 13.2 233.4 13.1C232.5 13 231.5 13 230.6 13.1C228.6 13.3 226.8 13.9 225.2 14.8C223.6 15.7 222.2 16.9 221 18.4C219.9 19.8 219 21.5 218.4 23.3C217.8 25.1 217.7 27 217.9 29C218.1 31 218.7 32.8 219.6 34.4C220.5 36 221.7 37.4 223.2 38.6C224.7 39.8 226.2 40.6 228.1 41.2C230 41.8 231.8 41.9 233.8 41.7C235.7 41.5 237.6 40.9 239.3 40C241 39.1 242.4 37.9 243.6 36.6C243.9 36.3 244.2 36.1 244.4 36C244.7 35.9 245 36 245.3 36.2L246.5 37.2C246.9 37.5 247.1 37.8 247.1 38.2C247.1 38.6 246.9 38.9 246.4 39.3C245.6 40.1 244.7 40.8 243.8 41.6C242.9 42.3 241.9 43 240.9 43.5C239.9 44.1 238.8 44.5 237.7 44.9C236.6 45.3 235.5 45.6 234.3 45.7C231.8 46 229.4 45.7 227.1 45C224.8 44.3 222.7 43.2 220.9 41.7C219.1 40.2 217.6 38.4 216.4 36.3C215.2 34.2 214.5 31.9 214.2 29.4C213.9 26.9 214.1 24.4 214.9 22.1C215.6 19.8 216.7 17.7 218.2 15.9C219.7 14.1 221.5 12.6 223.6 11.4C225.7 10.2 228 9.5 230.5 9.2C231.7 9.1 232.9 9.1 234 9.2C235.2 9.3 236.3 9.6 237.4 9.9C238.5 10.2 239.6 10.6 240.6 11.1C241.6 11.6 242.6 12.1 243.4 12.7C243.8 13 244.1 13.3 244.2 13.6C244.3 13.9 244.2 14.2 244 14.6L243.4 15.6C243.3 15.8 243.2 15.9 243 16.1C242.9 16.3 242.7 16.4 242.5 16.4C242.3 16.5 242.1 16.5 241.8 16.4C241.5 16.2 241.2 16 240.8 15.8Z" fill="#ED057D"/>
<path d="M279.3 18.1001C279.3 19.5001 279 20.8001 278.3 22.1001C277.7 23.4001 276.8 24.5001 275.8 25.4001C277.4 26.3001 278.6 27.5001 279.6 29.1001C280.6 30.6001 281.1 32.3001 281.1 34.1001C281.1 35.3001 280.9 36.5001 280.5 37.6001C280.1 38.7001 279.5 39.7001 278.7 40.6001C277.9 41.5001 277 42.2001 276 42.8001C274.9 43.4001 273.8 43.7001 272.5 43.9001C271.9 44.0001 271.3 44.1001 270.7 44.1001C270.1 44.1001 269.4 44.2001 268.8 44.2001H253.6C252.9 44.2001 252.6 43.9001 252.6 43.2001V9.6001C252.6 8.9001 252.9 8.6001 253.6 8.6001H269.6C270.9 8.6001 272.2 8.9001 273.4 9.4001C274.6 9.9001 275.6 10.6001 276.5 11.5001C277.4 12.4001 278.1 13.4001 278.6 14.5001C279 15.6001 279.3 16.8001 279.3 18.1001ZM275.1 18.0001C275.1 17.2001 275 16.5001 274.7 15.7001C274.4 15.0001 274 14.4001 273.5 13.9001C273 13.4001 272.4 13.0001 271.6 12.7001C270.9 12.4001 270.1 12.2001 269.2 12.2001H256.7V24.0001H269.5C270.3 24.0001 271 23.8001 271.7 23.5001C272.4 23.2001 273 22.7001 273.5 22.2001C274 21.6001 274.4 21.0001 274.7 20.3001C274.9 19.5001 275.1 18.8001 275.1 18.0001ZM256.7 27.6001V40.1001H270.6C271.5 40.1001 272.4 39.9001 273.1 39.6001C273.8 39.3001 274.5 38.8001 275.1 38.2001C275.7 37.6001 276.1 37.0001 276.4 36.2001C276.7 35.4001 276.9 34.7001 276.9 33.8001C276.9 33.0001 276.7 32.2001 276.4 31.5001C276.1 30.7001 275.7 30.1001 275.2 29.5001C274.7 28.9001 274.1 28.4001 273.3 28.1001C272.6 27.8001 271.8 27.6001 271 27.6001H256.7Z" fill="#ED057D"/>
<path d="M285.5 26.2999C285.5 23.7999 285.9 21.3999 286.8 19.0999C287.7 16.7999 288.9 14.8999 290.5 13.1999C292.1 11.4999 294 10.1999 296.1 9.2999C298.3 8.2999 300.6 7.8999 303.2 7.8999C305.8 7.8999 308.1 8.3999 310.3 9.2999C312.5 10.1999 314.4 11.5999 316 13.1999C317.6 14.8999 318.8 16.7999 319.7 19.0999C320.6 21.3999 321 23.6999 321 26.2999C321 28.7999 320.6 31.1999 319.7 33.4999C318.8 35.6999 317.5 37.6999 315.9 39.3999C314.3 41.0999 312.4 42.3999 310.2 43.2999C308 44.2999 305.7 44.6999 303.1 44.6999C300.6 44.6999 298.2 44.1999 296.1 43.2999C293.9 42.2999 292 40.9999 290.4 39.3999C288.8 37.7999 287.6 35.7999 286.7 33.4999C286 31.1999 285.5 28.7999 285.5 26.2999ZM289.6 26.2999C289.6 28.2999 289.9 30.0999 290.6 31.8999C291.3 33.5999 292.2 35.1999 293.5 36.4999C294.7 37.7999 296.2 38.7999 297.9 39.5999C299.6 40.3999 301.4 40.6999 303.4 40.6999C305.4 40.6999 307.2 40.2999 308.9 39.5999C310.6 38.8999 312 37.7999 313.3 36.4999C314.5 35.1999 315.5 33.6999 316.2 31.8999C316.9 30.1999 317.2 28.2999 317.2 26.2999C317.2 24.2999 316.9 22.4999 316.2 20.6999C315.5 18.8999 314.5 17.3999 313.3 16.0999C312.1 14.7999 310.6 13.7999 308.9 12.9999C307.2 12.1999 305.4 11.8999 303.4 11.8999C301.4 11.8999 299.6 12.2999 297.9 12.9999C296.2 13.6999 294.8 14.7999 293.5 16.0999C292.3 17.3999 291.3 18.8999 290.6 20.6999C290 22.4999 289.6 24.2999 289.6 26.2999Z" fill="#ED057D"/>
<path d="M353.8 11.5C354.6 11.6 354.9 12 354.9 12.8L354.7 14.7C354.7 15.1 354.5 15.4 354.3 15.6C354.1 15.8 353.8 15.8 353.4 15.8L333.8 13.6L332 29.3L348.1 31.1C348.4 31.1 348.7 31.3 348.9 31.5C349.1 31.7 349.2 32 349.1 32.4L348.9 34.3C348.8 35 348.4 35.4 347.6 35.3L331.5 33.5L330.7 40.3L351.1 42.6C351.5 42.6 351.7 42.8 351.9 43C352.1 43.2 352.2 43.5 352.1 43.9L351.9 45.8C351.8 46.6 351.4 46.9 350.6 46.8L327 44.2C326.7 44.2 326.5 44 326.4 43.8C326.3 43.6 326.2 43.3 326.3 43L330 10C330 9.6 330.2 9.4 330.4 9.2C330.6 9 330.9 9 331.3 9L353.8 11.5Z" fill="#ED057D"/>
<path d="M360 47.7C359.9 48.1 359.7 48.3 359.5 48.4C359.3 48.5 359 48.5 358.8 48.5L356.8 47.9C356.1 47.7 355.8 47.3 356 46.6L364.7 14.7C364.8 14.3 365 14.1 365.3 13.9C365.6 13.7 365.9 13.7 366.4 13.8L367.8 14.2C368.2 14.3 368.5 14.5 368.7 14.8C368.9 15.1 368.9 15.4 368.8 15.8L365.5 27.7L389.1 20.5C389.3 20.4 389.6 20.4 389.9 20.3C390.2 20.3 390.4 20.3 390.7 20.3L392.7 20.8C393 20.9 393.2 21.1 393.4 21.3C393.5 21.6 393.5 21.9 393.4 22.2L384.7 54.1C384.5 54.8 384 55.1 383.3 54.9L381.5 54.4C380.8 54.2 380.5 53.7 380.7 53L388.3 25.3L364.3 32.5L360 47.7ZM378.9 8.70002C378.1 8.10002 377.4 7.30002 376.9 6.50002C376.4 5.70002 376.1 4.80002 375.9 3.90002C375.7 3.00002 375.8 2.00002 376 1.10002C376.1 0.800021 376.3 0.500022 376.5 0.300022C376.8 0.100022 377.1 2.14987e-05 377.5 0.100022L378.7 0.400021C379.1 0.500021 379.4 0.700022 379.5 1.00002C379.6 1.30002 379.6 1.60002 379.5 2.00002C379.4 2.40002 379.4 2.90002 379.4 3.30002C379.5 3.80002 379.6 4.20002 379.9 4.70002C380.2 5.20002 380.5 5.50002 380.9 5.90002C381.3 6.30002 381.9 6.50002 382.5 6.70002C383.1 6.90002 383.8 6.90002 384.3 6.90002C384.9 6.80002 385.4 6.70002 385.9 6.40002C386.4 6.10002 386.7 5.80002 387 5.40002C387.3 5.00002 387.5 4.60002 387.6 4.20002C387.7 3.90002 387.9 3.60002 388.1 3.40002C388.3 3.20002 388.7 3.10002 389.1 3.20002L390.3 3.50002C390.7 3.60002 390.9 3.80002 391 4.20002C391.1 4.50002 391.1 4.90002 391 5.20002C390.8 6.10002 390.3 6.90002 389.7 7.60002C389.1 8.30002 388.4 8.90002 387.5 9.40002C386.7 9.90002 385.7 10.1 384.7 10.3C383.7 10.4 382.6 10.4 381.5 10.1C380.7 9.80002 379.8 9.30002 378.9 8.70002Z" fill="#ED057D"/>
<path d="M413.6 59.5001C413.9 60.4001 414.2 61.2001 414.6 62.1001C415 62.9001 415.5 63.8001 416 64.5001C416.5 65.3001 417.2 66.0001 417.9 66.7001C418.6 67.4001 419.3 67.9001 420.2 68.4001C421.8 69.3001 423.4 69.8001 425 70.1001C426.7 70.3001 428.3 70.2001 429.9 69.9001C431.5 69.6001 433 68.9001 434.4 68.0001C435.8 67.1001 437 65.9001 438.1 64.5001L424.4 56.7001C423.7 56.3001 423.6 55.8001 424 55.1001L424.9 53.6001C425.3 53.0001 425.8 52.9001 426.4 53.2001L440.1 61.0001C440.8 59.4001 441.2 57.7001 441.3 56.0001C441.4 54.3001 441.2 52.7001 440.7 51.1001C440.2 49.5001 439.5 48.1001 438.4 46.8001C437.3 45.5001 436.1 44.3001 434.5 43.4001C432.8 42.4001 431.1 41.9001 429.3 41.8001C427.5 41.7001 425.7 41.8001 424 42.1001C423.4 42.2001 423 42.2001 422.8 41.9001C422.6 41.7001 422.4 41.3001 422.3 40.8001L422.1 39.6001C422 39.3001 422.1 39.1001 422.2 38.9001C422.3 38.7001 422.5 38.5001 422.6 38.4001C422.8 38.3001 423 38.2001 423.2 38.1001C423.4 38.0001 423.7 38.0001 423.9 38.0001C426 37.7001 428.2 37.6001 430.3 37.9001C432.4 38.1001 434.5 38.8001 436.5 40.0001C438.7 41.3001 440.5 42.9001 441.9 44.8001C443.3 46.7001 444.3 48.8001 444.8 51.0001C445.3 53.2001 445.4 55.5001 445.1 57.9001C444.8 60.3001 444 62.6001 442.7 64.8001C441.4 67.0001 439.8 68.9001 438 70.4001C436.1 71.9001 434.1 73.0001 431.9 73.7001C429.7 74.4001 427.4 74.6001 425 74.3001C422.6 74.1001 420.4 73.3001 418.1 72.0001C416 70.8001 414.2 69.2001 412.9 67.4001C411.6 65.6001 410.6 63.6001 409.9 61.4001C409.8 60.9001 409.7 60.5001 409.7 60.1001C409.7 59.7001 409.9 59.4001 410.4 59.2001L411.8 58.6001C412.2 58.4001 412.6 58.4001 412.9 58.7001C413.3 58.8001 413.5 59.1001 413.6 59.5001Z" fill="#860064"/>
<path d="M462.2 74.5999C461.6 74.7999 461 75.1 460.3 75.3C459.7 75.5 458.9 75.7999 457.8 76L458.7 97.5999C458.7 97.8999 458.6 98.2 458.3 98.3C458 98.4 457.8 98.2999 457.5 98.0999L455.2 96.3C454.9 96.1 454.8 95.7999 454.7 95.5999C454.6 95.2999 454.6 94.9 454.6 94.5L453.9 76.1999C452.9 76.0999 451.8 75.8999 450.8 75.5999C449.8 75.2999 448.8 74.9 448.1 74.4L440.9 83.5999C440.4 84.2999 439.8 84.4 439.1 83.8L437.9 82.9C437.2 82.3 437.1 81.7 437.6 81L457.8 55.2C458.1 54.9 458.3 54.7 458.7 54.7C459 54.7 459.4 54.8 459.7 55L460.9 55.9C461.2 56.2 461.4 56.4999 461.4 56.7999C461.4 57.0999 461.3 57.4999 461.1 57.7999L450.6 71.3C451 71.6 451.5 71.7999 452.1 72C452.6 72.2 453.2 72.3 453.8 72.4C454.4 72.5 455 72.5 455.6 72.5C456.2 72.5 456.8 72.2999 457.3 72.0999L467.8 68.4C468.1 68.3 468.6 68.1 469.3 67.9C470 67.7 470.8 67.5 471.8 67.5C472.8 67.5 473.8 67.6 475 68C476.2 68.4 477.5 69.0999 478.8 70.0999C479.1 70.2999 479.3 70.6 479.4 71C479.5 71.2999 479.4 71.7 479.1 72L478.2 73.1999C477.9 73.4999 477.7 73.6999 477.3 73.6999C477 73.6999 476.6 73.6 476.3 73.4L475.8 73C475.1 72.5 474.5 72.1 474 71.8C473.5 71.5 472.9 71.4 472.4 71.4C471.8 71.4 471.3 71.3999 470.6 71.5999C470 71.7999 469.3 72 468.4 72.3L462.2 74.5999Z" fill="#860064"/>
<path d="M473.6 88.7C475.5 87 477.5 85.6 479.8 84.8C482.1 83.9 484.3 83.5 486.6 83.5C488.9 83.5 491.1 84 493.3 84.9C495.5 85.8 497.5 87.2 499.2 89.1C501 91 502.2 93 503 95.3C503.8 97.5 504.1 99.8 504 102.1C503.9 104.4 503.3 106.7 502.3 108.8C501.3 111 499.8 113 498 114.7C496.1 116.4 494.1 117.8 491.9 118.6C489.7 119.5 487.4 119.9 485.1 119.9C482.8 119.9 480.5 119.4 478.3 118.5C476.1 117.6 474.1 116.2 472.4 114.3C470.7 112.5 469.4 110.4 468.6 108.2C467.8 106 467.5 103.7 467.6 101.4C467.7 99.1 468.3 96.8 469.3 94.7C470.3 92.4 471.7 90.4 473.6 88.7ZM476.4 91.6C475 92.9 473.9 94.5 473.1 96.2C472.3 97.9 471.8 99.6 471.7 101.4C471.6 103.2 471.8 105 472.4 106.7C473 108.4 474 110 475.3 111.5C476.6 112.9 478.2 114 479.9 114.7C481.6 115.4 483.3 115.8 485.1 115.8C486.9 115.8 488.7 115.5 490.4 114.8C492.1 114.1 493.7 113.1 495.2 111.8C496.7 110.5 497.7 108.9 498.5 107.2C499.3 105.5 499.8 103.7 499.9 102C500 100.2 499.8 98.4 499.2 96.7C498.6 95 497.6 93.4 496.3 91.9C494.9 90.4 493.4 89.4 491.7 88.7C490 88 488.3 87.6 486.5 87.6C484.7 87.6 482.9 88 481.2 88.7C479.4 89.3 477.8 90.3 476.4 91.6Z" fill="#860064"/>
<path d="M529.8 131.9C530.1 131.7 530.4 131.6 530.7 131.7C531 131.7 531.2 131.9 531.5 132.3L532.5 133.8C532.7 134.1 532.8 134.4 532.7 134.7C532.7 135 532.5 135.3 532.2 135.5L504.6 153.8C504 154.2 503.4 154.1 503 153.4L502 151.9C501.6 151.2 501.7 150.7 502.3 150.3L515.3 141.7L503.5 124L490.5 132.6C489.9 133 489.3 132.9 488.9 132.2L487.9 130.6C487.5 129.9 487.6 129.4 488.2 129L515.8 110.7C516.1 110.5 516.4 110.5 516.7 110.5C517 110.6 517.2 110.7 517.4 111L518.5 112.6C518.7 112.9 518.8 113.2 518.7 113.5C518.6 113.8 518.5 114 518.2 114.2L507.1 121.5L518.9 139.2L529.8 131.9Z" fill="#860064"/>
<path d="M522.8 152.4C525.1 151.4 527.5 150.8 529.9 150.7C532.3 150.6 534.6 151 536.8 151.7C539 152.4 540.9 153.7 542.7 155.3C544.5 156.9 545.8 158.9 546.9 161.2C547.9 163.5 548.5 165.9 548.5 168.3C548.5 170.7 548.1 172.9 547.2 175.1C546.3 177.2 545 179.2 543.3 180.9C541.6 182.6 539.6 184 537.3 185C535 186 532.6 186.6 530.2 186.7C527.8 186.8 525.5 186.4 523.3 185.6C521.1 184.8 519.2 183.6 517.4 182C515.6 180.4 514.2 178.4 513.2 176.1C512.2 173.8 511.7 171.5 511.7 169.1C511.7 166.7 512.1 164.5 513 162.3C513.9 160.2 515.2 158.2 516.8 156.5C518.5 154.8 520.5 153.4 522.8 152.4ZM524.5 156.1C522.7 156.9 521.1 158 519.8 159.3C518.5 160.6 517.5 162.1 516.8 163.8C516.1 165.5 515.7 167.2 515.7 169C515.7 170.8 516.1 172.7 516.9 174.5C517.7 176.3 518.8 177.8 520.1 179C521.5 180.2 523 181.1 524.7 181.7C526.4 182.3 528.2 182.6 530 182.5C531.9 182.4 533.7 182 535.5 181.2C537.3 180.4 538.9 179.3 540.2 178C541.5 176.7 542.5 175.2 543.2 173.5C543.9 171.8 544.3 170.1 544.3 168.3C544.3 166.5 543.9 164.6 543.1 162.8C542.3 161 541.2 159.5 539.8 158.2C538.4 157 536.9 156.1 535.2 155.5C533.5 154.9 531.7 154.7 529.8 154.7C528.1 154.9 526.3 155.3 524.5 156.1Z" fill="#860064"/>
<path d="M533.8 240.8C533.5 241 533.2 241.1 533 240.9C532.7 240.8 532.6 240.6 532.5 240.2L532 238.1C531.9 237.7 532 237.4 532.1 237.2C532.3 237 532.5 236.8 532.9 236.6L558.5 218.7L536.6 214.6C536.4 214.5 536.2 214.5 536 214.3C535.8 214.2 535.7 214 535.7 213.7L535.3 212.1C535.2 211.8 535.3 211.6 535.4 211.4C535.6 211.2 535.7 211 536 210.8L554 198.8L523.3 193.6C522.9 193.5 522.6 193.5 522.4 193.4C522.1 193.3 522 193.1 521.9 192.7L521.4 190.6C521.3 190.2 521.4 190 521.6 189.8C521.8 189.6 522.1 189.5 522.4 189.6L557.3 195.6C557.7 195.7 558.1 195.8 558.4 195.8C558.7 195.9 558.9 196.1 558.9 196.5L559.4 198.9C559.5 199.4 559.5 199.7 559.4 199.9C559.3 200.1 559.1 200.3 558.9 200.5L542.4 211.5L562.2 215.4C562.5 215.5 562.8 215.6 563 215.8C563.2 216 563.3 216.3 563.4 216.7L563.9 219C564 219.4 563.9 219.7 563.8 219.9C563.6 220.1 563.4 220.3 563.2 220.5L533.8 240.8Z" fill="#860064"/>
<path d="M533 247.7C532.6 247.7 532.3 247.6 532.2 247.4C532 247.2 532 247 532 246.8V244.7C532 244 532.3 243.6 533 243.6L566 243C566.4 243 566.7 243.1 567 243.3C567.3 243.5 567.4 243.9 567.4 244.3V245.8C567.4 246.2 567.3 246.5 567.1 246.8C566.9 247.1 566.5 247.2 566.1 247.2L553.7 247.4L567.3 268C567.4 268.2 567.6 268.4 567.7 268.7C567.8 268.9 567.9 269.2 567.9 269.5V271.6C567.9 271.9 567.8 272.2 567.6 272.4C567.4 272.6 567.1 272.7 566.8 272.7L533.8 273.3C533 273.3 532.6 272.9 532.6 272.2V270.3C532.6 269.5 533 269.1 533.7 269.1L562.5 268.5L548.8 247.6L533 247.7Z" fill="#860064"/>
<path d="M533.2 289.4C532.8 289.4 532.5 289.3 532.4 289.1C532.2 288.9 532.2 288.7 532.2 288.5V286.4C532.2 285.7 532.5 285.3 533.2 285.3H566.2C566.6 285.3 566.9 285.4 567.2 285.6C567.5 285.8 567.6 286.2 567.6 286.6V288.1C567.6 288.5 567.5 288.8 567.2 289.1C567 289.4 566.6 289.5 566.2 289.5H553.8L567 310.3C567.1 310.5 567.3 310.7 567.4 311C567.5 311.2 567.6 311.5 567.6 311.8V313.9C567.6 314.2 567.5 314.5 567.3 314.7C567.1 314.9 566.8 315 566.5 315H533.5C532.7 315 532.3 314.6 532.3 313.8V311.9C532.3 311.1 532.7 310.7 533.5 310.7H562.3L549 289.5H533.2V289.4Z" fill="#860064"/>
</g>
<defs>
<clipPath id="clip0">
<rect width="567.8" height="314.8" fill="white"/>
</clipPath>
</defs>
</svg>
