<svg width="251" height="365" viewBox="0 0 251 365" fill="none" xmlns="http://www.w3.org/2000/svg">
<g clip-path="url(#clip0)">
<path d="M202.7 359.6C216.8 359.4 226.1 274.8 219.4 243.7C214.6 221.3 197 216.1 187.6 215L181.1 214.7L180.7 201.8L153.3 205.2L151.2 220L125.1 249.7C121.6 257 115.9 267.1 115.9 276.6C115.9 294.2 122 362.1 122 362.1L202.7 359.6Z" fill="white"/>
<path d="M115.7 289.5C115.7 289.5 89.4999 331.2 85.1999 335.5C80.8999 339.8 73.4999 341.1 67.8999 330.5C62.2999 319.9 25.8999 261.8 25.8999 261.8L44.7999 255.3C44.7999 255.3 66.4999 286.3 80.5999 309.4L81.1999 307.7C90.0999 294.5 111.5 251.9 121.8 235.8C134.4 216.1 150.5 215.5 150.5 215.5L115.7 289.5Z" fill="white"/>
<path d="M41.5 259.3C41.5 259.3 74.3 309.7 75.9 311.8C79.9 316.6 82.2 316.5 85.2 313.3C88.2 310.1 127.6 237 127.6 237L142.9 230.7C142.9 230.7 147.3 254.9 157.5 254.9C167.7 254.9 190.9 226.8 190.9 226.8C190.9 226.8 201 230.1 201.5 260.7C202 291.2 197.5 322.5 197.5 322.5L171.7 268.6L153.6 278C153.6 278 166.8 316.7 176.7 333.6C186.6 350.5 189.9 356.9 198.6 361.2L127.6 362.4C127.6 362.4 121.7 285.3 121.7 278.1C121.7 270.9 129.9 253.7 131.9 250.2C133.9 246.7 126.3 248.2 120.9 256.9C115.4 265.6 115.4 276.8 115.4 279.7C115.4 282.7 117.1 291.4 117.1 291.4C117.1 291.4 89.8 330.9 87.1 333.4C84.4 335.9 76.7 346.3 66.5 328.4C56.3 310.7 26 263 26 263L41.5 259.3Z" fill="#ED057D"/>
<path d="M191.1 226.4C191.1 226.4 205.1 226 211.5 242.4C218 258.8 215 308.9 211.3 328.5C207.7 348 202 361.3 195.9 358.8C189.8 356.3 169.2 328.8 153.5 277.5L167.6 271C167.6 271 179.2 298.5 185 310.4C190.8 322.3 199.1 337.1 201.2 336.6C203.4 336.1 204 332.3 203.2 330.6C202.4 328.9 197.6 319.3 197.6 319.3L191.1 226.4Z" fill="#ED057D"/>
<path d="M182.3 233.4C182.3 233.4 162.1 256.4 153.1 256.2C144.1 256 141.1 233.6 141.1 233.6C141.1 233.6 148.6 236.8 160.2 236C171.7 235.2 182.3 233.4 182.3 233.4Z" fill="#FFFFCA"/>
<path d="M16.6001 188.4C14.6001 188.4 13.4001 190 14.1001 191.9L40.0001 270.5C40.6001 272.4 42.8001 274 44.8001 274L85.6001 274.5C87.6001 274.5 88.8001 273 88.2001 271L64.0001 192C63.4001 190.1 61.3001 188.5 59.2001 188.5L16.6001 188.4Z" fill="white"/>
<path d="M21 193.9C19.1 193.9 18.1 195.3 18.7 197.1L41 269.6C41.6 271.4 43.6 272.8 45.4 272.9L79.8 273.4C81.7 273.4 82.7 272 82.2 270.2L59.6 197.9C59.1 196.1 57.1 194.7 55.2 194.6L21 193.9Z" fill="#ED057D"/>
<path d="M205.6 46.8001C205.6 46.8001 191.2 26.9001 141.6 33.5001C100.4 38.9001 62.0999 83.1001 77.9999 133.1L79.3999 135.7C78.3999 140.5 77.7999 146.5 77.6999 152.3C76.9999 187.4 102 205.6 148.5 205.5C189.5 205.4 218.3 192.9 219.8 155C223.8 156.9 231.1 155.1 234 152.1C236.4 149.7 239.4 140.7 237.2 135.1L237.8 133.3C237.8 133.3 247.3 109.9 239.6 84.8001C232.1 60.3001 221.3 54.6001 210.1 49.0001L205.6 46.8001Z" fill="white"/>
<path d="M181.8 35.8C181.8 35.8 174.2 18.5 192.4 6.80004C206.3 -2.09996 227.4 4.60004 237.8 14.9C248.3 25.3 255.1 53.8 224.7 60.4L181.8 35.8Z" fill="white"/>
<path d="M200.5 79.1001C200.5 79.1001 184.1 100.8 140.9 105.4C103.4 109.4 92 105.7 92 105.7C92 105.7 83.7 117.7 80.8 127.8C80.8 127.8 76.6 99.5001 92.8 75.2001C105.7 55.9001 125.3 41.1001 157.1 41.1001C188.8 41.1001 205.5 55.7001 205.5 55.7001C205.5 55.7001 222.4 62.5001 231.8 84.6001C241.2 106.7 233.4 131.4 233.4 131.4C233.4 131.4 222.7 127 219.4 143.1C219.4 143.1 216.2 133.5 216.2 126.5C216.2 126.5 206.8 117.7 203.4 105.7C199.7 93.7001 200.5 79.1001 200.5 79.1001Z" fill="#EF6DA8"/>
<path d="M188.2 32.0001C188.2 32.0001 186 28.4001 189.1 19.2001C192 10.2001 215.8 5.70006 231.1 18.4001C246.4 31.1001 245.7 52.1001 226.6 55.1001C226.6 55.1001 225.6 43.3001 212.2 36.4001C198.8 29.4001 188.2 32.0001 188.2 32.0001Z" fill="#EF6DA8"/>
<path d="M192.2 39.5001C192.2 39.5001 205.2 33.8001 214.2 38.5001C223.2 43.2001 228.2 55.1001 225.5 60.3001C225.5 60.3001 209.4 48.0001 208.7 47.7001C208.1 47.5001 201.6 43.2001 192.2 39.5001Z" fill="#ED057D"/>
<path d="M171.2 268.4C171.2 268.4 159.6 237.9 158 233C156.4 228 151.5 217 136.1 218.4C120.7 219.8 93.5 228.9 95.9 232.4C98.3 236 110.7 234.5 117.4 233.4C124.1 232.3 126.7 231.7 126.8 234.8C126.9 237.9 123.2 239.9 124.6 244C125.9 247.9 128.8 247.2 130.4 249.5C132.9 253.1 132.3 254.2 133.7 257.4C133.7 257.4 135.4 261.8 138.9 262.7C142.4 263.6 146.4 261.5 147.7 263C150.5 266.5 153.2 273.4 154 275.9L171.2 268.4Z" fill="white"/>
<path d="M165.6 261.3C163.1 254.6 160.5 247.9 158.1 241.2C157.5 239.5 157 237.8 156.5 236.1L155.7 233.5C155.5 232.7 155.2 231.9 155 231.2C154.3 229.5 153.4 227.9 152.3 226.4C151.2 225 149.9 223.7 148.4 222.8C145.6 220.9 142.1 220.1 138.5 220.1C138.1 220.1 137.6 220.1 137.2 220.1C136.8 220.1 136.3 220.1 135.8 220.2C134.9 220.3 133.9 220.4 133 220.5C131.1 220.8 129.3 221.1 127.4 221.5C122.9 222.4 118.5 223.9 114.1 225.3C112 226 110 226.6 107.9 227.4C105.9 228.1 103.8 228.9 102 229.8C101.4 230.1 100.9 230.4 100.3 230.7L100.2 230.8H100.1L100 230.9C99.9 230.9 99.9 231 99.8 231C99.7 231.1 99.6 231.2 99.5 231.3C99.5 231.4 99.4 231.4 99.5 231.5C99.5 231.6 99.6 231.6 99.7 231.7C99.8 231.8 100 231.9 100.2 231.9C100.3 231.9 100.4 231.9 100.4 231.9H100.5H100.6H100.8C102.2 232.1 103.7 232 105.3 232C106.8 231.9 108.4 231.8 110 231.6C111.6 231.4 113.1 231.2 114.7 231L117.1 230.7C117.9 230.6 118.7 230.5 119.5 230.4C120.6 230.3 121.7 230.1 122.9 230C123.1 230 123.2 230 123.4 230H123.7H124.1C124.3 230 124.6 230 124.8 230C125 230 125.3 230 125.5 230.1C126.5 230.2 127.3 230.6 128 231.3C129.4 232.6 129.7 234.8 129.2 236.7L129.1 237.1L129 237.3V237.4L128.8 237.9C128.7 238.1 128.7 238.2 128.6 238.4C128.5 238.6 128.5 238.7 128.4 238.8L127.7 240.2C127.3 240.9 127.2 241.5 127.1 241.9C127.1 242 127.1 242.1 127.1 242.3C127.1 242.4 127.1 242.5 127.2 242.7C127.3 243 127.3 243.2 127.5 243.5C127.6 243.8 127.8 244 127.9 244.2C128 244.4 128.2 244.5 128.4 244.7C128.6 244.8 128.8 245 129.2 245.2C129.6 245.4 130 245.6 130.6 245.9C131.2 246.2 131.8 246.7 132.3 247.3C132.4 247.4 132.6 247.6 132.7 247.8L132.9 248L133 248.2L133.4 248.9C133.5 249.1 133.7 249.3 133.8 249.6L134.2 250.3L134.4 250.7C134.5 250.8 134.5 251 134.6 251.1L134.9 251.9L135.2 252.7L135.3 252.9L135.4 253.1L135.5 253.5L135.7 254.2C135.8 254.4 135.8 254.6 135.9 254.8L136.1 255.4C136.2 255.6 136.2 255.8 136.3 256L136.6 256.7L136.7 256.9L136.8 257.1C137.3 258 137.9 258.9 138.6 259.4C138.9 259.7 139.2 259.9 139.5 260C139.6 260 139.7 260 139.7 260.1C139.8 260.1 139.8 260.2 139.9 260.2C140.1 260.2 140.3 260.3 140.5 260.3C141.4 260.4 142.5 260.2 143.9 260C144.2 259.9 144.6 259.9 145 259.9H145.3H145.5H145.7C146 259.9 146.4 259.9 146.7 259.9C147.4 259.9 148 260.1 148.6 260.4C148.9 260.5 149.2 260.7 149.4 260.9C149.7 261.1 149.9 261.3 150.1 261.6L151 262.9C151.1 263.1 151.2 263.2 151.3 263.4L151.6 263.9C152 264.6 152.4 265.2 152.7 265.9C153 266.5 153.3 267.2 153.6 267.8C154.2 269 154.6 270.1 155.1 271.3L155.6 272.5C155.6 272.5 155.6 272.5 155.7 272.5H155.8C156.1 272.4 156.5 272.2 156.8 272.1C158.2 271.6 159.6 271.2 161 271C161.4 270.9 161.9 270.7 162.3 270.6C165 269.4 167.7 269.6 170.3 269.3C170.7 269.3 171.1 269.6 171.5 269.7C171.1 270 170.8 270.3 170.4 270.5C168.5 271.4 166.7 272.4 164.8 273.3C162.4 274.4 159.9 275.4 157.4 276.5C156 277.1 154.5 277.8 153.1 278.4C152.8 277.6 152.5 276.7 152.2 275.9L151.7 274.7L151.3 273.7C151.1 273.2 150.9 272.6 150.7 272.1C150.5 271.6 150.3 271 150 270.5C149.8 270 149.5 269.5 149.3 268.9L148.5 267.4C148.2 266.9 147.9 266.4 147.6 266C147.5 265.8 147.3 265.5 147.1 265.3L146.7 264.8C146.6 264.6 146.4 264.5 146.2 264.4C146 264.3 145.8 264.3 145.6 264.4H145.2C145 264.4 144.9 264.5 144.7 264.5C144.3 264.6 144 264.6 143.6 264.7C142.5 264.9 141.4 265.1 140.1 265.1C139.5 265.1 138.8 265 138.2 264.8C137.9 264.7 137.5 264.6 137.2 264.4L136.7 264.2L136.3 263.9C135.2 263.2 134.3 262.2 133.6 261.2C133.3 260.7 132.9 260.2 132.7 259.6C132.6 259.3 132.4 259.1 132.3 258.8L132.2 258.6L132.1 258.5L131.9 258.1C131.8 257.8 131.7 257.5 131.6 257.2L131.3 256.3L130.8 254.6L130.6 253.9L130.3 253.2C130.2 253 130.1 252.7 129.9 252.5L129.7 252.2C129.6 252.1 129.6 252 129.5 251.9L129.1 251.2L129 251L128.9 250.9C128.8 250.8 128.8 250.8 128.7 250.7C128.5 250.4 128.1 250.2 127.6 250C127.1 249.8 126.6 249.5 126 249.1C125.4 248.7 124.8 248.2 124.3 247.7C124.2 247.5 124 247.4 123.9 247.2C123.8 247 123.7 246.9 123.6 246.7C123.4 246.4 123.2 246 123.1 245.7C123 245.5 123 245.4 122.9 245.2L122.7 244.7C122.6 244.3 122.5 243.9 122.5 243.5C122.4 242.7 122.4 241.9 122.6 241.1C122.8 240.3 123 239.6 123.3 239L124.1 237.3C124.2 237.1 124.3 236.8 124.4 236.6L124.5 236.4V236.3C124.5 236.2 124.5 236.2 124.5 236.1C124.5 235.9 124.5 235.7 124.4 235.5C124.3 235.3 124.2 235.2 124 235.2C123.9 235.2 123.7 235.2 123.6 235.2H123.5H123.2C123 235.2 122.8 235.2 122.5 235.3C121.6 235.4 120.7 235.5 119.7 235.7C117.8 236 115.8 236.3 113.8 236.5C111.2 236.8 108.6 237.1 106 237.3C104.7 237.4 103.3 237.4 102 237.4C101.3 237.4 100.6 237.4 99.9 237.3H99.6H99.4C99.3 237.3 99.3 237.3 99.2 237.3L98.3 237.2C98 237.2 97.7 237.1 97.5 237L97.1 236.9L97 236C95.7 235.6 94.6 234.8 93.9 233.9C93.8 233.7 93.7 233.6 93.6 233.4C93.5 233.2 93.4 233 93.4 232.8C93.3 232.4 93.2 232 93.3 231.6C93.4 230.8 93.7 230.1 94.3 229.4C94.8 228.7 95.6 228.1 96.5 227.5C96.7 227.4 96.9 227.2 97.2 227.1L97.9 226.7C98 226.6 98.1 226.6 98.2 226.5L98.4 226.4L98.8 226.2C100.6 225.3 102.3 224.6 104.1 224C105.9 223.4 107.6 222.8 109.4 222.2C112.8 221 116.1 219.6 119.5 218.6C123 217.6 126.6 216.8 130.2 216.2C132 215.9 133.8 215.6 135.7 215.5C137.6 215.3 139.6 215.3 141.6 215.4C143.6 215.6 145.6 216 147.5 216.7C148.5 217 149.4 217.5 150.3 218C151.2 218.5 152.1 219.1 152.9 219.7C154.7 221.1 156.2 222.9 157.4 224.8C158.6 226.7 159.5 228.7 160.2 230.7C160.3 231 160.4 231.3 160.5 231.6L160.6 232.1L160.7 232.5L161.3 234.2L162.4 237.5C163.1 239.7 164 241.9 164.8 244.2C166.2 248.2 167.7 252.2 169.2 256.3C170 258.5 170.9 260.8 171.8 263C172.6 264.8 172.8 266.5 172 267.9C171.9 268.1 171.8 268.3 171.7 268.3C170.8 268.2 169.8 268.3 169 267.9C168.4 267.6 168 266.5 167.5 265.8C167.5 265.7 167.4 265.6 167.4 265.6L165.6 261.3Z" fill="#860064"/>
<path d="M127.1 143.9L118.2 154.9L128.2 161.6" stroke="#860064" stroke-width="4" stroke-miterlimit="10" stroke-linecap="round" stroke-linejoin="round"/>
<path d="M113.8 168.2C113.8 168.2 139.3 210.3 163.6 166" stroke="#860064" stroke-width="4" stroke-miterlimit="10" stroke-linecap="round" stroke-linejoin="round"/>
<path d="M109.4 149.4C112.437 149.4 114.9 145.953 114.9 141.7C114.9 137.447 112.437 134 109.4 134C106.362 134 103.9 137.447 103.9 141.7C103.9 145.953 106.362 149.4 109.4 149.4Z" fill="#860064"/>
<path d="M158.1 149.4C161.138 149.4 163.6 145.953 163.6 141.7C163.6 137.447 161.138 134 158.1 134C155.063 134 152.6 137.447 152.6 141.7C152.6 145.953 155.063 149.4 158.1 149.4Z" fill="#860064"/>
<path d="M87.8 101.3C87.8 101.3 168.6 124.5 210.7 61.4001" stroke="#860064" stroke-width="4" stroke-miterlimit="10" stroke-linecap="round" stroke-linejoin="round"/>
<path d="M87.8 84.0001C87.8 84.0001 157.4 96.2001 198.2 50.9001" stroke="#860064" stroke-width="4" stroke-miterlimit="10" stroke-linecap="round" stroke-linejoin="round"/>
<path d="M98.8999 68.0001C98.8999 68.0001 159.7 77.3001 180.2 43.9001" stroke="#860064" stroke-width="4" stroke-miterlimit="10" stroke-linecap="round" stroke-linejoin="round"/>
<path d="M79.5001 130.6C79.5001 130.6 47.7001 51.3002 148.7 32.6002C178.6 27.1002 263.8 59.2002 239.5 137.8" stroke="#860064" stroke-width="4" stroke-miterlimit="10" stroke-linecap="round" stroke-linejoin="round"/>
<path d="M108.8 54.8001C108.8 54.8001 159.1 51.8001 161.6 41.1001" stroke="#860064" stroke-width="4" stroke-miterlimit="10" stroke-linecap="round" stroke-linejoin="round"/>
<path d="M163.6 111.8C163.6 111.8 181.3 89.7001 185.7 114" stroke="#860064" stroke-width="4" stroke-miterlimit="10" stroke-linecap="round" stroke-linejoin="round"/>
<path d="M198.1 76.7002C198.1 76.7002 197.9 118.4 215.6 126.1C215.6 126.1 215.6 140.5 220 142.7C220 142.7 222.8 128.9 231.6 131.1C240.5 133.3 243.8 153.2 221.6 157.7" stroke="#860064" stroke-width="4" stroke-miterlimit="10" stroke-linecap="round" stroke-linejoin="round"/>
<path d="M96.1 105.1C96.1 105.1 30.3 208 153.4 205.3L150.9 217.5" stroke="#860064" stroke-width="4" stroke-miterlimit="10" stroke-linecap="round" stroke-linejoin="round"/>
<path d="M27.5 225.8L14.2 188.1H59.5999L87.8 273.6L43 274.5L39.5999 262.3" stroke="#860064" stroke-width="4" stroke-miterlimit="10" stroke-linecap="round" stroke-linejoin="round"/>
<path d="M195.7 28.7002C195.7 28.7002 183.2 11.9002 205.5 3.7002" stroke="#860064" stroke-width="4" stroke-miterlimit="10" stroke-linecap="round" stroke-linejoin="round"/>
<path d="M205.7 31.0002C205.7 31.0002 204.4 5.70019 221.7 6.20019" stroke="#860064" stroke-width="4" stroke-miterlimit="10" stroke-linecap="round" stroke-linejoin="round"/>
<path d="M223.5 47.9001C223.5 47.9001 246.6 45.3001 241.1 19.9001" stroke="#860064" stroke-width="4" stroke-miterlimit="10" stroke-linecap="round" stroke-linejoin="round"/>
<path d="M201.3 335.4L171.4 269L153.7 277.9C153.7 277.9 185.8 367.6 199.1 362C199.1 362 232.9 349.3 216.4 234.6C215.1 225.8 201.9 209.8 184.7 218.1L180.9 201.9C222.5 192.4 217.9 155 217.9 155" stroke="#860064" stroke-width="4" stroke-miterlimit="10" stroke-linecap="round" stroke-linejoin="round"/>
<path d="M197.9 256.8C197.9 256.8 205.6 327.3 197.9 328" stroke="#860064" stroke-width="4" stroke-miterlimit="10" stroke-linecap="round" stroke-linejoin="round"/>
<path d="M116 291.1C116 291.1 87.8001 342.6 78.5001 338.7C78.5001 338.7 44.0001 306.6 24.1001 261.2L37.4001 259C37.4001 259 71.1001 315.4 80.3001 314.3L122.7 234.6" stroke="#860064" stroke-width="4" stroke-miterlimit="10" stroke-linecap="round" stroke-linejoin="round"/>
<path d="M122.7 361.9C122.7 361.9 106.1 272.2 127.1 249" stroke="#860064" stroke-width="4" stroke-miterlimit="10" stroke-linecap="round" stroke-linejoin="round"/>
<path d="M226.7 60.8001C210.1 13.2001 185.7 36.6001 185.7 36.6001" stroke="#860064" stroke-width="4" stroke-miterlimit="10" stroke-linecap="round" stroke-linejoin="round"/>
<path d="M182.4 36.5001C182.4 36.5001 174.1 -16.0999 229.4 8.60011C242.3 14.4001 266.4 39.8001 228.3 65.3001" stroke="#860064" stroke-width="4" stroke-miterlimit="10" stroke-linecap="round" stroke-linejoin="round"/>
<path d="M192.4 225.8C192.4 225.8 178.6 247.4 165 250.4" stroke="#860064" stroke-width="4" stroke-miterlimit="10" stroke-linecap="round" stroke-linejoin="round"/>
<path d="M157.5 235.2C157.5 235.2 172.7 241.6 187.2 232.8" stroke="#860064" stroke-width="4" stroke-miterlimit="10" stroke-linecap="round" stroke-linejoin="round"/>
<path d="M26.9 257.9C40.6519 257.9 51.8 250.199 51.8 240.7C51.8 231.201 40.6519 223.5 26.9 223.5C13.1481 223.5 2 231.201 2 240.7C2 250.199 13.1481 257.9 26.9 257.9Z" fill="white"/>
<path d="M26.9 257.9C40.6519 257.9 51.8 250.199 51.8 240.7C51.8 231.201 40.6519 223.5 26.9 223.5C13.1481 223.5 2 231.201 2 240.7C2 250.199 13.1481 257.9 26.9 257.9Z" stroke="#860064" stroke-width="4" stroke-miterlimit="10" stroke-linecap="round" stroke-linejoin="round"/>
<path d="M25.8 235.2C25.8 235.2 41.9001 237 44.9001 228.9" stroke="#860064" stroke-width="4" stroke-miterlimit="10" stroke-linecap="round" stroke-linejoin="round"/>
<path d="M30.2 244.1C30.2 244.1 46.2999 245.9 49.2999 237.8" stroke="#860064" stroke-width="4" stroke-miterlimit="10" stroke-linecap="round" stroke-linejoin="round"/>
<path d="M30.2 252.9C30.2 252.9 46.2999 254.7 49.2999 246.6" stroke="#860064" stroke-width="4" stroke-miterlimit="10" stroke-linecap="round" stroke-linejoin="round"/>
</g>
<defs>
<clipPath id="clip0">
<rect width="250.9" height="364.2" fill="white"/>
</clipPath>
</defs>
</svg>
