<svg width="130" height="373" viewBox="0 0 130 373" fill="none" xmlns="http://www.w3.org/2000/svg">
<path d="M63.7998 372.53C59.3098 355.75 58.6598 334.53 61.8598 309.33C63.9005 294.127 66.8661 279.062 70.7398 264.22C71.1198 262.73 71.4098 261.56 71.5798 260.84C85.9998 197.17 68.3398 128.74 62.5798 106.25L62.0598 104.25C56.3898 82.11 64.3498 55.33 64.6898 54.25L69.4798 55.6899C69.3998 55.9599 61.5898 82.2798 66.9098 103.05L67.4198 105.05C73.2998 127.83 91.1898 197.14 76.4898 262C76.3198 262.78 76.0298 263.92 75.6298 265.5C64.2598 310.43 61.9198 346.02 68.6298 371.29L63.7998 372.53Z" fill="#ED057D"/>
<path d="M66.5401 115.46C55.1401 114.13 44.8201 100.65 44.3901 100.08L48.3901 97.0801C48.4801 97.2001 57.8501 109.43 67.1301 110.51L66.5401 115.46Z" fill="#ED057D"/>
<path d="M73.6399 160.48C66.3199 149.82 59.0899 133.48 66.1999 116.28C68.8024 109.984 72.9254 104.432 78.1999 100.12L81.1999 104.12L79.6999 102.12L81.2099 104.12C76.6266 107.964 73.0471 112.865 70.7799 118.4C65.8699 130.51 68.2299 143.72 77.7799 157.66L73.6399 160.48Z" fill="#ED057D"/>
<path d="M77.2599 215.31C76.8799 179.02 58.5198 161.44 58.3398 161.31L61.7398 157.64C62.5598 158.4 81.8599 176.72 82.2599 215.29L77.2599 215.31Z" fill="#ED057D"/>
<path d="M81 233.25L76 233.07C76.7834 211.633 80.7466 190.432 87.76 170.16L92.44 171.94C85.6729 191.714 81.8192 212.367 81 233.25Z" fill="#ED057D"/>
<path d="M77.4602 257.39L72.4602 256.85C73.4102 248.06 74.4602 218.4 47.7402 206.09L49.8402 201.55C57.3702 205 81.5702 219.28 77.4602 257.39Z" fill="#ED057D"/>
<path d="M72.7201 57.3704L78.7201 49.4504C79.9401 47.8604 79.8601 47.2602 79.8601 47.2502C79.8601 47.2402 79.7001 46.9001 78.6401 46.4001C77.5801 45.9001 76.3801 46.5801 75.5901 47.4001L71.1401 52.1404L71.2701 45.6404C71.2701 44.1604 70.8101 44.06 70.5501 44.01C69.3701 43.76 67.5501 44.3504 67.1301 45.3904L64.6401 51.3904L62.4701 45.3103C62.0201 44.0503 61.2801 43.8803 61.0001 43.8103H60.9201C60.6359 44.2231 60.4509 44.696 60.3798 45.1921C60.3087 45.6883 60.3533 46.1941 60.5101 46.6702L62.2301 54.6702L56.3201 48.9402C52.4501 45.1802 47.7301 38.0801 47.3201 25.6101C46.9601 15.5101 48.0201 3.61014 59.5201 1.15014C60.5558 0.928211 61.627 0.930556 62.6618 1.15649C63.6966 1.38243 64.6712 1.82679 65.5201 2.4602C67.2282 3.81172 68.5522 5.58731 69.3601 7.61011C72.7401 2.14011 76.3101 1.28024 79.0001 1.75024C82.0001 2.28024 84.8401 4.60036 86.6901 8.12036C87.5804 9.84206 88.2009 11.6902 88.5301 13.6003C91.4801 11.1103 94.1601 10.7305 96.1401 10.9905C97.5601 11.1805 100.94 12.2302 101.76 17.7502C103.23 27.7002 95.4701 46.9705 81.7601 53.2205L72.7201 57.3704ZM78.0001 41.2703C79.3998 41.2937 80.7638 41.7152 81.9326 42.4856C83.1015 43.256 84.0267 44.3433 84.6001 45.6204C93.6001 38.3004 97.7401 24.6702 96.8301 18.5002C96.7301 17.7802 96.3801 16.0905 95.4901 15.9705C93.4001 15.6905 90.7801 17.7401 88.3201 21.6101L82.3201 31.0803L83.7501 19.9402C84.7501 12.5002 81.1601 7.21044 78.1901 6.70044C75.9601 6.32044 73.2401 9.84015 71.0501 15.9001L67.3201 26.2102L66.2101 15.3103C65.7901 11.2603 64.3801 7.82003 62.6101 6.53003C62.3252 6.30008 61.9912 6.13911 61.6339 6.05932C61.2766 5.97954 60.9057 5.98314 60.5501 6.07007C56.1701 7.00007 51.7701 10.0704 52.3101 25.4504C52.5801 32.7104 54.4301 37.7903 56.5901 41.2903C56.8363 40.93 57.1177 40.595 57.4301 40.2903C58.0426 39.6818 58.8006 39.2399 59.6321 39.0071C60.4635 38.7743 61.3407 38.7582 62.1801 38.9602C63.2721 39.2149 64.285 39.7336 65.1301 40.4705C67.0447 39.216 69.3701 38.7499 71.6201 39.1702C72.3957 39.3147 73.1314 39.6231 73.7782 40.075C74.4249 40.5268 74.9676 41.1117 75.3701 41.7903C76.2096 41.4643 77.0998 41.2883 78.0001 41.2703Z" fill="#ED057D"/>
<path d="M70.8701 57.8999C69.7669 57.903 68.6657 57.8059 67.5801 57.6099C61.1801 56.4399 56.7201 52.7299 55.6401 47.6899L60.5301 46.6899C60.8401 48.1299 62.2301 51.5899 68.5301 52.6899C71.6601 53.2599 76.2001 52.7898 78.7101 49.5698L78.8101 49.4302L82.7501 52.5098L82.6901 52.5898C81.2656 54.3298 79.4565 55.7152 77.4053 56.6367C75.3541 57.5582 73.1169 57.9905 70.8701 57.8999Z" fill="#ED057D"/>
<path d="M36.8002 105.6C30.9202 105.6 25.4002 102.94 19.9602 97.5002C11.9602 89.5002 7.47018 80.6702 8.28018 74.5002C8.40648 73.2286 8.83554 72.0055 9.53146 70.9338C10.2274 69.8621 11.1699 68.9727 12.2802 68.3401C14.8302 66.8701 18.1002 66.7504 21.4702 67.8904C21.0702 62.5304 23.7802 60.6702 25.7302 60.0202C30.3902 58.4802 34.8202 59.8904 38.3202 63.9104C39.1176 63.1161 40.0904 62.5199 41.1602 62.1701C42.2698 61.8333 43.4492 61.7995 44.5764 62.072C45.7035 62.3445 46.7371 62.9138 47.5702 63.7204C53.0202 68.4004 56.4502 81.7204 54.7602 91.7204L53.2202 100.78L49.9502 92.1902C49.8853 92.0783 49.7893 91.9875 49.674 91.9289C49.5586 91.8704 49.4288 91.8465 49.3002 91.8601C49.1702 91.8601 49.1002 91.8601 49.0302 92.1701L48.1602 96.01L45.4002 93.8503C44.7283 94.0077 44.1418 94.4155 43.7602 94.9905C43.6302 95.2305 43.5302 95.5303 43.8902 96.1203L47.4402 101.85L41.0102 99.8503C40.6 99.6437 40.1289 99.5928 39.684 99.7068C39.2391 99.8208 38.8505 100.092 38.5902 100.47C38.557 100.508 38.5269 100.548 38.5002 100.59C38.6479 100.703 38.8092 100.797 38.9802 100.87L47.9002 105.01L38.0902 105.64C37.6402 105.59 37.2202 105.6 36.8002 105.6ZM17.0902 72.1003C16.2736 72.0811 15.4664 72.2775 14.7502 72.6701C14.3092 72.9219 13.9393 73.2818 13.6752 73.7156C13.4111 74.1493 13.2614 74.6427 13.2402 75.1501C12.7402 78.9101 15.7202 86.1502 23.4902 93.9602C26.8202 97.2902 30.1102 99.3504 33.4302 100.18C33.5431 99.1197 33.9637 98.115 34.6402 97.2903C35.6254 95.989 37.0447 95.0844 38.6402 94.7405C38.7243 93.9723 38.9587 93.2277 39.3302 92.55C39.9358 91.5064 40.7796 90.6208 41.7929 89.9656C42.8061 89.3103 43.96 88.9041 45.1602 88.78C45.6083 88.2004 46.1742 87.7229 46.8206 87.3782C47.467 87.0334 48.1792 86.8292 48.9102 86.78C49.3192 86.7398 49.7312 86.7398 50.1402 86.78C50.3002 78.86 47.4502 70.1501 44.2702 67.4201C43.3402 66.6201 42.8702 66.7703 42.7002 66.8303C42.0902 67.0303 41.3402 67.4703 40.9502 69.1003L39.4802 75.3103L36.3402 69.7502C33.8002 65.2302 30.7402 63.5304 27.2602 64.6804C25.8902 65.1304 26.3202 68.5104 27.3402 71.6804L29.7002 78.9104L23.5102 74.4905C21.6584 73.0679 19.4215 72.235 17.0902 72.1003Z" fill="#ED057D"/>
<path d="M97.2201 117.43C92.6364 117.447 88.1446 116.145 84.2801 113.68L78.1901 109.81L85.3701 109.08C87.0301 108.91 87.8601 108.22 88.0001 107.8C88.1401 107.38 87.6701 106.92 87.4601 106.73C87.0315 106.297 86.4972 105.983 85.9101 105.82L81.6701 104.74L84.7601 101.64C85.4201 100.98 86.2201 99.8097 85.5701 97.3797C85.4924 96.9712 85.3246 96.5854 85.0789 96.2498C84.8333 95.9142 84.516 95.6374 84.1501 95.4398C83.8454 95.3017 83.5147 95.2303 83.1801 95.2303C82.8456 95.2303 82.5148 95.3017 82.2101 95.4398L79.7001 96.5999L78.8001 93.9798C78.6987 93.7033 78.568 93.4384 78.4101 93.1898C78.322 93.0218 78.1909 92.8802 78.0301 92.7796C77.9501 92.7796 77.5901 92.8997 77.1501 93.3797L72.6201 98.45L72.7901 91.6497C72.8616 87.8282 73.6943 84.0592 75.2396 80.5633C76.785 77.0674 79.0119 73.9149 81.7901 71.2899C87.9301 65.4599 97.1501 59.9 102.87 63.39C105.93 65.26 106.6 68.8599 106.27 72.5799C107.351 72.1756 108.514 72.0385 109.66 72.18C113.52 72.71 116.49 74.64 117.81 77.45C118.614 79.24 118.784 81.2505 118.29 83.1497C119.639 83.285 120.941 83.7132 122.107 84.4041C123.273 85.095 124.274 86.0319 125.04 87.1497C128.7 92.3497 126.85 100.15 120.32 106.98C115.894 111.601 110.288 114.924 104.11 116.59C101.859 117.162 99.5432 117.444 97.2201 117.43ZM91.4501 111.53C100.36 114.28 110.45 110.03 116.66 103.48C120.6 99.3498 123.44 93.5798 120.91 89.9798C120.47 89.3598 119.16 87.4898 114.86 88.2498L109.33 89.2498L112.33 84.4901C113.52 82.5801 113.86 80.8399 113.28 79.5999C112.7 78.3599 111.12 77.4497 108.97 77.1497C108.14 77.0297 106.74 77.7097 104.82 79.1497C104.375 79.6093 103.787 79.9032 103.152 79.9832C102.518 80.0632 101.875 79.9244 101.33 79.5897L99.8401 78.5897L100.34 76.8299C102 71.1499 101.39 68.39 100.26 67.7C99.1301 67.01 97.1401 67.34 94.6601 68.41C91.1692 70.0446 87.9807 72.2591 85.2301 74.9598C81.5924 78.3959 79.1411 82.8993 78.2301 87.8196H78.4501C79.2591 87.906 80.0385 88.1729 80.7307 88.6004C81.423 89.0279 82.0105 89.6052 82.4501 90.2899C83.7598 90.1585 85.0804 90.3869 86.2701 90.95C87.3 91.451 88.2047 92.1762 88.9176 93.0726C89.6306 93.9689 90.1337 95.0135 90.3901 96.1297C91.0151 98.2126 90.9236 100.445 90.1301 102.47C90.4073 102.68 90.6712 102.907 90.9201 103.15C91.5342 103.649 92.0381 104.271 92.4 104.975C92.7619 105.679 92.974 106.451 93.0229 107.241C93.0717 108.031 92.9563 108.823 92.6839 109.566C92.4115 110.31 91.988 110.988 91.4401 111.56L91.4501 111.53Z" fill="#ED057D"/>
<path d="M41.3401 106.23C39.7961 106.257 38.2645 105.95 36.8501 105.33L38.9601 100.79C40.4101 101.47 43.7801 101.63 47.1101 99.2998C48.3201 98.4398 49.6601 97.1299 49.9701 92.3799C49.972 92.2874 49.955 92.1955 49.9201 92.1099L54.6201 90.3901C54.8925 91.1282 55.0082 91.9149 54.9601 92.7002C54.6101 97.9902 53.1201 101.18 49.9601 103.39C47.4445 105.195 44.4361 106.186 41.3401 106.23Z" fill="#ED057D"/>
<path d="M36.85 105.33C36.0518 105.008 35.3382 104.507 34.7643 103.865C34.1904 103.224 33.7715 102.459 33.54 101.63C33.3734 100.871 33.3861 100.084 33.5771 99.3302C33.768 98.5769 34.132 97.8783 34.64 97.2902C35.5331 96.1182 36.7783 95.2634 38.193 94.8512C39.6077 94.4391 41.1172 94.4912 42.5 95.0002L40.99 99.7702C40.5798 99.5636 40.1087 99.5126 39.6638 99.6266C39.2189 99.7406 38.8303 100.012 38.57 100.39C38.5369 100.428 38.5068 100.468 38.48 100.51C38.6278 100.623 38.789 100.717 38.96 100.79L36.85 105.33Z" fill="#ED057D"/>
<path d="M39.62 98.7004C39.0237 97.7953 38.6837 96.7452 38.6361 95.6623C38.5886 94.5794 38.8353 93.5039 39.35 92.55C39.9892 91.4439 40.897 90.5171 41.9894 89.8547C43.0818 89.1922 44.3236 88.8155 45.6 88.76C46.5081 88.7334 47.3967 89.0273 48.11 89.59L45.04 93.5402C45.23 93.6837 45.4619 93.7607 45.7 93.76C45.2985 93.7904 44.9094 93.9128 44.5627 94.1174C44.2159 94.322 43.9208 94.6035 43.7 94.9401C43.57 95.1801 43.47 95.48 43.83 96.07L39.62 98.7004Z" fill="#ED057D"/>
<path d="M49.9299 92.14C49.8649 92.0282 49.769 91.9374 49.6537 91.8788C49.5383 91.8203 49.4085 91.7963 49.2799 91.81C49.1499 91.81 49.0799 91.81 49.0099 92.12L44.1299 91.0097C44.3599 89.8816 44.9543 88.8605 45.8216 88.1034C46.6889 87.3463 47.7811 86.8952 48.9299 86.8197C50.13 86.7292 51.3278 87.024 52.3492 87.6605C53.3706 88.2971 54.1625 89.2425 54.6099 90.3598L49.9299 92.14Z" fill="#ED057D"/>
<path d="M84.5699 114.12C83.7315 114.117 82.8949 114.04 82.0699 113.89C78.7999 113.31 74.5099 109.53 73.0099 106.68C69.2999 99.6802 70.5399 93.2698 73.4299 90.0498L77.1499 93.3799C75.9499 94.7199 74.4699 98.7399 77.4299 104.38C78.4299 106.25 81.6099 108.77 82.9499 109.01C83.7475 109.159 84.562 109.197 85.3699 109.12L85.8799 114.12C85.4436 114.145 85.0062 114.145 84.5699 114.12Z" fill="#ED057D"/>
<path d="M85.8799 114.05L85.3699 109.05C87.0299 108.88 87.8599 108.19 87.9999 107.77C88.1399 107.35 87.6699 106.89 87.4599 106.7C87.0313 106.267 86.497 105.953 85.9099 105.79L81.6699 104.71L84.7599 101.61C85.4199 100.95 86.2199 99.7801 85.5699 97.3501C85.4921 96.9416 85.3244 96.5553 85.0787 96.2197C84.8331 95.8842 84.5158 95.6078 84.1499 95.4102C83.8452 95.2721 83.5145 95.2007 83.1799 95.2007C82.8453 95.2007 82.5146 95.2721 82.2099 95.4102L79.6999 96.5698L78.7999 93.9502C78.6985 93.6737 78.5678 93.4088 78.4099 93.1602C78.3218 92.9922 78.1907 92.8506 78.0299 92.75C77.9499 92.75 77.5899 92.8701 77.1499 93.3501L73.4199 90.02C74.0189 89.279 74.7832 88.6884 75.6515 88.2959C76.5197 87.9034 77.4679 87.7198 78.4199 87.7598C79.2289 87.8462 80.0082 88.1131 80.7005 88.5405C81.3928 88.968 81.9803 89.5454 82.4199 90.23C83.7296 90.0987 85.0502 90.327 86.2399 90.8901C87.2698 91.3912 88.1744 92.1163 88.8874 93.0127C89.6003 93.9091 90.1035 94.9536 90.3599 96.0698C90.9849 98.1527 90.8934 100.385 90.0999 102.41C90.3771 102.62 90.641 102.847 90.8899 103.09C91.7703 103.853 92.4093 104.857 92.7289 105.977C93.0486 107.098 93.035 108.287 92.6899 109.4C91.8599 111.94 89.2299 113.71 85.8799 114.05Z" fill="#ED057D"/>
<path d="M42.71 169C39.9836 169.049 37.2716 168.595 34.71 167.66C21.5 162.48 11.1 151.84 11.53 143.94C11.71 140.52 13.9 137.99 17.53 137.01C18.7244 136.677 19.9601 136.515 21.2 136.53C18.67 130.85 18.47 125.38 20.67 120.53C21.2651 119.067 22.2178 117.777 23.4408 116.778C24.6637 115.779 26.1178 115.102 27.67 114.81C32.03 113.99 37.43 115.88 42.22 119.81C42.4652 119.59 42.7222 119.382 42.99 119.19C46.0799 116.92 50.0899 117.11 53.9899 119.71C61.9899 125.06 68.5699 139.27 65.5199 151.9L63.7399 159.24L60.79 152.29C60.12 150.71 59.35 150.17 59.15 150.16C58.9875 150.238 58.8467 150.355 58.7399 150.5C58.0632 151.346 57.7438 152.422 57.85 153.5L58.35 158.13L54.22 155.99L53.88 155.85C52.88 157.29 53.29 157.73 53.42 157.85L56.22 160.85L52.22 161.94C52.0538 161.992 51.9074 162.093 51.7999 162.23C52.0569 162.417 52.34 162.565 52.64 162.67L59.28 165.1L52.59 167.38C49.4037 168.442 46.0685 168.989 42.71 169ZM21.16 141.53C20.3735 141.528 19.5902 141.629 18.8299 141.83C16.8799 142.36 16.5699 143.33 16.5199 144.21C16.4199 146 17.6699 149.33 21.5199 153.27C25.812 157.528 30.9444 160.845 36.59 163.01C39.9536 164.079 43.5282 164.305 47 163.67C46.7903 162.987 46.7417 162.266 46.858 161.562C46.9742 160.857 47.2522 160.189 47.67 159.61C47.9032 159.269 48.1677 158.952 48.4599 158.66C48.286 157.677 48.3189 156.669 48.5565 155.7C48.7941 154.73 49.2313 153.821 49.84 153.03C50.2105 152.447 50.7027 151.952 51.2826 151.578C51.8626 151.203 52.5166 150.958 53.2 150.86C53.5264 149.521 54.1636 148.277 55.06 147.23C55.6435 146.486 56.4132 145.909 57.2911 145.558C58.1691 145.207 59.1242 145.094 60.06 145.23C60.5263 145.3 60.9807 145.435 61.41 145.63C61.5 136.25 56.19 127.12 51.34 123.88C49.2 122.46 47.43 122.24 46.07 123.23C45.5221 123.623 45.0595 124.123 44.7099 124.7L43.07 127.37L40.8299 125.18C36.8299 121.3 32 119.11 28.72 119.73C27.9539 119.874 27.2377 120.212 26.6405 120.713C26.0432 121.214 25.585 121.86 25.31 122.59C23.23 127.21 24.14 132.59 28.04 138.49L31.94 144.44L25.17 142.24C23.8796 141.792 22.5259 141.552 21.16 141.53Z" fill="#ED057D"/>
<path d="M28.0497 214.82C25.3787 214.807 22.7156 214.53 20.0997 213.99C11.9797 212.36 3.68973 207.94 3.53973 202.67C3.48973 201.02 4.17971 198.94 7.11971 197.27C3.67971 194.2 -0.0702869 189.81 1.11971 186.08C1.90971 183.57 4.41971 182.26 8.54971 182.18C10.663 182.18 12.7697 182.253 14.8697 182.4C14.3832 181.261 14.1676 180.026 14.2397 178.79C14.3032 178.027 14.5213 177.285 14.8806 176.61C15.2399 175.934 15.7329 175.339 16.3297 174.86C17.9797 173.51 20.3297 173.19 23.3297 173.91C31.3297 175.85 43.8897 185.38 47.9697 194.76L51.8197 203.61L44.1597 197.74L43.9297 197.58V197.66L45.0497 200.9L41.6297 200.99C41.2233 200.994 40.8195 201.055 40.4297 201.17C40.8775 201.811 41.3976 202.398 41.9797 202.92L45.0997 205.67L41.4997 207L47.1397 208.27L41.5097 211.47C37.3941 213.747 32.7524 214.902 28.0497 214.82ZM12.6397 200.46C9.26973 201.35 8.53973 202.37 8.53973 202.53C8.53973 203.92 13.5397 207.53 21.0897 209.08C26.6997 210.21 31.6397 210.08 35.8297 208.59C35.705 208.209 35.6409 207.811 35.6397 207.41C35.6336 206.342 35.9857 205.304 36.6397 204.46C36.4497 204.21 36.2697 203.95 36.0897 203.68C35.5713 203.011 35.2514 202.21 35.1666 201.368C35.0817 200.527 35.2352 199.678 35.6097 198.92C36.2862 197.74 37.3881 196.864 38.6897 196.47C38.6756 195.794 38.8223 195.123 39.1179 194.515C39.4134 193.906 39.8494 193.377 40.3897 192.97C40.5624 192.848 40.7427 192.738 40.9297 192.64C36.2197 186.21 27.6797 180.12 22.1297 178.77C20.4297 178.37 19.6697 178.6 19.5197 178.72C19.4357 178.774 19.3662 178.848 19.3173 178.935C19.2685 179.022 19.2419 179.12 19.2397 179.22C19.1697 180 19.7997 181.65 21.7797 183.96L26.3397 189.3L19.4297 188.05C15.8733 187.409 12.2628 187.118 8.64971 187.18C7.70706 187.121 6.76406 187.289 5.89971 187.67C5.95971 188.67 8.18971 192.09 13.5197 196.03L12.3697 197.59L13.0897 200.35L12.6797 200.46H12.6397Z" fill="#ED057D"/>
<path d="M97.7302 176.83H96.9502L88.6802 176.49L95.7502 172.2C96.0499 172.019 96.3283 171.804 96.5802 171.56C96.1377 171.556 95.6959 171.593 95.2602 171.67L88.1902 172.77L93.0302 167.5C93.1322 167.406 93.2107 167.289 93.2593 167.158C93.3079 167.028 93.3254 166.888 93.3102 166.75C93.3181 166.637 93.3181 166.523 93.3102 166.41C93.101 166.554 92.9155 166.729 92.7602 166.93L89.1402 171.29L88.3502 165.69C88.2293 165.239 87.9663 164.839 87.6002 164.55L87.4402 164.41C87.3667 164.5 87.303 164.597 87.2502 164.7L84.1302 170.7L82.5902 164.09C81.9489 161.159 81.6138 158.17 81.5902 155.17C81.4302 145.87 84.9402 135.55 90.4202 135.01C93.0602 134.75 95.1802 136.52 96.7202 140.28C97.311 139.511 97.9814 138.808 98.7202 138.18C103.22 134.34 106.41 135.72 107.57 136.49C110.18 138.22 111.15 141.98 110.4 146.9C111.569 146.849 112.739 146.995 113.86 147.33C118.04 148.54 120.1 152.58 119.24 157.88C118.276 162.752 115.831 167.209 112.24 170.64C108.406 174.532 103.193 176.756 97.7302 176.83ZM98.3102 166.7C99.087 166.814 99.8195 167.132 100.433 167.623C101.046 168.113 101.518 168.758 101.8 169.49C101.989 170.026 102.071 170.593 102.04 171.16C104.54 170.324 106.813 168.921 108.68 167.06C111.505 164.369 113.441 160.881 114.23 157.06C114.54 155.13 114.48 152.72 112.4 152.12C111.726 151.878 111.004 151.801 110.295 151.895C109.585 151.989 108.908 152.251 108.32 152.66L102.2 157.05L104.48 149.87C106.33 144.06 105.43 141.1 104.73 140.64C104.5 140.48 103.49 140.64 101.89 141.96C100.16 143.575 98.9404 145.661 98.3802 147.96L95.3802 158.2L93.4802 147.71C92.4202 141.84 91.0802 140.34 90.7202 140.03C89.3002 140.77 86.3502 146.95 86.4902 155.08C86.5108 156.507 86.6043 157.933 86.7702 159.35C87.5528 159.276 88.342 159.38 89.0782 159.656C89.8144 159.931 90.4785 160.37 91.0202 160.94C91.2402 161.16 91.4402 161.38 91.6302 161.6C92.6722 161.177 93.83 161.134 94.9002 161.48C95.8987 161.864 96.7562 162.544 97.3584 163.429C97.9605 164.313 98.2786 165.36 98.2702 166.43C98.2888 166.519 98.3021 166.61 98.3102 166.7Z" fill="#ED057D"/>
<path d="M54.6102 168C53.3759 168.004 52.1505 167.791 50.9902 167.37L52.7102 162.68C53.8037 163.096 55.003 163.142 56.1258 162.814C57.2485 162.485 58.2332 161.799 58.9302 160.86L59.0902 160.63C60.7702 158.17 62.0902 155.9 61.1502 153.04C61.0802 152.84 61.0002 152.65 60.9002 152.43L60.8402 152.27L65.4203 150.27L65.4803 150.41C65.6456 150.768 65.7892 151.135 65.9102 151.51C67.6802 156.91 64.7802 161.16 63.2202 163.44L63.0703 163.66C62.1279 165.026 60.8621 166.136 59.386 166.894C57.9098 167.651 56.269 168.031 54.6102 168Z" fill="#ED057D"/>
<path d="M50.9997 167.39C50.0836 167.118 49.2422 166.639 48.5401 165.991C47.838 165.342 47.2939 164.541 46.9497 163.65C46.7401 162.967 46.6915 162.246 46.8077 161.541C46.924 160.837 47.2019 160.169 47.6197 159.59C47.853 159.249 48.1174 158.932 48.4097 158.64C48.2358 157.657 48.2687 156.649 48.5063 155.68C48.7439 154.71 49.181 153.801 49.7897 153.01C50.1603 152.427 50.6525 151.932 51.2324 151.558C51.8123 151.183 52.4664 150.938 53.1497 150.84C53.4762 149.501 54.1134 148.257 55.0097 147.21C55.5933 146.466 56.3629 145.889 57.2409 145.538C58.1189 145.187 59.074 145.074 60.0097 145.21C62.2797 145.56 64.2197 147.38 65.4697 150.32L60.8697 152.32C60.1997 150.74 59.4297 150.2 59.2297 150.19C59.0673 150.268 58.9265 150.385 58.8197 150.53C58.143 151.375 57.8236 152.452 57.9297 153.53L58.4297 158.16L54.2997 156.02L53.9597 155.88C52.9597 157.32 53.3697 157.76 53.4997 157.88L56.2997 160.88L52.2997 161.97C52.1336 162.022 51.9872 162.123 51.8797 162.26C52.1367 162.447 52.4197 162.595 52.7197 162.7L50.9997 167.39Z" fill="#ED057D"/>
<path d="M92.3602 178.11C90.3647 178.164 88.4186 177.485 86.8903 176.2C81.5403 171.54 81.0003 165.77 82.7703 162.38L87.2103 164.69C86.4603 166.12 86.6403 169.35 90.2103 172.43C91.3903 173.43 93.5403 173.15 95.0303 172.56C95.2976 172.452 95.5552 172.322 95.8003 172.17L98.3703 176.46C97.8868 176.757 97.3782 177.012 96.8503 177.22C95.4231 177.797 93.8996 178.099 92.3602 178.11Z" fill="#ED057D"/>
<path d="M41.73 212C41.0575 212.006 40.3865 211.936 39.73 211.79L40.82 206.91C41.5751 207.04 42.3486 207.018 43.0954 206.847C43.8422 206.675 44.5474 206.357 45.17 205.91C45.5449 205.634 45.8503 205.274 46.0621 204.859C46.2738 204.444 46.3861 203.986 46.39 203.52C46.5007 202.495 46.3733 201.458 46.0177 200.49C45.6621 199.522 45.088 198.65 44.34 197.94L44.16 197.81L47.16 193.81L47.08 193.76C47.21 193.84 47.32 193.92 47.44 194.01H47.5C50.2 196.26 51.56 199.6 51.43 203.67C51.4075 204.871 51.1122 206.052 50.5665 207.123C50.0208 208.193 49.2389 209.126 48.28 209.85C46.3908 211.264 44.0898 212.02 41.73 212Z" fill="#ED057D"/>
<path d="M39.73 211.75C36.73 211.08 35.65 209.07 35.64 207.41C35.6338 206.343 35.9859 205.304 36.64 204.46C36.45 204.21 36.27 203.95 36.09 203.68C35.5716 203.012 35.2517 202.21 35.1668 201.369C35.0819 200.527 35.2355 199.678 35.61 198.92C36.2865 197.74 37.3883 196.864 38.69 196.47C38.6758 195.794 38.8226 195.124 39.1181 194.515C39.4137 193.907 39.8496 193.377 40.39 192.97C42.18 191.68 44.84 191.97 47.17 193.77L44.17 197.77L43.94 197.61V197.69L45.06 200.93L41.64 201.02C41.2336 201.024 40.8298 201.085 40.44 201.2C40.8878 201.841 41.4079 202.428 41.99 202.95L45.11 205.7L41.22 207.17C41.0456 207.229 40.8806 207.314 40.73 207.42L39.73 211.75Z" fill="#ED057D"/>
<path d="M23.86 358.92H22.49L18.96 358.82L20.22 355.53C21.5984 351.905 23.5058 348.505 25.88 345.44C29.6844 340.571 34.6381 336.723 40.2966 334.241C45.9551 331.759 52.1413 330.721 58.3 331.22L61.63 331.43L60.49 334.57C59.1674 338.258 57.2707 341.714 54.87 344.81C47.76 353.93 36.79 358.92 23.86 358.92ZM54.4 336.13C49.6449 336.242 44.9742 337.41 40.7251 339.547C36.476 341.685 32.7547 344.739 29.83 348.49C28.5309 350.162 27.3925 351.953 26.43 353.84C36.65 353.23 45.26 349.01 50.93 341.72C52.277 339.982 53.4399 338.108 54.4 336.13Z" fill="#ED057D"/>
<path d="M62.84 352.2L61.9401 349.8C61.011 347.393 60.602 344.817 60.74 342.24C61.21 334.24 67.21 327.49 77.22 323.8L79.5 322.96L80.4101 325.21C81.4149 327.626 81.8692 330.236 81.74 332.85C81.28 340.56 75.42 347.09 65.22 351.23L62.84 352.2ZM76.5101 329.5C69.9301 332.55 66.0401 337.21 65.7301 342.5C65.6728 343.473 65.7298 344.45 65.9 345.41C72.63 342.1 76.45 337.58 76.75 332.52C76.7947 331.507 76.7141 330.493 76.5101 329.5Z" fill="#ED057D"/>
<path d="M53.9998 300.46L51.0798 298.06C49.6609 296.897 48.4386 295.512 47.4598 293.96C44.4598 289.18 43.7698 282.96 45.4598 276.32L46.4598 272.46L49.4598 275.03C50.8412 276.209 52.0349 277.591 52.9998 279.13C54.5564 281.775 55.5389 284.718 55.8835 287.767C56.2281 290.817 55.927 293.905 54.9998 296.83L53.9998 300.46ZM49.5698 283.17C49.5175 285.586 50.024 287.982 51.0498 290.17C51.0926 287.754 50.583 285.359 49.5598 283.17H49.5698Z" fill="#ED057D"/>
<path d="M86.24 225.21H83.93L83.71 222.97C83.65 222.38 83.59 221.75 83.58 221.09C83.31 211.09 89.74 203.15 99.99 200.78L102.59 200.18L103.08 203.18C103.14 203.58 103.22 204.05 103.27 204.54C103.79 210.54 102.1 216.04 98.51 219.94C96.9473 221.628 95.0477 222.969 92.9341 223.877C90.8206 224.785 88.54 225.239 86.24 225.21ZM98.36 206.48C92.36 208.81 88.75 213.76 88.58 219.99C90.9861 219.553 93.182 218.337 94.83 216.53C97.2426 213.751 98.505 210.157 98.36 206.48Z" fill="#ED057D"/>
<path d="M65 330.15L61.38 330.06C48.8502 329.697 36.9042 324.683 27.8684 315.995C18.8327 307.306 13.3543 295.566 12.5 283.06L12.27 279.28L15.84 280.56C20.1667 282.111 24.3576 284.018 28.37 286.26C45.17 295.63 58.08 310.39 63.81 326.75L65 330.15ZM17.92 286.72C19.4883 296.537 24.2233 305.571 31.4035 312.446C38.5836 319.321 47.8149 323.659 57.69 324.8C51.83 311.02 40.43 298.7 25.93 290.62C23.3377 289.166 20.6632 287.864 17.92 286.72Z" fill="#ED057D"/>
<path d="M97.5203 284.5C92.56 284.491 87.6584 283.427 83.1403 281.38C82.5503 281.11 81.9703 280.83 81.4103 280.53L80.9803 280.31L76.9803 275.66V274.74C76.9234 270.513 77.7511 266.319 79.4103 262.43C82.8003 254.53 89.5503 248.43 98.4103 245.14C106.98 242.01 117.18 241.7 127.13 244.28L128.63 244.67L128.95 246.19C130.318 252.623 129.665 259.322 127.08 265.37C127 265.56 126.89 265.79 126.78 266.02L126.28 267.12L123.54 268.39L125.65 268.79L123.19 272.01C120.164 275.93 116.273 279.098 111.82 281.265C107.366 283.432 102.472 284.539 97.5203 284.5ZM84.1403 276.31L85.2003 276.83C96.1003 281.73 108.37 279.74 116.41 272.12L107.41 270.4L122.55 263.4C124.514 258.79 125.151 253.723 124.39 248.77C106.53 244.77 89.7303 251.18 84.0503 264.43C82.7844 267.406 82.1053 270.597 82.0503 273.83L84.1403 276.31Z" fill="#ED057D"/>
<path d="M101.59 233.94C100.335 233.981 99.0865 233.732 97.9434 233.212C96.8002 232.691 95.7928 231.914 94.9998 230.94L94.3398 230.06L94.5498 228.98C95.0798 226.11 97.6699 223.87 101.14 223.27C102.658 222.943 104.236 223.035 105.705 223.537C107.175 224.04 108.48 224.932 109.48 226.12L110.14 227.01L109.93 228.09C109.38 230.95 106.79 233.19 103.34 233.79C102.762 233.889 102.176 233.939 101.59 233.94ZM100.41 228.78C101.086 228.954 101.792 228.982 102.48 228.86C103.039 228.77 103.576 228.573 104.06 228.28C103.387 228.105 102.684 228.078 102 228.2C101.437 228.289 100.898 228.486 100.41 228.78Z" fill="#ED057D"/>
<path d="M67.4101 307.05L62.6201 305.61C66.6701 292.16 74.7601 273.72 90.2801 262.23C99.7401 255.23 107.49 254.13 107.82 254.09L108.47 259.09L108.15 256.61L108.48 259.09C108.41 259.09 101.48 260.09 92.9801 266.5C85.1101 272.36 74.2901 284.2 67.4101 307.05Z" fill="#ED057D"/>
</svg>
