<svg width="797" height="337" viewBox="0 0 797 337" fill="none" xmlns="http://www.w3.org/2000/svg">
<g clip-path="url(#clip0)">
<path d="M34.4001 276C28.1001 276 22.5001 275.1 17.6001 273.2C12.7001 271.3 8.60005 269.3 5.30005 267.2C4.10005 266.4 3.00005 265.4 2.00005 264C0.900051 262.7 0.400051 261.2 0.400051 259.5C0.400051 257.4 0.300051 254.2 0.100051 249.8C-0.0999489 245.5 0.500051 240.1 2.00005 233.6C2.30005 232.1 2.80005 230.9 3.60005 230C4.30005 229.1 5.20005 228.6 6.30005 228.6C7.50005 228.6 8.30005 229.2 8.70005 230.5C9.10005 231.8 9.30005 233.7 9.30005 236.2C9.30005 241.8 10.6001 247.1 13.2001 252.3C15.8001 257.5 19.4001 261.7 23.9001 264.9C28.4001 268.1 33.4001 269.7 39 269.7C46.3 269.7 53.1 267.8 59.1 264C65.2001 260.2 70.0001 255 73.6001 248.4C77.2001 241.8 79.0001 234.3 79.0001 225.9C79.0001 215.7 76.9001 208.1 72.8001 203.1C68.7001 198.1 63.3 195.6 56.7001 195.6C55.3 195.6 54.1 195.7 53 195.8C51.9001 196 50.7001 196.1 49.5 196.3C48.4001 196.5 47.3 196.6 46 196.9C44.7001 197.1 43.4 197.2 42.1 197.2C40.6 197.2 39.1 196.8 37.5 195.9C35.9001 195 35.1 193.7 35.1 192.1C35.1 190 36.3 188.5 38.8 187.5C41.3 186.5 43.6001 186 45.7001 186C47.3 186 48.6 186.1 49.5 186.2C50.4001 186.4 51.3 186.6 52.2001 186.9C53.2001 187.2 54.4 187.5 55.6 187.8C56.8 188.1 58.4 188.2 60.3 188.2C66.4 188.2 72.0001 186.7 77.1001 183.6C82.1001 180.5 86.1001 176.5 89.1001 171.6C92.1001 166.6 93.6001 161.3 93.6001 155.6C93.6001 148.6 91.8 142.7 88.2001 138.2C84.6001 133.6 78.4001 131.3 69.5001 131.3C62.1001 131.3 55.5 133.4 49.6 137.7C43.7 142 38.5 148.7 34.2001 157.8C33.6001 159.2 32.7001 160.5 31.5001 161.9C30.3001 163.2 29.2001 163.9 28.1001 163.9C27.0001 163.9 26.4001 163.4 26.1001 162.3C25.8001 161.3 25.6001 160.4 25.6001 159.6C25.6001 158.6 26.0001 156.6 26.8001 153.6C27.6 150.7 28.7001 147.4 30.1001 143.8C31.4001 140.2 32.7001 136.8 33.9001 133.7C34.6001 132.1 35.7001 131 36.9001 130.7C38.2001 130.3 39.1001 130.1 39.7001 130.1C41.2001 130.1 43.1 129.8 45.3 129.3C47.5 128.8 49.9001 128.2 52.5 127.6C55.5 126.9 58.5 126.2 61.5 125.7C64.5 125.2 67.4001 124.9 70.3001 124.9C84.1001 124.8 94.4001 127.5 101.1 133.1C107.8 138.7 111.2 146.4 111.2 156.2C111.2 162.5 109.2 168.1 105.2 173C101.2 177.9 96.4 181.8 90.7001 184.8C85.0001 187.8 79.6001 189.8 74.5001 190.7C73.3001 190.9 72.7001 191.2 72.8001 191.8C72.9001 192.4 73.2001 192.8 73.8001 192.9C79.3001 194 84.0001 196.1 87.6001 199.4C91.3 202.7 94.1001 206.5 96.0001 210.9C97.9001 215.3 98.9001 219.8 98.9001 224.4C98.9001 232.9 97.1001 240.5 93.4001 246.9C90.0001 253.4 85.0001 258.8 78.8001 263C72.6001 267.3 65.6001 270.5 58 272.7C50.3 274.9 42.5001 276 34.4001 276Z" fill="#ED057D"/>
<path d="M121 304.1C120.2 304.1 119.3 303.4 118.3 302C117.2 300.6 116.6 299 116.5 297.2C116.2 290.1 115.6 284.7 114.6 281C113.6 277.2 112.7 274.4 111.8 272.5C110.9 270.6 110.5 268.8 110.5 267.1C110.5 265.8 110.8 264.9 111.4 264.5C112 264.1 112.7 263.9 113.4 263.9C114.1 263.9 114.9 264 115.8 264.1C116.6 264.3 117.3 264.3 117.9 264.3C122.2 264.3 125.8 262.5 128.7 259C131.5 255.5 133.8 250.8 135.5 244.8C137.1 238.9 138.3 232.1 139 224.6C139.7 217 140 209.2 140 201.1C140 196.8 138.9 193.8 136.9 192.1C134.8 190.5 131.9 189.3 128.1 188.5C127.5 188.4 126.7 188 125.7 187.5C124.7 187 124.2 186.2 124.2 185.1C124.2 184.2 124.9 183.5 126.3 183C127.7 182.5 128.7 182.2 129.1 182.2C131.9 182.2 134.1 182.3 135.4 182.5C136.8 182.7 138.7 182.8 141.3 182.8H188.3C190.8 182.8 192.9 182.7 194.6 182.5C196.2 182.3 198.5 182.2 201.4 182.2C201.9 182.2 202.8 182.5 204.2 183C205.6 183.5 206.3 184.2 206.3 185.1C206.3 186.2 205.8 186.9 205 187.5C204.1 188 203.3 188.4 202.5 188.5C198.7 189.3 196.1 190.6 194.5 192.5C192.9 194.5 192.1 198.7 192.1 205.3V254.8C192.1 257.8 192.4 260.1 193 261.8C193.6 263.5 195.5 264.3 198.8 264.3C199.5 264.3 200.6 264.2 201.8 264.1C203.1 264 204.2 263.9 205.3 263.9C206.5 263.9 207.5 264.1 208.2 264.4C208.9 264.7 209.3 265.2 209.3 266C209.3 266.5 209.2 266.8 209.1 267.1C208.5 268.6 207.8 270.3 207 272.3C206.2 274.2 205.4 277.1 204.6 281C203.8 284.8 203.3 290.3 203 297.3C202.8 299.1 202.2 300.7 201.2 302.1C200.1 303.5 199.2 304.2 198.5 304.2C196.5 304.2 195.3 303.3 194.7 301.6C194.1 299.9 193.8 298 193.8 296.1C193.8 294.4 193.8 292.8 193.9 291.1C194 289.4 194 287.9 194 286.4C194 280.2 193.3 276.5 191.9 275C190.5 273.6 188 272.9 184.6 272.9H138C134.2 272.9 131.2 274 128.9 276.2C126.6 278.4 125.4 283 125.4 290C125.4 291 125.4 292 125.5 292.9C125.6 293.8 125.6 294.8 125.6 296.1C125.6 298 125.3 299.9 124.7 301.6C124.2 303.2 122.9 304.1 121 304.1ZM138.5 264.5H169.3C172.3 264.5 174.2 264.2 175 263.7C175.8 263.2 176.2 261.4 176.2 258.4V200.1C176.2 199.2 176.2 198 176.1 196.4C176 194.8 175.7 193.4 175.2 192.1C174.7 190.8 173.8 190.2 172.6 190.2H152.6C151.4 190.2 150.5 190.8 149.9 192.1C149.3 193.4 149 194.8 148.9 196.4C148.8 198 148.8 199.2 148.8 200.1C148.8 207.9 148.4 215.4 147.7 222.5C146.9 229.6 145.6 236.5 143.8 243C141.9 249.5 139.3 255.8 136 261.8C135.6 262.4 135.3 262.9 135.3 263.2C135.3 263.5 135.5 263.8 136 264.1C136.5 264.3 137.3 264.5 138.5 264.5Z" fill="#ED057D"/>
<path d="M236.6 276C233 276 229.6 274.8 226.5 272.4C223.4 270 220.8 266.9 219 262.9C217.1 259 216.2 254.9 216.2 250.5C216.2 243.5 217.6 235.8 220.4 227.7C223.2 219.5 227 211.8 232 204.5C236.9 197.2 242.7 191.3 249.2 186.6C255.7 182 262.7 179.6 270.2 179.6C277.7 179.6 283.5 182.2 287.6 187.3C291.7 192.4 293.8 198.7 293.8 206.2C293.8 213 292.5 220.3 289.7 228.4C287 236.4 283.1 244 278.1 251.2C273.1 258.4 267.1 264.3 260.1 269C253.2 273.6 245.3 276 236.6 276ZM240.2 269.2C243.8 269.2 247.4 267.6 251.1 264.5C254.8 261.3 258.3 257.2 261.7 252.1C265.1 247 268.1 241.4 270.7 235.2C273.3 229.1 275.4 222.9 277 216.7C278.6 210.6 279.4 204.9 279.4 199.8C279.4 195.9 278.8 192.7 277.5 190.1C276.2 187.6 273.6 186.3 269.7 186.3C266.2 186.3 262.7 187.7 259 190.6C255.3 193.5 251.8 197.3 248.4 202.1C245 206.9 242 212.3 239.3 218.2C236.6 224.1 234.5 230.3 232.9 236.7C231.3 243.1 230.5 249.3 230.5 255.3C230.5 260.2 231.4 263.8 233.1 266C234.9 268.1 237.2 269.2 240.2 269.2Z" fill="#ED057D"/>
<path d="M306.8 336.9C306 336.9 305.1 336.8 303.9 336.6C302.7 336.4 302.1 335.8 302.1 334.9C302.1 333.7 302.7 332.8 303.8 332.3C304.9 331.8 306.1 331.3 307.3 330.8C309.5 330 311.7 329.2 313.8 328.2C315.9 327.2 316.9 325.2 316.9 322.2V208.2C316.9 207 316.6 205.2 315.9 202.8C315.2 200.4 314.1 198.1 312.6 195.8C311.1 193.6 309.1 192.2 306.5 191.8C305.9 191.7 305.4 191.3 305.2 190.7C304.9 190.1 304.7 189.5 304.7 188.9C304.7 188.2 304.8 187.5 305.2 187.1C305.5 186.7 305.9 186.4 306.3 186.2C312 184.8 316.9 183.4 320.9 181.8C324.9 180.2 328.8 178.7 332.4 177.2C332.5 177.2 332.6 177.2 332.6 177.1C332.6 177 332.7 177 332.8 177C333.1 177 333.4 177.2 333.7 177.7C334 178.1 334.2 178.6 334.2 179C334.2 180.3 334 182.5 333.6 185.4C333.2 188.3 333 190.7 333 192.5C333 193.7 333.1 194.4 333.2 194.5C334.7 193 337.4 191.1 341.4 188.8C345.4 186.5 349.9 184.4 355 182.5C360.1 180.6 365 179.7 369.6 179.7C377.4 179.7 384 181.8 389.5 185.9C395 190 399.2 195.4 402.1 201.9C405 208.4 406.5 215.2 406.5 222.3C406.5 229.1 405.2 235.6 402.7 242C400.1 248.4 396.5 254.1 391.9 259.2C387.2 264.3 381.8 268.4 375.7 271.5C369.5 274.6 362.9 276.1 355.9 276.1C353.8 276.1 351.3 275.8 348.4 275.1C345.5 274.4 342.6 273.6 339.8 272.5C337 271.5 334.9 270.3 333.4 268.9C333.2 268.9 333.1 269.8 333 271.5C332.8 273.2 332.7 275 332.7 276.9C332.6 278.8 332.6 279.9 332.6 280.4V322.5C332.6 324.4 333.4 326 335 327.1C336.6 328.2 338.4 329 340.4 329.6C342.4 330.1 344.2 330.6 345.7 331.1C346.9 331.6 348.1 332 349.2 332.6C350.3 333.1 350.9 334 350.9 335.2C350.9 336.1 350.3 336.7 349.1 336.9C347.9 337.1 346.9 337.2 345.9 337.2C341.5 337.2 337.9 337 335 336.6C332.1 336.2 328.7 336 324.8 336C322.2 336 320.2 336.1 318.6 336.2C317 336.3 315.4 336.5 313.8 336.8C312.1 336.8 309.8 336.9 306.8 336.9ZM359.5 269C361.7 269 364.5 268.3 367.7 267C370.9 265.7 374.1 263.5 377.4 260.5C380.6 257.5 383.3 253.5 385.5 248.3C387.7 243.2 388.8 236.9 388.8 229.4C388.8 220.7 387.7 213.7 385.4 208.5C383.2 203.3 380.4 199.3 377.1 196.6C373.8 193.9 370.4 192.1 367 191.2C363.5 190.3 360.6 189.8 358.2 189.8C354.6 189.8 350.9 190.6 347.1 192C343.3 193.5 340 195.2 337.4 197.1C334.8 199 333.5 200.4 333.5 201.5C333.5 204.8 333.5 208.1 333.4 211.5C333.3 214.9 333.2 218.1 333.2 221.3C333.1 224.5 333 227.3 333 229.7C332.9 232.2 332.9 234.1 332.9 235.4C332.9 241.4 334.3 247 337.1 252.1C339.9 257.2 343.3 261.3 347.5 264.4C351.3 267.5 355.4 269 359.5 269Z" fill="#ED057D"/>
<path d="M467.3 276C458.9 276 451.3 274 444.6 270.2C437.9 266.4 432.5 260.9 428.5 254.1C424.5 247.3 422.5 239.5 422.5 230.8C422.5 224.5 423.7 218.4 426.2 212.3C428.7 206.3 432.2 200.8 436.7 195.9C441.2 191 446.5 187 452.5 184.1C458.5 181.2 464.9 179.7 471.9 179.7C480.6 179.7 488.4 181.8 495.4 186C502.4 190.2 507.9 195.7 512.1 202.5C516.2 209.3 518.3 216.8 518.3 224.9C518.3 233.6 516.4 241.9 512.6 249.7C508.8 257.5 503.1 263.8 495.6 268.7C487.9 273.5 478.5 276 467.3 276ZM472 269.2C477.1 269.2 481.7 268.2 485.7 266.3C489.7 264.4 492.9 261.2 495.1 256.8C496.9 253.4 498.1 249.2 498.7 244.2C499.3 239.2 499.6 234.6 499.6 230.2C499.6 223 498.3 216.1 495.7 209.4C493.1 202.7 489.4 197.3 484.7 193C480 188.7 474.4 186.6 467.9 186.6C463.9 186.6 460.2 187.2 457 188.5C453.8 189.8 450.8 192.1 448.1 195.6C445.1 199.4 443.1 203.9 442.2 209.3C441.3 214.7 440.9 220.1 440.9 225.5C440.9 232.9 442.2 239.9 445 246.5C447.7 253.2 451.4 258.6 456 262.8C460.6 267.1 466 269.2 472 269.2Z" fill="#ED057D"/>
<path d="M536.5 273.5C535.6 273.5 534.5 273.4 533.2 273.3C531.9 273.1 531.3 272.6 531.3 271.5C531.3 270.3 531.9 269.4 533 268.9C534.1 268.4 535.3 267.9 536.5 267.4C538.7 266.7 540.9 265.9 543 265.3C545.1 264.6 546.1 262.7 546.1 259.6V198.6C546.1 195.2 545.3 192.6 543.6 191.1C541.9 189.5 540 188.4 537.8 187.8C536.6 187.3 535.4 186.8 534.3 186.2C533.2 185.6 532.6 184.8 532.6 183.7C532.6 182.5 533.3 181.9 534.7 181.8C536.1 181.7 537.1 181.7 537.7 181.7C540.7 181.7 542.9 181.7 544.2 181.8C545.5 181.9 546.8 182 548 182.1C549.2 182.3 550.9 182.3 553.2 182.3C555.3 182.3 557.2 182.2 558.8 182.1C560.4 182 562.3 181.8 564.4 181.6C566.5 181.5 569 181.4 572 181.4C583.4 181.4 592.6 183.1 599.7 186.5C606.7 189.9 610.3 195.3 610.3 202.8C610.3 208.8 608.6 213.6 605.3 217.1C602 220.6 597.9 223 593.1 224.2C592.5 224.4 592.1 224.5 592 224.7C591.8 224.9 592.2 225.1 593.1 225.4C595.9 225.9 599 226.9 602.3 228.6C605.6 230.3 608.4 232.5 610.7 235.5C613 238.4 614.2 242.1 614.2 246.4C614.2 253.5 612.3 259 608.6 262.9C604.8 266.9 599.8 269.7 593.4 271.2C587 272.8 579.8 273.6 571.7 273.6C570.2 273.6 567.7 273.4 564.1 272.9C560.5 272.4 557 272.2 553.5 272.2C550.2 272.2 546.7 272.3 543 272.5C539.3 272.7 536.7 273 535 273.2C533.8 273.4 534.1 273.5 536.5 273.5ZM568.5 221.7C578 221.7 584.7 220 588.9 216.6C593 213.2 595.1 209.3 595.1 204.8C595.1 200.5 593.6 196.7 590.5 193.7C587.4 190.6 581.4 189.1 572.4 189.1C568.2 189.1 565.4 189.7 564.1 191C562.8 192.3 562.1 194.1 562.1 196.5V216.1C562.1 219 563 220.6 564.7 221.1C566.3 221.5 567.6 221.7 568.5 221.7ZM574.3 266.1C581.8 266.1 587.6 264.6 591.7 261.5C595.8 258.4 597.9 253.8 597.9 247.7C597.9 240 595.3 235 590.3 232.4C585.2 229.9 578.7 228.6 570.7 228.6C568.3 228.6 566.2 229 564.5 229.7C562.8 230.5 561.9 231.9 561.9 234.2V254.9C561.9 258.7 562.9 261.5 564.9 263.3C567 265.1 570.1 266.1 574.3 266.1Z" fill="#ED057D"/>
<path d="M652.6 276C645.1 276 640 274.5 637.2 271.6C634.4 268.7 633.3 265 633.8 260.5C634.3 256 635.6 251.4 637.5 246.8C640.5 239.3 643.6 231.7 646.7 224.1C649.8 216.5 652.9 208.9 655.9 201.4C656.2 200.2 656.4 199.2 656.4 198.5C656.4 197.8 656.2 197.4 655.7 197.4C654.9 197.4 653.3 197.9 650.9 199C648.4 200.1 645.7 201.4 642.8 203.2C639.9 204.9 637.4 206.8 635.3 208.9C635 209.2 634.4 209.3 633.6 209.1C632.8 209 632.4 208.6 632.4 208.2C632.4 207.6 632.5 206.7 632.9 205.6C633.2 204.5 633.9 203.1 635.1 201.4C637.8 197.8 640.9 194.6 644.3 191.9C647.7 189.2 651.2 186.9 654.8 185.1C658.3 183.3 661.5 181.9 664.4 181.1C667.2 180.2 669.5 179.7 671.2 179.7C673.1 179.7 674.8 180.8 676 182.9C677.3 185 677.5 186.9 676.8 188.7L660.4 224.9C660.1 225.7 660.1 226.1 660.5 226.2C660.9 226.4 661.5 226.1 662.4 225.3C666.7 221.3 671.3 218.1 676 215.7C680.7 213.4 685.5 212.2 690.3 212.2C695.2 212.2 699 213.9 701.5 217.3C704 220.7 705.3 225.1 705.3 230.5C705.3 235.9 703.8 241.3 700.7 246.7C697.6 252.1 693.5 257 688.4 261.3C683.3 265.7 677.6 269.2 671.4 271.9C665.2 274.6 658.9 276 652.6 276ZM656.2 271.2C660.2 271.2 664.3 269.9 668.3 267.3C672.4 264.7 676.1 261.3 679.5 257.1C682.9 252.9 685.7 248.4 687.8 243.6C689.9 238.8 690.9 234.3 690.9 230.1C690.9 226.9 690.2 224.4 688.8 222.3C687.4 220.3 685.8 219.3 684.2 219.3C680.6 219.3 676.8 220.6 672.8 223.3C668.8 226 665.1 229.3 661.7 233.2C657.8 237.9 654.5 242.8 651.9 248.2C649.3 253.5 648 257.8 648 261.1C648 263.7 648.7 266 650.1 268.1C651.7 270.2 653.7 271.2 656.2 271.2Z" fill="#ED057D"/>
<path d="M762.2 276.2C753.9 276.2 746.7 274.2 740.6 270.1C734.4 266.1 729.6 260.3 726.2 252.9C722.7 245.5 721 236.9 721 227.1C721 218.4 723 210.5 727 203.4C731 196.3 736.3 190.5 742.9 186.2C749.5 181.9 756.7 179.7 764.5 179.7C770.5 179.7 775.8 180.9 780.5 183.3C785.1 185.7 788.8 189 791.4 193.3C794 197.6 795.3 202.5 795.3 208C795.3 212.7 793.1 215 788.5 215H741C738.9 215 737.4 215.6 736.6 216.7C735.8 217.8 735.4 220 735.4 223.3C735.4 230.5 737 237.1 740.1 243C743.2 248.9 747.4 253.7 752.7 257.2C757.9 260.7 763.7 262.5 770 262.5C774.5 262.5 778.6 261.6 782.3 259.9C786 258.2 789.2 255.7 792.1 252.4C792.7 251.7 793.1 251.2 793.4 250.9C793.7 250.7 794.1 250.6 794.5 250.6C795.7 250.6 796.3 251.4 796.3 252.8C796.3 255.7 794.9 258.8 792.3 262.3C790.1 265.2 787.3 267.6 784.2 269.7C781 271.8 777.6 273.4 773.8 274.5C770.2 275.6 766.3 276.2 762.2 276.2ZM741.5 208H762C765.6 208 768.7 207.9 771.2 207.8C773.7 207.7 776.2 207.3 778.6 206.9C779.3 206.8 779.8 206.3 780.1 205.4C780.3 204.6 780.4 203.4 780.4 201.9C780.4 197.6 778.5 193.8 774.7 190.8C770.9 187.7 766.3 186.2 761.1 186.2C757.6 186.2 754.2 187.2 750.8 189.2C747.3 191.2 744.5 193.7 742.2 196.7C740 199.7 738.8 202.7 738.8 205.7C738.8 207.3 739.7 208 741.5 208Z" fill="#ED057D"/>
<path d="M180.8 143.3C168 143.3 158.4 139.4 157.5 138.4L156.6 137.4L157.2 136.2C157.3 135.9 157.5 135.6 157.7 135.2C160.2 129.9 166.7 115.9 183.6 111C198.1 106.8 221.9 112.4 222.9 112.6L227.1 113.6L223.7 116.2C223.4 116.5 222.6 118 221.9 119.2C218.8 125 213 135.7 200.3 140.2C193.5 142.4 186.8 143.3 180.8 143.3ZM161.8 136C166.6 137.8 181.9 142.2 199.1 136.2C210.3 132.3 215.6 122.4 218.5 117.1C218.8 116.6 219 116.2 219.2 115.8C212.4 114.5 195.4 111.7 184.8 114.8C170.4 119 164.3 130.7 161.8 136Z" fill="#ED057D"/>
<path d="M200.7 104.4L198.8 103.6C198 103.3 179.8 95.4999 171 86.5999C160.5 75.8999 157.5 59.6999 157.4 58.9999L156.6 54.3999L160.5 56.8999C160.6 56.8999 166.1 60.4999 170 62.3999C171.3 62.9999 173.4 63.6999 175.9 64.4999C183.5 66.9999 194 70.2999 199 76.9999C203.5 83.0999 206.6 88.8999 201.5 102.5L200.7 104.4ZM162.5 62.8999C164.1 68.2999 167.5 77.1999 173.8 83.6999C180.4 90.4999 193.4 96.6999 198.3 98.9999C202 87.9999 199 83.9999 195.6 79.3999C191.4 73.7999 181.3 70.4999 174.5 68.3999C171.9 67.5999 169.6 66.7999 168.1 66.0999C166.4 65.1999 164.3 63.9999 162.5 62.8999Z" fill="#ED057D"/>
<path d="M212 183.7L212.9 179.7C217 161.7 226 149.9 239.6 144.5C250.3 140.3 267.4 140.8 268.2 140.8L272.6 140.9L269.7 144C269.5 144.8 269.5 147.2 269.6 149.1C269.7 153 269.8 157.5 268.5 160.4C266.4 165.1 264.3 168.8 257 173.5C246.9 180 233.7 179.8 227.3 179.7C226.2 179.7 225.3 179.7 224.6 179.7C220.3 179.8 215.8 181.9 215.7 181.9L212 183.7ZM265.6 144.9C260.5 144.9 248.8 145.3 241.2 148.3C229.8 152.8 222 162.4 217.9 176.9C219.8 176.3 222.2 175.8 224.6 175.7C225.4 175.7 226.4 175.7 227.5 175.7C233.9 175.8 245.9 176 255 170.2C261.4 166.1 263.1 163.2 265 158.8C265.9 156.7 265.8 152.6 265.7 149.3C265.5 147.5 265.5 146 265.6 144.9Z" fill="#ED057D"/>
<path d="M232.6 116.9L231 115C230.6 114.5 221.3 103.5 220.1 95.6999C219.3 89.9999 220.4 81.2999 220.5 80.9999L220.9 78.3999L223.3 79.3999C223.8 79.5999 236 84.8999 239.2 93.4999C242.5 102.2 240.4 106.9 234.1 114.9L232.6 116.9ZM224.2 84.3999C223.9 87.2999 223.7 91.8999 224.1 95.1999C224.8 99.7999 229.5 106.6 232.5 110.5C237.3 104.1 237.7 101 235.4 95.0999C233.6 90.0999 227.6 86.1999 224.2 84.3999Z" fill="#ED057D"/>
<path d="M268.2 136.3L267.1 135.3C267 135.2 260.7 129.5 255.7 124C250.2 118 248.2 108.8 249.8 104C251.3 99.4 254.4 96.9 254.6 96.8L256.3 95.5L257.5 97.2C257.5 97.2 259.7 100.2 262.5 102C262.9 102.2 263.6 102.6 264.4 103.1C270.3 106.5 276.8 110.5 278.1 115C281.2 125.5 273.9 133.2 269.6 135.7L268.2 136.3ZM255.7 101.3C255 102.2 254.2 103.5 253.6 105.2C252.5 108.4 253.9 116.1 258.6 121.2C262.3 125.2 266.6 129.3 268.6 131.2C271.1 129.2 276.5 124 274.1 116C273.1 112.8 265.5 108.4 262.2 106.5C261.3 106 260.6 105.6 260.1 105.3C258.3 104 256.7 102.5 255.7 101.3Z" fill="#ED057D"/>
<path d="M144 105.3C140.4 105.3 137.3 104.4 133.7 103.1C126.4 100.6 123.6 98.4001 124.4 95.8001C125 93.8001 129.3 90.1001 141.7 89.6001C154.2 89.0001 160.3 95.1001 160.5 95.4001L161.6 96.5001L160.8 97.8001C160.7 98.0001 158.1 102.3 150.8 104.3C148.2 105 146 105.3 144 105.3ZM128.8 96.6001C129.6 97.2001 131.4 98.1001 134.9 99.3001C140.1 101.1 143.6 102.1 149.6 100.4C152.9 99.5001 155 98.0001 156.1 97.0001C153.9 95.5001 149.3 93.2001 141.8 93.6001C134.2 94.0001 130.3 95.5001 128.8 96.6001Z" fill="#ED057D"/>
<path d="M322.3 203.9C321.1 203.9 320.3 202.7 319.3 201.4C318.5 200.3 317.4 198.6 316 196.6C307.5 184 289.9 157.8 272.6 143.6C248.7 124 209.6 100.5 158.1 98.3002V98.8002L154.1 98.7002L154.2 94.2002L156.2 94.3002C209.8 95.9002 250.5 120.4 275.2 140.6C292.9 155.1 310.8 181.7 319.4 194.4C320.5 196.1 321.6 197.7 322.4 198.9L323.2 198.6C324.3 201 325.1 202.8 323.3 203.8C323 203.8 322.6 203.9 322.3 203.9Z" fill="#ED057D"/>
<path d="M321.9 113.2L323.6 109.3C324 108.3 333.7 85.8001 345.6 76.7001C359.6 66.0001 374.8 69.0001 380.5 70.2001C380.9 70.3001 381.3 70.4001 381.6 70.4001L382.9 70.6001L383.2 71.9001C383.6 73.6001 379.6 81.5001 377.4 85.1001C373.9 91.0001 368 99.3001 359.6 105.2C352.3 110.4 338.8 111.2 330.7 111.6C328.7 111.7 326.5 111.8 326 112L321.9 113.2ZM369.2 72.9001C363 72.9001 355.3 74.3001 348 79.9001C339.4 86.5001 331.8 101.2 328.7 107.7C329.2 107.7 329.8 107.6 330.5 107.6C337.6 107.2 350.9 106.4 357.3 101.9C369.3 93.4001 376.4 79.1001 378.6 73.9001C376.4 73.4001 373.1 72.9001 369.2 72.9001Z" fill="#ED057D"/>
<path d="M330.3 86.5003L328.3 85.9003C314.3 82.0003 311.5 76.1003 309.3 68.8003C306.9 60.9003 310.4 50.4003 312.9 42.8003C313.7 40.3003 314.5 38.2003 314.7 36.8003C315.5 32.5003 315.9 25.9003 315.9 25.9003L316.2 21.3003L319.4 24.7003C319.9 25.2003 331.2 37.2003 333.6 52.0003C335.6 64.4003 331.1 83.7003 330.9 84.5003L330.3 86.5003ZM319.5 31.2003C319.3 33.3003 319 35.7003 318.6 37.7003C318.3 39.3003 317.5 41.6003 316.6 44.2003C314.4 50.9003 311 61.0003 313 67.7003C314.7 73.2003 316.1 77.9003 327.2 81.5003C328.3 76.2003 330.9 62.0003 329.4 52.7003C328.1 43.7003 322.9 35.7003 319.5 31.2003Z" fill="#ED057D"/>
<path d="M341.9 175.2C339.6 175.2 337.6 174.8 335.4 174.4C332.3 173.7 328.7 171 325.6 168.6C324.2 167.5 322.2 166 321.4 165.7L317 166.2L319.7 162.5C320.1 162 328.8 150.2 338.5 144.1C352.7 135.2 367.9 134.2 383.7 141L387.4 142.6L383.8 144.6C383.8 144.6 379.4 147.1 376.8 150.4C376.4 150.9 375.8 151.7 375.2 152.6C371.5 157.8 363.8 168.5 352.6 172.9C348.1 174.6 344.8 175.2 341.9 175.2ZM324.5 162.8C325.5 163.4 326.6 164.3 328 165.4C330.6 167.4 333.9 170 336.1 170.5C340.7 171.5 344.1 171.9 351.2 169.2C361.3 165.3 368.2 155.6 371.9 150.4C372.6 149.5 373.2 148.6 373.6 148C375.1 146.1 376.9 144.6 378.5 143.4C365.2 138.7 352.5 140.1 340.5 147.6C333.9 151.7 327.4 159.2 324.5 162.8Z" fill="#ED057D"/>
<path d="M315.2 119.8C307.5 119.8 302.2 118.5 298.6 110.9C294.8 103.1 296.7 90.6004 296.8 90.1004L297.2 87.4004L299.7 88.6004C300 88.8004 308.1 92.8004 311.9 97.2004C315.7 101.5 320.3 115.5 320.8 117.1L321.6 119.7L318.9 119.8C317.7 119.7 316.4 119.8 315.2 119.8ZM300.5 93.6004C300.2 97.5004 300.1 104.6 302.3 109.2C304.9 114.6 308.1 115.8 316.2 115.8C314.4 110.7 311.2 102.5 309 99.9004C306.8 97.4004 303 95.0004 300.5 93.6004Z" fill="#ED057D"/>
<path d="M319.2 200.4C317.1 189.7 315.8 178.8 315.2 168C313.6 136.1 318 88.9003 348.4 44.8003L351.7 47.1003C321.9 90.3003 317.6 136.6 319.2 167.8C319.8 178.4 321.1 189.1 323.1 199.7L319.2 200.4Z" fill="#ED057D"/>
<path d="M277.9 97.1999C275.3 97.1999 272.7 95.4999 270.7 92.3999C269.2 89.9999 268 86.9999 267.4 83.6999C264.2 85.7999 260.8 87.1999 257.7 87.5999C253.8 88.1999 250.7 87.1999 249 84.7999C247.3 82.4999 247.4 79.1999 249.2 75.6999C250.5 73.1999 252.5 70.6999 255.1 68.4999C247.2 64.4999 242.7 57.8999 244.9 53.0999C247 48.4999 254.3 47.3999 262.1 50.1999C261.6 41.2999 265.1 34.1999 270.4 33.6999C275.5 33.1999 280 38.7999 281.5 47.0999C288.9 42.1999 296.9 41.6999 300 45.9999C301.1 47.4999 301.4 49.2999 301.1 51.3999C300.5 54.8999 297.8 58.9999 293.9 62.2999C301.8 66.2999 306.3 72.8999 304.1 77.6999C302.9 80.2999 300.1 81.8999 296.1 82.0999C293.3 82.1999 290.1 81.6999 286.9 80.5999C287.1 84.3999 286.6 88.0999 285.4 90.9999C283.9 94.6999 281.5 96.8999 278.6 97.1999C278.3 97.1999 278.1 97.1999 277.9 97.1999ZM270.6 75.9999L271 79.7999C271 79.9999 271 80.0999 271 80.2999C271 80.3999 271 80.5999 271 80.6999C271.4 84.3999 272.4 87.7999 274 90.1999C275.3 92.1999 276.8 93.2999 278.1 93.0999C279.4 92.9999 280.6 91.5999 281.5 89.3999C282.6 86.7999 283 83.1999 282.6 79.5999C282.5 78.9999 282.5 78.3999 282.3 77.6999L281.6 73.6999L285.2 75.5999C285.4 75.6999 285.7 75.7999 285.9 75.8999C289.2 77.3999 292.8 78.1999 295.6 77.9999C298 77.8999 299.6 77.0999 300.2 75.9999C301.3 73.4999 297.6 68.3999 290.8 65.2999C290.2 64.9999 289.6 64.7999 289.1 64.5999L285.6 63.1999L289 60.7999C289.1 60.6999 289.3 60.5999 289.4 60.4999C293.5 57.5999 296.4 53.6999 297 50.5999C297.2 49.5999 297 48.7999 296.6 48.1999C295 45.9999 288.7 46.6999 282.7 50.9999C282.2 51.3999 281.6 51.7999 281.2 52.1999L278.2 54.6999L277.9 50.4999C277.9 50.2999 277.9 50.0999 277.9 49.8999C277.2 42.4999 273.6 37.2999 270.8 37.4999C268.1 37.7999 265.6 43.5999 266.3 50.9999C266.4 51.5999 266.4 52.1999 266.6 52.8999L267 56.9999L263.2 55.0999C263 54.9999 262.8 54.8999 262.6 54.7999C255.8 51.6999 249.5 52.1999 248.4 54.6999C247.3 57.1999 251 62.2999 257.8 65.3999C258.3 65.5999 258.9 65.8999 259.6 66.0999L263.3 67.4999L259.9 69.7999C259.7 69.8999 259.5 69.9999 259.4 70.1999C256.4 72.2999 254 74.9999 252.7 77.4999C251.6 79.5999 251.4 81.3999 252.2 82.4999C252.9 83.4999 254.7 83.9999 257.1 83.5999C259.9 83.1999 263.2 81.7999 266.2 79.6999C266.7 79.2999 267.2 78.9999 267.7 78.4999L270.6 75.9999ZM274.4 75.4999C269.3 75.4999 264.8 71.5999 264.3 66.3999C263.8 60.7999 267.8 55.8999 273.4 55.2999C279 54.7999 283.9 58.7999 284.5 64.3999C284.8 67.0999 284 69.6999 282.2 71.7999C280.5 73.8999 278 75.1999 275.3 75.3999C275 75.4999 274.7 75.4999 274.4 75.4999ZM274.4 59.2999C274.2 59.2999 274 59.2999 273.8 59.2999C270.5 59.5999 268 62.5999 268.3 65.9999C268.6 69.2999 271.6 71.7999 275 71.4999C276.6 71.2999 278.1 70.5999 279.1 69.2999C280.1 67.9999 280.6 66.4999 280.5 64.7999C280.1 61.6999 277.5 59.2999 274.4 59.2999Z" fill="#ED057D"/>
<path d="M377 51.0001C372.2 51.0001 367.5 48.5001 364.4 44.3001C359.7 48.0001 353.5 49.0001 348.4 46.7001L347.7 46.4001L347.4 45.7001C345.1 40.8001 345.9 34.8001 349.3 30.2001C344.3 26.9001 341.5 21.3001 342.1 15.7001L342.2 15.0001L342.7 14.5001C346.7 10.8001 352.6 9.7001 358.1 11.5001C359.7 5.7001 364.2 1.3001 369.7 0.200098L370.4 0.100098L371.1 0.500098C375.8 3.1001 378.7 8.4001 378.7 14.2001C384.7 13.9001 390.3 16.8001 393.1 21.7001L393.5 22.4001L393.4 23.1001C392.3 28.4001 388.2 32.7001 382.7 34.5001C384.8 40.1001 383.8 46.3001 380 50.5001L379.5 51.1001L378.8 51.2001C378.1 51.0001 377.5 51.0001 377 51.0001ZM365.3 37.6001L366.7 40.2001C368.9 44.5001 373.2 47.1001 377.4 47.0001C380 43.6001 380.4 38.6001 378.2 34.3001L376.6 31.4001L379.4 30.9001C384.2 30.1001 388 26.9001 389.1 22.8001C386.7 19.2001 382 17.4001 377.3 18.2001L374.1 18.8001L374.5 16.0001C375.2 11.2001 373.4 6.6001 369.8 4.3001C365.7 5.5001 362.5 9.3001 361.7 14.1001C361.7 14.2001 361.7 14.4001 361.7 14.5001L361.4 17.4001L358.8 16.1001C354.5 13.9001 349.5 14.3001 346.2 16.9001C346 21.2001 348.7 25.4001 353 27.6001L353.1 27.7001C353.2 27.7001 353.3 27.8001 353.4 27.8001L355.9 29.0001L353.9 31.0001C350.5 34.4001 349.3 39.3001 350.8 43.3001C354.8 44.8001 359.7 43.5001 363.1 40.1001C363.2 40.0001 363.3 39.9001 363.3 39.9001L365.3 37.6001ZM366.5 33.9001C366.1 33.9001 365.8 33.9001 365.4 33.8001C363.6 33.5001 361.9 32.5001 360.8 31.0001C359.7 29.5001 359.2 27.6001 359.5 25.8001C360.1 22.0001 363.7 19.4001 367.5 20.0001C369.3 20.3001 371 21.3001 372.1 22.8001C373.2 24.3001 373.6 26.2001 373.4 28.0001C373.1 29.8001 372.1 31.5001 370.6 32.6001C369.4 33.4001 368 33.9001 366.5 33.9001ZM366.5 23.9001C365.1 23.9001 363.8 24.9001 363.6 26.4001C363.5 27.2001 363.7 28.0001 364.1 28.6001C364.6 29.2001 365.2 29.6001 366 29.8001C366.8 29.9001 367.6 29.7001 368.2 29.3001C368.8 28.8001 369.2 28.2001 369.4 27.4001C369.5 26.6001 369.3 25.8001 368.9 25.2001C368.4 24.6001 367.8 24.2001 367 24.0001C366.8 24.0001 366.7 23.9001 366.5 23.9001Z" fill="#ED057D"/>
<path d="M294.2 149.6C293 149.6 291.7 149.3 290.6 148.7C287.7 147.1 286.3 143.8 286.9 140.5C284.6 138.7 283.5 135.9 284 133.1C284.6 129.9 287.3 127.5 290.7 127.1C291.7 124.4 294 122.4 296.9 122.1C300.1 121.7 303.2 123.6 304.7 126.6C307.6 126.7 310.2 128.3 311.4 130.9C312.8 133.9 312 137.4 309.5 139.7C310.3 142.5 309.6 145.5 307.5 147.4C305.1 149.6 301.5 149.9 298.6 148.4C297.3 149.1 295.7 149.6 294.2 149.6ZM292 131C290.1 131 288.5 132.2 288.1 133.8C287.8 135.3 288.7 136.9 290.3 137.7L291.9 138.5L291.2 140.2C290.5 142.1 291 144.1 292.6 145C294 145.8 295.7 145.4 297 144.2L298.3 142.9L299.7 144.1C301.3 145.4 303.4 145.4 304.7 144.3C305.9 143.2 306.1 141.4 305.3 139.8L304.5 138.2L306 137.2C307.7 136.1 308.4 134.1 307.7 132.5C307 131.1 305.4 130.3 303.6 130.6L301.8 130.9L301.3 129.1C300.8 127.1 299.1 125.8 297.3 126C295.7 126.2 294.5 127.5 294.2 129.3L293.9 131.1L292.1 131H292ZM298 139L296.5 137.8L295.9 137.1L296.1 135.9L296.7 134.7L298 134.4H298.3H299.7L300.4 136.7L299.7 137.9L299.2 138.2L298 139ZM298 136.3L297 134.8L298 136.3Z" fill="#ED057D"/>
</g>
<defs>
<clipPath id="clip0">
<rect width="796.4" height="336.9" fill="white"/>
</clipPath>
</defs>
</svg>
