<svg width="741" height="204" viewBox="0 0 741 204" fill="none" xmlns="http://www.w3.org/2000/svg">
<path d="M7.06004 201.49C5.46784 201.534 3.87773 201.345 2.34004 200.93C1.13004 200.56 0.540039 199.93 0.540039 199.02C0.540039 197.22 3.01339 195.887 7.96005 195.02C13.6601 193.967 17.9934 192.28 20.9601 189.96C23.9601 187.63 25.46 183.85 25.46 178.59V76.8401C25.46 71.4401 24.41 67.6167 22.31 65.3701C20.21 63.1234 16.31 61.4734 10.61 60.4201C5.66338 59.5201 3.19005 58.0201 3.19005 55.9201C3.19005 55.0201 3.78005 54.3801 4.99005 54.0101C6.52622 53.5861 8.11711 53.394 9.71005 53.4401C13.7634 53.4401 17.0967 53.5167 19.7101 53.6701C22.3234 53.8234 24.8367 53.9367 27.25 54.0101C29.65 54.0801 32.57 54.1201 36.03 54.1201C39.3234 54.1201 42.0234 54.0834 44.1301 54.0101C46.2367 53.9367 48.4867 53.8234 50.8801 53.6701C53.2701 53.5201 56.5 53.4401 60.55 53.4401C62.1462 53.395 63.7403 53.5871 65.28 54.0101C66.47 54.3801 67.08 55.0101 67.08 55.9201C67.0449 56.4889 66.8599 57.0383 66.5437 57.5125C66.2276 57.9867 65.7916 58.3688 65.28 58.6201C63.5267 59.5532 61.6196 60.163 59.65 60.4201C54.1034 61.4667 50.1034 63.1167 47.65 65.3701C45.1967 67.6234 43.98 71.4467 44 76.8401V178.09C43.9205 181.462 45.0804 184.746 47.2601 187.32C48.285 188.555 49.5775 189.541 51.0397 190.203C52.502 190.865 54.0956 191.185 55.7001 191.14H88.78C93.42 191.14 96.78 190.4 98.9 188.89C100.898 187.532 102.336 185.497 102.95 183.16C103.528 180.993 103.831 178.762 103.85 176.52V77.0701C103.85 71.5234 102.763 67.6234 100.59 65.3701C98.4167 63.1167 94.48 61.4667 88.78 60.4201C86.8098 60.1662 84.9021 59.5563 83.15 58.6201C82.6372 58.3705 82.2001 57.9888 81.8837 57.5143C81.5674 57.0397 81.3832 56.4895 81.3501 55.9201C81.3501 55.0201 81.95 54.3801 83.15 54.0101C84.6894 53.5851 86.2838 53.393 87.8801 53.4401C91.9301 53.4401 95.26 53.5201 97.8801 53.6701C100.5 53.8201 103.01 53.9301 105.42 54.0101C107.83 54.0901 110.74 54.1201 114.19 54.1201C117.49 54.1201 120.19 54.0834 122.29 54.0101C124.39 53.9367 126.64 53.8234 129.04 53.6701C131.44 53.5167 134.667 53.4401 138.72 53.4401C140.313 53.395 141.904 53.5871 143.44 54.0101C144.64 54.3801 145.24 55.0101 145.24 55.9201C145.24 58.0201 142.767 59.5201 137.82 60.4201C132.26 61.4667 128.21 63.0801 125.67 65.2601C123.13 67.4401 121.853 71.2267 121.84 76.6201V179.67C121.888 181.281 122.192 182.874 122.74 184.39C123.459 186.347 124.806 188.01 126.57 189.12C128.51 190.47 131.57 191.12 135.79 191.12H168.64C170.491 191.156 172.322 190.733 173.971 189.891C175.62 189.048 177.035 187.811 178.09 186.29C180.329 183.509 181.594 180.069 181.69 176.5V76.8401C181.69 71.4401 180.603 67.6167 178.43 65.3701C176.257 63.1234 172.32 61.4734 166.62 60.4201C164.65 60.1662 162.742 59.5563 160.99 58.6201C160.477 58.3705 160.04 57.9888 159.724 57.5143C159.407 57.0397 159.223 56.4895 159.19 55.9201C159.19 55.0201 159.79 54.3801 160.99 54.0101C162.529 53.5851 164.124 53.393 165.72 53.4401C169.77 53.4401 173.1 53.5201 175.72 53.6701C178.34 53.8201 180.85 53.9301 183.26 54.0101C185.67 54.0901 188.58 54.1201 192.03 54.1201C195.48 54.1201 198.03 54.1201 200.13 54.0101C202.23 53.9001 204.48 53.8201 206.88 53.6701C209.28 53.5201 212.51 53.4401 216.56 53.4401C218.153 53.395 219.744 53.5871 221.28 54.0101C222.48 54.3801 223.08 55.0101 223.08 55.9201C223.08 58.0201 220.607 59.5201 215.66 60.4201C210.1 61.4667 206.05 63.1167 203.51 65.3701C200.97 67.6234 199.693 71.3734 199.68 76.6201V178.32C199.68 183.573 201.257 187.397 204.41 189.79C207.563 192.183 211.907 193.92 217.44 195C222.393 195.9 224.867 197.233 224.86 199C224.86 199.9 224.26 200.54 223.06 200.91C221.522 201.324 219.932 201.513 218.34 201.47C214.293 201.47 210.96 201.36 208.34 201.14C205.72 200.91 203.2 200.72 200.81 200.57C198.42 200.42 195.48 200.35 192.03 200.35C176.883 200.35 163.047 200.313 150.52 200.24C137.993 200.167 125.73 200.127 113.73 200.12H77.2601C64.8134 200.12 51.0134 200.197 35.86 200.35C32.1134 200.35 28.8501 200.423 26.0701 200.57C23.2901 200.717 20.4401 200.907 17.5201 201.14C14.6 201.373 11.1134 201.49 7.06004 201.49Z" fill="#ED057D"/>
<path d="M253.21 203.52C249.525 203.49 245.957 202.222 243.08 199.92C239.852 197.416 237.27 194.176 235.55 190.47C233.682 186.611 232.721 182.377 232.74 178.09C232.868 170.304 234.274 162.591 236.9 155.26C239.693 147.043 243.593 139.245 248.49 132.08C253.118 125.141 258.946 119.083 265.7 114.19C271.778 109.684 279.134 107.232 286.7 107.19C294.193 107.19 300.003 109.74 304.13 114.84C308.257 119.94 310.32 126.24 310.32 133.74C310.177 141.297 308.809 148.781 306.27 155.9C303.521 164.029 299.617 171.721 294.68 178.74C289.858 185.748 283.75 191.778 276.68 196.51C269.742 201.159 261.561 203.603 253.21 203.52ZM256.81 196.77C260.41 196.77 264.047 195.193 267.72 192.04C271.8 188.424 275.36 184.261 278.3 179.67C281.802 174.326 284.815 168.676 287.3 162.79C289.866 156.809 291.972 150.641 293.6 144.34C295.098 138.838 295.904 133.171 296 127.47C296.115 124.139 295.462 120.827 294.09 117.79C292.81 115.25 290.22 113.97 286.33 113.97C282.87 113.97 279.307 115.393 275.64 118.24C271.545 121.519 267.959 125.388 265 129.72C261.474 134.791 258.424 140.177 255.89 145.81C253.183 151.747 251.037 157.923 249.48 164.26C247.942 170.328 247.149 176.56 247.12 182.82C247.12 187.773 247.98 191.337 249.7 193.51C250.542 194.578 251.626 195.43 252.862 195.997C254.098 196.564 255.451 196.829 256.81 196.77Z" fill="#ED057D"/>
<path d="M325 201C323.91 200.989 322.822 200.916 321.74 200.78C320.46 200.63 319.83 200.03 319.83 198.98C319.808 198.426 319.959 197.879 320.262 197.415C320.565 196.951 321.005 196.593 321.52 196.39C322.64 195.87 323.8 195.39 325 194.93C327.008 194.294 328.934 193.424 330.74 192.34C332.32 191.34 333.1 189.34 333.1 186.34V129C333.1 124.66 332.46 121.8 331.19 120.45C329.92 119.1 327.4 118.06 323.65 117.3C322.766 116.991 321.961 116.493 321.29 115.84C320.849 115.514 320.488 115.091 320.235 114.604C319.982 114.117 319.843 113.579 319.83 113.03C319.83 112.13 320.54 111.34 321.97 110.67C322.844 110.182 323.794 109.844 324.78 109.67C326.886 109.628 328.991 109.742 331.08 110.01C333.018 110.276 334.974 110.39 336.93 110.35H404.2C406.305 110.377 408.41 110.264 410.5 110.01C412.741 109.754 414.995 109.641 417.25 109.67C418.239 109.844 419.193 110.182 420.07 110.67C421.49 111.34 422.2 112.13 422.2 113.03C422.192 113.568 422.067 114.098 421.834 114.583C421.601 115.068 421.265 115.497 420.85 115.84C420.176 116.544 419.322 117.049 418.38 117.3C414.63 118.06 411.97 119.14 410.38 120.57C408.79 122 408.02 124.88 408.02 129.23V186.38C408.02 189.38 408.807 191.38 410.38 192.38C412.187 193.462 414.113 194.332 416.12 194.97C417.32 195.42 418.48 195.91 419.61 196.43C420.123 196.636 420.56 196.995 420.861 197.459C421.161 197.922 421.311 198.468 421.29 199.02C421.29 200.073 420.69 200.673 419.49 200.82C418.373 200.963 417.247 201.037 416.12 201.04C413.978 201.081 411.836 200.97 409.71 200.71C408.28 200.48 406.93 200.3 405.66 200.14C404.39 199.98 402.39 199.92 399.66 199.92C397.11 199.92 395.16 200 393.81 200.14C392.46 200.28 391.07 200.48 389.65 200.71C387.443 200.96 385.221 201.057 383 201C381.91 200.989 380.822 200.916 379.74 200.78C378.46 200.63 377.83 200.03 377.83 198.98C377.808 198.426 377.959 197.879 378.262 197.415C378.565 196.951 379.005 196.593 379.52 196.39C380.64 195.87 381.8 195.39 383 194.93C385.16 194.219 387.265 193.353 389.3 192.34C391.247 191.373 392.224 189.373 392.23 186.34V126.04C392.186 124.306 392.036 122.576 391.78 120.86C391.48 118.613 390.43 117.49 388.63 117.49H352.63C350.684 117.49 349.557 118.613 349.25 120.86C348.994 122.576 348.844 124.306 348.8 126.04V186.34C348.8 189.34 349.777 191.34 351.73 192.34C353.765 193.353 355.871 194.219 358.03 194.93C359.23 195.38 360.39 195.87 361.52 196.39C362.033 196.596 362.47 196.955 362.771 197.419C363.071 197.882 363.221 198.428 363.2 198.98C363.2 200.033 362.6 200.633 361.4 200.78C360.283 200.923 359.157 200.997 358.03 201C355.888 201.041 353.746 200.93 351.62 200.67C350.19 200.44 348.84 200.26 347.62 200.1C346.4 199.94 344.35 199.88 341.62 199.88C339.07 199.88 337.12 199.96 335.77 200.1C334.42 200.24 333.03 200.44 331.61 200.67C329.417 200.932 327.208 201.042 325 201Z" fill="#ED057D"/>
<path d="M437.71 201C436.762 200.978 435.818 200.868 434.89 200.67C433.77 200.44 433.21 199.88 433.21 198.98C433.189 198.428 433.339 197.882 433.64 197.419C433.94 196.955 434.377 196.596 434.89 196.39C436.02 195.87 437.18 195.39 438.38 194.93C440.57 194.206 442.712 193.341 444.79 192.34C446.79 191.34 447.79 189.34 447.79 186.15V124.54C447.79 121.54 446.93 119.48 445.2 118.36C443.353 117.178 441.327 116.304 439.2 115.77C438.002 115.324 436.836 114.796 435.71 114.19C435.219 113.987 434.799 113.645 434.501 113.206C434.202 112.767 434.038 112.251 434.03 111.72C434.03 110.82 434.59 110.26 435.71 110.03C436.637 109.829 437.581 109.716 438.53 109.69C441.523 109.69 443.81 109.767 445.39 109.92C446.96 110.07 448.46 110.26 449.89 110.48C451.878 110.745 453.884 110.858 455.89 110.82C457.896 110.869 459.903 110.756 461.89 110.48C463.17 110.26 464.55 110.07 466.06 109.92C467.57 109.77 469.8 109.69 472.81 109.69C473.755 109.717 474.696 109.831 475.62 110.03C476.74 110.26 477.31 110.82 477.31 111.72C477.298 112.251 477.132 112.767 476.832 113.206C476.532 113.645 476.111 113.986 475.62 114.19C474.494 114.796 473.328 115.324 472.13 115.77C470.003 116.304 467.977 117.178 466.13 118.36C464.4 119.48 463.54 121.55 463.54 124.54V169.54C463.536 169.831 463.634 170.114 463.817 170.34C463.999 170.566 464.255 170.722 464.54 170.78C465.22 171.01 465.63 171.05 465.78 170.89L508.78 126.57C508.954 126.14 509.22 125.755 509.56 125.44C509.79 125.3 509.9 124.85 509.9 124.09C509.9 121.103 509.15 119.103 507.65 118.09C505.911 117.016 504.015 116.219 502.03 115.73C500.83 115.287 499.664 114.759 498.54 114.15C498.048 113.949 497.625 113.607 497.325 113.168C497.024 112.729 496.859 112.212 496.85 111.68C496.85 110.78 497.37 110.22 498.43 109.99C499.389 109.776 500.367 109.662 501.35 109.65C504.35 109.65 506.6 109.727 508.1 109.88C509.6 110.03 511.03 110.22 512.38 110.44C514.318 110.706 516.274 110.82 518.23 110.78C520.259 110.823 522.288 110.71 524.3 110.44C525.65 110.22 527.11 110.03 528.69 109.88C530.27 109.73 532.55 109.65 535.55 109.65C536.536 109.663 537.517 109.777 538.48 109.99C539.48 110.22 540.05 110.78 540.05 111.68C540.041 112.212 539.876 112.729 539.575 113.168C539.275 113.607 538.852 113.949 538.36 114.15C537.237 114.755 536.075 115.283 534.88 115.73C532.674 116.308 530.555 117.179 528.58 118.32C526.58 119.44 525.65 121.51 525.65 124.5V186.15C525.65 189.15 526.74 191.15 528.91 192.23C531.064 193.27 533.282 194.172 535.55 194.93C536.75 195.38 537.91 195.87 539.04 196.39C539.554 196.595 539.992 196.954 540.294 197.418C540.597 197.881 540.749 198.427 540.73 198.98C540.73 199.88 540.16 200.44 539.04 200.67C538.116 200.867 537.175 200.977 536.23 201C533.862 201.032 531.495 200.922 529.14 200.67C527.41 200.44 525.8 200.26 524.3 200.1C522.8 199.94 520.7 199.88 518 199.88C515.45 199.88 513.39 199.96 511.81 200.1C510.23 200.24 508.59 200.44 506.81 200.67C504.459 200.922 502.094 201.032 499.73 201C498.782 200.978 497.838 200.868 496.91 200.67C495.79 200.44 495.23 199.88 495.23 198.98C495.209 198.428 495.359 197.882 495.66 197.419C495.96 196.955 496.397 196.596 496.91 196.39C498.04 195.87 499.2 195.39 500.4 194.93C502.604 194.2 504.748 193.297 506.81 192.23C508.81 191.23 509.81 189.16 509.81 186.15V138.27C509.841 137.845 509.766 137.418 509.59 137.03C509.43 136.81 509.21 136.85 508.91 137.14L464.14 183.72C463.608 184.427 463.365 185.31 463.46 186.19C463.46 189.34 464.55 191.41 466.72 192.38C468.888 193.354 471.104 194.219 473.36 194.97C474.56 195.42 475.72 195.91 476.85 196.43C477.364 196.635 477.802 196.994 478.104 197.458C478.407 197.921 478.559 198.467 478.54 199.02C478.54 199.92 477.97 200.48 476.85 200.71C475.925 200.907 474.985 201.017 474.04 201.04C471.672 201.072 469.305 200.962 466.95 200.71C465.22 200.48 463.61 200.3 462.11 200.14C460.61 199.98 458.51 199.92 455.81 199.92C453.26 199.92 451.2 200 449.62 200.14C448.04 200.28 446.4 200.48 444.62 200.71C442.324 200.942 440.017 201.038 437.71 201Z" fill="#ED057D"/>
<path d="M557 201C555.907 200.989 554.815 200.916 553.73 200.78C552.46 200.63 551.82 200.03 551.82 198.98C551.798 198.426 551.949 197.879 552.252 197.415C552.555 196.951 552.994 196.593 553.51 196.39C554.63 195.87 555.79 195.39 557 194.93C559.19 194.205 561.331 193.339 563.41 192.34C565.41 191.34 566.41 189.34 566.41 186.15V124.54C566.41 121.54 565.54 119.48 563.82 118.36C561.972 117.18 559.946 116.305 557.82 115.77C556.62 115.327 555.454 114.799 554.33 114.19C553.838 113.989 553.415 113.647 553.115 113.208C552.814 112.769 552.649 112.252 552.64 111.72C552.64 110.67 553.28 110.07 554.55 109.92C555.635 109.782 556.726 109.705 557.82 109.69C560.82 109.69 563.03 109.77 564.45 109.92C565.87 110.07 567.27 110.26 568.62 110.48C570.558 110.746 572.514 110.86 574.47 110.82C576.426 110.87 578.383 110.757 580.32 110.48C581.51 110.26 582.83 110.07 584.25 109.92C585.67 109.77 587.81 109.69 590.67 109.69C591.76 109.705 592.849 109.782 593.93 109.92C595.2 110.07 595.84 110.67 595.84 111.72C595.831 112.252 595.666 112.769 595.365 113.208C595.065 113.647 594.642 113.989 594.15 114.19C593.027 114.796 591.865 115.323 590.67 115.77C588.544 116.307 586.518 117.181 584.67 118.36C582.95 119.48 582.09 121.55 582.09 124.54V148.17C582.073 148.303 582.084 148.438 582.12 148.567C582.157 148.696 582.219 148.816 582.303 148.921C582.387 149.025 582.491 149.112 582.609 149.175C582.727 149.238 582.856 149.278 582.99 149.29C583.429 149.422 583.882 149.5 584.34 149.52H626.19C626.346 149.511 626.498 149.466 626.633 149.388C626.769 149.31 626.884 149.201 626.97 149.07C627.226 148.669 627.346 148.195 627.31 147.72V124.54C627.31 121.54 626.56 119.48 625.06 118.36C623.371 117.142 621.463 116.263 619.44 115.77C618.24 115.327 617.074 114.799 615.95 114.19C615.458 113.989 615.035 113.647 614.735 113.208C614.434 112.769 614.269 112.252 614.26 111.72C614.26 110.667 614.86 110.067 616.06 109.92C617.181 109.773 618.31 109.697 619.44 109.69C622.44 109.69 624.61 109.77 625.96 109.92C627.31 110.07 628.62 110.26 629.9 110.48C631.801 110.75 633.721 110.864 635.64 110.82C637.646 110.869 639.652 110.755 641.64 110.48C642.91 110.26 644.3 110.07 645.8 109.92C647.3 109.77 649.47 109.69 652.33 109.69C653.457 109.697 654.582 109.774 655.7 109.92C656.9 110.067 657.5 110.667 657.5 111.72C657.491 112.252 657.326 112.769 657.025 113.208C656.725 113.647 656.302 113.989 655.81 114.19C654.687 114.796 653.525 115.323 652.33 115.77C650.124 116.348 648.005 117.219 646.03 118.36C644.03 119.48 643.1 121.55 643.1 124.54V186.19C643.1 189.19 644.19 191.19 646.36 192.27C648.513 193.32 650.731 194.232 653 195C654.2 195.45 655.36 195.94 656.49 196.46C657.004 196.665 657.442 197.024 657.744 197.488C658.047 197.951 658.199 198.497 658.18 199.05C658.18 200.103 657.54 200.703 656.26 200.85C655.177 200.963 654.089 201.013 653 201C650.745 201.032 648.491 200.921 646.25 200.67C644.6 200.44 643.06 200.26 641.64 200.1C640.22 199.94 638.15 199.88 635.45 199.88C632.75 199.88 630.87 199.96 629.38 200.1C627.89 200.24 626.38 200.44 624.76 200.67C622.483 200.927 620.191 201.038 617.9 201C616.81 200.989 615.721 200.916 614.64 200.78C613.36 200.63 612.73 200.03 612.73 198.98C612.709 198.428 612.859 197.882 613.16 197.419C613.46 196.955 613.897 196.596 614.41 196.39C615.54 195.87 616.7 195.39 617.9 194.93C620.104 194.2 622.248 193.297 624.31 192.23C626.31 191.23 627.31 189.16 627.31 186.15V158.07C627.31 157.47 627.23 157.13 627.09 157.07C626.875 156.979 626.643 156.938 626.41 156.95H582.83C582.712 156.934 582.592 156.959 582.49 157.021C582.388 157.083 582.31 157.178 582.27 157.29C582.175 157.696 582.138 158.113 582.16 158.53V186.2C582.16 189.35 583.24 191.42 585.42 192.39C587.588 193.366 589.804 194.231 592.06 194.98C593.25 195.43 594.42 195.92 595.54 196.44C596.056 196.643 596.495 197.001 596.798 197.465C597.101 197.929 597.252 198.476 597.23 199.03C597.23 200.08 596.59 200.68 595.32 200.83C594.238 200.966 593.15 201.039 592.06 201.05C589.805 201.082 587.551 200.972 585.31 200.72C583.65 200.49 582.12 200.31 580.69 200.15C579.26 199.99 577.21 199.93 574.51 199.93C571.81 199.93 569.93 200.01 568.43 200.15C566.93 200.29 565.43 200.49 563.82 200.72C561.555 200.958 559.277 201.052 557 201Z" fill="#ED057D"/>
<path d="M674.18 201C673.235 200.978 672.294 200.868 671.37 200.67C670.24 200.44 669.68 199.88 669.68 198.98C669.658 198.426 669.809 197.879 670.112 197.415C670.415 196.951 670.854 196.593 671.37 196.39C672.49 195.87 673.65 195.39 674.85 194.93C676.979 194.232 679.048 193.366 681.04 192.34C682.92 191.34 683.85 189.34 683.85 186.34V132.87C683.976 129.107 683.165 125.372 681.49 122C679.92 119.07 677.25 117.24 673.49 116.48C672.639 116.207 671.841 115.791 671.13 115.25C670.683 114.982 670.313 114.603 670.057 114.148C669.801 113.694 669.667 113.181 669.67 112.66C669.67 111.76 670.38 111.05 671.81 110.52C672.708 110.134 673.653 109.868 674.62 109.73C676.875 109.701 679.129 109.814 681.37 110.07C683.46 110.323 685.565 110.437 687.67 110.41H725.24C728.4 110.488 731.561 110.301 734.69 109.85C736.17 109.526 737.676 109.335 739.19 109.28C739.559 109.398 739.9 109.593 740.19 109.85C740.45 110.043 740.657 110.297 740.793 110.591C740.93 110.884 740.99 111.207 740.97 111.53C740.97 113.53 740.82 116.26 740.52 119.86C740.22 123.46 740.07 126.46 740.07 128.86C740.064 130.891 739.914 132.92 739.62 134.93C739.32 137.04 738.5 138.08 737.15 138.08C735.8 138.08 734.22 135.24 732.87 129.53C732.432 127.457 731.633 125.476 730.51 123.68C729.483 121.986 728.146 120.5 726.57 119.3C725.228 118.227 723.567 117.632 721.85 117.61C720.85 117.61 719.22 117.61 717.12 117.5C715.02 117.39 712.96 117.38 710.94 117.38H706.55C703.55 117.38 701.63 118.51 700.81 120.76C700.124 122.406 699.705 124.151 699.57 125.93V186.46C699.57 189.46 700.733 191.46 703.06 192.46C705.39 193.46 707.67 194.3 709.92 195.05C711.12 195.5 712.29 195.99 713.41 196.51C713.926 196.713 714.365 197.071 714.668 197.535C714.971 197.999 715.122 198.546 715.1 199.1C715.1 200.15 714.46 200.75 713.19 200.9C712.129 200.992 711.064 201.026 710 201C707.745 201.031 705.491 200.921 703.25 200.67C701.6 200.44 700.07 200.26 698.64 200.1C697.21 199.94 695.15 199.88 692.45 199.88C689.9 199.88 687.84 199.96 686.27 200.1C684.7 200.24 683.04 200.44 681.27 200.67C678.915 200.921 676.548 201.032 674.18 201Z" fill="#ED057D"/>
<path d="M199.7 115.57C209.154 109.163 218.777 103.036 228.57 97.1898C295.52 57.1898 347.57 44.1898 348.13 44.0498" fill="#ED057D"/>
<path d="M345.09 43.8199C359.209 34.749 374.855 28.3116 391.27 24.8199C400.86 22.8199 418.32 23.5398 419.36 28.5898C420.4 33.6398 409 40.2398 395 43.1098C378.542 46.3548 361.633 46.5954 345.09 43.8199Z" fill="#ED057D"/>
<path d="M319.61 57.8499C332.28 57.5725 344.872 59.8935 356.61 64.6699C363.38 67.5099 373.72 75.7699 371.99 79.8699C370.26 83.9699 360.24 83.6599 350.36 79.5199C338.74 74.4681 328.276 67.0938 319.61 57.8499Z" fill="#ED057D"/>
<path d="M274.64 76.7197C286.944 78.1108 298.796 82.1684 309.37 88.6097C315.43 92.4297 323.88 102.2 321.37 106.14C318.86 110.08 309.17 108.42 300.37 102.89C289.99 96.1441 281.209 87.2126 274.64 76.7197Z" fill="#ED057D"/>
<path d="M312.47 52.57C312.953 40.1579 315.663 27.9336 320.47 16.48C323.35 9.78997 331.12 -0.520042 334.6 0.969958C338.08 2.45996 337.25 12.17 333.06 21.89C328.083 33.2636 321.109 43.6542 312.47 52.57Z" fill="#ED057D"/>
<path d="M283.75 66.0901C280.452 53.205 279.91 39.7689 282.16 26.6601C283.56 19.0801 289.82 6.6601 294.55 7.5801C299.28 8.5001 301.34 18.8001 299.32 29.8201C296.735 42.8696 291.43 55.228 283.75 66.0901Z" fill="#ED057D"/>
<path d="M246.63 82.7699C246.63 82.7699 243.03 72.7699 246.29 59.1099C247.49 54.1699 252.29 45.2099 255.79 44.6399C259.29 44.0699 260.55 49.9299 258.79 57.1099C255.55 70.7199 246.63 82.7699 246.63 82.7699Z" fill="#ED057D"/>
<path d="M233.65 100.29C242.086 97.9906 250.984 97.9906 259.42 100.29C264.66 101.66 273.92 107.11 274.15 110.9C274.38 114.69 267.92 116 260.3 114C245.82 110.25 233.65 100.29 233.65 100.29Z" fill="#ED057D"/>
</svg>
