<svg width="937" height="442" viewBox="0 0 937 442" fill="none" xmlns="http://www.w3.org/2000/svg">
<path d="M61.8404 205C54.8489 204.986 47.8628 204.609 40.9103 203.87C35.1007 203.401 29.3637 202.27 23.8104 200.5C21.0912 199.512 18.4889 198.227 16.0504 196.67C13.7079 195.147 11.9904 192.833 11.2104 190.15C10.4637 187.604 9.67701 184.227 8.85034 180.02C8.10827 176.543 7.69314 173.005 7.61035 169.45C7.61788 168.219 7.84826 166.999 8.29034 165.85C8.74034 164.65 9.41034 163.97 10.2903 163.85C10.8976 163.905 11.4823 164.108 11.9931 164.441C12.5039 164.773 12.9253 165.227 13.2203 165.76C14.0435 166.879 14.6537 168.14 15.0204 169.48C18.1036 178.481 24.2845 186.094 32.4604 190.96C40.7993 195.865 50.3271 198.38 60.0004 198.23C68.4004 198.23 75.6003 196.28 81.6003 192.38C87.722 188.372 92.8515 183.024 96.6003 176.74C100.697 169.913 103.766 162.521 105.71 154.8C107.801 146.775 109.084 138.561 109.54 130.28C109.644 129.949 109.657 129.596 109.578 129.259C109.498 128.921 109.33 128.611 109.09 128.36C108.64 127.99 108.26 127.95 107.96 128.25C104.857 131.895 101.215 135.045 97.1603 137.59C93.8313 139.564 90.0304 140.6 86.1603 140.59C83.375 140.57 80.6216 139.995 78.0604 138.9C75.3937 137.767 72.6937 136.604 69.9604 135.41C67.4071 134.21 64.7404 133.087 61.9604 132.04C59.194 130.99 56.2592 130.455 53.3004 130.46C50.0957 130.416 46.8943 130.681 43.7404 131.25C41.5035 131.659 39.3152 132.299 37.2104 133.16L32.6003 135.16C32.0003 135.46 31.4403 135.27 30.9103 134.59C30.443 134.058 30.1652 133.387 30.1204 132.68C30.8147 131.701 31.609 130.796 32.4904 129.98C34.4638 127.97 36.5684 126.092 38.7903 124.36C41.4469 122.237 44.3115 120.387 47.3404 118.84C50.07 117.357 53.1146 116.548 56.2203 116.48C59.7734 116.428 63.3108 116.962 66.6904 118.06C69.7637 119.107 72.6503 120.23 75.3503 121.43C78.017 122.477 80.6037 123.527 83.1104 124.58C85.491 125.611 88.0561 126.149 90.6504 126.16C93.9031 126.239 97.1526 125.903 100.32 125.16C102.915 124.482 105.412 123.473 107.75 122.16C108.35 121.86 108.84 121.63 109.21 121.48C109.58 121.33 109.7 120.81 109.55 119.91C109.033 109.766 106.748 99.7893 102.8 90.4302C99.2076 81.6933 93.4834 73.9957 86.1504 68.0402C78.9504 62.2736 70.0237 59.3869 59.3704 59.3802C52.6091 59.3253 45.9094 60.6667 39.6904 63.3202C33.9304 65.727 28.7237 69.2866 24.3904 73.7802C20.3806 77.9127 17.5434 83.0382 16.1703 88.6302C15.8632 90.1564 15.4523 91.6599 14.9404 93.1302C14.802 93.7532 14.4821 94.3213 14.0211 94.7626C13.5602 95.204 12.9788 95.4989 12.3503 95.6102C11.3003 95.7602 10.6203 95.2002 10.3503 93.9202C10.0669 92.778 9.91593 91.607 9.90039 90.4302C10.1017 86.2654 10.539 82.1154 11.2104 78.0002C11.9637 73.2802 12.6304 69.2802 13.2104 66.0002C13.5104 64.3502 13.8504 62.8102 14.2104 61.3802C14.5704 59.9502 15.2104 59.2502 16.1204 59.2502C18.9833 58.9124 21.8087 58.3098 24.5604 57.4502C28.2404 56.4002 31.1203 55.6502 33.2203 55.2002C38.3771 54.0989 43.6023 53.3472 48.8604 52.9502C54.4937 52.5036 59.107 52.2769 62.7004 52.2702C72.0591 52.1849 81.3196 54.1832 89.8104 58.1202C98.0642 61.9732 105.481 67.4094 111.64 74.1202C124.394 87.9723 131.426 106.142 131.32 124.97C131.315 134.968 129.624 144.894 126.32 154.33C123.131 163.652 118.328 172.341 112.13 180C106.098 187.495 98.6155 193.696 90.1304 198.23C81.4088 202.801 71.6863 205.128 61.8404 205Z" fill="#ED057D"/>
<path d="M235.54 204.75C232.707 204.778 229.889 204.322 227.21 203.4C224.535 202.43 222.059 200.984 219.9 199.13C217.243 196.835 214.83 194.271 212.7 191.48C209.842 187.79 207.172 183.959 204.7 180C201.547 174.9 198.923 170.567 196.83 167C195.056 163.804 192.73 160.946 189.96 158.56C187.487 156.56 184 155.56 179.5 155.56C178 155.56 177.25 156.23 177.25 157.56V187.71C177.25 190.863 178.377 192.89 180.63 193.79C182.883 194.69 185.133 195.513 187.38 196.26C188.58 196.71 189.74 197.2 190.86 197.72C191.376 197.923 191.815 198.281 192.118 198.745C192.421 199.21 192.572 199.756 192.55 200.31C192.55 201.31 191.84 201.96 190.41 202.11C188.98 202.26 187.97 202.34 187.41 202.34C185.155 202.369 182.901 202.256 180.66 202C179 201.77 177.47 201.59 176.04 201.44C174.61 201.29 172.56 201.21 169.86 201.21C167.16 201.21 165.28 201.29 163.78 201.44C162.28 201.59 160.78 201.77 159.17 202C156.893 202.262 154.602 202.375 152.31 202.34C151.71 202.34 150.69 202.26 149.31 202.11C147.93 201.96 147.17 201.36 147.17 200.31C147.148 199.756 147.299 199.21 147.602 198.745C147.905 198.281 148.344 197.923 148.86 197.72C149.98 197.2 151.14 196.72 152.35 196.26C154.603 195.513 156.777 194.8 158.87 194.12C160.963 193.44 162.013 191.53 162.02 188.39V127.39C162.02 124.057 161.197 121.583 159.55 119.97C157.936 118.342 155.916 117.175 153.7 116.59C152.502 116.147 151.336 115.622 150.21 115.02C149.718 114.816 149.296 114.472 148.995 114.032C148.695 113.591 148.53 113.073 148.52 112.54C148.52 111.34 149.23 110.71 150.66 110.63C152.09 110.55 153.1 110.52 153.66 110.52C155.799 110.484 157.939 110.558 160.07 110.74C161.34 110.89 162.58 111.08 163.78 111.3C165.644 111.574 167.527 111.688 169.41 111.64C171.366 111.69 173.323 111.577 175.26 111.3C176.46 111.08 177.77 110.89 179.19 110.74C180.61 110.59 182.76 110.52 185.61 110.52C186.2 110.52 187.22 110.52 188.61 110.63C190 110.74 190.75 111.34 190.75 112.54C190.74 113.073 190.575 113.591 190.275 114.032C189.975 114.472 189.552 114.816 189.06 115.02C187.936 115.62 186.774 116.145 185.58 116.59C183.343 117.185 181.317 118.394 179.73 120.08C178.07 121.81 177.25 124.39 177.25 127.84V148.77C177.21 149.066 177.265 149.366 177.407 149.629C177.549 149.891 177.771 150.101 178.04 150.23C178.575 150.456 179.15 150.571 179.73 150.57C187.377 150.57 193.187 148.62 197.16 144.72C201.135 140.815 204.505 136.339 207.16 131.44C208.807 128.593 210.343 125.743 211.77 122.89C213.115 120.171 214.695 117.575 216.49 115.13C218.164 112.857 220.314 110.977 222.79 109.62C225.538 108.216 228.596 107.528 231.68 107.62C235.58 107.62 238.393 108.62 240.12 110.62C241.736 112.37 242.657 114.649 242.71 117.03C242.78 119.198 242.149 121.33 240.91 123.11C240.351 123.909 239.6 124.554 238.726 124.985C237.852 125.417 236.884 125.622 235.91 125.58C233.951 125.439 232.056 124.821 230.39 123.78C228.762 122.764 226.913 122.154 225 122C224.198 121.94 223.393 122.05 222.637 122.322C221.88 122.594 221.19 123.023 220.61 123.58C219.637 124.633 218.55 125.907 217.35 127.4C216.026 129.33 214.859 131.363 213.86 133.48C212.384 136.4 210.762 139.244 209 142C207.489 144.53 205.503 146.745 203.15 148.52C202.55 148.97 202.32 149.31 202.47 149.52C202.62 149.73 202.84 150.09 203.15 150.52C206.437 155.62 209.36 160.38 211.92 164.8C214.48 169.22 216.957 173.31 219.35 177.07C221.972 181.003 224.988 184.658 228.35 187.98C231.623 191.136 235.534 193.554 239.82 195.07C241.434 195.507 242.958 196.229 244.32 197.2C244.801 197.541 245.194 197.99 245.468 198.511C245.743 199.032 245.891 199.611 245.9 200.2C245.9 201.1 244.96 202.07 243.08 203.13C240.743 204.297 238.15 204.854 235.54 204.75Z" fill="#ED057D"/>
<path d="M297.41 204.75C289.45 204.864 281.605 202.844 274.69 198.9C267.994 195.059 262.44 189.506 258.6 182.81C254.54 175.732 252.467 167.689 252.6 159.53C252.608 153.196 253.869 146.925 256.31 141.08C258.813 135.036 262.353 129.476 266.77 124.65C271.214 119.74 276.561 115.731 282.52 112.84C288.546 109.906 295.168 108.404 301.87 108.45C310.141 108.335 318.283 110.516 325.39 114.75C332.216 118.81 337.935 124.491 342.04 131.29C346.137 138.036 348.277 145.788 348.22 153.68C348.247 162.262 346.286 170.734 342.49 178.43C338.678 186.206 332.796 192.78 325.49 197.43C318.023 202.303 308.663 204.743 297.41 204.75ZM302.14 198C306.875 198.08 311.567 197.082 315.86 195.08C319.973 193.068 323.298 189.743 325.31 185.63C327.256 181.68 328.475 177.412 328.91 173.03C329.489 168.402 329.79 163.744 329.81 159.08C329.824 151.954 328.49 144.89 325.88 138.26C323.542 132.005 319.776 126.382 314.88 121.84C310.325 117.628 304.323 115.332 298.12 115.43C294.395 115.373 290.693 116.022 287.21 117.34C283.665 118.865 280.595 121.314 278.32 124.43C275.215 128.42 273.199 133.148 272.47 138.15C271.574 143.504 271.122 148.922 271.12 154.35C271.097 161.546 272.473 168.678 275.17 175.35C277.543 181.555 281.306 187.135 286.17 191.66C290.483 195.743 296.2 198.013 302.14 198Z" fill="#ED057D"/>
<path d="M366.71 202.28C365.62 202.266 364.531 202.189 363.45 202.05C362.17 201.9 361.54 201.3 361.54 200.25C361.519 199.698 361.669 199.153 361.97 198.689C362.27 198.225 362.707 197.866 363.22 197.66C364.35 197.14 365.51 196.66 366.71 196.2C368.9 195.477 371.042 194.611 373.12 193.61C375.12 192.637 376.12 190.577 376.12 187.43V125.78C376.12 122.78 375.26 120.71 373.53 119.59C371.683 118.409 369.657 117.534 367.53 117C366.334 116.553 365.168 116.028 364.04 115.43C363.55 115.223 363.131 114.879 362.833 114.439C362.535 113.999 362.37 113.482 362.36 112.95C362.36 111.9 362.99 111.3 364.27 111.15C365.352 111.014 366.44 110.941 367.53 110.93C370.53 110.93 372.743 111.004 374.17 111.15C375.59 111.3 376.98 111.49 378.33 111.71C380.268 111.976 382.224 112.09 384.18 112.05C386.136 112.101 388.093 111.987 390.03 111.71C391.23 111.49 392.54 111.3 393.97 111.15C395.4 111 397.53 110.93 400.38 110.93C401.47 110.941 402.559 111.014 403.64 111.15C404.92 111.304 405.56 111.904 405.56 112.95C405.548 113.483 405.381 114 405.082 114.44C404.782 114.88 404.361 115.224 403.87 115.43C402.742 116.028 401.576 116.553 400.38 117C398.253 117.534 396.227 118.409 394.38 119.59C392.65 120.71 391.79 122.78 391.79 125.78V149.4C391.772 149.667 391.854 149.931 392.021 150.14C392.187 150.349 392.426 150.488 392.69 150.53C393.13 150.654 393.583 150.728 394.04 150.75H436C436.158 150.743 436.312 150.698 436.449 150.62C436.586 150.542 436.703 150.432 436.79 150.3C437.042 149.897 437.161 149.425 437.13 148.95V125.78C437.13 122.78 436.37 120.71 434.88 119.59C433.188 118.373 431.276 117.493 429.25 117C428.054 116.553 426.888 116.028 425.76 115.43C425.27 115.223 424.851 114.879 424.553 114.439C424.255 113.999 424.09 113.482 424.08 112.95C424.08 111.904 424.68 111.304 425.88 111.15C426.998 111.007 428.123 110.934 429.25 110.93C432.25 110.93 434.427 111.004 435.78 111.15C437.13 111.3 438.44 111.49 439.71 111.71C441.611 111.98 443.531 112.093 445.45 112.05C447.456 112.1 449.463 111.986 451.45 111.71C452.73 111.49 454.12 111.3 455.62 111.15C457.12 111 459.29 110.93 462.14 110.93C463.27 110.934 464.399 111.007 465.52 111.15C466.72 111.304 467.32 111.904 467.32 112.95C467.308 113.483 467.141 114 466.842 114.44C466.542 114.88 466.121 115.224 465.63 115.43C464.502 116.028 463.336 116.553 462.14 117C459.934 117.58 457.816 118.451 455.84 119.59C453.84 120.71 452.92 122.78 452.92 125.78V187.43C452.92 190.43 454 192.43 456.18 193.5C458.333 194.542 460.551 195.444 462.82 196.2C464.02 196.65 465.18 197.14 466.3 197.66C466.816 197.863 467.255 198.222 467.558 198.686C467.861 199.15 468.012 199.696 467.99 200.25C467.99 201.25 467.35 201.9 466.08 202.05C464.999 202.189 463.91 202.265 462.82 202.28C460.565 202.309 458.311 202.196 456.07 201.94C454.41 201.71 452.88 201.53 451.45 201.38C450.02 201.23 447.97 201.15 445.27 201.15C442.717 201.15 440.69 201.227 439.19 201.38C437.69 201.53 436.19 201.71 434.58 201.94C432.303 202.202 430.012 202.315 427.72 202.28C426.627 202.265 425.535 202.189 424.45 202.05C423.18 201.9 422.54 201.3 422.54 200.25C422.518 199.696 422.669 199.15 422.972 198.686C423.275 198.222 423.714 197.863 424.23 197.66C425.35 197.14 426.51 196.66 427.72 196.2C429.924 195.468 432.067 194.566 434.13 193.5C436.13 192.5 437.13 190.43 437.13 187.43V159.3C437.13 158.7 437.05 158.37 436.9 158.3C436.688 158.212 436.459 158.174 436.23 158.19H392.58C392.462 158.173 392.341 158.196 392.238 158.256C392.134 158.316 392.054 158.409 392.01 158.52C391.92 158.927 391.883 159.344 391.9 159.76V187.44C391.9 190.594 392.987 192.654 395.16 193.62C397.328 194.595 399.545 195.459 401.8 196.21C403 196.66 404.16 197.15 405.29 197.67C405.804 197.876 406.242 198.235 406.544 198.698C406.847 199.162 406.999 199.707 406.98 200.26C406.98 201.307 406.34 201.907 405.06 202.06C403.979 202.199 402.89 202.276 401.8 202.29C399.545 202.319 397.291 202.206 395.05 201.95C393.4 201.72 391.86 201.54 390.44 201.39C389.02 201.24 386.95 201.16 384.25 201.16C381.697 201.16 379.673 201.237 378.18 201.39C376.68 201.54 375.18 201.72 373.56 201.95C371.286 202.208 368.998 202.319 366.71 202.28Z" fill="#ED057D"/>
<path d="M526 204.75C518.04 204.863 510.195 202.843 503.28 198.9C496.584 195.059 491.03 189.506 487.19 182.81C483.13 175.731 481.057 167.688 481.19 159.53C481.193 153.195 482.454 146.924 484.9 141.08C487.4 135.034 490.94 129.473 495.36 124.65C499.804 119.74 505.151 115.73 511.11 112.84C517.135 109.906 523.758 108.403 530.46 108.45C538.728 108.333 546.867 110.514 553.97 114.75C560.8 118.804 566.52 124.486 570.62 131.29C574.724 138.033 576.868 145.786 576.81 153.68C576.838 162.263 574.873 170.735 571.07 178.43C567.262 186.208 561.379 192.784 554.07 197.43C546.61 202.303 537.253 204.743 526 204.75ZM530.73 198C535.465 198.079 540.157 197.08 544.45 195.08C548.563 193.068 551.888 189.743 553.9 185.63C555.846 181.68 557.065 177.412 557.5 173.03C558.079 168.402 558.38 163.744 558.4 159.08C558.415 151.953 557.078 144.888 554.46 138.26C552.123 132.004 548.356 126.381 543.46 121.84C538.903 117.63 532.902 115.335 526.7 115.43C522.972 115.374 519.267 116.022 515.78 117.34C512.24 118.868 509.174 121.316 506.9 124.43C503.791 128.417 501.775 133.146 501.05 138.15C500.154 143.503 499.702 148.922 499.7 154.35C499.661 161.543 501.02 168.675 503.7 175.35C506.073 181.555 509.836 187.134 514.7 191.66C519.031 195.759 524.776 198.03 530.74 198H530.73Z" fill="#ED057D"/>
<path d="M651.79 205.43C649.68 205.43 648.04 204.08 646.79 201.43L616.41 133.93C615.96 132.93 615.59 132.32 615.29 132.24C614.99 132.16 614.69 132.73 614.39 133.93C614.092 136.019 613.901 138.122 613.82 140.23C613.6 143.83 613.3 148.067 612.92 152.94C612.54 157.813 612.207 162.727 611.92 167.68C611.62 172.633 611.397 176.967 611.25 180.68C611.103 184.393 611.027 186.727 611.02 187.68C611.02 190.68 611.77 192.68 613.27 193.68C615.03 194.778 616.921 195.649 618.9 196.27C620.1 196.72 621.26 197.21 622.38 197.73C622.896 197.933 623.336 198.291 623.638 198.755C623.941 199.22 624.092 199.766 624.07 200.32C624.07 201.22 623.51 201.78 622.38 202.01C621.456 202.21 620.515 202.324 619.57 202.35C617.428 202.388 615.286 202.275 613.16 202.01C611.73 201.78 610.38 201.6 609.16 201.45C607.166 201.266 605.163 201.19 603.16 201.22C601.467 201.175 599.772 201.252 598.09 201.45C597.27 201.6 596.41 201.78 595.51 202.01C593.575 202.307 591.617 202.42 589.66 202.35C588.712 202.324 587.768 202.21 586.84 202.01C585.72 201.78 585.16 201.22 585.16 200.32C585.157 199.741 585.355 199.178 585.719 198.728C586.084 198.278 586.593 197.968 587.16 197.85C588.51 197.4 589.78 196.95 590.99 196.5C593.256 195.744 595.471 194.842 597.62 193.8C599.8 192.75 601.03 190.72 601.34 187.72L607.64 128.55C607.94 124.8 607.07 122.02 605.05 120.22C602.906 118.364 600.301 117.12 597.51 116.62C596.263 116.265 595.079 115.718 594 115C593.487 114.75 593.05 114.369 592.734 113.894C592.417 113.42 592.233 112.869 592.2 112.3C592.2 111.4 592.8 110.87 594 110.72C594.972 110.588 595.95 110.514 596.93 110.5C597.68 110.5 599.03 110.57 600.93 110.72L606.66 111.17C608.54 111.32 609.85 111.4 610.6 111.4C611.35 111.4 612.6 111.4 614.76 111.28C616.92 111.16 618.62 111.17 619.83 111.17C620.205 111.174 620.573 111.266 620.905 111.44C621.237 111.614 621.524 111.864 621.74 112.17C622.159 112.678 622.496 113.248 622.74 113.86L654.02 178.66C654.77 180.16 655.4 180.99 655.93 181.14C656.46 181.29 657.02 180.61 657.62 179.14L682.14 124.69C683.34 122.143 684.503 119.33 685.63 116.25C686.75 113.18 687.63 111.64 688.22 111.64H695.64C699.09 111.64 702.73 111.46 706.55 111.08C710.37 110.7 712.55 110.52 713.19 110.52C714.135 110.542 715.076 110.652 716 110.85C717.13 111.08 717.69 111.64 717.69 112.54C717.67 113.084 717.502 113.613 717.205 114.07C716.907 114.526 716.49 114.892 716 115.13C714.919 115.786 713.746 116.278 712.52 116.59C710.233 117.204 708.01 118.035 705.88 119.07C703.7 120.12 702.62 122.07 702.62 124.92C702.62 131.073 702.73 136.66 702.95 141.68C703.17 146.7 703.433 151.573 703.74 156.3C704.04 161.033 704.373 165.873 704.74 170.82C705.107 175.767 705.37 181.317 705.53 187.47C705.68 190.62 706.8 192.68 708.91 193.65C711.032 194.638 713.209 195.502 715.43 196.24C716.63 196.69 717.79 197.18 718.92 197.7C719.434 197.905 719.872 198.264 720.175 198.728C720.477 199.191 720.629 199.737 720.61 200.29C720.61 201.19 720.04 201.75 718.92 201.98C717.996 202.18 717.055 202.294 716.11 202.32C713.815 202.346 711.521 202.233 709.24 201.98C707.52 201.75 705.87 201.57 704.24 201.42C702.61 201.27 700.53 201.19 697.83 201.19C695.13 201.19 693.18 201.27 691.53 201.42C689.88 201.57 688.23 201.75 686.58 201.98C684.256 202.24 681.918 202.354 679.58 202.32C678.632 202.294 677.688 202.18 676.76 201.98C675.64 201.75 675.08 201.19 675.08 200.29C675.059 199.738 675.209 199.192 675.51 198.729C675.811 198.265 676.247 197.906 676.76 197.7C677.89 197.18 679.05 196.7 680.25 196.24C682.379 195.542 684.449 194.676 686.44 193.65C688.313 192.677 689.25 190.617 689.25 187.47C689.25 182.223 689.177 174.76 689.03 165.08C688.884 155.4 688.434 145.313 687.68 134.82C687.534 133.02 687.2 132.27 686.68 132.57C685.833 133.301 685.177 134.228 684.77 135.27L655.52 201.87C654.56 204.22 653.28 205.43 651.79 205.43Z" fill="#ED057D"/>
<path d="M733.24 202.28C732.292 202.254 731.348 202.14 730.42 201.94C729.3 201.71 728.74 201.15 728.74 200.25C728.719 199.698 728.869 199.152 729.17 198.689C729.471 198.225 729.907 197.866 730.42 197.66C731.55 197.14 732.71 196.66 733.91 196.2C736.101 195.476 738.242 194.611 740.32 193.61C742.32 192.637 743.32 190.577 743.32 187.43V125.78C743.32 122.78 742.46 120.71 740.73 119.59C738.883 118.408 736.857 117.534 734.73 117C733.534 116.553 732.368 116.028 731.24 115.43C730.75 115.223 730.331 114.879 730.033 114.439C729.735 113.999 729.571 113.481 729.56 112.95C729.56 112.05 730.12 111.49 731.24 111.26C732.168 111.062 733.112 110.952 734.06 110.93C737.06 110.93 739.34 111 740.92 111.15C742.5 111.3 743.99 111.49 745.42 111.71C747.409 111.975 749.415 112.088 751.42 112.05C753.426 112.099 755.433 111.986 757.42 111.71C758.7 111.49 760.09 111.3 761.59 111.15C763.09 111 765.33 110.93 768.34 110.93C769.285 110.952 770.226 111.063 771.15 111.26C772.27 111.49 772.84 112.05 772.84 112.95C772.828 113.482 772.662 114 772.362 114.44C772.062 114.88 771.641 115.224 771.15 115.43C770.022 116.028 768.856 116.553 767.66 117C765.534 117.534 763.507 118.408 761.66 119.59C759.93 120.71 759.07 122.78 759.07 125.78V170.78C759.069 171.069 759.168 171.349 759.35 171.574C759.533 171.798 759.787 171.952 760.07 172.01C760.75 172.24 761.16 172.28 761.31 172.13L804.31 127.8C804.484 127.373 804.751 126.991 805.09 126.68C805.32 126.53 805.43 126.08 805.43 125.33C805.43 122.33 804.68 120.33 803.18 119.33C801.441 118.256 799.545 117.459 797.56 116.97C796.363 116.526 795.197 116.002 794.07 115.4C793.578 115.196 793.156 114.852 792.855 114.412C792.555 113.971 792.39 113.453 792.38 112.92C792.38 112.02 792.91 111.46 793.96 111.23C794.92 111.019 795.898 110.909 796.88 110.9C799.88 110.9 802.13 110.973 803.63 111.12C805.13 111.27 806.56 111.46 807.91 111.68C809.848 111.946 811.804 112.06 813.76 112.02C815.789 112.063 817.819 111.95 819.83 111.68C821.18 111.46 822.64 111.27 824.22 111.12C825.8 110.97 828.08 110.9 831.08 110.9C832.066 110.909 833.048 111.02 834.01 111.23C835.01 111.46 835.58 112.02 835.58 112.92C835.57 113.453 835.405 113.971 835.105 114.412C834.805 114.852 834.383 115.196 833.89 115.4C832.766 116 831.604 116.524 830.41 116.97C828.204 117.548 826.085 118.419 824.11 119.56C822.11 120.68 821.18 122.75 821.18 125.75V187.4C821.18 190.4 822.267 192.423 824.44 193.47C826.594 194.51 828.812 195.412 831.08 196.17C832.28 196.62 833.44 197.11 834.57 197.63C835.084 197.835 835.522 198.194 835.825 198.658C836.127 199.121 836.279 199.667 836.26 200.22C836.26 201.12 835.69 201.68 834.57 201.91C833.646 202.11 832.705 202.224 831.76 202.25C829.392 202.28 827.025 202.166 824.67 201.91C822.94 201.68 821.33 201.5 819.83 201.35C818.33 201.2 816.23 201.12 813.53 201.12C810.984 201.12 808.92 201.197 807.34 201.35C805.77 201.5 804.12 201.68 802.39 201.91C800.039 202.166 797.675 202.28 795.31 202.25C794.362 202.224 793.418 202.11 792.49 201.91C791.37 201.68 790.81 201.12 790.81 200.22C790.789 199.668 790.939 199.122 791.24 198.659C791.541 198.195 791.977 197.836 792.49 197.63C793.62 197.11 794.78 196.63 795.98 196.17C798.185 195.44 800.328 194.537 802.39 193.47C804.39 192.423 805.39 190.4 805.39 187.4V139.5C805.422 139.075 805.346 138.648 805.17 138.26C805.02 138.04 804.79 138.08 804.49 138.38L759.79 185C759.257 185.71 759.014 186.597 759.11 187.48C759.11 190.633 760.197 192.693 762.37 193.66C764.539 194.634 766.755 195.499 769.01 196.25C770.21 196.7 771.37 197.19 772.5 197.71C773.014 197.915 773.452 198.274 773.755 198.738C774.057 199.201 774.209 199.747 774.19 200.3C774.19 201.2 773.62 201.76 772.5 201.99C771.576 202.19 770.635 202.304 769.69 202.33C767.322 202.36 764.955 202.246 762.6 201.99C760.87 201.76 759.26 201.58 757.76 201.43C756.26 201.28 754.16 201.2 751.46 201.2C748.914 201.2 746.85 201.277 745.27 201.43C743.7 201.58 742.05 201.76 740.27 201.99C737.935 202.227 735.587 202.324 733.24 202.28Z" fill="#ED057D"/>
<path d="M851.36 203.85C848.383 203.877 845.421 203.421 842.59 202.5C839.923 201.6 838.59 200.627 838.59 199.58C838.59 197.18 839.79 195.98 842.19 195.98C846.045 196.048 849.797 194.728 852.76 192.26C855.964 189.56 858.768 186.418 861.09 182.93C863.637 179.183 866.037 175.583 868.29 172.13C870.957 168.23 872.957 165.53 874.29 164.03C875.648 162.461 877.29 161.161 879.13 160.2C881.07 159.15 881.38 158.48 880.03 158.2C873.87 157 869.07 154.637 865.63 151.11C862.19 147.583 860.463 142.583 860.45 136.11C860.333 131.205 861.968 126.419 865.06 122.61C868.295 118.75 872.484 115.802 877.21 114.06C882.493 112.062 888.102 111.069 893.75 111.13C895.85 111.13 898.027 111.167 900.28 111.24L907.28 111.47C909.68 111.55 912.15 111.58 914.71 111.58C917.27 111.58 919.32 111.58 920.44 111.47L924.16 111.24C925.493 111.167 927.593 111.13 930.46 111.13C931.517 111.16 932.571 111.274 933.61 111.47C934.96 111.69 935.61 112.26 935.61 113.16C935.599 113.692 935.434 114.209 935.134 114.647C934.833 115.086 934.412 115.428 933.92 115.63C932.796 116.233 931.634 116.761 930.44 117.21C928.303 117.752 926.307 118.748 924.59 120.13C922.93 121.48 922.11 123.88 922.11 127.33V188.33C922.11 191.483 923.16 193.393 925.26 194.06C927.36 194.727 929.537 195.44 931.79 196.2C932.99 196.65 934.15 197.14 935.27 197.66C935.786 197.863 936.225 198.221 936.528 198.686C936.831 199.15 936.982 199.696 936.96 200.25C936.96 201.25 936.25 201.9 934.82 202.05C933.39 202.2 932.38 202.28 931.82 202.28C929.525 202.306 927.231 202.193 924.95 201.94C923.23 201.71 921.61 201.53 920.12 201.38C918.63 201.23 916.52 201.15 913.82 201.15C911.12 201.15 909.24 201.23 907.74 201.38C906.24 201.53 904.74 201.71 903.13 201.94C900.853 202.202 898.562 202.315 896.27 202.28C895.67 202.28 894.65 202.2 893.27 202.05C891.89 201.9 891.13 201.3 891.13 200.25C891.108 199.696 891.259 199.15 891.562 198.686C891.865 198.221 892.304 197.863 892.82 197.66C893.94 197.14 895.1 196.66 896.31 196.2C898.563 195.453 900.813 194.63 903.06 193.73C905.307 192.83 906.43 190.803 906.43 187.65V163.58C906.43 162.08 905.76 161.33 904.43 161.33C902.714 161.074 900.984 160.924 899.25 160.88C898.036 160.882 896.827 161.033 895.65 161.33C893.435 162.131 891.54 163.629 890.25 165.6C888.603 167.853 885.98 171.83 882.38 177.53C879.561 181.983 876.479 186.264 873.15 190.35C870.181 194.087 866.696 197.383 862.8 200.14C859.469 202.544 855.468 203.842 851.36 203.85ZM894.36 154.8C897.261 154.864 900.16 154.596 903 154C905.173 153.48 906.26 152.48 906.26 151V126.23C906.26 122.777 905.323 120.487 903.45 119.36C901.57 118.24 898.24 117.68 893.45 117.68C891.251 117.635 889.068 118.064 887.049 118.937C885.031 119.81 883.223 121.107 881.75 122.74C878.658 125.963 876.959 130.274 877.02 134.74C876.993 139.77 878.703 144.655 881.86 148.57C883.288 150.534 885.167 152.125 887.339 153.209C889.511 154.293 891.912 154.839 894.34 154.8H894.36Z" fill="#ED057D"/>
<path d="M5.80977 378.28C4.7196 378.266 3.63115 378.189 2.54976 378.05C1.27976 377.9 0.639783 377.3 0.639783 376.25C0.61788 375.696 0.768788 375.15 1.07161 374.685C1.37442 374.221 1.81415 373.863 2.32979 373.66C3.44979 373.14 4.60977 372.66 5.80977 372.2C8.0631 371.453 10.2398 370.74 12.3398 370.06C14.4398 369.38 15.4898 367.47 15.4898 364.33V303.33C15.4898 299.877 14.6631 297.363 13.0098 295.79C11.369 294.223 9.35539 293.101 7.15974 292.53C5.96615 292.085 4.80359 291.56 3.67976 290.96C3.1923 290.756 2.77435 290.415 2.47627 289.978C2.17819 289.542 2.01269 289.028 1.99977 288.5C1.99977 287.3 2.70978 286.67 4.13978 286.59C5.56978 286.51 6.56978 286.48 7.13978 286.48C10.1398 286.48 12.3164 286.517 13.6698 286.59C15.0198 286.67 16.2898 286.78 17.4898 286.93C19.2108 287.103 20.9403 287.176 22.6698 287.15C24.7698 287.15 26.6697 287.08 28.2897 286.93C29.9097 286.78 31.8197 286.63 33.9198 286.48C36.0197 286.33 38.5698 286.25 41.5698 286.25C52.9698 286.25 62.1931 287.937 69.2398 291.31C76.2864 294.683 79.8131 300.123 79.8198 307.63C79.8198 313.63 78.1531 318.39 74.8198 321.91C71.5744 325.405 67.3739 327.871 62.7398 329C62.3347 329.065 61.9489 329.219 61.6098 329.45C61.4598 329.6 61.8398 329.83 62.7398 330.13C65.9559 330.703 69.0653 331.766 71.9598 333.28C75.2448 334.916 78.1271 337.259 80.3998 340.14C82.7947 343.261 84.0286 347.118 83.8898 351.05C83.8898 358.103 82.0131 363.617 78.2598 367.59C74.5064 371.563 69.4464 374.337 63.0798 375.91C55.9618 377.573 48.6688 378.369 41.3598 378.28C38.7994 378.19 36.2458 377.963 33.7098 377.6C30.2038 377.157 26.6736 376.934 23.1398 376.93C19.8398 376.93 16.3531 377.04 12.6798 377.26C8.99976 377.49 6.33976 377.71 4.67976 377.94C3.01976 378.17 3.40977 378.28 5.80977 378.28ZM37.8098 326.53C47.2631 326.53 54.0531 324.84 58.1798 321.46C62.3064 318.08 64.3664 314.143 64.3598 309.65C64.3911 307.577 63.9984 305.519 63.2056 303.604C62.4129 301.688 61.2369 299.955 59.7498 298.51C56.6764 295.443 50.6398 293.907 41.6398 293.9C37.4398 293.9 34.6631 294.537 33.3098 295.81C32.6094 296.539 32.0696 297.407 31.7251 298.358C31.3806 299.309 31.2392 300.321 31.3098 301.33V320.9C31.3098 323.747 32.1731 325.413 33.8998 325.9C35.1579 326.258 36.4532 326.469 37.7598 326.53H37.8098ZM43.6597 370.85C51.1597 370.85 56.9731 369.313 61.0997 366.24C65.2264 363.167 67.2897 358.553 67.2897 352.4C67.2897 344.747 64.7398 339.647 59.6398 337.1C54.5398 334.553 47.9931 333.28 39.9998 333.28C37.8847 333.225 35.781 333.606 33.8198 334.4C32.0864 335.153 31.2231 336.653 31.2297 338.9V359.6C31.2297 363.35 32.2297 366.17 34.2297 368.04C36.2297 369.91 39.4098 370.85 43.6098 370.85H43.6597Z" fill="#ED057D"/>
<path d="M240 408.88C239.162 408.953 238.323 408.736 237.626 408.264C236.929 407.793 236.415 407.096 236.17 406.29C235.563 404.517 235.259 402.654 235.27 400.78C235.27 399.12 235.27 397.4 235.39 395.6C235.51 393.8 235.5 392.15 235.5 390.6C235.5 384.6 234.834 380.933 233.5 379.6C232.167 378.267 229.767 377.6 226.3 377.6H159.7C158.05 377.6 156.89 377.6 156.22 377.71C155.55 377.82 154.71 377.9 153.74 378.05C151.747 378.25 149.743 378.327 147.74 378.28C147.14 378.28 146.12 378.2 144.74 378.05C143.36 377.9 142.6 377.3 142.6 376.25C142.581 375.697 142.733 375.151 143.036 374.688C143.338 374.224 143.776 373.866 144.29 373.66C145.42 373.14 146.58 372.66 147.78 372.2C149.787 371.562 151.714 370.693 153.52 369.61C155.094 368.637 155.88 366.637 155.88 363.61V301.51C155.88 298.51 155.094 296.487 153.52 295.44C151.755 294.306 149.816 293.469 147.78 292.96C146.584 292.513 145.418 291.988 144.29 291.39C143.799 291.184 143.379 290.84 143.079 290.4C142.779 289.96 142.613 289.442 142.6 288.91C142.6 287.857 143.24 287.257 144.52 287.11C145.602 286.974 146.69 286.901 147.78 286.89C150.78 286.89 152.994 286.963 154.42 287.11C155.84 287.26 157.23 287.45 158.58 287.67C162.504 288.124 166.467 288.124 170.39 287.67C171.66 287.45 173.01 287.26 174.44 287.11C175.87 286.96 178 286.89 180.85 286.89C181.98 286.893 183.109 286.967 184.23 287.11C185.43 287.263 186.03 287.863 186.03 288.91C186.02 289.443 185.855 289.962 185.555 290.402C185.255 290.843 184.833 291.186 184.34 291.39C183.213 291.99 182.047 292.515 180.85 292.96C178.661 293.538 176.546 294.37 174.55 295.44C172.604 296.487 171.63 298.51 171.63 301.51V360.24C171.674 361.971 171.824 363.698 172.08 365.41C172.38 367.663 173.504 368.79 175.45 368.79H211.68C213.48 368.79 214.53 367.663 214.83 365.41C215.086 363.698 215.236 361.971 215.28 360.24V301.55C215.28 298.55 214.304 296.527 212.35 295.48C210.354 294.41 208.24 293.578 206.05 293C204.857 292.555 203.694 292.03 202.57 291.43C202.078 291.226 201.656 290.883 201.356 290.442C201.055 290.002 200.89 289.483 200.88 288.95C200.88 287.897 201.48 287.297 202.68 287.15C203.798 287.007 204.923 286.933 206.05 286.93C209.05 286.93 211.264 287.003 212.69 287.15C214.11 287.3 215.5 287.49 216.85 287.71C220.777 288.164 224.743 288.164 228.67 287.71C229.94 287.49 231.29 287.3 232.67 287.15C234.05 287 236.23 286.93 239.08 286.93C240.17 286.941 241.259 287.014 242.34 287.15C243.61 287.3 244.25 287.9 244.25 288.95C244.24 289.482 244.076 289.999 243.778 290.439C243.479 290.879 243.06 291.223 242.57 291.43C241.442 292.028 240.276 292.553 239.08 293C237.045 293.509 235.106 294.346 233.34 295.48C231.767 296.527 230.98 298.55 230.98 301.55V365.9C230.98 366.95 232.1 367.7 234.35 368.15C236.423 368.583 238.533 368.811 240.65 368.83C241.784 368.804 242.914 368.691 244.03 368.49C245.219 368.277 246.423 368.163 247.63 368.15C249.73 368.15 250.78 368.75 250.78 369.95V370.51C250.765 370.788 250.686 371.058 250.55 371.3L248.42 376.59C247.353 379.473 246.56 382.449 246.05 385.48C245.148 390.911 244.623 396.397 244.48 401.9C244.348 403.651 243.724 405.329 242.68 406.74C241.69 408.16 240.79 408.88 240 408.88Z" fill="#ED057D"/>
<path d="M261.41 378.28C260.465 378.254 259.524 378.14 258.6 377.94C257.47 377.71 256.91 377.15 256.91 376.25C256.888 375.696 257.039 375.149 257.342 374.685C257.645 374.221 258.085 373.863 258.6 373.66C259.72 373.14 260.88 372.66 262.09 372.2C264.28 371.475 266.421 370.609 268.5 369.61C270.5 368.61 271.5 366.61 271.5 363.43V301.78C271.5 298.78 270.63 296.71 268.91 295.59C267.062 294.41 265.036 293.535 262.91 293C261.713 292.556 260.547 292.032 259.42 291.43C258.928 291.226 258.506 290.882 258.206 290.442C257.905 290.001 257.74 289.483 257.73 288.95C257.73 288.05 258.29 287.49 259.42 287.26C260.345 287.062 261.285 286.952 262.23 286.93C265.23 286.93 267.517 287.003 269.09 287.15C270.67 287.3 272.17 287.49 273.59 287.71C275.579 287.974 277.585 288.088 279.59 288.05C281.596 288.099 283.603 287.985 285.59 287.71C286.86 287.49 288.25 287.3 289.75 287.15C291.25 287 293.5 286.93 296.5 286.93C297.445 286.952 298.386 287.062 299.31 287.26C300.44 287.49 301 288.05 301 288.95C300.99 289.483 300.825 290.001 300.525 290.442C300.225 290.882 299.803 291.226 299.31 291.43C298.186 292.03 297.024 292.554 295.83 293C293.704 293.536 291.679 294.411 289.83 295.59C288.11 296.71 287.25 298.78 287.25 301.78V346.78C287.247 347.069 287.345 347.351 287.528 347.576C287.711 347.8 287.966 347.954 288.25 348.01C288.92 348.24 289.34 348.28 289.49 348.13L332.49 303.8C332.664 303.371 332.934 302.987 333.28 302.68C333.5 302.53 333.62 302.08 333.62 301.33C333.62 298.33 332.86 296.33 331.37 295.33C329.628 294.256 327.728 293.459 325.74 292.97C324.544 292.523 323.378 291.998 322.25 291.4C321.76 291.193 321.341 290.849 321.043 290.409C320.745 289.969 320.581 289.451 320.57 288.92C320.57 288.02 321.09 287.46 322.14 287.23C323.103 287.02 324.085 286.909 325.07 286.9C328.07 286.9 330.32 286.973 331.82 287.12C333.31 287.27 334.74 287.46 336.09 287.68C338.028 287.946 339.984 288.06 341.94 288.02C343.973 288.063 346.005 287.95 348.02 287.68C349.37 287.46 350.83 287.27 352.4 287.12C353.97 286.97 356.26 286.9 359.27 286.9C360.252 286.909 361.231 287.02 362.19 287.23C363.19 287.46 363.77 288.02 363.77 288.92C363.758 289.452 363.592 289.97 363.292 290.41C362.992 290.85 362.571 291.194 362.08 291.4C360.952 291.998 359.786 292.523 358.59 292.97C356.385 293.55 354.266 294.421 352.29 295.56C350.29 296.68 349.37 298.75 349.37 301.75V363.4C349.37 366.4 350.45 368.4 352.63 369.47C354.783 370.512 357.001 371.413 359.27 372.17C360.47 372.62 361.63 373.11 362.75 373.63C363.266 373.833 363.706 374.191 364.008 374.655C364.311 375.119 364.462 375.666 364.44 376.22C364.44 377.12 363.88 377.68 362.75 377.91C361.826 378.11 360.885 378.224 359.94 378.25C357.572 378.279 355.205 378.166 352.85 377.91C351.13 377.68 349.51 377.5 348.02 377.35C346.53 377.2 344.42 377.12 341.72 377.12C339.02 377.12 337.1 377.2 335.53 377.35C333.96 377.5 332.3 377.68 330.53 377.91C328.176 378.166 325.808 378.279 323.44 378.25C322.495 378.224 321.554 378.11 320.63 377.91C319.5 377.68 318.94 377.12 318.94 376.22C318.918 375.666 319.069 375.119 319.372 374.655C319.675 374.191 320.115 373.833 320.63 373.63C321.75 373.11 322.91 372.63 324.12 372.17C326.324 371.438 328.467 370.535 330.53 369.47C332.53 368.47 333.53 366.4 333.53 363.4V315.5C333.565 315.073 333.486 314.645 333.3 314.26C333.15 314.04 332.93 314.08 332.63 314.38L288 361C287.472 361.712 287.232 362.598 287.33 363.48C287.33 366.63 288.41 368.69 290.59 369.66C292.758 370.636 294.974 371.5 297.23 372.25C298.43 372.7 299.59 373.19 300.71 373.71C301.226 373.913 301.666 374.271 301.968 374.735C302.271 375.199 302.422 375.746 302.4 376.3C302.4 377.2 301.84 377.76 300.71 377.99C299.786 378.19 298.845 378.304 297.9 378.33C295.532 378.359 293.165 378.246 290.81 377.99C289.09 377.76 287.47 377.58 285.98 377.43C284.49 377.28 282.38 377.2 279.68 377.2C276.98 377.2 275.06 377.28 273.49 377.43C271.92 377.58 270.26 377.76 268.49 377.99C266.138 378.229 263.774 378.326 261.41 378.28Z" fill="#ED057D"/>
<path d="M418.239 438.35C414.779 438.35 413.06 437.68 413.06 436.35C413.036 435.796 413.186 435.249 413.489 434.784C413.792 434.32 414.233 433.962 414.75 433.76C415.87 433.23 417.029 432.76 418.239 432.3C420.458 431.554 422.634 430.689 424.76 429.71C426.86 428.71 427.91 426.71 427.91 423.71V380.71C419.386 380.752 410.976 378.746 403.39 374.86C395.965 371.163 389.612 365.623 384.939 358.77C380.268 351.914 377.824 343.785 377.939 335.49C377.862 326.553 380.161 317.757 384.599 310C388.92 302.381 395.116 295.992 402.599 291.44C410.209 286.77 418.982 284.344 427.91 284.44V260.38C427.91 256.033 427.123 252.7 425.55 250.38C423.976 248.06 421.31 246.523 417.55 245.77C416.35 245.47 415.75 244.5 415.75 242.85C415.75 241.2 416.279 240.45 417.329 240.15C420.83 239.361 424.285 238.383 427.68 237.22C430.68 236.167 433.453 235.117 436 234.07C438.546 233.023 441.023 232.05 443.43 231.15C443.57 231.15 443.65 231.15 443.65 231.03C443.65 230.91 443.73 230.92 443.88 230.92C444.061 230.942 444.236 231.003 444.392 231.1C444.547 231.197 444.68 231.327 444.78 231.48C445.034 231.756 445.192 232.107 445.229 232.48C445.229 233.83 444.959 236.72 444.439 241.14C443.793 248.435 443.53 255.758 443.65 263.08V284.45C452.215 284.383 460.669 286.39 468.29 290.3C475.662 294.034 481.999 299.53 486.739 306.3C491.498 313.164 493.979 321.35 493.829 329.7C493.919 338.663 491.587 347.483 487.079 355.23C482.702 362.831 476.485 369.209 469 373.78C461.388 378.446 452.616 380.872 443.689 380.78V423.78C443.689 426.78 444.689 428.78 446.839 429.78C448.968 430.759 451.148 431.624 453.369 432.37C454.569 432.82 455.729 433.3 456.849 433.83C457.366 434.032 457.807 434.39 458.11 434.854C458.413 435.319 458.563 435.866 458.54 436.42C458.54 437.32 457.979 437.88 456.849 438.1C455.704 438.331 454.538 438.445 453.369 438.44C451.114 438.474 448.86 438.361 446.619 438.1C444.959 437.88 443.43 437.69 442 437.54C440.57 437.39 438.519 437.32 435.819 437.32C433.119 437.32 431.239 437.39 429.739 437.54C428.239 437.69 426.74 437.88 425.13 438.1C422.841 438.338 420.539 438.422 418.239 438.35ZM427.91 373.35V291.65C421.839 291.523 415.913 293.514 411.15 297.28C406.353 301.124 402.601 306.114 400.239 311.79C397.697 317.647 396.393 323.966 396.41 330.35C396.411 337.259 397.63 344.114 400.01 350.6C402.159 356.815 405.79 362.414 410.589 366.91C415.309 371.22 421.521 373.522 427.91 373.33V373.35ZM443.66 373.8C449.808 373.952 455.817 371.962 460.66 368.17C465.456 364.325 469.208 359.335 471.569 353.66C474.107 347.802 475.411 341.484 475.4 335.1C475.406 328.115 474.188 321.184 471.8 314.62C469.631 308.382 466.004 302.752 461.219 298.2C456.553 293.853 450.703 291.677 443.67 291.67L443.66 373.8Z" fill="#ED057D"/>
<path d="M510.71 441.73C509.725 441.701 508.745 441.587 507.78 441.39C506.58 441.16 505.98 440.6 505.98 439.7C505.961 439.147 506.113 438.602 506.416 438.138C506.718 437.675 507.156 437.316 507.67 437.11C508.8 436.59 509.96 436.11 511.16 435.65C513.381 434.913 515.558 434.048 517.68 433.06C519.78 432.094 520.83 430.094 520.83 427.06V313C520.725 311.165 520.389 309.351 519.83 307.6C519.122 305.109 518.021 302.746 516.57 300.6C515.894 299.544 515.003 298.643 513.956 297.954C512.908 297.264 511.727 296.803 510.49 296.6C510.195 296.528 509.92 296.39 509.686 296.196C509.452 296.002 509.265 295.757 509.14 295.48C508.851 294.924 508.697 294.307 508.69 293.68C508.659 293.049 508.816 292.423 509.14 291.88C509.404 291.46 509.802 291.143 510.27 290.98C515.237 289.849 520.121 288.382 524.89 286.59C528.937 285.01 532.763 283.474 536.37 281.98C536.52 281.98 536.59 281.98 536.59 281.86C536.59 281.74 536.67 281.75 536.82 281.75C537.12 281.75 537.42 281.98 537.72 282.43C538.002 282.825 538.159 283.295 538.17 283.78C538.103 285.926 537.916 288.066 537.61 290.19C537.274 292.54 537.084 294.907 537.04 297.28C536.964 297.956 537.042 298.64 537.27 299.28C539.78 297.061 542.534 295.135 545.48 293.54C549.824 291.047 554.378 288.939 559.09 287.24C563.763 285.449 568.716 284.498 573.72 284.43C581.52 284.43 588.157 286.494 593.63 290.62C599.135 294.783 603.474 300.293 606.23 306.62C609.13 313.019 610.627 319.965 610.62 326.99C610.62 333.735 609.319 340.417 606.79 346.67C604.261 353.016 600.602 358.851 595.99 363.89C591.398 368.947 585.905 373.105 579.79 376.15C573.644 379.221 566.861 380.8 559.99 380.76C557.451 380.705 554.926 380.37 552.46 379.76C549.555 379.09 546.699 378.224 543.91 377.17C541.569 376.371 539.393 375.151 537.49 373.57C537.34 373.57 537.19 374.44 537.04 376.16C536.89 377.88 536.78 379.68 536.71 381.56C536.64 383.44 536.59 384.56 536.59 385.05V427.1C536.562 428.006 536.765 428.905 537.18 429.711C537.594 430.518 538.207 431.206 538.96 431.71C540.591 432.865 542.422 433.706 544.36 434.19C546.36 434.71 548.12 435.197 549.64 435.65C550.84 436.1 552.01 436.59 553.13 437.11C553.646 437.313 554.085 437.672 554.388 438.136C554.691 438.6 554.842 439.146 554.82 439.7C554.82 440.6 554.22 441.16 553.02 441.39C551.982 441.597 550.928 441.71 549.87 441.73C546.225 441.769 542.581 441.579 538.96 441.16C535.562 440.762 532.142 440.575 528.72 440.6C526.173 440.6 524.11 440.677 522.53 440.83C520.96 440.97 519.34 441.16 517.69 441.39C515.373 441.649 513.042 441.763 510.71 441.73ZM563.36 373.73C566.2 373.598 568.988 372.919 571.57 371.73C575.155 370.143 578.432 367.936 581.25 365.21C584.768 361.77 587.527 357.631 589.35 353.06C591.523 347.96 592.61 341.66 592.61 334.16C592.61 325.494 591.483 318.517 589.23 313.23C586.977 307.944 584.203 303.97 580.91 301.31C577.964 298.798 574.508 296.955 570.78 295.91C567.924 295.098 564.978 294.644 562.01 294.56C558.188 294.604 554.409 295.368 550.87 296.81C547.453 298.097 544.206 299.797 541.2 301.87C538.567 303.75 537.253 305.214 537.26 306.26C537.26 309.56 537.26 312.89 537.15 316.26C537.04 319.63 537 322.9 536.92 326.05C536.84 329.2 536.77 332.05 536.7 334.48C536.63 336.91 536.58 338.87 536.58 340.22C536.533 346.034 537.969 351.764 540.75 356.87C543.26 361.666 546.794 365.851 551.1 369.13C555.22 372.23 559.307 373.78 563.36 373.78V373.73Z" fill="#ED057D"/>
<path d="M640.31 380.75C637.3 380.637 634.413 379.529 632.1 377.6C629.316 375.502 626.943 372.909 625.1 369.95C623.378 367.421 622.405 364.457 622.29 361.4C622.29 356.6 623.567 352.85 626.12 350.15C628.673 347.45 632.723 344.977 638.27 342.73L661.27 333.28C664.27 332.08 666.03 331.03 666.55 330.13C667.07 329.23 667.403 327.28 667.55 324.28L668 309.88C668.221 306.213 667.053 302.596 664.73 299.75C662.41 296.897 659.077 295.473 654.73 295.48C652.434 295.486 650.155 295.864 647.98 296.6C645.948 297.235 644.044 298.227 642.36 299.53C641.433 300.163 640.787 301.131 640.56 302.23C640.249 303.479 640.098 304.763 640.11 306.05C640.112 306.718 640.148 307.386 640.22 308.05C640.29 308.8 640.33 309.47 640.33 310.05C640.33 310.63 639.39 311.82 637.52 313.05C635.539 314.383 633.428 315.512 631.22 316.42C629.418 317.272 627.47 317.771 625.48 317.89C624.831 317.923 624.192 317.72 623.68 317.32C623.479 317.161 623.315 316.961 623.198 316.733C623.08 316.506 623.013 316.256 623 316C623.099 313.252 623.913 310.578 625.36 308.24C627.094 305.279 629.343 302.651 632 300.48C635.454 297.325 639.224 294.534 643.25 292.15C647.024 289.88 651.018 287.998 655.17 286.53C658.487 285.299 661.984 284.624 665.52 284.53C668.034 284.464 670.532 284.942 672.844 285.933C675.155 286.924 677.225 288.403 678.91 290.27C680.665 292.193 682.016 294.449 682.885 296.903C683.755 299.357 684.123 301.961 683.97 304.56L682.85 358.56C682.583 361.286 683.342 364.014 684.98 366.21C685.68 367.134 686.588 367.881 687.631 368.388C688.673 368.895 689.821 369.15 690.98 369.13C694.72 369.13 697.5 368.31 699.3 366.66C700.05 365.91 700.65 365.53 701.1 365.53C701.431 365.51 701.763 365.56 702.073 365.677C702.383 365.794 702.665 365.976 702.899 366.211C703.134 366.445 703.316 366.727 703.433 367.037C703.55 367.347 703.6 367.679 703.58 368.01C703.524 368.967 703.275 369.903 702.849 370.762C702.423 371.621 701.828 372.386 701.1 373.01C698.829 375.314 696.21 377.247 693.34 378.74C690.96 380.061 688.3 380.794 685.58 380.88C678.68 380.88 673.203 376.98 669.15 369.18H668.48C664.207 372.812 659.431 375.807 654.3 378.07C649.862 379.886 645.105 380.797 640.31 380.75ZM650.89 369.95C653.516 370.027 656.127 369.529 658.54 368.49C660.632 367.521 662.535 366.187 664.16 364.55C664.989 363.686 665.638 362.666 666.07 361.55C666.723 359.555 667.061 357.469 667.07 355.37L667.52 344.37C667.7 343.167 667.622 341.94 667.29 340.77C667.154 340.412 666.904 340.109 666.579 339.906C666.254 339.704 665.871 339.614 665.49 339.65C664.961 339.678 664.436 339.752 663.92 339.87C662.921 340.093 661.942 340.394 660.99 340.77C653.043 343.617 647.53 346.58 644.45 349.66C641.37 352.74 639.833 355.553 639.84 358.1C639.84 362 641.003 364.96 643.33 366.98C645.385 368.895 648.081 369.972 650.89 370V369.95Z" fill="#ED057D"/>
<path d="M710.51 378.5C709.524 378.492 708.541 378.378 707.58 378.16C706.58 377.94 706.01 377.38 706.01 376.48C705.996 375.914 706.149 375.356 706.449 374.876C706.75 374.396 707.184 374.015 707.7 373.78C708.799 373.188 709.968 372.734 711.18 372.43C713.652 371.561 715.971 370.305 718.05 368.71C720.37 366.99 723.106 363.953 726.26 359.6L743.58 335.53C744.633 334.33 745.123 333.39 745.05 332.71C744.9 331.858 744.558 331.051 744.05 330.35L725.6 302.23C724.274 299.857 722.65 297.663 720.77 295.7C719.204 294.279 717.306 293.274 715.25 292.78C714.038 292.476 712.869 292.022 711.77 291.43C711.254 291.195 710.82 290.814 710.519 290.334C710.219 289.854 710.066 289.296 710.08 288.73C710.08 287.53 710.79 286.89 712.22 286.81C713.65 286.73 714.65 286.7 715.22 286.7C717.286 286.661 719.352 286.738 721.41 286.93C722.54 287.08 723.85 287.23 725.35 287.38C726.85 287.53 729.4 287.6 733 287.6C734.952 287.634 736.905 287.56 738.85 287.38C740.717 287.198 742.593 287.121 744.47 287.15C745.07 287.15 746.08 287.15 747.47 287.26C748.86 287.37 749.61 287.98 749.61 289.18C749.616 289.597 749.503 290.007 749.283 290.362C749.063 290.716 748.746 291 748.37 291.18C747.477 291.658 746.535 292.037 745.56 292.31C744.475 292.624 743.42 293.035 742.41 293.54C741.917 293.764 741.503 294.13 741.221 294.592C740.94 295.054 740.803 295.59 740.83 296.13C740.906 297.17 741.174 298.187 741.62 299.13C742.228 300.568 742.943 301.959 743.76 303.29L754.11 318.82C754.71 319.82 755.38 319.82 756.11 318.82L767.59 301.49C768.708 300.077 769.339 298.341 769.39 296.54C769.39 294.74 768.413 293.54 766.46 292.94C765.266 292.495 764.103 291.97 762.98 291.37C762.487 291.166 762.065 290.822 761.765 290.382C761.465 289.942 761.3 289.423 761.29 288.89C761.29 287.69 762 287.06 763.43 286.98C764.86 286.9 765.86 286.87 766.43 286.87C767.63 286.87 769.36 286.98 771.61 287.2C773.626 287.416 775.652 287.529 777.68 287.54C780.618 287.637 783.558 287.45 786.46 286.98C788.234 286.595 790.045 286.407 791.86 286.42C792.842 286.429 793.82 286.54 794.78 286.75C795.78 286.98 796.36 287.54 796.36 288.44C796.35 288.973 796.185 289.491 795.884 289.932C795.584 290.372 795.162 290.716 794.67 290.92C793.542 291.52 792.377 292.045 791.18 292.49C788.354 293.337 785.636 294.508 783.08 295.98C779.94 297.699 777.246 300.127 775.21 303.07L761.03 324.44C760.854 324.833 760.742 325.252 760.7 325.68C760.674 325.985 760.711 326.292 760.807 326.582C760.903 326.873 761.057 327.141 761.26 327.37L783.18 363C784.568 365.357 786.316 367.482 788.36 369.3C790.1 370.699 792.083 371.767 794.21 372.45C795.424 372.756 796.596 373.209 797.7 373.8C798.212 374.038 798.644 374.42 798.943 374.899C799.241 375.379 799.393 375.935 799.38 376.5C799.38 377.4 798.86 377.96 797.81 378.18C796.848 378.398 795.866 378.512 794.88 378.52C791.88 378.52 789.71 378.44 788.36 378.3C787.01 378.16 785.55 377.99 783.97 377.85C782.39 377.71 779.73 377.62 775.97 377.62C773.27 377.62 770.496 377.697 767.65 377.85C764.8 377.99 762.1 378.07 759.55 378.07C756.096 378.07 754.37 377.32 754.37 375.82C754.325 375.246 754.439 374.67 754.698 374.155C754.957 373.641 755.352 373.207 755.84 372.9C757.14 372.169 758.542 371.637 760 371.32C761.552 370.911 763.032 370.266 764.39 369.41C764.99 369.051 765.483 368.538 765.819 367.925C766.155 367.311 766.321 366.619 766.3 365.92C766.307 365.268 766.205 364.619 766 364C765.748 363.251 765.412 362.533 765 361.86L751.72 340.26C751.641 340.155 751.54 340.069 751.422 340.01C751.305 339.951 751.176 339.92 751.045 339.92C750.913 339.92 750.784 339.951 750.667 340.01C750.55 340.069 750.448 340.155 750.37 340.26L735.52 362.54C735.37 362.84 735.15 363.4 734.85 364.22C734.549 365.05 734.397 365.927 734.4 366.81C734.408 367.86 734.679 368.892 735.19 369.81C735.427 370.276 735.76 370.687 736.167 371.016C736.573 371.345 737.044 371.585 737.55 371.72C738.75 372.17 739.91 372.66 741.04 373.18C741.553 373.386 741.989 373.745 742.29 374.209C742.591 374.672 742.741 375.218 742.72 375.77C742.72 376.823 742.01 377.423 740.59 377.57C739.16 377.72 738.15 377.8 737.59 377.8C736.39 377.8 734.59 377.72 732.08 377.57C729.57 377.42 727.46 377.35 725.66 377.35C722.612 377.271 719.564 377.459 716.55 377.91C714.561 378.305 712.538 378.503 710.51 378.5Z" fill="#ED057D"/>
<path d="M61.1498 54.7598C59.2698 37.8998 33.5598 3.9198 33.2998 3.5798L35.6198 1.81982C36.6998 3.23982 62.0798 36.8198 64.0398 54.4398L61.1498 54.7598Z" fill="#ED057D"/>
<path d="M59.9998 43.43L57.8698 42.6C50.1298 39.6 42.5198 31.6 37.5098 21.16C34.6296 15.3467 32.8851 9.03723 32.3698 2.57004L32.2197 0.290039L34.3497 1.12003C42.0897 4.12003 49.6998 12.12 54.7098 22.56C57.5899 28.3734 59.3344 34.6828 59.8497 41.15L59.9998 43.43ZM40.1198 19.9C44.2598 28.48 50.4498 35.51 56.6898 38.9C55.9595 33.6869 54.4033 28.6235 52.0798 23.9C47.9398 15.31 41.7498 8.28002 35.5098 4.90002C36.2457 10.1119 37.8016 15.1745 40.1198 19.9Z" fill="#ED057D"/>
<path d="M63.08 49.9998H60.1699C60.1699 46.4098 61.5399 41.9098 63.5599 36.2598L66.2999 37.2598C64.6399 41.8698 63.1 46.6298 63.08 49.9998Z" fill="#ED057D"/>
<path d="M63.1402 41.6803L62.9202 39.1503C62.6233 34.4393 63.2275 29.715 64.7002 25.2303C67.2702 17.0003 72.0002 9.82027 77.3702 6.00027L79.4502 4.53027L79.6702 7.06027C79.9746 11.778 79.3703 16.5104 77.8902 21.0003C75.3202 29.2203 70.5902 36.4103 65.2202 40.2303L63.1402 41.6803ZM76.8502 10.2103C72.9302 13.9203 69.4602 19.7503 67.4802 26.1003C66.4502 29.3052 65.8648 32.6362 65.7402 36.0003C69.6602 32.2903 73.1302 26.4603 75.1102 20.1103C76.1402 16.9053 76.7256 13.5743 76.8502 10.2103Z" fill="#ED057D"/>
<path d="M434 62.2302C443.13 59.7902 454.69 59.4402 468.38 61.1802C476.648 62.288 484.84 63.901 492.91 66.0102L494.75 66.4602C529.38 74.3102 566.6 64.7102 578.83 61.5502L579.92 61.2702C591.92 58.1802 606.52 62.5102 607.14 62.7002L606.35 65.3002C606.2 65.3002 591.89 61.0102 580.59 63.9002L579.51 64.1802C567.12 67.3802 529.42 77.1102 494.15 69.1202L492.24 68.6502C467.81 62.4602 448.45 61.1902 434.7 64.8602L434 62.2302Z" fill="#ED057D"/>
<path d="M573.84 63.7302C574.56 57.5202 581.9 51.9102 582.21 51.6802L583.85 53.8502C583.78 53.8502 577.13 58.9902 576.54 64.0402L573.84 63.7302Z" fill="#ED057D"/>
<path d="M549.35 67.59C555.15 63.59 564.03 59.67 573.35 63.59C576.772 65.0014 579.794 67.2338 582.15 70.09L579.97 71.73L581.06 70.91L579.97 71.73C577.879 69.236 575.212 67.2897 572.2 66.06C565.62 63.39 558.44 64.67 550.85 69.88L549.35 67.59Z" fill="#ED057D"/>
<path d="M519.53 69.5598C539.27 69.3498 548.83 59.3598 548.93 59.2598L550.93 61.1198C550.52 61.5598 540.55 72.0598 519.57 72.2798L519.53 69.5598Z" fill="#ED057D"/>
<path d="M509.78 71.5799L509.88 68.8599C521.538 69.2841 533.068 71.441 544.09 75.2599L543.09 77.7999C532.347 74.1228 521.126 72.0275 509.78 71.5799Z" fill="#ED057D"/>
<path d="M496.65 69.6598L496.94 66.9597C501.72 67.4697 517.85 68.0298 524.55 53.5098L527.02 54.6497C525.13 58.7397 517.37 71.8998 496.65 69.6598Z" fill="#ED057D"/>
<path d="M605.439 67.0898L609.74 70.3598C610.61 71.0198 610.929 70.9798 610.939 70.9798C610.949 70.9798 611.13 70.8898 611.4 70.3198C611.473 70.0194 611.46 69.7044 611.363 69.4109C611.265 69.1174 611.087 68.8572 610.849 68.6598L608.27 66.2398L611.8 66.3098C612.61 66.3098 612.659 66.0598 612.689 65.9098C612.762 65.5618 612.73 65.2 612.596 64.8705C612.463 64.541 612.234 64.2588 611.939 64.0598L608.699 62.6998L612.01 61.5198C612.206 61.4751 612.385 61.3765 612.528 61.2352C612.672 61.0938 612.772 60.9154 612.819 60.7198C612.597 60.5624 612.341 60.4603 612.071 60.422C611.802 60.3837 611.527 60.4104 611.27 60.4998L606.9 61.4298L610.01 58.2198C612.01 56.1098 615.919 53.5398 622.699 53.2998C628.189 53.0998 634.7 53.6798 636 59.9298C636.127 60.4968 636.13 61.0849 636.007 61.6531C635.885 62.2213 635.64 62.7559 635.29 63.2198C634.555 64.1495 633.59 64.8701 632.49 65.3098C635.49 67.1498 635.93 69.0898 635.67 70.5498C635.452 71.4666 635.027 72.3212 634.427 73.0477C633.827 73.7741 633.069 74.3531 632.209 74.7398C631.267 75.2247 630.255 75.5619 629.209 75.7398C629.73 76.2852 630.126 76.9366 630.371 77.6495C630.616 78.3623 630.704 79.1197 630.63 79.8698C630.52 80.6498 629.959 82.4898 626.949 82.9298C621.539 83.7298 611.06 79.5098 607.66 72.0498L605.439 67.0898ZM614.189 69.9598C614.192 70.4813 614.079 70.9969 613.859 71.4698C613.684 71.9337 613.416 72.3571 613.073 72.7146C612.729 73.0721 612.316 73.3562 611.859 73.5498C615.859 78.4298 623.249 80.6998 626.599 80.1998C626.999 80.1398 627.919 79.9598 627.979 79.4698C628.139 78.3298 626.98 76.9098 624.92 75.5698L619.76 72.2998L625.819 73.0798C629.819 73.5998 632.74 71.6598 633.02 70.0798C633.23 68.8698 631.31 67.3898 628.02 66.1898L622.41 64.1898L628.339 63.5798C630.539 63.3598 632.42 62.5798 633.12 61.6298C633.243 61.4743 633.33 61.2927 633.374 61.0986C633.417 60.9046 633.416 60.7032 633.37 60.5098C632.86 58.1298 631.209 55.7298 622.819 56.0298C619.796 56.0384 616.828 56.8383 614.209 58.3498C614.414 58.4839 614.605 58.638 614.78 58.8098C615.111 59.1417 615.352 59.5535 615.478 60.0054C615.604 60.4573 615.611 60.9342 615.5 61.3898C615.356 61.9831 615.075 62.5345 614.68 62.9998C615.362 64.0412 615.613 65.3069 615.38 66.5298C615.297 66.9444 615.128 67.3369 614.883 67.6816C614.639 68.0262 614.324 68.3153 613.959 68.5298C614.12 69.003 614.198 69.5002 614.189 69.9998V69.9598Z" fill="#ED057D"/>
<path d="M605.14 66.0798C605.14 65.4796 605.194 64.8806 605.3 64.2898C605.94 60.8098 607.96 58.3798 610.7 57.7998L611.27 60.4598C610.49 60.6198 608.6 61.3798 607.98 64.7798C607.67 66.4798 607.98 68.9498 609.68 70.3198L609.75 70.3698L608.08 72.5198C607.123 71.7485 606.359 70.7649 605.849 69.6471C605.339 68.5292 605.096 67.3078 605.14 66.0798Z" fill="#ED057D"/>
<path d="M579.2 47.5498C579.2 44.3498 580.65 41.3498 583.61 38.3898C587.97 34.0298 592.76 31.5898 596.12 32.0398C596.81 32.1076 597.474 32.3389 598.057 32.7146C598.639 33.0902 599.124 33.5994 599.47 34.1998C599.866 34.9671 600.094 35.8103 600.137 36.6728C600.18 37.5352 600.038 38.3969 599.72 39.1998C602.63 38.9898 603.65 40.4498 604 41.5198C604.41 42.7381 604.426 44.0545 604.045 45.2823C603.665 46.51 602.907 47.5867 601.88 48.3598C602.315 48.7944 602.64 49.3255 602.83 49.9098C603.013 50.5137 603.032 51.1554 602.884 51.7688C602.736 52.3822 602.428 52.9452 601.99 53.3998C599.44 56.3998 592.19 58.2198 586.78 57.2998L581.85 56.4698L586.53 54.6898C586.59 54.6549 586.638 54.6029 586.668 54.5406C586.699 54.4783 586.71 54.4084 586.7 54.3398C586.7 54.2698 586.7 54.2298 586.53 54.1898L584.45 53.7198L585.62 52.2098C585.534 51.8454 585.312 51.5274 585 51.3198C584.87 51.2498 584.71 51.1998 584.38 51.3998L581.27 53.3198L582.37 49.8298C582.492 49.6087 582.526 49.3499 582.464 49.1051C582.403 48.8602 582.252 48.6476 582.04 48.5098L581.97 48.4598C581.909 48.5394 581.858 48.6268 581.82 48.7198L579.57 53.5698L579.23 48.2398C579.21 48.0131 579.2 47.7831 579.2 47.5498ZM597.42 36.8298C597.432 36.3877 597.328 35.9501 597.12 35.5598C596.98 35.3204 596.782 35.1199 596.545 34.9766C596.307 34.8334 596.037 34.752 595.76 34.7398C593.76 34.4698 589.76 36.0798 585.53 40.3098C583.932 41.7719 582.764 43.6425 582.15 45.7198C582.727 45.7795 583.274 46.0092 583.72 46.3798C584.435 46.9113 584.93 47.6872 585.11 48.5598C585.529 48.6036 585.934 48.7329 586.3 48.9398C586.859 49.2743 587.331 49.7355 587.678 50.2862C588.026 50.8369 588.239 51.4616 588.3 52.1098C588.608 52.3505 588.862 52.6527 589.046 52.9971C589.23 53.3414 589.341 53.7204 589.37 54.1098C589.395 54.3324 589.395 54.5572 589.37 54.7798C593.68 54.8598 598.37 53.3098 599.9 51.5798C600.34 51.0798 600.26 50.8198 600.23 50.7298C600.12 50.3998 599.88 49.9898 598.99 49.7798L595.62 48.9798L598.62 47.2698C601.07 45.8898 602 44.2198 601.38 42.3298C601.13 41.5898 599.29 41.8198 597.58 42.3798L593.65 43.6598L596.05 40.2898C596.844 39.3001 597.321 38.0945 597.42 36.8298Z" fill="#ED057D"/>
<path d="M572.77 80.4098C572.757 77.9336 573.451 75.5051 574.77 73.4098L576.87 70.0998L577.27 74.0098C577.36 74.9098 577.74 75.3598 577.97 75.4398C578.2 75.5198 578.44 75.2598 578.55 75.1498C578.782 74.9116 578.95 74.6194 579.04 74.2998L579.63 71.9998L581.32 73.6698C581.621 73.9627 582.002 74.1605 582.414 74.2388C582.827 74.317 583.253 74.2721 583.64 74.1098C583.852 74.0606 584.052 73.9664 584.224 73.8335C584.397 73.7007 584.539 73.5323 584.64 73.3398C584.715 73.1747 584.753 72.9958 584.753 72.8148C584.753 72.6338 584.715 72.4549 584.64 72.2898L584.01 70.9198L585.43 70.4298C585.582 70.3783 585.726 70.3078 585.86 70.2198C585.953 70.1695 586.032 70.0974 586.09 70.0098C586.033 69.822 585.918 69.6573 585.76 69.5398L583 67.0698L586.7 67.1598C588.776 67.2 590.823 67.651 592.723 68.4869C594.623 69.3228 596.338 70.527 597.77 72.0298C600.94 75.3798 603.97 80.3898 602.07 83.4998C601.07 85.1698 599.07 85.4998 597.07 85.3498C597.288 85.9406 597.364 86.5744 597.29 87.1998C597.22 88.1192 596.921 89.0063 596.419 89.7801C595.918 90.5539 595.231 91.1899 594.42 91.6298C593.446 92.0635 592.353 92.1552 591.32 91.8898C591.254 92.622 591.027 93.3305 590.655 93.9648C590.283 94.5992 589.777 95.1438 589.17 95.5598C586.34 97.5598 582.11 96.5598 578.39 92.9898C575.878 90.5839 574.069 87.5378 573.16 84.1798C572.873 82.9444 572.742 81.6779 572.77 80.4098ZM575.98 77.2698C574.48 82.1198 576.79 87.5898 580.36 90.9898C582.6 93.1298 585.74 94.6698 587.7 93.2898C588.03 93.0598 589.05 92.2898 588.64 89.9998L588.1 86.9998L590.7 88.6098C591.068 88.9064 591.503 89.1081 591.967 89.197C592.431 89.286 592.909 89.2594 593.36 89.1198C593.754 88.8657 594.081 88.5202 594.312 88.1128C594.544 87.7054 594.673 87.2481 594.69 86.7798C594.75 86.3298 594.38 85.5698 593.6 84.5198C593.347 84.2797 593.184 83.9592 593.141 83.6127C593.097 83.2663 593.175 82.9154 593.36 82.6198L593.91 81.8198L594.91 82.0898C598 82.9898 599.5 82.6598 599.91 82.0898C600.32 81.5198 600.1 80.3998 599.52 79.0898C598.634 77.1896 597.43 75.4546 595.96 73.9598C594.091 71.9804 591.639 70.6491 588.96 70.1598C588.955 70.1997 588.955 70.24 588.96 70.2798C588.914 70.723 588.77 71.1504 588.538 71.531C588.307 71.9115 587.993 72.2357 587.62 72.4798C587.69 73.1897 587.566 73.9053 587.26 74.5498C586.986 75.1089 586.59 75.6 586.103 75.9874C585.615 76.3748 585.047 76.6489 584.44 76.7898C583.308 77.1407 582.09 77.0913 580.99 76.6498C580.875 76.8 580.752 76.9436 580.62 77.0798C580.209 77.5633 579.665 77.9157 579.055 78.0934C578.445 78.2711 577.797 78.2664 577.19 78.0798C576.739 77.901 576.332 77.6243 576 77.2698H575.98Z" fill="#ED057D"/>
<path d="M578.86 50.0001C578.845 49.1608 579.012 48.3283 579.35 47.5601L581.82 48.7001C581.583 49.4501 581.532 50.2468 581.674 51.0207C581.815 51.7947 582.143 52.5223 582.63 53.1401C583.1 53.8001 583.81 54.5201 586.39 54.6901C586.44 54.6998 586.491 54.6998 586.54 54.6901L587.48 57.2401C587.077 57.3872 586.649 57.4518 586.22 57.4301C583.34 57.2401 581.61 56.4301 580.4 54.7201C579.415 53.3419 578.878 51.6941 578.86 50.0001Z" fill="#ED057D"/>
<path d="M579.35 47.5798C579.52 47.1448 579.789 46.7555 580.136 46.443C580.484 46.1305 580.899 45.9034 581.35 45.7798C581.763 45.6911 582.191 45.6992 582.6 45.8032C583.009 45.9073 583.389 46.1046 583.71 46.3798C584.348 46.8639 584.814 47.54 585.039 48.3087C585.264 49.0774 585.236 49.898 584.96 50.6498L582.36 49.8298C582.481 49.6087 582.515 49.3498 582.454 49.105C582.393 48.8602 582.241 48.6476 582.03 48.5098L581.96 48.4598C581.898 48.5393 581.848 48.6268 581.81 48.7198L579.35 47.5798Z" fill="#ED057D"/>
<path d="M583 49.08C583.493 48.7554 584.066 48.571 584.656 48.5463C585.246 48.5216 585.831 48.6577 586.35 48.94C586.954 49.2848 587.46 49.778 587.821 50.3729C588.181 50.9678 588.384 51.6449 588.41 52.34C588.425 52.8322 588.265 53.3139 587.96 53.7L585.81 52.03C585.732 52.1339 585.69 52.2602 585.69 52.39C585.671 52.1749 585.604 51.9669 585.493 51.7816C585.382 51.5963 585.231 51.4385 585.05 51.32C584.92 51.25 584.76 51.2 584.43 51.4L583 49.08Z" fill="#ED057D"/>
<path d="M586.53 54.69C586.59 54.6551 586.638 54.6031 586.668 54.5408C586.699 54.4785 586.71 54.4086 586.7 54.34C586.7 54.27 586.7 54.23 586.53 54.19L587.14 51.54C587.754 51.6656 588.309 51.9889 588.721 52.4604C589.132 52.9318 589.378 53.5254 589.42 54.15C589.471 54.8037 589.31 55.4562 588.963 56.0123C588.616 56.5683 588.1 56.9985 587.49 57.24L586.53 54.69Z" fill="#ED057D"/>
<path d="M574.57 73.5302C574.571 73.0743 574.612 72.6193 574.69 72.1703C575.01 70.3903 577.06 68.0602 578.62 67.2402C582.43 65.2402 585.91 65.9002 587.62 67.4702L585.81 69.4702C585.08 68.8102 582.89 68.0102 579.81 69.6202C578.679 70.3337 577.798 71.3824 577.29 72.6202C577.212 73.0522 577.191 73.4929 577.23 73.9302L574.53 74.2102C574.53 73.983 574.543 73.7559 574.57 73.5302Z" fill="#ED057D"/>
<path d="M574.61 74.24L577.31 73.97C577.4 74.87 577.78 75.32 578.01 75.4C578.24 75.48 578.48 75.22 578.59 75.11C578.822 74.8717 578.99 74.5796 579.08 74.26L579.67 71.96L581.36 73.63C581.661 73.9229 582.042 74.1207 582.454 74.1989C582.867 74.2772 583.293 74.2324 583.68 74.07C583.893 74.0208 584.092 73.9265 584.264 73.7937C584.437 73.6609 584.579 73.4925 584.68 73.3C584.755 73.1349 584.793 72.956 584.793 72.775C584.793 72.594 584.755 72.4151 584.68 72.25L584.05 70.88L585.47 70.39C585.622 70.3385 585.767 70.2679 585.9 70.18C585.993 70.1297 586.072 70.0576 586.13 69.97C586.073 69.7821 585.958 69.6174 585.8 69.5L587.61 67.5C588.015 67.8248 588.337 68.2404 588.551 68.713C588.764 69.1856 588.863 69.7019 588.84 70.22C588.794 70.6632 588.65 71.0906 588.418 71.4711C588.187 71.8517 587.873 72.1758 587.5 72.42C587.57 73.1299 587.446 73.8454 587.14 74.49C586.866 75.0491 586.47 75.5402 585.983 75.9276C585.495 76.315 584.927 76.5891 584.32 76.73C583.188 77.0809 581.97 77.0315 580.87 76.59C580.755 76.7402 580.632 76.8838 580.5 77.02C580.089 77.5035 579.545 77.8559 578.935 78.0336C578.325 78.2113 577.677 78.2066 577.07 78.02C576.341 77.6921 575.721 77.1615 575.285 76.4913C574.849 75.8211 574.615 75.0396 574.61 74.24Z" fill="#ED057D"/>
<path d="M544.72 50.7697C544.691 49.2837 544.939 47.8053 545.45 46.4098C548.26 39.2298 554.05 33.5697 558.35 33.7997C559.255 33.8363 560.12 34.1786 560.805 34.7708C561.49 35.363 561.953 36.1699 562.12 37.0597C562.299 37.7112 562.386 38.3843 562.38 39.0597C563.726 38.3827 565.203 38.0062 566.708 37.9561C568.214 37.906 569.712 38.1836 571.1 38.7697C571.897 39.0984 572.598 39.621 573.141 40.2898C573.685 40.9587 574.052 41.7528 574.21 42.5998C574.65 44.9698 573.62 47.9098 571.49 50.5098C571.6 50.6498 571.72 50.7897 571.82 50.9297C573.06 52.6097 572.95 54.7897 571.54 56.9297C568.63 61.2997 560.9 64.8598 554.03 63.1998L550.03 62.1998L553.81 60.5897C554.67 60.2197 554.96 59.8098 554.97 59.6998C554.928 59.6076 554.863 59.5282 554.78 59.4698C554.323 59.1044 553.742 58.9321 553.16 58.9897L550.64 59.2598L551.8 57.0197C551.833 56.959 551.859 56.8954 551.88 56.8297C551.1 56.2897 550.88 56.5097 550.78 56.5797L549.14 58.0998L548.55 55.9498C548.526 55.8537 548.469 55.7689 548.39 55.7097C548.291 55.8523 548.21 56.0069 548.15 56.1698L546.83 59.7797L545.59 56.1497C545.017 54.4137 544.724 52.5978 544.72 50.7697ZM559.66 38.9997C559.664 38.5745 559.61 38.1506 559.5 37.7397C559.21 36.6797 558.68 36.5098 558.2 36.4798C557.2 36.4798 555.42 37.1098 553.28 39.1698C550.955 41.4989 549.149 44.2933 547.98 47.3697C547.396 49.1981 547.273 51.1422 547.62 53.0297C547.991 52.913 548.384 52.8848 548.768 52.9473C549.152 53.0098 549.515 53.1614 549.83 53.3898C550.015 53.514 550.186 53.6582 550.34 53.8198C550.876 53.7224 551.426 53.7388 551.955 53.868C552.484 53.9973 552.98 54.2363 553.41 54.5698C553.725 54.7738 553.993 55.0425 554.197 55.358C554.4 55.6735 554.534 56.0285 554.59 56.3997C555.328 56.5647 556.015 56.908 556.59 57.3997C556.993 57.7146 557.307 58.1296 557.5 58.6032C557.693 59.0769 557.758 59.5928 557.69 60.0998C557.647 60.3513 557.573 60.5965 557.47 60.8297C562.57 60.8797 567.54 57.9997 569.29 55.3597C570.07 54.1897 570.19 53.2297 569.65 52.4897C569.434 52.1934 569.162 51.9421 568.85 51.7498L567.4 50.8597L568.59 49.6398C570.7 47.4898 571.89 44.8397 571.59 43.0597C571.512 42.6431 571.329 42.2534 571.057 41.9278C570.786 41.6021 570.436 41.3515 570.04 41.1998C567.52 40.0698 564.61 40.5697 561.39 42.6797L558.15 44.8097L559.35 41.1298C559.564 40.4402 559.668 39.7216 559.66 38.9997Z" fill="#ED057D"/>
<path d="M519.8 42.7898C519.809 41.3386 519.959 39.8916 520.25 38.4698C521.14 34.0498 523.54 29.5398 526.41 29.4698C527.034 29.4746 527.643 29.6605 528.163 30.0049C528.683 30.3493 529.092 30.8374 529.34 31.4098C531.01 29.5498 533.4 27.4998 535.43 28.1498C536.79 28.5898 537.51 29.9498 537.55 32.1998C537.57 33.3445 537.53 34.4894 537.43 35.6298C538.061 35.3593 538.746 35.2428 539.43 35.2898C539.845 35.328 540.248 35.4484 540.615 35.6442C540.983 35.8399 541.307 36.107 541.57 36.4298C541.948 36.9749 542.191 37.6016 542.279 38.2586C542.368 38.9156 542.3 39.5842 542.08 40.2098C541.02 44.5898 535.84 51.3898 530.74 53.6098L525.92 55.7098L529.12 51.5398L529.21 51.4098L527.45 52.0198V50.1598C527.45 49.9393 527.417 49.7201 527.35 49.5098C526.987 49.7526 526.652 50.0343 526.35 50.3498L524.86 52.0498L524.12 50.0998L523.43 53.1598L521.69 50.0998C520.429 47.8714 519.778 45.3502 519.8 42.7898ZM527.61 34.4098C527.13 32.5798 526.61 32.1798 526.49 32.1798C525.73 32.1798 523.75 34.8698 522.92 38.9998C522.297 41.643 522.39 44.4047 523.19 46.9998C523.397 46.9319 523.613 46.8982 523.83 46.8998C524.409 46.8968 524.972 47.0868 525.43 47.4398C525.57 47.3298 525.71 47.2398 525.86 47.1398C526.225 46.8586 526.66 46.6852 527.118 46.6392C527.576 46.5932 528.037 46.6766 528.45 46.8798C529.091 47.2456 529.567 47.8433 529.78 48.5498C530.148 48.5439 530.512 48.6251 530.842 48.7868C531.172 48.9484 531.46 49.1859 531.68 49.4798C531.75 49.5704 531.81 49.6675 531.86 49.7698C535.36 47.2098 538.67 42.5698 539.4 39.5398C539.63 38.6198 539.5 38.2098 539.4 38.1298C539.372 38.0834 539.332 38.0446 539.285 38.0168C539.238 37.9889 539.185 37.9728 539.13 37.9698C538.71 37.9698 537.81 38.2798 536.55 39.3498L533.65 41.8398L534.33 38.0798C534.677 36.1464 534.834 34.1838 534.8 32.2198C534.834 31.7063 534.745 31.192 534.54 30.7198C533.97 30.7198 532.13 31.9598 529.99 34.8598L529.14 34.2398L527.64 34.6298L527.58 34.4098H527.61Z" fill="#ED057D"/>
<path d="M540.46 80.6902C540.46 80.5502 540.46 80.4002 540.46 80.2602L540.65 75.7702L542.98 79.6102C543.08 79.7725 543.197 79.9234 543.33 80.0602C543.33 79.819 543.31 79.5781 543.27 79.3402L542.67 75.5002L545.53 78.1302C545.583 78.1846 545.647 78.2263 545.718 78.2523C545.789 78.2783 545.865 78.2878 545.94 78.2802H546.13C546.049 78.1694 545.955 78.0687 545.85 77.9802L543.48 75.9802L546.48 75.5502C546.722 75.4715 546.937 75.3259 547.1 75.1302L547.18 75.0502C547.131 75.0102 547.077 74.9766 547.02 74.9502L543.74 73.2502L547.34 72.4102C548.933 72.0555 550.558 71.8678 552.19 71.8502C557.25 71.7602 562.86 73.6702 563.19 76.6502C563.34 78.1002 562.37 79.2402 560.33 80.0802C560.746 80.4043 561.128 80.7695 561.47 81.1702C563.56 83.6202 562.81 85.3502 562.39 85.9802C561.39 87.4002 559.39 87.9302 556.73 87.5202C556.75 88.1556 556.669 88.7902 556.49 89.4002C555.84 91.6702 553.64 92.8002 550.75 92.3302C548.1 91.8026 545.677 90.4724 543.81 88.5202C541.717 86.4458 540.515 83.6368 540.46 80.6902ZM545.97 81.0102C545.908 81.4322 545.735 81.83 545.468 82.1623C545.2 82.4947 544.849 82.7494 544.45 82.9002C544.159 83.008 543.849 83.0524 543.54 83.0302C543.997 84.3909 544.764 85.6268 545.78 86.6402C547.239 88.1691 549.13 89.2158 551.2 89.6402C552.2 89.8102 553.56 89.7802 553.89 88.6402C554.022 88.2733 554.063 87.88 554.011 87.4936C553.959 87.1072 553.814 86.739 553.59 86.4202L551.2 83.0902L555.11 84.3302C558.27 85.3302 559.88 84.8402 560.11 84.4702C560.2 84.3402 560.11 83.7902 559.39 82.9202C558.515 81.9811 557.386 81.3174 556.14 81.0102L550.57 79.4002L556.27 78.4002C559.47 77.8202 560.27 77.0902 560.45 76.8902C560.05 76.1202 556.69 74.5102 552.26 74.5902C551.47 74.5902 550.69 74.6602 549.95 74.7402C549.989 75.1659 549.931 75.595 549.78 75.9951C549.629 76.3951 549.39 76.7559 549.08 77.0502C548.96 77.1702 548.84 77.2902 548.72 77.3902C548.949 77.9545 548.97 78.5817 548.78 79.1602C548.574 79.7051 548.205 80.1737 547.724 80.5027C547.243 80.8316 546.673 81.0053 546.09 81.0002L545.97 81.0102Z" fill="#ED057D"/>
<path d="M545.26 57.2402C545.255 56.5587 545.37 55.8816 545.6 55.2402L548.15 56.1703C547.925 56.7671 547.901 57.4211 548.082 58.033C548.262 58.6448 548.637 59.1811 549.15 59.5602L549.28 59.6403C550.62 60.5503 551.85 61.2703 553.4 60.7603C553.516 60.724 553.63 60.6806 553.74 60.6302H553.82L554.9 63.1302H554.83C554.635 63.2186 554.435 63.2954 554.23 63.3602C551.29 64.3602 548.99 62.7502 547.74 61.9002L547.63 61.8203C546.888 61.3118 546.283 60.6275 545.869 59.8283C545.456 59.0291 545.247 58.14 545.26 57.2402Z" fill="#ED057D"/>
<path d="M545.6 55.2699C545.741 54.774 545.995 54.3175 546.342 53.9359C546.689 53.5543 547.119 53.2579 547.6 53.0699C547.971 52.9532 548.364 52.925 548.747 52.9875C549.131 53.05 549.495 53.2015 549.81 53.4299C549.995 53.5541 550.166 53.6983 550.32 53.8599C550.855 53.7625 551.406 53.7789 551.934 53.9082C552.463 54.0374 552.959 54.2765 553.39 54.6099C553.705 54.8139 553.973 55.0826 554.176 55.3981C554.38 55.7136 554.514 56.0687 554.57 56.4399C555.308 56.6048 555.995 56.9482 556.57 57.4399C556.973 57.7548 557.286 58.1697 557.479 58.6434C557.672 59.117 557.738 59.633 557.67 60.1399C557.504 60.837 557.161 61.4795 556.674 62.0051C556.187 62.5307 555.572 62.9216 554.89 63.1399L553.82 60.6399C554.68 60.2699 554.97 59.8599 554.98 59.7499C554.938 59.6577 554.872 59.5783 554.79 59.5199C554.333 59.1545 553.752 58.9823 553.17 59.0399L550.65 59.3099L551.81 57.0699C551.842 57.0091 551.869 56.9455 551.89 56.8799C551.11 56.3399 550.89 56.5599 550.79 56.6299L549.15 58.1499L548.56 55.9999C548.536 55.9039 548.479 55.8191 548.4 55.7599C548.301 55.9025 548.22 56.0571 548.16 56.2199L545.6 55.2699Z" fill="#ED057D"/>
<path d="M539.76 77.77C539.714 76.6813 540.07 75.6138 540.76 74.77C543.3 71.86 546.44 71.57 548.28 72.53L547.02 74.94C546.25 74.54 544.49 74.64 542.82 76.56C542.589 76.9555 542.461 77.4023 542.447 77.8599C542.433 78.3174 542.534 78.7711 542.74 79.18C542.797 79.3277 542.871 79.4685 542.96 79.6L540.62 81C540.461 80.7346 540.324 80.4571 540.21 80.17C539.911 79.4052 539.758 78.5911 539.76 77.77Z" fill="#ED057D"/>
<path d="M521.36 50.2301C521.359 49.864 521.396 49.4987 521.47 49.1401L524.12 49.7401C524.051 50.1503 524.065 50.5701 524.159 50.9751C524.253 51.3802 524.427 51.7625 524.67 52.1001C524.819 52.3053 525.014 52.472 525.241 52.5868C525.467 52.7015 525.717 52.761 525.97 52.7601C526.522 52.8165 527.079 52.7458 527.599 52.5534C528.119 52.361 528.588 52.052 528.97 51.6501L529.04 51.5501L531.23 53.1601L531.1 53.3601C530.454 54.1023 529.641 54.6819 528.729 55.0519C527.817 55.422 526.831 55.5721 525.85 55.4901C525.197 55.4798 524.554 55.3203 523.972 55.024C523.39 54.7276 522.883 54.3022 522.49 53.7801C521.738 52.7509 521.341 51.5048 521.36 50.2301Z" fill="#ED057D"/>
<path d="M521.47 49.1399C521.534 48.5492 521.806 48.0007 522.239 47.5936C522.672 47.1864 523.236 46.9475 523.83 46.9199C524.408 46.9169 524.971 47.1069 525.43 47.4599C525.57 47.3499 525.71 47.2599 525.86 47.1599C526.224 46.8787 526.66 46.7052 527.118 46.6593C527.575 46.6133 528.037 46.6967 528.45 46.8999C529.091 47.2656 529.567 47.8634 529.78 48.5699C530.147 48.564 530.511 48.6452 530.841 48.8069C531.172 48.9685 531.459 49.206 531.68 49.4999C532.017 50.0769 532.158 50.748 532.08 51.4118C532.002 52.0756 531.711 52.6962 531.25 53.1799L529.09 51.5299L529.18 51.3999L527.42 52.0099V50.1499C527.42 49.9294 527.386 49.7102 527.32 49.4999C526.957 49.7427 526.621 50.0244 526.32 50.3399L524.83 52.0399L524.03 49.9199C523.996 49.8268 523.949 49.7392 523.89 49.6599L521.47 49.1399Z" fill="#ED057D"/>
<path d="M441.43 40.5101C441.43 40.2701 441.43 40.0201 441.43 39.7701V37.8501L443.22 38.5301C445.191 39.2809 447.041 40.3188 448.71 41.6101C451.357 43.6811 453.449 46.3768 454.798 49.4556C456.148 52.5343 456.711 55.8997 456.44 59.2501L456.32 61.0601L454.62 60.4401C452.614 59.7187 450.734 58.6861 449.05 57.3801C444.14 53.5101 441.43 47.5401 441.43 40.5101ZM453.82 57.1201C453.76 54.5342 453.127 51.9939 451.964 49.6832C450.802 47.3725 449.14 45.3493 447.1 43.7601C446.187 43.057 445.213 42.4378 444.19 41.9101C444.257 44.4752 444.882 46.9949 446.02 49.2948C447.158 51.5947 448.782 53.6198 450.78 55.2301C451.723 55.9663 452.742 56.5999 453.82 57.1201Z" fill="#ED057D"/>
<path d="M445.08 61.71L446.39 61.22C447.699 60.7176 449.1 60.4961 450.5 60.5701C454.86 60.8201 458.5 64.0901 460.5 69.5701L460.96 70.81L459.73 71.31C458.414 71.8548 456.993 72.1007 455.57 72.03C451.38 71.78 447.83 68.59 445.57 63.03L445.08 61.71ZM457.42 69.15C455.77 65.57 453.23 63.45 450.34 63.28C449.808 63.2492 449.274 63.2827 448.75 63.3801C450.55 67.0301 453.01 69.11 455.75 69.28C456.31 69.3065 456.871 69.2629 457.42 69.15Z" fill="#ED057D"/>
<path d="M473.22 56.8999L474.53 55.3099C475.161 54.5276 475.914 53.8523 476.76 53.3099C478.202 52.4894 479.795 51.9706 481.444 51.7849C483.092 51.5992 484.761 51.7506 486.35 52.2299L488.45 52.7699L487.05 54.4299C486.41 55.1808 485.657 55.8285 484.82 56.3499C483.384 57.1991 481.785 57.7359 480.127 57.9254C478.469 58.115 476.79 57.9529 475.2 57.4499L473.22 56.8999ZM482.63 54.4899C481.321 54.4684 480.025 54.7454 478.84 55.2999C480.147 55.3119 481.441 55.0354 482.63 54.4899Z" fill="#ED057D"/>
<path d="M514.15 74.44V73.18L515.37 73.06C515.69 73.06 516.04 73 516.37 72.99C521.79 72.84 526.12 76.34 527.37 81.92L527.7 83.33L526.08 83.6C525.86 83.6 525.61 83.68 525.34 83.7C523.84 83.8804 522.318 83.7429 520.875 83.2967C519.431 82.8505 518.097 82.1054 516.96 81.11C516.051 80.2567 515.331 79.2221 514.847 78.0732C514.363 76.9242 514.126 75.6865 514.15 74.44ZM524.33 81.03C523.798 79.4986 522.809 78.1674 521.497 77.216C520.184 76.2646 518.611 75.739 516.99 75.71C517.222 77.0205 517.884 78.2165 518.87 79.11C520.383 80.413 522.336 81.0891 524.33 81V81.03Z" fill="#ED057D"/>
<path d="M457.07 62.8902V60.8902C457.264 54.0723 459.99 47.5711 464.718 42.6548C469.446 37.7385 475.835 34.7599 482.64 34.3002L484.7 34.1802L484 36.1202C483.193 38.4926 482.189 40.7938 481 43.0002C475.9 52.1402 467.88 59.1702 459 62.2802L457.07 62.8902ZM480.7 37.2802C475.363 38.1346 470.452 40.7106 466.714 44.6157C462.977 48.5207 460.62 53.5406 460 58.9102C467.922 55.3421 474.455 49.2757 478.6 41.6402C479.36 40.2202 480.07 38.7602 480.7 37.2802Z" fill="#ED057D"/>
<path d="M481.9 80.5799C481.904 77.8787 482.483 75.2094 483.6 72.7499C483.75 72.4299 483.9 72.1199 484.06 71.8099L484.18 71.5799L486.71 69.4099H487.21C489.507 69.3825 491.786 69.8319 493.9 70.7299C496.095 71.7172 498.063 73.1457 499.682 74.9262C501.3 76.7068 502.536 78.8014 503.31 81.0799C505.025 86.1225 505.189 91.5633 503.78 96.6999L503.57 97.5199L502.74 97.6899C499.243 98.4381 495.601 98.0888 492.31 96.6899L491.95 96.5299L491.35 96.2599L490.66 94.7699L490.44 95.9199L488.69 94.5799C486.554 92.9291 484.83 90.806 483.652 88.377C482.474 85.9481 481.874 83.2793 481.9 80.5799ZM486.35 73.2999C486.26 73.4899 486.16 73.6799 486.08 73.8799C484.767 76.646 484.308 79.7407 484.763 82.7688C485.217 85.7969 486.563 88.6208 488.63 90.8799L489.57 85.9599L493.4 94.1999C495.905 95.2686 498.659 95.615 501.35 95.1999C503.54 85.4899 500.04 76.3599 492.83 73.2599C491.212 72.5733 489.478 72.2033 487.72 72.1699L486.35 73.2999Z" fill="#ED057D"/>
<path d="M509.4 82.7901C509.378 82.1068 509.514 81.4277 509.796 80.8052C510.079 80.1827 510.501 79.6336 511.03 79.2001L511.51 78.8501L512.1 78.9601C512.92 79.1695 513.656 79.6246 514.21 80.2645C514.765 80.9044 515.11 81.6984 515.2 82.5401C515.379 83.3662 515.33 84.2258 515.057 85.0259C514.784 85.8261 514.297 86.5364 513.65 87.0801L513.17 87.4401L512.58 87.3201C511.761 87.1069 511.027 86.6506 510.474 86.0114C509.92 85.3723 509.574 84.5803 509.48 83.7401C509.429 83.4259 509.402 83.1084 509.4 82.7901ZM512.21 82.1501C512.128 82.5189 512.128 82.9013 512.21 83.2701C512.258 83.5751 512.367 83.8674 512.53 84.1301C512.611 83.7612 512.611 83.379 512.53 83.0101C512.481 82.7051 512.372 82.4128 512.21 82.1501Z" fill="#ED057D"/>
<path d="M469.64 64.1999L470.42 61.5898C477.73 63.7998 487.76 68.1898 494.01 76.5898C497.82 81.7398 498.42 85.9599 498.44 86.1299L495.74 86.4898L497.09 86.3098L495.74 86.4998C495.08 83.4141 493.71 80.5244 491.74 78.0598C488.5 73.8298 482.07 67.9399 469.64 64.1999Z" fill="#ED057D"/>
<path d="M758.12 327.47C777.73 320.71 793.85 321.47 803.92 323.33C814.92 325.33 821.44 329.02 821.79 329.33L822.03 330.24L821.34 330.88L821.17 329.99L820.28 329.81C820.246 329.979 820.261 330.155 820.323 330.316C820.385 330.477 820.491 330.617 820.63 330.72C820.58 330.72 814.38 326.98 803.11 325C793.35 323.28 777.72 322.61 758.71 329.16L758.12 327.47Z" fill="#ED057D"/>
<path d="M819.21 328.81L820 328.36H820.22C820.283 328.35 820.347 328.35 820.41 328.36H820.49C827.207 328.809 833.731 330.794 839.56 334.16C842.41 335.8 846.22 339.8 846.84 342.49C846.935 342.824 846.96 343.174 846.914 343.518C846.867 343.863 846.75 344.193 846.57 344.49C844.88 347.01 839.43 345.12 834.79 342.12C829.436 338.554 824.416 334.511 819.79 330.04C819.755 329.995 819.715 329.955 819.67 329.92C819.508 329.792 819.395 329.612 819.35 329.41L819.21 328.81ZM820.89 328.62C820.834 328.564 820.77 328.517 820.7 328.48L820.89 328.62ZM845.1 343.47C845.144 343.286 845.144 343.094 845.1 342.91C844.64 340.91 841.39 337.3 838.67 335.74C833.79 332.911 828.389 331.097 822.79 330.41C826.847 334.167 831.194 337.597 835.79 340.67C840.79 343.92 844.49 344.43 845.09 343.53L845.1 343.47Z" fill="#ED057D"/>
<path d="M821.16 328.85C824.419 329.961 827.597 331.297 830.67 332.85C835.37 335.17 841.9 338.85 846.27 343.5L844.96 344.75C836.96 336.32 820.96 330.64 820.83 330.59L821.1 329.77L821.16 328.85Z" fill="#ED057D"/>
<path d="M805.81 324.58C805.844 324.48 805.898 324.388 805.97 324.31L809.97 319.19L807.76 324.5C812.15 327.334 815.82 331.152 818.48 335.65C819.89 338 821.08 342.36 820.48 344.44C820.413 344.713 820.29 344.969 820.117 345.192C819.945 345.414 819.728 345.597 819.48 345.73C816.63 347.23 812.56 340.73 811.77 339.37C809.93 336.218 808.367 332.912 807.1 329.49C806.59 328.11 806.24 327 806.03 326.31C805.82 325.62 805.75 325.38 805.7 325.11C805.69 325.024 805.69 324.936 805.7 324.85C805.719 324.754 805.756 324.662 805.81 324.58ZM818.81 343.96C819.17 342.9 818.43 338.96 816.97 336.56C814.745 332.815 811.777 329.565 808.25 327.01C809.574 330.993 811.31 334.827 813.43 338.45C816.04 342.85 818.27 344.3 818.72 344.13C818.758 344.093 818.789 344.049 818.81 344V343.96Z" fill="#ED057D"/>
<path d="M789.66 322.85C789.701 322.748 789.759 322.654 789.83 322.57L790.08 322.26H790.49C790.75 322.26 790.85 322.26 792.09 323.06C793.024 323.678 793.926 324.346 794.79 325.06C797.485 327.295 799.745 330.007 801.46 333.06C802.68 335.21 803.6 339.15 802.97 341.06C802.891 341.329 802.755 341.578 802.57 341.788C802.385 341.999 802.156 342.167 801.9 342.28C800.85 342.7 799.56 342.21 798.06 340.81C796.698 339.474 795.526 337.956 794.58 336.3C792.911 333.46 791.57 330.441 790.58 327.3C790.19 326.05 789.94 325.04 789.81 324.42C789.64 323.915 789.589 323.378 789.66 322.85ZM801.27 340.37C801.58 339.45 801.16 336.15 799.88 333.89C797.891 330.402 795.16 327.395 791.88 325.08C792.83 328.667 794.263 332.108 796.14 335.31C798.34 339.05 800.6 340.7 801.14 340.54C801.198 340.496 801.243 340.437 801.27 340.37Z" fill="#ED057D"/>
<path d="M805.47 324.31L806.72 323.47C810.262 319.78 814.456 316.776 819.09 314.61C820.905 313.802 822.813 313.217 824.77 312.87C828.33 312.24 829.23 312.97 829.61 313.57C829.746 313.795 829.83 314.047 829.856 314.308C829.882 314.569 829.849 314.833 829.76 315.08C829.16 317.08 825.55 319.34 822.66 320.65C817.841 322.8 812.75 324.28 807.53 325.05C807.337 325.09 807.137 325.066 806.96 324.98L805.47 324.31ZM828.04 314.54C827.14 314.16 822.84 314.83 819.87 316.25C816.275 317.94 812.946 320.147 809.99 322.8C814.091 321.976 818.088 320.701 821.91 319C823.535 318.285 825.069 317.379 826.48 316.3C827.131 315.855 827.654 315.249 828 314.54H828.04Z" fill="#ED057D"/>
<path d="M794.229 322V321.9C795.898 317.755 798.663 314.142 802.229 311.45C804.109 310.01 809.88 307.45 812.03 309.25C812.314 309.495 812.537 309.804 812.68 310.151C812.822 310.499 812.88 310.875 812.849 311.25C812.779 313.04 811.04 315.43 808.42 317.33C804.468 320.082 800.034 322.067 795.349 323.18H795.3L794.02 323.57L794.15 322.22C794.172 322.145 794.198 322.071 794.229 322ZM811 311.71C811.064 311.526 811.104 311.334 811.12 311.14C811.135 311.042 811.125 310.941 811.09 310.848C811.055 310.755 810.996 310.673 810.92 310.61C810.05 309.87 805.55 311.22 803.4 312.87C800.589 315.023 798.299 317.781 796.699 320.94C800.536 319.847 804.163 318.12 807.43 315.83C808.984 314.82 810.221 313.392 811 311.71Z" fill="#ED057D"/>
<path d="M780.23 321C780.916 319.123 782.001 317.418 783.41 316C784.334 315.127 785.369 314.38 786.49 313.78C787.557 313.059 788.822 312.688 790.11 312.72C790.444 312.763 790.759 312.899 791.019 313.114C791.279 313.328 791.473 313.611 791.58 313.93C791.93 315.03 791.22 316.6 789.69 318.14C787.162 320.497 784.289 322.453 781.17 323.94H781.11L780.96 324L779.3 324.53L779.79 322.95C779.868 322.287 780.016 321.633 780.23 321ZM789.86 314.48H789.8C788.92 314.33 785.97 315.92 784.72 317.23C783.527 318.424 782.603 319.86 782.01 321.44C784.338 320.194 786.491 318.644 788.41 316.83C789.153 316.228 789.665 315.387 789.86 314.45V314.48Z" fill="#ED057D"/>
<path d="M771.56 327C771.591 326.92 771.627 326.843 771.67 326.77L772.84 324.84L773.19 326.39C776.32 326.718 779.328 327.78 781.97 329.49C783.43 330.43 786.56 333.73 785.69 335.58C785.586 335.824 785.427 336.041 785.226 336.214C785.025 336.388 784.787 336.513 784.53 336.58C782.77 337.07 780.1 335.36 779.33 334.82C777.387 333.436 775.567 331.887 773.89 330.19C773.2 329.49 772.65 328.9 772.32 328.52C772.139 328.329 771.969 328.129 771.81 327.92C771.706 327.822 771.629 327.698 771.59 327.56C771.545 327.474 771.519 327.38 771.514 327.283C771.508 327.186 771.524 327.09 771.56 327ZM784.04 334.8C784.04 334.13 782.45 331.95 780.98 331.01C779.089 329.776 776.982 328.911 774.77 328.46C776.479 330.24 778.351 331.857 780.36 333.29C782.26 334.56 783.66 334.87 784 334.75L784.04 334.8Z" fill="#ED057D"/>
<path d="M806.23 324.08C806.23 324.08 811.07 321.37 816.23 318.71C825.63 313.81 827.93 313.18 828.85 313.14L828.931 314.95C826.841 315.05 814.471 321.57 807.171 325.66L806.23 324.08Z" fill="#ED057D"/>
<path d="M794.39 321.71C798.39 316.82 810.5 309.46 811.01 309.15L811.95 310.69C811.83 310.77 799.58 318.21 795.79 322.86L794.39 321.71Z" fill="#ED057D"/>
<path d="M772.67 326.32C779.96 328.21 784.99 334.82 785.2 335.1L783.76 336.19L784.48 335.65L783.76 336.19C783.76 336.13 778.89 329.8 772.22 328.07L772.67 326.32Z" fill="#ED057D"/>
<path d="M779.88 322.68C781.72 319.18 789.63 313.1 789.97 312.84L791.07 314.28C790.99 314.34 783.14 320.38 781.48 323.52L779.88 322.68Z" fill="#ED057D"/>
<path d="M806.88 326.33L808.11 325C810.34 327.07 818.98 342.71 819.95 344.49L818.37 345.36C814.59 338.49 808.4 327.75 806.88 326.33Z" fill="#ED057D"/>
<path d="M789.82 323.7L791.24 322.58C791.64 323.1 801.15 335.25 802.43 341.18L800.66 341.56C799.47 336 789.91 323.83 789.82 323.7Z" fill="#ED057D"/>
</svg>
