<svg width="123" height="407" viewBox="0 0 123 407" fill="none" xmlns="http://www.w3.org/2000/svg">
<g clip-path="url(#clip0)">
<path d="M23.1999 133C18.9999 133 12.2999 132.3 6.39989 128.6C0.699886 125 -1.60011 118.5 1.09989 114.2C3.89989 109.7 12.2999 110.4 16.3999 112.9C25.4999 118.7 28.7999 129.6 28.9999 130L29.6999 132.4L27.2999 132.8C27.0999 132.8 25.4999 133 23.1999 133ZM8.69989 115.2C6.89989 115.2 5.39989 115.6 4.79989 116.5C3.39989 118.7 5.29989 122.8 8.79989 125C14.0999 128.4 20.4999 128.8 23.9999 128.7C22.5999 125.5 19.4999 119.9 14.1999 116.5C12.7999 115.7 10.5999 115.2 8.69989 115.2Z" fill="#ED057D"/>
<path d="M17.4998 159.5C16.2998 159.5 15.0998 159.4 13.7998 159.2C7.19979 158.2 2.39979 153.3 3.09979 148.2C3.89979 143 11.7998 140.1 16.4998 140.8C27.1998 142.4 34.6998 150.9 34.9998 151.3L36.5998 153.2L34.4998 154.5C34.1998 154.8 26.6998 159.5 17.4998 159.5ZM14.9998 145C11.8998 145 7.59979 146.8 7.29979 148.9C6.89979 151.5 10.2998 154.4 14.3998 155C20.6998 155.9 26.5998 153.7 29.7998 152.2C27.1998 149.8 22.0998 146 15.7998 145C15.5998 145 15.2998 145 14.9998 145Z" fill="#ED057D"/>
<path d="M24.7 133.8L25.2 130.8C25.3 130.4 27.0999 120.1 34.5999 112.5C39.3999 107.7 45.6999 106.3 48.7999 109.5C49.5 110.2 50.2999 111.4 50.2999 113.5C50.2999 117.1 48.1 121.5 45.9 123.7C38.3 131.3 28.1 133.2 27.6 133.2L24.7 133.8ZM44.4 112C42.6 112 39.8999 113.2 37.5999 115.5C33.3999 119.7 31.3 124.9 30.2 128.2C33.5 127.1 38.7 124.9 42.9 120.7C44.4 119.2 46.0999 115.8 46.0999 113.5C46.0999 112.9 46 112.6 45.9 112.5C45.6 112.2 45.1 112 44.4 112Z" fill="#ED057D"/>
<path d="M29.5 155.6L29.9 152.8C30 152.4 31.5 141.8 39.1 134.2C41.2 132.1 43.8 130.6 46.3 129.9C49.2 129.2 51.9 129.7 53.5 131.4C57.2 135 53.8 142.9 50.8 145.9C43.2 153.5 32.7 155.1 32.2 155.2L29.5 155.6ZM48.8 133.9C48.4 133.9 47.9 134 47.4 134.1C45.6 134.5 43.7 135.7 42.2 137.2C38 141.4 35.9 146.9 34.9 150.3C38.3 149.3 43.7 147.2 47.9 142.9C50.3 140.5 51.7 135.5 50.6 134.4C50.2 134.1 49.6 133.9 48.8 133.9Z" fill="#ED057D"/>
<path d="M41.7 183.8V181.6C41.7 181.2 41.8 171.8 47.9 165.8C51.7 162 57.4 161.5 60.7 164.7C64.1 168 62.4 174.8 59.7 177.5C53.7 183.6 44.3 183.7 43.9 183.7L41.7 183.8ZM55.2999 166.9C53.7999 166.9 52.2 167.6 50.9 168.9C47.7 172.1 46.6 176.6 46.2 179.4C48.9 179 53.4999 177.8 56.5999 174.7C57.9999 173.3 58.9999 169.2 57.5999 167.9C57.0999 167.2 56.1999 166.9 55.2999 166.9Z" fill="#ED057D"/>
<path d="M33.5998 185.6C31.2998 185.6 28.7998 185.3 26.2998 184.6C23.0998 183.6 20.3998 181.6 19.0998 179.2C18.2998 177.7 18.0998 176.1 18.4998 174.7C18.7998 173.8 19.4998 172.5 21.2998 171.6C24.0998 170.1 28.0998 170.1 30.4998 170.8C38.9998 173.4 44.1998 180.6 44.3998 180.9L45.9998 183.2L43.3998 184.2C43.0998 184.1 38.9998 185.6 33.5998 185.6ZM27.0998 174.5C25.7998 174.5 24.2998 174.7 23.2998 175.3C22.7998 175.6 22.5998 175.8 22.5998 175.9C22.4998 176.3 22.6998 176.9 22.7998 177.2C23.4998 178.6 25.3998 179.9 27.3998 180.5C31.5998 181.8 35.8998 181.4 38.6998 180.8C36.6998 178.8 33.3998 176 29.0998 174.7C28.6998 174.6 27.8998 174.5 27.0998 174.5Z" fill="#ED057D"/>
<path d="M61.3998 307.3L60.9998 303.1C61.1998 303.1 65.3998 302.5 68.4998 296.8C80.6998 275 58.3998 219.7 43.9998 188.6C26.9998 151.7 24.8998 129.7 23.4998 115.1C23.1998 111.4 22.7998 108.2 22.2998 105.6L26.4998 104.8C26.9998 107.6 27.2998 110.9 27.6998 114.7C29.0998 129 31.0998 150.6 47.7998 186.8C65.7998 225.9 84.6998 277 71.9998 299.1C67.7998 306.6 61.6998 307.3 61.3998 307.3Z" fill="#ED057D"/>
<path d="M25.6999 114.3L23.7998 112.7C23.3998 112.3 13.6998 103.9 11.6998 91.6998C10.4998 84.1998 13.9998 77.3998 19.4998 76.4998C25.5998 75.4998 30.9998 83.7998 31.7998 88.3998C33.7998 100.7 27.2998 111.7 27.0998 112.2L25.6999 114.3ZM20.4998 80.5998C20.3998 80.5998 20.2999 80.5998 20.1999 80.5998C17.0999 81.0998 15.0998 85.8998 15.8998 90.9998C17.0998 98.5998 21.8998 104.6 24.5998 107.5C26.1999 103.8 28.7999 96.5998 27.5998 89.0998C26.8998 84.8998 22.7998 80.5998 20.4998 80.5998Z" fill="#ED057D"/>
<path d="M88.3 35.6L86 34.5C85.5 34.3 74 28.7 68.8 17.3C65.7 10.4 67.3 2.90002 72.4 0.600025C78 -1.99998 85.4 4.60002 87.3 8.90002C92.4 20.2 89.1 32.6 88.9 33.1L88.3 35.6ZM75.1 4.30002C74.8 4.30002 74.5 4.40002 74.2 4.50002C71.3 5.80002 70.7 11 72.8 15.6C75.9 22.5 82.1 27.2 85.5 29.3C86.1 25.3 86.7 17.7 83.6 10.7C81.9 7.10002 77.6 4.30002 75.1 4.30002Z" fill="#ED057D"/>
<path d="M75.6 51.7C73 51.7 70.3 51.4 67.5 50.5C61.1 48.5 57.1 42.9 58.7 38C60.3 33 68.5 31.4 73.1 32.8C83.4 36.1 89.5 45.7 89.7 46.1L91 48.2L88.7 49.2C88.4 49.3 82.7 51.7 75.6 51.7ZM69.4 36.6C66.6 36.6 63.2 37.7 62.7 39.3C61.9 41.8 64.8 45.2 68.7 46.5C74.7 48.4 81 47.2 84.4 46.2C82.2 43.4 77.8 38.8 71.7 36.9C71.1 36.7 70.3 36.6 69.4 36.6Z" fill="#ED057D"/>
<path d="M76 74.5999C75 74.5999 73.9 74.4999 72.8 74.3999C66.1 73.4999 61.3 68.6999 61.9 63.5999C62.6 58.3999 70.4 55.2999 75.2 55.9999C86 57.3999 93.6 65.7999 93.9 66.0999L95.5 67.8999L93.5 69.2999C93.1 69.5999 85.4 74.5999 76 74.5999ZM73.9 60.1999C70.8 60.1999 66.4 62.0999 66.2 64.1999C65.9 66.7999 69.3 69.6999 73.4 70.1999C79.6 70.9999 85.6 68.6999 88.8 67.0999C86.1 64.7999 81 60.9999 74.7 60.1999C74.4 60.1999 74.1 60.1999 73.9 60.1999Z" fill="#ED057D"/>
<path d="M92 49.5002L91.7 46.5002C91.7 46.1002 90.7 35.7002 96.1 26.3002C99.5 20.4002 105.2 17.5002 109.1 19.7002C109.9 20.2002 111 21.2002 111.6 23.2002C112.5 26.7002 111.5 31.5002 110 34.2002C104.7 43.5002 95.2 48.0002 94.8 48.2002L92 49.5002ZM106.2 23.3002C104.5 23.3002 101.7 25.3002 99.8 28.5002C96.9 33.6002 96.1 39.2002 96 42.7002C98.9 40.8002 103.4 37.3002 106.3 32.2002C107.4 30.3002 108.1 26.6002 107.5 24.4002C107.3 23.8002 107.1 23.5002 107 23.5002C106.7 23.3002 106.5 23.3002 106.2 23.3002Z" fill="#ED057D"/>
<path d="M96.0999 94.2999L96.2999 91.8999C96.2999 91.3999 97.2999 80.0999 105 72.4999C108.4 69.0999 116.5 66.7999 120.2 70.5999C123.8 74.1999 122.8 80.9999 118 85.7999C110.3 93.3999 98.9999 94.1999 98.4999 94.1999L96.0999 94.2999ZM115 72.8999C112.7 72.8999 109.6 74.0999 108.1 75.5999C103.6 79.9999 101.8 86.0999 101.1 89.5999C104.6 88.8999 110.7 87.1999 115.2 82.7999C118.2 79.8999 119.2 75.4999 117.3 73.6999C116.7 73.0999 115.9 72.8999 115 72.8999Z" fill="#ED057D"/>
<path d="M84.0998 95.6002C81.0998 95.6002 77.7998 95.2002 74.3998 94.2002C71.3998 93.3002 67.3998 90.4002 65.6998 87.3002C64.6998 85.4002 64.8998 83.9002 65.0998 83.0002C65.7998 80.8002 67.7998 79.2002 70.7998 78.5002C73.2998 77.9002 76.2998 78.1002 79.0998 79.0002C89.3998 82.1002 95.7998 90.4002 95.9998 90.7002L97.7998 93.1002L94.9998 94.0002C94.6998 94.1002 90.1998 95.6002 84.0998 95.6002ZM73.8998 82.4002C73.0998 82.4002 72.3998 82.5002 71.7998 82.6002C70.3998 82.9002 69.4998 83.5002 69.2998 84.2002C69.1998 84.4002 69.2998 84.7002 69.5998 85.2002C70.6998 87.2002 73.6998 89.4002 75.7998 90.1002C81.3998 91.8002 86.9998 91.4002 90.4998 90.8002C87.9998 88.4002 83.5998 84.8002 77.9998 83.0002C76.4998 82.6002 75.0998 82.4002 73.8998 82.4002Z" fill="#ED057D"/>
<path d="M95.2998 68.5998L95.5998 65.7998C95.5998 65.3998 96.6998 54.6998 103.9 46.7998C108.4 41.7998 114.8 40.2998 118.2 43.3998C122 46.8998 119.1 54.7998 116.2 57.9998C109 65.9998 98.4998 68.0998 98.0998 68.0998L95.2998 68.5998ZM113.8 45.9998C112 45.9998 109.3 47.1998 107.1 49.6998C103.1 54.0998 101.2 59.6998 100.4 63.0998C103.7 61.9998 109.1 59.5998 113.1 55.1998C115.4 52.6998 116.5 47.5998 115.4 46.5998C115 46.0998 114.4 45.9998 113.8 45.9998Z" fill="#ED057D"/>
<path d="M93.4999 126.8L91.0999 126.7C90.5999 126.7 79.2999 126.1 71.3999 118.7C66.4999 114.1 65.3999 107.3 68.8999 103.6C72.4999 99.6998 80.5999 101.9 84.0999 105.2C91.9999 112.6 93.1999 123.9 93.2999 124.4L93.4999 126.8ZM74.2999 105.8C73.2999 105.8 72.3999 106 71.8999 106.5C70.0999 108.4 71.1999 112.7 74.1999 115.6C78.7999 119.9 84.9999 121.5 88.4999 122.1C87.6999 118.7 85.6999 112.6 81.0999 108.3C79.5999 106.9 76.5999 105.8 74.2999 105.8Z" fill="#ED057D"/>
<path d="M94 123L94.3 120.2C94.3 119.8 95.4 109.1 102.6 101.2C107.1 96.2002 113.5 94.7002 116.9 97.8002C120.7 101.3 117.8 109.2 114.9 112.4C107.7 120.4 97.2 122.5 96.8 122.5L94 123ZM112.5 100.3C110.7 100.3 108 101.5 105.8 104C101.8 108.5 99.9 114 99.1 117.4C102.4 116.3 107.8 113.9 111.8 109.5C114.1 107 115.2 101.9 114.1 100.9C113.7 100.5 113.2 100.3 112.5 100.3Z" fill="#ED057D"/>
<path d="M94.4998 148.9C93.8998 148.9 93.5998 148.9 93.4998 148.9L91.2998 148.8L91.4998 146.6C91.4998 146.2 92.3998 136.9 98.7998 131.3C102.9 127.8 108.6 127.7 111.6 131.2C113.1 132.9 113.5 135.4 112.8 138.2C112.2 140.5 111 142.7 109.6 143.9C104.4 148.5 97.0998 148.9 94.4998 148.9ZM105.8 132.9C104.4 132.9 102.9 133.5 101.6 134.5C98.1998 137.4 96.6998 141.9 96.0998 144.6C98.8998 144.4 103.5 143.6 106.9 140.7C107.5 140.2 108.3 138.9 108.7 137.2C109 135.8 108.9 134.6 108.4 134C107.8 133.2 106.9 132.9 105.8 132.9Z" fill="#ED057D"/>
<path d="M89.2 150.1L86.5 149.5C86.1 149.4 77.5 147.6 71.6 140.9C69.4 138.4 68.2 135.2 68.4 132.5C68.5 130.8 69.2 129.3 70.3 128.4C71.9 127 74.3 126.8 77.1 127.9C79.2 128.7 81.3 130 82.5 131.4C88.3 138.1 88.9 146.9 89 147.3L89.2 150.1ZM73.8 131.5C73.4 131.5 73.2 131.6 73.1 131.6C72.7 131.9 72.6 132.4 72.6 132.8C72.5 134.4 73.3 136.4 74.8 138.1C77.7 141.5 81.6 143.4 84.2 144.4C83.6 141.6 82.2 137.5 79.3 134.2C78.5 133.3 77 132.4 75.6 131.9C74.9 131.6 74.2 131.5 73.8 131.5Z" fill="#ED057D"/>
<path d="M81.7999 407C81.6999 406.7 71.3999 377.5 64.2999 340.3C57.7999 305.9 52.6999 257.4 65.8999 222C79.5999 185.2 88.3999 150.8 92.0999 119.9C96.1999 84.9 93.4999 55.3 84.0999 32.1L87.9999 30.5C97.6999 54.4 100.5 84.6 96.2999 120.4C92.5999 151.7 83.6999 186.4 69.8999 223.5C62.7999 242.5 56.7999 278.1 68.4999 339.5C75.4999 376.3 85.6999 405.3 85.7999 405.6L81.7999 407Z" fill="#ED057D"/>
</g>
<defs>
<clipPath id="clip0">
<rect width="122.4" height="407" fill="white"/>
</clipPath>
</defs>
</svg>
