<svg width="289" height="274" viewBox="0 0 289 274" fill="none" xmlns="http://www.w3.org/2000/svg">
<path d="M0.196832 221.425C12.033 195.552 37.2747 168.114 56.3647 149.656C79.5961 127.182 106.952 105.357 129.552 91.261C172.701 64.3256 233.933 68.713 234.546 68.7598L234.212 73.1342C233.61 73.0797 173.812 68.8289 131.87 94.9751C109.536 108.922 82.4388 130.536 59.4034 152.806C25.3093 185.776 10.5625 209.302 4.1891 223.242L0.196832 221.425Z" fill="#ED057D"/>
<path d="M233.595 70.2259C233.595 70.2259 252.21 59.985 265.697 71.7399C271.397 76.6697 276.5 82.2512 280.9 88.3702C271.705 90.6125 263.395 93.8986 254.373 90.8237C245.573 87.8665 239.333 80.4903 233.595 70.2259Z" fill="#ED057D"/>
<path d="M207.286 69.6903C207.286 69.6903 226.569 70.307 232.398 59.3595C238.226 48.4119 237.418 39.9771 237.418 39.9771C237.418 39.9771 219.55 37.4807 212.967 47.2995C208.535 53.8786 206.526 61.7937 207.286 69.6903Z" fill="#ED057D"/>
<path d="M175.451 75.537C175.451 75.537 191.321 68.6444 192.432 59.6819C193.544 50.7193 191.29 38.6509 191.29 38.6509C191.29 38.6509 167.317 42.671 175.451 75.537Z" fill="#ED057D"/>
<path d="M152.914 81.432C152.914 81.432 162.481 76.0491 162.902 67.4529C163.324 58.8567 157.942 51.0883 157.942 51.0883C157.942 51.0883 140.712 60.373 152.914 81.432Z" fill="#ED057D"/>
<path d="M207.664 72.1298C207.664 72.1298 222.107 73.5105 227.351 85.4492C232.951 98.2698 228.731 105.151 228.731 105.151C228.731 105.151 206.105 100.738 207.664 72.1298Z" fill="#ED057D"/>
<path d="M175.988 76.5796C175.988 76.5796 191.26 77.96 197.362 88.9239C203.463 99.8879 202.181 108.498 202.181 108.498C202.181 108.498 176.123 110.079 175.988 76.5796Z" fill="#ED057D"/>
<path d="M146.495 86.9528C146.495 86.9528 156.105 84.1945 161.451 91.1075C164.65 95.2437 166.602 100.207 167.077 105.415C167.077 105.415 152.399 109.492 146.495 86.9528Z" fill="#ED057D"/>
<path d="M125.943 97.5645C125.943 97.5645 136.582 97.1573 142.685 104.362C148.787 111.566 149.262 121.249 149.262 121.249C149.262 121.249 127.281 120.731 125.943 97.5645Z" fill="#ED057D"/>
<path d="M113.744 102.978C113.744 102.978 121.933 99.1971 124.108 91.4484C126.283 83.6997 122.016 78.8519 122.016 78.8519C122.016 78.8519 107.699 83.5973 113.744 102.978Z" fill="#ED057D"/>
<path d="M107.557 110.612C107.557 110.612 118.393 107.661 126.784 119.646C135.175 131.631 133.581 130.265 133.581 130.265C133.581 130.265 117.183 137.824 107.557 110.612Z" fill="#ED057D"/>
<path d="M86.6436 123.14C86.6436 123.14 92.6907 112.953 91.504 105.205C90.3983 98.0465 84.664 91.9615 84.664 91.9615C84.664 91.9615 68.8521 103.209 86.6436 123.14Z" fill="#ED057D"/>
<path d="M68.8406 142.482C68.8406 142.482 77.4257 137.005 84.2724 137.438C91.3287 137.895 96.3849 143.705 96.3849 143.705C96.3849 143.705 87.1581 162.584 68.8406 142.482Z" fill="#ED057D"/>
</svg>
