<svg width="268" height="105" viewBox="0 0 268 105" fill="none" xmlns="http://www.w3.org/2000/svg">
<g clip-path="url(#clip0)">
<path d="M49.3999 14.7002H47.5999C46.6999 14.7002 45.8999 15.4002 45.8999 16.4002V51.4002C45.8999 52.3002 46.5999 53.1002 47.5999 53.1002H49.3999C50.2999 53.1002 51.0999 52.4002 51.0999 51.4002V16.4002C50.9999 15.4002 50.2999 14.7002 49.3999 14.7002Z" fill="#ED057D"/>
<path d="M87.6001 0H85.8001C84.9001 0 84.1001 0.7 84.1001 1.6V51.3C84.1001 52.2 84.8001 53 85.8001 53H87.6001C88.5001 53 89.3001 52.3 89.3001 51.3V1.6C89.3001 0.7 88.6001 0 87.6001 0Z" fill="#ED057D"/>
<path d="M124.6 36.5002V16.4002C124.6 15.5002 125.3 14.7002 126.3 14.7002H128.1C129 14.7002 129.8 15.4002 129.8 16.4002V51.4002C129.8 52.3002 129.1 53.1002 128.1 53.1002H126.3C125.4 53.1002 124.6 52.4002 124.6 51.4002C124.6 50.7002 124.6 50.0002 124.6 49.3002C124.6 49.3002 120.9 53.9002 111.6 53.9002C102.9 53.9002 94.3 48.1002 94.3 36.5002V16.4002C94.3 15.5002 95 14.7002 96 14.7002H97.8C98.7 14.7002 99.5 15.4002 99.5 16.4002V36.5002C99.5 42.7002 102.3 48.8002 111.7 48.8002C120.6 48.8002 124.6 43.6002 124.6 36.5002Z" fill="#ED057D"/>
<path d="M226.1 31.1998V51.2998C226.1 52.1998 225.4 52.9998 224.5 52.9998H222.7C221.8 52.9998 221.1 52.2998 221.1 51.2998V16.2998C221.1 15.3998 221.8 14.5998 222.7 14.5998H224.5C225.4 14.5998 226.1 15.2998 226.1 16.2998V18.3998C226.1 18.3998 229.8 13.7998 239.1 13.7998C247.8 13.7998 256.4 19.5998 256.4 31.1998V51.2998C256.4 52.1998 255.7 52.9998 254.7 52.9998H252.9C252 52.9998 251.2 52.2998 251.2 51.2998V31.1998C251.2 24.9998 248.4 18.8998 239 18.8998C230 18.8998 226.1 24.0998 226.1 31.1998Z" fill="#ED057D"/>
<path d="M154.5 18.8999C159.6 18.8999 165.8 21.7999 168.1 28.2999C168.3 28.9999 169 29.3999 169.7 29.3999H171.7C172.2 29.3999 172.7 29.0999 173 28.6999C173.3 28.2999 173.4 27.6999 173.2 27.1999C169.9 17.3999 160.9 13.8999 154.2 13.8999C142.8 13.8999 134.1 22.4999 134.1 33.9999C134.1 43.8999 141.1 53.8999 154.5 53.8999C163.1 53.8999 170.4 48.7999 173.1 40.8999C173.3 40.3999 173.2 39.7999 172.9 39.3999C172.6 38.9999 172.1 38.6999 171.5 38.6999H169.5C168.8 38.6999 168.1 39.1999 167.9 39.7999C165.9 45.8999 159.4 48.7999 154.2 48.7999C145.7 48.7999 139.3 42.3999 139.3 33.7999C139.4 27.6999 143.3 18.8999 154.5 18.8999Z" fill="#ED057D"/>
<path d="M15.3 48.0001H5.2V6.0001H15.4C22 6.0001 27.3 7.9001 30.9 11.5001C34.5 15.2001 36.4 20.4001 36.4 27.1001C36.3 40.4001 28.7 48.0001 15.3 48.0001ZM15.3 1.1001H1.6C0.7 1.1001 0 1.8001 0 2.7001V51.4001C0 52.3001 0.7 53.0001 1.6 53.0001H15.3C31.7 53.0001 41.4 43.3001 41.4 27.1001C41.4 19.2001 39 12.6001 34.4 8.1001C30 3.5001 23.3 1.1001 15.3 1.1001Z" fill="#ED057D"/>
<path d="M211.2 33.4999C211.3 35.3999 211 37.2999 210.3 38.9999C208.2 44.9999 202.9 48.7999 196.5 48.7999C186.7 48.7999 181.5 41.2999 181.4 33.7999C181.4 25.2999 187.8 18.7999 196.3 18.7999C202.5 18.7999 208 22.3999 210.2 27.9999C210.9 29.5999 211.2 31.4999 211.2 33.4999ZM214.5 14.6999H212.7C211.8 14.6999 211 15.3999 211 16.3999V19.9999C207 15.7999 201 13.8999 196.3 13.8999C183.3 13.8999 176.2 24.1999 176.2 33.8999C176.2 43.5999 183.2 53.8999 196.3 53.8999C202.3 53.8999 207.4 51.6999 211 47.6999V51.3999C211 52.2999 211.7 53.0999 212.7 53.0999H214.5C215.4 53.0999 216.2 52.3999 216.2 51.3999V16.3999C216.2 15.3999 215.4 14.6999 214.5 14.6999Z" fill="#ED057D"/>
<path d="M68.1999 14.7V13C68.1999 11.7 68.2999 4.5 75.4999 4.5V5.4C75.4999 6.8 75.7999 14.7 68.1999 14.7ZM79.9999 6.2C79.9999 2.9 79.7999 1.9 79.6999 1.3C79.4999 0.6 78.7999 0 77.9999 0H75.9999C64.9999 0 62.9999 8.1 62.9999 12.9V14.7H57.0999C56.1999 14.7 55.3999 15.4 55.3999 16.4V18.2C55.3999 19.1 56.0999 19.9 57.0999 19.9H62.9999V51.4C62.9999 52.3 63.6999 53.1 64.6999 53.1H66.4999C67.3999 53.1 68.1999 52.4 68.1999 51.4V19.9C79.1999 19.6 79.9999 9.4 79.9999 6.2Z" fill="#ED057D"/>
<path d="M262.3 6.39981C262 6.29981 261.7 6.2998 261.2 6.2998H260.8V8.2998H261.5C261.9 8.2998 262.3 8.1998 262.5 7.9998C262.7 7.7998 262.9 7.4998 262.9 7.1998C262.8 6.8998 262.6 6.5998 262.3 6.39981ZM258.9 12.0998V4.9998C259.3 4.9998 260 4.9998 260.9 4.9998C261.8 4.9998 262.3 4.9998 262.4 4.9998C263 4.9998 263.4 5.1998 263.8 5.3998C264.4 5.6998 264.7 6.2998 264.7 7.0998C264.7 7.6998 264.5 8.0998 264.2 8.3998C263.9 8.6998 263.5 8.7998 263 8.8998C263.4 8.9998 263.8 9.0998 264 9.2998C264.4 9.5998 264.6 10.1998 264.6 10.8998V11.4998C264.6 11.5998 264.6 11.5998 264.6 11.6998C264.6 11.7998 264.6 11.7998 264.7 11.8998L264.8 12.0998H263C262.9 11.8998 262.9 11.5998 262.9 11.0998C262.9 10.6998 262.8 10.3998 262.8 10.1998C262.7 9.9998 262.5 9.7998 262.3 9.6998C262.2 9.5998 262 9.5998 261.7 9.5998H261.3H260.9V12.0998H258.9ZM258 4.8998C257 5.8998 256.5 7.1998 256.5 8.5998C256.5 10.0998 257 11.2998 258 12.3998C259 13.3998 260.3 13.8998 261.7 13.8998C263.1 13.8998 264.4 13.3998 265.4 12.2998C266.4 11.2998 266.9 9.9998 266.9 8.5998C266.9 7.1998 266.4 5.9998 265.4 4.8998C264.4 3.7998 263.1 3.2998 261.7 3.2998C260.2 3.2998 259 3.7998 258 4.8998ZM266.1 13.0998C264.9 14.2998 263.4 14.8998 261.7 14.8998C259.9 14.8998 258.4 14.2998 257.2 13.0998C256 11.8998 255.4 10.3998 255.4 8.5998C255.4 6.6998 256.1 5.1998 257.4 3.9998C258.6 2.7998 260.1 2.2998 261.8 2.2998C263.6 2.2998 265 2.8998 266.3 4.1998C267.6 5.4998 268.2 6.8998 268.2 8.6998C268 10.3998 267.4 11.8998 266.1 13.0998Z" fill="#ED057D"/>
<path d="M128.4 96.0998L121 88.3998L128 81.0998C128.3 80.7998 128.3 80.2998 128 79.9998L127.4 79.3998C127.1 79.0998 126.6 79.0998 126.3 79.3998L118.8 87.2998H115V79.9998C115 79.5998 114.7 79.1998 114.2 79.1998H113.3C112.9 79.1998 112.5 79.5998 112.5 79.9998V96.7998C112.5 97.1998 112.8 97.5998 113.3 97.5998H114.2C114.6 97.5998 115 97.1998 115 96.7998V89.5998H118.8L126.7 97.7998C127 98.0998 127.5 98.0998 127.8 97.7998L128.4 97.1998C128.7 96.8998 128.7 96.3998 128.4 96.0998Z" fill="#ED057D"/>
<path d="M128.4 96.0998L121 88.3998L128 81.0998C128.3 80.7998 128.3 80.2998 128 79.9998L127.4 79.3998C127.1 79.0998 126.6 79.0998 126.3 79.3998L118.8 87.2998H115V79.9998C115 79.5998 114.7 79.1998 114.2 79.1998H113.3C112.9 79.1998 112.5 79.5998 112.5 79.9998V96.7998C112.5 97.1998 112.8 97.5998 113.3 97.5998H114.2C114.6 97.5998 115 97.1998 115 96.7998V89.5998H118.8L126.7 97.7998C127 98.0998 127.5 98.0998 127.8 97.7998L128.4 97.1998C128.7 96.8998 128.7 96.3998 128.4 96.0998Z" fill="#ED057D"/>
<path d="M164.3 79.2002H163.4C163 79.2002 162.6 79.6002 162.6 80.0002V86.9002H151V80.0002C151 79.6002 150.7 79.2002 150.2 79.2002H149.3C148.9 79.2002 148.5 79.6002 148.5 80.0002V96.8002C148.5 97.2002 148.8 97.6002 149.3 97.6002H150.2C150.6 97.6002 151 97.2002 151 96.8002V89.3002H162.7V96.8002C162.7 97.2002 163 97.6002 163.5 97.6002H164.4C164.8 97.6002 165.2 97.2002 165.2 96.8002V80.0002C165.1 79.5002 164.7 79.2002 164.3 79.2002Z" fill="#ED057D"/>
<path d="M164.3 79.2002H163.4C163 79.2002 162.6 79.6002 162.6 80.0002V86.9002H151V80.0002C151 79.6002 150.7 79.2002 150.2 79.2002H149.3C148.9 79.2002 148.5 79.6002 148.5 80.0002V96.8002C148.5 97.2002 148.8 97.6002 149.3 97.6002H150.2C150.6 97.6002 151 97.2002 151 96.8002V89.3002H162.7V96.8002C162.7 97.2002 163 97.6002 163.5 97.6002H164.4C164.8 97.6002 165.2 97.2002 165.2 96.8002V80.0002C165.1 79.5002 164.7 79.2002 164.3 79.2002Z" fill="#ED057D"/>
<path d="M42.3 79.2002H41.4C41.4 79.2002 41.4 79.2002 41.3 79.2002H41.2C41 79.3002 40.9 79.4002 40.8 79.5002L29 93.4002V80.0002C29 79.6002 28.7 79.2002 28.2 79.2002H27.3C26.9 79.2002 26.5 79.6002 26.5 80.0002V96.8002C26.5 97.2002 26.8 97.6002 27.3 97.6002H28.2C28.4 97.6002 28.7 97.5002 28.8 97.3002L40.6 83.4002V96.8002C40.6 97.2002 40.9 97.6002 41.4 97.6002H42.3C42.7 97.6002 43.1 97.2002 43.1 96.8002V80.0002C43.1 79.5002 42.7 79.2002 42.3 79.2002Z" fill="#ED057D"/>
<path d="M42.3 79.2002H41.4C41.4 79.2002 41.4 79.2002 41.3 79.2002H41.2C41 79.3002 40.9 79.4002 40.8 79.5002L29 93.4002V80.0002C29 79.6002 28.7 79.2002 28.2 79.2002H27.3C26.9 79.2002 26.5 79.6002 26.5 80.0002V96.8002C26.5 97.2002 26.8 97.6002 27.3 97.6002H28.2C28.4 97.6002 28.7 97.5002 28.8 97.3002L40.6 83.4002V96.8002C40.6 97.2002 40.9 97.6002 41.4 97.6002H42.3C42.7 97.6002 43.1 97.2002 43.1 96.8002V80.0002C43.1 79.5002 42.7 79.2002 42.3 79.2002Z" fill="#ED057D"/>
<path d="M81.6999 79.2998C81.5999 79.2998 81.5999 79.2998 81.5999 79.1998C81.0999 78.9998 79.0999 78.3998 76.5999 78.5998C72.8999 78.7998 69.9999 80.5998 68.4999 88.5998C67.6999 92.6998 66.6999 94.9998 66.1999 95.8998C65.9999 96.2998 65.8999 96.4998 65.8999 96.8998C65.8999 97.5998 66.5999 97.6998 66.6999 97.6998H67.4999C67.8999 97.6998 68.1999 97.2998 68.1999 97.2998C68.7999 96.1998 69.8999 93.6998 70.7999 89.0998C72.2999 81.3998 74.8999 81.1998 76.6999 81.0998C77.9999 80.9998 78.9999 81.1998 79.7999 81.2998V96.7998C79.7999 97.1998 80.0999 97.5998 80.5999 97.5998H81.4999C81.8999 97.5998 82.2999 97.1998 82.2999 96.7998V79.9998C82.0999 79.6998 81.9999 79.3998 81.6999 79.2998Z" fill="#ED057D"/>
<path d="M81.6999 79.2998C81.5999 79.2998 81.5999 79.2998 81.5999 79.1998C81.0999 78.9998 79.0999 78.3998 76.5999 78.5998C72.8999 78.7998 69.9999 80.5998 68.4999 88.5998C67.6999 92.6998 66.6999 94.9998 66.1999 95.8998C65.9999 96.2998 65.8999 96.4998 65.8999 96.8998C65.8999 97.5998 66.5999 97.6998 66.6999 97.6998H67.4999C67.8999 97.6998 68.1999 97.2998 68.1999 97.2998C68.7999 96.1998 69.8999 93.6998 70.7999 89.0998C72.2999 81.3998 74.8999 81.1998 76.6999 81.0998C77.9999 80.9998 78.9999 81.1998 79.7999 81.2998V96.7998C79.7999 97.1998 80.0999 97.5998 80.5999 97.5998H81.4999C81.8999 97.5998 82.2999 97.1998 82.2999 96.7998V79.9998C82.0999 79.6998 81.9999 79.3998 81.6999 79.2998Z" fill="#ED057D"/>
<path d="M101.4 95.5998C97.5 95.5998 94.6 92.4998 94.6 88.3998C94.6 85.4998 96.4 81.2998 101.5 81.1998C105.4 81.1998 108.3 84.2998 108.3 88.3998C108.2 91.2998 106.5 95.4998 101.4 95.5998ZM110.6 88.3998C110.6 83.6998 107.4 78.8998 101.4 78.7998H101.3H101.2C96.6 78.8998 93 82.1998 92.3 86.7998H86.8V79.9998C86.8 79.5998 86.5 79.1998 86 79.1998H85.1C84.7 79.1998 84.3 79.5998 84.3 79.9998V96.7998C84.3 97.1998 84.6 97.5998 85.1 97.5998H86C86.4 97.5998 86.8 97.1998 86.8 96.7998V89.2998H92.2C92.6 93.6998 95.7 97.8998 101.3 97.9998H101.4H101.5C106.7 97.8998 110.6 93.7998 110.6 88.3998Z" fill="#ED057D"/>
<path d="M101.4 95.5998C97.5 95.5998 94.6 92.4998 94.6 88.3998C94.6 85.4998 96.4 81.2998 101.5 81.1998C105.4 81.1998 108.3 84.2998 108.3 88.3998C108.2 91.2998 106.5 95.4998 101.4 95.5998ZM110.6 88.3998C110.6 83.6998 107.4 78.8998 101.4 78.7998H101.3H101.2C96.6 78.8998 93 82.1998 92.3 86.7998H86.8V79.9998C86.8 79.5998 86.5 79.1998 86 79.1998H85.1C84.7 79.1998 84.3 79.5998 84.3 79.9998V96.7998C84.3 97.1998 84.6 97.5998 85.1 97.5998H86C86.4 97.5998 86.8 97.1998 86.8 96.7998V89.2998H92.2C92.6 93.6998 95.7 97.8998 101.3 97.9998H101.4H101.5C106.7 97.8998 110.6 93.7998 110.6 88.3998Z" fill="#ED057D"/>
<path d="M56.7 95.6002V81.2002C60.5 81.3002 63.2999 84.4002 63.2999 88.4002C63.2999 91.9002 61 95.4002 56.7 95.6002ZM47.7 88.4002C47.7 84.4002 50.4999 81.3002 54.2999 81.2002V95.6002C49.9999 95.4002 47.7 91.9002 47.7 88.4002ZM65.6999 88.4002C65.6999 83.8002 62.6 78.9002 56.7 78.8002V72.5002C56.7 72.1002 56.4 71.7002 55.9 71.7002H55C54.6 71.7002 54.2 72.1002 54.2 72.5002V78.8002C48.4 78.9002 45.2 83.8002 45.2 88.4002C45.2 93.0002 48.4 97.9002 54.2 98.0002V103.6C54.2 104 54.5 104.4 55 104.4H55.9C56.3 104.4 56.7 104 56.7 103.6V98.0002C62.5 97.9002 65.6999 93.0002 65.6999 88.4002Z" fill="#ED057D"/>
<path d="M56.7 95.6002V81.2002C60.5 81.3002 63.2999 84.4002 63.2999 88.4002C63.2999 91.9002 61 95.4002 56.7 95.6002ZM47.7 88.4002C47.7 84.4002 50.4999 81.3002 54.2999 81.2002V95.6002C49.9999 95.4002 47.7 91.9002 47.7 88.4002ZM65.6999 88.4002C65.6999 83.8002 62.6 78.9002 56.7 78.8002V72.5002C56.7 72.1002 56.4 71.7002 55.9 71.7002H55C54.6 71.7002 54.2 72.1002 54.2 72.5002V78.8002C48.4 78.9002 45.2 83.8002 45.2 88.4002C45.2 93.0002 48.4 97.9002 54.2 98.0002V103.6C54.2 104 54.5 104.4 55 104.4H55.9C56.3 104.4 56.7 104 56.7 103.6V98.0002C62.5 97.9002 65.6999 93.0002 65.6999 88.4002Z" fill="#ED057D"/>
<path d="M144.1 88.1998C144.1 89.0998 144 89.9998 143.7 90.8998C142.7 93.7998 140.3 95.5998 137.3 95.5998C132.8 95.5998 130.4 91.9998 130.3 88.3998C130.3 84.2998 133.3 81.1998 137.2 81.1998C140.1 81.1998 142.6 82.8998 143.6 85.5998C143.9 86.3998 144.1 87.2998 144.1 88.1998ZM145.6 79.1998H144.7C144.3 79.1998 143.9 79.5998 143.9 79.9998V81.6998C142.1 79.6998 139.3 78.7998 137.1 78.7998C131.1 78.7998 127.9 83.7998 127.9 88.3998C127.9 93.0998 131.1 97.9998 137.1 97.9998C139.8 97.9998 142.2 96.9998 143.9 94.9998V96.7998C143.9 97.1998 144.2 97.5998 144.7 97.5998H145.6C146 97.5998 146.4 97.1998 146.4 96.7998V79.9998C146.4 79.4998 146.1 79.1998 145.6 79.1998Z" fill="#ED057D"/>
<path d="M144.1 88.1998C144.1 89.0998 144 89.9998 143.7 90.8998C142.7 93.7998 140.3 95.5998 137.3 95.5998C132.8 95.5998 130.4 91.9998 130.3 88.3998C130.3 84.2998 133.3 81.1998 137.2 81.1998C140.1 81.1998 142.6 82.8998 143.6 85.5998C143.9 86.3998 144.1 87.2998 144.1 88.1998ZM145.6 79.1998H144.7C144.3 79.1998 143.9 79.5998 143.9 79.9998V81.6998C142.1 79.6998 139.3 78.7998 137.1 78.7998C131.1 78.7998 127.9 83.7998 127.9 88.3998C127.9 93.0998 131.1 97.9998 137.1 97.9998C139.8 97.9998 142.2 96.9998 143.9 94.9998V96.7998C143.9 97.1998 144.2 97.5998 144.7 97.5998H145.6C146 97.5998 146.4 97.1998 146.4 96.7998V79.9998C146.4 79.4998 146.1 79.1998 145.6 79.1998Z" fill="#ED057D"/>
<path d="M8.69995 81.9001C10.2 74.2001 14.1 74.1001 16.7 74.1001C18.1 74.1001 19.2 74.2001 20 74.4001V94.9001H5.69995C6.29995 92.5001 7.79995 86.6001 8.69995 81.9001ZM24.5 95.0001C24.4 95.0001 24.4 95.0001 24.5 95.0001C24.4 95.0001 24.2999 95.0001 24.2999 95.0001H24.2C24.2 95.0001 24.1 95.0001 24 95.0001H23.1H22.2999V73.0001C22.2999 72.6001 22 72.3001 21.7 72.2001C21.6 72.2001 19.6 71.5001 16.6 71.6001C13.9 71.6001 8.19995 71.7001 6.19995 81.4001C5.19995 86.6001 3.39995 93.2001 2.99995 94.9001H2.29995H1.49995C1.09995 94.9001 0.699951 95.3001 0.699951 95.7001V103.6C0.699951 104 0.999951 104.4 1.49995 104.4H2.39995C2.79995 104.4 3.19995 104 3.19995 103.6V97.4001H22.5V103.6C22.5 104 22.7999 104.4 23.2999 104.4H24C24.4 104.4 24.7999 104 24.7999 103.6V96.6001V95.7001C24.7999 95.4001 24.7 95.2001 24.5 95.0001Z" fill="#ED057D"/>
<path d="M8.69995 81.9001C10.2 74.2001 14.1 74.1001 16.7 74.1001C18.1 74.1001 19.2 74.2001 20 74.4001V94.9001H5.69995C6.29995 92.5001 7.79995 86.6001 8.69995 81.9001ZM24.5 95.0001C24.4 95.0001 24.4 95.0001 24.5 95.0001C24.4 95.0001 24.2999 95.0001 24.2999 95.0001H24.2C24.2 95.0001 24.1 95.0001 24 95.0001H23.1H22.2999V73.0001C22.2999 72.6001 22 72.3001 21.7 72.2001C21.6 72.2001 19.6 71.5001 16.6 71.6001C13.9 71.6001 8.19995 71.7001 6.19995 81.4001C5.19995 86.6001 3.39995 93.2001 2.99995 94.9001H2.29995H1.49995C1.09995 94.9001 0.699951 95.3001 0.699951 95.7001V103.6C0.699951 104 0.999951 104.4 1.49995 104.4H2.39995C2.79995 104.4 3.19995 104 3.19995 103.6V97.4001H22.5V103.6C22.5 104 22.7999 104.4 23.2999 104.4H24C24.4 104.4 24.7999 104 24.7999 103.6V96.6001V95.7001C24.7999 95.4001 24.7 95.2001 24.5 95.0001Z" fill="#ED057D"/>
<path d="M175.2 77.1002C175 77.0002 174.6 77.0002 174.2 77.0002H173.8V78.9002H174.5C174.9 78.9002 175.2 78.8002 175.4 78.7002C175.6 78.5002 175.7 78.3002 175.7 77.9002C175.7 77.5002 175.5 77.2002 175.2 77.1002ZM172.1 82.3002V75.8002C172.5 75.8002 173.1 75.8002 173.9 75.8002C174.7 75.8002 175.1 75.8002 175.2 75.8002C175.7 75.8002 176.1 75.9002 176.5 76.1002C177.1 76.4002 177.4 76.9002 177.4 77.6002C177.4 78.1002 177.2 78.5002 176.9 78.8002C176.6 79.0002 176.2 79.2002 175.8 79.2002C176.2 79.3002 176.5 79.4002 176.7 79.6002C177.1 79.9002 177.3 80.4002 177.3 81.1002V81.7002C177.3 81.8002 177.3 81.8002 177.3 81.9002C177.3 82.0002 177.3 82.0002 177.3 82.1002L177.4 82.3002H175.8C175.7 82.1002 175.7 81.8002 175.7 81.4002C175.7 81.0002 175.6 80.7002 175.6 80.6002C175.5 80.4002 175.4 80.2002 175.1 80.1002C175 80.0002 174.8 80.0002 174.5 80.0002H174.1H173.7V82.3002H172.1ZM171.2 75.6002C170.3 76.5002 169.8 77.7002 169.8 79.0002C169.8 80.3002 170.3 81.5002 171.2 82.4002C172.1 83.3002 173.3 83.8002 174.6 83.8002C175.9 83.8002 177.1 83.3002 178 82.4002C178.9 81.4002 179.4 80.3002 179.4 79.0002C179.4 77.7002 178.9 76.6002 178 75.6002C177.1 74.6002 175.9 74.1002 174.6 74.1002C173.3 74.2002 172.2 74.7002 171.2 75.6002ZM178.7 83.2002C177.6 84.3002 176.2 84.8002 174.6 84.8002C173 84.8002 171.6 84.2002 170.5 83.1002C169.4 82.0002 168.8 80.6002 168.8 79.0002C168.8 77.3002 169.4 75.9002 170.6 74.8002C171.7 73.7002 173.1 73.2002 174.6 73.2002C176.2 73.2002 177.6 73.8002 178.7 74.9002C179.8 76.0002 180.4 77.4002 180.4 79.0002C180.5 80.7002 179.9 82.1002 178.7 83.2002Z" fill="#ED057D"/>
</g>
<defs>
<clipPath id="clip0">
<rect width="268" height="104.4" fill="white"/>
</clipPath>
</defs>
</svg>
