<svg width="263" height="264" viewBox="0 0 263 264" fill="none" xmlns="http://www.w3.org/2000/svg">
<g clip-path="url(#clip0)">
<path d="M131.444 253.298C198.299 253.298 252.496 198.953 252.496 131.916C252.496 64.878 198.299 10.5332 131.444 10.5332C64.5889 10.5332 10.3921 64.878 10.3921 131.916C10.3921 198.953 64.5889 253.298 131.444 253.298Z" fill="white"/>
<path d="M135.545 21.1223C135.208 21.1223 135.039 20.8969 135.039 20.5027L135.151 19.2635C135.151 19.0945 135.208 18.9819 135.32 18.8692C135.432 18.7566 135.545 18.7002 135.657 18.7566C135.938 18.7566 136.219 18.7566 136.443 18.7002C136.668 18.6439 136.893 18.5313 137.117 18.4186C137.511 18.137 137.96 17.5174 138.409 16.5598L139.701 13.9688L135.376 0.619586V0.675912V0.506934V0.28163C135.376 0.056326 135.545 0 135.882 0L137.342 0.112652C137.623 0.112652 137.848 0.28163 137.904 0.619586C138.016 0.957542 138.185 1.5208 138.409 2.30937L138.578 2.87263C138.971 4.28078 139.364 5.57627 139.701 6.75912C139.87 7.37871 140.038 7.88564 140.207 8.33625L140.656 9.91338C140.825 10.4203 140.937 10.9272 141.106 11.3215L145.937 1.18285C146.049 1.01387 146.105 0.957542 146.217 0.901216C146.33 0.84489 146.442 0.84489 146.611 0.84489L148.071 0.957542C148.408 0.957542 148.577 1.12652 148.577 1.46448V1.63345L148.296 2.25304C148.071 2.64732 147.734 3.37956 147.229 4.39343L146.442 5.91423L144.532 9.68807C143.465 11.8285 142.285 14.1378 140.993 16.7288C140.656 17.4611 140.319 18.137 139.982 18.6439C139.701 19.1508 139.364 19.6015 138.971 19.9394C138.072 20.8406 136.949 21.2349 135.545 21.1223Z" fill="#ED057D"/>
<path d="M158.238 16.8978C158.35 16.6162 158.519 16.5035 158.743 16.5599L160.316 17.0105C160.597 17.1231 160.71 17.2921 160.597 17.5737C160.429 18.1933 160.372 18.8129 160.429 19.4325C160.485 20.0521 160.653 20.6153 160.934 21.1786C161.215 21.7419 161.608 22.1925 162.058 22.5867C162.507 22.981 163.069 23.2627 163.687 23.488C164.305 23.6569 164.922 23.7133 165.54 23.6569C166.158 23.6006 166.72 23.4316 167.282 23.0937C167.843 22.812 168.293 22.4178 168.686 21.9672C169.079 21.4602 169.36 20.9533 169.585 20.3337C169.753 19.7141 169.809 19.0945 169.753 18.4749C169.697 17.8554 169.472 17.2921 169.135 16.7288C168.798 16.1656 168.293 15.6586 167.731 15.2644C167.113 14.8138 166.439 14.4758 165.597 14.2505C165.203 14.1942 165.091 14.0252 165.147 13.7999C165.203 13.6872 165.259 13.5183 165.428 13.3493L170.146 8.50524L163.35 6.42118C162.9 6.2522 162.732 5.97057 162.844 5.46364L163.125 4.50609C163.237 4.05549 163.574 3.88651 164.024 4.05549L173.517 6.92811C173.742 6.98444 173.91 7.09709 173.966 7.26607C174.079 7.43505 174.079 7.60403 174.022 7.82933C173.966 8.05463 173.798 8.27994 173.573 8.50524L169.079 13.124C169.697 13.5746 170.203 14.0815 170.652 14.6448C171.101 15.208 171.438 15.8839 171.663 16.5599C171.888 17.2358 172.056 17.968 172.056 18.7566C172.056 19.5451 172 20.2774 171.775 21.0096C171.495 21.9108 171.045 22.7557 170.427 23.488C169.809 24.2202 169.135 24.7835 168.293 25.2341C167.45 25.6847 166.608 25.9663 165.653 26.0226C164.698 26.1353 163.799 26.0226 162.844 25.741C161.945 25.4594 161.103 25.0088 160.372 24.4455C159.642 23.8259 159.081 23.15 158.631 22.3051C158.182 21.5166 157.901 20.6153 157.845 19.6578C157.901 18.7566 157.957 17.799 158.238 16.8978Z" fill="#ED057D"/>
<path d="M198.177 32.5003L204.244 22.5306C204.3 22.4179 204.412 22.3616 204.525 22.3052C204.637 22.2489 204.749 22.3052 204.862 22.3616L206.097 23.0938C206.21 23.1501 206.322 23.2628 206.322 23.3754C206.378 23.4881 206.322 23.6007 206.266 23.7134L195.93 40.7802C195.762 41.0618 195.537 41.1181 195.256 40.8928L194.02 40.1606C193.739 39.9916 193.683 39.7663 193.852 39.541L196.885 34.528L186.381 28.1632L183.347 33.1762C183.179 33.4578 182.954 33.4578 182.673 33.2888L181.438 32.5566C181.157 32.3876 181.101 32.1623 181.269 31.937L191.549 14.8702C191.605 14.7576 191.717 14.7012 191.83 14.6449C191.942 14.5886 192.054 14.6449 192.167 14.7012L193.402 15.4898C193.515 15.5461 193.571 15.6588 193.627 15.7714C193.683 15.8841 193.627 15.9967 193.571 16.1094L187.617 26.0791L198.177 32.5003Z" fill="#ED057D"/>
<path d="M209.524 49.2851L207.165 50.2426C206.884 50.3553 206.659 50.2989 206.491 50.13L205.423 49.0034C205.199 48.7781 205.142 48.5528 205.311 48.4402C205.423 48.3275 205.479 48.2712 205.479 48.2712L205.536 48.2149L225.589 40.5545L225.645 40.4982C225.758 40.4419 225.87 40.4419 225.982 40.4419C226.095 40.4419 226.151 40.4982 226.319 40.6672L226.994 41.3431C227.106 41.4558 227.162 41.5684 227.162 41.6811C227.162 41.7937 227.162 41.85 227.106 42.019L227.162 41.9627L227.106 42.0753L218.399 61.7331L218.343 61.8458L218.231 62.0148C218.062 62.1837 217.894 62.1274 217.669 61.8458L216.658 60.7756C216.433 60.5503 216.433 60.325 216.545 60.0433L216.995 59.0295L217.613 57.734L209.524 49.2851ZM223.735 43.9904L223.511 43.7651C222.724 44.0468 221.769 44.441 220.534 44.948L220.197 45.0606L215.085 47.0884L211.939 48.3275L218.568 55.312L223.735 43.9904Z" fill="#ED057D"/>
<path d="M243.508 63.6486L236.543 67.4788L249.519 73.8436C249.687 73.9563 249.8 74.0689 249.856 74.1816L250.586 75.4771C250.642 75.5897 250.642 75.7024 250.642 75.815C250.586 75.9277 250.53 76.0403 250.417 76.0967L232.948 85.7284C232.667 85.8974 232.442 85.8411 232.33 85.5594L231.656 84.2639C231.487 83.9823 231.544 83.757 231.824 83.588L246.822 75.3081L234.015 68.8869L226.095 73.224C225.814 73.393 225.589 73.3367 225.477 73.0551L224.803 71.7596C224.634 71.4779 224.69 71.2526 224.971 71.0837L242.441 61.4519C242.553 61.3956 242.666 61.3956 242.778 61.4519C242.89 61.5082 243.003 61.5646 243.059 61.7335L243.733 63.029C243.789 63.1417 243.789 63.2543 243.789 63.367C243.733 63.4796 243.621 63.536 243.508 63.6486ZM248.732 66.8592C248.508 66.4086 248.395 66.0143 248.339 65.5074C248.283 65.0568 248.339 64.6062 248.451 64.1556C248.564 63.705 248.732 63.367 249.013 63.029C249.238 62.6911 249.575 62.4095 249.912 62.2405C250.024 62.1842 250.193 62.1278 250.361 62.1842C250.53 62.2405 250.586 62.2968 250.698 62.4658L251.148 63.3107C251.204 63.4796 251.26 63.5923 251.204 63.7613C251.148 63.9303 251.092 63.9866 250.923 64.0992C250.642 64.2682 250.417 64.5498 250.361 64.8878C250.249 65.2258 250.361 65.62 250.586 66.0143C250.811 66.3523 251.035 66.6339 251.372 66.7466C251.709 66.8592 251.99 66.8592 252.271 66.6902C252.664 66.4649 252.945 66.5213 253.114 66.8592L253.507 67.5914C253.619 67.7604 253.619 67.9294 253.619 68.0984C253.619 68.2674 253.507 68.38 253.338 68.4927C253.001 68.718 252.608 68.8306 252.159 68.8306C251.709 68.8306 251.316 68.8306 250.867 68.6616C250.417 68.549 250.024 68.3237 249.687 67.9857C249.238 67.6478 248.957 67.2535 248.732 66.8592Z" fill="#ED057D"/>
<path d="M244.182 131.296L237.498 131.859C237.329 131.859 237.161 131.859 237.048 131.747C236.936 131.634 236.88 131.521 236.824 131.296L236.711 130.113C236.655 129.719 236.88 129.437 237.273 129.437L242.16 129.043L240.98 114.905C240.98 114.792 241.036 114.623 241.149 114.511C241.261 114.398 241.43 114.285 241.598 114.285L261.146 112.596C261.315 112.596 261.427 112.652 261.539 112.708C261.652 112.821 261.708 112.934 261.764 113.103L261.876 114.342C261.876 114.511 261.82 114.623 261.764 114.792C261.652 114.905 261.539 115.018 261.371 115.018L243.62 116.539L244.519 126.734L262.27 125.213C262.438 125.213 262.607 125.269 262.719 125.382C262.831 125.494 262.944 125.607 262.944 125.776L263.056 126.959C263.056 127.128 263 127.297 262.944 127.409C262.831 127.522 262.719 127.578 262.551 127.635L244.744 129.156L244.856 130.62C244.856 130.789 244.856 130.958 244.744 131.071C244.632 131.183 244.351 131.296 244.182 131.296Z" fill="#860064"/>
<path d="M262.326 146.053L260.192 159.741C260.135 160.079 259.967 160.191 259.63 160.135L258.226 159.91C258.057 159.91 257.945 159.853 257.888 159.741C257.832 159.628 257.776 159.515 257.832 159.346L259.63 147.631L250.53 146.222L249.069 155.573C249.069 155.685 249.013 155.798 248.901 155.911C248.789 156.023 248.676 156.023 248.508 155.967L247.047 155.742C246.935 155.742 246.822 155.685 246.71 155.573C246.654 155.46 246.598 155.347 246.654 155.235L248.114 145.884L243.789 145.209L241.935 157.262C241.879 157.6 241.711 157.713 241.374 157.657L239.913 157.431C239.632 157.375 239.464 157.206 239.52 156.924L241.711 142.899C241.767 142.618 241.935 142.449 242.216 142.505L261.933 145.603C262.214 145.547 262.382 145.716 262.326 146.053Z" fill="#860064"/>
<path d="M238.79 184.749L249.463 189.368C249.575 189.424 249.687 189.481 249.743 189.593C249.8 189.706 249.8 189.819 249.743 189.931L249.182 191.283C249.126 191.396 249.013 191.509 248.901 191.565C248.789 191.621 248.676 191.621 248.508 191.565L230.195 183.623C229.915 183.51 229.858 183.285 229.971 182.947L230.532 181.595C230.645 181.314 230.87 181.257 231.15 181.37L236.543 183.679L241.43 172.301L236.037 169.992C235.757 169.879 235.7 169.654 235.813 169.316L236.374 167.964C236.487 167.683 236.711 167.626 236.992 167.739L255.305 175.681C255.417 175.737 255.529 175.794 255.585 175.906C255.642 176.019 255.642 176.132 255.585 176.244L255.024 177.596C254.968 177.709 254.911 177.821 254.743 177.878C254.631 177.934 254.518 177.934 254.406 177.878L243.733 173.259L238.79 184.749Z" fill="#860064"/>
<path d="M222.499 194.832C222.724 194.55 223.005 194.55 223.286 194.775L224.241 195.508C224.353 195.62 224.466 195.733 224.466 195.846C224.522 195.958 224.466 196.071 224.409 196.183C224.241 196.409 224.128 196.634 224.016 196.859C223.96 197.085 223.904 197.31 223.904 197.592C223.96 198.099 224.241 198.831 224.746 199.676L226.207 202.154L239.744 205.703H239.688L239.801 205.759L239.969 205.872C240.138 205.984 240.138 206.21 239.913 206.435L239.014 207.618C238.846 207.843 238.565 207.899 238.284 207.843C237.891 207.73 237.385 207.618 236.599 207.392L236.037 207.223C234.633 206.773 233.341 206.435 232.161 206.097C231.543 205.928 231.038 205.759 230.588 205.646L229.016 205.196C228.51 205.027 228.004 204.914 227.555 204.801L233.453 214.32C233.509 214.489 233.565 214.602 233.565 214.715C233.565 214.827 233.509 214.94 233.397 215.053L232.498 216.236C232.274 216.517 232.049 216.574 231.824 216.405L231.656 216.292L231.319 215.729C231.094 215.334 230.701 214.658 230.083 213.645L229.184 212.124L227.049 208.463C225.814 206.378 224.522 204.125 223.061 201.703C222.612 200.971 222.275 200.352 221.994 199.845C221.713 199.338 221.545 198.774 221.432 198.268C221.376 197.141 221.657 195.958 222.499 194.832Z" fill="#860064"/>
<path d="M190.537 248.06C190.313 248.06 190.144 247.947 190.088 247.778C190.032 247.722 190.032 247.665 190.032 247.609V246.088C190.032 245.863 190.088 245.694 190.2 245.638C190.313 245.581 190.425 245.581 190.65 245.581C191.492 245.638 192.335 245.581 193.121 245.412C193.908 245.243 194.694 244.962 195.481 244.568C196.548 243.948 197.39 243.159 198.064 242.202C198.739 241.301 199.244 240.287 199.469 239.16C199.75 238.09 199.806 237.02 199.637 235.893C199.469 234.823 199.132 233.809 198.57 232.852C197.952 231.838 197.222 231.049 196.323 230.373C195.424 229.754 194.469 229.303 193.402 229.022C192.335 228.796 191.324 228.74 190.256 228.909C189.189 229.078 188.178 229.416 187.279 229.979C185.931 230.824 184.864 231.95 184.134 233.471L183.797 234.091C183.74 234.26 183.628 234.373 183.572 234.373C183.46 234.429 183.347 234.429 183.123 234.316L181.718 233.584C181.606 233.528 181.55 233.415 181.494 233.359C181.437 233.246 181.437 233.077 181.606 232.795C182.055 231.781 182.617 230.88 183.347 230.035C184.077 229.191 184.92 228.458 185.987 227.839C186.83 227.332 187.729 226.937 188.627 226.712C189.526 226.431 190.481 226.318 191.38 226.318C192.279 226.318 193.234 226.431 194.132 226.656C195.031 226.881 195.874 227.219 196.66 227.67C197.447 228.12 198.233 228.684 198.907 229.303C199.581 229.923 200.199 230.711 200.705 231.556C201.21 232.401 201.603 233.246 201.828 234.204C202.109 235.105 202.221 236.062 202.221 236.964C202.221 237.865 202.109 238.822 201.884 239.723C201.659 240.625 201.322 241.47 200.873 242.258C200.424 243.103 199.862 243.835 199.244 244.511C198.626 245.187 197.84 245.807 196.997 246.314C195.031 247.778 192.84 248.285 190.537 248.06Z" fill="#ED057D"/>
<path d="M161.496 255.326C161.272 254.537 161.215 253.861 161.384 253.185C161.496 252.566 161.833 251.946 162.283 251.214C161.159 250.988 160.204 250.594 159.418 249.975C158.519 249.186 157.845 248.059 157.396 246.595C157.115 245.694 157.002 244.793 157.115 243.948C157.171 243.103 157.396 242.371 157.789 241.638C158.182 240.962 158.631 240.343 159.306 239.892C159.923 239.385 160.654 239.047 161.44 238.766L170.428 236.006C170.652 235.949 170.821 235.949 170.989 236.062C171.158 236.118 171.27 236.287 171.326 236.513L177 255.157C177.056 255.382 177.056 255.551 177 255.72C176.944 255.889 176.775 256.001 176.551 256.058L168.462 258.536C167.731 258.761 166.945 258.874 166.271 258.874C165.541 258.874 164.867 258.705 164.249 258.423C163.631 258.142 163.069 257.748 162.62 257.241C162.058 256.677 161.721 256.058 161.496 255.326ZM164.417 248.904L171.776 246.651L169.417 238.822L162.058 241.075C161.609 241.188 161.159 241.413 160.822 241.695C160.429 241.976 160.148 242.258 159.923 242.652C159.418 243.553 159.306 244.624 159.699 245.863C159.923 246.539 160.148 247.102 160.541 247.553C160.878 248.003 161.272 248.397 161.721 248.623C162.114 248.848 162.564 249.017 163.069 249.073C163.518 249.073 163.968 249.017 164.417 248.904ZM163.799 254.593C164.024 255.438 164.53 255.945 165.26 256.227C165.934 256.508 166.72 256.508 167.675 256.227L174.079 254.255L172.45 248.904L166.046 250.876C165.597 250.988 165.204 251.214 164.867 251.439C164.53 251.664 164.249 251.946 164.08 252.284C163.631 252.904 163.518 253.692 163.799 254.593Z" fill="#ED057D"/>
<path d="M134.814 264C133.859 264 132.904 263.944 131.949 263.718C131.05 263.493 130.152 263.155 129.365 262.705C127.736 261.803 126.388 260.508 125.433 258.931C124.928 258.142 124.534 257.241 124.254 256.34C123.973 255.439 123.804 254.481 123.804 253.523C123.804 252.566 123.86 251.608 124.085 250.707C124.31 249.806 124.647 248.905 125.096 248.116C125.546 247.328 126.051 246.595 126.725 245.919C127.343 245.244 128.073 244.68 128.86 244.173C129.646 243.666 130.489 243.272 131.444 243.047C132.342 242.765 133.297 242.596 134.252 242.596C135.207 242.596 136.162 242.653 137.117 242.878C138.072 243.103 138.915 243.441 139.701 243.892C140.487 244.342 141.274 244.906 141.892 245.525C142.566 246.145 143.128 246.877 143.633 247.666C144.139 248.454 144.476 249.299 144.757 250.2C145.037 251.101 145.206 252.059 145.206 253.017C145.206 253.974 145.15 254.932 144.925 255.889C144.7 256.79 144.363 257.692 143.914 258.48C143.465 259.269 142.903 260.057 142.285 260.733C141.667 261.409 140.937 261.972 140.15 262.479C139.364 262.986 138.521 263.38 137.623 263.606C136.724 263.831 135.769 263.944 134.814 264ZM142.847 253.073C142.791 251.946 142.566 250.876 142.116 249.862C141.667 248.848 141.049 248.003 140.263 247.215C139.476 246.483 138.578 245.863 137.566 245.469C136.555 245.075 135.488 244.906 134.365 244.906C133.241 244.962 132.174 245.187 131.163 245.638C130.152 246.088 129.309 246.708 128.523 247.497C127.792 248.285 127.175 249.186 126.781 250.2C126.388 251.214 126.22 252.284 126.22 253.411C126.276 254.537 126.5 255.607 126.95 256.621C127.399 257.635 128.017 258.48 128.804 259.269C129.59 260.001 130.489 260.621 131.5 261.015C132.511 261.409 133.578 261.578 134.702 261.578C135.825 261.522 136.892 261.296 137.904 260.846C138.915 260.395 139.757 259.776 140.544 258.987C141.274 258.198 141.892 257.297 142.285 256.283C142.678 255.27 142.903 254.199 142.847 253.073Z" fill="#ED057D"/>
<path d="M107.29 261.69L93.8645 258.48C93.5275 258.424 93.4151 258.198 93.5275 257.86L93.8645 256.508C93.9207 256.34 93.9769 256.227 94.0892 256.171C94.2016 256.114 94.3139 256.058 94.4824 256.114L105.998 258.818L108.132 249.806L98.92 247.609C98.8077 247.553 98.6954 247.496 98.6392 247.384C98.583 247.271 98.583 247.158 98.583 246.989L98.92 245.581C98.9762 245.469 99.0324 245.356 99.0886 245.3C99.2009 245.243 99.3133 245.187 99.4818 245.243L108.694 247.44L109.705 243.216L97.8528 240.399C97.5157 240.343 97.4034 240.118 97.5157 239.78L97.8528 238.372C97.9089 238.09 98.0775 237.977 98.4145 238.034L112.177 241.301C112.458 241.357 112.57 241.526 112.514 241.807L107.908 261.24C107.795 261.634 107.627 261.747 107.29 261.69Z" fill="#ED057D"/>
<path d="M76.2822 251.214L79.9334 244.117L65.6656 246.032C65.4971 246.032 65.3285 246.032 65.2162 245.919L63.9242 245.244C63.8119 245.187 63.6995 245.075 63.6995 244.962C63.6434 244.849 63.6995 244.737 63.7557 244.624L72.9118 226.881C73.0804 226.6 73.2489 226.543 73.5297 226.656L74.8217 227.332C75.1026 227.501 75.2149 227.726 75.0464 227.951L67.1261 243.328L81.2816 241.526L85.4383 233.528C85.6069 233.246 85.7754 233.19 86.0562 233.302L87.3482 233.978C87.6291 234.147 87.7414 234.373 87.5729 234.654L78.4168 252.341C78.3606 252.453 78.2482 252.51 78.1359 252.566C78.0236 252.622 77.855 252.566 77.7427 252.51L76.4507 251.834C76.3384 251.777 76.226 251.665 76.226 251.552C76.1699 251.496 76.226 251.383 76.2822 251.214ZM70.1594 251.439C70.5526 251.665 70.9458 251.946 71.2267 252.341C71.5075 252.679 71.7322 253.073 71.9007 253.523C72.0693 253.918 72.1254 254.368 72.0693 254.763C72.0693 255.213 71.9569 255.607 71.7322 255.945C71.676 256.114 71.5637 256.171 71.3952 256.227C71.2267 256.283 71.1143 256.227 71.002 256.171L70.1594 255.72C69.9909 255.664 69.9347 255.551 69.8785 255.382C69.8224 255.213 69.8224 255.101 69.9347 254.988C70.1032 254.706 70.1032 254.368 69.9909 254.03C69.8785 253.692 69.5977 253.411 69.2045 253.185C68.8112 253.016 68.4742 252.96 68.1372 253.017C67.8001 253.073 67.5754 253.242 67.4069 253.523C67.1822 253.918 66.9575 254.03 66.6205 253.861L65.8903 253.467C65.7218 253.354 65.6094 253.242 65.4971 253.129C65.4409 252.96 65.4409 252.848 65.4971 252.679C65.6656 252.284 65.9464 252.003 66.2835 251.721C66.6205 251.439 67.0137 251.27 67.4069 251.158C67.8563 251.045 68.3057 250.989 68.7551 251.045C69.2606 251.101 69.71 251.214 70.1594 251.439Z" fill="#ED057D"/>
<path d="M40.2195 209.814C40.3319 209.927 40.3319 210.04 40.3319 210.152C40.3319 210.265 40.2195 210.377 40.1072 210.49L38.9837 211.391C38.8714 211.504 38.759 211.56 38.6467 211.504C38.5343 211.504 38.422 211.448 38.3658 211.335L32.4677 204.013C31.7936 204.745 31.2881 205.59 30.951 206.491C30.614 207.392 30.3893 208.35 30.3331 209.364C30.277 210.377 30.4455 211.391 30.7825 212.405C31.1196 213.419 31.6251 214.32 32.2992 215.221C33.4788 216.517 34.8831 217.418 36.456 217.812C36.6806 217.869 36.793 217.925 36.8492 217.981C36.9053 218.038 36.9053 218.207 36.8492 218.432L36.3436 219.784C36.2874 219.84 36.2874 219.953 36.2313 219.953C36.1189 220.066 35.8942 220.066 35.6695 220.009C33.4226 219.39 31.5689 218.207 30.1085 216.348C29.4906 215.616 28.985 214.771 28.648 213.87C28.2548 212.968 28.0301 212.124 27.8616 211.166C27.7492 210.265 27.693 209.364 27.8054 208.406C27.9177 207.505 28.1424 206.604 28.4233 205.702C28.7603 204.858 29.2097 204.013 29.7714 203.224C30.3331 202.435 30.951 201.76 31.7375 201.14C32.5239 200.52 33.3103 200.013 34.2091 199.619C35.1078 199.225 35.9504 199 36.9053 198.831C37.8041 198.718 38.7029 198.662 39.6016 198.774C40.5004 198.887 41.3991 199.056 42.2979 199.394C43.1967 199.732 43.9831 200.182 44.7695 200.746C45.5559 201.309 46.23 201.985 46.8479 202.717C47.5781 203.675 48.196 204.632 48.5892 205.702C48.9824 206.773 49.2071 207.843 49.2633 208.913C49.3195 209.138 49.2633 209.307 49.151 209.42C49.151 209.42 49.0948 209.476 49.0386 209.476L48.8701 209.533L47.2973 209.758C47.0726 209.758 46.9041 209.758 46.8479 209.645C46.7917 209.589 46.7917 209.476 46.7355 209.307L46.6794 208.631C46.5108 206.942 45.8929 205.477 44.8818 204.238C44.2639 203.449 43.5337 202.83 42.6911 202.323C41.8485 201.816 40.9498 201.478 39.9948 201.309C39.0399 201.14 38.085 201.14 37.0739 201.309C36.1189 201.478 35.164 201.816 34.2652 202.379L40.2195 209.814Z" fill="#860064"/>
<path d="M14.5486 191.227L22.8622 187.453C22.5813 186.89 22.1881 186.383 21.5702 185.932C20.8961 185.425 19.9974 185.087 18.9301 184.918L16.1215 184.412L15.7283 184.355C14.7171 184.186 13.9869 184.017 13.4252 183.905C12.8634 183.792 12.3579 183.623 11.9085 183.398C11.2906 183.116 10.7851 182.778 10.3357 182.328C9.8863 181.877 9.49309 181.314 9.15606 180.638C9.04371 180.469 9.04371 180.356 9.09989 180.243C9.15606 180.131 9.2684 180.018 9.43692 179.962L10.5604 179.455C10.7289 179.399 10.8412 179.399 11.0098 179.455C11.1783 179.511 11.2344 179.568 11.2906 179.737C11.5715 180.243 12.0209 180.694 12.6949 181.088C13.369 181.483 14.2678 181.821 15.335 182.046L18.0313 182.609L18.5369 182.722C18.6492 182.722 18.8177 182.778 18.9863 182.834C19.6603 182.947 20.1097 183.06 20.4467 183.172L26.7942 169.823L26.9628 169.542L28.2547 172.414C28.3109 172.583 28.3109 172.752 28.1424 172.977L22.7498 184.13C23.6486 184.75 24.435 185.594 25.0529 186.665L32.4677 183.285C32.6362 183.229 32.8047 183.172 32.9732 183.229C33.1418 183.285 33.2541 183.398 33.3103 183.567L33.8158 184.637C33.9843 185.031 33.872 185.313 33.535 185.482L15.6721 193.593C15.5036 193.649 15.335 193.705 15.1665 193.649C14.998 193.593 14.8857 193.48 14.8295 193.311L14.3239 192.241C14.2678 192.072 14.2116 191.903 14.2678 191.734C14.2678 191.396 14.3801 191.283 14.5486 191.227Z" fill="#860064"/>
<path d="M1.12324 151.404C0.954722 150.447 0.954722 149.489 1.06707 148.532C1.17941 147.574 1.4041 146.673 1.74114 145.828C2.47138 144.082 3.53866 142.618 4.99915 141.435C5.72939 140.815 6.51581 140.365 7.41457 139.97C8.31333 139.576 9.21209 139.294 10.167 139.182C11.122 139.013 12.0769 139.013 13.0318 139.125C13.9868 139.238 14.8855 139.463 15.7281 139.801C16.5707 140.139 17.3571 140.59 18.0874 141.153C18.8176 141.716 19.4917 142.336 20.0534 143.068C20.6151 143.8 21.1207 144.589 21.5139 145.49C21.9071 146.391 22.188 147.293 22.3003 148.25C22.4688 149.208 22.4688 150.165 22.3565 151.123C22.2441 152.08 22.0194 152.982 21.6824 153.826C21.3454 154.671 20.896 155.46 20.3343 156.248C19.7725 156.981 19.1546 157.657 18.4244 158.22C17.6942 158.783 16.9077 159.29 16.0651 159.684C15.2226 160.079 14.2676 160.36 13.3127 160.473C12.3578 160.642 11.4028 160.642 10.4479 160.529C9.49295 160.417 8.59419 160.191 7.7516 159.853C6.90902 159.515 6.06643 159.065 5.33618 158.502C4.60594 157.938 3.93187 157.319 3.37014 156.586C2.80842 155.854 2.30286 155.066 1.90966 154.164C1.51645 153.263 1.23558 152.362 1.12324 151.404ZM12.9195 158.051C14.0429 157.882 15.054 157.488 16.009 156.924C16.9639 156.361 17.7503 155.629 18.3682 154.784C19.0423 153.883 19.4917 152.925 19.7725 151.855C20.0534 150.785 20.1096 149.715 19.9411 148.588C19.7725 147.462 19.4355 146.448 18.8176 145.49C18.2559 144.533 17.5256 143.744 16.6269 143.125C15.7281 142.449 14.7732 141.998 13.7059 141.716C12.6386 141.435 11.5713 141.378 10.4479 141.547C9.32444 141.716 8.31333 142.054 7.3584 142.674C6.40346 143.237 5.61705 143.969 4.99915 144.871C4.38125 145.772 3.8757 146.729 3.59483 147.8C3.31397 148.87 3.2578 149.94 3.42632 151.067C3.59483 152.193 3.98804 153.207 4.54977 154.164C5.11149 155.122 5.84174 155.911 6.68432 156.53C7.58309 157.15 8.53802 157.657 9.6053 157.938C10.7288 158.164 11.796 158.22 12.9195 158.051Z" fill="#860064"/>
<path d="M13.8746 110.286L2.35925 108.765C2.2469 108.765 2.13456 108.709 2.02221 108.596C1.96604 108.484 1.90987 108.371 1.90987 108.258L2.07839 106.794C2.07839 106.681 2.13456 106.569 2.2469 106.456C2.35925 106.343 2.47159 106.343 2.58394 106.343L22.3567 108.934C22.6375 108.991 22.8061 109.16 22.7499 109.498L22.5814 110.962C22.5252 111.244 22.3567 111.413 22.0758 111.356L16.29 110.624L14.661 122.903L20.503 123.692C20.7839 123.748 20.9524 123.917 20.8962 124.255L20.7277 125.719C20.6715 126.001 20.503 126.17 20.2221 126.114L0.449381 123.523C0.337035 123.523 0.22469 123.466 0.112345 123.354C0 123.241 0 123.128 0 122.959L0.168518 121.495C0.168518 121.382 0.22469 121.27 0.337035 121.157C0.449381 121.101 0.561726 121.044 0.674071 121.044L12.1894 122.565L13.8746 110.286Z" fill="#860064"/>
<path d="M10.729 78.8563C11.1222 77.955 11.6278 77.1665 12.1895 76.4342C12.7512 75.702 13.4815 75.0261 14.2117 74.5192C15.7284 73.3926 17.4135 72.7731 19.2672 72.5478C20.2222 72.4351 21.1209 72.4351 22.0759 72.6041C23.0308 72.7167 23.9296 72.9984 24.8283 73.3926C25.7271 73.7869 26.5135 74.2939 27.2438 74.8571C27.974 75.4204 28.6481 76.1526 29.1536 76.8849C29.7153 77.6171 30.1086 78.4057 30.4456 79.3069C30.7826 80.1518 31.0073 81.053 31.1197 82.0105C31.232 82.9117 31.232 83.8693 31.0635 84.8268C30.895 85.7844 30.6703 86.6856 30.2771 87.5868C29.8839 88.488 29.3783 89.3329 28.8166 90.0651C28.1987 90.7974 27.5246 91.417 26.7944 91.9802C26.0641 92.5435 25.2215 92.9378 24.379 93.2757C23.5364 93.6137 22.6376 93.839 21.7388 93.9516C20.8401 94.0643 19.8851 94.0643 18.9302 93.8953C17.9753 93.7826 17.0765 93.501 16.1778 93.1067C15.279 92.7125 14.4926 92.2055 13.7623 91.6423C13.0321 91.0227 12.358 90.3468 11.8525 89.6145C11.2907 88.826 10.8414 88.0374 10.5043 87.1925C10.1673 86.3476 9.9426 85.4464 9.83025 84.5452C9.71791 83.644 9.71791 82.6864 9.88642 81.7289C10.1111 80.6587 10.3358 79.7575 10.729 78.8563ZM17.1889 90.7974C18.2 91.248 19.2672 91.4733 20.3907 91.5296C21.5141 91.5859 22.5253 91.3606 23.5364 90.9663C24.5475 90.5721 25.4462 90.0088 26.2326 89.2766C27.0191 88.5443 27.637 87.6431 28.0863 86.5729C28.5357 85.5591 28.7604 84.4889 28.7604 83.3623C28.7604 82.2921 28.5919 81.222 28.1987 80.1518C27.8055 79.1379 27.2438 78.2367 26.4573 77.4481C25.7271 76.6595 24.8283 76.04 23.7611 75.5894C22.7499 75.1387 21.6827 74.9134 20.5592 74.9134C19.4919 74.9134 18.4247 75.0824 17.4136 75.4767C16.4024 75.871 15.5037 76.4342 14.7173 77.2228C13.9309 78.0114 13.313 78.8563 12.8636 79.9265C12.4142 80.9403 12.1895 82.0105 12.1333 83.137C12.1333 84.2072 12.3018 85.2774 12.6951 86.2913C13.0883 87.3052 13.65 88.2064 14.4364 88.9949C15.279 89.7272 16.1778 90.3468 17.1889 90.7974Z" fill="#860064"/>
<path d="M45.556 53.3408C45.6121 53.5098 45.6683 53.6224 45.6683 53.7351C45.6683 53.8477 45.6121 53.9604 45.4998 54.1294L44.4887 55.2559C44.3202 55.4812 44.0393 55.5375 43.7584 55.4249C42.6912 55.0306 41.2868 54.4673 39.5455 53.8477L38.5344 53.4535C37.9727 53.2845 37.5233 53.1155 37.0739 52.9465C36.3436 52.6649 35.5572 52.4396 34.7708 52.1016L32.0745 51.1441L33.5912 54.242L35.8943 59.0861L37.1301 61.6207C37.8041 63.0289 38.5344 64.4934 39.2646 65.9578L39.9387 67.366C40.051 67.6476 40.051 67.8729 39.8264 68.0982L38.8152 69.2247C38.5906 69.45 38.422 69.5064 38.2535 69.3374C38.1412 69.2247 38.085 69.1684 38.085 69.1684L38.0288 69.1121L28.9289 49.6796L28.8727 49.567C28.8165 49.4543 28.8165 49.3417 28.8727 49.229C28.9289 49.1727 28.9289 49.06 29.0412 49.0037L29.6591 48.3278C29.7715 48.2151 29.8838 48.1025 29.9961 48.1025C30.1085 48.1025 30.2208 48.1025 30.3332 48.1588L30.4455 48.2151H30.3894L42.4103 52.3833L37.0177 40.6111C36.9615 40.4985 36.9615 40.3858 36.9615 40.3295C36.9615 40.2169 37.0177 40.1042 37.1301 39.9915L37.748 39.3156C37.9165 39.1467 38.0288 39.0903 38.1412 39.0903L38.3097 39.1467C38.3659 39.1467 38.422 39.203 38.4782 39.203C41.8486 40.4422 45.2189 41.625 48.5893 42.8078L58.6442 46.4127H58.588L58.7003 46.469L58.8689 46.5817C59.0374 46.7507 58.9812 46.9196 58.8127 47.1449L57.8016 48.2715C57.5769 48.4968 57.3522 48.5531 57.0713 48.4404L55.6108 47.8772L51.0609 46.1874L45.7806 44.216L44.0955 43.5964L43.4214 43.3148C42.4665 42.9768 41.8486 42.7515 41.4554 42.5825L40.1634 42.1319L40.9498 43.7654L41.8486 45.6805L42.8035 47.7082C43.309 48.7784 43.9269 50.0739 44.6572 51.7074C44.9942 52.2143 45.2751 52.7775 45.556 53.3408Z" fill="#860064"/>
<path d="M60.2171 21.5165L64.2615 28.3882L70.2158 15.208C70.3282 15.039 70.3843 14.9263 70.5528 14.87L71.8448 14.1378C71.9572 14.0814 72.0695 14.0251 72.1819 14.0814C72.2942 14.1378 72.4065 14.1941 72.4627 14.3067L82.5738 31.5425C82.7423 31.8241 82.6861 31.9931 82.4053 32.1621L81.1695 32.8943C80.8886 33.0633 80.6639 33.007 80.4954 32.7253L71.7886 17.9116L65.722 30.9229L70.272 38.6959C70.4405 38.9775 70.3843 39.1465 70.1035 39.3155L68.8677 40.0477C68.5868 40.2167 68.3621 40.1604 68.1936 39.9351L58.0825 22.6993C58.0264 22.5867 58.0264 22.474 58.0264 22.3614C58.0825 22.2487 58.1387 22.1361 58.2511 22.0797L59.4869 21.3475C59.5992 21.2912 59.7115 21.2348 59.8239 21.2912C60.0486 21.3475 60.1047 21.4038 60.2171 21.5165Z" fill="#860064"/>
<path d="M90.8313 6.87195L92.9658 14.5886L102.122 3.37973C102.234 3.26708 102.403 3.15443 102.515 3.15443L103.919 2.76015C104.032 2.70382 104.144 2.76015 104.257 2.81647C104.369 2.8728 104.425 2.98545 104.481 3.0981L109.818 22.3616C109.874 22.6432 109.818 22.8685 109.481 22.9249L108.076 23.3191C107.739 23.4318 107.571 23.3191 107.458 22.9812L102.852 6.42134L93.6961 17.4049L96.1115 26.1354C96.1677 26.4171 96.1115 26.6424 95.7745 26.6987L94.3701 27.093C94.0331 27.2056 93.8084 27.093 93.7522 26.8114L88.4158 7.54786C88.3597 7.43521 88.4158 7.32255 88.472 7.2099C88.5282 7.09725 88.6405 7.04092 88.8091 6.9846L90.2134 6.59032C90.3257 6.53399 90.4381 6.59032 90.5504 6.64664C90.7189 6.64664 90.7751 6.70297 90.8313 6.87195Z" fill="#860064"/>
<path d="M157.733 219.164C164.866 219.052 169.529 176.244 166.158 160.529C163.687 149.207 154.868 146.56 150.149 145.997L146.891 145.828L146.723 139.294L132.904 141.04L131.837 148.531L118.693 163.57C116.951 167.288 114.03 172.357 114.03 177.145C114.03 186.101 117.12 220.403 117.12 220.403L157.733 219.164Z" fill="white"/>
<path d="M113.862 183.679C113.862 183.679 100.661 204.801 98.4707 206.998C96.28 209.195 92.5726 209.814 89.764 204.463C86.8992 199.112 68.5869 169.71 68.5869 169.71L78.1363 166.443C78.1363 166.443 89.0899 182.158 96.2238 193.818L96.5047 192.973C100.999 186.27 111.784 164.754 117.008 156.586C123.355 146.617 131.5 146.335 131.5 146.335L113.862 183.679Z" fill="white"/>
<path d="M76.3949 168.415C76.3949 168.415 92.9096 193.931 93.7522 195.001C95.7744 197.423 96.9541 197.367 98.4145 195.733C99.9312 194.1 119.816 157.093 119.816 157.093L127.568 153.883C127.568 153.883 129.815 166.162 134.927 166.162C140.038 166.162 151.778 151.968 151.778 151.968C151.778 151.968 156.89 153.658 157.115 169.091C157.34 184.524 155.093 200.408 155.093 200.408L142.117 173.146L132.961 177.934C132.961 177.934 139.589 197.536 144.645 206.097C149.644 214.659 151.273 217.926 155.654 220.066L119.816 220.686C119.816 220.686 116.839 181.652 116.839 177.99C116.839 174.329 120.996 165.655 122.007 163.853C123.018 162.106 119.198 162.839 116.446 167.232C113.693 171.626 113.693 177.314 113.693 178.779C113.693 180.3 114.592 184.693 114.592 184.693C114.592 184.693 100.83 204.689 99.4257 205.928C98.0213 207.167 94.1454 212.462 89.0337 203.393C83.8659 194.325 68.5869 170.217 68.5869 170.217L76.3949 168.415Z" fill="#ED057D"/>
<path d="M151.891 151.742C151.891 151.742 158.968 151.573 162.226 159.853C165.484 168.133 163.968 193.536 162.17 203.449C160.316 213.363 157.508 220.065 154.418 218.77C151.329 217.531 140.993 203.618 133.017 177.652L140.094 174.385C140.094 174.385 145.936 188.298 148.857 194.324C151.778 200.351 155.935 207.843 157.058 207.561C158.126 207.336 158.463 205.364 158.07 204.519C157.676 203.675 155.205 198.83 155.205 198.83L151.891 151.742Z" fill="#ED057D"/>
<path d="M147.453 155.291C147.453 155.291 137.23 166.95 132.68 166.837C128.13 166.725 126.613 155.403 126.613 155.403C126.613 155.403 130.433 157.037 136.275 156.586C142.117 156.135 147.453 155.291 147.453 155.291Z" fill="#FFFFCA"/>
<path d="M63.8124 132.479C62.8013 132.479 62.2395 133.267 62.5204 134.225L75.5524 174.047C75.8895 175.005 76.9567 175.85 77.9678 175.85L98.5832 176.131C99.5943 176.131 100.212 175.343 99.8752 174.385L87.6857 134.394C87.4048 133.436 86.2814 132.591 85.2703 132.591L63.8124 132.479Z" fill="white"/>
<path d="M66.003 135.295C65.0481 135.295 64.5425 136.027 64.8234 136.928L76.1141 173.597C76.3949 174.498 77.406 175.23 78.361 175.23L95.7183 175.455C96.6732 175.455 97.1788 174.723 96.9541 173.822L85.551 137.21C85.2702 136.309 84.2591 135.577 83.3603 135.577L66.003 135.295Z" fill="#ED057D"/>
<path d="M159.193 60.832C159.193 60.832 151.947 50.7497 126.894 54.0729C106.11 56.8329 86.7867 79.1943 94.8194 104.485L95.5497 105.78C95.0441 108.202 94.7071 111.244 94.6509 114.173C94.3139 131.915 106.897 141.153 130.377 141.097C151.104 141.04 165.597 134.732 166.383 115.525C168.406 116.482 172.057 115.581 173.517 114.06C174.697 112.821 176.27 108.315 175.146 105.442L175.483 104.541C175.483 104.541 180.258 92.6562 176.382 79.9829C172.562 67.5911 167.17 64.7185 161.496 61.8459L159.193 60.832Z" fill="white"/>
<path d="M147.173 55.2558C147.173 55.2558 143.297 46.5253 152.509 40.5547C159.531 36.0486 170.147 39.4282 175.427 44.6665C180.708 49.9048 184.19 64.3806 168.799 67.7038L147.173 55.2558Z" fill="white"/>
<path d="M156.609 77.1666C156.609 77.1666 148.296 88.1502 126.557 90.4596C107.627 92.4873 101.897 90.5722 101.897 90.5722C101.897 90.5722 97.6843 96.6554 96.2238 101.781C96.2238 101.781 94.0892 87.4743 102.29 75.1952C108.806 65.3945 118.693 57.9595 134.702 57.9595C150.711 57.9595 159.137 65.3382 159.137 65.3382C159.137 65.3382 167.675 68.7741 172.394 79.9266C177.112 91.1355 173.18 103.64 173.18 103.64C173.18 103.64 167.788 101.387 166.102 109.554C166.102 109.554 164.473 104.654 164.473 101.162C164.473 101.162 159.755 96.7118 158.014 90.6286C156.216 84.5453 156.609 77.1666 156.609 77.1666Z" fill="#EF6DA8"/>
<path d="M150.43 53.3407C150.43 53.3407 149.363 51.5383 150.88 46.8632C152.34 42.3008 164.361 40.0478 172.057 46.469C179.752 52.8901 179.415 63.5358 169.754 65.0566C169.754 65.0566 169.248 59.086 162.507 55.5938C155.767 51.9889 150.43 53.3407 150.43 53.3407Z" fill="#EF6DA8"/>
<path d="M152.453 57.1146C152.453 57.1146 159.025 54.242 163.575 56.6077C168.125 58.9734 170.653 65.0003 169.304 67.6476C169.304 67.6476 161.159 61.3954 160.822 61.2828C160.429 61.1701 157.171 58.9734 152.453 57.1146Z" fill="#ED057D"/>
<path d="M141.892 172.977C141.892 172.977 136.05 157.544 135.264 155.009C134.478 152.474 132.006 146.898 124.254 147.63C116.502 148.362 102.74 152.925 103.976 154.727C105.155 156.53 111.447 155.797 114.817 155.234C118.188 154.671 119.536 154.389 119.592 155.966C119.648 157.544 117.794 158.501 118.468 160.641C119.142 162.613 120.603 162.275 121.389 163.401C122.681 165.26 122.344 165.767 123.075 167.401C123.075 167.401 123.917 169.597 125.715 170.104C127.456 170.555 129.478 169.485 130.152 170.273C131.557 172.076 132.961 175.568 133.354 176.807L141.892 172.977Z" fill="white"/>
<path d="M139.027 169.372C137.735 165.992 136.443 162.613 135.264 159.177C134.983 158.332 134.702 157.487 134.477 156.586L134.084 155.29C133.972 154.896 133.86 154.502 133.691 154.108C133.354 153.206 132.905 152.418 132.343 151.686C131.781 150.953 131.107 150.334 130.377 149.827C128.973 148.869 127.175 148.475 125.377 148.475C125.153 148.475 124.928 148.475 124.703 148.475C124.479 148.475 124.254 148.475 124.029 148.531C123.58 148.588 123.074 148.644 122.625 148.7C121.67 148.813 120.715 148.982 119.816 149.207C117.513 149.658 115.323 150.446 113.076 151.122C112.008 151.46 110.997 151.798 109.93 152.193C108.919 152.587 107.908 152.981 106.953 153.432C106.672 153.544 106.391 153.713 106.11 153.882L106.054 153.939L105.998 153.995C105.942 153.995 105.942 154.051 105.886 154.051C105.829 154.108 105.773 154.164 105.717 154.22C105.717 154.277 105.661 154.277 105.717 154.333C105.717 154.389 105.773 154.389 105.773 154.446C105.829 154.502 105.942 154.502 105.998 154.558C106.054 154.558 106.054 154.558 106.11 154.558H106.166H106.223H106.335C107.065 154.615 107.795 154.615 108.582 154.615C109.368 154.558 110.155 154.502 110.941 154.446C111.728 154.333 112.514 154.277 113.3 154.164L114.48 153.995C114.873 153.939 115.266 153.882 115.716 153.826C116.278 153.77 116.839 153.657 117.457 153.601C117.513 153.601 117.626 153.601 117.682 153.601H117.794H117.963C118.075 153.601 118.187 153.601 118.356 153.601C118.468 153.601 118.581 153.601 118.749 153.657C119.255 153.713 119.704 153.939 120.041 154.22C120.715 154.896 120.884 155.966 120.659 156.98L120.603 157.149V157.262V157.318L120.49 157.6C120.434 157.712 120.434 157.769 120.378 157.825C120.322 157.881 120.322 157.994 120.266 158.05L119.873 158.783C119.704 159.121 119.592 159.402 119.592 159.628C119.592 159.684 119.592 159.74 119.592 159.797C119.592 159.853 119.592 159.909 119.592 159.966C119.648 160.078 119.648 160.247 119.704 160.36C119.76 160.529 119.816 160.585 119.873 160.698C119.929 160.81 119.985 160.867 120.097 160.923C120.21 160.979 120.322 161.092 120.49 161.148C120.659 161.261 120.884 161.374 121.221 161.543C121.502 161.712 121.839 161.937 122.119 162.219C122.176 162.275 122.232 162.388 122.288 162.444L122.4 162.557L122.456 162.669L122.681 163.007C122.737 163.12 122.85 163.232 122.906 163.345L123.131 163.739L123.243 163.908C123.299 163.965 123.299 164.021 123.355 164.134L123.524 164.528L123.692 164.922L123.748 165.035V165.148L123.805 165.317L123.917 165.654C123.973 165.767 123.973 165.88 124.029 165.992L124.142 166.274C124.198 166.387 124.198 166.443 124.254 166.556L124.366 166.894L124.423 167.006L124.479 167.119C124.703 167.57 125.04 168.02 125.377 168.302C125.546 168.414 125.715 168.527 125.883 168.583C125.939 168.583 125.939 168.583 125.995 168.64C126.052 168.64 126.052 168.64 126.108 168.696C126.22 168.696 126.276 168.752 126.389 168.752C126.838 168.809 127.4 168.696 128.074 168.583C128.242 168.583 128.411 168.527 128.635 168.527H128.804H128.86H128.973C129.141 168.527 129.31 168.527 129.478 168.527C129.815 168.527 130.152 168.64 130.433 168.752C130.602 168.809 130.714 168.921 130.882 169.034C130.995 169.147 131.107 169.259 131.219 169.372L131.669 169.992C131.725 170.048 131.781 170.161 131.837 170.217L132.006 170.442C132.231 170.78 132.399 171.118 132.568 171.456C132.736 171.794 132.905 172.132 133.017 172.414C133.298 172.977 133.522 173.596 133.803 174.16L134.028 174.723C134.028 174.723 134.028 174.723 134.084 174.723H134.14C134.309 174.667 134.477 174.61 134.646 174.554C135.32 174.329 136.05 174.103 136.781 173.991C137.005 173.934 137.23 173.878 137.398 173.765C138.747 173.146 140.095 173.258 141.443 173.146C141.668 173.146 141.836 173.315 142.005 173.371C141.836 173.484 141.668 173.653 141.443 173.765C140.488 174.272 139.589 174.723 138.634 175.174C137.398 175.737 136.163 176.244 134.927 176.807C134.197 177.145 133.466 177.483 132.736 177.765C132.568 177.37 132.455 176.92 132.287 176.525L132.062 175.906L131.893 175.399C131.781 175.117 131.669 174.836 131.556 174.61C131.444 174.329 131.332 174.047 131.219 173.822C131.107 173.54 130.995 173.315 130.826 173.033L130.433 172.245C130.264 172.019 130.152 171.738 129.984 171.512C129.927 171.4 129.815 171.287 129.759 171.174L129.59 170.893C129.534 170.78 129.478 170.724 129.366 170.724C129.253 170.667 129.141 170.724 129.085 170.724H128.86C128.748 170.724 128.692 170.724 128.579 170.78C128.411 170.836 128.186 170.836 128.018 170.893C127.456 171.005 126.894 171.118 126.276 171.062C125.939 171.062 125.602 171.005 125.265 170.893C125.097 170.836 124.928 170.78 124.76 170.724L124.535 170.611L124.31 170.499C123.748 170.104 123.299 169.654 122.962 169.147C122.794 168.865 122.625 168.64 122.513 168.358C122.457 168.245 122.4 168.076 122.288 167.964L122.232 167.851L122.176 167.795L122.119 167.57C122.063 167.401 122.007 167.288 121.951 167.119L121.782 166.668L121.558 165.823L121.445 165.429L121.277 165.091C121.221 164.979 121.165 164.866 121.108 164.753L120.996 164.584C120.94 164.528 120.94 164.472 120.884 164.415L120.659 164.077L120.603 163.965L120.547 163.908C120.49 163.852 120.49 163.852 120.434 163.796C120.322 163.683 120.153 163.57 119.929 163.401C119.704 163.289 119.423 163.12 119.086 162.951C118.805 162.782 118.468 162.5 118.244 162.219C118.187 162.162 118.131 162.05 118.075 161.993C118.019 161.937 117.963 161.824 117.907 161.768C117.794 161.599 117.738 161.43 117.626 161.261C117.569 161.148 117.569 161.092 117.513 160.979L117.457 160.698C117.401 160.529 117.401 160.303 117.345 160.135C117.289 159.74 117.289 159.29 117.401 158.895C117.513 158.501 117.626 158.163 117.794 157.825L118.187 156.98C118.244 156.868 118.3 156.755 118.3 156.642V156.586V156.53V156.473C118.3 156.361 118.3 156.248 118.244 156.192C118.187 156.079 118.131 156.023 118.019 156.023C117.963 156.023 117.85 156.023 117.794 156.023H117.738H117.569C117.457 156.023 117.345 156.023 117.232 156.023C116.783 156.079 116.278 156.135 115.828 156.192C114.873 156.304 113.862 156.473 112.851 156.586C111.559 156.755 110.211 156.868 108.863 156.98C108.189 157.037 107.515 157.037 106.841 157.037C106.503 157.037 106.166 157.037 105.773 156.98H105.661H105.605C105.549 156.98 105.549 156.98 105.492 156.98L105.043 156.924C104.874 156.924 104.762 156.868 104.594 156.811L104.369 156.755L104.144 156.699C103.47 156.473 102.908 156.079 102.571 155.628C102.515 155.516 102.459 155.459 102.403 155.347C102.347 155.234 102.291 155.178 102.291 155.065C102.234 154.84 102.234 154.615 102.234 154.446C102.291 154.051 102.459 153.713 102.74 153.319C103.021 152.981 103.414 152.643 103.863 152.362C103.976 152.305 104.088 152.193 104.2 152.136L104.537 151.967C104.594 151.911 104.65 151.911 104.706 151.855L104.818 151.798L105.043 151.686C105.942 151.235 106.841 150.897 107.739 150.559C108.638 150.277 109.537 149.94 110.436 149.658C112.121 149.038 113.806 148.362 115.547 147.855C117.289 147.349 119.086 146.954 120.94 146.673C121.839 146.504 122.794 146.391 123.692 146.278C124.647 146.166 125.658 146.166 126.669 146.278C127.681 146.391 128.692 146.56 129.647 146.954C130.152 147.123 130.602 147.349 131.051 147.63C131.5 147.912 131.95 148.193 132.343 148.531C133.242 149.264 134.028 150.165 134.59 151.122C135.208 152.08 135.657 153.094 135.994 154.108C136.05 154.277 136.106 154.389 136.163 154.558L136.219 154.784L136.275 155.009L136.556 155.854L137.118 157.544C137.511 158.67 137.904 159.797 138.297 160.923C139.027 162.951 139.758 164.979 140.544 167.006C140.993 168.133 141.387 169.259 141.836 170.386C142.229 171.287 142.342 172.132 141.948 172.864C141.892 172.921 141.836 173.089 141.78 173.089C141.33 173.033 140.825 173.089 140.376 172.864C140.095 172.695 139.87 172.188 139.589 171.794C139.589 171.738 139.533 171.738 139.533 171.681L139.027 169.372Z" fill="#860064"/>
<path d="M119.591 109.948L115.098 115.525L120.153 118.904" stroke="#860064" stroke-width="3.5945" stroke-miterlimit="10" stroke-linecap="round" stroke-linejoin="round"/>
<path d="M112.907 122.284C112.907 122.284 125.771 143.575 138.073 121.157" stroke="#860064" stroke-width="3.5945" stroke-miterlimit="10" stroke-linecap="round" stroke-linejoin="round"/>
<path d="M110.66 112.765C112.211 112.765 113.469 110.999 113.469 108.822C113.469 106.644 112.211 104.879 110.66 104.879C109.109 104.879 107.852 106.644 107.852 108.822C107.852 110.999 109.109 112.765 110.66 112.765Z" fill="#860064"/>
<path d="M135.208 112.765C136.759 112.765 138.016 110.999 138.016 108.822C138.016 106.644 136.759 104.879 135.208 104.879C133.656 104.879 132.399 106.644 132.399 108.822C132.399 110.999 133.656 112.765 135.208 112.765Z" fill="#860064"/>
<path d="M99.7627 88.3752C99.7627 88.3752 140.544 100.147 161.777 68.2104" stroke="#860064" stroke-width="3.5945" stroke-miterlimit="10" stroke-linecap="round" stroke-linejoin="round"/>
<path d="M99.7627 79.645C99.7627 79.645 134.927 85.8409 155.486 62.8599" stroke="#860064" stroke-width="3.5945" stroke-miterlimit="10" stroke-linecap="round" stroke-linejoin="round"/>
<path d="M105.324 71.5904C105.324 71.5904 136.05 76.2655 146.386 59.3677" stroke="#860064" stroke-width="3.5945" stroke-miterlimit="10" stroke-linecap="round" stroke-linejoin="round"/>
<path d="M95.5496 103.245C95.5496 103.245 79.4843 63.1412 130.489 53.6784C145.599 50.8621 188.628 67.1404 176.326 106.907" stroke="#860064" stroke-width="3.5945" stroke-miterlimit="10" stroke-linecap="round" stroke-linejoin="round"/>
<path d="M110.379 64.8309C110.379 64.8309 135.769 63.3101 137.005 57.9028" stroke="#860064" stroke-width="3.5945" stroke-miterlimit="10" stroke-linecap="round" stroke-linejoin="round"/>
<path d="M138.016 93.6699C138.016 93.6699 146.948 82.461 149.194 94.7964" stroke="#860064" stroke-width="3.5945" stroke-miterlimit="10" stroke-linecap="round" stroke-linejoin="round"/>
<path d="M155.43 75.9272C155.43 75.9272 155.317 97.0495 164.249 100.936C164.249 100.936 164.249 108.202 166.496 109.329C166.496 109.329 167.9 102.344 172.338 103.471C176.831 104.597 178.46 114.68 167.282 116.933" stroke="#860064" stroke-width="3.5945" stroke-miterlimit="10" stroke-linecap="round" stroke-linejoin="round"/>
<path d="M103.92 90.3467C103.92 90.3467 70.7216 142.448 132.848 141.04L131.556 147.236" stroke="#860064" stroke-width="3.5945" stroke-miterlimit="10" stroke-linecap="round" stroke-linejoin="round"/>
<path d="M69.3174 151.404L62.5767 132.366H85.4951L99.7629 175.624L77.1254 176.075L75.4402 169.879" stroke="#860064" stroke-width="3.5945" stroke-miterlimit="10" stroke-linecap="round" stroke-linejoin="round"/>
<path d="M154.25 51.6509C154.25 51.6509 147.959 43.1457 159.193 38.9775" stroke="#860064" stroke-width="3.5945" stroke-miterlimit="10" stroke-linecap="round" stroke-linejoin="round"/>
<path d="M159.249 52.7775C159.249 52.7775 158.575 39.9915 167.282 40.2168" stroke="#860064" stroke-width="3.5945" stroke-miterlimit="10" stroke-linecap="round" stroke-linejoin="round"/>
<path d="M168.293 61.3953C168.293 61.3953 179.977 60.0998 177.168 47.2012" stroke="#860064" stroke-width="3.5945" stroke-miterlimit="10" stroke-linecap="round" stroke-linejoin="round"/>
<path d="M157.002 206.885L141.892 173.259L132.96 177.765C132.96 177.765 149.138 223.164 155.879 220.347C155.879 220.347 172.899 213.926 164.586 155.854C163.968 151.404 157.283 143.293 148.576 147.518L146.667 139.351C167.619 134.507 165.372 115.581 165.372 115.581" stroke="#860064" stroke-width="3.5945" stroke-miterlimit="10" stroke-linecap="round" stroke-linejoin="round"/>
<path d="M155.317 167.119C155.317 167.119 159.249 202.774 155.317 203.168" stroke="#860064" stroke-width="3.5945" stroke-miterlimit="10" stroke-linecap="round" stroke-linejoin="round"/>
<path d="M113.974 184.467C113.974 184.467 99.7064 210.546 95.0441 208.575C95.0441 208.575 77.6306 192.297 67.5757 169.372L74.2602 168.246C74.2602 168.246 91.2805 196.803 95.8867 196.24L117.288 155.91" stroke="#860064" stroke-width="3.5945" stroke-miterlimit="10" stroke-linecap="round" stroke-linejoin="round"/>
<path d="M117.345 220.347C117.345 220.347 108.975 174.948 119.592 163.176" stroke="#860064" stroke-width="3.5945" stroke-miterlimit="10" stroke-linecap="round" stroke-linejoin="round"/>
<path d="M169.866 67.929C161.496 43.8215 149.194 55.7063 149.194 55.7063" stroke="#860064" stroke-width="3.5945" stroke-miterlimit="10" stroke-linecap="round" stroke-linejoin="round"/>
<path d="M147.51 55.5936C147.51 55.5936 143.297 29.0078 171.214 41.4558C177.73 44.3848 189.92 57.2834 170.653 70.1257" stroke="#860064" stroke-width="3.5945" stroke-miterlimit="10" stroke-linecap="round" stroke-linejoin="round"/>
<path d="M152.565 151.404C152.565 151.404 145.6 162.332 138.747 163.852" stroke="#860064" stroke-width="3.5945" stroke-miterlimit="10" stroke-linecap="round" stroke-linejoin="round"/>
<path d="M134.927 156.192C134.927 156.192 142.566 159.402 149.925 155.009" stroke="#860064" stroke-width="3.5945" stroke-miterlimit="10" stroke-linecap="round" stroke-linejoin="round"/>
<path d="M69.0363 167.626C75.9855 167.626 81.6189 163.743 81.6189 158.952C81.6189 154.161 75.9855 150.278 69.0363 150.278C62.0871 150.278 56.4536 154.161 56.4536 158.952C56.4536 163.743 62.0871 167.626 69.0363 167.626Z" fill="white"/>
<path d="M69.0363 167.626C75.9855 167.626 81.6189 163.743 81.6189 158.952C81.6189 154.161 75.9855 150.278 69.0363 150.278C62.0871 150.278 56.4536 154.161 56.4536 158.952C56.4536 163.743 62.0871 167.626 69.0363 167.626Z" stroke="#860064" stroke-width="3.5945" stroke-miterlimit="10" stroke-linecap="round" stroke-linejoin="round"/>
<path d="M68.4746 156.192C68.4746 156.192 76.6196 157.093 78.1363 152.981" stroke="#860064" stroke-width="3.5945" stroke-miterlimit="10" stroke-linecap="round" stroke-linejoin="round"/>
<path d="M70.6655 160.642C70.6655 160.642 78.8105 161.543 80.3272 157.431" stroke="#860064" stroke-width="3.5945" stroke-miterlimit="10" stroke-linecap="round" stroke-linejoin="round"/>
<path d="M70.6655 165.148C70.6655 165.148 78.8105 166.049 80.3272 161.937" stroke="#860064" stroke-width="3.5945" stroke-miterlimit="10" stroke-linecap="round" stroke-linejoin="round"/>
</g>
<defs>
<clipPath id="clip0">
<rect width="263" height="264" fill="white"/>
</clipPath>
</defs>
</svg>
