<svg width="789" height="235" viewBox="0 0 789 235" fill="none" xmlns="http://www.w3.org/2000/svg">
<g clip-path="url(#clip0)">
<path d="M6.5 232.6C4.5 232.6 3 232.4 1.8 232C0.6 231.6 0 231 0 230.1C0 228.3 2.5 226.9 7.4 226C13.1 225 17.4 223.2 20.4 220.8C23.4 218.4 24.9 214.6 24.9 209.3V107.8C24.9 102.6 23.8 98.8001 21.6 96.6001C19.4 94.4001 15.5 92.7001 9.8 91.6001C4.8 90.7001 2.4 89.2001 2.4 87.1001C2.4 86.2001 3 85.6001 4.2 85.2001C5.5 84.8001 7 84.6001 9 84.6001C13 84.6001 16.2 84.7001 18.6 84.8001C20.9 85.0001 23.1 85.1001 25.2 85.3001C27.3 85.5001 29.8 85.5001 32.8 85.5001C43.4 85.5001 52.6 85.5001 60.4 85.6001C68.1 85.7001 76.1 85.7001 84.4 85.7001C92.6 85.7001 100.7 85.6001 108.6 85.5001C116.5 85.4001 125.7 85.3001 136.2 85.3001C139.5 85.3001 142.2 85.3001 144.3 85.2001C146.4 85.1001 148.6 85.0001 151.1 84.9001C153.5 84.8001 156.7 84.7001 160.8 84.7001C162.7 84.7001 164.3 84.9001 165.5 85.3001C166.7 85.7001 167.3 86.3001 167.3 87.2001C167.3 89.3001 164.8 90.8001 159.9 91.7001C154.3 92.8001 150.3 94.4001 147.7 96.7001C145.1 98.9001 143.9 102.7 143.9 107.9V209.6C143.9 214.9 145.5 218.7 148.6 221.1C151.8 223.5 156.1 225.2 161.6 226.3C166.6 227.2 169 228.5 169 230.4C169 231.3 168.4 231.9 167.2 232.3C166 232.7 164.4 232.9 162.5 232.9C158.5 232.9 155.1 232.8 152.5 232.6C149.9 232.4 147.4 232.2 145 232C142.6 231.8 139.7 231.8 136.2 231.8C132.4 231.8 129.2 231.9 126.4 232C123.6 232.1 120.8 232.3 117.8 232.6C114.9 232.8 111.4 232.9 107.3 232.9C105.3 232.9 103.8 232.7 102.6 232.3C101.4 231.9 100.8 231.3 100.8 230.4C100.8 229.4 101.4 228.5 102.6 227.9C103.8 227.3 105.7 226.8 108.2 226.3C113.9 225.3 118.2 223.3 121 220.6C123.8 217.8 125.3 214.1 125.5 209.5C126 190.8 126.1 171.9 125.8 153C125.6 134.1 125.5 115.3 125.5 96.5001C125.5 95.8001 125.3 95.3001 124.9 95.1001C124.5 95.0001 124.1 94.9001 123.7 94.9001C117.5 94.9001 112.1 94.9001 107.4 94.8001C102.7 94.7001 98.2 94.6001 94 94.5001C89.8 94.4001 85.2 94.3001 80.3 94.3001C74.4 94.3001 68.8 94.3001 63.4 94.4001C58 94.5001 51.5 94.7001 44 95.0001C43.2 95.0001 42.9 95.8001 42.9 97.5001C42.3 116.1 42 134.7 42 153.4C42 172.1 42.3 190.8 42.9 209.5C43 214.2 44.7 217.9 47.7 220.6C50.8 223.4 55.1 225.3 60.6 226.3C63.1 226.8 65 227.3 66.2 227.9C67.4 228.5 68 229.3 68 230.4C68 231.3 67.4 231.9 66.2 232.3C65 232.7 63.4 232.9 61.5 232.9C57.4 232.9 54.1 232.8 51.5 232.6C48.9 232.4 46.4 232.2 44 232C41.6 231.8 38.7 231.8 35.2 231.8C31.4 231.8 28.2 231.9 25.4 232C22.6 232.1 19.8 232.3 16.9 232.6C14.1 232.5 10.6 232.6 6.5 232.6Z" fill="#ED057D"/>
<path d="M193 234.7C191.3 234.7 189.7 234 187.9 232.6C186.2 231.2 184.9 229.5 184 227.5C183.1 225.6 182.9 224 183.3 222.8L206.9 165.9C207.9 163.4 208.6 161.2 208.9 159.4C209.2 157.6 208.7 156.7 207.6 156.7C206.8 156.7 205.6 157.3 203.9 158.5C202.2 159.7 200.2 161.2 198.1 163C195.9 164.8 193.7 166.7 191.5 168.6C191.2 168.9 190.6 169 189.8 168.8C189 168.7 188.6 168.4 188.6 167.9C188.6 167.3 188.7 166.4 189 165.3C189.3 164.2 190 162.8 191.2 161.1C194.9 156 199.1 151.7 203.7 148.3C208.3 144.9 212.6 142.2 216.7 140.3C220.8 138.4 223.9 137.5 226 137.5C226.7 137.5 227.6 137.9 228.6 138.7C229.6 139.5 230.4 140.5 231 141.6C231.6 142.7 231.6 143.8 231 144.9C226 155.1 221.3 165.5 216.8 175.9C212.3 186.4 207.8 196.8 203.3 206.9C202 209.9 201.1 212.7 200.8 215.2C200.5 217.8 201.1 219 202.6 219C204.1 219 206.3 217.7 209.4 215.2C212.4 212.7 215.8 209.4 219.6 205.3C223.4 201.2 227.4 196.9 231.6 192.2C237.3 185.8 242.8 179.1 248.1 172.2C253.4 165.3 258 159.1 261.9 153.5C265.8 148 268.3 144 269.6 141.8C270.3 140.3 271.2 139.3 272.3 138.9C273.3 138.4 274.3 138.2 275.2 138.2C276.1 138.2 277 138.7 277.9 139.6C278.8 140.5 279.5 141.6 280 142.7C280.5 143.9 280.6 144.9 280.1 145.9L251.3 212.1C250.1 215 249.6 217.1 249.7 218.6C249.8 220.1 250.6 220.8 251.9 220.8C253.8 220.8 256.4 219.8 259.5 217.7C262.7 215.6 265.9 213.2 269.2 210.4C272.5 207.6 275.3 205.1 277.5 202.9C277.6 202.8 277.9 202.7 278.2 202.7C278.6 202.7 279.1 202.9 279.5 203.3C280 203.7 280.2 204.2 280.2 204.8C280.2 205.1 280.1 205.4 280 205.7C279.8 206 279.7 206.4 279.4 206.8C279.2 207.3 278.9 207.8 278.5 208.4C278.1 209 277.7 209.6 277.2 210.3C276.7 211 276 211.8 275.3 212.7C272.4 216.3 269.1 219.8 265.4 223.2C261.6 226.6 257.6 229.4 253.4 231.5C249.1 233.7 244.6 234.8 239.8 234.8C237.8 234.8 236.1 233.5 234.5 231C232.9 228.5 232.6 226.2 233.5 224.2C235.6 219.7 237.8 214.9 240.3 209.8C242.7 204.7 244.8 200 246.7 195.6C248.6 191.3 249.9 188 250.6 185.9C251.3 184.1 251.3 183.1 250.4 183C249.5 182.9 248.7 183.2 247.9 184.1C240.1 192.6 233.2 200.1 227.2 206.5C221.2 212.9 216 218.1 211.6 222.3C207.2 226.4 203.4 229.5 200.4 231.6C197.5 233.6 195 234.7 193 234.7Z" fill="#ED057D"/>
<path d="M320.6 232.2C319.8 232.2 318.8 232.1 317.5 231.9C316.1 231.7 315.5 231.1 315.5 230.2C315.5 229 316.1 228.1 317.2 227.6C318.3 227.1 319.5 226.6 320.7 226.1C322.9 225.4 325.1 224.5 327.1 223.4C329.1 222.4 330.1 220.2 330.1 216.9V155.9C330.1 154.5 329.9 153 329.6 151.3C329.3 149.6 328.5 148.7 327.4 148.7H313.9C311.7 148.7 309.9 149.2 308.5 150C307.1 150.9 306 152.3 305 154.2C304 156.1 303.1 158.7 302.2 162C301.9 163.2 301.3 164.4 300.3 165.7C299.3 167 298.2 167.6 297 167.6C296.4 167.6 295.9 167.3 295.4 166.7C295 166.1 294.7 165.3 294.7 164.2C294.7 163.9 294.7 163.5 294.8 163.1C294.9 162.7 295 162.2 295.1 161.8C295.7 159.7 296.3 156.7 296.9 152.7C297.5 148.7 297.8 145.3 297.8 142.5C297.8 141.3 298.1 140.3 298.6 139.6C299.1 138.9 300 138.5 301.2 138.5C302.4 138.5 303.4 138.7 304.3 139C305.2 139.3 306.5 139.7 308.4 140.1C310 140.6 311.7 140.9 313.2 141.2C314.8 141.5 316.9 141.7 319.6 141.7H365.9C367.8 141.7 369.8 141.6 371.7 141.5C373.6 141.4 374.9 141 375.5 140.6C376.2 140 377.1 139.5 378 139.1C378.9 138.7 379.5 138.5 379.8 138.5C380.3 138.5 380.8 138.8 381.4 139.4C382 140 382.3 140.8 382.3 141.9C382.3 143.4 382.1 145.1 381.8 146.9C381.5 148.7 381.4 150.6 381.4 152.5C381.4 154.3 381.4 156.1 381.5 157.8C381.6 159.5 381.7 161.2 381.8 162.9C381.9 164 381.8 165 381.2 166.2C380.7 167.3 379.9 167.9 378.8 167.9C377.7 167.9 376.9 167.2 376.2 165.8C375.5 164.4 375.1 163.2 375 162.3C374.8 159.6 374.3 157.2 373.4 155.2C372.5 153.2 371.2 151.6 369.3 150.6C367.5 149.6 365.2 149 362.3 149H348.8C347.3 149 346.4 149.8 346 151.5C345.6 153.2 345.4 154.7 345.4 156.2V217.4C345.4 220.6 346.5 222.7 348.7 223.7C350.9 224.8 353.1 225.7 355.3 226.4C356.5 226.9 357.7 227.3 358.8 227.9C359.9 228.4 360.5 229.3 360.5 230.5C360.5 231.4 359.8 232 358.5 232.2C357.2 232.4 356.1 232.5 355.4 232.5C352.5 232.5 350.3 232.4 348.6 232.2C346.9 232 345.4 231.8 344 231.6C342.6 231.5 340.5 231.4 337.8 231.4C335.2 231.4 333.2 231.5 331.7 231.6C330.2 231.8 328.7 231.9 327.1 232.2C325.9 232.1 323.6 232.2 320.6 232.2Z" fill="#ED057D"/>
<path d="M411.1 234.7C408.4 234.7 405.7 233.6 402.9 231.5C400.1 229.4 397.8 226.9 395.9 223.8C394 220.8 393.1 218 393.1 215.3C393.1 210.5 394.4 206.8 396.9 204.1C399.4 201.4 403.5 198.9 409.1 196.7L432.1 187.2C435.1 186 436.9 185 437.4 184.1C437.9 183.2 438.3 181.3 438.4 178.2L438.9 163.8C439 159.9 438 156.5 435.6 153.7C433.3 150.9 429.9 149.4 425.6 149.4C423.4 149.4 421.1 149.8 418.8 150.5C416.6 151.3 414.7 152.2 413.2 153.4C412.3 154 411.7 154.9 411.4 156.1C411.1 157.3 410.9 158.6 410.9 159.9C410.9 160.5 410.9 161.2 411 161.9C411.1 162.7 411.1 163.3 411.1 163.9C411.1 164.7 410.2 165.7 408.3 166.9C406.4 168.2 404.3 169.3 402 170.3C399.7 171.3 397.8 171.8 396.3 171.8C395.5 171.8 395 171.6 394.5 171.2C394 170.8 393.8 170.3 393.8 169.7C393.8 167.3 394.6 164.7 396.2 161.9C397.8 159.1 400 156.5 402.8 154.1C406.2 150.9 410 148.2 414 145.8C418 143.4 422 141.5 425.9 140.2C429.8 138.9 433.2 138.2 436.2 138.2C441.6 138.2 446.1 140.1 449.6 143.9C453.1 147.7 454.8 152.5 454.7 158.2L453.6 212.2C453.4 215.4 454.2 217.9 455.7 219.9C457.3 221.9 459.3 222.8 461.7 222.8C465.4 222.8 468.2 222 470 220.3C470.7 219.6 471.4 219.2 471.8 219.2C472.5 219.2 473.1 219.4 473.6 219.9C474.1 220.3 474.3 221 474.3 221.7C474.3 223.4 473.5 225 471.8 226.7C469.4 229.1 466.8 231 464 232.4C461.2 233.8 458.6 234.5 456.2 234.5C449.3 234.5 443.8 230.6 439.8 222.8H439.1C434.1 226.8 429.4 229.8 424.9 231.7C420.5 233.7 415.9 234.7 411.1 234.7ZM421.6 223.9C424.6 223.9 427.1 223.4 429.3 222.4C431.4 221.4 433.3 220.1 434.9 218.5C435.6 217.8 436.3 216.7 436.8 215.5C437.3 214.2 437.7 212.2 437.8 209.3L438.3 198.3C438.4 196.7 438.4 195.5 438.1 194.7C437.8 194 437.2 193.6 436.3 193.6C436 193.6 435.5 193.7 434.7 193.8C433.9 194 433 194.3 431.8 194.7C423.8 197.6 418.3 200.5 415.3 203.6C412.2 206.7 410.7 209.5 410.7 212C410.7 215.9 411.9 218.9 414.2 220.9C416.4 222.8 418.9 223.9 421.6 223.9Z" fill="#ED057D"/>
<path d="M485.1 232.2C484.2 232.2 483.1 232.1 481.8 232C480.5 231.8 479.9 231.3 479.9 230.2C479.9 229 480.5 228.1 481.6 227.6C482.7 227.1 483.9 226.6 485.1 226.1C487.3 225.4 489.5 224.5 491.5 223.5C493.5 222.5 494.5 220.5 494.5 217.3V155.6C494.5 152.6 493.6 150.5 491.9 149.4C490.2 148.3 488.2 147.4 485.9 146.8C484.7 146.3 483.5 145.8 482.4 145.2C481.3 144.6 480.7 143.8 480.7 142.7C480.7 141.7 481.3 141.1 482.6 140.9C483.9 140.8 485 140.7 485.9 140.7C488.9 140.7 491.1 140.8 492.5 140.9C493.9 141.1 495.3 141.2 496.7 141.5C498 141.7 500 141.8 502.5 141.8C505.2 141.8 507.1 141.7 508.4 141.5C509.6 141.3 510.9 141.1 512.3 140.9C513.7 140.8 515.9 140.7 518.7 140.7C519.6 140.7 520.7 140.8 522 140.9C523.3 141.1 523.9 141.7 523.9 142.7C523.9 143.8 523.3 144.6 522.2 145.2C521.1 145.8 519.9 146.3 518.7 146.8C516.5 147.4 514.5 148.3 512.7 149.4C511 150.5 510.1 152.6 510.1 155.6V179.2C510.1 179.8 510.4 180.2 511 180.3C511.6 180.5 512 180.5 512.4 180.5H554.2C554.5 180.5 554.8 180.4 555 180C555.2 179.7 555.3 179.3 555.3 178.6V155.4C555.3 152.4 554.5 150.3 553.1 149.2C551.6 148.1 549.7 147.2 547.5 146.6C546.3 146.1 545.1 145.6 544 145C542.9 144.4 542.3 143.6 542.3 142.5C542.3 141.5 542.9 140.9 544.1 140.7C545.3 140.6 546.4 140.5 547.5 140.5C550.5 140.5 552.7 140.6 554 140.7C555.3 140.9 556.7 141 557.9 141.3C559.2 141.5 561.1 141.6 563.6 141.6C566.3 141.6 568.3 141.5 569.6 141.3C570.9 141.1 572.3 140.9 573.8 140.7C575.3 140.6 577.5 140.5 580.3 140.5C581.3 140.5 582.5 140.6 583.7 140.7C584.9 140.9 585.5 141.5 585.5 142.5C585.5 143.6 584.9 144.4 583.8 145C582.7 145.6 581.5 146.1 580.3 146.6C578.1 147.2 575.9 148.1 574 149.2C572 150.3 571.1 152.4 571.1 155.4V217.1C571.1 220.1 572.2 222.1 574.4 223.2C576.6 224.3 578.8 225.2 581 225.9C582.2 226.4 583.4 226.8 584.5 227.4C585.6 227.9 586.2 228.8 586.2 230C586.2 231.1 585.6 231.6 584.3 231.8C583 231.9 581.9 232 581 232C578.1 232 575.9 231.9 574.2 231.7C572.5 231.5 571 231.3 569.6 231.1C568.2 231 566.1 230.9 563.4 230.9C560.8 230.9 558.8 231 557.3 231.1C555.8 231.3 554.3 231.4 552.7 231.7C551.1 231.9 548.8 232 545.8 232C544.9 232 543.8 231.9 542.5 231.8C541.2 231.6 540.6 231.1 540.6 230C540.6 228.8 541.2 227.9 542.3 227.4C543.4 226.9 544.6 226.4 545.8 225.9C548 225.2 550.2 224.3 552.2 223.2C554.2 222.2 555.2 220.1 555.2 217.1V189C555.2 188.4 555.1 188.1 555 188C554.8 187.9 554.6 187.9 554.3 187.9H511C510.7 187.9 510.5 188 510.4 188.2C510.3 188.4 510.3 188.8 510.3 189.4V217.1C510.3 220.2 511.4 222.3 513.6 223.3C515.8 224.3 518 225.1 520.2 225.9C521.4 226.4 522.6 226.8 523.7 227.4C524.8 227.9 525.4 228.8 525.4 230C525.4 231.1 524.8 231.6 523.5 231.8C522.2 231.9 521.1 232 520.2 232C517.3 232 515.1 231.9 513.4 231.7C511.7 231.5 510.2 231.3 508.8 231.1C507.4 231 505.3 230.9 502.6 230.9C500 230.9 498 231 496.5 231.1C495 231.3 493.5 231.4 491.9 231.7C490.4 232.1 488.1 232.2 485.1 232.2Z" fill="#ED057D"/>
<path d="M606.8 234.7C605.1 234.7 603.5 234 601.7 232.6C600 231.2 598.7 229.5 597.8 227.5C596.9 225.6 596.7 224 597.1 222.8L620.7 165.9C621.7 163.4 622.4 161.2 622.7 159.4C623 157.6 622.5 156.7 621.4 156.7C620.6 156.7 619.4 157.3 617.7 158.5C616 159.7 614 161.2 611.9 163C609.7 164.8 607.5 166.7 605.3 168.6C605 168.9 604.4 169 603.6 168.8C602.8 168.7 602.4 168.4 602.4 167.9C602.4 167.3 602.5 166.4 602.8 165.3C603.1 164.2 603.8 162.8 605 161.1C608.7 156 612.9 151.7 617.5 148.3C622.1 144.9 626.4 142.2 630.5 140.3C634.6 138.4 637.7 137.5 639.8 137.5C640.5 137.5 641.4 137.9 642.4 138.7C643.4 139.5 644.2 140.5 644.8 141.6C645.4 142.7 645.4 143.8 644.8 144.9C639.8 155.1 635.1 165.5 630.6 175.9C626.1 186.4 621.6 196.8 617.1 206.9C615.8 209.9 614.9 212.7 614.6 215.2C614.3 217.8 614.9 219 616.4 219C617.9 219 620.1 217.7 623.2 215.2C626.2 212.7 629.6 209.4 633.4 205.3C637.2 201.2 641.2 196.9 645.4 192.2C651.1 185.8 656.6 179.1 661.9 172.2C667.2 165.3 671.8 159.1 675.7 153.5C679.6 148 682.1 144 683.4 141.8C684.1 140.3 685 139.3 686.1 138.9C687.1 138.4 688.1 138.2 689 138.2C689.9 138.2 690.8 138.7 691.7 139.6C692.6 140.5 693.3 141.6 693.8 142.7C694.3 143.9 694.4 144.9 693.9 145.9L665.1 212.1C663.9 215 663.4 217.1 663.5 218.6C663.6 220.1 664.4 220.8 665.7 220.8C667.6 220.8 670.2 219.8 673.3 217.7C676.5 215.6 679.7 213.2 683 210.4C686.3 207.6 689.1 205.1 691.3 202.9C691.4 202.8 691.7 202.7 692 202.7C692.4 202.7 692.9 202.9 693.3 203.3C693.8 203.7 694 204.2 694 204.8C694 205.1 693.9 205.4 693.8 205.7C693.6 206 693.5 206.4 693.2 206.8C693 207.3 692.7 207.8 692.3 208.4C691.9 209 691.5 209.6 691 210.3C690.5 211 689.8 211.8 689.1 212.7C686.2 216.3 682.9 219.8 679.2 223.2C675.4 226.6 671.4 229.4 667.2 231.5C662.9 233.7 658.4 234.8 653.6 234.8C651.6 234.8 649.9 233.5 648.3 231C646.7 228.5 646.4 226.2 647.3 224.2C649.4 219.7 651.6 214.9 654.1 209.8C656.5 204.7 658.6 200 660.5 195.6C662.4 191.3 663.7 188 664.4 185.9C665.1 184.1 665.1 183.1 664.2 183C663.3 182.9 662.5 183.2 661.7 184.1C653.9 192.6 647 200.1 641 206.5C635 212.9 629.8 218.1 625.4 222.3C621 226.4 617.2 229.5 614.2 231.6C611.3 233.6 608.8 234.7 606.8 234.7Z" fill="#ED057D"/>
<path d="M754.2 234.9C745.9 234.9 738.7 232.9 732.6 228.8C726.4 224.8 721.6 219 718.2 211.6C714.7 204.2 713 195.6 713 185.8C713 177.1 715 169.2 719 162.1C723 155 728.3 149.2 734.9 144.9C741.5 140.6 748.7 138.4 756.5 138.4C762.5 138.4 767.8 139.6 772.5 142C777.1 144.4 780.8 147.7 783.4 152C786 156.3 787.3 161.2 787.3 166.7C787.3 171.4 785.1 173.7 780.5 173.7H733C730.9 173.7 729.4 174.3 728.6 175.4C727.8 176.5 727.4 178.7 727.4 182C727.4 189.2 729 195.8 732.1 201.7C735.3 207.6 739.4 212.4 744.7 215.9C749.9 219.4 755.7 221.2 762 221.2C766.5 221.2 770.6 220.3 774.3 218.6C778 216.9 781.2 214.4 784.1 211.1C784.7 210.4 785.1 209.9 785.4 209.6C785.7 209.4 786.1 209.3 786.5 209.3C787.7 209.3 788.3 210.1 788.3 211.5C788.3 214.4 787 217.5 784.3 221C782.1 223.9 779.3 226.3 776.2 228.4C773 230.5 769.6 232.1 765.8 233.2C762.1 234.3 758.2 234.9 754.2 234.9ZM733.5 166.7H754C757.6 166.7 760.7 166.6 763.2 166.5C765.7 166.4 768.2 166.1 770.6 165.6C771.3 165.5 771.8 165 772.1 164.1C772.3 163.3 772.4 162.1 772.4 160.6C772.4 156.3 770.5 152.5 766.7 149.5C762.9 146.4 758.3 144.9 753.1 144.9C749.6 144.9 746.2 145.9 742.8 147.9C739.3 149.9 736.5 152.4 734.3 155.4C732.1 158.4 730.9 161.4 730.9 164.4C730.8 166 731.7 166.7 733.5 166.7Z" fill="#ED057D"/>
<path d="M267.5 173.5L264.3 171.6C280.8 143.4 287.1 117 289.4 99.8001C292 81.2001 290.6 69.1001 290.6 69.0001L294.3 68.6001C294.5 69.1001 299.7 118.3 267.5 173.5Z" fill="#ED057D"/>
<path d="M277.9 134.3L276.5 133.9C270.6 132.4 264.7 126.7 261.3 119C257.9 111.3 257.5 103.2 260.4 97.8L261.1 96.5L262.5 96.9C268.5 98.4 274.3 104.1 277.7 111.8C281.1 119.4 281.5 127.6 278.6 133L277.9 134.3ZM263.1 101C261.5 105.4 262.1 111.7 264.8 117.6C267.4 123.5 271.7 128.1 276 129.9C277.6 125.5 277 119.2 274.3 113.3C271.7 107.5 267.4 102.8 263.1 101Z" fill="#ED057D"/>
<path d="M279.8 148.7L276.2 148C277.6 141.2 276 137.6 273.9 132.9C273.5 132.1 273.2 131.2 272.8 130.4L276.2 129C276.6 129.8 276.9 130.7 277.3 131.5C279.4 136.2 281.4 140.8 279.8 148.7Z" fill="#ED057D"/>
<path d="M306.7 126C302 126 297.6 125.1 293.9 123.4L292.6 122.8L292.9 121.4C295 111.6 304.1 101.7 316.5 95.5998C328.9 89.4998 342.3 88.3998 351.4 92.6998L352.7 93.2998L352.4 94.6998C350.3 104.5 341.2 114.4 328.8 120.5C321.4 124.1 313.7 126 306.7 126ZM296.9 120.6C304.9 123.7 316.5 122.4 327.2 117.1C337.8 111.9 346 103.4 348.4 95.2998C340.4 92.1998 328.8 93.4998 318.2 98.7998C307.5 104 299.4 112.4 296.9 120.6Z" fill="#ED057D"/>
<path d="M284.6 136.4L281.4 134.6C286.4 125.9 296.2 117.3 310.6 109.2C321.1 103.3 332.4 98.5997 339.5 96.1997L340.7 99.6997C324.5 105.2 294.4 119.2 284.6 136.4Z" fill="#ED057D"/>
<path d="M291 70.3998C289 70.3998 286.9 69.8998 285.1 68.7998C282 66.9998 279.8 63.9998 279.2 60.3998L282.8 59.6998C283.3 62.1998 284.7 64.2998 286.9 65.4998C291 67.7998 296.3 66.2998 298.7 62.0998C299.5 60.6998 299.9 58.9998 299.9 57.3998L303.6 57.2998C303.7 59.5998 303.1 61.8998 301.9 63.8998C299.5 68.0998 295.3 70.3998 291 70.3998Z" fill="#ED057D"/>
<path d="M286.8 62.5999C277 62.5999 265.6 59.2999 256.2 49.8999C249 42.6999 246.2 33.1999 249 25.6999C250.8 20.8999 254.7 17.7999 259.6 17.4999C259.8 17.4999 260.1 17.4999 260.3 17.4999C259.5 12.1999 260.9 7.39992 264.2 4.19992C268.3 0.199916 274.8 -0.800084 282.3 1.49992C285.4 2.39992 288 3.99992 290 6.09992C292.6 1.79992 296.5 -0.300084 301.2 0.199916C310.4 1.19992 318.9 11.6999 321 24.5999C325.3 51.1999 303.1 59.5999 298.6 60.9999C295.2 61.8999 291.2 62.5999 286.8 62.5999ZM260.2 21.0999C260.1 21.0999 260 21.0999 259.8 21.0999C256.4 21.2999 253.7 23.4999 252.4 26.8999C250.6 31.5999 251.3 39.6999 258.7 47.1999C271.2 59.5999 287.3 60.3999 297.4 57.1999C301.4 55.9999 321.1 48.5999 317.3 24.8999C315.3 12.4999 307.3 4.29992 300.8 3.59992C296.9 3.19992 293.8 5.49992 292.1 9.99992L290.8 13.3999L288.8 10.2999C287.1 7.59992 284.5 5.79992 281.2 4.79992C275 2.89992 269.9 3.59992 266.7 6.59992C263.8 9.39992 263 13.8999 264.3 18.9999L265.2 22.3999L261.9 21.2999C261.4 21.2999 260.8 21.0999 260.2 21.0999Z" fill="#ED057D"/>
<path d="M279.5 35.8001C278.6 32.7001 276.9 28.7001 274 23.3001L277.3 21.6001C280.3 27.2001 282.2 31.4001 283.1 34.8001L279.5 35.8001Z" fill="#ED057D"/>
<path d="M293 33.3001L289.3 33.1001C289.5 27.6001 290.3 23.2001 291.5 20.1001L295 21.4001C293.9 24.2001 293.2 28.2001 293 33.3001Z" fill="#ED057D"/>
<path d="M285.902 17.9313L282.234 18.4131L284.213 33.4839L287.881 33.0021L285.902 17.9313Z" fill="#ED057D"/>
<path d="M286.8 62.6C277 62.6 265.6 59.3 256.2 49.9C250.5 44.2 247.5 37 248 30.3L248.1 29.3L249 28.8C253.1 26.5 257.4 26 261.4 27.3C266.2 28.8 270.3 33.1 273.6 39.8C276.8 35.8 282.1 33 285.6 31.8C288.2 31 291.8 30.9 295.6 34.2C296.1 29.8 298.2 25.6 301.8 21.6C308.5 14.3 314.5 15 318.4 16.9L319.1 17.2L319.4 17.9C320.1 20 320.6 22.1 321 24.3C325.3 50.9 303.1 59.3 298.6 60.7C295.2 61.9 291.2 62.6 286.8 62.6ZM251.7 31.6C251.6 36.9 254.2 42.6 258.9 47.3C271.4 59.7 287.5 60.5 297.6 57.3C301.6 56.1 321.3 48.7 317.5 25C317.2 23.3 316.8 21.6 316.3 20C312.5 18.5 308.6 19.9 304.7 24.2C300.4 28.9 298.8 33.5 299.5 38.9L300.5 46.2L296.2 40.2C293.2 36 290.1 34.4 286.9 35.4C283 36.7 276.8 40.3 275.2 44.6L274.4 44.3L272 45.3L271.7 44.7L271.6 44.5C271.3 43.9 271.1 43.2 270.8 42.6C268.8 38.2 265.4 32.6 260.3 31C257.5 30 254.6 30.2 251.7 31.6Z" fill="#ED057D"/>
</g>
<defs>
<clipPath id="clip0">
<rect width="788.4" height="234.9" fill="white"/>
</clipPath>
</defs>
</svg>
