<svg width="192" height="139" viewBox="0 0 192 139" fill="none" xmlns="http://www.w3.org/2000/svg">
<g clip-path="url(#clip0)">
<path d="M9.14921 137.624L4.27845 125.631C4.14681 125.369 4.27845 125.172 4.54173 125.107L21.3919 118.291C21.5236 118.225 21.6552 118.225 21.7868 118.291C21.9185 118.356 22.0501 118.422 22.0501 118.553L22.4451 119.602C22.5109 119.733 22.5109 119.864 22.4451 119.995C22.3792 120.126 22.3134 120.257 22.1818 120.322L7.04293 126.417L10.5973 135.068L25.7361 128.973C25.8678 128.908 25.9994 128.908 26.131 128.973C26.2627 129.039 26.3943 129.104 26.4601 129.235L26.8551 130.284C26.9209 130.415 26.9209 130.546 26.8551 130.677C26.7892 130.808 26.7234 130.939 26.5918 130.939L9.7416 137.755C9.47831 137.951 9.28085 137.886 9.14921 137.624Z" fill="#ED057D"/>
<path d="M0.3292 108.657C0.197558 107.805 0.197558 106.888 0.3292 106.036C0.460842 105.184 0.658306 104.332 0.987411 103.546C1.64562 101.973 2.69876 100.662 4.01518 99.6135C4.67339 99.0893 5.46324 98.6305 6.25309 98.3028C7.04295 97.9752 7.89862 97.713 8.82012 97.5819C9.67579 97.4509 10.5973 97.4509 11.453 97.5819C12.3086 97.713 13.1643 97.9096 13.9542 98.2373C14.744 98.565 15.468 98.9582 16.1263 99.4825C16.7845 100.007 17.3769 100.597 17.9034 101.252C18.43 101.907 18.8907 102.694 19.2198 103.48C19.5489 104.267 19.8122 105.118 19.9439 106.036C20.0755 106.953 20.0755 107.805 19.9439 108.657C19.8122 109.509 19.6148 110.361 19.2857 111.082C18.9566 111.869 18.5616 112.589 18.0351 113.245C17.5085 113.9 16.9161 114.49 16.2579 115.014C15.5997 115.539 14.8757 115.997 14.0858 116.325C13.2959 116.653 12.4403 116.915 11.5846 117.046C10.7289 117.177 9.80743 117.177 8.95176 117.046C8.09608 116.915 7.24041 116.718 6.45056 116.391C5.66071 116.063 4.93667 115.604 4.27846 115.145C3.62025 114.621 3.02786 114.031 2.50129 113.376C1.97473 112.721 1.51398 112 1.18487 111.148C0.658305 110.361 0.460842 109.509 0.3292 108.657ZM11.058 114.883C12.1112 114.752 13.0327 114.424 13.8883 113.9C14.744 113.376 15.468 112.721 16.0604 111.934C16.6528 111.148 17.1136 110.296 17.3769 109.313C17.6401 108.33 17.706 107.347 17.5743 106.298C17.4427 105.25 17.1136 104.332 16.587 103.48C16.0604 102.628 15.4022 101.907 14.6124 101.252C13.8225 100.662 12.9668 100.203 11.9795 99.9412C10.9922 99.6791 10.0049 99.6135 8.95176 99.7446C7.89862 99.8757 6.97713 100.203 6.12145 100.728C5.26578 101.252 4.54175 101.907 3.88354 102.694C3.29115 103.48 2.8304 104.398 2.56712 105.315C2.30383 106.298 2.23801 107.281 2.36965 108.264C2.50129 109.313 2.8304 110.23 3.35697 111.082C3.88354 111.934 4.54175 112.655 5.3316 113.245C6.12145 113.835 7.04295 114.293 7.96444 114.556C9.0834 114.949 10.0707 115.014 11.058 114.883Z" fill="#ED057D"/>
<path d="M24.9462 80.3462L20.3387 79.6908L18.5615 93.06L23.169 93.7153C23.4323 93.7809 23.5639 93.9119 23.4981 94.2396L23.3007 95.5503C23.2348 95.8125 23.1032 95.9435 22.8399 95.9435L16.4553 95.0916C16.1262 95.026 15.9945 94.895 16.0603 94.6328L16.2578 93.3877C14.7439 92.1425 13.0326 91.0284 11.1238 90.1764C9.41241 89.4556 7.43778 88.9313 5.19986 88.5381L0.394926 87.8827C0.0658211 87.8172 0 87.6206 0 87.3584L1.38224 77.5282C1.38224 77.3971 1.44806 77.3316 1.51388 77.266C1.57971 77.2005 1.71135 77.135 1.84299 77.2005L18.1666 79.4287L18.4299 77.7248C18.4299 77.5937 18.4957 77.5282 18.5615 77.4626C18.6274 77.3971 18.759 77.3316 18.8906 77.3316L25.2753 78.1835C25.5386 78.249 25.6702 78.3801 25.6044 78.7078L25.4069 80.084C25.4069 80.2806 25.2753 80.4117 24.9462 80.3462ZM2.43538 85.8511L5.52897 86.2443C9.47823 86.7686 13.1642 88.2759 16.5869 90.7007L17.8375 81.5258L3.29105 79.5597L2.43538 85.8511Z" fill="#ED057D"/>
<path d="M3.94924 67.1736L8.4909 55.3773C8.62254 55.1151 8.82 54.9841 9.08328 55.1151L10.2681 55.5739C10.3997 55.6394 10.4655 55.705 10.5313 55.7705C10.5972 55.9016 10.5972 56.0326 10.5313 56.1637L6.64791 66.2561L14.5464 69.2707L17.64 61.2099C17.7058 61.0788 17.7717 61.0133 17.8375 60.9478C17.9691 60.8822 18.0349 60.8822 18.1666 60.9478L19.4172 61.4065C19.5488 61.472 19.6147 61.5376 19.6805 61.6031C19.7463 61.6687 19.7463 61.7997 19.6805 61.9308L16.5869 69.9916L20.3387 71.4334L24.2879 61.0133C24.4196 60.7512 24.6171 60.6856 24.8803 60.7512L26.1309 61.2099C26.3942 61.341 26.46 61.472 26.3942 61.7342L21.7867 73.8582C21.7209 74.1203 21.5235 74.1859 21.2602 74.1203L4.14671 67.6323C3.94924 67.5668 3.88342 67.4357 3.94924 67.1736Z" fill="#ED057D"/>
<path d="M26.8549 60.9475C26.7891 61.0786 26.6575 61.1441 26.5258 61.2097C26.3942 61.2097 26.2625 61.2097 26.1309 61.1441L25.4069 60.6854C25.2752 60.6199 25.2094 60.4888 25.1436 60.3577C25.1436 60.2266 25.1436 60.0956 25.2752 59.9645C25.4069 59.7679 25.5385 59.5058 25.5385 59.1781C25.5385 58.9159 25.5385 58.6538 25.4069 58.3261C25.341 58.064 25.2094 57.8018 25.0119 57.6052C24.8145 57.4086 24.6828 57.212 24.4195 57.081L12.3085 48.8235C12.0452 48.6269 11.9794 48.4303 12.1768 48.2337L19.088 37.9447C19.1539 37.8136 19.2197 37.7481 19.3513 37.7481C19.483 37.6826 19.6146 37.7481 19.6804 37.8136L34.8851 47.906C35.1484 48.0371 35.1484 48.2993 34.9509 48.4959L34.2269 49.61C34.0952 49.8721 33.8978 49.8721 33.6345 49.741L19.9437 40.6316L15.0071 47.9716L25.736 55.1149C26.1967 55.4426 26.5916 55.8358 26.8549 56.2945C27.1182 56.7533 27.3157 57.2776 27.4473 57.8018C27.579 58.3261 27.5131 58.9159 27.4473 59.4402C27.3815 60.03 27.184 60.4888 26.8549 60.9475Z" fill="#ED057D"/>
<path d="M27.5791 28.9008L32.5156 34.2747L35.4118 21.4298C35.4776 21.2987 35.5434 21.1677 35.6092 21.0366L36.5965 20.1191C36.6624 20.0536 36.794 19.988 36.9257 19.988C37.0573 19.988 37.1231 20.0536 37.1889 20.1191L49.4975 33.6193C49.6949 33.8159 49.6949 34.0126 49.4975 34.2092L48.5102 35.1267C48.3127 35.3233 48.0494 35.3233 47.8519 35.1267L37.3206 23.5269L34.3586 36.2407L39.8876 42.3355C40.0851 42.5321 40.0851 42.7287 39.8876 42.9253L38.9003 43.8428C38.637 44.0394 38.4395 44.0394 38.2421 43.8428L25.9335 30.3426C25.8677 30.2771 25.8019 30.146 25.8677 30.0149C25.8677 29.8838 25.9335 29.8183 26.0652 29.6872L26.9867 28.8353C27.0525 28.7697 27.1841 28.7042 27.3158 28.7042C27.3816 28.7042 27.5132 28.7697 27.5791 28.9008Z" fill="#ED057D"/>
<path d="M56.8694 9.76468C57.0668 9.76468 57.1985 9.89575 57.2643 10.0268C57.3301 10.0924 57.3301 10.1579 57.3301 10.2234L57.2643 11.5997C57.2643 11.7963 57.1985 11.9273 57.1326 11.9929C57.0668 12.0584 56.9352 12.0584 56.7377 11.9929C55.9479 11.9273 55.2238 11.9273 54.4998 12.0584C53.7758 12.1895 53.0517 12.4516 52.3277 12.7793C51.3404 13.3036 50.5505 14.0245 49.8923 14.8109C49.2341 15.6628 48.7734 16.5148 48.5101 17.4978C48.2468 18.4808 48.1151 19.4639 48.2468 20.4469C48.3784 21.4299 48.6417 22.3474 49.1683 23.2649C49.6949 24.1824 50.3531 24.9688 51.1429 25.5586C51.9328 26.1485 52.8543 26.6072 53.7758 26.8693C54.6973 27.1315 55.6846 27.197 56.6719 27.0659C57.6592 26.9349 58.5807 26.6727 59.4364 26.1485C60.687 25.4276 61.7401 24.379 62.4641 23.0683L62.7932 22.4785C62.8591 22.3474 62.9249 22.2164 62.9907 22.2164C63.0565 22.1508 63.1882 22.2164 63.3856 22.2819L64.6362 23.0028C64.7679 23.0683 64.8337 23.1338 64.8337 23.1994C64.8995 23.3304 64.8337 23.4615 64.7021 23.6581C64.3071 24.5756 63.7147 25.362 63.0565 26.1485C62.3983 26.8693 61.5426 27.5247 60.6212 28.049C59.8313 28.5077 59.0414 28.8354 58.1858 29.032C57.3301 29.2286 56.4744 29.3597 55.6188 29.2941C54.7631 29.2941 53.9732 29.1631 53.1175 28.9009C52.3277 28.7043 51.5378 28.3111 50.8138 27.9179C50.024 27.5247 49.2999 27.0004 48.7075 26.4106C48.1151 25.8208 47.5886 25.0999 47.1278 24.3135C46.6671 23.5271 46.338 22.7406 46.1405 21.8887C45.9431 21.0367 45.8114 20.1848 45.8772 19.3328C45.8772 18.4808 46.0089 17.6289 46.2722 16.8425C46.4696 16.056 46.7987 15.2696 47.2595 14.5487C47.7202 13.8279 48.2468 13.1725 48.8392 12.5172C49.4316 11.9273 50.1556 11.4031 50.9455 10.9443C52.7884 9.89575 54.7631 9.50254 56.8694 9.76468Z" fill="#ED057D"/>
<path d="M72.6006 22.8062L67.664 24.3135C67.2691 24.4446 66.94 24.3135 66.8083 23.8548L61.5427 6.88116C61.411 6.48795 61.5427 6.22581 61.9376 6.09474L62.7933 5.8326C63.1882 5.70153 63.4515 5.8326 63.5831 6.22581L64.4388 9.04382L67.8615 7.99526C68.8488 7.66758 69.9019 7.60205 70.8892 7.66758C71.9424 7.79865 72.8639 8.06079 73.7854 8.51954C74.7069 8.97828 75.4309 9.63363 76.1549 10.4201C76.8131 11.2065 77.2739 12.124 77.603 13.107C77.8005 13.7623 77.9321 14.4832 77.9321 15.2041C77.9321 15.925 77.8663 16.5804 77.7346 17.2357C77.4055 18.5464 76.7473 19.726 75.8258 20.7091C75.036 21.6921 73.917 22.413 72.6006 22.8062ZM65.2286 11.2065L68.5197 21.8232L71.7449 20.8401C72.4689 20.6435 73.193 20.2503 73.7195 19.7916C74.3119 19.3328 74.7727 18.743 75.1676 18.0877C75.5625 17.4323 75.76 16.777 75.8258 15.9905C75.8916 15.2697 75.8258 14.5488 75.6284 13.7623C75.4309 13.0415 75.036 12.3861 74.5752 11.7963C74.1145 11.2065 73.5221 10.8133 72.8639 10.4201C72.2057 10.0924 71.5475 9.89578 70.8234 9.83024C70.0994 9.76471 69.3754 9.83024 68.7171 10.0268L65.2286 11.2065Z" fill="#ED057D"/>
<path d="M105.38 1.96605C105.511 2.09712 105.643 2.22819 105.643 2.4248C105.643 2.49033 105.643 2.55587 105.577 2.6214L104.853 3.80104C104.721 3.99764 104.59 4.06318 104.524 4.06318C104.392 4.06318 104.326 3.99764 104.129 3.86657C103.471 3.40783 102.812 3.08015 102.154 2.81801C101.43 2.55587 100.706 2.4248 99.9164 2.35926C98.7974 2.35926 97.7443 2.55587 96.757 2.88355C95.7696 3.27676 94.914 3.80104 94.1899 4.52192C93.4659 5.24281 92.8735 6.02923 92.4786 6.94672C92.0837 7.86421 91.8862 8.84724 91.8204 9.83027C91.8204 10.8788 92.0178 11.8619 92.347 12.8449C92.7419 13.7624 93.2684 14.6143 93.9925 15.2697C94.7165 15.925 95.5064 16.5149 96.362 16.8425C97.2835 17.2357 98.205 17.4323 99.1923 17.4323C100.64 17.4323 102.023 17.0391 103.339 16.2527L103.866 15.925C103.997 15.8595 104.129 15.794 104.195 15.794C104.261 15.794 104.392 15.8595 104.524 16.0561L105.248 17.3013C105.314 17.4323 105.314 17.4979 105.314 17.5634C105.314 17.6945 105.182 17.8256 104.985 17.9566C104.195 18.5464 103.273 18.9396 102.286 19.2673C101.299 19.595 100.311 19.7261 99.1923 19.7261C98.2708 19.7261 97.4152 19.595 96.5595 19.3329C95.7038 19.0707 94.914 18.743 94.1899 18.2843C93.4659 17.8256 92.8077 17.3013 92.2153 16.7115C91.6229 16.1216 91.0964 15.4663 90.7014 14.6799C90.3065 13.959 89.9774 13.1726 89.7141 12.3206C89.5167 11.4686 89.385 10.6167 89.385 9.6992C89.385 8.78171 89.5166 7.92975 89.7799 7.14333C90.0432 6.29137 90.3723 5.50495 90.8331 4.78406C91.2938 4.06318 91.8204 3.40783 92.4128 2.81801C93.0052 2.22819 93.6634 1.70391 94.3874 1.3107C95.1114 0.917492 95.9013 0.589816 96.757 0.327676C97.6126 0.13107 98.4683 0 99.3898 0C101.759 0.0655351 103.668 0.655351 105.38 1.96605Z" fill="#860064"/>
<path d="M126.179 30.3428L127.759 26.0175L115.055 21.3645L113.475 25.6898C113.41 25.952 113.212 26.0175 112.949 25.8864L111.698 25.4277C111.435 25.3622 111.369 25.1655 111.435 24.9034L113.673 18.8742C113.805 18.612 113.936 18.481 114.199 18.612L115.384 19.0708C116.964 17.8911 118.346 16.4494 119.597 14.7455C120.65 13.2382 121.637 11.4032 122.427 9.30605L124.073 4.71859C124.204 4.45645 124.336 4.32538 124.599 4.45645L133.946 7.86428C134.077 7.92981 134.143 7.99535 134.209 8.06088C134.275 8.19195 134.275 8.25749 134.209 8.38856L128.548 23.7893L130.128 24.3791C130.26 24.4447 130.326 24.5102 130.391 24.5757C130.457 24.7068 130.457 24.7723 130.391 24.9034L128.154 30.9326C128.088 31.1948 127.89 31.2603 127.561 31.1948L126.311 30.736C126.113 30.736 126.047 30.5394 126.179 30.3428ZM125.521 7.20892L124.468 10.0925C123.085 13.828 120.847 17.1047 117.688 19.9227L126.442 23.134L131.51 9.37158L125.521 7.20892Z" fill="#860064"/>
<path d="M144.148 13.107L148.426 15.925C149.545 16.7114 150.467 17.6944 151.125 18.9396C151.717 20.1192 151.981 21.4299 151.981 22.8062C151.981 23.4615 151.849 24.1169 151.652 24.8378C151.454 25.4931 151.125 26.1485 150.73 26.7383C150.138 27.5903 149.414 28.3111 148.558 28.901C147.702 29.4908 146.781 29.884 145.794 30.0806C144.806 30.2772 143.753 30.2772 142.766 30.1461C141.778 29.9495 140.791 29.5563 139.935 29.032L136.974 27.066L135.328 29.4908C135.065 29.8184 134.801 29.884 134.406 29.6874L133.617 29.1631C133.288 28.901 133.222 28.6388 133.419 28.3111L143.227 13.5002C143.49 12.9104 143.819 12.8448 144.148 13.107ZM144.28 15.7284L138.092 25.0344L141.12 27.0004C141.713 27.3936 142.371 27.6558 143.095 27.7869C143.819 27.9179 144.543 27.9179 145.267 27.7869C145.991 27.6558 146.649 27.3936 147.307 27.0004C147.9 26.6072 148.426 26.0829 148.887 25.4276C149.348 24.7722 149.611 24.1169 149.743 23.3305C149.874 22.6096 149.874 21.8887 149.677 21.1678C149.48 20.4469 149.216 19.7916 148.755 19.1362C148.295 18.5464 147.768 17.9566 147.11 17.5634L144.28 15.7284Z" fill="#860064"/>
<path d="M145.859 37.748C145.596 37.5514 145.662 37.2893 145.859 37.0271L146.649 36.2407C146.715 36.1752 146.847 36.1096 146.978 36.0441C147.11 36.0441 147.176 36.0441 147.308 36.1752C147.505 36.3718 147.702 36.5028 147.9 36.5684C148.097 36.6339 148.295 36.6994 148.558 36.765C149.019 36.765 149.677 36.6339 150.533 36.2407L152.968 35.1921L157.707 23.2647L157.773 23.1337L157.905 23.0026C158.036 22.8715 158.234 22.8715 158.431 23.1337L159.419 24.0512C159.616 24.2478 159.682 24.4444 159.55 24.7065C159.419 25.0342 159.221 25.4929 158.958 26.1483L158.76 26.6726C158.234 27.9177 157.707 29.0318 157.312 30.0804C157.115 30.6047 156.917 31.0634 156.72 31.4566L156.128 32.8329C155.93 33.2916 155.733 33.6848 155.601 34.078L164.882 29.7527C165.013 29.6872 165.145 29.6872 165.277 29.6872C165.342 29.6872 165.474 29.7527 165.606 29.8838L166.593 30.8013C166.856 30.9979 166.856 31.26 166.659 31.4566L166.527 31.5877L165.935 31.8498C165.54 31.9809 164.882 32.3086 163.894 32.7018L162.446 33.3572L158.892 34.93C156.852 35.782 154.679 36.765 152.31 37.8135C151.586 38.1412 150.993 38.4034 150.533 38.5344C150.006 38.731 149.545 38.7966 149.085 38.8621C147.768 38.9932 146.715 38.6 145.859 37.748Z" fill="#860064"/>
<path d="M158.958 41.4838C159.221 41.2872 159.353 41.3528 159.55 41.5494L160.406 42.729C160.538 42.9256 160.538 43.1222 160.274 43.3188C159.814 43.6465 159.419 44.1052 159.09 44.564C158.76 45.0227 158.629 45.547 158.497 46.1368C158.431 46.6611 158.431 47.2509 158.563 47.7752C158.695 48.2995 158.958 48.8238 159.287 49.348C159.616 49.8068 160.077 50.2 160.538 50.5277C160.998 50.8554 161.525 50.9864 162.117 51.1175C162.644 51.183 163.236 51.183 163.763 51.052C164.289 50.9209 164.816 50.6587 165.342 50.3311C165.803 50.0034 166.198 49.5447 166.527 49.0859C166.791 48.5616 166.988 48.0373 167.054 47.4475C167.12 46.8577 167.054 46.2024 166.856 45.547C166.659 44.8917 166.33 44.2363 165.869 43.6465C165.672 43.3844 165.606 43.1877 165.803 43.0567C165.869 42.9911 166.067 42.9256 166.264 42.9256L172.385 42.0081L168.568 36.7653C168.304 36.3721 168.37 36.11 168.699 35.8478L169.423 35.3235C169.753 35.0614 170.082 35.1269 170.345 35.5201L175.676 42.8601C175.808 43.0567 175.874 43.1877 175.808 43.3844C175.742 43.581 175.676 43.712 175.545 43.7776C175.347 43.9086 175.15 43.9742 174.821 44.0397L168.963 44.8917C169.16 45.547 169.292 46.2024 169.292 46.8577C169.292 47.5131 169.16 48.1684 168.963 48.8238C168.765 49.4791 168.436 50.0689 168.041 50.6587C167.646 51.2486 167.12 51.7073 166.593 52.1005C165.869 52.6248 165.079 52.9525 164.224 53.1491C163.368 53.3457 162.578 53.3457 161.722 53.2146C160.867 53.0835 160.077 52.8214 159.353 52.3627C158.629 51.9039 157.971 51.3141 157.444 50.5932C156.917 49.8723 156.588 49.0859 156.391 48.2995C156.193 47.4475 156.193 46.6611 156.325 45.8092C156.457 44.9572 156.72 44.1708 157.181 43.4499C157.641 42.5979 158.234 42.0081 158.958 41.4838Z" fill="#860064"/>
<path d="M165.408 63.569L163.302 58.916C163.105 58.5228 163.236 58.2606 163.631 58.064L179.823 50.7241C180.218 50.5275 180.481 50.6586 180.679 51.0518L181.074 51.9037C181.271 52.297 181.14 52.5591 180.745 52.7557L178.046 54.0009L179.56 57.2776C180.021 58.2606 180.218 59.2437 180.284 60.2267C180.284 61.2753 180.152 62.2583 179.757 63.1758C179.428 64.0933 178.836 64.9452 178.178 65.7316C177.454 66.5181 176.664 67.1079 175.742 67.5011C175.084 67.8288 174.426 68.0254 173.702 68.0909C173.044 68.222 172.319 68.222 171.661 68.1564C170.345 68.0254 169.094 67.5011 167.975 66.7147C166.856 65.8627 166.001 64.8142 165.408 63.569ZM176.071 54.7873L165.869 59.3747L167.251 62.4549C167.58 63.1758 168.041 63.7656 168.568 64.2899C169.094 64.8142 169.752 65.2074 170.411 65.4695C171.135 65.7316 171.793 65.8627 172.583 65.8627C173.307 65.8627 174.031 65.6661 174.755 65.3384C175.479 65.0108 176.071 64.552 176.532 64.0277C176.993 63.5034 177.388 62.8481 177.651 62.1272C177.914 61.4719 177.98 60.751 177.98 60.0301C177.98 59.3092 177.783 58.5883 177.454 57.933L176.071 54.7873Z" fill="#860064"/>
<path d="M189.367 74.6446L190.684 80.936C190.749 81.1326 190.684 81.3292 190.618 81.4603C190.552 81.5913 190.354 81.6569 190.157 81.7224L172.714 85.4579C172.319 85.5234 172.056 85.3924 171.99 84.9992L171.793 84.0817C171.727 83.6885 171.859 83.4263 172.254 83.2952L175.742 82.5744L174.755 77.8558C174.557 77.0039 174.557 76.2175 174.623 75.3655L170.279 74.3825C169.884 74.3169 169.687 74.1203 169.621 73.7926L169.423 72.7441C169.423 72.613 169.423 72.4819 169.489 72.3509C169.555 72.2198 169.687 72.1543 169.818 72.1543C169.884 72.1543 169.95 72.1543 170.016 72.1543L175.347 73.3994C175.808 72.3509 176.532 71.4334 177.388 70.647C178.309 69.8605 179.362 69.3363 180.613 69.0741C181.6 68.8775 182.588 68.8775 183.575 69.0086C184.562 69.2052 185.418 69.5329 186.274 70.0571C187.063 70.5814 187.787 71.2368 188.314 72.0887C188.775 72.7441 189.17 73.6616 189.367 74.6446ZM177.914 82.0501L188.248 79.8874L187.261 75.1689C187.129 74.448 186.866 73.8582 186.471 73.2684C186.076 72.6786 185.55 72.2198 185.023 71.8266C184.431 71.4334 183.838 71.1712 183.114 71.0402C182.456 70.9091 181.732 70.9091 181.008 71.0402C180.284 71.1712 179.691 71.4334 179.099 71.8921C178.507 72.2853 178.046 72.8096 177.717 73.3339C177.322 73.9237 177.059 74.5135 176.927 75.2344C176.795 75.8898 176.795 76.6107 176.927 77.266L177.914 82.0501Z" fill="#860064"/>
<path d="M177.454 103.48C177.322 103.414 177.19 103.349 177.124 103.218C177.059 103.152 177.059 103.021 177.059 102.824L177.19 101.448C177.19 101.186 177.388 100.989 177.651 100.924C178.638 100.662 180.021 100.269 181.666 99.7443L182.588 99.4822C183.114 99.3511 183.509 99.1545 183.904 99.0889C184.562 98.8923 185.286 98.6302 186.076 98.4336L188.577 97.6472L185.747 96.2054L181.403 93.9772L179.099 92.7976C177.783 92.1422 176.466 91.4869 175.15 90.8315L173.899 90.1762C173.636 90.0451 173.57 89.8485 173.57 89.5863L173.702 88.2101C173.702 87.948 173.833 87.7514 174.031 87.8169C174.162 87.8169 174.228 87.8169 174.228 87.8169H174.294L191.737 96.9263L191.868 96.9918C191.934 97.0574 192 97.1229 192.066 97.254C192.066 97.3195 192.066 97.385 192.066 97.5161L192 98.3681C192 98.4991 191.934 98.6302 191.868 98.6957C191.803 98.7613 191.737 98.8268 191.605 98.8268H191.473H191.539L180.35 102.366L190.815 107.936C190.881 108.002 190.947 108.067 191.013 108.133C191.079 108.198 191.078 108.329 191.078 108.46L191.013 109.312C191.013 109.509 190.947 109.64 190.815 109.706L190.684 109.771C190.618 109.771 190.618 109.771 190.552 109.837C187.393 110.82 184.299 111.803 181.14 112.786L171.793 115.735H171.661H171.464C171.266 115.735 171.201 115.538 171.201 115.276L171.332 113.9C171.332 113.638 171.53 113.441 171.793 113.376L173.175 112.982L177.454 111.737L182.39 110.23L183.97 109.706L184.628 109.509C185.484 109.247 186.142 109.05 186.471 108.985L187.656 108.592L186.208 107.871L184.496 106.953L182.653 105.97C181.732 105.446 180.547 104.856 179.099 104.135C178.507 103.939 177.98 103.676 177.454 103.48Z" fill="#860064"/>
<path d="M186.208 126.941L179.428 124.189L182.39 137.034C182.39 137.165 182.39 137.362 182.324 137.427L181.798 138.672C181.732 138.803 181.666 138.869 181.6 138.934C181.469 139 181.403 139 181.271 138.934L164.355 132.053C164.092 131.922 164.026 131.791 164.092 131.529L164.618 130.284C164.75 130.022 164.948 129.891 165.211 130.022L179.757 135.92L176.927 123.14L169.292 120.06C169.028 119.929 168.963 119.798 169.028 119.536L169.555 118.291C169.687 118.029 169.884 117.898 170.147 118.029L187.063 124.91C187.195 124.975 187.261 125.041 187.261 125.172C187.327 125.303 187.327 125.434 187.261 125.5L186.734 126.745C186.668 126.876 186.603 126.941 186.537 127.007C186.471 127.007 186.339 127.007 186.208 126.941Z" fill="#860064"/>
<path d="M114.397 78.3802C107.288 78.3802 101.496 72.6131 101.496 65.5353C101.496 58.4575 107.288 52.6904 114.397 52.6904C121.506 52.6904 127.298 58.4575 127.298 65.5353C127.298 72.6131 121.506 78.3802 114.397 78.3802ZM114.397 57.8677C110.119 57.8677 106.63 61.3411 106.63 65.6008C106.63 69.8606 110.119 73.334 114.397 73.334C118.675 73.334 122.164 69.8606 122.164 65.6008C122.164 61.3411 118.609 57.8677 114.397 57.8677Z" fill="#ED057D"/>
<path d="M114.397 134.872C107.288 134.872 101.496 129.105 101.496 122.027C101.496 114.949 107.288 109.182 114.397 109.182C121.506 109.182 127.298 114.949 127.298 122.027C127.298 129.17 121.506 134.872 114.397 134.872ZM114.397 114.359C110.119 114.359 106.63 117.833 106.63 122.092C106.63 126.352 110.119 129.825 114.397 129.825C118.675 129.825 122.164 126.352 122.164 122.092C122.098 117.833 118.609 114.359 114.397 114.359Z" fill="#ED057D"/>
<path d="M64.5047 106.626C57.396 106.626 51.6038 100.859 51.6038 93.7809C51.6038 86.7031 57.396 80.936 64.5047 80.936C71.6134 80.936 77.4056 86.7031 77.4056 93.7809C77.4056 100.859 71.6134 106.626 64.5047 106.626ZM64.5047 86.1133C60.2263 86.1133 56.7378 89.5867 56.7378 93.8464C56.7378 98.1062 60.2263 101.58 64.5047 101.58C68.783 101.58 72.2716 98.1062 72.2716 93.8464C72.2057 89.5867 68.783 86.1133 64.5047 86.1133Z" fill="#ED057D"/>
<path d="M73.4564 91.2905C72.5349 91.2905 71.6792 90.8318 71.2185 89.9798C70.4944 88.7346 70.9552 87.1618 72.2058 86.5064L104.129 68.4188C105.38 67.6979 106.959 68.1566 107.618 69.4018C108.342 70.6469 107.881 72.2198 106.63 72.8751L74.707 90.9628C74.3779 91.225 73.9171 91.2905 73.4564 91.2905Z" fill="#ED057D"/>
<path d="M105.38 119.536C104.919 119.536 104.524 119.405 104.129 119.209L72.2057 101.121C70.9551 100.4 70.5602 98.8272 71.2184 97.6476C71.9424 96.4024 73.5221 96.0092 74.7069 96.6646L106.63 114.752C107.881 115.473 108.276 117.046 107.617 118.226C107.157 119.078 106.301 119.536 105.38 119.536Z" fill="#ED057D"/>
</g>
<defs>
<clipPath id="clip0">
<rect width="192" height="139" fill="white"/>
</clipPath>
</defs>
</svg>
