<svg width="741" height="203" viewBox="0 0 741 203" fill="none" xmlns="http://www.w3.org/2000/svg">
<g clip-path="url(#clip0)">
<path d="M6.5 200.7C4.5 200.7 3 200.5 1.8 200.1C0.6 199.7 0 199.1 0 198.2C0 196.4 2.5 195 7.4 194.2C13.1 193.2 17.4 191.5 20.4 189.1C23.4 186.8 24.9 183 24.9 177.7V76C24.9 70.6 23.8 66.8 21.7 64.5C19.6 62.3 15.7 60.6 10 59.5C5.1 58.6 2.6 57.1 2.6 55C2.6 54.1 3.2 53.5 4.4 53.1C5.6 52.7 7.2 52.5 9.1 52.5C13.1 52.5 16.5 52.6 19.1 52.7C21.7 52.9 24.2 53 26.6 53C29 53.1 31.9 53.1 35.4 53.1C38.7 53.1 41.4 53.1 43.5 53C45.6 52.9 47.8 52.8 50.3 52.7C52.7 52.6 55.9 52.5 60 52.5C61.9 52.5 63.5 52.7 64.7 53.1C65.9 53.5 66.5 54.1 66.5 55C66.5 56.1 65.9 57 64.7 57.7C63.5 58.5 61.6 59.1 59.1 59.5C53.5 60.6 49.5 62.2 47.1 64.5C44.6 66.7 43.4 70.6 43.4 76V177.3C43.4 180.9 44.5 184 46.7 186.5C48.9 189.1 51.7 190.3 55.1 190.3H88.2C92.8 190.3 96.2 189.6 98.3 188.1C100.4 186.6 101.7 184.7 102.3 182.4C102.9 180.1 103.2 177.9 103.2 175.8V76.2C103.2 70.7 102.1 66.7 99.9 64.5C97.7 62.3 93.8 60.6 88.1 59.5C85.5 59.1 83.7 58.5 82.5 57.7C81.3 57 80.7 56.1 80.7 55C80.7 54.1 81.3 53.5 82.5 53.1C83.7 52.7 85.3 52.5 87.2 52.5C91.2 52.5 94.6 52.6 97.2 52.7C99.8 52.9 102.3 53 104.7 53C107.1 53.1 110 53.1 113.5 53.1C116.8 53.1 119.5 53.1 121.6 53C123.7 52.9 125.9 52.8 128.4 52.7C130.8 52.6 134 52.5 138.1 52.5C140 52.5 141.6 52.7 142.8 53.1C144 53.5 144.6 54.1 144.6 55C144.6 57.1 142.1 58.6 137.2 59.5C131.6 60.6 127.6 62.2 125.1 64.3C122.5 66.5 121.3 70.3 121.3 75.7V178.7C121.3 180.1 121.6 181.6 122.2 183.4C122.8 185.2 124.1 186.8 126 188.1C127.9 189.5 131 190.1 135.2 190.1H168C171.9 190.1 175 188.5 177.5 185.3C179.9 182.1 181.1 178.8 181.1 175.5V76C181.1 70.6 180 66.8 177.8 64.5C175.6 62.3 171.7 60.6 166 59.5C163.4 59.1 161.6 58.5 160.4 57.7C159.2 57 158.6 56.1 158.6 55C158.6 54.1 159.2 53.5 160.4 53.1C161.6 52.7 163.2 52.5 165.1 52.5C169.1 52.5 172.5 52.6 175.1 52.7C177.7 52.9 180.2 53 182.6 53C185 53.1 187.9 53.1 191.4 53.1C194.7 53.1 197.4 53.1 199.5 53C201.6 52.9 203.8 52.8 206.3 52.7C208.7 52.6 211.9 52.5 216 52.5C217.9 52.5 219.5 52.7 220.7 53.1C221.9 53.5 222.5 54.1 222.5 55C222.5 57.1 220 58.6 215.1 59.5C209.5 60.6 205.5 62.2 202.9 64.5C200.3 66.7 199.1 70.5 199.1 75.7V177.4C199.1 182.7 200.7 186.5 203.8 188.9C206.9 191.3 211.3 193 216.8 194.1C221.8 195 224.2 196.3 224.2 198.1C224.2 199 223.6 199.6 222.4 200C221.2 200.4 219.6 200.6 217.7 200.6C213.6 200.6 210.3 200.5 207.7 200.3C205.1 200.1 202.6 199.9 200.2 199.7C197.8 199.5 194.9 199.5 191.4 199.5C176.2 199.5 162.4 199.5 149.9 199.4C137.4 199.3 125.1 199.3 113.1 199.3C101.2 199.3 89.1 199.3 76.6 199.3C64.1 199.3 50.3 199.4 35.2 199.5C31.4 199.5 28.2 199.6 25.4 199.7C22.6 199.8 19.8 200 16.9 200.3C14.1 200.6 10.6 200.7 6.5 200.7Z" fill="#ED057D"/>
<path d="M252.7 202.7C249.1 202.7 245.7 201.5 242.6 199.1C239.4 196.7 236.9 193.6 235.1 189.7C233.2 185.8 232.3 181.7 232.3 177.3C232.3 170.3 233.7 162.6 236.5 154.5C239.3 146.3 243.1 138.6 248.1 131.3C253 124 258.8 118.1 265.3 113.4C271.8 108.8 278.8 106.4 286.3 106.4C293.8 106.4 299.6 109 303.7 114C307.8 119.1 309.9 125.4 309.9 132.9C309.9 139.7 308.5 147 305.8 155.1C303.1 163.1 299.2 170.7 294.2 177.9C289.2 185.1 283.2 191 276.2 195.7C269.2 200.4 261.4 202.7 252.7 202.7ZM256.3 195.9C259.9 195.9 263.5 194.3 267.2 191.2C270.9 188.1 274.4 183.9 277.8 178.8C281.2 173.7 284.2 168.1 286.8 161.9C289.4 155.8 291.5 149.6 293.1 143.5C294.7 137.4 295.5 131.7 295.5 126.6C295.5 122.7 294.9 119.5 293.6 116.9C292.3 114.4 289.7 113.1 285.8 113.1C282.3 113.1 278.8 114.5 275.1 117.4C271.4 120.3 267.9 124.1 264.5 128.9C261.1 133.7 258.1 139.1 255.4 145C252.7 150.9 250.6 157.1 249 163.5C247.4 169.9 246.6 176.1 246.6 182.1C246.6 187.1 247.5 190.6 249.2 192.8C250.9 194.9 253.3 195.9 256.3 195.9Z" fill="#ED057D"/>
<path d="M324.4 200.2C323.5 200.2 322.4 200.1 321.1 200C319.8 199.8 319.2 199.3 319.2 198.2C319.2 197 319.8 196.1 320.9 195.6C322 195.1 323.2 194.6 324.4 194.1C326.6 193.4 328.6 192.5 330.1 191.5C331.7 190.5 332.5 188.5 332.5 185.5V128.1C332.5 123.8 331.9 120.9 330.6 119.6C329.3 118.3 326.8 117.2 323.1 116.5C322.5 116.4 321.7 115.9 320.7 115C319.7 114.2 319.2 113.2 319.2 112.2C319.2 111.3 319.9 110.5 321.3 109.8C322.7 109.1 323.7 108.8 324.1 108.8C326.9 108.8 329 108.9 330.4 109.1C331.7 109.3 333.7 109.4 336.2 109.4H403.5C406 109.4 408.1 109.3 409.8 109.1C411.4 108.9 413.7 108.8 416.6 108.8C417.1 108.8 418 109.1 419.4 109.8C420.8 110.5 421.5 111.3 421.5 112.2C421.5 113.3 421 114.2 420.1 115C419.2 115.8 418.4 116.3 417.6 116.5C413.8 117.3 411.2 118.3 409.6 119.8C408 121.2 407.2 124.1 407.2 128.5V185.6C407.2 188.6 408 190.6 409.6 191.6C411.2 192.6 413.1 193.4 415.3 194.2C416.5 194.6 417.7 195.1 418.8 195.7C419.9 196.2 420.5 197.1 420.5 198.3C420.5 199.4 419.9 199.9 418.7 200.1C417.5 200.2 416.4 200.3 415.3 200.3C412.4 200.3 410.3 200.2 408.9 200C407.5 199.8 406.1 199.6 404.8 199.4C403.5 199.3 401.5 199.2 398.8 199.2C396.2 199.2 394.3 199.3 392.9 199.4C391.6 199.6 390.2 199.7 388.7 200C387.3 200.2 385.1 200.3 382.1 200.3C381.2 200.3 380.1 200.2 378.8 200.1C377.5 199.9 376.9 199.4 376.9 198.3C376.9 197.1 377.5 196.2 378.6 195.7C379.7 195.2 380.9 194.7 382.1 194.2C384.3 193.5 386.4 192.6 388.4 191.6C390.3 190.6 391.3 188.6 391.3 185.6V125.3C391.3 124.1 391.1 122.4 390.8 120.1C390.5 117.9 389.4 116.7 387.6 116.7H351.6C349.6 116.7 348.5 117.8 348.2 120.1C347.9 122.3 347.7 124.1 347.7 125.3V185.6C347.7 188.6 348.7 190.6 350.6 191.6C352.5 192.6 354.6 193.4 356.9 194.2C358.1 194.6 359.3 195.1 360.4 195.7C361.5 196.2 362.1 197.1 362.1 198.3C362.1 199.4 361.5 199.9 360.3 200.1C359.1 200.2 358 200.3 356.9 200.3C354 200.3 351.9 200.2 350.5 200C349.1 199.8 347.7 199.6 346.5 199.4C345.2 199.3 343.2 199.2 340.5 199.2C337.9 199.2 336 199.3 334.6 199.4C333.3 199.6 331.9 199.7 330.4 200C329.7 200.1 327.4 200.2 324.4 200.2Z" fill="#ED057D"/>
<path d="M437.2 200.2C436.4 200.2 435.5 200.1 434.4 199.9C433.3 199.7 432.7 199.1 432.7 198.2C432.7 197 433.3 196.1 434.4 195.6C435.5 195.1 436.7 194.6 437.9 194.1C440.1 193.4 442.3 192.5 444.3 191.5C446.3 190.5 447.3 188.5 447.3 185.3V123.6C447.3 120.6 446.4 118.5 444.7 117.4C443 116.3 441 115.4 438.7 114.8C437.5 114.3 436.3 113.8 435.2 113.2C434.1 112.6 433.5 111.8 433.5 110.7C433.5 109.8 434.1 109.2 435.2 109C436.3 108.8 437.3 108.7 438 108.7C441 108.7 443.3 108.8 444.9 108.9C446.5 109.1 448 109.2 449.4 109.5C450.8 109.7 452.8 109.8 455.4 109.8C458.1 109.8 460.1 109.7 461.4 109.5C462.7 109.3 464.1 109.1 465.6 108.9C467.1 108.8 469.3 108.7 472.4 108.7C473.1 108.7 474.1 108.8 475.2 109C476.3 109.2 476.9 109.8 476.9 110.7C476.9 111.8 476.3 112.6 475.2 113.2C474.1 113.8 472.9 114.3 471.7 114.8C469.5 115.4 467.5 116.3 465.7 117.4C464 118.5 463.1 120.6 463.1 123.6V168.6C463.1 169.2 463.4 169.6 464.1 169.8C464.8 170 465.2 170.1 465.3 169.9L508.3 125.6C508.6 125 508.9 124.6 509.1 124.5C509.3 124.4 509.4 123.9 509.4 123.2C509.4 120.2 508.6 118.2 507.2 117.2C505.7 116.2 503.8 115.4 501.6 114.8C500.4 114.3 499.2 113.8 498.1 113.2C497 112.6 496.4 111.8 496.4 110.7C496.4 109.8 496.9 109.2 498 109C499 108.8 500 108.7 500.9 108.7C503.9 108.7 506.1 108.8 507.7 108.9C509.2 109.1 510.6 109.2 512 109.5C513.3 109.7 515.3 109.8 517.8 109.8C520.5 109.8 522.5 109.7 523.9 109.5C525.3 109.3 526.7 109.1 528.3 108.9C529.9 108.8 532.2 108.7 535.2 108.7C536.1 108.7 537.1 108.8 538.1 109C539.1 109.2 539.7 109.8 539.7 110.7C539.7 111.8 539.1 112.6 538 113.2C536.9 113.8 535.7 114.3 534.5 114.8C532.3 115.4 530.1 116.3 528.2 117.4C526.2 118.5 525.3 120.6 525.3 123.6V185.3C525.3 188.3 526.4 190.3 528.6 191.4C530.8 192.5 533 193.4 535.2 194.1C536.4 194.5 537.6 195 538.7 195.6C539.8 196.1 540.4 197 540.4 198.2C540.4 199.1 539.8 199.7 538.7 199.9C537.6 200.1 536.6 200.2 535.9 200.2C532.9 200.2 530.5 200.1 528.8 199.9C527.1 199.7 525.5 199.5 524 199.3C522.5 199.2 520.4 199.1 517.7 199.1C515.1 199.1 513.1 199.2 511.5 199.3C509.9 199.5 508.3 199.6 506.5 199.9C504.8 200.1 502.4 200.2 499.4 200.2C498.6 200.2 497.7 200.1 496.6 199.9C495.5 199.7 494.9 199.1 494.9 198.2C494.9 197 495.5 196.1 496.6 195.6C497.7 195.1 498.9 194.6 500.1 194.1C502.3 193.4 504.5 192.5 506.5 191.4C508.5 190.4 509.5 188.3 509.5 185.3V137.4C509.5 136.8 509.4 136.4 509.3 136.2C509.1 136 508.9 136 508.6 136.3L463.8 182.9C463.4 183.3 463.1 184.2 463.1 185.4C463.1 188.6 464.2 190.6 466.4 191.6C468.6 192.6 470.8 193.4 473 194.2C474.2 194.6 475.4 195.1 476.5 195.7C477.6 196.2 478.2 197.1 478.2 198.3C478.2 199.2 477.6 199.8 476.5 200C475.4 200.2 474.4 200.3 473.7 200.3C470.7 200.3 468.3 200.2 466.6 200C464.9 199.8 463.3 199.6 461.8 199.4C460.3 199.3 458.2 199.2 455.5 199.2C452.9 199.2 450.9 199.3 449.3 199.4C447.7 199.6 446.1 199.7 444.3 200C442.5 200.1 440.2 200.2 437.2 200.2Z" fill="#ED057D"/>
<path d="M556.4 200.2C555.5 200.2 554.4 200.1 553.1 200C551.8 199.8 551.2 199.3 551.2 198.2C551.2 197 551.8 196.1 552.9 195.6C554 195.1 555.2 194.6 556.4 194.1C558.6 193.4 560.8 192.5 562.8 191.5C564.8 190.5 565.8 188.5 565.8 185.3V123.6C565.8 120.6 564.9 118.5 563.2 117.4C561.5 116.3 559.5 115.4 557.2 114.8C556 114.3 554.8 113.8 553.7 113.2C552.6 112.6 552 111.8 552 110.7C552 109.7 552.6 109.1 553.9 108.9C555.2 108.8 556.3 108.7 557.2 108.7C560.2 108.7 562.4 108.8 563.8 108.9C565.2 109.1 566.6 109.2 568 109.5C569.3 109.7 571.3 109.8 573.8 109.8C576.5 109.8 578.4 109.7 579.7 109.5C580.9 109.3 582.2 109.1 583.6 108.9C585 108.8 587.2 108.7 590 108.7C590.9 108.7 592 108.8 593.3 108.9C594.6 109.1 595.2 109.7 595.2 110.7C595.2 111.8 594.6 112.6 593.5 113.2C592.4 113.8 591.2 114.3 590 114.8C587.8 115.4 585.8 116.3 584 117.4C582.3 118.5 581.4 120.6 581.4 123.6V147.2C581.4 147.8 581.7 148.2 582.3 148.3C582.9 148.5 583.3 148.5 583.7 148.5H625.5C625.8 148.5 626.1 148.4 626.3 148C626.5 147.7 626.6 147.3 626.6 146.7V123.5C626.6 120.5 625.8 118.4 624.4 117.3C622.9 116.2 621 115.3 618.8 114.7C617.6 114.2 616.4 113.7 615.3 113.1C614.2 112.5 613.6 111.7 613.6 110.6C613.6 109.6 614.2 109 615.4 108.8C616.6 108.7 617.7 108.6 618.8 108.6C621.8 108.6 624 108.7 625.3 108.8C626.6 109 628 109.1 629.2 109.4C630.5 109.6 632.4 109.7 634.9 109.7C637.6 109.7 639.6 109.6 640.9 109.4C642.2 109.2 643.6 109 645.1 108.8C646.6 108.7 648.8 108.6 651.6 108.6C652.6 108.6 653.8 108.7 655 108.8C656.2 109 656.8 109.6 656.8 110.6C656.8 111.7 656.2 112.5 655.1 113.1C654 113.7 652.8 114.2 651.6 114.7C649.4 115.3 647.2 116.2 645.3 117.3C643.3 118.4 642.4 120.5 642.4 123.5V185.2C642.4 188.2 643.5 190.2 645.7 191.3C647.9 192.4 650.1 193.3 652.3 194C653.5 194.4 654.7 194.9 655.8 195.5C656.9 196 657.5 196.9 657.5 198.1C657.5 199.2 656.9 199.7 655.6 199.9C654.3 200 653.2 200.1 652.3 200.1C649.4 200.1 647.2 200 645.5 199.8C643.8 199.6 642.3 199.4 640.9 199.2C639.5 199.1 637.4 199 634.7 199C632.1 199 630.1 199.1 628.6 199.2C627.1 199.4 625.6 199.5 624 199.8C622.4 200 620.1 200.1 617.1 200.1C616.2 200.1 615.1 200 613.8 199.9C612.5 199.7 611.9 199.2 611.9 198.1C611.9 196.9 612.5 196 613.6 195.5C614.7 195 615.9 194.5 617.1 194C619.3 193.3 621.5 192.4 623.5 191.3C625.5 190.3 626.5 188.2 626.5 185.2V157.1C626.5 156.5 626.4 156.2 626.3 156.1C626.1 156 625.9 156 625.6 156H581.9C581.6 156 581.4 156.1 581.3 156.3C581.2 156.5 581.2 156.9 581.2 157.5V185.2C581.2 188.4 582.3 190.4 584.5 191.4C586.7 192.4 588.9 193.2 591.1 194C592.3 194.4 593.5 194.9 594.6 195.5C595.7 196 596.3 196.9 596.3 198.1C596.3 199.2 595.7 199.7 594.4 199.9C593.1 200 592 200.1 591.1 200.1C588.2 200.1 586 200 584.3 199.8C582.6 199.6 581.1 199.4 579.7 199.2C578.3 199.1 576.2 199 573.5 199C570.9 199 568.9 199.1 567.4 199.2C565.9 199.4 564.4 199.5 562.8 199.8C561.7 200.1 559.4 200.2 556.4 200.2Z" fill="#ED057D"/>
<path d="M673.6 200.2C672.8 200.2 671.9 200.1 670.8 199.9C669.7 199.7 669.1 199.1 669.1 198.2C669.1 197 669.7 196.1 670.8 195.6C671.9 195.1 673.1 194.6 674.3 194.1C676.5 193.4 678.6 192.5 680.5 191.5C682.4 190.5 683.3 188.5 683.3 185.5V132C683.3 127.7 682.5 124 680.9 121.1C679.3 118.2 676.7 116.3 672.9 115.6C672.3 115.5 671.5 115 670.5 114.4C669.5 113.7 669 112.9 669 111.8C669 110.9 669.7 110.2 671.1 109.7C672.5 109.2 673.5 108.9 673.9 108.9C676.7 108.9 679 109 680.7 109.2C682.3 109.4 684.4 109.5 687 109.5H724.6C728.9 109.5 732.1 109.3 734.1 108.9C736 108.5 737.5 108.3 738.6 108.3C738.7 108.3 739.1 108.5 739.6 108.9C740.1 109.3 740.4 109.8 740.4 110.6C740.4 112.6 740.2 115.3 740 118.9C739.7 122.5 739.5 125.5 739.5 127.9C739.5 129.9 739.3 131.9 739 134C738.7 136.1 737.9 137.1 736.5 137.1C735 137.1 733.6 134.3 732.2 128.6C731.7 126.5 731 124.6 729.8 122.8C728.6 121 727.4 119.5 725.9 118.4C724.4 117.3 722.8 116.7 721.2 116.7C720.1 116.7 718.6 116.7 716.5 116.6C714.4 116.5 712.3 116.5 710.3 116.5C708.3 116.5 706.8 116.5 705.9 116.5C702.9 116.5 701 117.6 700.2 119.9C699.4 122.1 699 123.9 699 125.1V185.6C699 188.6 700.2 190.6 702.5 191.6C704.8 192.6 707.1 193.4 709.4 194.2C710.6 194.6 711.8 195.1 712.9 195.7C714 196.2 714.6 197.1 714.6 198.3C714.6 199.4 714 199.9 712.7 200.1C711.4 200.2 710.3 200.3 709.4 200.3C706.5 200.3 704.3 200.2 702.6 200C700.9 199.8 699.4 199.6 698 199.4C696.6 199.3 694.5 199.2 691.8 199.2C689.2 199.2 687.2 199.3 685.6 199.4C684 199.6 682.4 199.7 680.6 200C679 200.1 676.6 200.2 673.6 200.2Z" fill="#ED057D"/>
<path d="M199.2 114.7C208.7 108.3 218.3 102.2 228.1 96.2997C295 56.2997 347.1 43.2997 347.7 43.1997" fill="#ED057D"/>
<path d="M344.6 43C344.6 43 364.2 29.4 390.8 24C400.4 22 417.8 22.7 418.9 27.8C419.9 32.9 408.6 39.5 394.6 42.3C368 47.7 344.6 43 344.6 43Z" fill="#ED057D"/>
<path d="M319.1 56.9999C319.1 56.9999 337.4 55.8999 356.1 63.7999C362.9 66.5999 373.2 74.8999 371.5 78.9999C369.8 83.0999 359.7 82.7999 349.9 78.6999C331.1 70.7999 319.1 56.9999 319.1 56.9999Z" fill="#ED057D"/>
<path d="M274.1 75.8999C274.1 75.8999 292.1 77.2999 308.8 87.7999C314.9 91.5999 323.3 101.4 320.8 105.3C318.3 109.2 308.6 107.6 299.8 102.1C283.2 91.5999 274.1 75.8999 274.1 75.8999Z" fill="#ED057D"/>
<path d="M311.9 51.6999C311.9 51.6999 312 33.9999 319.9 15.5999C322.8 8.89987 330.6 -1.40013 334 0.099868C337.5 1.59987 336.6 11.2999 332.5 20.9999C324.7 39.4999 311.9 51.6999 311.9 51.6999Z" fill="#ED057D"/>
<path d="M283.2 65.2999C283.2 65.2999 277.8 46.7999 281.6 25.8999C283 18.2999 289.3 5.99986 294 6.79986C298.7 7.69986 300.8 17.9999 298.8 28.9999C294.9 49.8999 283.2 65.2999 283.2 65.2999Z" fill="#ED057D"/>
<path d="M246.1 81.9C246.1 81.9 242.5 71.8 245.8 58.2C247 53.3 251.8 44.3 255.3 43.7C258.8 43.2 260.1 49 258.3 56.2C255 69.9 246.1 81.9 246.1 81.9Z" fill="#ED057D"/>
<path d="M233.1 99.4999C233.1 99.4999 244.4 95.6999 258.9 99.4999C264.1 100.9 273.4 106.3 273.6 110.1C273.8 113.9 267.4 115.2 259.7 113.2C245.3 109.4 233.1 99.4999 233.1 99.4999Z" fill="#ED057D"/>
</g>
<defs>
<clipPath id="clip0">
<rect width="740.5" height="202.7" fill="white"/>
</clipPath>
</defs>
</svg>
