<svg aria-hidden="true" style="position: absolute; width: 0; height: 0; overflow: hidden;" version="1.1" xmlns="http://www.w3.org/2000/svg" xmlns:xlink="http://www.w3.org/1999/xlink">
<defs>
<symbol id="icon-facebook" viewBox="0 0 17 32">
<path  d="M10.368 30.87v-13.889h4.702l0.723-5.435h-5.426v-3.502c0-1.57 0.482-2.657 2.652-2.657h2.894v-4.831c-0.482-0.121-2.17-0.242-4.22-0.242-4.099 0-6.993 2.536-6.993 7.125v3.985h-4.702v5.435h4.702v13.889h5.667v0.121z"></path>
</symbol>
<symbol id="icon-odn" viewBox="0 0 19 32">
<path  d="M9.334 16.259c4.185 0 7.557-3.377 7.557-7.57s-3.372-7.57-7.557-7.57c-4.185 0-7.557 3.377-7.557 7.57-0.116 4.192 3.255 7.57 7.557 7.57zM9.334 4.963c2.093 0 3.72 1.63 3.72 3.727s-1.628 3.727-3.72 3.727c-2.093 0-3.72-1.63-3.72-3.727-0.116-2.096 1.628-3.727 3.72-3.727zM18.054 17.191c-0.465-0.815-1.628-1.63-3.255-0.349-2.093 1.63-5.581 1.63-5.581 1.63s-3.488 0-5.581-1.63c-1.628-1.281-2.79-0.582-3.255 0.349-0.698 1.514 0.116 2.213 1.976 3.494 1.628 1.048 3.837 1.398 5.348 1.63l-1.163 1.165c-1.744 1.747-3.372 3.377-4.534 4.542-0.698 0.699-0.698 1.747 0 2.445l0.233 0.233c0.698 0.699 1.744 0.699 2.442 0l4.534-4.542c1.744 1.747 3.372 3.377 4.534 4.542 0.698 0.699 1.744 0.699 2.442 0l0.232-0.233c0.698-0.699 0.698-1.747 0-2.445l-5.697-5.706c1.395-0.116 3.72-0.582 5.232-1.63 1.976-1.165 2.79-1.98 2.093-3.494z"></path>
</symbol>
<symbol id="icon-twitter" viewBox="0 0 38 32">
<path  d="M12.074 30.956c14.107 0 21.702-11.646 21.702-21.739 0-0.311 0-0.621 0-0.932 1.55-1.087 2.79-2.484 3.876-3.882-1.395 0.621-2.945 1.087-4.341 1.242 1.55-0.932 2.79-2.484 3.41-4.192-1.55 0.932-3.1 1.553-4.806 1.863-2.945-3.106-7.751-3.261-10.851-0.311-2.015 1.863-2.79 4.658-2.17 7.298-6.201-0.311-11.781-3.261-15.657-7.919-2.015 3.571-0.93 7.919 2.325 10.248-1.24 0-2.48-0.311-3.41-0.932 0 0 0 0 0 0.155 0 3.571 2.635 6.832 6.046 7.453-1.085 0.311-2.325 0.311-3.41 0.155 0.93 3.106 3.875 5.279 7.131 5.279-2.635 2.174-6.046 3.261-9.456 3.261-0.62 0-1.24 0-1.86-0.155 3.255 1.863 7.286 3.106 11.471 3.106z"></path>
</symbol>
<symbol id="icon-vk" viewBox="0 0 30 32">
<path  d="M28.302 17.28c-1.302-1.304-2.116-2.12-4.395-2.446v-0.163c1.628-0.652 2.767-1.467 3.581-2.609s1.302-2.446 1.302-3.913c0-1.304-0.326-2.446-0.977-3.424s-1.628-1.793-2.767-2.446c-1.302-0.489-2.441-0.978-3.744-1.141s-4.069-0.326-6.836-0.326h-13.021v30.651h14.649c2.441 0 4.395-0.163 6.022-0.652 1.628-0.326 3.092-0.978 4.395-1.956 1.139-0.815 2.116-1.793 2.767-2.935s0.977-2.446 0.977-3.913c-0.163-1.956-0.814-3.587-1.953-4.728zM10.56 7.008h3.744c1.302 0 2.442 0.163 3.255 0.489 0.977 0.326 1.465 1.304 1.465 2.446s-0.326 1.956-1.139 2.446c-0.814 0.489-1.628 0.652-2.93 0.652h-4.395v-6.032zM18.373 24.942c-0.651 0.326-1.628 0.489-2.767 0.489h-5.046v-7.337h5.046c1.139 0 2.116 0.163 2.767 0.489 1.139 0.489 1.79 1.467 1.79 2.935 0 1.63-0.651 2.772-1.79 3.424z"></path>
</symbol>
</defs>
</svg>
