<svg width="17" height="28" viewBox="0 0 17 28" fill="none" xmlns="http://www.w3.org/2000/svg">
<path d="M8.1672 14.2265C11.8295 14.2265 14.7796 11.2714 14.7796 7.60298C14.7796 3.93459 11.8295 0.979492 8.1672 0.979492C4.50493 0.979492 1.55476 3.93459 1.55476 7.60298C1.45303 11.2714 4.4032 14.2265 8.1672 14.2265ZM8.1672 4.34219C9.99834 4.34219 11.4226 5.76879 11.4226 7.60298C11.4226 9.43718 9.99834 10.8638 8.1672 10.8638C6.33607 10.8638 4.91185 9.43718 4.91185 7.60298C4.81012 5.76879 6.33607 4.34219 8.1672 4.34219ZM15.7969 15.0417C15.39 14.3284 14.3727 13.6151 12.9485 14.736C11.1174 16.1626 8.06547 16.1626 8.06547 16.1626C8.06547 16.1626 5.01357 16.1626 3.18244 14.736C1.75822 13.6151 0.740925 14.2265 0.334005 15.0417C-0.276374 16.3664 0.435732 16.9778 2.06341 18.0987C3.48763 19.0158 5.42049 19.3215 6.74298 19.5253L5.72568 20.5443C4.19974 22.0728 2.77552 23.4994 1.75822 24.5184C1.14785 25.1297 1.14785 26.0468 1.75822 26.6582L1.96168 26.862C2.57206 27.4734 3.48763 27.4734 4.09801 26.862L8.06547 22.888C9.59142 24.4165 11.0156 25.843 12.0329 26.862C12.6433 27.4734 13.5589 27.4734 14.1693 26.862L14.3727 26.6582C14.9831 26.0468 14.9831 25.1297 14.3727 24.5184L10.4053 20.5443L9.38797 19.5253C10.6087 19.4234 12.6433 19.0158 13.9658 18.0987C15.6952 17.0797 16.4073 16.3664 15.7969 15.0417Z" fill="white"/>
</svg>
