<svg width="25" height="21" viewBox="0 0 25 21" fill="none" xmlns="http://www.w3.org/2000/svg">
<path d="M7.92376 20.3146C17.1812 20.3146 22.1659 12.6721 22.1659 6.04861C22.1659 5.84481 22.1659 5.64101 22.1659 5.43721C23.1832 4.72392 23.9971 3.80682 24.7092 2.88972C23.7936 3.29732 22.7763 3.60302 21.8607 3.70492C22.878 3.09352 23.6919 2.07452 24.0988 0.953622C23.0815 1.56502 22.0642 1.97262 20.9452 2.17642C19.0123 0.138423 15.8587 0.0365241 13.8241 1.97262C12.5016 3.19542 11.9929 5.02961 12.3999 6.76191C8.33068 6.55811 4.6684 4.62202 2.12516 1.56502C0.80267 3.90872 1.51478 6.76191 3.6511 8.29041C2.83727 8.29041 2.02343 8.08661 1.41305 7.67901C1.41305 7.67901 1.41305 7.67901 1.41305 7.78091C1.41305 10.1246 3.14246 12.2645 5.38051 12.6721C4.6684 12.8759 3.85456 12.8759 3.14246 12.774C3.75283 14.812 5.6857 16.2386 7.82203 16.2386C6.09262 17.6652 3.85456 18.3785 1.61651 18.3785C1.20959 18.3785 0.802671 18.3785 0.395752 18.2766C2.53208 19.4994 5.17705 20.3146 7.92376 20.3146Z" fill="white"/>
</svg>
