<svg width="19" height="20" viewBox="0 0 19 20" fill="none" xmlns="http://www.w3.org/2000/svg">
<path d="M17.6885 10.7997C16.8747 9.9845 16.366 9.475 14.9418 9.2712V9.1693C15.9591 8.7617 16.6712 8.2522 17.1799 7.5389C17.6885 6.8256 17.9937 6.0104 17.9937 5.0933C17.9937 4.27811 17.7902 3.56481 17.3833 2.95341C16.9764 2.34201 16.366 1.83251 15.6539 1.42491C14.8401 1.11921 14.128 0.813511 13.3141 0.711611C12.5003 0.609711 10.7709 0.507812 9.04147 0.507812H0.903076V19.665H10.0588C11.5847 19.665 12.8055 19.5631 13.8228 19.2574C14.8401 19.0536 15.7556 18.646 16.5695 18.0346C17.2816 17.5251 17.892 16.9137 18.2989 16.2004C18.7058 15.4871 18.9093 14.6719 18.9093 13.7548C18.8075 12.532 18.4006 11.513 17.6885 10.7997ZM6.59994 4.38001H8.93973C9.75357 4.38001 10.4657 4.4819 10.9743 4.6857C11.5847 4.8895 11.8899 5.5009 11.8899 6.2142C11.8899 6.9275 11.6864 7.437 11.1778 7.7427C10.6691 8.0484 10.1605 8.1503 9.34666 8.1503H6.59994V4.38001ZM11.483 15.589C11.0761 15.7928 10.4657 15.8947 9.75358 15.8947H6.59994V11.3092H9.75358C10.4657 11.3092 11.0761 11.4111 11.483 11.6149C12.1951 11.9206 12.602 12.532 12.602 13.4491C12.602 14.4681 12.1951 15.1814 11.483 15.589Z" fill="white"/>
</svg>
