<svg width="259" height="218" viewBox="0 0 259 218" fill="none" xmlns="http://www.w3.org/2000/svg">
<path d="M111.13 213.86C103.977 214.013 96.9738 211.799 91.2099 207.56C85.3458 203.073 80.5449 197.347 77.1499 190.79C73.2991 183.536 70.4978 175.772 68.8299 167.73C67.0486 159.516 66.1435 151.135 66.1299 142.73C66.1449 134.034 67.0496 125.362 68.8299 116.85C70.4916 108.54 73.3302 100.509 77.2599 93.0001C80.7974 86.1594 85.8365 80.2075 91.9999 75.5901C97.9999 71.1701 105.127 68.96 113.38 68.96C120.53 68.8021 127.532 71.0175 133.29 75.2601C139.151 79.7373 143.952 85.4533 147.35 92.0001C151.197 99.2356 154.002 106.979 155.68 115C157.455 123.094 158.36 131.354 158.38 139.64C158.357 148.26 157.452 156.855 155.68 165.29C153.991 173.664 151.15 181.765 147.24 189.36C143.751 196.304 138.752 202.379 132.61 207.14C126.69 211.62 119.53 213.86 111.13 213.86ZM115 208C121 208 125.837 204.96 129.51 198.88C133.183 192.8 135.85 184.89 137.51 175.15C139.215 164.738 140.044 154.201 139.99 143.65C139.999 135.363 139.357 127.087 138.07 118.9C136.948 111.355 134.986 103.959 132.22 96.8501C130.071 91.0118 126.784 85.6583 122.55 81.1001C120.844 79.2522 118.773 77.7784 116.468 76.7714C114.163 75.7645 111.675 75.2465 109.16 75.2501C103.16 75.2501 98.3965 78.1734 94.8699 84.0201C91.3432 89.8668 88.7932 97.6301 87.2199 107.31C85.5938 117.693 84.8046 128.19 84.8599 138.7C84.8571 147.07 85.4956 155.428 86.7699 163.7C87.8894 171.334 89.7756 178.835 92.3999 186.09C94.8732 192.757 97.9865 198.09 101.74 202.09C103.404 203.96 105.447 205.454 107.733 206.473C110.02 207.492 112.497 208.013 115 208Z" fill="#ED057D"/>
<path d="M188.08 211.38C187.627 211.406 187.174 211.34 186.748 211.185C186.321 211.03 185.931 210.79 185.6 210.48C185.338 210.255 185.123 209.98 184.968 209.671C184.814 209.362 184.723 209.025 184.7 208.68C184.7 207.346 185.827 206.373 188.08 205.76C193.774 204.26 198.46 202.87 202.14 201.59C205.325 200.651 208.149 198.768 210.24 196.19C211.96 193.87 212.824 190.536 212.83 186.19V100.19C212.907 98.968 212.703 97.7449 212.233 96.6146C211.764 95.4842 211.041 94.4768 210.12 93.6698C208.083 92.0567 205.678 90.9744 203.12 90.5197C200.079 89.8946 196.992 89.5167 193.89 89.3897C192.5 89.2638 191.144 88.8842 189.89 88.2697C189.353 88.0539 188.893 87.6805 188.572 87.1986C188.251 86.7167 188.083 86.1488 188.09 85.5697C188.114 85.0129 188.281 84.4717 188.575 83.9986C188.869 83.5255 189.281 83.1366 189.77 82.8697C190.952 82.1011 192.305 81.6373 193.71 81.5197C199.827 80.6057 205.877 79.2894 211.82 77.5797C217.154 75.9997 222.367 72.6663 227.46 67.5797C227.533 67.5055 227.62 67.447 227.717 67.4074C227.813 67.3679 227.916 67.3482 228.02 67.3497H228.59C229.296 67.3465 229.989 67.5405 230.59 67.9097C230.855 68.039 231.067 68.2563 231.189 68.5245C231.311 68.7927 231.336 69.095 231.26 69.3797C230.96 71.6331 230.737 74.0697 230.59 76.6897C230.44 79.3197 230.37 82.1997 230.37 85.3497V188.85C230.37 192.6 231.07 195.45 232.5 197.4C233.93 199.35 236.36 200.89 239.82 202.01C243.28 203.13 248.06 204.45 254.22 205.95C255.138 206.108 256.015 206.448 256.8 206.95C257.158 207.131 257.462 207.405 257.679 207.742C257.897 208.08 258.022 208.469 258.04 208.87C258.04 210.52 256.99 211.34 254.89 211.34C250.69 211.34 246.82 211.23 243.3 211C239.78 210.77 236.3 210.59 232.95 210.44C229.6 210.29 225.87 210.22 221.82 210.22C217.77 210.22 213.94 210.29 210.34 210.44C206.74 210.59 203.14 210.78 199.54 211C195.94 211.22 192.12 211.38 188.08 211.38Z" fill="#ED057D"/>
<path d="M108.72 71.3802L112.93 71.2603C112.4 53.1903 116.04 39.6203 119.18 31.4103C122.59 22.5203 126.18 17.8303 126.18 17.7903L122.85 15.2002C122.25 16.0002 107.65 35.1903 108.72 71.3802Z" fill="#ED057D"/>
<path d="M114.87 31.78C111.97 26.38 112.48 18.78 116.2 11.95C119.92 5.11995 126.05 0.579985 132.2 0.109985L133.57 0L134.22 1.20996C137.13 6.60996 136.62 14.21 132.89 21.04C129.16 27.87 123.04 32.41 116.89 32.89L115.52 32.99L114.87 31.78ZM119.87 13.97C117.17 18.91 116.47 24.42 117.96 28.47C122.16 27.53 126.42 23.97 129.12 19.02C131.82 14.07 132.51 8.57003 131.03 4.53003C126.87 5.46003 122.61 9 119.91 14L119.87 13.97Z" fill="#ED057D"/>
<path d="M110.27 53.1401C105.41 52.8401 100.51 49.3401 97.4801 44.0001C94.4501 38.6601 93.9701 32.6501 96.2101 28.3201L96.8501 27.1001L98.2201 27.1901C103.08 27.4901 107.98 31.0001 111.01 36.3301C114.04 41.6601 114.52 47.6801 112.28 52.0101L111.64 53.2301L110.27 53.1401ZM101.15 41.9202C103.15 45.4002 106.15 47.9201 109.08 48.7001C109.93 45.7601 109.31 41.8902 107.34 38.4102C105.37 34.9302 102.34 32.4101 99.4101 31.6401C98.5601 34.5801 99.1801 38.4402 101.15 41.9202Z" fill="#ED057D"/>
<path d="M112.88 62.3101C115.81 49.6001 131.82 39.47 131.98 39.37L129.74 35.79C126.479 37.9277 123.413 40.3505 120.58 43.03C114.15 49.1 110.18 55.26 108.77 61.36L112.88 62.3101Z" fill="#ED057D"/>
<path d="M30.2599 217.1C30.2656 217.265 30.2084 217.426 30.0999 217.55C29.9895 217.655 29.8423 217.713 29.6899 217.71H28.6899C28.6038 217.716 28.5174 217.702 28.4376 217.669C28.3578 217.636 28.2867 217.585 28.2299 217.52C28.1122 217.389 28.0512 217.216 28.0599 217.04C28.0609 216.727 27.978 216.42 27.8199 216.15C27.6578 215.86 27.4403 215.606 27.1799 215.4C26.9201 215.196 26.6299 215.034 26.3199 214.92C26.0318 214.813 25.7274 214.755 25.4199 214.75H8.31989C7.96989 214.75 7.79989 214.58 7.79989 214.25V199.78C7.79751 199.64 7.84745 199.505 7.93988 199.4C7.98179 199.348 8.03523 199.306 8.09598 199.279C8.15673 199.251 8.22312 199.238 8.28988 199.24H29.5799C29.9099 199.24 30.0699 199.42 30.0699 199.78V201.34C30.0801 201.407 30.0744 201.475 30.0534 201.539C30.0324 201.603 29.9966 201.661 29.9489 201.709C29.9012 201.757 29.8429 201.792 29.7788 201.813C29.7147 201.835 29.6466 201.84 29.5799 201.83H10.3799V212.15H25.3799C26.019 212.151 26.6502 212.291 27.2299 212.56C27.8175 212.829 28.3499 213.206 28.7999 213.67C29.2307 214.132 29.57 214.672 29.7999 215.26C30.0748 215.836 30.2313 216.462 30.2599 217.1Z" fill="#ED057D"/>
<path d="M27.0801 189.4L29.6302 190.4C29.7591 190.443 29.8707 190.527 29.9482 190.639C30.0257 190.75 30.065 190.884 30.0601 191.02V192.64C30.0601 192.99 29.9501 193.16 29.7201 193.16H29.4602H29.3701L8.25015 184.37H8.16015C8.05434 184.327 7.95887 184.263 7.88015 184.18C7.80701 184.057 7.77545 183.913 7.79014 183.77V182.77C7.77545 182.627 7.80701 182.484 7.88015 182.36C7.96802 182.279 8.0696 182.215 8.18014 182.17H8.10015H8.21015L29.3701 173.43H29.5202H29.7201C29.9501 173.43 30.0601 173.61 30.0601 173.97V175.56C30.0683 175.702 30.0282 175.842 29.9465 175.958C29.8648 176.075 29.7463 176.16 29.6101 176.2L28.5202 176.64L27.0801 177.19V189.4ZM12.2102 183V183.33C13.0102 183.67 14.0601 184.1 15.3601 184.62L15.7301 184.77L21.1602 186.99L24.5101 188.34V178.07L12.2102 183Z" fill="#ED057D"/>
<path d="M8.27992 166.9H16.7899L7.91992 154.32C7.83685 154.174 7.79213 154.008 7.78991 153.84V152.26C7.78527 152.196 7.79448 152.131 7.8169 152.071C7.83933 152.011 7.87446 151.956 7.91992 151.91C7.9678 151.865 8.02447 151.83 8.0864 151.808C8.14834 151.785 8.2142 151.776 8.27992 151.78H29.5699C29.6357 151.77 29.7028 151.776 29.766 151.796C29.8292 151.817 29.8868 151.852 29.9343 151.898C29.9818 151.945 30.0178 152.002 30.0396 152.064C30.0614 152.127 30.0684 152.194 30.0599 152.26V153.81C30.0599 154.17 29.8999 154.35 29.5699 154.35H11.2499L19.9399 166.9H29.5699C29.6357 166.89 29.7028 166.896 29.766 166.916C29.8292 166.937 29.8868 166.972 29.9343 167.018C29.9818 167.065 30.0178 167.122 30.0396 167.184C30.0614 167.247 30.0684 167.314 30.0599 167.38V168.93C30.0599 169.3 29.8999 169.48 29.5699 169.48H8.27992C8.21316 169.482 8.14677 169.469 8.08602 169.441C8.02527 169.414 7.97181 169.372 7.92991 169.32C7.83418 169.213 7.78395 169.073 7.78991 168.93V167.38C7.78527 167.316 7.79448 167.251 7.8169 167.191C7.83933 167.131 7.87446 167.076 7.91992 167.03C7.9678 166.985 8.02447 166.95 8.0864 166.928C8.14834 166.905 8.2142 166.896 8.27992 166.9ZM5.05991 161.22C5.05314 161.715 4.95129 162.204 4.75991 162.66C4.57892 163.106 4.31415 163.514 3.97991 163.86C3.6675 164.192 3.29401 164.46 2.87992 164.65C2.48294 164.839 2.04938 164.938 1.60992 164.94C1.53101 164.943 1.4525 164.928 1.37994 164.897C1.30737 164.866 1.24251 164.819 1.18992 164.76C1.1356 164.707 1.09256 164.643 1.06336 164.572C1.03416 164.502 1.0194 164.426 1.01992 164.35V163.35C1.0157 163.271 1.02798 163.192 1.05601 163.118C1.08403 163.044 1.12718 162.976 1.18269 162.92C1.23819 162.864 1.30484 162.819 1.3784 162.79C1.45195 162.761 1.53081 162.747 1.60992 162.75C1.78764 162.752 1.9637 162.716 2.12597 162.643C2.28824 162.571 2.43289 162.464 2.54992 162.33C2.78955 162.004 2.91879 161.61 2.91879 161.205C2.91879 160.8 2.78955 160.406 2.54992 160.08C2.44952 159.95 2.32077 159.845 2.17347 159.772C2.02617 159.699 1.86421 159.661 1.69991 159.66C1.21991 159.66 0.979913 159.46 0.979913 159.07V158.2C0.974411 158.01 1.02297 157.823 1.11991 157.66C1.16895 157.587 1.23637 157.528 1.31538 157.49C1.39439 157.451 1.48219 157.434 1.56992 157.44C2.01307 157.438 2.45079 157.538 2.84992 157.73C3.26907 157.926 3.64869 158.197 3.96992 158.53C4.29841 158.887 4.55932 159.3 4.73992 159.75C4.9386 160.215 5.04718 160.714 5.05991 161.22Z" fill="#ED057D"/>
<path d="M8.45002 135.82H9.45002C9.6045 134.556 9.96601 133.327 10.52 132.18C11.0461 131.067 11.7599 130.052 12.63 129.18C13.4721 128.335 14.4662 127.657 15.56 127.18C16.6427 126.725 17.8054 126.49 18.98 126.49C20.1546 126.49 21.3173 126.725 22.4 127.18C23.4864 127.659 24.4734 128.338 25.31 129.18C26.1802 130.05 26.891 131.065 27.41 132.18C27.9647 133.325 28.3198 134.556 28.46 135.82H29.4C29.4896 135.815 29.5793 135.829 29.6636 135.86C29.7478 135.891 29.8249 135.938 29.89 136C30.008 136.139 30.0687 136.318 30.06 136.5V137.74C30.0749 137.831 30.0682 137.924 30.0406 138.012C30.013 138.1 29.9653 138.18 29.9011 138.246C29.837 138.312 29.7582 138.363 29.6712 138.393C29.5842 138.423 29.4913 138.432 29.4 138.42H28.4C28.2456 139.667 27.8876 140.88 27.34 142.01C26.8115 143.097 26.1051 144.087 25.25 144.94C24.4116 145.781 23.425 146.459 22.34 146.94C21.2643 147.402 20.1058 147.64 18.935 147.64C17.7643 147.64 16.6058 147.402 15.53 146.94C14.445 146.459 13.4585 145.781 12.62 144.94C11.7588 144.087 11.0457 143.097 10.51 142.01C9.94847 140.883 9.58003 139.669 9.42002 138.42H8.42002C8.33028 138.426 8.24026 138.413 8.15583 138.382C8.0714 138.351 7.99446 138.303 7.93001 138.24C7.86977 138.172 7.8237 138.093 7.7945 138.007C7.76531 137.922 7.75358 137.831 7.76002 137.74V136.5C7.7557 136.411 7.76943 136.321 7.80035 136.237C7.83126 136.153 7.87876 136.076 7.94002 136.01C8.00498 135.942 8.08468 135.889 8.17306 135.856C8.26143 135.823 8.35616 135.811 8.45002 135.82ZM19 145C19.86 145.005 20.7126 144.842 21.51 144.52C22.2902 144.201 23.0002 143.732 23.6 143.14C24.2147 142.532 24.7188 141.821 25.09 141.04C25.4977 140.208 25.7743 139.317 25.91 138.4H12.11C12.2383 139.316 12.5082 140.207 12.91 141.04C13.2777 141.821 13.7785 142.532 14.39 143.14C14.9898 143.732 15.6999 144.201 16.48 144.52C17.2809 144.842 18.1368 145.005 19 145ZM19 129.14C18.1323 129.132 17.2718 129.298 16.47 129.63C15.6881 129.95 14.9776 130.423 14.38 131.02C13.7651 131.638 13.258 132.355 12.88 133.14C12.4795 133.981 12.2098 134.878 12.08 135.8H25.91C25.7736 134.877 25.4971 133.98 25.09 133.14C24.7191 132.353 24.215 131.636 23.6 131.02C23.0042 130.425 22.2976 129.953 21.52 129.63C20.7209 129.303 19.8633 129.143 19 129.16V129.14Z" fill="#ED057D"/>
<path d="M19 111.28L29.74 103.96C29.8238 103.886 29.9288 103.841 30.04 103.83C30.04 103.83 30.11 103.91 30.11 104.08V106.33C30.0923 106.484 30.0388 106.633 29.9537 106.763C29.8687 106.893 29.7544 107.002 29.62 107.08L21.17 112.8C24.35 114.933 27.1667 116.833 29.62 118.5C29.7549 118.604 29.8758 118.725 29.98 118.86C30.0636 118.965 30.1094 119.096 30.11 119.23V121.5C30.11 121.66 30.11 121.74 30.04 121.74C29.9224 121.724 29.8116 121.675 29.72 121.6L19 114.28L16.15 116.22L15.23 116.85C14.35 117.443 12.83 118.477 10.67 119.95L8.33002 121.57C8.20322 121.657 8.0605 121.718 7.91003 121.75C7.85003 121.75 7.82003 121.61 7.82003 121.33V119.44C7.81034 119.256 7.85187 119.072 7.94002 118.91C8.07221 118.73 8.23462 118.574 8.42002 118.45L16.76 112.78L8.42002 107.09C8.23439 106.951 8.06941 106.786 7.93002 106.6C7.84365 106.441 7.80218 106.261 7.81002 106.08V104.21C7.81002 103.92 7.81002 103.77 7.90002 103.77C8.05203 103.797 8.1958 103.858 8.32003 103.95C9.48003 104.77 11.1467 105.92 13.32 107.4L19 111.28Z" fill="#ED057D"/>
<path d="M27.08 100.83L29.63 101.83C29.7582 101.871 29.8694 101.953 29.947 102.063C30.0246 102.173 30.0642 102.305 30.06 102.44V104.06C30.06 104.41 29.95 104.59 29.72 104.59C29.6336 104.6 29.5463 104.6 29.46 104.59H29.37L8.24996 95.8002H8.15996C8.05338 95.7543 7.95789 95.686 7.87996 95.6001C7.8062 95.4805 7.77451 95.3397 7.78995 95.2001V94.2001C7.77451 94.0604 7.8062 93.9197 7.87996 93.8002C7.96702 93.7159 8.06866 93.648 8.17995 93.6001H8.09996H8.20996L29.37 84.8501H29.52H29.72C29.95 84.8501 30.06 85.0301 30.06 85.3901V86.9801C30.0686 87.1232 30.0289 87.2651 29.9473 87.3829C29.8657 87.5008 29.7469 87.5878 29.61 87.6301L28.52 88.0602L27.08 88.6201V100.83ZM12.21 94.4401V94.7701C13.01 95.1101 14.06 95.5402 15.36 96.0602L15.73 96.2101L21.16 98.4302L24.51 99.7802V89.5001L12.21 94.4401Z" fill="#ED057D"/>
<path d="M8.45017 78.4797H18.1802C18.1622 77.7701 17.9513 77.0787 17.5702 76.4797C17.0154 75.615 16.2824 74.8785 15.4202 74.3197L12.9202 72.5797L12.5702 72.3397C11.6802 71.7297 11.0002 71.2398 10.5702 70.8698C10.1047 70.5245 9.67573 70.1324 9.29017 69.6997C8.83164 69.1945 8.46603 68.6122 8.21018 67.9797C7.94941 67.2858 7.81397 66.5511 7.81017 65.8098C7.79492 65.7345 7.79689 65.6566 7.81594 65.5822C7.83499 65.5077 7.87062 65.4385 7.92017 65.3798C7.97886 65.3252 8.04837 65.2837 8.12418 65.2578C8.2 65.232 8.28041 65.2224 8.36017 65.2297H9.68017C9.84125 65.2456 9.99419 65.3082 10.1202 65.4098C10.1784 65.4564 10.225 65.5158 10.2562 65.5835C10.2875 65.6512 10.3025 65.7253 10.3002 65.7998C10.3731 66.5008 10.6436 67.1665 11.0802 67.7197C11.6896 68.5286 12.4218 69.2371 13.2502 69.8197L15.6502 71.5697L16.0902 71.8698L16.4902 72.1698C17.0768 72.5765 17.5068 72.9098 17.7802 73.1698L29.7802 62.9697L30.0902 62.7598V65.9998C30.0902 66.1798 29.9702 66.3498 29.7202 66.5098L19.5802 74.9998C20.2215 76.0551 20.602 77.248 20.6902 78.4797H29.4002C29.4898 78.4748 29.5795 78.4883 29.6637 78.5193C29.748 78.5502 29.825 78.598 29.8902 78.6598C30.0084 78.7948 30.0694 78.9706 30.0602 79.1498V80.3998C30.0733 80.4899 30.0653 80.5819 30.037 80.6685C30.0086 80.755 29.9606 80.8338 29.8966 80.8987C29.8327 80.9636 29.7546 81.0128 29.6685 81.0425C29.5823 81.0722 29.4905 81.0815 29.4002 81.0697H8.40017C8.31043 81.0758 8.22042 81.063 8.13599 81.032C8.05156 81.001 7.97462 80.9525 7.91018 80.8898C7.84973 80.8241 7.80344 80.7468 7.77419 80.6625C7.74494 80.5782 7.73337 80.4888 7.74018 80.3998V79.1498C7.7337 78.9692 7.79832 78.7932 7.92017 78.6598C7.98953 78.5922 8.0731 78.5409 8.1648 78.5098C8.2565 78.4786 8.354 78.4684 8.45017 78.4797Z" fill="#ED057D"/>
</svg>
