<svg width="305" height="156" viewBox="0 0 305 156" fill="none" xmlns="http://www.w3.org/2000/svg">
<path d="M107.25 151.86C100.1 152.015 93.0995 149.8 87.34 145.56C81.47 141.077 76.6651 135.35 73.27 128.79C69.4192 121.536 66.6179 113.772 64.95 105.73C63.1687 97.5154 62.2637 89.1352 62.25 80.7299C62.265 72.0337 63.1697 63.3618 64.95 54.8498C66.6105 46.5377 69.4527 38.5062 73.39 30.9999C76.9171 24.1469 81.9536 18.1838 88.12 13.5599C94.12 9.13993 101.247 6.92992 109.5 6.92992C116.651 6.77043 123.653 8.98592 129.41 13.2298C135.277 17.713 140.079 23.4402 143.47 29.9999C147.317 37.2354 150.122 44.9788 151.8 52.9999C153.575 61.0936 154.48 69.3538 154.5 77.6399C154.477 86.2596 153.572 94.8544 151.8 103.29C150.115 111.665 147.275 119.766 143.36 127.36C139.874 134.303 134.879 140.378 128.74 145.14C122.807 149.62 115.643 151.86 107.25 151.86ZM111.07 146.01C117.07 146.01 121.91 142.97 125.59 136.89C129.27 130.81 131.937 122.9 133.59 113.16C135.295 102.748 136.124 92.2107 136.07 81.6599C136.077 73.3728 135.438 65.0978 134.16 56.9099C133.029 49.3667 131.067 41.9717 128.31 34.8599C125.683 28.2599 122.457 23.0099 118.63 19.1099C116.924 17.2616 114.853 15.7873 112.549 14.7804C110.244 13.7734 107.755 13.2557 105.24 13.2599C99.24 13.2599 94.48 16.1832 90.96 22.0299C87.44 27.8766 84.89 35.6398 83.31 45.3198C81.6753 55.7022 80.8828 66.1997 80.94 76.7098C80.9355 85.0802 81.5774 93.4383 82.86 101.71C83.9763 109.343 85.8592 116.844 88.48 124.1C90.96 130.767 94.0733 136.1 97.82 140.1C99.4846 141.966 101.527 143.457 103.811 144.474C106.095 145.491 108.57 146.011 111.07 146V146.01Z" fill="#ED057D"/>
<path d="M254.4 149.38C253.4 149.38 251.7 149.3 249.45 149.16C247.2 149.02 244.65 148.85 241.8 148.71L232.91 148.26C229.83 148.107 226.867 148.03 224.02 148.03C221.173 148.03 217.123 148.107 211.87 148.26C206.623 148.413 201.11 148.523 195.33 148.59C189.55 148.657 184.49 148.77 180.15 148.93C175.803 149.077 173.027 149.153 171.82 149.16C170.794 148.948 169.855 148.436 169.12 147.69C167.92 146.69 167.32 145.93 167.32 145.33C167.261 144.768 167.422 144.205 167.77 143.76L169.12 142.41L207.6 102.58C215.077 94.808 221.368 85.9765 226.27 76.37C231.066 67.3174 233.614 57.2442 233.7 47C233.7 39.0534 231.3 32.79 226.5 28.21C224.278 26.0095 221.643 24.2704 218.746 23.0931C215.849 21.9157 212.747 21.3233 209.62 21.35C203.547 21.3254 197.601 23.0849 192.52 26.4101C187.326 29.7233 183.004 34.2368 179.92 39.57C179.508 40.4224 178.934 41.1865 178.23 41.82C177.66 42.3792 176.898 42.7009 176.1 42.72C175.5 42.72 174.78 42.0901 173.96 40.8101C173.082 39.3527 172.651 37.6699 172.72 35.97C172.72 34.17 173.807 31.6968 175.98 28.5501C178.587 24.9411 181.653 21.687 185.1 18.87C189.308 15.384 194.009 12.5399 199.05 10.4301C204.604 8.09753 210.577 6.93004 216.6 7.00004C224.1 7.00004 230.55 8.57335 235.95 11.72C241.249 14.7592 245.548 19.2766 248.32 24.72C251.277 30.7337 252.745 37.3702 252.6 44.07C252.535 48.5018 251.814 52.8997 250.46 57.12C248.982 61.8839 247.022 66.4844 244.61 70.85C242.176 75.2919 239.351 79.5084 236.17 83.45C234.223 85.85 231.337 89.0367 227.51 93.01C223.683 96.9834 219.56 101.22 215.14 105.72C210.713 110.22 206.513 114.457 202.54 118.43C198.567 122.403 195.303 125.703 192.75 128.33C190.203 130.963 188.927 132.427 188.92 132.72C188.92 133.47 189.97 134 192.07 134.3C194.617 134.453 197.503 134.603 200.73 134.75C203.957 134.897 207.67 134.97 211.87 134.97C216.217 134.97 220.55 134.897 224.87 134.75L237.47 134.3C240.865 134.109 244.247 133.732 247.6 133.17C249.84 132.797 251.937 131.826 253.67 130.36C255.728 128.426 257.475 126.186 258.85 123.72C259.45 122.82 260.23 121.72 261.21 120.46C261.562 119.905 262.042 119.443 262.609 119.11C263.176 118.778 263.814 118.586 264.47 118.55C264.767 118.506 265.069 118.574 265.318 118.74C265.568 118.907 265.746 119.159 265.82 119.45C265.97 120.038 266.048 120.643 266.05 121.25C265.847 122.761 265.429 124.236 264.81 125.63C263.98 127.81 263.05 130.47 262 133.63C260.887 137.021 259.985 140.478 259.3 143.98C258.847 146.38 258.097 147.88 257.05 148.48C256.255 148.996 255.345 149.305 254.4 149.38Z" fill="#ED057D"/>
<path d="M262.43 127.72L259.02 125.72C275.2 97.6502 271.8 76.1103 271.76 75.9003L275.65 75.2402C275.8 76.2002 279.31 98.4402 262.43 127.72Z" fill="#ED057D"/>
<path d="M273.61 60.3999C269.61 63.0699 266.77 68.8899 266.81 75.6399C266.85 82.3899 269.72 88.1699 273.81 90.7899C277.81 88.1199 280.65 82.2999 280.61 75.5499C280.57 68.7999 277.69 62.9999 273.61 60.3999Z" fill="#ED057D"/>
<path d="M266.06 120.94L262.85 118.66C269.614 109.062 279.576 102.188 290.95 99.27L291.73 103.13L291.34 101.2L291.73 103.13C281.365 105.905 272.289 112.202 266.06 120.94Z" fill="#ED057D"/>
<path d="M304.86 94.2601C304.36 99.0801 300.49 104.26 294.49 107.33C288.49 110.4 282.03 110.55 277.82 108.14C278.32 103.32 282.19 98.14 288.19 95.07C294.19 92 300.65 91.8501 304.86 94.2601Z" fill="#ED057D"/>
<path d="M265.79 104.07C262.58 104.3 258.79 102.37 256.04 98.7999C253.29 95.2299 252.5 91.0299 253.59 87.9999C256.8 87.7599 260.59 89.6999 263.33 93.2699C266.07 96.8399 266.88 101 265.79 104.07Z" fill="#ED057D"/>
<path d="M30.2599 155.1C30.2656 155.265 30.2084 155.426 30.0999 155.55C29.9895 155.655 29.8423 155.713 29.6899 155.71H28.6899C28.6038 155.716 28.5174 155.702 28.4376 155.669C28.3578 155.636 28.2867 155.585 28.2299 155.52C28.1122 155.389 28.0512 155.216 28.0599 155.04C28.0609 154.727 27.978 154.42 27.8199 154.15C27.6578 153.86 27.4403 153.606 27.1799 153.4C26.9201 153.196 26.6299 153.034 26.3199 152.92C26.0318 152.813 25.7274 152.755 25.4199 152.75H8.3199C7.9699 152.75 7.79989 152.58 7.79989 152.25V137.78C7.79751 137.64 7.84746 137.505 7.9399 137.4C7.9818 137.348 8.03528 137.306 8.09603 137.279C8.15678 137.251 8.22312 137.238 8.28988 137.24H29.5799C29.9099 137.24 30.0699 137.42 30.0699 137.78V139.34C30.0801 139.407 30.0744 139.475 30.0534 139.539C30.0324 139.603 29.9966 139.661 29.9489 139.709C29.9012 139.757 29.8429 139.792 29.7788 139.813C29.7147 139.835 29.6466 139.84 29.5799 139.83H10.3799V150.15H25.3799C26.019 150.151 26.6502 150.291 27.2299 150.56C27.8175 150.829 28.3499 151.206 28.7999 151.67C29.2307 152.132 29.57 152.672 29.7999 153.26C30.0748 153.836 30.2313 154.462 30.2599 155.1Z" fill="#ED057D"/>
<path d="M27.0797 127.4L29.6297 128.4C29.7587 128.443 29.8702 128.527 29.9477 128.639C30.0252 128.75 30.0645 128.884 30.0597 129.02V130.64C30.0597 130.99 29.9496 131.16 29.7196 131.16H29.4597H29.3697L8.24967 122.37H8.15965C8.05383 122.327 7.9584 122.263 7.87968 122.18C7.80654 122.057 7.77496 121.913 7.78965 121.77V120.77C7.77496 120.627 7.80654 120.484 7.87968 120.36C7.96754 120.279 8.06913 120.215 8.17967 120.17H8.09965H8.20969L29.3697 111.43H29.5197H29.7196C29.9496 111.43 30.0597 111.61 30.0597 111.97V113.56C30.0678 113.702 30.0278 113.842 29.9461 113.958C29.8644 114.075 29.7458 114.16 29.6097 114.2L28.5197 114.64L27.0797 115.19V127.4ZM12.2097 121V121.33C13.0097 121.67 14.0597 122.1 15.3597 122.62L15.7297 122.77L21.1596 124.99L24.5097 126.34V116.07L12.2097 121Z" fill="#ED057D"/>
<path d="M8.27996 104.9H16.7899L7.91992 92.32C7.83685 92.1735 7.79213 92.0084 7.78991 91.84V90.2601C7.78527 90.1958 7.79452 90.1314 7.81695 90.071C7.83938 90.0106 7.87446 89.9557 7.91992 89.9101C7.9678 89.8649 8.02449 89.8301 8.08642 89.8077C8.14835 89.7853 8.21425 89.7759 8.27996 89.7801H29.5699C29.6357 89.7703 29.7028 89.7758 29.766 89.7963C29.8292 89.8168 29.8868 89.8516 29.9343 89.8981C29.9818 89.9447 30.0179 90.0016 30.0397 90.0644C30.0615 90.1272 30.0684 90.1942 30.0599 90.2601V91.8101C30.0599 92.1701 29.8999 92.3501 29.5699 92.3501H11.2499L19.9399 104.9H29.5699C29.6357 104.89 29.7028 104.896 29.766 104.916C29.8292 104.937 29.8868 104.972 29.9343 105.018C29.9818 105.065 30.0179 105.122 30.0397 105.184C30.0615 105.247 30.0684 105.314 30.0599 105.38V106.93C30.0599 107.3 29.8999 107.48 29.5699 107.48H8.27996C8.2132 107.482 8.14681 107.469 8.08605 107.441C8.0253 107.414 7.97183 107.372 7.92992 107.32C7.8342 107.213 7.78395 107.073 7.78991 106.93V105.38C7.78527 105.316 7.79452 105.251 7.81695 105.191C7.83938 105.131 7.87446 105.076 7.91992 105.03C7.9678 104.985 8.02449 104.95 8.08642 104.928C8.14835 104.905 8.21425 104.896 8.27996 104.9ZM5.05993 99.22C5.05316 99.7148 4.95132 100.204 4.75994 100.66C4.57895 101.106 4.31415 101.514 3.97991 101.86C3.6675 102.192 3.29403 102.46 2.87994 102.65C2.48295 102.839 2.04938 102.938 1.60992 102.94C1.53101 102.943 1.4525 102.928 1.37994 102.897C1.30737 102.866 1.24253 102.819 1.18993 102.76C1.13562 102.707 1.09261 102.643 1.06341 102.572C1.03421 102.502 1.01943 102.426 1.01995 102.35V101.35C1.01573 101.271 1.028 101.192 1.05602 101.118C1.08405 101.044 1.12717 100.976 1.18267 100.92C1.23818 100.864 1.30485 100.819 1.37841 100.79C1.45197 100.761 1.53081 100.747 1.60992 100.75C1.78764 100.752 1.9637 100.716 2.12597 100.643C2.28824 100.571 2.43289 100.464 2.54992 100.33C2.78955 100.004 2.91882 99.6097 2.91882 99.205C2.91882 98.8003 2.78955 98.4062 2.54992 98.08C2.44952 97.95 2.32075 97.8446 2.17346 97.7718C2.02616 97.699 1.86424 97.6609 1.69994 97.6601C1.21994 97.6601 0.979913 97.46 0.979913 97.07V96.2C0.974411 96.0104 1.02298 95.8232 1.11993 95.6601C1.16896 95.5871 1.23642 95.5283 1.31542 95.4897C1.39443 95.4511 1.48221 95.4339 1.56994 95.44C2.01308 95.4383 2.45077 95.5375 2.84991 95.7301C3.26905 95.9259 3.64867 96.1971 3.9699 96.5301C4.29839 96.8867 4.55932 97.3001 4.73992 97.7501C4.9386 98.2154 5.0472 98.7142 5.05993 99.22Z" fill="#ED057D"/>
<path d="M8.45002 73.8202H9.45002C9.6045 72.5564 9.96601 71.3267 10.52 70.1803C11.0461 69.0667 11.7599 68.0519 12.63 67.1803C13.4721 66.3352 14.4662 65.6567 15.56 65.1803C16.6427 64.7249 17.8054 64.4902 18.98 64.4902C20.1546 64.4902 21.3174 64.7249 22.4 65.1803C23.4864 65.6595 24.4734 66.3378 25.31 67.1803C26.1802 68.0497 26.8909 69.0651 27.41 70.1803C27.9647 71.325 28.3198 72.5559 28.46 73.8202H29.4C29.4897 73.8153 29.5793 73.8288 29.6636 73.8597C29.7478 73.8907 29.8249 73.9385 29.89 74.0002C30.008 74.1394 30.0687 74.3181 30.06 74.5002V75.7402C30.0749 75.8311 30.0683 75.9242 30.0407 76.0121C30.0131 76.1 29.9653 76.1802 29.9011 76.2463C29.837 76.3124 29.7582 76.3626 29.6712 76.3928C29.5842 76.423 29.4913 76.4324 29.4 76.4203H28.4C28.2457 77.6669 27.8876 78.8797 27.34 80.0103C26.8115 81.0966 26.1051 82.0868 25.25 82.9402C24.4116 83.7805 23.425 84.4586 22.34 84.9402C21.2643 85.4021 20.1057 85.6404 18.935 85.6404C17.7643 85.6404 16.6058 85.4021 15.53 84.9402C14.4451 84.4586 13.4584 83.7805 12.62 82.9402C11.7588 82.0875 11.0457 81.0973 10.51 80.0103C9.94847 78.883 9.58 77.6695 9.41999 76.4203H8.41999C8.33025 76.4264 8.24026 76.4135 8.15583 76.3824C8.0714 76.3514 7.99444 76.303 7.93 76.2402C7.86975 76.1724 7.8237 76.0933 7.7945 76.0074C7.76531 75.9216 7.75358 75.8307 7.76002 75.7402V74.5002C7.7557 74.4107 7.76938 74.3211 7.8003 74.2369C7.83122 74.1528 7.87874 74.0757 7.94001 74.0103C8.00497 73.9419 8.08466 73.8892 8.17304 73.8563C8.26142 73.8234 8.35616 73.811 8.45002 73.8202ZM19 83.0002C19.86 83.0053 20.7126 82.8423 21.51 82.5203C22.2902 82.2012 23.0002 81.7324 23.6 81.1403C24.2146 80.5319 24.7188 79.8214 25.09 79.0403C25.4977 78.2078 25.7742 77.3172 25.91 76.4003H12.11C12.2383 77.3164 12.5082 78.207 12.91 79.0403C13.2776 79.8209 13.7785 80.5315 14.39 81.1403C14.9898 81.7324 15.6998 82.2012 16.48 82.5203C17.2809 82.8423 18.1368 83.0053 19 83.0002ZM19 67.1403C18.1323 67.1317 17.2718 67.2984 16.47 67.6302C15.688 67.9504 14.9776 68.4229 14.38 69.0203C13.7651 69.6381 13.258 70.3547 12.88 71.1403C12.4795 71.981 12.2098 72.8781 12.08 73.8003H25.91C25.7736 72.8771 25.4971 71.98 25.09 71.1403C24.7191 70.3531 24.215 69.6359 23.6 69.0203C23.0042 68.4254 22.2976 67.9532 21.52 67.6302C20.7209 67.3034 19.8633 67.1434 19 67.1603V67.1403Z" fill="#ED057D"/>
<path d="M19 49.28L29.74 41.96C29.8238 41.8861 29.9288 41.8406 30.04 41.83C30.04 41.83 30.11 41.91 30.11 42.08V44.33C30.0923 44.4845 30.0388 44.6327 29.9537 44.7629C29.8686 44.8931 29.7544 45.0017 29.62 45.08L21.17 50.8C24.35 52.9334 27.1667 54.8333 29.62 56.5C29.7549 56.6042 29.8758 56.7251 29.98 56.86C30.0636 56.9653 30.1093 57.0956 30.11 57.23V59.5C30.11 59.66 30.11 59.74 30.04 59.74C29.9224 59.7239 29.8116 59.6754 29.72 59.6L19 52.28L16.15 54.22L15.23 54.85C14.35 55.4433 12.83 56.4766 10.67 57.95L8.33004 59.5699C8.20323 59.657 8.06047 59.7182 7.91 59.75C7.85 59.75 7.82003 59.61 7.82003 59.33V57.4399C7.81034 57.2556 7.85187 57.0722 7.94002 56.91C8.07221 56.7301 8.2346 56.5744 8.42001 56.45L16.76 50.78L8.42001 45.09C8.23437 44.9506 8.06941 44.7856 7.93002 44.6C7.84365 44.4407 7.80218 44.261 7.81002 44.08V42.21C7.81002 41.92 7.81005 41.77 7.90005 41.77C8.05206 41.7968 8.1958 41.8583 8.32003 41.95C9.48003 42.77 11.1467 43.92 13.32 45.4L19 49.28Z" fill="#ED057D"/>
<path d="M27.08 38.8301L29.63 39.8301C29.7582 39.8713 29.8695 39.9532 29.9471 40.0632C30.0246 40.1733 30.0643 40.3055 30.06 40.4401V42.0602C30.06 42.4102 29.9499 42.5901 29.7199 42.5901C29.6336 42.6003 29.5464 42.6003 29.46 42.5901H29.37L8.24997 33.8002H8.15994C8.05336 33.7543 7.95791 33.686 7.87997 33.6001C7.80621 33.4805 7.77451 33.3397 7.78995 33.2001V32.2001C7.77451 32.0604 7.80621 31.9197 7.87997 31.8002C7.96703 31.7159 8.06867 31.648 8.17996 31.6001H8.09995H8.20999L29.37 22.8501H29.52H29.7199C29.9499 22.8501 30.06 23.0301 30.06 23.3901V24.9801C30.0686 25.1232 30.029 25.2651 29.9474 25.3829C29.8658 25.5008 29.7469 25.5878 29.61 25.6301L28.52 26.0602L27.08 26.6201V38.8301ZM12.21 32.4401V32.7701C13.01 33.1101 14.06 33.5402 15.36 34.0602L15.7299 34.2101L21.1599 36.4302L24.51 37.7802V27.5001L12.21 32.4401Z" fill="#ED057D"/>
<path d="M8.45016 16.4797H18.1801C18.1621 15.7701 17.9513 15.0787 17.5702 14.4797C17.0153 13.615 16.2823 12.8785 15.4201 12.3197L12.9201 10.5797L12.5702 10.3397C11.6802 9.72972 11.0002 9.23975 10.5202 8.86975C10.0546 8.52452 9.6257 8.13242 9.24014 7.69971C8.78161 7.19448 8.41597 6.61222 8.16012 5.97974C7.89935 5.28579 7.76395 4.55113 7.76015 3.80981C7.7449 3.73448 7.74684 3.65661 7.76589 3.58215C7.78494 3.50769 7.82059 3.43851 7.87014 3.37976C7.92882 3.32525 7.99837 3.28366 8.07418 3.25781C8.14999 3.23197 8.23038 3.22242 8.31014 3.22974H9.63015C9.79123 3.24555 9.94417 3.30817 10.0702 3.40979C10.1284 3.45635 10.175 3.5158 10.2062 3.5835C10.2374 3.65119 10.2525 3.72528 10.2501 3.7998C10.323 4.50077 10.5936 5.16653 11.0302 5.71973C11.6396 6.52861 12.3717 7.23715 13.2002 7.8197L15.6001 9.5697L16.0401 9.86975L16.4401 10.1698C17.0268 10.5765 17.4568 10.9098 17.7301 11.1698L29.7301 0.969727L30.0401 0.759766V3.99976C30.0401 4.17976 29.9201 4.34977 29.6701 4.50977L19.5802 12.9998C20.2214 14.0551 20.6019 15.248 20.6901 16.4797H29.4002C29.4898 16.4748 29.5795 16.4883 29.6637 16.5193C29.748 16.5502 29.825 16.598 29.8902 16.6598C30.0084 16.7948 30.0694 16.9706 30.0601 17.1498V18.3998C30.0733 18.4899 30.0653 18.5819 30.0369 18.6685C30.0086 18.755 29.9606 18.8338 29.8966 18.8987C29.8327 18.9636 29.7546 19.0128 29.6685 19.0425C29.5823 19.0722 29.4905 19.0815 29.4002 19.0697H8.45016C8.36042 19.0758 8.27037 19.063 8.18594 19.032C8.10151 19.001 8.02461 18.9525 7.96017 18.8898C7.89972 18.8241 7.85343 18.7468 7.82418 18.6625C7.79493 18.5782 7.78331 18.4888 7.79012 18.3998V17.1498C7.78364 16.9692 7.84826 16.7932 7.97012 16.6598C8.03374 16.5988 8.10916 16.5513 8.19167 16.5204C8.27419 16.4894 8.36213 16.4756 8.45016 16.4797Z" fill="#ED057D"/>
</svg>
