<svg width="267" height="198" viewBox="0 0 267 198" fill="none" xmlns="http://www.w3.org/2000/svg">
<path d="M115.25 191.86C108.1 192.015 101.099 189.8 95.34 185.56C89.47 181.077 84.6651 175.35 81.27 168.79C77.4192 161.536 74.6179 153.772 72.95 145.73C71.1687 137.515 70.2637 129.135 70.25 120.73C70.265 112.034 71.1697 103.362 72.95 94.8498C74.6104 86.5377 77.4527 78.5062 81.39 70.9999C84.9171 64.1469 89.9536 58.1838 96.12 53.5599C102.12 49.1399 109.247 46.9299 117.5 46.9299C124.651 46.7704 131.653 48.9859 137.41 53.2298C143.276 57.7102 148.078 63.4338 151.47 69.9899C155.317 77.2254 158.122 84.9688 159.8 92.9899C161.575 101.084 162.48 109.344 162.5 117.63C162.477 126.25 161.572 134.844 159.8 143.28C158.115 151.655 155.275 159.756 151.36 167.35C147.874 174.293 142.879 180.368 136.74 185.13C130.807 189.617 123.643 191.86 115.25 191.86ZM119.07 186.01C125.07 186.01 129.91 182.97 133.59 176.89C137.27 170.81 139.937 162.9 141.59 153.16C143.295 142.748 144.124 132.211 144.07 121.66C144.077 113.373 143.438 105.098 142.16 96.9099C141.029 89.3667 139.067 81.9717 136.31 74.8599C133.683 68.2599 130.457 63.0099 126.63 59.1099C124.924 57.2616 122.853 55.7873 120.549 54.7804C118.244 53.7734 115.755 53.2557 113.24 53.2599C107.24 53.2599 102.48 56.1832 98.96 62.0299C95.44 67.8766 92.8901 75.6398 91.3101 85.3198C89.6754 95.7022 88.8827 106.2 88.9399 116.71C88.9355 125.08 89.5774 133.438 90.86 141.71C91.9763 149.343 93.8592 156.844 96.48 164.1C98.96 170.767 102.073 176.1 105.82 180.1C107.485 181.966 109.527 183.457 111.811 184.474C114.095 185.491 116.569 186.011 119.07 186V186.01Z" fill="#ED057D"/>
<path d="M204.35 197.26C200.622 197.211 196.92 196.642 193.35 195.57C189.914 194.628 186.593 193.307 183.45 191.63C180.75 190.13 179.4 188.78 179.4 187.58C179.594 186.099 180.22 184.708 181.2 183.58C182.391 181.943 183.789 180.467 185.36 179.19C186.94 177.92 188.25 177.28 189.3 177.28C190.902 177.266 192.47 177.736 193.8 178.63C195.133 179.53 196.56 180.58 198.08 181.78C200.192 183.545 202.45 185.128 204.83 186.51C207.383 188.01 210.756 188.76 214.95 188.76C220.487 188.762 225.925 187.284 230.7 184.48C235.687 181.597 239.899 177.544 242.97 172.67C246.182 167.675 247.862 161.848 247.8 155.91C247.818 150.156 246.83 144.443 244.88 139.03C243.122 133.93 240.15 129.334 236.22 125.64C232.387 122.12 227.546 120.36 221.7 120.36C219.48 120.407 217.266 120.594 215.07 120.92C212.242 121.312 209.521 122.267 207.07 123.73C206.67 123.952 206.217 124.06 205.759 124.04C205.302 124.021 204.859 123.875 204.48 123.62C203.48 123.1 203.09 122.46 203.24 121.71C203.756 119.91 204.68 118.254 205.94 116.87C207.053 115.654 208.418 114.695 209.94 114.06C211.273 113.46 213.45 112.297 216.47 110.57C219.806 108.621 223.001 106.439 226.03 104.04C229.345 101.484 232.263 98.451 234.69 95.0399C237.045 91.8085 238.307 87.9088 238.29 83.9099C238.338 77.9219 236.205 72.1209 232.29 67.5899C230.468 65.3269 228.151 63.5121 225.518 62.2847C222.884 61.0573 220.005 60.4501 217.1 60.5099C211.247 60.5099 206.56 61.5099 203.04 63.5099C199.813 65.2945 196.95 67.669 194.6 70.5099C192.808 72.6882 191.228 75.0321 189.88 77.5099C188.88 79.5099 187.88 80.5099 186.95 80.5099C186.06 80.3508 185.259 79.8704 184.7 79.1599C184.288 78.7905 183.956 78.3409 183.724 77.8389C183.492 77.3368 183.365 76.7928 183.35 76.2399C183.35 74.2866 184.177 71.6965 185.83 68.4699C187.837 64.7893 190.462 61.4811 193.59 58.6898C197.546 55.1157 202.121 52.2929 207.09 50.3599C212.563 48.1132 219.127 46.9899 226.78 46.9899C231.656 46.9752 236.468 48.0911 240.84 50.2499C245.147 52.3299 248.889 55.4171 251.75 59.2499C254.617 63.1178 256.122 67.8263 256.03 72.6399C255.98 76.4965 255.217 80.3106 253.78 83.8899C252.035 88.1733 249.516 92.0987 246.35 95.4699C242.262 99.7967 237.542 103.479 232.35 106.39C231.9 106.54 231.68 106.8 231.68 107.17C231.68 107.54 231.98 107.74 232.58 107.74C238.698 107.647 244.713 109.325 249.9 112.57C254.978 115.778 259.191 120.184 262.17 125.4C265.253 130.77 266.845 136.868 266.78 143.06C266.908 150.931 265.051 158.707 261.38 165.67C257.817 172.306 252.913 178.129 246.98 182.77C240.948 187.518 234.132 191.173 226.84 193.57C219.591 196.004 211.996 197.251 204.35 197.26Z" fill="#ED057D"/>
<path d="M226.06 54.7599C224.19 37.8999 198.47 3.91983 198.21 3.57983L200.53 1.81982C201.61 3.23982 226.99 36.8198 228.95 54.4398L226.06 54.7599Z" fill="#ED057D"/>
<path d="M224.9 43.4301L222.77 42.6C215.04 39.6 207.42 31.6 202.41 21.16C199.533 15.346 197.792 9.03647 197.28 2.56995L197.13 0.290039L199.26 1.12C206.99 4.12 214.61 12.1201 219.62 22.5601C222.497 28.3741 224.238 34.6835 224.75 41.15L224.9 43.4301ZM205 19.9C209.14 28.48 215.34 35.51 221.58 38.85C220.84 33.639 219.284 28.577 216.97 23.85C212.83 15.26 206.63 8.22998 200.39 4.84998C201.126 10.0618 202.682 15.1244 205 19.85V19.9Z" fill="#ED057D"/>
<path d="M228 49.9998H225.09C225.09 46.4098 226.46 41.9098 228.48 36.2598L231.22 37.2598C229.55 41.8698 228 46.6298 228 49.9998Z" fill="#ED057D"/>
<path d="M228.06 41.6803L227.84 39.1503C227.533 34.439 228.137 29.7127 229.62 25.2302C232.18 17.0102 236.92 9.82024 242.29 6.00024L244.36 4.53027L244.58 7.0603C244.887 11.7716 244.282 16.4977 242.8 20.9802C240.24 29.2002 235.5 36.3902 230.13 40.2102L228.06 41.6803ZM241.76 10.2102C237.85 13.9202 234.38 19.7502 232.39 26.1002C231.358 29.3043 230.776 32.6361 230.66 36.0002C234.57 32.2902 238.04 26.4602 240.03 20.1102C241.062 16.9061 241.644 13.5743 241.76 10.2102Z" fill="#ED057D"/>
<path d="M27.0801 167.4L29.6301 168.4C29.7591 168.443 29.8707 168.527 29.9482 168.639C30.0257 168.75 30.065 168.884 30.0602 169.02V170.64C30.0602 170.99 29.9501 171.16 29.7201 171.16H29.4601H29.3701L8.2501 162.37H8.16014C8.05433 162.327 7.95883 162.263 7.88011 162.18C7.80697 162.057 7.77545 161.913 7.79014 161.77V160.77C7.77545 160.627 7.80697 160.484 7.88011 160.36C7.96797 160.279 8.06962 160.215 8.18016 160.17H8.10008H8.21006L29.3701 151.43H29.5201H29.7201C29.9501 151.43 30.0602 151.61 30.0602 151.97V153.56C30.0683 153.702 30.0282 153.842 29.9465 153.958C29.8648 154.075 29.7463 154.16 29.6101 154.2L28.5201 154.64L27.0801 155.19V167.4ZM12.2101 161.01V161.34C13.0101 161.68 14.0601 162.11 15.3601 162.63L15.7301 162.78L21.1601 165L24.5101 166.35V156.08L12.2101 161.01Z" fill="#ED057D"/>
<path d="M8.27996 144.9H16.79L7.91998 132.32C7.83692 132.174 7.7922 132.008 7.78997 131.84V130.26C7.78533 130.196 7.79452 130.131 7.81695 130.071C7.83938 130.011 7.87452 129.956 7.91998 129.91C7.96786 129.865 8.02443 129.83 8.08636 129.808C8.14829 129.785 8.21425 129.776 8.27996 129.78H29.5699C29.6356 129.77 29.7028 129.776 29.766 129.796C29.8293 129.817 29.8869 129.852 29.9344 129.898C29.9819 129.945 30.0178 130.002 30.0396 130.064C30.0614 130.127 30.0684 130.194 30.06 130.26V131.81C30.06 132.17 29.8999 132.35 29.5699 132.35H11.2499L19.9399 144.9H29.5699C29.6356 144.89 29.7028 144.896 29.766 144.916C29.8293 144.937 29.8869 144.972 29.9344 145.018C29.9819 145.065 30.0178 145.122 30.0396 145.184C30.0614 145.247 30.0684 145.314 30.06 145.38V146.93C30.06 147.3 29.8999 147.48 29.5699 147.48H8.27996C8.2132 147.482 8.14674 147.469 8.08599 147.441C8.02524 147.414 7.97189 147.372 7.92999 147.32C7.83426 147.213 7.78401 147.073 7.78997 146.93V145.38C7.78533 145.316 7.79452 145.251 7.81695 145.191C7.83938 145.131 7.87452 145.076 7.91998 145.03C7.96786 144.985 8.02443 144.95 8.08636 144.928C8.14829 144.905 8.21425 144.896 8.27996 144.9ZM5.05999 139.22C5.05322 139.715 4.95132 140.204 4.75994 140.66C4.57895 141.106 4.31415 141.514 3.97991 141.86C3.6675 142.192 3.29403 142.46 2.87994 142.65C2.48295 142.839 2.04938 142.938 1.60992 142.94C1.53101 142.943 1.4525 142.928 1.37994 142.897C1.30737 142.866 1.24247 142.819 1.18987 142.76C1.13556 142.707 1.09261 142.643 1.06341 142.572C1.03421 142.502 1.01943 142.426 1.01995 142.35V141.35C1.01573 141.271 1.02806 141.192 1.05608 141.118C1.08411 141.044 1.12717 140.976 1.18267 140.92C1.23818 140.864 1.30492 140.819 1.37847 140.79C1.45203 140.761 1.53081 140.747 1.60992 140.75C1.78764 140.752 1.96376 140.716 2.12603 140.643C2.28831 140.571 2.43295 140.464 2.54998 140.33C2.78961 140.004 2.91876 139.61 2.91876 139.205C2.91876 138.8 2.78961 138.406 2.54998 138.08C2.44958 137.95 2.32081 137.845 2.17352 137.772C2.02622 137.699 1.86418 137.661 1.69988 137.66C1.21988 137.66 0.979913 137.46 0.979913 137.07V136.2C0.974411 136.01 1.02298 135.823 1.11993 135.66C1.16896 135.587 1.23635 135.528 1.31536 135.49C1.39437 135.451 1.48215 135.434 1.56988 135.44C2.01302 135.438 2.45077 135.538 2.84991 135.73C3.26905 135.926 3.64867 136.197 3.9699 136.53C4.29839 136.887 4.55932 137.3 4.73992 137.75C4.9386 138.215 5.04726 138.714 5.05999 139.22Z" fill="#ED057D"/>
<path d="M8.44971 113.82H9.44971C9.60419 112.556 9.96576 111.327 10.5198 110.18C11.0459 109.067 11.7596 108.052 12.6298 107.18C13.4719 106.335 14.466 105.657 15.5598 105.18C16.6425 104.725 17.8052 104.49 18.9797 104.49C20.1543 104.49 21.3171 104.725 22.3998 105.18C23.4861 105.659 24.4732 106.338 25.3098 107.18C26.18 108.05 26.8907 109.065 27.4098 110.18C27.9472 111.328 28.2854 112.559 28.4098 113.82H29.3497C29.4394 113.815 29.529 113.829 29.6133 113.86C29.6975 113.891 29.7746 113.938 29.8397 114C29.9577 114.139 30.0185 114.318 30.0098 114.5V115.74C30.0246 115.831 30.018 115.924 29.9904 116.012C29.9628 116.1 29.915 116.18 29.8508 116.246C29.7867 116.312 29.708 116.363 29.621 116.393C29.534 116.423 29.441 116.432 29.3497 116.42H28.3497C28.1954 117.667 27.8373 118.88 27.2898 120.01C26.7613 121.097 26.0548 122.087 25.1997 122.94C24.3613 123.781 23.3748 124.459 22.2898 124.94C21.214 125.402 20.0555 125.64 18.8848 125.64C17.714 125.64 16.5555 125.402 15.4797 124.94C14.3948 124.459 13.4081 123.781 12.5697 122.94C11.7085 122.087 10.9954 121.097 10.4597 120.01C9.89817 118.883 9.52976 117.669 9.36975 116.42H8.36975C8.28001 116.426 8.19002 116.413 8.10559 116.382C8.02116 116.351 7.9442 116.303 7.87976 116.24C7.81951 116.172 7.77346 116.093 7.74426 116.007C7.71507 115.922 7.70328 115.831 7.70972 115.74V114.5C7.70541 114.411 7.7192 114.321 7.75012 114.237C7.78104 114.153 7.82851 114.076 7.88977 114.01C7.95991 113.934 8.04784 113.877 8.14563 113.844C8.24343 113.811 8.34793 113.803 8.44971 113.82ZM18.9497 123.02C19.8097 123.025 20.6623 122.862 21.4597 122.54C22.2399 122.221 22.95 121.752 23.5498 121.16C24.1644 120.552 24.6686 119.841 25.0398 119.06C25.4475 118.228 25.724 117.337 25.8597 116.42H12.0598C12.1881 117.336 12.4579 118.227 12.8597 119.06C13.2274 119.841 13.7282 120.552 14.3397 121.16C14.9395 121.752 15.6497 122.221 16.4298 122.54C17.2477 122.862 18.1211 123.018 18.9998 123L18.9497 123.02ZM18.9497 107.16C18.082 107.152 17.2216 107.318 16.4198 107.65C15.6378 107.97 14.9273 108.443 14.3297 109.04C13.7148 109.658 13.2077 110.375 12.8297 111.16C12.4292 112.001 12.1595 112.898 12.0298 113.82H25.8597C25.7234 112.897 25.4469 112 25.0398 111.16C24.6688 110.373 24.1648 109.656 23.5498 109.04C22.954 108.445 22.2473 107.973 21.4697 107.65C20.6875 107.323 19.8476 107.157 18.9998 107.16H18.9497Z" fill="#ED057D"/>
<path d="M19 89.28L29.74 81.96C29.8238 81.8861 29.9288 81.8406 30.04 81.83C30.04 81.83 30.1099 81.91 30.1099 82.08V84.33C30.0922 84.4845 30.0388 84.6327 29.9537 84.7629C29.8686 84.8931 29.7543 85.0017 29.62 85.08L21.17 90.8C24.35 92.9334 27.1666 94.8333 29.62 96.5C29.7548 96.6042 29.8758 96.7251 29.9799 96.86C30.0635 96.9653 30.1093 97.0956 30.1099 97.23V99.5C30.1099 99.66 30.11 99.74 30.04 99.74C29.9224 99.7239 29.8116 99.6754 29.7199 99.6L18.9799 92.28L16.13 94.22L15.2099 94.85C14.3299 95.4433 12.81 96.4766 10.65 97.95L8.31002 99.5699C8.18321 99.657 8.04045 99.7182 7.88998 99.75C7.82998 99.75 7.80001 99.61 7.80001 99.33V97.4399C7.79032 97.2556 7.83185 97.0722 7.92001 96.91C8.05219 96.7301 8.21458 96.5744 8.39999 96.45L16.74 90.78L8.39999 85.09C8.21435 84.9506 8.04939 84.7856 7.91 84.6C7.82363 84.4407 7.78216 84.261 7.79 84.08V82.21C7.79 81.92 7.78997 81.77 7.87997 81.77C8.03198 81.7968 8.17578 81.8583 8.30001 81.95C9.46001 82.77 11.1267 83.92 13.3 85.4L19 89.28Z" fill="#ED057D"/>
<path d="M27.0799 78.8301L29.6299 79.8301C29.7581 79.8713 29.8694 79.9532 29.9469 80.0632C30.0245 80.1733 30.0643 80.3055 30.06 80.4401V82.0602C30.06 82.4102 29.9499 82.5901 29.7199 82.5901C29.6335 82.6003 29.5462 82.6003 29.4599 82.5901H29.3699L8.24991 73.8002H8.15995C8.05337 73.7543 7.95785 73.686 7.87992 73.6001C7.80616 73.4805 7.77451 73.3397 7.78995 73.2001V72.2001C7.77451 72.0604 7.80616 71.9197 7.87992 71.8002C7.96697 71.7159 8.06867 71.648 8.17997 71.6001H8.09989H8.20987L29.3699 62.8501H29.5199H29.7199C29.9499 62.8501 30.06 63.0301 30.06 63.3901V64.9801C30.0686 65.1232 30.0289 65.2651 29.9473 65.3829C29.8657 65.5008 29.7469 65.5878 29.6099 65.6301L28.5199 66.0602L27.0799 66.6201V78.8301ZM12.2099 72.4401V72.7701C13.0099 73.1101 14.0599 73.5402 15.3599 74.0602L15.7299 74.2101L21.1599 76.4302L24.5099 77.7802V67.5001L12.2099 72.4401Z" fill="#ED057D"/>
<path d="M8.4499 56.4797H18.18C18.162 55.7701 17.951 55.0787 17.5699 54.4797C17.0151 53.615 16.2822 52.8785 15.42 52.3197L12.92 50.5797L12.5699 50.3397C11.6799 49.7297 10.9999 49.2398 10.5699 48.8698C10.1044 48.5245 9.67555 48.1324 9.28999 47.6997C8.83146 47.1945 8.46576 46.6122 8.20991 45.9797C7.94914 45.2858 7.8138 44.5511 7.81001 43.8098C7.79476 43.7345 7.7967 43.6566 7.81575 43.5822C7.8348 43.5077 7.87044 43.4385 7.92 43.3798C7.97868 43.3252 8.04816 43.2837 8.12398 43.2578C8.19979 43.232 8.28017 43.2224 8.35994 43.2297H9.68001C9.84109 43.2456 9.99397 43.3082 10.1199 43.4098C10.1782 43.4564 10.2248 43.5158 10.2561 43.5835C10.2873 43.6512 10.3023 43.7253 10.3 43.7998C10.3729 44.5008 10.6433 45.1665 11.0799 45.7197C11.6893 46.5286 12.4215 47.2371 13.25 47.8197L15.65 49.5697L16.0899 49.8698L16.4899 50.1698C17.0766 50.5765 17.5066 50.9098 17.78 51.1698L29.78 40.9697L30.0899 40.7598V43.9998C30.0899 44.1798 29.9699 44.3498 29.7199 44.5098L19.6099 52.9597C20.2512 54.015 20.6317 55.208 20.7199 56.4397H29.43C29.5196 56.4348 29.6093 56.4483 29.6936 56.4792C29.7778 56.5102 29.8549 56.558 29.92 56.6198C30.0382 56.7548 30.0991 56.9305 30.0899 57.1097V58.3597C30.103 58.4499 30.0951 58.5418 30.0667 58.6284C30.0384 58.715 29.9904 58.7939 29.9265 58.8588C29.8625 58.9237 29.7845 58.9729 29.6983 59.0026C29.6122 59.0322 29.5203 59.0415 29.43 59.0298H8.43001C8.34027 59.0359 8.25015 59.023 8.16572 58.9919C8.08129 58.9609 8.00433 58.9125 7.93989 58.8497C7.87944 58.7841 7.83315 58.7067 7.80391 58.6224C7.77466 58.5381 7.76316 58.4487 7.76997 58.3597V57.1097C7.76349 56.9291 7.82805 56.7532 7.9499 56.6198C8.01915 56.5633 8.09935 56.5218 8.18538 56.4977C8.2714 56.4736 8.36141 56.4675 8.4499 56.4797Z" fill="#ED057D"/>
</svg>
