<svg width="273" height="196" viewBox="0 0 273 196" fill="none" xmlns="http://www.w3.org/2000/svg">
<path d="M111.13 181.86C103.977 182.014 96.9738 179.799 91.2099 175.56C85.3458 171.073 80.5449 165.347 77.1499 158.79C73.2991 151.536 70.4978 143.772 68.8299 135.73C67.0486 127.516 66.1435 119.135 66.1299 110.73C66.1449 102.034 67.0496 93.3622 68.8299 84.8502C70.4916 76.5398 73.3302 68.5088 77.2599 61.0001C80.7974 54.1594 85.8365 48.2077 91.9999 43.5902C97.9999 39.1702 105.127 36.96 113.38 36.96C120.53 36.8021 127.532 39.0175 133.29 43.2601C139.151 47.7373 143.952 53.4533 147.35 60.0001C151.193 67.22 153.997 74.9462 155.68 82.95C157.455 91.0438 158.36 99.3041 158.38 107.59C158.357 116.21 157.452 124.805 155.68 133.24C153.991 141.614 151.15 149.715 147.24 157.31C143.751 164.254 138.752 170.329 132.61 175.09C126.69 179.604 119.53 181.86 111.13 181.86ZM115 176C121 176 125.837 172.96 129.51 166.88C133.183 160.8 135.85 152.89 137.51 143.15C139.215 132.738 140.044 122.201 139.99 111.65C139.999 103.362 139.357 95.087 138.07 86.9C136.945 79.3718 134.982 71.9928 132.22 64.9C130.071 59.0617 126.784 53.7083 122.55 49.15C120.844 47.3022 118.773 45.8283 116.468 44.8214C114.163 43.8145 111.675 43.2966 109.16 43.3001C103.16 43.3001 98.3965 46.2235 94.8699 52.0702C91.3432 57.9168 88.7932 65.6802 87.2199 75.3602C85.5938 85.7434 84.8046 96.2404 84.8599 106.75C84.8571 115.12 85.4956 123.478 86.7699 131.75C87.8894 139.384 89.7756 146.885 92.3999 154.14C94.8732 160.807 97.9865 166.14 101.74 170.14C103.408 172.001 105.454 173.486 107.74 174.496C110.026 175.506 112.501 176.019 115 176Z" fill="#ED057D"/>
<path d="M211.25 179.38C210.349 179.343 209.466 179.115 208.66 178.71C208.213 178.532 207.833 178.22 207.572 177.817C207.31 177.414 207.18 176.94 207.2 176.46C207.218 176.059 207.357 175.673 207.598 175.352C207.838 175.031 208.17 174.79 208.55 174.66C209.4 174.226 210.31 173.923 211.25 173.76C218.303 172.86 222.953 171.36 225.2 169.26C226.34 168.158 227.231 166.825 227.814 165.35C228.397 163.876 228.658 162.293 228.58 160.71V139.78C228.58 139.03 228.05 138.51 227 138.21C226.411 138.019 225.809 137.868 225.2 137.76C219.053 137.76 213.316 137.87 207.99 138.09C202.663 138.31 197.076 138.536 191.23 138.77C185.376 138.99 178.473 139.176 170.52 139.33C170.215 139.326 169.915 139.253 169.643 139.116C169.371 138.98 169.134 138.782 168.95 138.54C168.557 138.149 168.316 137.632 168.27 137.08C168.261 136.958 168.277 136.837 168.317 136.721C168.356 136.606 168.419 136.5 168.5 136.41C170.45 134.01 171.88 132.32 172.77 131.34C173.66 130.36 174.42 129.54 175.02 128.87C175.835 127.921 176.587 126.919 177.27 125.87L236.67 40.5999C237.663 39.1368 238.756 37.7433 239.94 36.4297C241.206 35.0097 242.366 34.2998 243.42 34.2998H248.15C248.903 34.2998 248.753 35.3497 247.7 37.4497L187 124.71C186.814 125.106 186.663 125.517 186.55 125.94C186.4 126.47 186.55 126.73 187 126.73H225.93C226.568 126.719 227.189 126.525 227.72 126.17C227.966 126.059 228.179 125.887 228.338 125.67C228.498 125.452 228.598 125.197 228.63 124.93V90.0598C228.571 88.923 228.682 87.7836 228.96 86.6797C229.308 85.9639 229.91 85.4041 230.65 85.1099C232.895 83.9113 235.331 83.1094 237.85 82.7397C239.637 82.4421 241.44 82.255 243.25 82.1797C244.903 82.1797 245.876 83.3798 246.17 85.7798C246.529 89.368 246.683 92.974 246.63 96.5798V125.58C246.63 126.48 247 126.93 247.75 126.93C249.4 127.08 250.97 127.15 252.47 127.15H256.75C258.85 127.15 260.99 127.15 263.16 127.04C265.33 126.93 267.62 126.85 270.03 126.7C271.67 126.7 272.5 127.3 272.5 128.5C272.467 129.837 272.124 131.147 271.5 132.33C270.916 133.53 270.198 134.661 269.36 135.7C268.61 136.6 268.08 137.05 267.79 137.05C266.13 137.05 264.33 137.05 262.39 136.94C260.45 136.83 258.56 136.83 256.76 136.83C255.41 136.83 254.13 136.83 252.94 136.94C251.75 137.05 250.68 137.13 249.79 137.28C249.131 137.447 248.489 137.671 247.87 137.95C247.2 138.25 246.87 138.48 246.87 138.63V159.78C246.87 164.133 247.87 167.133 249.87 168.78C251.87 170.426 255.87 172.093 261.87 173.78C262.839 173.959 263.759 174.34 264.57 174.9C264.944 175.093 265.263 175.377 265.498 175.727C265.732 176.077 265.874 176.48 265.91 176.9C265.888 177.239 265.786 177.568 265.612 177.86C265.438 178.152 265.197 178.399 264.91 178.58C264.238 179.109 263.404 179.388 262.55 179.37C258.35 179.37 255.016 179.256 252.55 179.03C250.083 178.803 247.793 178.616 245.68 178.47C243.58 178.32 240.74 178.25 237.13 178.25C233.52 178.25 230.35 178.32 228.02 178.47C225.69 178.62 223.33 178.81 220.93 179.03C218.53 179.25 215.3 179.38 211.25 179.38Z" fill="#ED057D"/>
<path d="M90.8701 49.4297L87.3101 49.3198C87.7868 37.8647 85.9924 26.4283 82.0301 15.6697C80.57 11.5882 78.576 7.71787 76.1001 4.15967L78.9201 1.96973C79.4401 2.64973 91.7701 18.8597 90.8701 49.4297Z" fill="#ED057D"/>
<path d="M87.0001 38.1399C86.7001 25.2899 94.5801 12.3501 94.9101 11.8101L97.9101 13.6799C97.8101 13.8399 90.25 26.29 90.53 38.05L87.0001 38.1399Z" fill="#ED057D"/>
<path d="M87.2299 42.7903C84.9465 33.4013 79.3456 25.1545 71.46 19.5703L73.32 16.5703C82.0622 22.6025 88.2553 31.664 90.7 42.0002L87.2299 42.7903Z" fill="#ED057D"/>
<path d="M108.09 0.709952C109.6 4.82995 108.5 10.57 104.84 15.46C101.18 20.35 95.99 23.02 91.61 22.73C90.1 18.61 91.2 12.88 94.86 7.98998C98.52 3.09998 103.71 0.429952 108.09 0.709952Z" fill="#ED057D"/>
<path d="M76.65 20.6801C74.49 22.6801 70.65 23.3703 66.77 22.3203C62.89 21.2703 59.92 18.7302 59.02 15.9702C61.18 14.0202 65.02 13.2803 68.91 14.3303C72.8 15.3803 75.75 17.9101 76.65 20.6801Z" fill="#ED057D"/>
<path d="M30.2599 195.1C30.2656 195.265 30.2084 195.426 30.0999 195.55C29.9895 195.655 29.8423 195.713 29.6899 195.71H28.6899C28.6038 195.716 28.5174 195.702 28.4376 195.669C28.3578 195.636 28.2867 195.585 28.2299 195.52C28.1122 195.389 28.0512 195.216 28.0599 195.04C28.0609 194.727 27.978 194.42 27.8199 194.15C27.6578 193.86 27.4403 193.606 27.1799 193.4C26.9201 193.196 26.6299 193.034 26.3199 192.92C26.0318 192.812 25.7274 192.755 25.4199 192.75H8.31989C7.96989 192.75 7.79989 192.58 7.79989 192.25V177.78C7.79751 177.64 7.84745 177.505 7.93988 177.4C7.98179 177.348 8.03523 177.306 8.09598 177.279C8.15673 177.251 8.22312 177.238 8.28988 177.24H29.5799C29.9099 177.24 30.0699 177.42 30.0699 177.78V179.34C30.0801 179.407 30.0744 179.475 30.0534 179.539C30.0324 179.603 29.9966 179.661 29.9489 179.709C29.9012 179.757 29.8429 179.792 29.7788 179.813C29.7147 179.835 29.6466 179.84 29.5799 179.83H10.3799V190.15H25.3799C26.019 190.151 26.6502 190.291 27.2299 190.56C27.8175 190.829 28.3499 191.206 28.7999 191.67C29.2307 192.132 29.57 192.672 29.7999 193.26C30.0748 193.836 30.2313 194.462 30.2599 195.1Z" fill="#ED057D"/>
<path d="M27.0801 167.4L29.6302 168.4C29.7591 168.443 29.8707 168.526 29.9482 168.638C30.0257 168.75 30.065 168.884 30.0601 169.02V170.64C30.0601 170.99 29.9501 171.16 29.7201 171.16H29.4602H29.3701L8.25015 162.37H8.16015C8.05434 162.327 7.95887 162.262 7.88015 162.18C7.80701 162.056 7.77545 161.913 7.79014 161.77V160.77C7.77545 160.627 7.80701 160.483 7.88015 160.36C7.96802 160.279 8.0696 160.215 8.18014 160.17H8.10015H8.21015L29.3701 151.43H29.5202H29.7201C29.9501 151.43 30.0601 151.61 30.0601 151.97V153.56C30.0683 153.702 30.0282 153.842 29.9465 153.958C29.8648 154.074 29.7463 154.159 29.6101 154.2L28.5202 154.64L27.0801 155.19V167.4ZM12.2102 161V161.33C13.0102 161.67 14.0601 162.1 15.3601 162.62L15.7301 162.77L21.1602 164.99L24.5101 166.34V156.07L12.2102 161Z" fill="#ED057D"/>
<path d="M8.27992 144.9H16.7899L7.91992 132.32C7.83685 132.174 7.79213 132.009 7.78991 131.84V130.26C7.78527 130.196 7.79448 130.131 7.8169 130.071C7.83933 130.011 7.87446 129.956 7.91992 129.91C7.9678 129.865 8.02447 129.83 8.0864 129.808C8.14834 129.785 8.2142 129.776 8.27992 129.78H29.5699C29.6357 129.77 29.7028 129.776 29.766 129.796C29.8292 129.817 29.8868 129.852 29.9343 129.898C29.9818 129.945 30.0178 130.002 30.0396 130.064C30.0614 130.127 30.0684 130.194 30.0599 130.26V131.81C30.0599 132.17 29.8999 132.35 29.5699 132.35H11.2499L19.9399 144.9H29.5699C29.6357 144.89 29.7028 144.896 29.766 144.916C29.8292 144.937 29.8868 144.972 29.9343 145.018C29.9818 145.065 30.0178 145.122 30.0396 145.184C30.0614 145.247 30.0684 145.314 30.0599 145.38V146.93C30.0599 147.3 29.8999 147.48 29.5699 147.48H8.27992C8.21316 147.482 8.14677 147.469 8.08602 147.442C8.02527 147.414 7.97181 147.372 7.92991 147.32C7.83418 147.213 7.78395 147.073 7.78991 146.93V145.38C7.78527 145.316 7.79448 145.251 7.8169 145.191C7.83933 145.131 7.87446 145.076 7.91992 145.03C7.9678 144.985 8.02447 144.95 8.0864 144.928C8.14834 144.905 8.2142 144.896 8.27992 144.9ZM5.05991 139.22C5.05314 139.715 4.95129 140.204 4.75991 140.66C4.57892 141.106 4.31415 141.514 3.97991 141.86C3.6675 142.192 3.29401 142.46 2.87992 142.65C2.48294 142.839 2.04938 142.938 1.60992 142.94C1.53101 142.943 1.4525 142.928 1.37994 142.897C1.30737 142.866 1.24251 142.819 1.18992 142.76C1.1356 142.707 1.09256 142.643 1.06336 142.572C1.03416 142.502 1.0194 142.426 1.01992 142.35V141.35C1.0157 141.271 1.02798 141.192 1.05601 141.118C1.08403 141.044 1.12718 140.976 1.18269 140.92C1.23819 140.864 1.30484 140.819 1.3784 140.79C1.45195 140.761 1.53081 140.747 1.60992 140.75C1.78764 140.752 1.9637 140.716 2.12597 140.643C2.28824 140.571 2.43289 140.464 2.54992 140.33C2.78955 140.004 2.91879 139.61 2.91879 139.205C2.91879 138.8 2.78955 138.406 2.54992 138.08C2.44952 137.95 2.32077 137.845 2.17347 137.772C2.02617 137.699 1.86421 137.661 1.69991 137.66C1.21991 137.66 0.979913 137.46 0.979913 137.07V136.2C0.974411 136.01 1.02297 135.823 1.11991 135.66C1.16895 135.587 1.23637 135.528 1.31538 135.49C1.39439 135.451 1.48219 135.434 1.56992 135.44C2.01307 135.438 2.45079 135.538 2.84992 135.73C3.26907 135.926 3.64869 136.197 3.96992 136.53C4.29841 136.887 4.55932 137.3 4.73992 137.75C4.9386 138.215 5.04718 138.714 5.05991 139.22Z" fill="#ED057D"/>
<path d="M8.45002 113.82H9.45002C9.6045 112.556 9.96601 111.327 10.52 110.18C11.0461 109.067 11.7599 108.052 12.63 107.18C13.4721 106.335 14.4662 105.657 15.56 105.18C16.6427 104.725 17.8054 104.49 18.98 104.49C20.1546 104.49 21.3173 104.725 22.4 105.18C23.4864 105.659 24.4734 106.338 25.31 107.18C26.1802 108.05 26.891 109.065 27.41 110.18C27.9647 111.325 28.3198 112.556 28.46 113.82H29.4C29.4896 113.815 29.5793 113.829 29.6636 113.86C29.7478 113.891 29.8249 113.938 29.89 114C30.008 114.139 30.0687 114.318 30.06 114.5V115.74C30.0749 115.831 30.0682 115.924 30.0406 116.012C30.013 116.1 29.9653 116.18 29.9011 116.246C29.837 116.312 29.7582 116.363 29.6712 116.393C29.5842 116.423 29.4913 116.432 29.4 116.42H28.4C28.2456 117.667 27.8876 118.88 27.34 120.01C26.8115 121.097 26.1051 122.087 25.25 122.94C24.4116 123.781 23.425 124.459 22.34 124.94C21.2643 125.402 20.1058 125.64 18.935 125.64C17.7643 125.64 16.6058 125.402 15.53 124.94C14.445 124.459 13.4585 123.781 12.62 122.94C11.7588 122.087 11.0457 121.097 10.51 120.01C9.94847 118.883 9.58003 117.669 9.42002 116.42H8.42002C8.33028 116.426 8.24026 116.414 8.15583 116.383C8.0714 116.352 7.99446 116.303 7.93001 116.24C7.86977 116.172 7.8237 116.093 7.7945 116.007C7.76531 115.921 7.75358 115.831 7.76002 115.74V114.5C7.7557 114.411 7.76943 114.321 7.80035 114.237C7.83126 114.153 7.87876 114.076 7.94002 114.01C8.00498 113.942 8.08468 113.889 8.17306 113.856C8.26143 113.823 8.35616 113.811 8.45002 113.82ZM19 123C19.86 123.005 20.7126 122.842 21.51 122.52C22.2902 122.201 23.0002 121.732 23.6 121.14C24.2147 120.532 24.7188 119.821 25.09 119.04C25.4977 118.208 25.7743 117.317 25.91 116.4H12.11C12.2383 117.316 12.5082 118.207 12.91 119.04C13.2777 119.821 13.7785 120.531 14.39 121.14C14.9898 121.732 15.6999 122.201 16.48 122.52C17.2809 122.842 18.1368 123.005 19 123ZM19 107.14C18.1323 107.132 17.2718 107.298 16.47 107.63C15.6881 107.95 14.9776 108.423 14.38 109.02C13.7651 109.638 13.258 110.355 12.88 111.14C12.4795 111.981 12.2098 112.878 12.08 113.8H25.91C25.7736 112.877 25.4971 111.98 25.09 111.14C24.7191 110.353 24.215 109.636 23.6 109.02C23.0042 108.425 22.2976 107.953 21.52 107.63C20.7209 107.303 19.8633 107.143 19 107.16V107.14Z" fill="#ED057D"/>
<path d="M19 89.28L29.74 81.96C29.8238 81.8861 29.9288 81.8407 30.04 81.8301C30.04 81.8301 30.11 81.9101 30.11 82.0801V84.3301C30.0923 84.4846 30.0388 84.6327 29.9537 84.7629C29.8687 84.8931 29.7544 85.0018 29.62 85.0801L21.17 90.8C24.35 92.9267 27.1667 94.8267 29.62 96.5C29.7549 96.6042 29.8758 96.7253 29.98 96.8601C30.0636 96.9654 30.1094 97.0956 30.11 97.23V99.5C30.11 99.66 30.11 99.74 30.04 99.74C29.9224 99.7239 29.8116 99.6755 29.72 99.6001L19 92.28L16.15 94.22L15.23 94.8501C14.35 95.4434 12.83 96.4766 10.67 97.95L8.33002 99.5701C8.20322 99.6571 8.0605 99.7182 7.91003 99.75C7.85003 99.75 7.82003 99.6101 7.82003 99.3301V97.4399C7.81034 97.2556 7.85187 97.0721 7.94002 96.9099C8.07221 96.73 8.23462 96.5744 8.42002 96.45L16.76 90.78L8.42002 85.0901C8.23439 84.9507 8.06941 84.7857 7.93002 84.6001C7.84365 84.4408 7.80218 84.2611 7.81002 84.0801V82.21C7.81002 81.92 7.81002 81.77 7.90002 81.77C8.05203 81.7968 8.1958 81.8583 8.32003 81.95C9.48003 82.77 11.1467 83.9199 13.32 85.3999L19 89.28Z" fill="#ED057D"/>
<path d="M27.08 78.8301L29.63 79.8301C29.7582 79.8713 29.8694 79.9529 29.947 80.063C30.0246 80.173 30.0642 80.3054 30.06 80.4399V82.0601C30.06 82.4101 29.95 82.5901 29.72 82.5901C29.6336 82.6003 29.5463 82.6003 29.46 82.5901H29.37L8.24996 73.8H8.15996C8.05338 73.7542 7.95789 73.686 7.87996 73.6001C7.8062 73.4805 7.77451 73.3396 7.78995 73.2V72.2C7.77451 72.0603 7.8062 71.9196 7.87996 71.8C7.96702 71.7158 8.06866 71.648 8.17995 71.6001H8.09996H8.20996L29.37 62.8501H29.52H29.72C29.95 62.8501 30.06 63.0299 30.06 63.3899V64.98C30.0686 65.1231 30.0289 65.265 29.9473 65.3828C29.8657 65.5007 29.7469 65.5876 29.61 65.6299L28.52 66.0601L27.08 66.6201V78.8301ZM12.21 72.4399V72.77C13.01 73.11 14.06 73.5401 15.36 74.0601L15.73 74.21L21.16 76.4299L24.51 77.78V67.5L12.21 72.4399Z" fill="#ED057D"/>
<path d="M8.45017 56.4797H18.1802C18.1622 55.7701 17.9513 55.0787 17.5702 54.4797C17.0154 53.615 16.2824 52.8786 15.4202 52.3198L12.9202 50.5798L12.5702 50.3398C11.6802 49.7298 11.0002 49.2399 10.5702 48.8699C10.1047 48.5246 9.67573 48.1324 9.29017 47.6997C8.83164 47.1945 8.46603 46.6122 8.21018 45.9797C7.94941 45.2858 7.81397 44.5511 7.81017 43.8098C7.79492 43.7345 7.79689 43.6567 7.81594 43.5823C7.83499 43.5078 7.87062 43.4384 7.92017 43.3796C7.97886 43.3251 8.04837 43.2837 8.12418 43.2578C8.2 43.232 8.28041 43.2224 8.36017 43.2297H9.68017C9.84125 43.2456 9.99419 43.3081 10.1202 43.4097C10.1784 43.4562 10.225 43.5158 10.2562 43.5835C10.2875 43.6512 10.3025 43.7253 10.3002 43.7998C10.3731 44.5008 10.6436 45.1665 11.0802 45.7197C11.6896 46.5286 12.4218 47.2373 13.2502 47.8198L15.6502 49.5698L16.0902 49.8699L16.4902 50.1697C17.0768 50.5763 17.5068 50.9097 17.7802 51.1697L29.7802 40.9697L30.0902 40.7598V43.9998C30.0902 44.1798 29.9702 44.3498 29.7202 44.5098L19.5802 52.9998C20.2215 54.0551 20.602 55.248 20.6902 56.4797H29.4002C29.4898 56.4748 29.5795 56.4883 29.6637 56.5193C29.748 56.5502 29.825 56.5979 29.8902 56.6597C30.0084 56.7947 30.0694 56.9704 30.0602 57.1497V58.3997C30.0733 58.4898 30.0653 58.5819 30.037 58.6685C30.0086 58.755 29.9606 58.8338 29.8966 58.8987C29.8327 58.9636 29.7546 59.0128 29.6685 59.0425C29.5823 59.0722 29.4905 59.0816 29.4002 59.0698H8.40017C8.31043 59.0759 8.22042 59.063 8.13599 59.032C8.05156 59.001 7.97462 58.9524 7.91018 58.8896C7.84973 58.824 7.80344 58.7467 7.77419 58.6624C7.74494 58.5781 7.73337 58.4886 7.74018 58.3997V57.1497C7.7337 56.9691 7.79832 56.7931 7.92017 56.6597C7.98953 56.5921 8.0731 56.5409 8.1648 56.5098C8.2565 56.4786 8.354 56.4684 8.45017 56.4797Z" fill="#ED057D"/>
</svg>
