<svg width="255" height="160" viewBox="0 0 255 160" fill="none" xmlns="http://www.w3.org/2000/svg">
<path d="M107.25 145.86C100.1 146.015 93.0995 143.8 87.34 139.56C81.47 135.077 76.6651 129.35 73.27 122.79C69.4192 115.536 66.6179 107.772 64.95 99.73C63.1687 91.5155 62.2637 83.1353 62.25 74.73C62.265 66.0338 63.1697 57.3621 64.95 48.8501C66.6105 40.538 69.4527 32.5064 73.39 25C76.9171 18.147 81.9536 12.1839 88.12 7.56005C94.12 3.14005 101.247 0.929921 109.5 0.929921C116.651 0.770431 123.653 2.98604 129.41 7.22997C135.277 11.7132 140.079 17.4403 143.47 24C147.317 31.2355 150.122 38.9789 151.8 47C153.575 55.0937 154.48 63.3538 154.5 71.6399C154.477 80.2596 153.572 88.8545 151.8 97.29C150.115 105.666 147.275 113.766 143.36 121.36C139.874 128.303 134.879 134.378 128.74 139.14C122.807 143.62 115.643 145.86 107.25 145.86ZM111.07 140.01C117.07 140.01 121.91 136.97 125.59 130.89C129.27 124.81 131.937 116.9 133.59 107.16C135.295 96.7476 136.124 86.2107 136.07 75.6599C136.077 67.3728 135.438 59.0978 134.16 50.9099C133.025 43.3837 131.063 36.0057 128.31 28.9099C125.683 22.3099 122.457 17.0599 118.63 13.1599C116.924 11.3116 114.853 9.8375 112.549 8.83056C110.244 7.82361 107.755 7.30587 105.24 7.31005C99.24 7.31005 94.48 10.2334 90.96 16.0801C87.44 21.9267 84.89 29.6901 83.31 39.3701C81.6753 49.7525 80.8828 60.2499 80.94 70.76C80.9355 79.1303 81.5774 87.4885 82.86 95.76C83.9763 103.393 85.8592 110.894 88.48 118.15C90.96 124.817 94.0733 130.15 97.82 134.15C99.4892 136.007 101.533 137.488 103.817 138.497C106.101 139.505 108.573 140.018 111.07 140V140.01Z" fill="#ED057D"/>
<path d="M184.65 151.26C182.836 151.243 181.028 151.052 179.25 150.69C177.25 150.32 176.32 149.6 176.32 148.56C176.32 147.347 177.32 146.347 179.32 145.56C180.915 144.834 182.631 144.413 184.38 144.32C196.227 144.32 206.017 142.183 213.75 137.91C221.484 133.637 227.257 128.273 231.07 121.82C234.711 116.014 236.696 109.322 236.81 102.47C236.888 96.8597 235.062 91.3887 231.63 86.95C228.184 82.45 222.517 78.3234 214.63 74.5701C206.744 70.8167 196.13 67.2167 182.79 63.77C181.084 62.4171 179.669 60.7335 178.63 58.8201C177.796 57.1435 177.371 55.2927 177.39 53.4199C177.465 50.8265 177.882 48.2544 178.63 45.77C179.45 42.77 180.45 39.5833 181.63 36.21C182.81 32.8366 184.01 29.5033 185.23 26.21C186.43 22.91 187.407 20.0599 188.16 17.6599C188.775 15.6197 189.941 13.7892 191.53 12.3701C193.239 10.9966 195.24 10.035 197.38 9.56007C200.827 8.66007 204.354 7.83342 207.96 7.08009C211.567 6.32675 215.317 5.61328 219.21 4.93995C223.11 4.27328 227.11 3.67324 231.21 3.1399C235.31 2.60657 239.55 2.11994 243.93 1.67994C244.412 1.56505 244.918 1.5993 245.381 1.77784C245.843 1.95638 246.24 2.27082 246.52 2.67994C246.775 3.11124 246.899 3.60715 246.878 4.10768C246.857 4.6082 246.691 5.09192 246.4 5.50001C245.8 6.70001 245.17 7.93997 244.49 9.20997C243.81 10.48 243.18 11.7199 242.58 12.9199C241.771 14.8251 240.584 16.5464 239.09 17.98C237.72 19.1499 236.038 19.8939 234.25 20.1201C231.404 20.4201 228.104 20.7535 224.35 21.1201L213.1 22.25C209.35 22.63 205.9 22.96 202.75 23.25C199.6 23.54 197.2 23.8499 195.55 24.1499C194.504 24.3032 193.23 25.6168 191.73 28.0901C190.202 30.6179 188.849 33.2473 187.68 35.96C186.773 37.8715 186.101 39.8863 185.68 41.96C185.51 42.8734 185.629 43.8171 186.02 44.6599C186.308 45.0979 186.69 45.4662 187.138 45.7378C187.586 46.0094 188.089 46.1776 188.61 46.23C197.01 48.63 204.66 51.0667 211.56 53.5401C217.735 55.7051 223.75 58.3015 229.56 61.3101C237.96 65.6567 244.224 70.7933 248.35 76.72C252.477 82.6466 254.537 90.1834 254.53 99.3301C254.514 107.638 251.922 115.737 247.11 122.51C241.897 129.951 235.058 136.107 227.11 140.51C223.009 142.784 218.72 144.701 214.29 146.24C209.669 147.851 204.928 149.095 200.11 149.96C195.006 150.855 189.832 151.29 184.65 151.26Z" fill="#ED057D"/>
<path d="M196.43 145L194.08 144.53C196.27 133.53 193.98 125.53 191.68 120.76C190.329 117.805 188.429 115.134 186.08 112.89L187.63 111.05C190.208 113.476 192.296 116.375 193.78 119.59C196.28 124.68 198.77 133.26 196.43 145Z" fill="#ED057D"/>
<path d="M197.24 131.67L194.9 131.13C195.56 128.25 197.45 124.87 200.09 120.68L202.09 121.96C200 125.4 197.86 129 197.24 131.67Z" fill="#ED057D"/>
<path d="M198.78 125L199.06 122.91C199.664 119.055 201.001 115.351 203 112C206.54 105.85 211.64 100.91 216.64 98.8L218.57 97.98L218.29 100.06C217.696 103.905 216.365 107.599 214.37 110.94C210.84 117.1 205.74 122.03 200.74 124.15L198.78 125ZM215.44 102.12C211.128 104.923 207.564 108.737 205.06 113.23C203.655 115.625 202.588 118.203 201.89 120.89C206.208 118.088 209.772 114.27 212.27 109.77C213.68 107.378 214.747 104.799 215.44 102.11V102.12Z" fill="#ED057D"/>
<path d="M185.06 113.52C184.308 113.52 183.574 113.297 182.949 112.88C182.324 112.462 181.837 111.869 181.549 111.174C181.261 110.48 181.186 109.716 181.333 108.979C181.479 108.242 181.841 107.564 182.373 107.033C182.904 106.502 183.581 106.14 184.318 105.993C185.056 105.846 185.82 105.922 186.514 106.209C187.208 106.497 187.802 106.984 188.219 107.609C188.637 108.234 188.86 108.968 188.86 109.72C188.86 110.728 188.459 111.694 187.747 112.407C187.034 113.12 186.068 113.52 185.06 113.52ZM185.06 108.32C184.783 108.32 184.512 108.402 184.282 108.556C184.052 108.71 183.872 108.929 183.766 109.184C183.66 109.44 183.633 109.722 183.687 109.993C183.741 110.265 183.874 110.514 184.07 110.71C184.266 110.906 184.515 111.039 184.787 111.093C185.058 111.147 185.34 111.119 185.596 111.013C185.851 110.907 186.07 110.728 186.224 110.498C186.378 110.268 186.46 109.997 186.46 109.72C186.46 109.536 186.424 109.354 186.353 109.184C186.283 109.014 186.18 108.86 186.05 108.73C185.92 108.6 185.765 108.497 185.596 108.427C185.426 108.356 185.244 108.32 185.06 108.32Z" fill="#ED057D"/>
<path d="M30.2599 159.1C30.2656 159.265 30.2084 159.426 30.0999 159.55C29.9895 159.655 29.8423 159.713 29.6899 159.71H28.6899C28.6038 159.716 28.5174 159.702 28.4376 159.669C28.3578 159.636 28.2867 159.585 28.2299 159.52C28.1122 159.389 28.0512 159.216 28.0599 159.04C28.0609 158.727 27.978 158.42 27.8199 158.15C27.6578 157.86 27.4403 157.606 27.1799 157.4C26.9201 157.196 26.6299 157.034 26.3199 156.92C26.0318 156.812 25.7274 156.755 25.4199 156.75H8.3199C7.9699 156.75 7.79989 156.58 7.79989 156.25V141.78C7.79751 141.64 7.84746 141.505 7.9399 141.4C7.9818 141.348 8.03528 141.306 8.09603 141.279C8.15678 141.251 8.22312 141.238 8.28988 141.24H29.5799C29.9099 141.24 30.0699 141.42 30.0699 141.78V143.34C30.0801 143.407 30.0744 143.475 30.0534 143.539C30.0324 143.603 29.9966 143.661 29.9489 143.709C29.9012 143.757 29.8429 143.792 29.7788 143.813C29.7147 143.835 29.6466 143.84 29.5799 143.83H10.3799V154.15H25.3799C26.019 154.151 26.6502 154.291 27.2299 154.56C27.8175 154.829 28.3499 155.206 28.7999 155.67C29.2307 156.132 29.57 156.672 29.7999 157.26C30.0748 157.836 30.2313 158.462 30.2599 159.1Z" fill="#ED057D"/>
<path d="M27.0797 131.4L29.6297 132.4C29.7587 132.443 29.8702 132.526 29.9477 132.638C30.0252 132.75 30.0645 132.884 30.0597 133.02V134.64C30.0597 134.99 29.9496 135.16 29.7196 135.16H29.4597H29.3697L8.24967 126.37H8.15965C8.05383 126.327 7.9584 126.262 7.87968 126.18C7.80654 126.056 7.77496 125.913 7.78965 125.77V124.77C7.77496 124.627 7.80654 124.483 7.87968 124.36C7.96754 124.279 8.06913 124.215 8.17967 124.17H8.09965H8.20969L29.3697 115.43H29.5197H29.7196C29.9496 115.43 30.0597 115.61 30.0597 115.97V117.56C30.0678 117.702 30.0278 117.842 29.9461 117.958C29.8644 118.074 29.7458 118.159 29.6097 118.2L28.5197 118.64L27.0797 119.19V131.4ZM12.2097 125V125.33C13.0097 125.67 14.0597 126.1 15.3597 126.62L15.7297 126.77L21.1596 128.99L24.5097 130.34V120.07L12.2097 125Z" fill="#ED057D"/>
<path d="M8.27996 108.9H16.7899L7.91992 96.3202C7.83685 96.1737 7.79213 96.0086 7.78991 95.8402V94.2601C7.78527 94.1959 7.79452 94.1313 7.81695 94.0709C7.83938 94.0105 7.87446 93.9557 7.91992 93.91C7.9678 93.8648 8.02449 93.8301 8.08642 93.8077C8.14835 93.7854 8.21425 93.776 8.27996 93.7801H29.5699C29.6357 93.7703 29.7028 93.7758 29.766 93.7962C29.8292 93.8167 29.8868 93.8518 29.9343 93.8983C29.9818 93.9448 30.0179 94.0015 30.0397 94.0643C30.0615 94.1271 30.0684 94.1942 30.0599 94.2601V95.8102C30.0599 96.1702 29.8999 96.3502 29.5699 96.3502H11.2499L19.9399 108.9H29.5699C29.6357 108.89 29.7028 108.896 29.766 108.916C29.8292 108.937 29.8868 108.972 29.9343 109.018C29.9818 109.065 30.0179 109.122 30.0397 109.184C30.0615 109.247 30.0684 109.314 30.0599 109.38V110.93C30.0599 111.3 29.8999 111.48 29.5699 111.48H8.27996C8.2132 111.482 8.14681 111.469 8.08605 111.442C8.0253 111.414 7.97183 111.372 7.92992 111.32C7.8342 111.213 7.78395 111.073 7.78991 110.93V109.38C7.78527 109.316 7.79452 109.251 7.81695 109.191C7.83938 109.131 7.87446 109.076 7.91992 109.03C7.9678 108.985 8.02449 108.95 8.08642 108.928C8.14835 108.905 8.21425 108.896 8.27996 108.9ZM5.05993 103.22C5.05316 103.715 4.95132 104.204 4.75994 104.66C4.57895 105.106 4.31415 105.514 3.97991 105.86C3.6675 106.192 3.29403 106.46 2.87994 106.65C2.48295 106.839 2.04938 106.938 1.60992 106.94C1.53101 106.943 1.4525 106.928 1.37994 106.897C1.30737 106.866 1.24253 106.819 1.18993 106.76C1.13562 106.707 1.09261 106.643 1.06341 106.572C1.03421 106.502 1.01943 106.426 1.01995 106.35V105.35C1.01573 105.271 1.028 105.192 1.05602 105.118C1.08405 105.044 1.12717 104.976 1.18267 104.92C1.23818 104.864 1.30485 104.819 1.37841 104.79C1.45197 104.761 1.53081 104.747 1.60992 104.75C1.78764 104.752 1.9637 104.716 2.12597 104.643C2.28824 104.571 2.43289 104.464 2.54992 104.33C2.78955 104.004 2.91882 103.61 2.91882 103.205C2.91882 102.8 2.78955 102.406 2.54992 102.08C2.44952 101.95 2.32075 101.845 2.17346 101.772C2.02616 101.699 1.86424 101.661 1.69994 101.66C1.21994 101.66 0.979913 101.46 0.979913 101.07V100.2C0.974411 100.01 1.02298 99.8231 1.11993 99.66C1.16896 99.587 1.23642 99.5282 1.31542 99.4896C1.39443 99.451 1.48221 99.4339 1.56994 99.44C2.01308 99.4383 2.45077 99.5375 2.84991 99.7301C3.26905 99.926 3.64867 100.197 3.9699 100.53C4.29839 100.887 4.55932 101.3 4.73992 101.75C4.9386 102.215 5.0472 102.714 5.05993 103.22Z" fill="#ED057D"/>
<path d="M8.45002 77.8203H9.45002C9.6045 76.5565 9.96601 75.3266 10.52 74.1802C11.0461 73.0666 11.7599 72.0518 12.63 71.1802C13.4721 70.3351 14.4662 69.6565 15.56 69.1802C16.6427 68.7247 17.8054 68.4902 18.98 68.4902C20.1546 68.4902 21.3174 68.7247 22.4 69.1802C23.4864 69.6593 24.4734 70.3377 25.31 71.1802C26.1802 72.0496 26.8909 73.065 27.41 74.1802C27.9647 75.3249 28.3198 76.556 28.46 77.8203H29.4C29.4897 77.8154 29.5793 77.8287 29.6636 77.8596C29.7478 77.8906 29.8249 77.9385 29.89 78.0002C30.008 78.1394 30.0687 78.3181 30.06 78.5002V79.7402C30.0749 79.8311 30.0683 79.9243 30.0407 80.0122C30.0131 80.1001 29.9653 80.1802 29.9011 80.2463C29.837 80.3124 29.7582 80.3626 29.6712 80.3928C29.5842 80.423 29.4913 80.4323 29.4 80.4202H28.4C28.2457 81.6668 27.8876 82.8797 27.34 84.0103C26.8115 85.0966 26.1051 86.0868 25.25 86.9402C24.4116 87.7805 23.425 88.4586 22.34 88.9402C21.2643 89.4021 20.1057 89.6404 18.935 89.6404C17.7643 89.6404 16.6058 89.4021 15.53 88.9402C14.4451 88.4586 13.4584 87.7805 12.62 86.9402C11.7588 86.0875 11.0457 85.0973 10.51 84.0103C9.94847 82.883 9.58 81.6694 9.41999 80.4202H8.41999C8.33025 80.4263 8.24026 80.4136 8.15583 80.3826C8.0714 80.3516 7.99444 80.303 7.93 80.2402C7.86975 80.1724 7.8237 80.0932 7.7945 80.0073C7.76531 79.9215 7.75358 79.8307 7.76002 79.7402V78.5002C7.7557 78.4107 7.76938 78.3212 7.8003 78.2371C7.83122 78.1529 7.87874 78.0757 7.94001 78.0103C8.00497 77.9419 8.08466 77.8891 8.17304 77.8562C8.26142 77.8233 8.35616 77.8111 8.45002 77.8203ZM19 87.0002C19.86 87.0053 20.7126 86.8423 21.51 86.5203C22.2902 86.2012 23.0002 85.7323 23.6 85.1401C24.2146 84.5318 24.7188 83.8214 25.09 83.0403C25.4977 82.2078 25.7742 81.3171 25.91 80.4001H12.11C12.2383 81.3163 12.5082 82.207 12.91 83.0403C13.2776 83.8209 13.7785 84.5314 14.39 85.1401C14.9898 85.7323 15.6998 86.2012 16.48 86.5203C17.2809 86.8423 18.1368 87.0053 19 87.0002ZM19 71.1401C18.1323 71.1316 17.2718 71.2983 16.47 71.6301C15.688 71.9503 14.9776 72.4229 14.38 73.0203C13.7651 73.6381 13.258 74.3546 12.88 75.1401C12.4795 75.9809 12.2098 76.8781 12.08 77.8003H25.91C25.7736 76.8771 25.4971 75.9799 25.09 75.1401C24.7191 74.353 24.215 73.6359 23.6 73.0203C23.0042 72.4254 22.2976 71.953 21.52 71.6301C20.7209 71.3032 19.8633 71.1433 19 71.1602V71.1401Z" fill="#ED057D"/>
<path d="M19 53.28L29.74 45.96C29.8238 45.8861 29.9288 45.8407 30.04 45.8301C30.04 45.8301 30.11 45.9101 30.11 46.0801V48.3301C30.0923 48.4846 30.0388 48.6327 29.9537 48.7629C29.8686 48.8931 29.7544 49.0018 29.62 49.0801L21.17 54.8C24.35 56.9267 27.1667 58.8267 29.62 60.5C29.7549 60.6042 29.8758 60.7253 29.98 60.8601C30.0636 60.9654 30.1093 61.0956 30.11 61.23V63.5C30.11 63.66 30.11 63.74 30.04 63.74C29.9224 63.7239 29.8116 63.6755 29.72 63.6001L19 56.28L16.15 58.22L15.23 58.8501C14.35 59.4434 12.83 60.4766 10.67 61.95L8.33004 63.5701C8.20323 63.6571 8.06047 63.7182 7.91 63.75C7.85 63.75 7.82003 63.6101 7.82003 63.3301V61.4399C7.81034 61.2556 7.85187 61.0721 7.94002 60.9099C8.07221 60.73 8.2346 60.5744 8.42001 60.45L16.76 54.78L8.42001 49.0901C8.23437 48.9507 8.06941 48.7857 7.93002 48.6001C7.84365 48.4408 7.80218 48.2611 7.81002 48.0801V46.21C7.81002 45.92 7.81005 45.77 7.90005 45.77C8.05206 45.7968 8.1958 45.8583 8.32003 45.95C9.48003 46.77 11.1467 47.9199 13.32 49.3999L19 53.28Z" fill="#ED057D"/>
<path d="M27.08 42.8301L29.63 43.8301C29.7582 43.8713 29.8695 43.9529 29.9471 44.063C30.0246 44.173 30.0643 44.3054 30.06 44.4399V46.0601C30.06 46.4101 29.9499 46.5901 29.7199 46.5901C29.6336 46.6003 29.5464 46.6003 29.46 46.5901H29.37L8.24997 37.8H8.15994C8.05336 37.7542 7.95791 37.686 7.87997 37.6001C7.80621 37.4805 7.77451 37.3396 7.78995 37.2V36.2C7.77451 36.0603 7.80621 35.9196 7.87997 35.8C7.96703 35.7158 8.06867 35.648 8.17996 35.6001H8.09995H8.20999L29.37 26.8501H29.52H29.7199C29.9499 26.8501 30.06 27.0299 30.06 27.3899V28.98C30.0686 29.1231 30.029 29.265 29.9474 29.3828C29.8658 29.5007 29.7469 29.5876 29.61 29.6299L28.52 30.0601L27.08 30.6201V42.8301ZM12.21 36.4399V36.77C13.01 37.11 14.06 37.5401 15.36 38.0601L15.7299 38.21L21.1599 40.4299L24.51 41.78V31.5L12.21 36.4399Z" fill="#ED057D"/>
<path d="M8.45016 20.4797H18.1801C18.1621 19.7701 17.9513 19.0787 17.5702 18.4797C17.0153 17.615 16.2823 16.8786 15.4201 16.3198L12.9201 14.5798L12.5702 14.3398C11.6802 13.7298 11.0002 13.2399 10.5202 12.8699C10.0546 12.5246 9.6257 12.1324 9.24014 11.6997C8.78161 11.1945 8.41597 10.6122 8.16012 9.97974C7.89935 9.28579 7.76395 8.55113 7.76015 7.80981C7.7449 7.73448 7.74684 7.65674 7.76589 7.58228C7.78494 7.50781 7.82059 7.43839 7.87014 7.37964C7.92882 7.32512 7.99837 7.28366 8.07418 7.25781C8.14999 7.23197 8.23038 7.22242 8.31014 7.22974H9.63015C9.79123 7.24555 9.94417 7.30805 10.0702 7.40967C10.1284 7.45623 10.175 7.5158 10.2062 7.5835C10.2374 7.65119 10.2525 7.72528 10.2501 7.7998C10.323 8.50077 10.5936 9.16653 11.0302 9.71973C11.6396 10.5286 12.3717 11.2373 13.2002 11.8198L15.6001 13.5698L16.0401 13.8699L16.4401 14.1697C17.0268 14.5763 17.4568 14.9097 17.7301 15.1697L29.7301 4.96973L30.0401 4.75977V7.99976C30.0401 8.17976 29.9201 8.34977 29.6701 8.50977L19.5802 16.9998C20.2214 18.0551 20.6019 19.248 20.6901 20.4797H29.4002C29.4898 20.4748 29.5795 20.4883 29.6637 20.5193C29.748 20.5502 29.825 20.5979 29.8902 20.6597C30.0084 20.7947 30.0694 20.9704 30.0601 21.1497V22.3997C30.0733 22.4898 30.0653 22.5819 30.0369 22.6685C30.0086 22.755 29.9606 22.8338 29.8966 22.8987C29.8327 22.9636 29.7546 23.0128 29.6685 23.0425C29.5823 23.0722 29.4905 23.0816 29.4002 23.0698H8.45016C8.36042 23.0759 8.27037 23.063 8.18594 23.032C8.10151 23.001 8.02461 22.9524 7.96017 22.8896C7.89972 22.824 7.85343 22.7467 7.82418 22.6624C7.79493 22.5781 7.78331 22.4886 7.79012 22.3997V21.1497C7.78364 20.9691 7.84826 20.7931 7.97012 20.6597C8.03374 20.5987 8.10916 20.5515 8.19167 20.5205C8.27419 20.4896 8.36213 20.4756 8.45016 20.4797Z" fill="#ED057D"/>
</svg>
