<svg width="294" height="162" viewBox="0 0 294 162" fill="none" xmlns="http://www.w3.org/2000/svg">
<path d="M115.25 147.86C108.1 148.015 101.099 145.8 95.34 141.56C89.47 137.077 84.6651 131.35 81.27 124.79C77.4192 117.536 74.6179 109.772 72.95 101.73C71.1687 93.5155 70.2637 85.1353 70.25 76.73C70.265 68.0338 71.1697 59.3621 72.95 50.8501C74.6104 42.538 77.4527 34.5064 81.39 27C84.9171 20.147 89.9536 14.1839 96.12 9.56005C102.12 5.14005 109.247 2.92992 117.5 2.92992C124.651 2.77043 131.653 4.98604 137.41 9.22997C143.276 13.7103 148.078 19.434 151.47 25.99C155.313 33.2099 158.117 40.936 159.8 48.9399C161.575 57.0337 162.48 65.294 162.5 73.5801C162.477 82.1998 161.572 90.7944 159.8 99.23C158.115 107.606 155.275 115.706 151.36 123.3C147.874 130.243 142.879 136.319 136.74 141.08C130.807 145.6 123.643 147.86 115.25 147.86ZM119.07 142.01C125.07 142.01 129.91 138.97 133.59 132.89C137.27 126.81 139.937 118.9 141.59 109.16C143.295 98.7476 144.124 88.2107 144.07 77.6599C144.077 69.3728 143.438 61.0978 142.16 52.9099C141.025 45.3837 139.063 38.0057 136.31 30.9099C133.683 24.3099 130.457 19.0599 126.63 15.1599C124.924 13.3116 122.853 11.8375 120.549 10.8306C118.244 9.82361 115.755 9.30587 113.24 9.31005C107.24 9.31005 102.48 12.2334 98.96 18.0801C95.44 23.9267 92.8901 31.6901 91.3101 41.3701C89.6754 51.7525 88.8827 62.2499 88.9399 72.76C88.9355 81.1303 89.5774 89.4885 90.86 97.76C91.9763 105.393 93.8592 112.894 96.48 120.15C98.96 126.817 102.073 132.15 105.82 136.15C107.489 138.007 109.533 139.488 111.817 140.497C114.101 141.505 116.573 142.018 119.07 142V142.01Z" fill="#ED057D"/>
<path d="M224.82 148.31C217.186 148.301 209.656 146.528 202.82 143.13C195.708 139.624 189.711 134.209 185.5 127.49C181 120.523 178.75 111.787 178.75 101.28C178.566 86.8528 182.132 72.6248 189.1 59.9901C191.757 55.1758 194.804 50.5872 198.21 46.2702C200.639 43.173 203.229 40.2055 205.97 37.38C210.515 32.7564 215.323 28.3993 220.37 24.3302C226.749 19.1743 233.565 14.5837 240.74 10.6103C248.706 6.16026 257.213 2.75542 266.05 0.480137C267.129 0.158916 268.287 0.240637 269.31 0.710118C270.13 1.16012 270.4 1.61022 270.1 2.06022C269.535 3.35589 268.538 4.41592 267.28 5.06022C266.306 5.60168 265.305 6.09231 264.28 6.53019C255.043 10.4079 246.313 15.3944 238.28 21.38C230.74 27.2086 224.172 34.1955 218.82 42.0802C216.42 45.6802 213.57 50.5902 210.27 56.8102C206.791 63.4748 203.929 70.4437 201.72 77.63C199.344 85.1243 198.13 92.9384 198.12 100.8C198.273 109.054 199.997 116.054 203.29 121.8C206.195 127.155 210.414 131.683 215.55 134.96C219.958 137.813 225.045 139.445 230.29 139.69C233.286 139.783 236.268 139.262 239.055 138.157C241.841 137.053 244.371 135.39 246.49 133.27C251.157 128.85 253.49 121.99 253.49 112.69C253.527 108.244 252.646 103.839 250.9 99.7502C249.307 95.9639 246.84 92.6089 243.7 89.9601C240.711 87.4439 236.917 86.0878 233.01 86.1401C229.664 86.1002 226.32 86.3243 223.01 86.8102C220.213 87.2643 217.51 88.1765 215.01 89.5102C213.66 90.1102 212.88 90.0701 212.65 89.4001C212.565 88.972 212.593 88.5293 212.732 88.1154C212.87 87.7015 213.114 87.3309 213.44 87.0402C214.64 85.8402 215.65 84.8603 216.44 84.1103C217.23 83.3603 218.27 82.5401 219.44 81.6401C222.319 79.8015 225.374 78.254 228.56 77.0202C232.637 75.222 237.035 74.2662 241.49 74.2101C246.488 74.1791 251.415 75.3857 255.833 77.7221C260.251 80.0585 264.022 83.4522 266.81 87.6003C269.647 91.8584 271.11 96.8845 271 102C271.113 108.592 269.746 115.126 267 121.12C264.413 126.669 260.741 131.643 256.2 135.75C251.799 139.734 246.718 142.894 241.2 145.08C235.997 147.195 230.436 148.291 224.82 148.31Z" fill="#ED057D"/>
<path d="M245.85 34.6797C243.55 38.9397 243.85 45.3898 247.08 51.3098C250.31 57.2298 255.58 60.9698 260.41 61.3098C262.7 57.0398 262.41 50.5997 259.17 44.6797C255.93 38.7597 250.68 35.0497 245.85 34.6797Z" fill="#ED057D"/>
<path d="M292.85 44.8799C294.1 48.3299 291.63 53.72 285.94 58.79C280.25 63.86 272.94 67.21 267.22 67.73C265.98 64.28 268.45 58.9001 274.13 53.8201C279.81 48.7401 287.14 45.3999 292.85 44.8799Z" fill="#ED057D"/>
<path d="M259 89H255.07C255.07 74.48 268.31 63.0601 268.88 62.5801L271.43 65.5801L270.15 64.0801L271.43 65.5801C271.33 65.6801 259 76.32 259 89Z" fill="#ED057D"/>
<path d="M263 75.5298L259.1 74.9597C262.16 54.1197 248.1 43.7298 247.45 43.2998L249.73 40.0898C250.36 40.5798 266.36 52.2398 263 75.5298Z" fill="#ED057D"/>
<path d="M30.2598 161.1C30.2655 161.265 30.2083 161.426 30.0998 161.55C29.9895 161.655 29.8422 161.713 29.6898 161.71H28.6898C28.6036 161.716 28.5174 161.702 28.4376 161.669C28.3578 161.636 28.2867 161.585 28.2298 161.52C28.1122 161.389 28.0512 161.216 28.0599 161.04C28.0609 160.727 27.9779 160.42 27.8198 160.15C27.6577 159.86 27.4403 159.606 27.1799 159.4C26.9201 159.196 26.6298 159.034 26.3198 158.92C26.0317 158.812 25.7274 158.755 25.4199 158.75H8.31978C7.96978 158.75 7.79989 158.58 7.79989 158.25V143.78C7.79751 143.64 7.84734 143.505 7.93978 143.4C7.98168 143.348 8.03515 143.306 8.09591 143.279C8.15666 143.251 8.22312 143.238 8.28988 143.24H29.5798C29.9098 143.24 30.0698 143.42 30.0698 143.78V145.34C30.08 145.407 30.0743 145.475 30.0533 145.539C30.0323 145.603 29.9965 145.661 29.9488 145.709C29.9011 145.757 29.8429 145.792 29.7788 145.813C29.7147 145.835 29.6465 145.84 29.5798 145.83H10.3899V156.15H25.3899C26.0289 156.151 26.6602 156.291 27.2398 156.56C27.8275 156.829 28.36 157.206 28.8099 157.67C29.2586 158.128 29.615 158.668 29.8598 159.26C30.1141 159.841 30.2501 160.466 30.2598 161.1Z" fill="#ED057D"/>
<path d="M27.0801 133.4L29.6301 134.4C29.7591 134.443 29.8707 134.526 29.9482 134.638C30.0257 134.75 30.065 134.884 30.0602 135.02V136.64C30.0602 136.99 29.9501 137.16 29.7201 137.16H29.4601H29.3701L8.2501 128.37H8.16014C8.05433 128.327 7.95883 128.262 7.88011 128.18C7.80697 128.056 7.77545 127.913 7.79014 127.77V126.77C7.77545 126.627 7.80697 126.483 7.88011 126.36C7.96797 126.279 8.06962 126.215 8.18016 126.17H8.10008H8.21006L29.3701 117.43H29.5201H29.7201C29.9501 117.43 30.0602 117.61 30.0602 117.97V119.56C30.0683 119.702 30.0282 119.842 29.9465 119.958C29.8648 120.074 29.7463 120.159 29.6101 120.2L28.5201 120.64L27.0801 121.19V133.4ZM12.2101 127.01V127.34C13.0101 127.68 14.0601 128.11 15.3601 128.63L15.7301 128.78L21.1601 131L24.5101 132.35V122.08L12.2101 127.01Z" fill="#ED057D"/>
<path d="M8.27996 110.9H16.79L7.91998 98.3202C7.83692 98.1737 7.7922 98.0086 7.78997 97.8402V96.2601C7.78533 96.1959 7.79452 96.1313 7.81695 96.0709C7.83938 96.0105 7.87452 95.9557 7.91998 95.91C7.96786 95.8648 8.02443 95.8301 8.08636 95.8077C8.14829 95.7854 8.21425 95.776 8.27996 95.7801H29.5699C29.6356 95.7703 29.7028 95.7758 29.766 95.7962C29.8293 95.8167 29.8869 95.8518 29.9344 95.8983C29.9819 95.9448 30.0178 96.0015 30.0396 96.0643C30.0614 96.1271 30.0684 96.1942 30.06 96.2601V97.8102C30.06 98.1702 29.8999 98.3502 29.5699 98.3502H11.2499L19.9399 110.9H29.5699C29.6356 110.89 29.7028 110.896 29.766 110.916C29.8293 110.937 29.8869 110.972 29.9344 111.018C29.9819 111.065 30.0178 111.122 30.0396 111.184C30.0614 111.247 30.0684 111.314 30.06 111.38V112.93C30.06 113.3 29.8999 113.48 29.5699 113.48H8.27996C8.2132 113.482 8.14674 113.469 8.08599 113.442C8.02524 113.414 7.97189 113.372 7.92999 113.32C7.83426 113.213 7.78401 113.073 7.78997 112.93V111.38C7.78533 111.316 7.79452 111.251 7.81695 111.191C7.83938 111.131 7.87452 111.076 7.91998 111.03C7.96786 110.985 8.02443 110.95 8.08636 110.928C8.14829 110.905 8.21425 110.896 8.27996 110.9ZM5.05999 105.22C5.05322 105.715 4.95132 106.204 4.75994 106.66C4.57895 107.106 4.31415 107.514 3.97991 107.86C3.6675 108.192 3.29403 108.46 2.87994 108.65C2.48295 108.839 2.04938 108.938 1.60992 108.94C1.53101 108.943 1.4525 108.928 1.37994 108.897C1.30737 108.866 1.24247 108.819 1.18987 108.76C1.13556 108.707 1.09261 108.643 1.06341 108.572C1.03421 108.502 1.01943 108.426 1.01995 108.35V107.35C1.01573 107.271 1.02806 107.192 1.05608 107.118C1.08411 107.044 1.12717 106.976 1.18267 106.92C1.23818 106.864 1.30492 106.819 1.37847 106.79C1.45203 106.761 1.53081 106.747 1.60992 106.75C1.78764 106.752 1.96376 106.716 2.12603 106.643C2.28831 106.571 2.43295 106.464 2.54998 106.33C2.78961 106.004 2.91876 105.61 2.91876 105.205C2.91876 104.8 2.78961 104.406 2.54998 104.08C2.44958 103.95 2.32081 103.845 2.17352 103.772C2.02622 103.699 1.86418 103.661 1.69988 103.66C1.21988 103.66 0.979913 103.46 0.979913 103.07V102.2C0.974411 102.01 1.02298 101.823 1.11993 101.66C1.16896 101.587 1.23635 101.528 1.31536 101.49C1.39437 101.451 1.48215 101.434 1.56988 101.44C2.01302 101.438 2.45077 101.538 2.84991 101.73C3.26905 101.926 3.64867 102.197 3.9699 102.53C4.29839 102.887 4.55932 103.3 4.73992 103.75C4.9386 104.215 5.04726 104.714 5.05999 105.22Z" fill="#ED057D"/>
<path d="M8.44971 79.8203H9.44971C9.60419 78.5565 9.96576 77.3266 10.5198 76.1802C11.0459 75.0666 11.7596 74.0518 12.6298 73.1802C13.4719 72.3351 14.466 71.6565 15.5598 71.1802C16.6425 70.7247 17.8052 70.4902 18.9797 70.4902C20.1543 70.4902 21.3171 70.7247 22.3998 71.1802C23.4861 71.6593 24.4732 72.3377 25.3098 73.1802C26.18 74.0496 26.8907 75.065 27.4098 76.1802C27.9472 77.328 28.2854 78.559 28.4098 79.8203H29.3497C29.4394 79.8154 29.529 79.8287 29.6133 79.8596C29.6975 79.8906 29.7746 79.9385 29.8397 80.0002C29.9577 80.1394 30.0185 80.3181 30.0098 80.5002V81.7402C30.0246 81.8311 30.018 81.9243 29.9904 82.0122C29.9628 82.1001 29.915 82.1802 29.8508 82.2463C29.7867 82.3124 29.708 82.3626 29.621 82.3928C29.534 82.423 29.441 82.4323 29.3497 82.4202H28.3497C28.1954 83.6668 27.8373 84.8797 27.2898 86.0103C26.7613 87.0966 26.0548 88.0868 25.1997 88.9402C24.3613 89.7805 23.3748 90.4586 22.2898 90.9402C21.214 91.4021 20.0555 91.6404 18.8848 91.6404C17.714 91.6404 16.5555 91.4021 15.4797 90.9402C14.3948 90.4586 13.4081 89.7805 12.5697 88.9402C11.7085 88.0875 10.9954 87.0973 10.4597 86.0103C9.89817 84.883 9.52976 83.6694 9.36975 82.4202H8.36975C8.28001 82.4263 8.19002 82.4136 8.10559 82.3826C8.02116 82.3516 7.9442 82.303 7.87976 82.2402C7.81951 82.1724 7.77346 82.0932 7.74426 82.0073C7.71507 81.9215 7.70328 81.8307 7.70972 81.7402V80.5002C7.70541 80.4107 7.7192 80.3212 7.75012 80.2371C7.78104 80.1529 7.82851 80.0757 7.88977 80.0103C7.95991 79.9345 8.04784 79.8774 8.14563 79.8442C8.24343 79.8111 8.34793 79.8028 8.44971 79.8203ZM18.9497 89.0203C19.8097 89.0253 20.6623 88.8623 21.4597 88.5403C22.2399 88.2213 22.95 87.7523 23.5498 87.1602C24.1644 86.5518 24.6686 85.8414 25.0398 85.0603C25.4475 84.2278 25.724 83.3371 25.8597 82.4202H12.0598C12.1881 83.3363 12.4579 84.2271 12.8597 85.0603C13.2274 85.8409 13.7282 86.5514 14.3397 87.1602C14.9395 87.7523 15.6497 88.2213 16.4298 88.5403C17.2477 88.8619 18.1211 89.0182 18.9998 89.0002L18.9497 89.0203ZM18.9497 73.1602C18.082 73.1516 17.2216 73.3183 16.4198 73.6501C15.6378 73.9703 14.9273 74.4429 14.3297 75.0403C13.7148 75.6582 13.2077 76.3746 12.8297 77.1602C12.4292 78.0009 12.1595 78.8981 12.0298 79.8203H25.8597C25.7234 78.8971 25.4469 77.9999 25.0398 77.1602C24.6688 76.373 24.1648 75.6559 23.5498 75.0403C22.954 74.4454 22.2473 73.9731 21.4697 73.6501C20.6875 73.323 19.8476 73.1564 18.9998 73.1602H18.9497Z" fill="#ED057D"/>
<path d="M19 55.28L29.74 47.96C29.8238 47.8861 29.9288 47.8407 30.04 47.8301C30.04 47.8301 30.1099 47.9101 30.1099 48.0801V50.3301C30.0922 50.4846 30.0388 50.6327 29.9537 50.7629C29.8686 50.8931 29.7543 51.0018 29.62 51.0801L21.17 56.8C24.35 58.9267 27.1666 60.8267 29.62 62.5C29.7548 62.6042 29.8758 62.7253 29.9799 62.8601C30.0635 62.9654 30.1093 63.0956 30.1099 63.23V65.5C30.1099 65.66 30.11 65.74 30.04 65.74C29.9224 65.7239 29.8116 65.6755 29.7199 65.6001L18.9799 58.28L16.13 60.22L15.2099 60.8501C14.3299 61.4434 12.81 62.4766 10.65 63.95L8.31002 65.5701C8.18321 65.6571 8.04045 65.7182 7.88998 65.75C7.82998 65.75 7.80001 65.6101 7.80001 65.3301V63.4399C7.79032 63.2556 7.83185 63.0721 7.92001 62.9099C8.05219 62.73 8.21458 62.5744 8.39999 62.45L16.74 56.78L8.39999 51.0901C8.21435 50.9507 8.04939 50.7857 7.91 50.6001C7.82363 50.4408 7.78216 50.2611 7.79 50.0801V48.21C7.79 47.92 7.78997 47.77 7.87997 47.77C8.03198 47.7968 8.17578 47.8583 8.30001 47.95C9.46001 48.77 11.1267 49.9199 13.3 51.3999L19 55.28Z" fill="#ED057D"/>
<path d="M27.0799 44.8301L29.6299 45.8301C29.7581 45.8713 29.8694 45.9529 29.9469 46.063C30.0245 46.173 30.0643 46.3054 30.06 46.4399V48.0601C30.06 48.4101 29.9499 48.5901 29.7199 48.5901C29.6335 48.6003 29.5462 48.6003 29.4599 48.5901H29.3699L8.24991 39.8H8.15995C8.05337 39.7542 7.95785 39.686 7.87992 39.6001C7.80616 39.4805 7.77451 39.3396 7.78995 39.2V38.2C7.77451 38.0603 7.80616 37.9196 7.87992 37.8C7.96697 37.7158 8.06867 37.648 8.17997 37.6001H8.09989H8.20987L29.3699 28.8501H29.5199H29.7199C29.9499 28.8501 30.06 29.0299 30.06 29.3899V30.98C30.0686 31.1231 30.0289 31.265 29.9473 31.3828C29.8657 31.5007 29.7469 31.5876 29.6099 31.6299L28.5199 32.0601L27.0799 32.6201V44.8301ZM12.2099 38.4399V38.77C13.0099 39.11 14.0599 39.5401 15.3599 40.0601L15.7299 40.21L21.1599 42.4299L24.5099 43.78V33.5L12.2099 38.4399Z" fill="#ED057D"/>
<path d="M8.4499 22.4797H18.18C18.162 21.7701 17.951 21.0787 17.5699 20.4797C17.0151 19.615 16.2822 18.8786 15.42 18.3198L12.92 16.5798L12.5699 16.3398C11.6799 15.7298 10.9999 15.2399 10.5699 14.8699C10.1044 14.5246 9.67555 14.1324 9.28999 13.6997C8.83146 13.1945 8.46576 12.6122 8.20991 11.9797C7.94914 11.2858 7.8138 10.5511 7.81001 9.80981C7.79476 9.73448 7.7967 9.65674 7.81575 9.58228C7.8348 9.50781 7.87044 9.43839 7.92 9.37964C7.97868 9.32512 8.04816 9.28366 8.12398 9.25781C8.19979 9.23197 8.28017 9.22242 8.35994 9.22974H9.68001C9.84109 9.24555 9.99397 9.30805 10.1199 9.40967C10.1782 9.45623 10.2248 9.5158 10.2561 9.5835C10.2873 9.65119 10.3023 9.72528 10.3 9.7998C10.3729 10.5008 10.6433 11.1665 11.0799 11.7197C11.6893 12.5286 12.4215 13.2373 13.25 13.8198L15.65 15.5698L16.0899 15.8699L16.4899 16.1697C17.0766 16.5763 17.5066 16.9097 17.78 17.1697L29.78 6.96973L30.0899 6.75977V9.99976C30.0899 10.1798 29.9699 10.3498 29.7199 10.5098L19.6099 18.9597C20.2512 20.015 20.6317 21.208 20.7199 22.4397H29.43C29.5196 22.4348 29.6093 22.4483 29.6936 22.4792C29.7778 22.5102 29.8549 22.5581 29.92 22.6199C30.0382 22.7549 30.0991 22.9306 30.0899 23.1099V24.3599C30.103 24.45 30.0951 24.5418 30.0667 24.6284C30.0384 24.715 29.9904 24.7937 29.9265 24.8586C29.8625 24.9235 29.7845 24.9728 29.6983 25.0024C29.6122 25.0321 29.5203 25.0415 29.43 25.0298H8.43001C8.34027 25.0359 8.25015 25.023 8.16572 24.9919C8.08129 24.9609 8.00433 24.9126 7.93989 24.8499C7.87944 24.7842 7.83315 24.7069 7.80391 24.6226C7.77466 24.5383 7.76316 24.4488 7.76997 24.3599V23.1099C7.76349 22.9293 7.82805 22.7533 7.9499 22.6199C8.01915 22.5634 8.09935 22.5216 8.18538 22.4976C8.2714 22.4735 8.36141 22.4675 8.4499 22.4797Z" fill="#ED057D"/>
</svg>
