<svg width="279" height="158" viewBox="0 0 279 158" fill="none" xmlns="http://www.w3.org/2000/svg">
<path d="M116.13 145.86C108.977 146.014 101.974 143.799 96.2099 139.56C90.3458 135.073 85.5449 129.347 82.1499 122.79C78.2991 115.536 75.4978 107.772 73.8299 99.7301C72.0486 91.5156 71.1435 83.1354 71.1299 74.7301C71.1449 66.0339 72.0496 57.3622 73.8299 48.8502C75.4916 40.5398 78.3302 32.5088 82.2599 25.0001C85.7974 18.1594 90.8365 12.2077 96.9999 7.59017C103 3.17017 110.127 0.960047 118.38 0.960047C125.53 0.802071 132.532 3.01753 138.29 7.2601C144.151 11.7373 148.952 17.4533 152.35 24.0001C156.193 31.22 158.997 38.9462 160.68 46.95C162.455 55.0438 163.36 63.3041 163.38 71.5902C163.357 80.2099 162.452 88.8045 160.68 97.2401C158.991 105.614 156.15 113.715 152.24 121.31C148.751 128.254 143.752 134.329 137.61 139.09C131.69 143.604 124.53 145.86 116.13 145.86ZM120 140C126 140 130.837 136.96 134.51 130.88C138.183 124.8 140.85 116.89 142.51 107.15C144.215 96.7376 145.044 86.2008 144.99 75.65C144.999 67.3624 144.357 59.087 143.07 50.9C141.945 43.3718 139.982 35.9928 137.22 28.9C135.071 23.0617 131.784 17.7083 127.55 13.15C125.844 11.3022 123.773 9.82829 121.468 8.82138C119.163 7.81447 116.675 7.29656 114.16 7.30014C108.16 7.30014 103.397 10.2235 99.8699 16.0702C96.3432 21.9168 93.7932 29.6802 92.2198 39.3602C90.5938 49.7434 89.8046 60.2404 89.8599 70.7501C89.8571 79.12 90.4956 87.4778 91.7699 95.7501C92.8894 103.384 94.7756 110.885 97.3999 118.14C99.8666 124.807 102.98 130.14 106.74 134.14C108.408 136.001 110.454 137.486 112.74 138.496C115.026 139.506 117.501 140.019 120 140Z" fill="#ED057D"/>
<path d="M197.58 149.91C196.885 149.967 196.187 149.841 195.555 149.544C194.924 149.248 194.381 148.791 193.98 148.22C193.192 146.98 192.798 145.529 192.85 144.06C193.182 142.786 193.712 141.571 194.42 140.46C195.473 138.514 196.527 136.637 197.58 134.83L261.25 21.0002C261.534 20.6112 261.656 20.1272 261.59 19.6501C261.51 19.2001 260.65 18.9002 259 18.7502H201.4C198.137 18.6691 194.901 19.3541 191.95 20.7502C189.25 22.0836 186.627 24.857 184.08 29.0703C183.77 29.5203 183.36 30.2003 182.84 31.0703C182.308 31.9718 181.662 32.8018 180.92 33.5403C180.639 33.8688 180.295 34.138 179.909 34.332C179.523 34.5261 179.101 34.6409 178.67 34.6702C178.07 34.6702 177.67 34.2903 177.44 33.5403C177.229 32.8939 177.115 32.22 177.1 31.5403C177.114 30.6668 177.228 29.7977 177.44 28.9502C177.66 27.9502 177.85 27.1903 178 26.5903C178.753 23.257 179.467 19.4304 180.14 15.1104C180.813 10.7904 181.3 7.1903 181.6 4.3103C181.606 3.92327 181.699 3.5425 181.872 3.19629C182.045 2.85008 182.294 2.5473 182.6 2.3103C182.972 2.06369 183.397 1.90946 183.84 1.86035C184.14 1.86035 186.2 2.19035 190.03 2.86035C194.23 3.55945 198.483 3.89403 202.74 3.86035H209.15C211.15 3.86035 213.46 3.86021 216.01 3.97021C218.56 4.08021 221.56 4.09033 225.01 4.09033C232.343 4.09033 239.733 4.05021 247.18 3.97021C254.627 3.89021 261.077 3.74026 266.53 3.52026C271.997 3.30026 275.407 3.11354 276.76 2.96021C277.06 2.96021 277.36 3.3002 277.66 3.96021C277.942 4.56187 278.095 5.21577 278.11 5.88013C277.941 7.60057 277.365 9.25621 276.43 10.7102C275.3 12.7102 274.07 14.7102 272.72 16.7102C271.37 18.7102 270.31 20.3102 269.57 21.6602L201.84 143.83C201.24 145.03 200.49 146.344 199.59 147.77C198.7 149.19 198 149.91 197.58 149.91Z" fill="#ED057D"/>
<path d="M221.8 97.3506C217.555 90.7052 211.642 85.2884 204.65 81.6404C201.841 80.148 198.824 79.083 195.7 78.4805L196.13 75.3105C196.81 75.4005 212.78 77.7306 224.48 95.5906L221.8 97.3506Z" fill="#ED057D"/>
<path d="M217 87.1497L214 88.2297C212.67 84.4997 212.38 79.3297 212.34 72.7197H215.55C215.56 78.1397 215.76 83.6497 217 87.1497Z" fill="#ED057D"/>
<path d="M213.94 78.51L212.76 75.97C210.701 71.2016 209.551 66.0905 209.37 60.8999C208.9 51.8999 210.55 45.5801 213.93 43.5701C214.582 43.1631 215.336 42.9473 216.105 42.9473C216.874 42.9473 217.627 43.1631 218.28 43.5701C220.43 44.8701 221.64 47.99 221.43 51.71C220.76 63.71 218.94 71.29 215.54 76.22L213.94 78.51ZM215.55 46.3401C215.08 46.6401 211.96 49.08 212.55 60.73C212.71 64.4072 213.348 68.048 214.45 71.5601C217.11 65.7201 217.87 57.5601 218.21 51.5601C218.36 48.7401 217.48 46.8801 216.6 46.3501C216.452 46.2512 216.278 46.1982 216.1 46.1982C215.922 46.1982 215.748 46.2512 215.6 46.3501L215.55 46.3401Z" fill="#ED057D"/>
<path d="M195 79.9998C194.153 80.5421 193.164 80.8207 192.159 80.8006C191.153 80.7805 190.177 80.4623 189.352 79.8865C188.528 79.3108 187.893 78.5034 187.527 77.5665C187.162 76.6295 187.083 75.6052 187.301 74.6234C187.518 73.6415 188.022 72.7463 188.749 72.0511C189.475 71.3559 190.392 70.8919 191.382 70.7181C192.373 70.5442 193.393 70.6683 194.313 71.0745C195.232 71.4807 196.011 72.1507 196.55 72.9998C197.27 74.1344 197.511 75.508 197.221 76.8199C196.93 78.1318 196.132 79.2752 195 79.9998ZM191.27 74.1397C190.958 74.3385 190.712 74.6255 190.563 74.9642C190.414 75.3028 190.369 75.6779 190.433 76.0423C190.497 76.4067 190.668 76.7439 190.924 77.0111C191.18 77.2782 191.51 77.4632 191.871 77.543C192.232 77.6229 192.609 77.5937 192.954 77.4593C193.299 77.3249 193.596 77.0912 193.808 76.7879C194.019 76.4846 194.137 76.1251 194.144 75.7552C194.152 75.3853 194.049 75.0215 193.85 74.7098C193.585 74.3017 193.172 74.0129 192.698 73.9046C192.223 73.7963 191.726 73.877 191.31 74.1297L191.27 74.1397Z" fill="#ED057D"/>
<path d="M199.34 65.8505C198.493 66.3927 197.504 66.6714 196.499 66.6512C195.493 66.6311 194.517 66.3129 193.692 65.7372C192.868 65.1614 192.232 64.3541 191.867 63.4171C191.502 62.4801 191.423 61.4558 191.641 60.474C191.858 59.4922 192.362 58.5969 193.089 57.9017C193.815 57.2065 194.732 56.7426 195.722 56.5687C196.713 56.3949 197.732 56.5187 198.652 56.9249C199.572 57.3311 200.351 58.0014 200.89 58.8505C201.607 59.9857 201.847 61.3584 201.556 62.6695C201.266 63.9807 200.469 65.1241 199.34 65.8505ZM195.61 59.9904C195.298 60.1891 195.052 60.4759 194.903 60.8146C194.754 61.1532 194.708 61.5286 194.773 61.8929C194.837 62.2573 195.008 62.5943 195.264 62.8614C195.52 63.1286 195.85 63.3139 196.211 63.3937C196.572 63.4735 196.949 63.4444 197.294 63.3099C197.638 63.1755 197.936 62.9419 198.147 62.6385C198.359 62.3352 198.476 61.9757 198.484 61.6058C198.491 61.2359 198.389 60.8721 198.19 60.5604C197.921 60.1447 197.499 59.8524 197.015 59.7474C196.532 59.6425 196.026 59.7333 195.61 60.0004V59.9904Z" fill="#ED057D"/>
<path d="M212.23 82.6404L209.29 83.9304C205.2 74.6304 197.35 65.6405 197.29 65.5505L199.7 63.4404C200 63.8204 207.93 72.8704 212.23 82.6404Z" fill="#ED057D"/>
<path d="M30.2599 157.1C30.2656 157.265 30.2084 157.426 30.0999 157.55C29.9895 157.655 29.8423 157.713 29.6899 157.71H28.6899C28.6038 157.716 28.5174 157.702 28.4376 157.669C28.3578 157.636 28.2867 157.585 28.2299 157.52C28.1122 157.389 28.0512 157.216 28.0599 157.04C28.0609 156.728 27.978 156.42 27.8199 156.15C27.6578 155.861 27.4403 155.606 27.1799 155.4C26.9201 155.196 26.6299 155.034 26.3199 154.92C26.0318 154.813 25.7274 154.755 25.4199 154.75H8.3199C7.9699 154.75 7.79989 154.58 7.79989 154.25V139.78C7.79751 139.641 7.84746 139.505 7.9399 139.4C7.9818 139.348 8.03528 139.307 8.09603 139.279C8.15678 139.251 8.22312 139.238 8.28988 139.24H29.5799C29.9099 139.24 30.0699 139.42 30.0699 139.78V141.34C30.0801 141.407 30.0744 141.475 30.0534 141.539C30.0324 141.603 29.9966 141.662 29.9489 141.709C29.9012 141.757 29.8429 141.793 29.7788 141.814C29.7147 141.835 29.6466 141.841 29.5799 141.83H10.3799V152.15H25.3799C26.019 152.151 26.6502 152.291 27.2299 152.56C27.8175 152.83 28.3499 153.206 28.7999 153.67C29.2307 154.132 29.57 154.672 29.7999 155.26C30.0748 155.836 30.2313 156.462 30.2599 157.1Z" fill="#ED057D"/>
<path d="M27.0797 129.4L29.6297 130.4C29.7587 130.443 29.8702 130.527 29.9477 130.638C30.0252 130.75 30.0645 130.884 30.0597 131.02V132.64C30.0597 132.99 29.9496 133.16 29.7196 133.16H29.4597H29.3697L8.24967 124.37H8.15965C8.05383 124.327 7.9584 124.263 7.87968 124.18C7.80654 124.056 7.77496 123.913 7.78965 123.77V122.77C7.77496 122.627 7.80654 122.484 7.87968 122.36C7.96754 122.279 8.06913 122.215 8.17967 122.17H8.09965H8.20969L29.3697 113.43H29.5197H29.7196C29.9496 113.43 30.0597 113.61 30.0597 113.97V115.56C30.0678 115.702 30.0278 115.842 29.9461 115.958C29.8644 116.074 29.7458 116.16 29.6097 116.2L28.5197 116.64L27.0797 117.19V129.4ZM12.2097 123V123.33C13.0097 123.67 14.0597 124.1 15.3597 124.62L15.7297 124.77L21.1596 126.99L24.5097 128.34V118.07L12.2097 123Z" fill="#ED057D"/>
<path d="M8.27996 106.9H16.7899L7.91992 94.3202C7.83685 94.1737 7.79213 94.0086 7.78991 93.8402V92.2601C7.78527 92.1959 7.79452 92.1313 7.81695 92.0709C7.83938 92.0105 7.87446 91.9557 7.91992 91.91C7.9678 91.8648 8.02449 91.8301 8.08642 91.8077C8.14835 91.7854 8.21425 91.776 8.27996 91.7801H29.5699C29.6357 91.7703 29.7028 91.7758 29.766 91.7962C29.8292 91.8167 29.8868 91.8518 29.9343 91.8983C29.9818 91.9448 30.0179 92.0015 30.0397 92.0643C30.0615 92.1271 30.0684 92.1942 30.0599 92.2601V93.8102C30.0599 94.1702 29.8999 94.3502 29.5699 94.3502H11.2499L19.9399 106.9H29.5699C29.6357 106.89 29.7028 106.896 29.766 106.916C29.8292 106.937 29.8868 106.972 29.9343 107.018C29.9818 107.065 30.0179 107.122 30.0397 107.184C30.0615 107.247 30.0684 107.314 30.0599 107.38V108.93C30.0599 109.3 29.8999 109.48 29.5699 109.48H8.27996C8.2132 109.482 8.14681 109.469 8.08605 109.442C8.0253 109.414 7.97183 109.372 7.92992 109.32C7.8342 109.213 7.78395 109.073 7.78991 108.93V107.38C7.78527 107.316 7.79452 107.251 7.81695 107.191C7.83938 107.131 7.87446 107.076 7.91992 107.03C7.9678 106.985 8.02449 106.95 8.08642 106.928C8.14835 106.905 8.21425 106.896 8.27996 106.9ZM5.05993 101.22C5.05316 101.715 4.95132 102.204 4.75994 102.66C4.57895 103.106 4.31415 103.514 3.97991 103.86C3.6675 104.192 3.29403 104.46 2.87994 104.65C2.48295 104.839 2.04938 104.938 1.60992 104.94C1.53101 104.943 1.4525 104.928 1.37994 104.897C1.30737 104.866 1.24253 104.819 1.18993 104.76C1.13562 104.707 1.09261 104.643 1.06341 104.572C1.03421 104.502 1.01943 104.426 1.01995 104.35V103.35C1.01573 103.271 1.028 103.192 1.05602 103.118C1.08405 103.044 1.12717 102.976 1.18267 102.92C1.23818 102.864 1.30485 102.819 1.37841 102.79C1.45197 102.761 1.53081 102.747 1.60992 102.75C1.78764 102.752 1.9637 102.716 2.12597 102.643C2.28824 102.571 2.43289 102.464 2.54992 102.33C2.78955 102.004 2.91882 101.61 2.91882 101.205C2.91882 100.8 2.78955 100.406 2.54992 100.08C2.44952 99.9501 2.32075 99.8446 2.17346 99.7718C2.02616 99.6991 1.86424 99.6608 1.69994 99.66C1.21994 99.66 0.979913 99.4602 0.979913 99.0702V98.2001C0.974411 98.0104 1.02298 97.8231 1.11993 97.66C1.16896 97.587 1.23642 97.5282 1.31542 97.4896C1.39443 97.451 1.48221 97.4339 1.56994 97.44C2.01308 97.4383 2.45077 97.5375 2.84991 97.7301C3.26905 97.926 3.64867 98.1972 3.9699 98.5301C4.29839 98.8868 4.55932 99.3001 4.73992 99.7501C4.9386 100.215 5.0472 100.714 5.05993 101.22Z" fill="#ED057D"/>
<path d="M8.45002 75.8203H9.45002C9.6045 74.5565 9.96601 73.3266 10.52 72.1802C11.0461 71.0666 11.7599 70.0518 12.63 69.1802C13.4721 68.3351 14.4662 67.6565 15.56 67.1802C16.6427 66.7247 17.8054 66.4902 18.98 66.4902C20.1546 66.4902 21.3174 66.7247 22.4 67.1802C23.4864 67.6593 24.4734 68.3377 25.31 69.1802C26.1802 70.0496 26.8909 71.065 27.41 72.1802C27.9647 73.3249 28.3198 74.556 28.46 75.8203H29.4C29.4897 75.8154 29.5793 75.8287 29.6636 75.8596C29.7478 75.8906 29.8249 75.9385 29.89 76.0002C30.008 76.1394 30.0687 76.3181 30.06 76.5002V77.7402C30.0749 77.8311 30.0683 77.9243 30.0407 78.0122C30.0131 78.1001 29.9653 78.1802 29.9011 78.2463C29.837 78.3124 29.7582 78.3626 29.6712 78.3928C29.5842 78.423 29.4913 78.4323 29.4 78.4202H28.4C28.2457 79.6668 27.8876 80.8797 27.34 82.0103C26.8115 83.0966 26.1051 84.0868 25.25 84.9402C24.4116 85.7805 23.425 86.4586 22.34 86.9402C21.2643 87.4021 20.1057 87.6404 18.935 87.6404C17.7643 87.6404 16.6058 87.4021 15.53 86.9402C14.4451 86.4586 13.4584 85.7805 12.62 84.9402C11.7588 84.0875 11.0457 83.0973 10.51 82.0103C9.94847 80.883 9.58 79.6694 9.41999 78.4202H8.41999C8.33025 78.4263 8.24026 78.4136 8.15583 78.3826C8.0714 78.3516 7.99444 78.303 7.93 78.2402C7.86975 78.1724 7.8237 78.0932 7.7945 78.0073C7.76531 77.9215 7.75358 77.8307 7.76002 77.7402V76.5002C7.7557 76.4107 7.76938 76.3212 7.8003 76.2371C7.83122 76.1529 7.87874 76.0757 7.94001 76.0103C8.00497 75.9419 8.08466 75.8891 8.17304 75.8562C8.26142 75.8233 8.35616 75.8111 8.45002 75.8203ZM19 85.0002C19.86 85.0053 20.7126 84.8423 21.51 84.5203C22.2902 84.2012 23.0002 83.7323 23.6 83.1401C24.2146 82.5318 24.7188 81.8214 25.09 81.0403C25.4977 80.2078 25.7742 79.3171 25.91 78.4001H12.11C12.2383 79.3163 12.5082 80.207 12.91 81.0403C13.2776 81.8209 13.7785 82.5314 14.39 83.1401C14.9898 83.7323 15.6998 84.2012 16.48 84.5203C17.2809 84.8423 18.1368 85.0053 19 85.0002ZM19 69.1401C18.1323 69.1316 17.2718 69.2983 16.47 69.6301C15.688 69.9503 14.9776 70.4229 14.38 71.0203C13.7651 71.6381 13.258 72.3546 12.88 73.1401C12.4795 73.9809 12.2098 74.8781 12.08 75.8003H25.91C25.7736 74.8771 25.4971 73.9799 25.09 73.1401C24.7191 72.353 24.215 71.6359 23.6 71.0203C23.0042 70.4254 22.2976 69.953 21.52 69.6301C20.7209 69.3032 19.8633 69.1433 19 69.1602V69.1401Z" fill="#ED057D"/>
<path d="M19 51.2805L29.74 43.9604C29.8238 43.8866 29.9288 43.8412 30.04 43.8306C30.04 43.8306 30.11 43.9106 30.11 44.0806V46.3306C30.0923 46.4851 30.0388 46.6332 29.9537 46.7634C29.8686 46.8936 29.7544 47.0023 29.62 47.0806L21.17 52.8005C24.35 54.9272 27.1667 56.8272 29.62 58.5005C29.7549 58.6047 29.8758 58.7257 29.98 58.8606C30.0636 58.9659 30.1093 59.0961 30.11 59.2305V61.5005C30.11 61.6605 30.11 61.7405 30.04 61.7405C29.9224 61.7244 29.8116 61.676 29.72 61.6006L19 54.2805L16.15 56.2205L15.23 56.8506C14.35 57.4439 12.83 58.4771 10.67 59.9504L8.33004 61.5706C8.20323 61.6576 8.06047 61.7187 7.91 61.7505C7.85 61.7505 7.82003 61.6106 7.82003 61.3306V59.4404C7.81034 59.2561 7.85187 59.0726 7.94002 58.9104C8.07221 58.7305 8.2346 58.5749 8.42001 58.4504L16.76 52.7805L8.42001 47.0906C8.23437 46.9512 8.06941 46.7862 7.93002 46.6006C7.84365 46.4413 7.80218 46.2616 7.81002 46.0806V44.2104C7.81002 43.9204 7.81005 43.7705 7.90005 43.7705C8.05206 43.7973 8.1958 43.8588 8.32003 43.9504C9.48003 44.7704 11.1467 45.9204 13.32 47.4004L19 51.2805Z" fill="#ED057D"/>
<path d="M27.08 40.8306L29.63 41.8306C29.7582 41.8718 29.8695 41.9534 29.9471 42.0635C30.0246 42.1735 30.0643 42.3059 30.06 42.4404V44.0605C30.06 44.4105 29.9499 44.5906 29.7199 44.5906C29.6336 44.6008 29.5464 44.6008 29.46 44.5906H29.37L8.24997 35.8005H8.15994C8.05336 35.7547 7.95791 35.6865 7.87997 35.6006C7.80621 35.481 7.77451 35.3401 7.78995 35.2004V34.2004C7.77451 34.0608 7.80621 33.9201 7.87997 33.8005C7.96703 33.7162 8.06867 33.6485 8.17996 33.6006H8.09995H8.20999L29.37 24.8506H29.52H29.7199C29.9499 24.8506 30.06 25.0304 30.06 25.3904V26.9805C30.0686 27.1236 30.029 27.2654 29.9474 27.3833C29.8658 27.5012 29.7469 27.5881 29.61 27.6304L28.52 28.0605L27.08 28.6206V40.8306ZM12.21 34.4404V34.7705C13.01 35.1105 14.06 35.5405 15.36 36.0605L15.7299 36.2104L21.1599 38.4304L24.51 39.7805V29.5005L12.21 34.4404Z" fill="#ED057D"/>
<path d="M8.45016 18.4797H18.1801C18.1621 17.7701 17.9513 17.0787 17.5702 16.4797C17.0153 15.615 16.2823 14.8786 15.4201 14.3198L12.9201 12.5798L12.5702 12.3398C11.6802 11.7298 11.0002 11.2399 10.5202 10.8699C10.0546 10.5246 9.6257 10.1324 9.24014 9.69971C8.78161 9.19448 8.41597 8.61222 8.16012 7.97974C7.89935 7.28579 7.76395 6.55113 7.76015 5.80981C7.7449 5.73448 7.74684 5.65674 7.76589 5.58228C7.78494 5.50781 7.82059 5.43839 7.87014 5.37964C7.92882 5.32512 7.99837 5.28366 8.07418 5.25781C8.14999 5.23197 8.23038 5.22242 8.31014 5.22974H9.63015C9.79123 5.24555 9.94417 5.30805 10.0702 5.40967C10.1284 5.45623 10.175 5.5158 10.2062 5.5835C10.2374 5.65119 10.2525 5.72528 10.2501 5.7998C10.323 6.50077 10.5936 7.16653 11.0302 7.71973C11.6396 8.52861 12.3717 9.23727 13.2002 9.81982L15.6001 11.5698L16.0401 11.8699L16.4401 12.1697C17.0268 12.5763 17.4568 12.9097 17.7301 13.1697L29.7301 2.96973L30.0401 2.75977V5.99976C30.0401 6.17976 29.9201 6.34977 29.6701 6.50977L19.5802 14.9998C20.2214 16.0551 20.6019 17.248 20.6901 18.4797H29.4002C29.4898 18.4748 29.5795 18.4883 29.6637 18.5193C29.748 18.5502 29.825 18.5979 29.8902 18.6597C30.0084 18.7947 30.0694 18.9704 30.0601 19.1497V20.3997C30.0733 20.4898 30.0653 20.5819 30.0369 20.6685C30.0086 20.755 29.9606 20.8338 29.8966 20.8987C29.8327 20.9636 29.7546 21.0128 29.6685 21.0425C29.5823 21.0722 29.4905 21.0816 29.4002 21.0698H8.45016C8.36042 21.0759 8.27037 21.063 8.18594 21.032C8.10151 21.001 8.02461 20.9524 7.96017 20.8896C7.89972 20.824 7.85343 20.7467 7.82418 20.6624C7.79493 20.5781 7.78331 20.4886 7.79012 20.3997V19.1497C7.78364 18.9691 7.84826 18.7931 7.97012 18.6597C8.03374 18.5987 8.10916 18.5515 8.19167 18.5205C8.27419 18.4896 8.36213 18.4756 8.45016 18.4797Z" fill="#ED057D"/>
</svg>
