<svg width="260" height="162" viewBox="0 0 260 162" fill="none" xmlns="http://www.w3.org/2000/svg">
<path d="M108.25 145.86C101.1 146.015 94.0994 143.8 88.34 139.56C82.47 135.077 77.6651 129.35 74.27 122.79C70.4192 115.536 67.6179 107.772 65.95 99.73C64.1687 91.5155 63.2637 83.1353 63.25 74.73C63.265 66.0338 64.1697 57.3621 65.95 48.8501C67.6104 40.538 70.4527 32.5064 74.39 25C77.9171 18.147 82.9536 12.1839 89.12 7.56005C95.12 3.14005 102.247 0.929921 110.5 0.929921C117.651 0.770431 124.653 2.98604 130.41 7.22997C136.276 11.7103 141.078 17.434 144.47 23.99C148.313 31.2099 151.117 38.936 152.8 46.9399C154.575 55.0337 155.48 63.294 155.5 71.5801C155.477 80.1998 154.572 88.7944 152.8 97.23C151.115 105.606 148.275 113.706 144.36 121.3C140.874 128.243 135.879 134.319 129.74 139.08C123.807 143.6 116.643 145.86 108.25 145.86ZM112.07 140.01C118.07 140.01 122.91 136.97 126.59 130.89C130.27 124.81 132.937 116.9 134.59 107.16C136.295 96.7476 137.124 86.2107 137.07 75.6599C137.077 67.3728 136.438 59.0978 135.16 50.9099C134.025 43.3837 132.063 36.0057 129.31 28.9099C126.683 22.3099 123.457 17.0599 119.63 13.1599C117.924 11.3116 115.853 9.8375 113.549 8.83056C111.244 7.82361 108.755 7.30587 106.24 7.31005C100.24 7.31005 95.48 10.2334 91.96 16.0801C88.44 21.9267 85.8901 29.6901 84.3101 39.3701C82.6754 49.7525 81.8827 60.2499 81.9399 70.76C81.9355 79.1303 82.5774 87.4885 83.86 95.76C84.9763 103.393 86.8592 110.894 89.48 118.15C91.96 124.817 95.0733 130.15 98.8199 134.15C100.489 136.007 102.533 137.488 104.817 138.497C107.101 139.505 109.573 140.018 112.07 140V140.01Z" fill="#ED057D"/>
<path d="M215.57 145.86C208.834 145.893 202.179 144.392 196.11 141.47C190.232 138.706 185.158 134.486 181.37 129.21C177.599 123.889 175.63 117.501 175.75 110.98C175.574 104.941 177.391 99.0132 180.92 94.11C184.283 89.5435 188.439 85.6178 193.19 82.5199C197.91 79.4466 202.147 76.8599 205.9 74.7599C206.9 74.1599 207.32 73.7098 207.02 73.4098C206.72 73.1098 206.12 72.58 205.22 71.83C200.72 67.93 196.483 64.2165 192.51 60.6899C188.632 57.2931 185.359 53.2625 182.83 48.7699C180.363 44.3499 179.127 38.9865 179.12 32.6798C179.128 26.7836 181.29 21.0935 185.2 16.6798C189.443 11.7333 194.748 7.80897 200.72 5.19986C206.788 2.4025 213.388 0.946067 220.07 0.929845C226.01 0.913462 231.884 2.17888 237.29 4.63981C242.555 6.9512 247.156 10.5481 250.67 15.1C254.156 19.6945 255.981 25.3345 255.85 31.1C255.85 36.5 254.517 40.8866 251.85 44.2599C249.468 47.2923 246.832 50.1159 243.97 52.6999C241.87 54.4999 239.997 56.0366 238.35 57.31C236.703 58.5833 234.603 60.1965 232.05 62.1498C230.05 63.4998 229.12 64.4399 229.12 64.9599C229.12 65.4799 229.72 66.12 230.92 66.87C236.155 70.4153 241.189 74.2478 246 78.35C250.084 81.7841 253.547 85.8937 256.24 90.4999C258.796 95.1869 260.075 100.463 259.95 105.8C260.067 113.224 257.776 120.487 253.42 126.5C249.06 132.445 243.373 137.29 236.81 140.649C230.248 144.008 222.992 145.789 215.62 145.85L215.57 145.86ZM218.72 139.33C221.843 139.392 224.942 138.77 227.8 137.507C230.657 136.244 233.203 134.371 235.26 132.02C239.014 127.949 241.315 122.751 241.803 117.235C242.292 111.719 240.94 106.197 237.96 101.53C235.184 97.1533 231.819 93.1794 227.96 89.7199C223.985 86.1119 219.776 82.7712 215.36 79.7199C214.627 79.0764 213.837 78.5008 213 77.9999C212.35 77.6336 211.616 77.4407 210.87 77.4399C209.861 77.6272 208.925 78.0952 208.17 78.79C203.921 82.0803 200.268 86.0749 197.37 90.6C194.97 94.6 193.77 100.187 193.77 107.36C193.759 112.564 194.75 117.721 196.69 122.55C198.494 127.201 201.433 131.326 205.24 134.55C209.005 137.726 213.795 139.425 218.72 139.33ZM225.92 62.1598C231.173 57.8132 234.587 53.0133 236.16 47.7599C237.823 41.8291 238.618 35.6887 238.52 29.5299C238.666 23.7205 236.976 18.0131 233.69 13.2199C230.457 8.65322 225.543 6.36669 218.95 6.36002C215.304 6.41251 211.736 7.41919 208.6 9.27994C205.158 11.2228 202.198 13.916 199.94 17.1598C197.643 20.3656 196.422 24.2165 196.45 28.1598C196.45 33.8598 197.537 38.3598 199.71 41.6598C202.178 45.2571 205.311 48.3493 208.94 50.7699C212.94 53.5499 217.55 57.1132 222.77 61.4599C223.266 61.7807 223.796 62.0457 224.35 62.2499C224.599 62.3659 224.872 62.4182 225.146 62.4025C225.42 62.3868 225.686 62.3034 225.92 62.1598Z" fill="#ED057D"/>
<path d="M133.52 104.64L129.85 101.58C128.278 101.505 126.703 101.562 125.14 101.75C121.37 102.05 117.14 102.4 114.14 101.27C109.5 99.48 105.84 97.6901 100.93 90.8601C94.2001 81.4801 93.7 68.86 93.46 62.73C93.46 61.73 93.38 60.7799 93.33 60.1699C92.9478 57.301 92.0894 54.5161 90.79 51.9299L88.79 48L93.15 48.75C109.51 51.56 121.15 60.39 127.88 75.01C132.46 85.01 133.24 99.0099 133.27 99.6299L133.52 104.64ZM96.4 53.9399C97.0697 55.8349 97.516 57.8017 97.73 59.8C97.8 60.53 97.83 61.4801 97.88 62.5901C98.12 68.6801 98.57 80.0201 104.53 88.3401C108.75 94.2101 111.59 95.61 115.75 97.21C117.75 97.98 121.65 97.6699 124.75 97.4099C126.31 97.2899 127.58 97.1899 128.63 97.1799C128.18 92.6999 126.94 83.6001 123.86 76.8601C118.4 64.8301 109.16 57.1399 96.4 53.9099V53.9399Z" fill="#ED057D"/>
<path d="M136.9 116C124.78 81.8602 92.7199 53.7502 92.3999 53.4702L95.2699 50.1602C96.6199 51.3402 128.52 79.2903 141.03 114.54L136.9 116Z" fill="#ED057D"/>
<path d="M30.2598 161.1C30.2655 161.265 30.2083 161.426 30.0998 161.55C29.9895 161.655 29.8422 161.713 29.6898 161.71H28.6898C28.6036 161.716 28.5174 161.702 28.4376 161.669C28.3578 161.636 28.2867 161.585 28.2298 161.52C28.1122 161.389 28.0512 161.216 28.0599 161.04C28.0609 160.728 27.9779 160.42 27.8198 160.15C27.6577 159.861 27.4403 159.606 27.1799 159.4C26.9201 159.196 26.6298 159.034 26.3198 158.92C26.0317 158.813 25.7274 158.755 25.4199 158.75H8.31978C7.96978 158.75 7.79989 158.58 7.79989 158.25V143.78C7.79751 143.641 7.84734 143.505 7.93978 143.4C7.98168 143.348 8.03515 143.307 8.09591 143.279C8.15666 143.251 8.22312 143.238 8.28988 143.24H29.5798C29.9098 143.24 30.0698 143.42 30.0698 143.78V145.34C30.08 145.407 30.0743 145.475 30.0533 145.539C30.0323 145.603 29.9965 145.662 29.9488 145.709C29.9011 145.757 29.8429 145.793 29.7788 145.814C29.7147 145.835 29.6465 145.841 29.5798 145.83H10.3899V156.15H25.3899C26.0289 156.151 26.6602 156.291 27.2398 156.56C27.8275 156.83 28.36 157.206 28.8099 157.67C29.2586 158.128 29.615 158.668 29.8598 159.26C30.1141 159.841 30.2501 160.467 30.2598 161.1Z" fill="#ED057D"/>
<path d="M27.0801 133.4L29.6301 134.4C29.7591 134.443 29.8707 134.527 29.9482 134.638C30.0257 134.75 30.065 134.884 30.0602 135.02V136.64C30.0602 136.99 29.9501 137.16 29.7201 137.16H29.4601H29.3701L8.2501 128.37H8.16014C8.05433 128.327 7.95883 128.263 7.88011 128.18C7.80697 128.056 7.77545 127.913 7.79014 127.77V126.77C7.77545 126.627 7.80697 126.484 7.88011 126.36C7.96797 126.279 8.06962 126.215 8.18016 126.17H8.10008H8.21006L29.3701 117.43H29.5201H29.7201C29.9501 117.43 30.0602 117.61 30.0602 117.97V119.56C30.0683 119.702 30.0282 119.842 29.9465 119.958C29.8648 120.074 29.7463 120.16 29.6101 120.2L28.5201 120.64L27.0801 121.19V133.4ZM12.2101 127.01V127.34C13.0101 127.68 14.0601 128.11 15.3601 128.63L15.7301 128.78L21.1601 131L24.5101 132.35V122.08L12.2101 127.01Z" fill="#ED057D"/>
<path d="M8.27996 110.9H16.79L7.91998 98.3202C7.83692 98.1737 7.7922 98.0086 7.78997 97.8402V96.2601C7.78533 96.1959 7.79452 96.1313 7.81695 96.0709C7.83938 96.0105 7.87452 95.9557 7.91998 95.91C7.96786 95.8648 8.02443 95.8301 8.08636 95.8077C8.14829 95.7854 8.21425 95.776 8.27996 95.7801H29.5699C29.6356 95.7703 29.7028 95.7758 29.766 95.7962C29.8293 95.8167 29.8869 95.8518 29.9344 95.8983C29.9819 95.9448 30.0178 96.0015 30.0396 96.0643C30.0614 96.1271 30.0684 96.1942 30.06 96.2601V97.8102C30.06 98.1702 29.8999 98.3502 29.5699 98.3502H11.2499L19.9399 110.9H29.5699C29.6356 110.89 29.7028 110.896 29.766 110.916C29.8293 110.937 29.8869 110.972 29.9344 111.018C29.9819 111.065 30.0178 111.122 30.0396 111.184C30.0614 111.247 30.0684 111.314 30.06 111.38V112.93C30.06 113.3 29.8999 113.48 29.5699 113.48H8.27996C8.2132 113.482 8.14674 113.469 8.08599 113.442C8.02524 113.414 7.97189 113.372 7.92999 113.32C7.83426 113.213 7.78401 113.073 7.78997 112.93V111.38C7.78533 111.316 7.79452 111.251 7.81695 111.191C7.83938 111.131 7.87452 111.076 7.91998 111.03C7.96786 110.985 8.02443 110.95 8.08636 110.928C8.14829 110.905 8.21425 110.896 8.27996 110.9ZM5.05999 105.22C5.05322 105.715 4.95132 106.204 4.75994 106.66C4.57895 107.106 4.31415 107.514 3.97991 107.86C3.6675 108.192 3.29403 108.46 2.87994 108.65C2.48295 108.839 2.04938 108.938 1.60992 108.94C1.53101 108.943 1.4525 108.928 1.37994 108.897C1.30737 108.866 1.24247 108.819 1.18987 108.76C1.13556 108.707 1.09261 108.643 1.06341 108.572C1.03421 108.502 1.01943 108.426 1.01995 108.35V107.35C1.01573 107.271 1.02806 107.192 1.05608 107.118C1.08411 107.044 1.12717 106.976 1.18267 106.92C1.23818 106.864 1.30492 106.819 1.37847 106.79C1.45203 106.761 1.53081 106.747 1.60992 106.75C1.78764 106.752 1.96376 106.716 2.12603 106.643C2.28831 106.571 2.43295 106.464 2.54998 106.33C2.78961 106.004 2.91876 105.61 2.91876 105.205C2.91876 104.8 2.78961 104.406 2.54998 104.08C2.44958 103.95 2.32081 103.845 2.17352 103.772C2.02622 103.699 1.86418 103.661 1.69988 103.66C1.21988 103.66 0.979913 103.46 0.979913 103.07V102.2C0.974411 102.01 1.02298 101.823 1.11993 101.66C1.16896 101.587 1.23635 101.528 1.31536 101.49C1.39437 101.451 1.48215 101.434 1.56988 101.44C2.01302 101.438 2.45077 101.538 2.84991 101.73C3.26905 101.926 3.64867 102.197 3.9699 102.53C4.29839 102.887 4.55932 103.3 4.73992 103.75C4.9386 104.215 5.04726 104.714 5.05999 105.22Z" fill="#ED057D"/>
<path d="M8.44971 79.8203H9.44971C9.60419 78.5565 9.96576 77.3266 10.5198 76.1802C11.0459 75.0666 11.7596 74.0518 12.6298 73.1802C13.4719 72.3351 14.466 71.6565 15.5598 71.1802C16.6425 70.7247 17.8052 70.4902 18.9797 70.4902C20.1543 70.4902 21.3171 70.7247 22.3998 71.1802C23.4861 71.6593 24.4732 72.3377 25.3098 73.1802C26.18 74.0496 26.8907 75.065 27.4098 76.1802C27.9472 77.328 28.2854 78.559 28.4098 79.8203H29.3497C29.4394 79.8154 29.529 79.8287 29.6133 79.8596C29.6975 79.8906 29.7746 79.9385 29.8397 80.0002C29.9577 80.1394 30.0185 80.3181 30.0098 80.5002V81.7402C30.0246 81.8311 30.018 81.9243 29.9904 82.0122C29.9628 82.1001 29.915 82.1802 29.8508 82.2463C29.7867 82.3124 29.708 82.3626 29.621 82.3928C29.534 82.423 29.441 82.4323 29.3497 82.4202H28.3497C28.1954 83.6668 27.8373 84.8797 27.2898 86.0103C26.7613 87.0966 26.0548 88.0868 25.1997 88.9402C24.3613 89.7805 23.3748 90.4586 22.2898 90.9402C21.214 91.4021 20.0555 91.6404 18.8848 91.6404C17.714 91.6404 16.5555 91.4021 15.4797 90.9402C14.3948 90.4586 13.4081 89.7805 12.5697 88.9402C11.7085 88.0875 10.9954 87.0973 10.4597 86.0103C9.89817 84.883 9.52976 83.6694 9.36975 82.4202H8.36975C8.28001 82.4263 8.19002 82.4136 8.10559 82.3826C8.02116 82.3516 7.9442 82.303 7.87976 82.2402C7.81951 82.1724 7.77346 82.0932 7.74426 82.0073C7.71507 81.9215 7.70328 81.8307 7.70972 81.7402V80.5002C7.70541 80.4107 7.7192 80.3212 7.75012 80.2371C7.78104 80.1529 7.82851 80.0757 7.88977 80.0103C7.95991 79.9345 8.04784 79.8774 8.14563 79.8442C8.24343 79.8111 8.34793 79.8028 8.44971 79.8203ZM18.9497 89.0203C19.8097 89.0253 20.6623 88.8623 21.4597 88.5403C22.2399 88.2213 22.95 87.7523 23.5498 87.1602C24.1644 86.5518 24.6686 85.8414 25.0398 85.0603C25.4475 84.2278 25.724 83.3371 25.8597 82.4202H12.0598C12.1881 83.3363 12.4579 84.2271 12.8597 85.0603C13.2274 85.8409 13.7282 86.5514 14.3397 87.1602C14.9395 87.7523 15.6497 88.2213 16.4298 88.5403C17.2477 88.8619 18.1211 89.0182 18.9998 89.0002L18.9497 89.0203ZM18.9497 73.1602C18.082 73.1516 17.2216 73.3183 16.4198 73.6501C15.6378 73.9703 14.9273 74.4429 14.3297 75.0403C13.7148 75.6582 13.2077 76.3746 12.8297 77.1602C12.4292 78.0009 12.1595 78.8981 12.0298 79.8203H25.8597C25.7234 78.8971 25.4469 77.9999 25.0398 77.1602C24.6688 76.373 24.1648 75.6559 23.5498 75.0403C22.954 74.4454 22.2473 73.9731 21.4697 73.6501C20.6875 73.323 19.8476 73.1564 18.9998 73.1602H18.9497Z" fill="#ED057D"/>
<path d="M19 55.2805L29.74 47.9604C29.8238 47.8866 29.9288 47.8412 30.04 47.8306C30.04 47.8306 30.1099 47.9106 30.1099 48.0806V50.3306C30.0922 50.4851 30.0388 50.6332 29.9537 50.7634C29.8686 50.8936 29.7543 51.0023 29.62 51.0806L21.17 56.8005C24.35 58.9272 27.1666 60.8272 29.62 62.5005C29.7548 62.6047 29.8758 62.7257 29.9799 62.8606C30.0635 62.9659 30.1093 63.0961 30.1099 63.2305V65.5005C30.1099 65.6605 30.11 65.7405 30.04 65.7405C29.9224 65.7244 29.8116 65.676 29.7199 65.6006L18.9799 58.2805L16.13 60.2205L15.2099 60.8506C14.3299 61.4439 12.81 62.4771 10.65 63.9504L8.31002 65.5706C8.18321 65.6576 8.04045 65.7187 7.88998 65.7505C7.82998 65.7505 7.80001 65.6106 7.80001 65.3306V63.4404C7.79032 63.2561 7.83185 63.0726 7.92001 62.9104C8.05219 62.7305 8.21458 62.5749 8.39999 62.4504L16.74 56.7805L8.39999 51.0906C8.21435 50.9512 8.04939 50.7862 7.91 50.6006C7.82363 50.4413 7.78216 50.2616 7.79 50.0806V48.2104C7.79 47.9204 7.78997 47.7705 7.87997 47.7705C8.03198 47.7973 8.17578 47.8588 8.30001 47.9504C9.46001 48.7704 11.1267 49.9204 13.3 51.4004L19 55.2805Z" fill="#ED057D"/>
<path d="M27.0799 44.8306L29.6299 45.8306C29.7581 45.8718 29.8694 45.9534 29.9469 46.0635C30.0245 46.1735 30.0643 46.3059 30.06 46.4404V48.0605C30.06 48.4105 29.9499 48.5906 29.7199 48.5906C29.6335 48.6008 29.5462 48.6008 29.4599 48.5906H29.3699L8.24991 39.8005H8.15995C8.05337 39.7547 7.95785 39.6865 7.87992 39.6006C7.80616 39.481 7.77451 39.3401 7.78995 39.2004V38.2004C7.77451 38.0608 7.80616 37.9201 7.87992 37.8005C7.96697 37.7162 8.06867 37.6485 8.17997 37.6006H8.09989H8.20987L29.3699 28.8506H29.5199H29.7199C29.9499 28.8506 30.06 29.0304 30.06 29.3904V30.9805C30.0686 31.1236 30.0289 31.2654 29.9473 31.3833C29.8657 31.5012 29.7469 31.5881 29.6099 31.6304L28.5199 32.0605L27.0799 32.6206V44.8306ZM12.2099 38.4404V38.7705C13.0099 39.1105 14.0599 39.5405 15.3599 40.0605L15.7299 40.2104L21.1599 42.4304L24.5099 43.7805V33.5005L12.2099 38.4404Z" fill="#ED057D"/>
<path d="M8.4499 22.4797H18.18C18.162 21.7701 17.951 21.0787 17.5699 20.4797C17.0151 19.615 16.2822 18.8786 15.42 18.3198L12.92 16.5798L12.5699 16.3398C11.6799 15.7298 10.9999 15.2399 10.5699 14.8699C10.1044 14.5246 9.67555 14.1324 9.28999 13.6997C8.83146 13.1945 8.46576 12.6122 8.20991 11.9797C7.94914 11.2858 7.8138 10.5511 7.81001 9.80981C7.79476 9.73448 7.7967 9.65674 7.81575 9.58228C7.8348 9.50781 7.87044 9.43839 7.92 9.37964C7.97868 9.32512 8.04816 9.28366 8.12398 9.25781C8.19979 9.23197 8.28017 9.22242 8.35994 9.22974H9.68001C9.84109 9.24555 9.99397 9.30805 10.1199 9.40967C10.1782 9.45623 10.2248 9.5158 10.2561 9.5835C10.2873 9.65119 10.3023 9.72528 10.3 9.7998C10.3729 10.5008 10.6433 11.1665 11.0799 11.7197C11.6893 12.5286 12.4215 13.2373 13.25 13.8198L15.65 15.5698L16.0899 15.8699L16.4899 16.1697C17.0766 16.5763 17.5066 16.9097 17.78 17.1697L29.78 6.96973L30.0899 6.75977V9.99976C30.0899 10.1798 29.9699 10.3498 29.7199 10.5098L19.6099 18.9597C20.2512 20.015 20.6317 21.208 20.7199 22.4397H29.43C29.5196 22.4348 29.6093 22.4483 29.6936 22.4792C29.7778 22.5102 29.8549 22.5581 29.92 22.6199C30.0382 22.7549 30.0991 22.9306 30.0899 23.1099V24.3599C30.103 24.45 30.0951 24.5418 30.0667 24.6284C30.0384 24.715 29.9904 24.7937 29.9265 24.8586C29.8625 24.9235 29.7845 24.9728 29.6983 25.0024C29.6122 25.0321 29.5203 25.0415 29.43 25.0298H8.43001C8.34027 25.0359 8.25015 25.023 8.16572 24.9919C8.08129 24.9609 8.00433 24.9126 7.93989 24.8499C7.87944 24.7842 7.83315 24.7069 7.80391 24.6226C7.77466 24.5383 7.76316 24.4488 7.76997 24.3599V23.1099C7.76349 22.9293 7.82805 22.7533 7.9499 22.6199C8.01915 22.5634 8.09935 22.5216 8.18538 22.4976C8.2714 22.4735 8.36141 22.4675 8.4499 22.4797Z" fill="#ED057D"/>
</svg>
