<svg width="441" height="132" viewBox="0 0 441 132" fill="none" xmlns="http://www.w3.org/2000/svg">
<g clip-path="url(#clip0)">
<path d="M8.34039 76.6712C6.77242 76.6712 5.53806 76.0022 4.53722 74.7311C3.56975 73.4264 3.06934 72.0215 3.06934 70.5162C3.06934 70.1147 3.23614 69.7133 3.60311 69.3453C3.93672 68.9774 4.23697 68.7767 4.43714 68.7767C4.77075 68.7767 5.33789 68.9439 6.13856 69.245C6.90586 69.5461 7.87333 69.8471 9.04097 70.1816C10.1752 70.5162 11.443 70.6834 12.7774 70.6834C15.4129 70.6834 17.7482 70.0813 19.7499 68.877C21.7515 67.6728 23.3529 66.1674 24.5539 64.3611C24.7874 64.0265 24.9208 63.6251 24.8875 63.2237C24.8541 62.8223 24.7874 62.3874 24.6873 61.8856L18.749 34.9236C18.3154 32.8831 17.7816 31.3443 17.1811 30.3408C16.5806 29.3372 15.88 28.6347 15.1127 28.2668C14.3454 27.8988 13.5114 27.6646 12.6106 27.5643C11.91 27.4639 11.3762 27.2632 11.0426 26.9287C10.6757 26.5942 10.5089 26.2597 10.5089 25.9252C10.5089 25.6241 10.8091 25.4234 11.3762 25.2896C11.9434 25.1558 12.5439 25.0889 13.1444 25.0889C13.845 25.0889 14.6123 25.1223 15.4797 25.1558C16.3137 25.2227 17.2144 25.2561 18.1819 25.2561C19.116 25.2896 20.1168 25.2896 21.1844 25.2896C22.0184 25.2896 22.8525 25.2896 23.6198 25.2561C24.3871 25.2227 25.121 25.2227 25.7882 25.1892C26.4555 25.1558 27.056 25.1558 27.5564 25.1558C28.1569 25.1558 28.5906 25.2227 28.8575 25.3565C29.1243 25.4903 29.2578 25.691 29.2578 25.9921C29.2578 26.36 29.0243 26.6611 28.5572 26.9287C28.0901 27.1963 27.3896 27.397 26.4888 27.4974C25.2878 27.5977 24.4872 27.8653 24.0535 28.3337C23.6198 28.802 23.6198 30.0397 24.0201 32.0803L28.9909 54.727C29.091 55.1284 29.1911 55.4629 29.2578 55.764C29.3245 56.0651 29.4913 56.2323 29.7582 56.2323C29.9917 56.2323 30.1919 56.0985 30.3587 55.8309C30.5255 55.5633 30.6923 55.2622 30.8925 54.9612L44.5372 33.8866C45.6714 32.1472 46.0384 30.6753 45.6047 29.5379C45.171 28.4006 44.3036 27.7315 43.0359 27.5643C42.5355 27.4639 42.1018 27.2632 41.7682 26.9956C41.4012 26.728 41.2344 26.3935 41.2344 26.059C41.2344 25.7579 41.4679 25.5572 41.9016 25.4234C42.3687 25.2896 42.8691 25.2227 43.4696 25.2227C44.5038 25.2227 45.4713 25.2227 46.372 25.2561C47.2394 25.2896 48.2402 25.2896 49.3412 25.2896C50.7757 25.2896 52.1768 25.2561 53.5113 25.1892C54.8457 25.1223 55.9133 25.0889 56.714 25.0889C57.3145 25.0889 57.7481 25.1558 58.015 25.2896C58.2819 25.4234 58.4154 25.6241 58.4154 25.9252C58.4154 26.2931 58.1818 26.5607 57.7148 26.7949C57.2477 27.0291 56.5805 27.2298 55.7131 27.4305C54.412 27.6981 53.111 28.2668 51.7765 29.2034C50.4421 30.1401 49.2077 31.4112 48.0734 33.0838L28.2903 62.8892C26.2219 66.0002 24.1202 68.576 21.9183 70.65C19.7165 72.724 17.4813 74.2293 15.2128 75.1994C12.9109 76.1695 10.6423 76.6712 8.34039 76.6712Z" fill="white"/>
<path d="M40.3005 75.2325C39.9669 75.2325 39.5332 75.0318 39.0661 74.6303C38.5991 74.2289 38.1654 73.7606 37.765 73.1919C37.3647 72.6567 37.1646 72.1549 37.1646 71.7535C37.1646 71.2183 37.2313 70.75 37.3981 70.3485C37.5315 69.9806 37.8318 69.7799 38.2988 69.7799C41.1012 69.7799 43.1695 69.4788 44.504 68.8432C45.8384 68.2076 46.8059 67.1372 47.4731 65.6319C48.5407 63.2233 49.5415 60.38 50.5423 57.1352C51.5432 53.8903 52.4439 50.8128 53.2446 47.9694C53.6449 47.1331 54.0119 46.3637 54.3789 45.7616C54.7125 45.126 55.0794 44.6242 55.4464 44.2228C55.78 43.8214 56.1804 43.5203 56.6141 43.2862C57.0477 43.052 57.5482 42.9517 58.1487 42.9517C58.4489 42.9517 58.5824 43.2862 58.5824 43.9552C58.5824 44.6242 58.6157 45.3602 58.6491 46.163L60.9844 65.197C61.0177 65.3977 61.1512 65.498 61.2846 65.5315C61.4514 65.565 61.5515 65.4981 61.6516 65.3308L71.6933 51.1808C73.1278 49.1402 74.4956 47.5011 75.6966 46.2968C76.9309 45.0926 78.0319 44.2228 79.0327 43.6876C80.0335 43.1524 80.9009 42.8848 81.6682 42.8848C82.0018 42.8848 82.3021 42.9517 82.5022 43.0855C82.7024 43.2193 82.8025 43.3865 82.8359 43.6207C82.8692 43.8549 82.7691 44.089 82.569 44.3232C82.3021 44.6912 82.0018 45.1929 81.6349 45.8285C81.2679 46.4975 80.9343 47.2669 80.634 48.1701L74.5623 67.0703C74.1953 68.0738 74.0619 68.8098 74.0619 69.2781C74.0953 69.7464 74.3288 69.9806 74.7625 69.9806C75.363 69.9806 76.0636 69.7799 76.8976 69.3784C77.7316 68.977 78.5656 68.4752 79.3663 67.9066C80.2003 67.3379 80.9009 66.8027 81.5348 66.3009C82.1686 65.7991 82.569 65.4646 82.7691 65.2639C82.8025 65.2304 82.9026 65.197 83.0027 65.197C83.1695 65.197 83.3029 65.2639 83.4364 65.3977C83.6032 65.5315 83.6699 65.6988 83.6699 65.8995C83.6699 66.3009 83.3696 66.8696 82.7691 67.639C82.1686 68.3749 81.368 69.2112 80.4005 70.0809C79.433 70.9507 78.3655 71.787 77.1978 72.5563C76.0302 73.3257 74.8959 73.9613 73.795 74.4631C72.6941 74.9649 71.6933 75.199 70.8259 75.199C70.4589 75.199 70.0919 75.0318 69.6249 74.6638C69.1578 74.2958 68.7908 73.8944 68.4906 73.3926C68.1903 72.8909 68.1236 72.4225 68.2571 71.9542L75.3963 51.0135C75.5965 50.4783 75.6299 50.1103 75.4964 49.9765C75.363 49.8427 75.1294 49.9765 74.7958 50.4448L59.6166 72.4894C59.2496 73.0581 58.916 73.5264 58.5156 73.9279C58.1487 74.3293 57.8151 74.53 57.5148 74.53C57.2146 74.53 57.0144 74.3627 56.9477 73.9948C56.8809 73.6602 56.8142 73.2923 56.7475 72.9578L54.8126 51.348C54.8126 51.1808 54.7458 51.1139 54.6458 51.1139C54.5457 51.1139 54.4456 51.2811 54.3455 51.5822C53.3113 55.7971 52.2771 59.4099 51.3096 62.3871C50.3422 65.3642 49.308 67.8062 48.2404 69.6795C47.1729 71.5528 45.9719 72.9578 44.6708 73.861C43.4364 74.7641 41.9685 75.2325 40.3005 75.2325Z" fill="white"/>
<path d="M94.3449 75.2996C93.3107 75.2996 92.2431 74.8982 91.1422 74.0953C90.0747 73.2925 89.1739 72.2889 88.4733 71.0512C87.7727 69.8135 87.4058 68.6427 87.4058 67.4719C87.4058 64.963 87.9062 62.2869 88.9404 59.4435C89.9746 56.6001 91.3757 53.9575 93.1772 51.4486C94.9787 48.9732 97.0805 46.9326 99.4491 45.3604C101.818 43.7882 104.353 42.9854 106.989 42.9854C108.723 42.9854 110.091 43.3533 111.092 44.0893C112.06 44.8252 112.56 45.8287 112.56 47.1333C112.56 48.7056 112.06 50.0436 111.092 51.181C110.125 52.3518 108.79 53.3219 107.156 54.1582C105.487 54.9945 103.653 55.6635 101.651 56.2322C99.6159 56.8009 97.5475 57.2692 95.4458 57.6706C95.1455 57.7375 94.912 57.771 94.7452 57.8713C94.5784 57.9382 94.4449 58.1389 94.3449 58.44C93.9779 59.5439 93.6443 60.7481 93.3107 62.0528C92.9437 63.3574 92.7769 64.5951 92.7769 65.7324C92.7769 67.5054 93.1105 68.8434 93.7777 69.8135C94.4449 70.7836 95.4458 71.2519 96.7469 71.2519C98.5484 71.2519 100.083 70.7836 101.317 69.8804C102.552 68.9772 103.586 68.074 104.387 67.1709C104.887 66.6356 105.321 66.3346 105.721 66.3346C106.221 66.3346 106.455 66.6022 106.455 67.0705C106.455 67.1374 106.455 67.2043 106.455 67.3381C106.455 67.4719 106.388 67.5723 106.288 67.6726C105.287 69.3452 104.153 70.7167 102.919 71.8541C101.651 72.9914 100.316 73.8277 98.9153 74.3964C97.5475 74.9985 96.0129 75.2996 94.3449 75.2996ZM96.0129 55.9646C96.5467 55.9646 97.5142 55.7973 98.8152 55.4628C100.15 55.1283 101.517 54.6265 102.985 53.8906C104.42 53.1546 105.688 52.2514 106.688 51.181C107.723 50.1105 108.223 48.8059 108.223 47.3006C108.223 46.665 108.056 46.0964 107.689 45.5946C107.322 45.1263 106.822 44.8921 106.188 44.8921C105.154 44.8921 103.986 45.327 102.785 46.1967C101.551 47.0664 100.383 48.1369 99.2823 49.3412C98.1814 50.5789 97.2806 51.7497 96.5467 52.9205C95.8127 54.0913 95.4458 54.9276 95.4458 55.4962C95.4791 55.7973 95.6459 55.9646 96.0129 55.9646Z" fill="white"/>
<path d="M119.967 75.2996C118.899 75.2996 117.865 74.8982 116.764 74.0953C115.697 73.2925 114.796 72.2889 114.095 71.0512C113.395 69.8135 113.061 68.6427 113.061 67.4719C113.061 64.963 113.561 62.2869 114.596 59.4435C115.63 56.6001 117.031 53.9575 118.833 51.4486C120.634 48.9732 122.736 46.9326 125.104 45.3604C127.473 43.7882 130.008 42.9854 132.644 42.9854C134.379 42.9854 135.747 43.3533 136.747 44.0893C137.715 44.8252 138.215 45.8287 138.215 47.1333C138.215 48.7056 137.715 50.0436 136.747 51.181C135.78 52.3518 134.445 53.3219 132.811 54.1582C131.143 54.9945 129.308 55.6635 127.306 56.2322C125.271 56.8009 123.203 57.2692 121.101 57.6706C120.801 57.7375 120.567 57.771 120.4 57.8713C120.234 57.9382 120.1 58.1389 120 58.44C119.633 59.5439 119.3 60.7481 118.933 62.0528C118.566 63.3574 118.399 64.5951 118.399 65.7324C118.399 67.5054 118.732 68.8434 119.4 69.8135C120.067 70.7836 121.068 71.2519 122.369 71.2519C124.17 71.2519 125.705 70.7836 126.939 69.8804C128.174 68.9772 129.208 68.074 130.008 67.1709C130.509 66.6356 130.943 66.3346 131.343 66.3346C131.843 66.3346 132.077 66.6022 132.077 67.0705C132.077 67.1374 132.077 67.2043 132.077 67.3381C132.077 67.4719 132.01 67.5723 131.943 67.6726C130.943 69.3452 129.808 70.7167 128.574 71.8541C127.306 72.9914 125.972 73.8277 124.571 74.3964C123.136 74.9985 121.601 75.2996 119.967 75.2996ZM121.601 55.9646C122.135 55.9646 123.103 55.7973 124.404 55.4628C125.738 55.1283 127.106 54.6265 128.574 53.8906C130.008 53.1546 131.276 52.2514 132.277 51.181C133.311 50.1105 133.812 48.8059 133.812 47.3006C133.812 46.665 133.645 46.0964 133.278 45.5946C132.911 45.1263 132.41 44.8921 131.777 44.8921C130.709 44.8921 129.575 45.327 128.374 46.1967C127.139 47.0664 125.972 48.1369 124.871 49.3412C123.77 50.5789 122.869 51.7497 122.135 52.9205C121.401 54.0913 121.034 54.9276 121.034 55.4962C121.068 55.7973 121.235 55.9646 121.601 55.9646Z" fill="white"/>
<path d="M143.219 75.4671C142.952 75.4671 142.752 75.3333 142.552 75.0991C142.351 74.8315 142.185 74.5305 142.051 74.1959C141.918 73.8614 141.851 73.5269 141.851 73.2258C141.851 72.9917 142.018 72.3895 142.351 71.4195C142.685 70.4828 143.085 69.2785 143.586 67.8736L150.492 49.7428C150.725 49.1072 150.725 48.5386 150.492 48.0702C150.225 47.6354 149.824 47.4012 149.224 47.4012C148.49 47.4012 147.689 47.5685 146.855 47.9364C146.021 48.3044 145.02 49.2745 143.819 50.8802C143.619 51.0809 143.419 51.1812 143.186 51.1478C142.952 51.1143 142.785 50.9471 142.685 50.5791C142.685 50.278 142.718 49.8766 142.852 49.4083C142.952 48.94 143.119 48.4382 143.352 47.9364C143.586 47.4347 143.786 47.0667 143.986 46.7991C144.82 45.7621 145.854 44.8589 147.055 44.1564C148.256 43.4539 149.691 43.086 151.392 43.0191C152.093 43.0191 152.794 43.1194 153.461 43.3536C154.128 43.5877 154.628 43.9892 154.962 44.5913C155.296 45.1934 155.262 46.0297 154.862 47.0667L150.558 58.2061C150.392 58.574 150.458 58.7748 150.658 58.8082C150.892 58.8751 151.059 58.7748 151.226 58.5071C153.361 55.1954 155.429 52.3855 157.431 50.0773C159.399 47.7692 161.301 46.0297 163.135 44.792C164.97 43.5877 166.672 42.9856 168.273 42.9856C169.207 42.9856 170.075 43.2532 170.875 43.8219C171.643 44.3906 172.176 45.1934 172.443 46.2639C172.71 47.3343 172.577 48.6724 172.043 50.278L169.341 58.1726C169.174 58.5406 169.241 58.7413 169.441 58.7748C169.674 58.8417 169.841 58.7413 170.008 58.4737C172.11 54.9947 174.178 52.1513 176.213 49.8432C178.248 47.5685 180.216 45.829 182.118 44.6916C184.019 43.5543 185.754 42.9521 187.389 42.9521C188.323 42.9521 189.19 43.2532 189.958 43.8553C190.692 44.4575 191.192 45.3607 191.426 46.5315C191.659 47.7023 191.426 49.1741 190.725 50.9471L184.253 67.6394C183.519 69.4458 183.619 70.349 184.62 70.349C185.22 70.349 185.954 70.0814 186.788 69.5127C187.622 68.9775 188.49 68.3085 189.391 67.5391C190.258 66.8031 191.025 66.1006 191.693 65.4651C192.326 64.8295 192.76 64.4281 192.96 64.2274C192.994 64.1939 193.06 64.1605 193.06 64.1605C193.094 64.1605 193.127 64.1605 193.16 64.1605C193.327 64.1605 193.461 64.2274 193.561 64.3612C193.694 64.495 193.761 64.6622 193.761 64.8629C193.761 65.2644 193.661 65.6658 193.494 66.1007C193.327 66.5355 192.96 67.0038 192.393 67.5725C190.725 69.4458 188.89 71.1518 186.822 72.7575C184.753 74.3632 182.552 75.166 180.216 75.166C179.816 75.166 179.416 74.9988 178.982 74.6643C178.548 74.3297 178.248 73.8949 178.014 73.3596C177.781 72.8244 177.781 72.2557 177.981 71.6871L186.688 49.1741C187.089 48.1706 187.089 47.4347 186.655 46.8994C186.221 46.3977 185.754 46.1301 185.187 46.0631C184.386 46.0297 183.319 46.4311 181.951 47.3009C180.617 48.1706 179.115 49.6425 177.447 51.7165C176.713 52.6866 175.646 54.0915 174.345 55.9983C173.01 57.905 171.676 59.9456 170.275 62.1199C168.907 64.2943 167.706 66.3348 166.705 68.1747C165.838 69.7803 165.037 71.1184 164.303 72.1554C163.569 73.1924 162.869 73.9952 162.268 74.5305C161.668 75.0657 161.167 75.3333 160.767 75.3333C160.5 75.3333 160.3 75.2329 160.1 74.9988C159.899 74.7646 159.733 74.497 159.599 74.1959C159.466 73.8949 159.399 73.5938 159.399 73.2927C159.399 73.0586 159.566 72.3895 159.899 71.386C160.233 70.349 160.633 69.1447 161.134 67.7398L168.106 48.94C168.54 47.8026 168.507 46.9998 167.939 46.5649C167.372 46.1301 166.939 45.8959 166.605 45.8624C165.804 45.7621 164.737 46.1635 163.369 47.1001C162.035 48.0368 160.533 49.5087 158.865 51.5827C158.265 52.2851 157.531 53.2887 156.597 54.5933C155.696 55.8979 154.728 57.3363 153.694 58.9086C152.66 60.4808 151.659 62.0865 150.692 63.7256C149.724 65.3647 148.857 66.8366 148.09 68.2081C146.789 70.6166 145.788 72.423 145.087 73.5938C144.453 74.865 143.819 75.4671 143.219 75.4671Z" fill="white"/>
<path d="M204.77 75.2996C203.702 75.2996 202.668 74.8982 201.567 74.0953C200.499 73.2925 199.599 72.2889 198.898 71.0512C198.197 69.8135 197.864 68.6427 197.864 67.4719C197.864 64.963 198.364 62.2869 199.398 59.4435C200.433 56.6001 201.834 53.9575 203.635 51.4486C205.437 48.9732 207.539 46.9326 209.907 45.3604C212.276 43.7882 214.811 42.9854 217.447 42.9854C219.182 42.9854 220.549 43.3533 221.55 44.0893C222.518 44.8252 223.018 45.8287 223.018 47.1333C223.018 48.7056 222.518 50.0436 221.55 51.181C220.583 52.3518 219.248 53.3219 217.614 54.1582C215.945 54.9945 214.111 55.6635 212.109 56.2322C210.074 56.8009 208.006 57.2692 205.904 57.6706C205.604 57.7375 205.37 57.771 205.203 57.8713C205.036 57.9382 204.903 58.1389 204.803 58.44C204.436 59.5439 204.102 60.7481 203.735 62.0528C203.368 63.3574 203.202 64.5951 203.202 65.7324C203.202 67.5054 203.535 68.8434 204.202 69.8135C204.87 70.7836 205.87 71.2519 207.172 71.2519C208.973 71.2519 210.508 70.7836 211.742 69.8804C212.976 68.9772 214.011 68.074 214.811 67.1709C215.312 66.6356 215.745 66.3346 216.146 66.3346C216.646 66.3346 216.88 66.6022 216.88 67.0705C216.88 67.1374 216.88 67.2043 216.88 67.3381C216.88 67.4719 216.813 67.5723 216.746 67.6726C215.745 69.3452 214.611 70.7167 213.377 71.8541C212.109 72.9914 210.775 73.8277 209.373 74.3964C207.972 74.9985 206.404 75.2996 204.77 75.2996ZM206.404 55.9646C206.938 55.9646 207.905 55.7973 209.207 55.4628C210.541 55.1283 211.909 54.6265 213.377 53.8906C214.811 53.1546 216.079 52.2514 217.08 51.181C218.114 50.1105 218.614 48.8059 218.614 47.3006C218.614 46.665 218.448 46.0964 218.081 45.5946C217.714 45.1263 217.213 44.8921 216.579 44.8921C215.512 44.8921 214.378 45.327 213.177 46.1967C211.942 47.0664 210.775 48.1369 209.674 49.3412C208.573 50.5789 207.672 51.7497 206.938 52.9205C206.204 54.0913 205.837 54.9276 205.837 55.4962C205.904 55.7973 206.071 55.9646 206.404 55.9646Z" fill="white"/>
<path d="M238.932 75.2334C237.964 75.2334 237.197 74.9324 236.53 74.2968C235.896 73.6612 235.395 72.9587 235.028 72.1893C234.695 71.4199 234.495 70.7844 234.495 70.3495C234.495 70.1153 234.561 69.8143 234.728 69.4797C234.895 69.1452 235.162 68.978 235.562 68.978C235.662 68.978 235.762 68.978 235.862 69.0114C235.963 69.0449 236.129 69.1118 236.296 69.2121C236.596 69.279 237.03 69.3459 237.564 69.4463C238.098 69.5466 238.932 69.5801 240.033 69.5801C241.467 69.5801 242.735 69.3459 243.836 68.9111C244.903 68.4427 245.637 67.9075 245.971 67.2385L255.145 52.0515C256.88 49.1077 258.715 46.833 260.616 45.3277C262.518 43.7889 264.753 43.0195 267.355 43.0195C267.555 43.0195 267.756 43.0864 267.922 43.1533C268.089 43.2537 268.256 43.3875 268.356 43.5213C268.489 43.6886 268.556 43.8224 268.556 43.9896C268.556 44.1903 268.523 44.4245 268.489 44.6587C268.423 44.9263 268.356 45.2273 268.256 45.5618L260.149 68.3089C259.649 69.8812 259.782 70.6505 260.616 70.6505C261.217 70.6505 261.951 70.3829 262.818 69.8477C263.685 69.3125 264.586 68.7104 265.487 67.9744C266.388 67.2385 267.155 66.6029 267.789 66.0008C268.423 65.4321 268.79 65.0641 268.957 64.8969C269.123 64.7296 269.223 64.6627 269.29 64.5958C269.357 64.5624 269.424 64.5289 269.49 64.5289C269.657 64.5289 269.757 64.6293 269.857 64.83C269.957 65.0307 270.024 65.2648 270.024 65.499C270.024 65.6997 269.957 65.9673 269.824 66.3353C269.69 66.7033 269.424 67.0712 269.023 67.5395C268.156 68.5431 267.255 69.4797 266.254 70.3829C265.253 71.2861 264.253 72.089 263.218 72.8249C262.184 73.5608 261.183 74.1295 260.216 74.5644C259.248 74.9993 258.381 75.2 257.614 75.2C256.913 75.2 256.313 74.9324 255.779 74.3637C255.245 73.8284 254.878 73.1929 254.645 72.5238C254.411 71.8548 254.344 71.3196 254.444 70.9851L262.551 48.5056C262.651 48.1711 262.718 47.8031 262.718 47.502C262.718 47.1675 262.551 47.0003 262.284 47.0003C261.584 47.0003 260.816 47.5689 259.949 48.7063C259.082 49.8437 258.348 50.9141 257.681 51.9177C257.414 52.3191 256.947 53.1554 256.213 54.3931C255.479 55.6642 254.611 57.1361 253.61 58.8421C252.61 60.5482 251.542 62.2876 250.441 64.0606C249.34 65.8335 248.273 67.4726 247.239 68.9445C246.204 70.4164 245.304 71.5872 244.503 72.4569C243.535 73.4939 242.601 74.2299 241.667 74.6313C240.733 75.0327 239.832 75.2334 238.932 75.2334Z" fill="white"/>
<path d="M277.497 74.3966C277.23 74.3966 276.93 74.3631 276.563 74.2962C276.196 74.2293 275.996 74.0286 275.996 73.7275C275.996 73.3261 276.196 73.025 276.563 72.8578C276.93 72.6905 277.331 72.5233 277.731 72.356C278.465 72.1219 279.199 71.8208 279.866 71.4863C280.533 71.1518 280.867 70.4827 280.867 69.4123V48.7726C280.867 47.7691 280.567 47.0666 279.999 46.6986C279.432 46.3307 278.765 46.0296 277.998 45.8289C277.597 45.6951 277.197 45.4944 276.83 45.2937C276.463 45.0929 276.263 44.8253 276.263 44.4574C276.263 44.1563 276.463 43.9556 276.83 43.8887C277.197 43.8218 277.531 43.7883 277.764 43.7883C278.765 43.7883 279.532 43.8218 280.066 43.8552C280.6 43.9221 281.1 43.9556 281.567 44.0559C282.034 44.1228 282.702 44.1563 283.569 44.1563C284.47 44.1563 285.137 44.1228 285.571 44.0559C286.004 43.989 286.471 43.9221 286.972 43.8552C287.472 43.8218 288.206 43.7883 289.24 43.7883C289.474 43.7883 289.808 43.8218 290.175 43.8887C290.542 43.9556 290.742 44.1563 290.742 44.4574C290.742 44.8253 290.542 45.0929 290.175 45.2937C289.808 45.4944 289.407 45.6616 289.007 45.8289C288.273 46.0296 287.606 46.3307 287.005 46.6986C286.438 47.0666 286.138 47.7691 286.138 48.7726V63.8259C286.138 64.0266 286.238 64.1604 286.471 64.2273C286.705 64.2942 286.838 64.3276 286.872 64.2607L301.217 49.4417C301.317 49.2409 301.417 49.1071 301.484 49.0737C301.551 49.0402 301.584 48.873 301.584 48.6054C301.584 47.6018 301.317 46.9328 300.85 46.5983C300.35 46.2638 299.716 45.9961 298.982 45.7954C298.582 45.6616 298.181 45.4609 297.814 45.2602C297.447 45.0595 297.247 44.7919 297.247 44.4239C297.247 44.1229 297.414 43.9221 297.781 43.8552C298.114 43.7883 298.448 43.7549 298.748 43.7549C299.749 43.7549 300.483 43.7883 301.017 43.8218C301.517 43.8887 301.984 43.9221 302.451 44.0225C302.885 44.0894 303.552 44.1228 304.386 44.1228C305.287 44.1228 305.954 44.0894 306.421 44.0225C306.855 43.9556 307.356 43.8887 307.889 43.8218C308.423 43.7883 309.19 43.7549 310.191 43.7549C310.491 43.7549 310.825 43.7883 311.159 43.8552C311.492 43.9221 311.692 44.1229 311.692 44.4239C311.692 44.7919 311.492 45.0595 311.125 45.2602C310.758 45.4609 310.358 45.6282 309.958 45.7954C309.224 45.9961 308.49 46.2972 307.856 46.6652C307.189 47.0331 306.888 47.7356 306.888 48.7392V69.3788C306.888 70.3824 307.255 71.0514 307.989 71.4194C308.723 71.7873 309.457 72.0884 310.191 72.3226C310.592 72.4564 310.992 72.6236 311.359 72.8243C311.726 72.9916 311.926 73.2927 311.926 73.6941C311.926 73.9951 311.726 74.1959 311.359 74.2628C310.992 74.3297 310.658 74.3631 310.425 74.3631C309.424 74.3631 308.623 74.3297 308.056 74.2628C307.489 74.1959 306.955 74.1289 306.455 74.062C305.954 74.0286 305.254 73.9951 304.353 73.9951C303.486 73.9951 302.818 74.0286 302.285 74.062C301.751 74.1289 301.217 74.1624 300.65 74.2628C300.083 74.3297 299.282 74.3631 298.281 74.3631C298.014 74.3631 297.714 74.3297 297.347 74.2628C296.98 74.1959 296.78 73.9951 296.78 73.6941C296.78 73.2927 296.98 72.9916 297.347 72.8243C297.714 72.6571 298.114 72.4898 298.515 72.3226C299.249 72.0884 299.983 71.7873 300.65 71.4194C301.317 71.0849 301.651 70.3824 301.651 69.3788V53.3555C301.651 53.1548 301.617 53.021 301.584 52.9541C301.517 52.8872 301.451 52.8872 301.351 52.9875L286.405 68.576C286.271 68.7098 286.171 69.0109 286.171 69.4123C286.171 70.4493 286.538 71.1518 287.272 71.4863C288.006 71.8208 288.74 72.0884 289.474 72.356C289.874 72.4898 290.275 72.6571 290.642 72.8578C291.009 73.025 291.209 73.3261 291.209 73.7275C291.209 74.0286 291.009 74.2293 290.642 74.2962C290.275 74.3631 289.941 74.3966 289.708 74.3966C288.707 74.3966 287.906 74.3631 287.339 74.2962C286.772 74.2293 286.238 74.1624 285.738 74.0955C285.237 74.062 284.537 74.0286 283.636 74.0286C282.768 74.0286 282.101 74.062 281.567 74.0955C281.034 74.1624 280.5 74.1959 279.899 74.2962C279.299 74.3631 278.498 74.3966 277.497 74.3966Z" fill="white"/>
<path d="M332.309 74.3968C332.009 74.3968 331.642 74.3633 331.209 74.3299C330.775 74.263 330.575 74.0957 330.575 73.7277C330.575 73.3263 330.775 73.0253 331.142 72.858C331.509 72.6908 331.909 72.5235 332.309 72.3562C333.043 72.1221 333.777 71.8545 334.478 71.6537C335.179 71.4196 335.545 70.784 335.545 69.747V49.3416C335.545 48.2042 335.279 47.3345 334.711 46.8327C334.144 46.2975 333.51 45.9295 332.743 45.7288C332.343 45.5615 331.943 45.3943 331.576 45.1936C331.209 44.9929 331.008 44.7252 331.008 44.3573C331.008 43.9559 331.242 43.7551 331.709 43.7217C332.176 43.6882 332.51 43.6882 332.71 43.6882C333.711 43.6882 334.445 43.6882 334.878 43.7217C335.312 43.7551 335.746 43.7886 336.146 43.8221C336.546 43.889 337.113 43.889 337.881 43.889C338.581 43.889 339.215 43.8555 339.749 43.8221C340.283 43.7886 340.917 43.7217 341.617 43.6548C342.318 43.6213 343.152 43.5879 344.153 43.5879C347.956 43.5879 351.025 44.1566 353.394 45.2939C355.729 46.4313 356.93 48.2377 356.93 50.7465C356.93 52.7536 356.363 54.3593 355.295 55.5301C354.194 56.7009 352.827 57.5037 351.225 57.9052C351.025 57.9721 350.892 58.0055 350.858 58.0724C350.791 58.1393 350.925 58.2062 351.225 58.3066C352.159 58.4738 353.194 58.8083 354.294 59.3436C355.395 59.9123 356.329 60.6482 357.097 61.6517C357.864 62.6218 358.264 63.8595 358.264 65.298C358.264 67.673 357.631 69.5128 356.396 70.8175C355.128 72.1555 353.46 73.0922 351.325 73.5939C349.19 74.1292 346.788 74.3968 344.086 74.3968C343.586 74.3968 342.751 74.3299 341.517 74.1626C340.316 73.9954 339.148 73.9285 337.981 73.9285C336.88 73.9285 335.712 73.9619 334.478 74.0288C333.244 74.0957 332.376 74.1626 331.809 74.263C331.375 74.3633 331.509 74.3968 332.309 74.3968ZM342.952 57.1023C346.088 57.1023 348.356 56.5336 349.757 55.3963C351.125 54.2589 351.826 52.9543 351.826 51.449C351.826 50.0106 351.325 48.7394 350.291 47.7359C349.257 46.6989 347.255 46.1971 344.253 46.1971C342.852 46.1971 341.917 46.3978 341.484 46.8327C341.017 47.2676 340.817 47.8697 340.817 48.6725V55.1956C340.817 56.1657 341.117 56.7009 341.684 56.8682C342.218 57.002 342.651 57.1023 342.952 57.1023ZM344.92 71.9214C347.422 71.9214 349.357 71.4196 350.725 70.3826C352.093 69.3456 352.793 67.8068 352.793 65.7663C352.793 63.224 351.926 61.5179 350.224 60.6482C348.523 59.8119 346.354 59.377 343.686 59.377C342.885 59.377 342.184 59.5108 341.617 59.745C341.05 60.0126 340.75 60.4809 340.75 61.2503V68.1748C340.75 69.4459 341.083 70.3826 341.751 70.9847C342.485 71.5868 343.519 71.9214 344.92 71.9214Z" fill="white"/>
<path d="M371.042 75.2327C368.54 75.2327 366.838 74.7309 365.904 73.7608C364.97 72.7907 364.603 71.553 364.77 70.0477C364.937 68.5424 365.37 67.0036 366.004 65.4648C367.005 62.956 368.039 60.4136 369.074 57.8713C370.141 55.329 371.142 52.7867 372.143 50.2778C372.243 49.8764 372.276 49.5419 372.276 49.3077C372.276 49.0735 372.209 48.9397 372.043 48.9397C371.776 48.9397 371.242 49.107 370.441 49.475C369.607 49.8429 368.707 50.2778 367.739 50.8799C366.772 51.4486 365.938 52.0842 365.237 52.7867C365.137 52.887 364.937 52.9205 364.67 52.8536C364.403 52.8201 364.27 52.6863 364.27 52.5525C364.27 52.3518 364.303 52.0507 364.403 51.6828C364.503 51.3148 364.737 50.8465 365.137 50.2778C366.038 49.0735 367.072 48.0031 368.206 47.0999C369.34 46.1967 370.508 45.4273 371.709 44.8252C372.877 44.2231 373.944 43.7882 374.912 43.4871C375.846 43.1861 376.613 43.0188 377.18 43.0188C377.814 43.0188 378.381 43.3868 378.782 44.0558C379.215 44.7583 379.282 45.3939 379.048 46.0294L373.577 58.1389C373.477 58.4065 373.477 58.5403 373.611 58.5738C373.744 58.6407 373.944 58.5403 374.245 58.2727C375.679 56.9347 377.214 55.8642 378.782 55.0614C380.35 54.292 381.951 53.8906 383.552 53.8906C385.22 53.8906 386.455 54.4592 387.289 55.5966C388.123 56.734 388.556 58.2058 388.556 60.0122C388.556 61.8186 388.056 63.625 387.022 65.4314C385.988 67.2378 384.62 68.8769 382.918 70.3153C381.217 71.7872 379.315 72.958 377.247 73.8612C375.212 74.7644 373.144 75.2327 371.042 75.2327ZM372.243 73.6605C373.577 73.6605 374.945 73.2256 376.313 72.3559C377.647 71.4861 378.915 70.3488 380.049 68.9438C381.184 67.5388 382.118 66.0335 382.818 64.4278C383.519 62.8221 383.886 61.3168 383.886 59.9119C383.886 58.8749 383.652 58.0051 383.185 57.3026C382.718 56.6336 382.184 56.2991 381.651 56.2991C380.45 56.2991 379.182 56.734 377.847 57.6371C376.513 58.5403 375.279 59.6442 374.144 60.9489C372.843 62.5211 371.742 64.1602 370.875 65.9666C370.008 67.7395 369.574 69.178 369.574 70.2819C369.574 71.1516 369.807 71.921 370.275 72.6235C370.708 73.2925 371.375 73.6605 372.243 73.6605ZM391.058 75.2327C389.857 75.2327 389.023 74.9651 388.556 74.4298C388.089 73.8946 387.856 73.2925 387.856 72.59C387.856 71.7537 387.889 71.0512 388.023 70.5495C388.123 70.0477 388.356 69.3452 388.757 68.442C389.557 66.7025 390.391 64.8627 391.259 62.956C392.126 61.0492 393.027 59.109 393.928 57.0685C394.828 55.0614 395.696 53.0543 396.563 51.0137C397.397 48.9732 398.164 46.9995 398.832 45.0928C399.065 44.4572 399.365 43.922 399.732 43.554C400.066 43.1861 400.433 42.9854 400.8 42.9854C401.501 42.9854 402.101 43.0857 402.601 43.2864C403.102 43.4871 403.469 43.7882 403.702 44.1562C403.936 44.5241 403.903 44.9924 403.669 45.5611L393.928 67.6726C393.727 68.074 393.594 68.4755 393.527 68.8434C393.46 69.2114 393.427 69.5459 393.427 69.847C393.427 70.6498 393.727 71.0512 394.328 71.0512C394.928 71.0512 395.662 70.7836 396.53 70.2484C397.397 69.7132 398.265 69.111 399.165 68.4086C400.033 67.7061 400.8 67.0705 401.467 66.4349C402.101 65.8328 402.535 65.4314 402.735 65.2307C402.835 65.1303 402.935 65.0634 403.035 65.0634C403.135 65.0634 403.235 65.0969 403.335 65.1638C403.435 65.2307 403.502 65.331 403.502 65.4314C403.502 66.6022 403.169 67.6726 402.501 68.6762C401.834 69.6797 400.967 70.5829 399.933 71.3858C398.898 72.1886 397.831 72.8576 396.663 73.4263C395.496 73.995 394.461 74.3964 393.461 74.6975C392.393 75.0654 391.626 75.2327 391.058 75.2327Z" fill="white"/>
<path d="M5.83819 132C4.43702 132 3.10258 131.699 1.86822 131.13C0.63386 130.528 0 129.792 0 128.889C0 128.053 0.266889 127.283 0.733944 126.681C1.23436 126.046 1.73478 125.745 2.23519 125.745C2.63552 125.745 3.03586 125.945 3.46955 126.347C3.90325 126.748 4.30358 127.183 4.70391 127.618C5.17097 128.12 5.63802 128.588 6.20516 128.956C6.73894 129.357 7.43952 129.558 8.30691 129.558C10.0083 129.558 11.5763 128.922 13.0442 127.651C14.4787 126.38 15.7798 124.708 16.8807 122.634C17.9816 120.593 18.8156 118.385 19.3494 116.01C18.9825 116.378 18.6488 116.679 18.2485 116.947C17.8815 117.214 17.5146 117.449 17.181 117.582C16.8473 117.75 16.5805 117.817 16.3136 117.817C15.6463 117.817 15.1459 117.75 14.7456 117.582C14.3453 117.449 13.9449 117.248 13.5446 117.047C13.1776 116.846 12.844 116.679 12.4437 116.545C12.0767 116.412 11.6097 116.345 11.0425 116.345C10.6755 116.345 10.3419 116.412 10.0083 116.545C9.64135 116.679 9.3411 116.78 9.04085 116.88C8.67388 117.081 8.37363 117.281 8.10674 117.449C7.83985 117.616 7.57296 117.716 7.30607 117.716C7.10591 117.716 6.90574 117.683 6.70558 117.616C6.50541 117.549 6.40533 117.348 6.40533 117.047C6.40533 116.713 6.73894 116.211 7.40616 115.542C8.07338 114.906 8.84068 114.271 9.74143 113.702C10.6088 113.133 11.3428 112.832 11.8765 112.832C12.3102 112.832 12.7773 112.899 13.1776 113.066C13.6113 113.234 14.0117 113.434 14.412 113.669C14.879 113.869 15.3127 114.07 15.8131 114.237C16.2802 114.405 16.814 114.505 17.3478 114.505C18.0483 114.505 18.5821 114.471 18.9157 114.405C19.2493 114.338 19.5496 114.237 19.7498 114.137C19.9166 113.301 20.0166 112.431 20.0834 111.561C20.1501 110.725 20.1834 109.889 20.1834 109.086C20.1834 107.045 19.683 105.506 18.7156 104.503C17.7481 103.499 16.5471 102.964 15.1459 102.931C13.9783 102.897 12.7773 103.165 11.5096 103.8C10.2418 104.436 9.10757 105.373 8.10674 106.61C7.60632 107.279 7.13927 107.58 6.67221 107.58C6.23852 107.58 6.00499 107.313 6.00499 106.744C6.00499 106.543 6.27188 106.075 6.83902 105.306C7.3728 104.57 8.17346 103.733 9.17429 102.83C10.1751 101.927 11.4095 101.158 12.844 100.489C14.2785 99.8531 15.9132 99.5186 17.7147 99.5186C19.216 99.5186 20.5504 99.92 21.7181 100.689C22.8857 101.459 23.8198 102.496 24.4537 103.8C25.0875 105.105 25.4211 106.51 25.4211 108.015C25.4211 111.026 24.9874 113.97 24.0867 116.813C23.1859 119.69 21.8849 122.232 20.1834 124.54C18.482 126.815 16.4136 128.621 13.9783 129.959C11.643 131.331 8.90741 132 5.83819 132Z" fill="white"/>
<path d="M58.4822 131.766C57.4814 131.766 56.5473 131.599 55.7133 131.298C54.8459 130.997 54.0452 130.528 53.2779 129.859C52.5106 129.224 51.7099 128.354 50.8759 127.283C50.0419 126.213 49.1745 124.942 48.207 123.436C47.1728 121.73 46.2721 120.259 45.5715 119.054C44.8709 117.85 44.1036 116.913 43.2696 116.244C42.4356 115.575 41.2679 115.241 39.7667 115.241C39.2663 115.241 39.0327 115.475 39.0327 115.91V125.979C39.0327 127.049 39.3997 127.718 40.167 128.019C40.9343 128.32 41.6683 128.588 42.4356 128.856C42.8359 129.023 43.2362 129.157 43.6032 129.357C43.9702 129.525 44.1703 129.826 44.1703 130.227C44.1703 130.595 43.9368 130.762 43.4698 130.829C43.0027 130.863 42.6691 130.896 42.4689 130.896C41.5015 130.896 40.7675 130.863 40.2004 130.796C39.6332 130.729 39.1328 130.662 38.6658 130.595C38.1987 130.562 37.4981 130.528 36.5974 130.528C35.73 130.528 35.0628 130.562 34.5624 130.595C34.0619 130.662 33.5615 130.695 33.0277 130.796C32.494 130.863 31.7267 130.896 30.7258 130.896C30.5257 130.896 30.1921 130.863 29.725 130.829C29.2579 130.762 29.0244 130.595 29.0244 130.227C29.0244 129.826 29.2246 129.525 29.5916 129.357C29.9585 129.19 30.3589 129.023 30.7592 128.856C31.4931 128.621 32.2271 128.354 32.9277 128.153C33.6282 127.919 33.9619 127.283 33.9619 126.246V105.841C33.9619 104.737 33.695 103.901 33.1278 103.366C32.5607 102.83 31.9268 102.429 31.1595 102.228C30.7592 102.061 30.3589 101.894 29.9919 101.693C29.6249 101.492 29.4247 101.225 29.4247 100.857C29.4247 100.455 29.6583 100.255 30.1253 100.221C30.5924 100.188 30.926 100.188 31.1262 100.188C32.127 100.188 32.8276 100.221 33.2613 100.255C33.695 100.321 34.0953 100.355 34.4956 100.455C34.896 100.522 35.5298 100.556 36.3638 100.556C37.2646 100.556 37.8985 100.522 38.3322 100.455C38.7325 100.388 39.1662 100.321 39.6332 100.255C40.1003 100.221 40.8342 100.188 41.7683 100.188C41.9685 100.188 42.3021 100.188 42.7692 100.221C43.2362 100.255 43.4698 100.455 43.4698 100.857C43.4698 101.225 43.2696 101.492 42.9026 101.693C42.5356 101.894 42.1353 102.061 41.735 102.228C41.001 102.429 40.3338 102.83 39.8 103.399C39.2329 103.968 38.966 104.837 38.966 106.008V113C38.966 113.267 39.0661 113.401 39.2329 113.501C39.3997 113.568 39.5999 113.602 39.8 113.602C42.3355 113.602 44.3038 112.966 45.6049 111.662C46.9393 110.357 48.0402 108.885 48.941 107.212C49.4747 106.276 50.0085 105.306 50.4756 104.369C50.9426 103.432 51.4764 102.563 52.0436 101.76C52.6107 100.99 53.3113 100.355 54.1453 99.92C54.9793 99.4851 55.9468 99.251 57.1144 99.251C58.4155 99.251 59.3496 99.5855 59.9168 100.255C60.4839 100.924 60.7842 101.659 60.7842 102.395C60.7842 103.198 60.584 103.867 60.1836 104.436C59.7833 105.005 59.2162 105.272 58.5156 105.272C58.0152 105.272 57.4147 105.072 56.6807 104.67C55.9468 104.269 55.3463 104.068 54.8459 104.068C54.1787 104.068 53.7116 104.235 53.378 104.603C53.0444 104.971 52.6774 105.373 52.2771 105.874C51.9768 106.276 51.5765 106.945 51.1094 107.915C50.6424 108.885 50.1086 109.822 49.5081 110.758C48.9076 111.728 48.2404 112.431 47.5398 112.933C47.3396 113.066 47.2729 113.2 47.3063 113.267C47.3396 113.334 47.4397 113.468 47.5398 113.602C48.6407 115.308 49.6082 116.913 50.4756 118.385C51.3096 119.857 52.1436 121.229 52.9443 122.5C53.8784 123.905 54.9126 125.109 55.9468 126.146C57.0143 127.183 58.2821 127.952 59.7833 128.521C60.4172 128.722 60.9176 128.956 61.2846 129.224C61.6182 129.491 61.8183 129.826 61.8183 130.227C61.8183 130.528 61.5181 130.863 60.8842 131.197C60.3505 131.565 59.5164 131.766 58.4822 131.766Z" fill="white"/>
<path d="M71.1592 131.766C69.9582 131.766 68.8239 131.364 67.7897 130.562C66.7555 129.759 65.8881 128.722 65.2876 127.384C64.6538 126.079 64.3535 124.708 64.3535 123.236C64.3535 120.894 64.8206 118.318 65.7547 115.609C66.6888 112.866 67.9565 110.29 69.6246 107.848C71.2593 105.406 73.1942 103.432 75.3627 101.86C77.5311 100.321 79.8664 99.5186 82.3685 99.5186C84.8706 99.5186 86.8055 100.388 88.1733 102.094C89.5411 103.8 90.2417 105.908 90.2417 108.417C90.2417 110.691 89.7746 113.133 88.8739 115.843C87.9731 118.519 86.6721 121.061 85.004 123.47C83.3359 125.878 81.3343 127.852 78.999 129.424C76.6637 130.963 74.0616 131.766 71.1592 131.766ZM72.3602 129.491C73.5612 129.491 74.7622 128.956 75.9965 127.919C77.2309 126.882 78.3985 125.477 79.5328 123.771C80.6671 122.065 81.6679 120.192 82.5353 118.118C83.4027 116.077 84.1033 114.003 84.637 111.929C85.1708 109.889 85.4377 107.982 85.4377 106.276C85.4377 104.971 85.2375 103.901 84.8038 103.031C84.3701 102.195 83.5028 101.76 82.2017 101.76C81.034 101.76 79.8664 102.228 78.632 103.198C77.3977 104.168 76.23 105.439 75.0958 107.045C73.9615 108.651 72.9607 110.457 72.0599 112.431C71.1592 114.405 70.4586 116.479 69.9248 118.619C69.391 120.76 69.1241 122.834 69.1241 124.841C69.1241 126.514 69.4244 127.685 69.9915 128.421C70.5587 129.123 71.3593 129.491 72.3602 129.491Z" fill="white"/>
<path d="M95.1127 130.929C94.8125 130.929 94.4455 130.896 94.0118 130.862C93.5781 130.795 93.3779 130.628 93.3779 130.26C93.3779 129.859 93.5781 129.558 93.9451 129.39C94.312 129.223 94.7124 129.056 95.1127 128.888C95.8467 128.654 96.5806 128.353 97.2478 128.019C97.915 127.684 98.2487 127.015 98.2487 125.945V105.305C98.2487 104.302 97.9484 103.599 97.3813 103.231C96.8141 102.863 96.1469 102.562 95.3796 102.361C94.9793 102.194 94.5789 102.027 94.212 101.826C93.845 101.625 93.6448 101.358 93.6448 100.99C93.6448 100.655 93.845 100.455 94.2787 100.388C94.7124 100.354 95.0793 100.321 95.3796 100.321C96.3804 100.321 97.1144 100.354 97.5814 100.388C98.0485 100.455 98.5155 100.488 98.9826 100.588C99.4163 100.655 100.084 100.689 100.918 100.689C101.818 100.689 102.452 100.655 102.886 100.588C103.286 100.522 103.72 100.455 104.187 100.388C104.654 100.354 105.388 100.321 106.322 100.321C106.622 100.321 106.989 100.354 107.423 100.388C107.857 100.455 108.057 100.655 108.057 100.99C108.057 101.358 107.857 101.625 107.49 101.826C107.123 102.027 106.722 102.194 106.322 102.361C105.588 102.562 104.921 102.863 104.32 103.231C103.753 103.599 103.453 104.302 103.453 105.305V113.2C103.453 113.4 103.553 113.534 103.753 113.568C103.953 113.635 104.087 113.635 104.22 113.635H118.165C118.265 113.635 118.365 113.601 118.432 113.467C118.499 113.367 118.532 113.233 118.532 112.999V105.238C118.532 104.235 118.265 103.532 117.798 103.164C117.298 102.796 116.664 102.495 115.93 102.294C115.53 102.127 115.129 101.96 114.762 101.759C114.395 101.559 114.195 101.291 114.195 100.923C114.195 100.588 114.395 100.388 114.796 100.321C115.196 100.287 115.563 100.254 115.93 100.254C116.931 100.254 117.665 100.287 118.099 100.321C118.532 100.388 118.999 100.421 119.4 100.522C119.833 100.588 120.467 100.622 121.301 100.622C122.202 100.622 122.869 100.588 123.303 100.522C123.737 100.455 124.204 100.388 124.704 100.321C125.204 100.287 125.938 100.254 126.872 100.254C127.206 100.254 127.606 100.287 128.007 100.321C128.407 100.388 128.607 100.588 128.607 100.923C128.607 101.291 128.407 101.559 128.04 101.759C127.673 101.96 127.273 102.127 126.872 102.294C126.139 102.495 125.405 102.796 124.771 103.164C124.104 103.532 123.803 104.235 123.803 105.238V125.878C123.803 126.881 124.17 127.55 124.904 127.918C125.638 128.286 126.372 128.587 127.106 128.822C127.506 128.989 127.907 129.123 128.274 129.323C128.641 129.491 128.841 129.792 128.841 130.193C128.841 130.561 128.641 130.728 128.207 130.795C127.773 130.829 127.406 130.862 127.106 130.862C126.139 130.862 125.405 130.829 124.837 130.762C124.27 130.695 123.77 130.628 123.303 130.561C122.836 130.528 122.135 130.494 121.234 130.494C120.367 130.494 119.7 130.528 119.199 130.561C118.699 130.628 118.199 130.661 117.665 130.762C117.131 130.829 116.364 130.862 115.363 130.862C115.063 130.862 114.696 130.829 114.262 130.795C113.828 130.728 113.628 130.561 113.628 130.193C113.628 129.792 113.828 129.491 114.195 129.323C114.562 129.156 114.963 128.989 115.363 128.822C116.097 128.587 116.831 128.286 117.498 127.918C118.165 127.584 118.499 126.881 118.499 125.878V116.478C118.499 116.277 118.465 116.177 118.432 116.143C118.365 116.11 118.299 116.11 118.199 116.11H103.62C103.52 116.11 103.453 116.143 103.42 116.21C103.386 116.277 103.386 116.411 103.386 116.612V125.878C103.386 126.915 103.753 127.617 104.487 127.952C105.221 128.286 105.955 128.554 106.689 128.822C107.089 128.989 107.49 129.123 107.857 129.323C108.224 129.491 108.424 129.792 108.424 130.193C108.424 130.561 108.224 130.728 107.79 130.795C107.356 130.829 106.989 130.862 106.689 130.862C105.722 130.862 104.988 130.829 104.42 130.762C103.853 130.695 103.353 130.628 102.886 130.561C102.419 130.528 101.718 130.494 100.817 130.494C99.9501 130.494 99.2828 130.528 98.7824 130.561C98.282 130.628 97.7816 130.661 97.2478 130.762C96.8808 130.896 96.1135 130.929 95.1127 130.929Z" fill="white"/>
<path d="M148.256 131.766C145.454 131.766 142.919 131.097 140.683 129.792C138.415 128.488 136.647 126.681 135.312 124.407C133.978 122.132 133.311 119.523 133.311 116.612C133.311 114.505 133.711 112.464 134.545 110.424C135.379 108.417 136.547 106.577 138.048 104.938C139.549 103.299 141.284 101.961 143.319 100.99C145.321 100.02 147.456 99.5186 149.758 99.5186C152.66 99.5186 155.262 100.221 157.597 101.626C159.933 103.031 161.768 104.871 163.169 107.146C164.536 109.42 165.237 111.929 165.237 114.639C165.237 117.549 164.603 120.325 163.335 122.935C162.068 125.544 160.166 127.651 157.664 129.29C155.129 130.93 151.993 131.766 148.256 131.766ZM149.824 129.491C151.526 129.491 153.06 129.157 154.395 128.521C155.729 127.886 156.797 126.815 157.564 125.377C158.165 124.239 158.565 122.801 158.765 121.162C158.965 119.489 159.065 117.95 159.065 116.479C159.065 114.07 158.632 111.762 157.764 109.521C156.897 107.279 155.662 105.473 154.094 104.035C152.526 102.596 150.658 101.894 148.49 101.894C147.122 101.894 145.921 102.094 144.853 102.529C143.786 102.964 142.785 103.733 141.884 104.904C140.883 106.175 140.25 107.681 139.949 109.487C139.649 111.294 139.516 113.1 139.516 114.906C139.516 117.382 139.949 119.723 140.85 121.931C141.751 124.172 142.985 125.979 144.52 127.384C146.054 128.789 147.823 129.491 149.824 129.491Z" fill="white"/>
<path d="M190.192 132C189.491 132 188.924 131.531 188.557 130.662L178.415 108.048C178.248 107.714 178.148 107.513 178.048 107.48C177.948 107.446 177.848 107.647 177.748 108.048C177.681 108.249 177.648 108.952 177.548 110.156C177.481 111.36 177.381 112.765 177.248 114.404C177.114 116.043 177.014 117.682 176.914 119.322C176.814 120.961 176.747 122.433 176.68 123.67C176.614 124.941 176.614 125.711 176.614 126.012C176.614 127.015 176.847 127.684 177.348 128.019C177.848 128.353 178.482 128.621 179.216 128.889C179.616 129.056 180.016 129.19 180.383 129.39C180.75 129.558 180.951 129.859 180.951 130.26C180.951 130.561 180.75 130.762 180.383 130.829C180.016 130.896 179.683 130.929 179.449 130.929C178.482 130.929 177.781 130.896 177.314 130.829C176.847 130.762 176.38 130.695 175.98 130.628C175.546 130.595 174.879 130.561 173.978 130.561C173.111 130.561 172.577 130.595 172.277 130.628C172.01 130.695 171.71 130.729 171.409 130.829C171.109 130.896 170.442 130.929 169.474 130.929C169.208 130.929 168.907 130.896 168.54 130.829C168.173 130.762 167.973 130.561 167.973 130.26C167.973 129.859 168.207 129.591 168.64 129.424C169.074 129.257 169.508 129.123 169.908 128.989C170.642 128.755 171.409 128.454 172.11 128.086C172.844 127.751 173.244 127.049 173.344 126.045L175.446 106.242C175.546 105.004 175.246 104.068 174.579 103.466C173.911 102.863 173.077 102.462 172.077 102.261C171.676 102.161 171.276 101.994 170.876 101.726C170.475 101.492 170.275 101.191 170.275 100.823C170.275 100.522 170.475 100.355 170.876 100.288C171.276 100.254 171.609 100.221 171.843 100.221C172.077 100.221 172.544 100.254 173.177 100.288C173.811 100.355 174.479 100.388 175.079 100.455C175.713 100.522 176.147 100.522 176.38 100.522C176.58 100.522 177.047 100.522 177.781 100.488C178.515 100.455 179.082 100.455 179.483 100.455C179.716 100.455 179.95 100.555 180.117 100.789C180.283 101.024 180.417 101.191 180.45 101.358L190.892 123.035C191.126 123.536 191.359 123.804 191.526 123.871C191.693 123.938 191.893 123.704 192.093 123.202L200.267 104.971C200.667 104.135 201.067 103.164 201.434 102.161C201.801 101.124 202.102 100.622 202.302 100.622H204.77C205.905 100.622 207.139 100.555 208.407 100.421C209.675 100.288 210.408 100.221 210.609 100.221C210.842 100.221 211.176 100.254 211.543 100.321C211.91 100.388 212.11 100.589 212.11 100.89C212.11 101.258 211.91 101.525 211.543 101.759C211.176 101.994 210.775 102.161 210.375 102.261C209.641 102.462 208.874 102.73 208.173 103.098C207.439 103.466 207.072 104.101 207.072 105.071C207.072 107.145 207.106 108.985 207.172 110.691C207.239 112.364 207.339 114.003 207.439 115.575C207.539 117.147 207.639 118.786 207.773 120.425C207.906 122.098 207.973 123.938 208.04 126.012C208.073 127.049 208.473 127.751 209.174 128.086C209.875 128.42 210.609 128.688 211.343 128.956C211.743 129.123 212.143 129.257 212.51 129.457C212.877 129.625 213.077 129.926 213.077 130.327C213.077 130.628 212.877 130.829 212.51 130.896C212.143 130.963 211.81 130.996 211.576 130.996C210.609 130.996 209.875 130.963 209.274 130.896C208.707 130.829 208.14 130.762 207.606 130.695C207.072 130.662 206.372 130.628 205.471 130.628C204.604 130.628 203.903 130.662 203.369 130.695C202.802 130.762 202.268 130.795 201.701 130.896C201.134 130.963 200.367 130.996 199.366 130.996C199.099 130.996 198.799 130.963 198.432 130.896C198.065 130.829 197.865 130.628 197.865 130.327C197.865 129.926 198.065 129.625 198.432 129.457C198.799 129.29 199.199 129.123 199.599 128.956C200.333 128.721 201.034 128.42 201.668 128.086C202.302 127.751 202.602 127.082 202.602 126.012C202.602 124.272 202.569 121.764 202.535 118.519C202.468 115.274 202.335 111.895 202.068 108.383C202.001 107.781 201.901 107.547 201.735 107.647C201.568 107.747 201.334 108.048 201.101 108.55L191.493 130.762C191.126 131.565 190.692 132 190.192 132Z" fill="white"/>
<path d="M217.381 130.93C217.114 130.93 216.814 130.896 216.447 130.829C216.08 130.762 215.88 130.562 215.88 130.261C215.88 129.859 216.08 129.558 216.447 129.391C216.814 129.224 217.214 129.056 217.615 128.889C218.349 128.655 219.083 128.354 219.75 128.019C220.417 127.685 220.751 127.016 220.751 125.945V105.306C220.751 104.302 220.45 103.6 219.883 103.232C219.316 102.864 218.649 102.563 217.882 102.362C217.481 102.195 217.081 102.028 216.714 101.827C216.347 101.626 216.147 101.359 216.147 100.991C216.147 100.69 216.347 100.489 216.714 100.422C217.081 100.355 217.415 100.322 217.648 100.322C218.649 100.322 219.416 100.355 219.95 100.388C220.484 100.455 220.984 100.489 221.451 100.589C221.918 100.656 222.585 100.69 223.453 100.69C224.354 100.69 225.021 100.656 225.454 100.589C225.888 100.522 226.355 100.455 226.856 100.388C227.356 100.355 228.09 100.322 229.124 100.322C229.358 100.322 229.691 100.355 230.058 100.422C230.425 100.489 230.625 100.69 230.625 100.991C230.625 101.359 230.425 101.626 230.058 101.827C229.691 102.028 229.291 102.195 228.891 102.362C228.157 102.563 227.49 102.864 226.889 103.232C226.322 103.6 226.022 104.302 226.022 105.306V120.359C226.022 120.56 226.122 120.694 226.355 120.76C226.589 120.827 226.722 120.861 226.756 120.794L241.101 105.975C241.201 105.774 241.301 105.64 241.368 105.607C241.434 105.573 241.468 105.406 241.468 105.139C241.468 104.135 241.201 103.466 240.734 103.131C240.233 102.797 239.6 102.529 238.866 102.329C238.465 102.161 238.065 101.994 237.698 101.793C237.331 101.593 237.131 101.325 237.131 100.957C237.131 100.656 237.298 100.455 237.665 100.388C237.998 100.322 238.332 100.288 238.632 100.288C239.633 100.288 240.367 100.322 240.901 100.355C241.401 100.422 241.868 100.455 242.335 100.556C242.769 100.623 243.436 100.656 244.27 100.656C245.171 100.656 245.838 100.623 246.305 100.556C246.772 100.489 247.239 100.422 247.773 100.355C248.307 100.322 249.074 100.288 250.075 100.288C250.375 100.288 250.709 100.322 251.042 100.388C251.376 100.455 251.576 100.656 251.576 100.957C251.576 101.325 251.376 101.593 251.009 101.793C250.642 101.994 250.242 102.161 249.841 102.329C249.107 102.529 248.373 102.83 247.74 103.198C247.072 103.566 246.772 104.269 246.772 105.272V125.912C246.772 126.916 247.139 127.585 247.873 127.953C248.607 128.321 249.341 128.622 250.075 128.856C250.475 129.023 250.876 129.157 251.243 129.358C251.609 129.525 251.81 129.826 251.81 130.227C251.81 130.528 251.609 130.729 251.243 130.796C250.876 130.863 250.542 130.896 250.308 130.896C249.308 130.896 248.507 130.863 247.94 130.796C247.373 130.729 246.839 130.662 246.338 130.595C245.838 130.562 245.137 130.528 244.237 130.528C243.369 130.528 242.702 130.562 242.168 130.595C241.635 130.662 241.101 130.696 240.5 130.796C239.933 130.863 239.132 130.896 238.132 130.896C237.865 130.896 237.565 130.863 237.198 130.796C236.831 130.729 236.63 130.528 236.63 130.227C236.63 129.826 236.831 129.525 237.198 129.358C237.565 129.19 237.965 129.023 238.365 128.856C239.099 128.622 239.833 128.321 240.5 127.953C241.168 127.618 241.501 126.916 241.501 125.912V109.889C241.501 109.688 241.468 109.554 241.434 109.487C241.368 109.42 241.301 109.42 241.201 109.521L226.255 125.109C226.122 125.276 226.022 125.544 226.022 125.945C226.022 126.982 226.389 127.685 227.123 128.019C227.856 128.354 228.59 128.622 229.324 128.889C229.725 129.056 230.125 129.19 230.492 129.391C230.859 129.558 231.059 129.859 231.059 130.261C231.059 130.562 230.859 130.762 230.492 130.829C230.125 130.896 229.791 130.93 229.558 130.93C228.557 130.93 227.756 130.896 227.189 130.829C226.622 130.762 226.088 130.696 225.588 130.629C225.088 130.595 224.387 130.562 223.486 130.562C222.619 130.562 221.952 130.595 221.418 130.629C220.884 130.696 220.35 130.729 219.75 130.829C219.183 130.896 218.382 130.93 217.381 130.93Z" fill="white"/>
<path d="M263.018 130.93C262.752 130.93 262.418 130.897 261.984 130.83C261.517 130.763 261.317 130.562 261.317 130.261C261.317 129.86 261.517 129.559 261.884 129.391C262.251 129.224 262.651 129.057 263.052 128.89C263.786 128.655 264.52 128.354 265.187 127.986C265.854 127.652 266.188 126.916 266.188 125.812V105.407C266.188 104.938 266.121 104.436 266.021 103.868C265.921 103.299 265.654 102.998 265.287 102.998H260.783C260.049 102.998 259.449 103.165 258.982 103.433C258.515 103.734 258.148 104.202 257.814 104.838C257.481 105.473 257.18 106.343 256.88 107.447C256.78 107.848 256.58 108.25 256.246 108.685C255.913 109.12 255.546 109.32 255.145 109.32C254.945 109.32 254.778 109.22 254.611 109.019C254.478 108.819 254.378 108.551 254.378 108.183C254.378 108.083 254.378 107.949 254.411 107.815C254.445 107.681 254.478 107.514 254.511 107.38C254.712 106.678 254.912 105.674 255.112 104.336C255.312 102.998 255.412 101.861 255.412 100.924C255.412 100.523 255.512 100.188 255.679 99.9539C255.846 99.7197 256.146 99.5859 256.546 99.5859C256.947 99.5859 257.28 99.6528 257.581 99.7532C257.881 99.8536 258.315 99.9873 258.948 100.121C259.482 100.288 260.049 100.389 260.55 100.489C261.084 100.589 261.784 100.656 262.685 100.656H278.131C278.765 100.656 279.432 100.623 280.066 100.589C280.7 100.556 281.133 100.422 281.334 100.288C281.567 100.088 281.867 99.9204 282.168 99.7866C282.468 99.6528 282.668 99.5859 282.768 99.5859C282.935 99.5859 283.102 99.6863 283.302 99.887C283.502 100.088 283.602 100.355 283.602 100.723C283.602 101.225 283.535 101.794 283.435 102.396C283.335 102.998 283.302 103.634 283.302 104.269C283.302 104.871 283.302 105.473 283.335 106.042C283.369 106.611 283.402 107.179 283.435 107.748C283.469 108.116 283.435 108.451 283.235 108.852C283.068 109.22 282.802 109.421 282.435 109.421C282.068 109.421 281.801 109.187 281.567 108.718C281.334 108.25 281.2 107.848 281.167 107.547C281.1 106.644 280.933 105.841 280.633 105.172C280.333 104.503 279.899 103.968 279.265 103.634C278.665 103.299 277.897 103.098 276.93 103.098H272.56C272.059 103.098 271.759 103.366 271.626 103.935C271.492 104.503 271.425 105.005 271.425 105.507V125.979C271.425 127.05 271.792 127.752 272.526 128.087C273.26 128.455 273.994 128.756 274.728 128.99C275.129 129.157 275.529 129.291 275.896 129.492C276.263 129.659 276.463 129.96 276.463 130.361C276.463 130.662 276.229 130.863 275.796 130.93C275.362 130.997 274.995 131.03 274.762 131.03C273.794 131.03 273.06 130.997 272.493 130.93C271.926 130.863 271.425 130.796 270.958 130.729C270.491 130.696 269.791 130.662 268.89 130.662C268.023 130.662 267.355 130.696 266.855 130.729C266.355 130.796 265.854 130.83 265.32 130.93C264.787 130.897 264.019 130.93 263.018 130.93Z" fill="white"/>
<path d="M288.006 130.929C287.739 130.929 287.406 130.896 286.905 130.829C286.438 130.762 286.205 130.562 286.205 130.26C286.205 129.859 286.405 129.558 286.772 129.391C287.139 129.223 287.539 129.056 287.939 128.889C288.673 128.655 289.407 128.354 290.074 128.019C290.742 127.685 291.075 127.016 291.075 125.945V105.306C291.075 104.302 290.842 103.6 290.408 103.232C289.941 102.864 289.341 102.563 288.607 102.362C288.206 102.195 287.806 102.027 287.439 101.827C287.072 101.626 286.872 101.358 286.872 100.99C286.872 100.689 287.072 100.489 287.472 100.422C287.873 100.355 288.206 100.321 288.54 100.321C289.541 100.321 290.241 100.355 290.675 100.388C291.109 100.455 291.509 100.489 291.909 100.589C292.31 100.656 292.944 100.689 293.778 100.689C294.678 100.689 295.312 100.656 295.713 100.589C296.113 100.522 296.547 100.455 296.98 100.388C297.447 100.355 298.115 100.321 299.082 100.321C299.316 100.321 299.682 100.355 300.183 100.422C300.65 100.489 300.883 100.689 300.883 100.99C300.883 101.358 300.683 101.626 300.316 101.827C299.949 102.027 299.549 102.195 299.149 102.362C298.415 102.563 297.748 102.864 297.147 103.232C296.58 103.6 296.28 104.302 296.28 105.306V112.899C296.28 113.1 296.38 113.234 296.547 113.301C296.713 113.367 296.88 113.401 297.047 113.334C297.481 113.1 298.281 112.933 299.382 112.832C300.483 112.765 301.384 112.732 302.084 112.732C302.919 112.732 303.919 112.866 305.087 113.133C306.221 113.401 307.389 113.869 308.49 114.572C309.624 115.241 310.558 116.177 311.292 117.315C312.026 118.486 312.426 119.89 312.426 121.596C312.426 123.804 311.826 125.611 310.658 126.982C309.491 128.354 307.923 129.357 305.954 129.959C304.019 130.562 301.884 130.863 299.582 130.863C298.615 130.863 297.881 130.829 297.314 130.762C296.747 130.695 296.246 130.628 295.779 130.562C295.312 130.528 294.612 130.495 293.711 130.495C292.843 130.495 292.176 130.528 291.676 130.562C291.175 130.628 290.675 130.662 290.141 130.762C289.708 130.896 288.974 130.929 288.006 130.929ZM300.383 128.822C302.085 128.822 303.619 128.253 304.954 127.116C306.288 125.979 306.989 124.306 306.989 122.098C306.989 119.589 306.388 117.75 305.22 116.612C304.053 115.475 302.251 114.873 299.849 114.873C298.515 114.873 297.547 115.04 297.014 115.408C296.647 115.676 296.446 116.01 296.413 116.412C296.346 116.846 296.346 117.147 296.346 117.348V125.176C296.346 126.38 296.78 127.283 297.681 127.885C298.582 128.488 299.482 128.822 300.383 128.822Z" fill="white"/>
<path d="M324.804 131.766C323.903 131.766 323.136 131.398 322.535 130.662C321.935 129.926 321.634 129.123 321.634 128.22C321.634 126.916 322.068 125.812 322.969 124.909C323.869 124.005 324.937 123.571 326.205 123.571C327.139 123.571 327.939 123.938 328.54 124.674C329.14 125.41 329.441 126.213 329.441 127.116C329.441 128.388 329.007 129.458 328.106 130.395C327.206 131.298 326.105 131.766 324.804 131.766ZM326.005 117.449C325.838 117.449 325.538 117.081 325.037 116.312C324.537 115.576 324.07 114.639 323.636 113.568C323.202 112.498 323.002 111.461 323.002 110.524C323.002 109.22 323.236 108.049 323.669 106.978C324.103 105.908 325.037 104.871 326.405 103.801C327.773 102.764 329.908 101.559 332.743 100.255C334.645 99.3515 336.346 98.1473 337.814 96.6419C339.282 95.1366 340.016 93.2968 340.016 91.089C340.016 89.3495 339.449 88.0114 338.348 87.1082C337.247 86.205 335.746 85.7367 333.844 85.7367C333.177 85.7367 332.677 85.8036 332.31 85.9709C331.943 86.1047 331.609 86.2385 331.309 86.3388C330.875 86.4726 330.508 86.6399 330.208 86.8072C329.941 86.941 329.608 87.0413 329.274 87.0413C328.707 87.0413 328.273 86.8741 327.973 86.5061C327.639 86.1716 327.472 85.6698 327.472 85.0008C327.472 83.9972 327.973 83.0606 329.007 82.2243C330.041 81.388 331.209 80.9531 332.577 80.9531C334.578 80.9531 336.313 81.5218 337.748 82.6257C339.182 83.7296 340.316 85.2349 341.117 87.1082C341.918 88.9815 342.318 91.089 342.318 93.3971C342.318 95.2035 342.051 96.7757 341.584 98.1138C341.084 99.4519 340.383 100.589 339.516 101.492C338.648 102.429 337.614 103.198 336.413 103.867L329.808 107.246C328.306 108.049 327.306 108.852 326.772 109.621C326.238 110.391 325.971 111.394 325.971 112.598C325.971 113.1 326.005 113.602 326.138 114.07C326.238 114.539 326.338 114.973 326.438 115.375C326.538 115.676 326.638 115.977 326.705 116.245C326.772 116.512 326.805 116.78 326.805 117.047C326.805 117.248 326.705 117.382 326.505 117.415C326.305 117.449 326.138 117.449 326.005 117.449Z" fill="white"/>
<path d="M48.4068 30.3735L46.8389 29.5372C54.245 15.3872 47.8397 5.3517 47.773 5.25135L49.2742 4.28125C49.5411 4.71612 56.3134 15.2868 48.4068 30.3735Z" fill="white"/>
<path d="M51.7765 21.0744L50.2085 20.2047C51.2761 18.2979 53.3445 16.2574 56.0801 13.8154L57.2477 15.1535C55.0125 17.1606 52.7773 19.268 51.7765 21.0744Z" fill="white"/>
<path d="M54.2451 16.624L54.879 15.1856C55.9465 12.8105 57.6813 10.402 59.9499 8.22768C63.7864 4.58145 68.4236 2.13949 72.4603 1.67116L73.9949 1.50391L73.361 2.94232C72.2935 5.31739 70.5587 7.7259 68.2901 9.90026C64.487 13.5465 59.8164 16.0219 55.8131 16.4568L54.2451 16.624ZM70.9257 3.77861C67.723 4.6149 64.1534 6.72236 61.2176 9.53229C59.6163 11.0711 58.3152 12.6767 57.3477 14.3493C60.5504 13.513 64.12 11.4056 67.0558 8.59564C68.6571 7.05687 69.9582 5.41774 70.9257 3.77861Z" fill="white"/>
<path d="M47.6732 5.65286C47.4063 5.65286 47.1394 5.61941 46.8725 5.55251C45.3713 5.11763 44.5372 3.54541 44.9709 2.04009C45.4046 0.534766 46.9726 -0.301524 48.4738 0.133346C49.9751 0.568217 50.8091 2.14044 50.3754 3.64576C50.0418 4.85002 48.9075 5.65286 47.6732 5.65286ZM47.6732 1.77247C47.2395 1.77247 46.8058 2.07354 46.6723 2.50841C46.5055 3.04364 46.8391 3.64576 47.3729 3.81302C47.9067 3.98028 48.5072 3.64576 48.674 3.11054C48.8408 2.57531 48.5072 1.97318 47.9734 1.80593C47.8733 1.80593 47.7733 1.77247 47.6732 1.77247Z" fill="white"/>
<path d="M367.072 116.679C367.072 116.679 361.3 119.321 359.198 122.466C356.596 126.346 358.064 130.595 358.331 131.698C358.364 131.765 360.533 131.966 362.768 131.23C363.869 130.862 366.705 129.19 367.806 126.447C368.906 123.737 369.14 122.8 368.84 121.228C368.54 119.723 366.905 117.415 367.072 116.679Z" fill="white"/>
<path d="M360.333 117.615C360.333 117.615 355.329 118.886 352.126 118.384C348.323 117.782 345.02 114.771 345.02 114.771C345.02 114.771 346.755 114.671 347.922 114.437C349.39 114.136 353.227 112.129 355.896 112.898C357.597 113.433 359.098 113.969 360.333 117.615Z" fill="white"/>
<path d="M380.95 115.474C380.95 115.474 378.014 117.815 376.646 120.391C375.279 122.933 374.211 126.914 376.746 131.999C376.746 131.999 377.347 130.728 378.248 129.958C379.148 129.189 382.451 127.048 383.452 123.669C384.053 121.629 383.886 120.659 383.485 119.321C383.152 117.983 380.95 116.042 380.95 115.474Z" fill="white"/>
<path d="M368.94 114.906C368.94 114.906 368.473 114.17 367.705 113.935C365.937 113.4 364.903 113.601 363.769 112.664C362.601 111.694 361.434 109.553 361.434 109.553C361.434 109.553 364.87 108.55 366.605 109.955C368.239 111.36 368.806 112.163 368.94 114.906Z" fill="white"/>
<path d="M381.05 114.002C381.05 114.002 378.648 112.664 376.546 111.326C374.445 109.988 372.843 107.512 372.61 106.208C372.41 104.869 372.81 104.033 372.81 104.033C372.81 104.033 373.844 104.869 374.978 105.304C375.779 105.605 379.382 106.576 380.45 107.947C383.018 111.259 381.05 114.002 381.05 114.002Z" fill="white"/>
<path d="M351.459 123.033C351.459 123.033 349.39 122.699 347.155 124.672C344.92 126.679 344.786 127.917 344.92 128.185C345.02 128.419 345.72 128.452 347.322 127.951C348.69 127.516 349.69 127.114 350.658 125.676C351.659 124.204 351.459 123.033 351.459 123.033Z" fill="white"/>
<path d="M397.497 117.145C397.43 117.112 390.958 114.737 381.984 114.335C373.71 113.967 361.6 115.205 350.825 123.367L351.225 123.902C361.867 115.874 373.844 114.636 381.984 115.004C390.825 115.406 397.23 117.747 397.297 117.781L397.497 117.145Z" fill="white"/>
<path d="M152.327 129.591L151.193 129.558C151.326 124.674 150.359 121.027 149.525 118.82C148.624 116.411 147.656 115.14 147.623 115.14L148.524 114.438C148.691 114.638 152.627 119.823 152.327 129.591Z" fill="white"/>
<path d="M150.492 119.221L150.125 119.188C148.49 119.054 146.822 117.85 145.821 116.01C144.82 114.17 144.687 112.13 145.454 110.658L145.621 110.323L145.988 110.357C147.623 110.491 149.291 111.695 150.292 113.535C151.292 115.374 151.426 117.415 150.659 118.887L150.492 119.221ZM146.322 111.561C145.921 112.665 146.121 114.137 146.822 115.475C147.556 116.813 148.69 117.783 149.825 118.017C150.225 116.913 150.025 115.441 149.324 114.103C148.59 112.765 147.456 111.795 146.322 111.561Z" fill="white"/>
<path d="M151.526 124.707L151.36 124.372C150.759 123.201 150.892 121.596 151.693 120.157C152.494 118.719 153.828 117.782 155.129 117.682L155.496 117.648L155.663 117.983C156.264 119.154 156.13 120.759 155.329 122.198C154.529 123.636 153.194 124.573 151.893 124.673L151.526 124.707ZM154.829 118.886C154.028 119.087 153.228 119.789 152.694 120.726C152.16 121.663 151.993 122.7 152.227 123.502C153.028 123.302 153.828 122.599 154.362 121.663C154.896 120.693 155.063 119.656 154.829 118.886Z" fill="white"/>
<path d="M151.192 127.149C150.392 123.737 146.088 120.994 146.055 120.96L146.655 119.99C146.689 120.024 147.856 120.76 149.124 121.93C150.859 123.57 151.926 125.242 152.293 126.881L151.192 127.149Z" fill="white"/>
<path d="M414.879 16.3913C415.079 16.5252 415.112 16.7259 414.979 16.8931L414.512 17.5622C414.445 17.6291 414.378 17.696 414.278 17.7294C414.178 17.7629 414.078 17.7294 413.978 17.6625L410.575 15.2205L404.003 24.4197C403.836 24.6539 403.636 24.6873 403.402 24.5201L402.835 24.0852C402.602 23.918 402.568 23.7172 402.735 23.4831L409.307 14.2839L405.904 11.8419C405.704 11.7081 405.671 11.5074 405.838 11.3067L406.305 10.6377C406.438 10.437 406.605 10.4035 406.805 10.5373L414.879 16.3913Z" fill="white"/>
<path d="M424.62 25.3904C424.82 25.5911 424.854 25.7918 424.653 26.026L424.153 26.5278C424.053 26.6281 423.953 26.695 423.819 26.695C423.719 26.695 423.619 26.6281 423.519 26.5612L418.181 21.4097L414.045 25.7249L418.415 29.9398C418.515 30.0402 418.548 30.1405 418.548 30.2409C418.548 30.3413 418.515 30.4751 418.415 30.5754L417.914 31.0772C417.714 31.2779 417.514 31.2779 417.314 31.0772L412.944 26.8623L411.176 28.7356L416.747 34.0878C416.847 34.1882 416.88 34.2885 416.914 34.3889C416.914 34.4892 416.88 34.6231 416.78 34.7234L416.28 35.2252C416.08 35.4259 415.879 35.4259 415.646 35.2252L409.207 29.0366C409.141 28.9697 409.107 28.8694 409.141 28.769C409.174 28.6687 409.207 28.5683 409.274 28.5014L417.881 19.5029C417.981 19.4026 418.081 19.3691 418.181 19.3691C418.281 19.3691 418.382 19.4026 418.482 19.5029L424.62 25.3904Z" fill="white"/>
<path d="M431.592 38.3363C431.626 38.0352 431.626 37.7341 431.592 37.3996C431.559 37.0651 431.492 36.7306 431.392 36.3961C431.292 36.0616 431.159 35.727 431.025 35.426C430.892 35.0915 430.692 34.7904 430.491 34.5228C430.024 33.9207 429.491 33.4523 428.89 33.1178C428.256 32.7833 427.622 32.5491 426.922 32.4822C426.221 32.3819 425.554 32.4488 424.853 32.616C424.153 32.7833 423.519 33.1178 422.918 33.5527C422.318 33.9876 421.851 34.5562 421.517 35.1584C421.184 35.7939 420.95 36.4295 420.85 37.132C420.75 37.801 420.817 38.5035 420.983 39.206C421.15 39.9085 421.484 40.5441 421.918 41.1462C422.351 41.7149 422.885 42.1832 423.552 42.5512C424.186 42.9191 424.82 43.1533 425.487 43.2536C425.654 43.2871 425.754 43.354 425.854 43.4209C425.954 43.4878 425.988 43.5882 425.954 43.722L425.854 44.3241C425.821 44.4914 425.754 44.6252 425.654 44.6921C425.554 44.759 425.387 44.759 425.154 44.6921C424.753 44.5917 424.32 44.4579 423.919 44.2906C423.519 44.1234 423.119 43.9561 422.752 43.722C422.385 43.5213 422.018 43.2536 421.684 42.986C421.35 42.7184 421.05 42.3839 420.783 42.0494C420.216 41.28 419.816 40.4772 419.582 39.6074C419.349 38.7377 419.315 37.8345 419.416 36.9648C419.516 36.095 419.816 35.2587 420.25 34.4559C420.683 33.653 421.284 32.984 422.051 32.3819C422.818 31.8132 423.619 31.4118 424.52 31.1776C425.387 30.9435 426.288 30.91 427.155 31.0104C428.023 31.1107 428.857 31.4118 429.657 31.8467C430.458 32.2815 431.125 32.8837 431.726 33.653C431.993 34.021 432.226 34.389 432.393 34.7904C432.56 35.1918 432.727 35.5932 432.827 36.0281C432.927 36.4295 433.027 36.8644 433.06 37.2993C433.094 37.7341 433.127 38.1356 433.127 38.5035C433.127 38.7042 433.094 38.838 432.993 38.9384C432.927 39.0388 432.793 39.0722 432.66 39.0722H432.226C432.159 39.0722 432.059 39.0722 431.993 39.0722C431.926 39.0722 431.859 39.0388 431.792 38.9718C431.726 38.9384 431.692 38.838 431.659 38.7377C431.592 38.6373 431.592 38.5035 431.592 38.3363Z" fill="white"/>
<path d="M440.933 48.9724C441.067 49.2065 441 49.3738 440.8 49.4742L440.099 49.8756C439.999 49.909 439.933 49.9425 439.833 49.909C439.732 49.909 439.666 49.8421 439.599 49.7083L437.564 46.0621L427.689 51.5816C427.422 51.7154 427.255 51.682 427.089 51.4143L426.755 50.7788C426.622 50.5112 426.655 50.3439 426.922 50.1766L436.797 44.6571L434.762 41.0109C434.628 40.8102 434.695 40.6429 434.928 40.5091L435.629 40.1077C435.829 39.9739 435.996 40.0408 436.129 40.2415L440.933 48.9724Z" fill="white"/>
</g>
<defs>
<clipPath id="clip0">
<rect width="441" height="132" fill="white"/>
</clipPath>
</defs>
</svg>
