<svg width="294" height="124" viewBox="0 0 294 124" fill="none" xmlns="http://www.w3.org/2000/svg">
<g clip-path="url(#clip0)">
<path d="M12.699 101.585C10.3732 101.585 8.30593 101.254 6.49704 100.554C4.68815 99.855 3.17459 99.1188 1.95636 98.3459C1.51337 98.0515 1.10729 97.6834 0.738128 97.1681C0.33205 96.6896 0.14747 96.1375 0.14747 95.5118C0.14747 94.7389 0.110554 93.5611 0.0367215 91.9416C-0.0371107 90.359 0.184386 88.3714 0.738128 85.979C0.848876 85.4269 1.03346 84.9853 1.32879 84.654C1.5872 84.3228 1.91944 84.1387 2.32552 84.1387C2.76851 84.1387 3.06384 84.3596 3.21151 84.838C3.35917 85.3165 3.433 86.0158 3.433 86.936C3.433 88.9971 3.91291 90.9479 4.87273 92.8618C5.83255 94.7757 7.16153 96.3216 8.82276 97.4994C10.484 98.6772 12.3298 99.2661 14.3971 99.2661C17.092 99.2661 19.6023 98.5667 21.8172 97.1681C24.0691 95.7695 25.8411 93.8556 27.1701 91.4263C28.4991 88.9971 29.1635 86.2367 29.1635 83.145C29.1635 79.3907 28.3883 76.5935 26.8747 74.7531C25.3612 72.9128 23.3677 71.9927 20.9312 71.9927C20.4144 71.9927 19.9714 72.0295 19.5653 72.0663C19.1593 72.1399 18.7163 72.1767 18.2733 72.2503C17.8672 72.3239 17.4611 72.3607 16.9812 72.4712C16.5013 72.5448 16.0214 72.5816 15.5415 72.5816C14.9878 72.5816 14.434 72.4344 13.8434 72.1031C13.2527 71.7718 12.9574 71.2934 12.9574 70.7045C12.9574 69.9315 13.4004 69.3794 14.3233 69.0114C15.2462 68.6433 16.0952 68.4593 16.8705 68.4593C17.4611 68.4593 17.941 68.4961 18.2733 68.5329C18.6055 68.6065 18.9378 68.6801 19.27 68.7905C19.6392 68.901 20.0822 69.0114 20.5252 69.1218C20.9682 69.2322 21.5588 69.269 22.2602 69.269C24.5121 69.269 26.5794 68.7169 28.4621 67.5759C30.3079 66.435 31.7846 64.9627 32.8921 63.1592C33.9996 61.3189 34.5533 59.3682 34.5533 57.2702C34.5533 54.6938 33.8888 52.5222 32.5598 50.8659C31.2308 49.1728 28.942 48.3263 25.6565 48.3263C22.9247 48.3263 20.4883 49.0992 18.3102 50.6819C16.1321 52.2646 14.2125 54.7306 12.6251 58.0799C12.4036 58.5952 12.0714 59.0737 11.6284 59.589C11.1854 60.0675 10.7793 60.3251 10.3732 60.3251C9.96716 60.3251 9.74566 60.1411 9.63491 59.7362C9.52417 59.3682 9.45033 59.0369 9.45033 58.7425C9.45033 58.3744 9.598 57.6383 9.89333 56.5341C10.1887 55.4667 10.5947 54.2521 11.1116 52.9271C11.5915 51.6021 12.0714 50.3506 12.5144 49.2097C12.7728 48.6208 13.1789 48.2159 13.6219 48.1055C14.1018 47.9582 14.434 47.8846 14.6555 47.8846C15.2092 47.8846 15.9107 47.7742 16.7228 47.5902C17.535 47.4062 18.4209 47.1853 19.3808 46.9645C20.4883 46.7068 21.5957 46.4492 22.7032 46.2652C23.8107 46.0811 24.8813 45.9707 25.9518 45.9707C31.0463 45.9339 34.8486 46.9277 37.322 48.9888C39.7954 51.05 41.0505 53.884 41.0505 57.491C41.0505 59.8098 40.3122 61.871 38.8356 63.6745C37.3589 65.478 35.5869 66.9134 33.4827 68.0176C31.3785 69.1218 29.385 69.8579 27.5023 70.1892C27.0593 70.2628 26.8378 70.3732 26.8747 70.594C26.9117 70.8149 27.0224 70.9621 27.2439 70.9989C29.2743 71.4038 31.0093 72.1767 32.3383 73.3913C33.7042 74.6059 34.7379 76.0046 35.4393 77.624C36.1407 79.2435 36.5098 80.8998 36.5098 82.5929C36.5098 85.7214 35.8454 88.5187 34.4795 90.8743C33.2243 93.2667 31.3785 95.2542 29.0897 96.8001C26.8009 98.3827 24.2168 99.5605 21.4112 100.37C18.5686 101.18 15.6892 101.585 12.699 101.585Z" fill="white"/>
<path d="M44.6682 111.927C44.3729 111.927 44.0406 111.67 43.6715 111.154C43.2654 110.639 43.0439 110.05 43.007 109.388C42.8962 106.774 42.6747 104.787 42.3056 103.425C41.9364 102.026 41.6041 100.996 41.2719 100.297C40.9397 99.5972 40.792 98.9347 40.792 98.309C40.792 97.8305 40.9027 97.4992 41.1242 97.352C41.3457 97.2048 41.6041 97.1312 41.8626 97.1312C42.121 97.1312 42.4163 97.168 42.7485 97.2048C43.0439 97.2784 43.3023 97.2784 43.5238 97.2784C45.1112 97.2784 46.4402 96.6159 47.5107 95.3277C48.5444 94.0395 49.3934 92.3096 50.021 90.1012C50.6117 87.9296 51.0547 85.4268 51.3131 82.6664C51.5715 79.8691 51.6822 76.9982 51.6822 74.0169C51.6822 72.4342 51.2762 71.3301 50.5378 70.7044C49.7626 70.1155 48.692 69.6738 47.2892 69.3793C47.0677 69.3425 46.7724 69.1953 46.4032 69.0113C46.0341 68.8272 45.8495 68.5328 45.8495 68.1279C45.8495 67.7967 46.1079 67.539 46.6247 67.355C47.1416 67.171 47.5107 67.0605 47.6584 67.0605C48.692 67.0605 49.5042 67.0974 49.9841 67.171C50.5009 67.2446 51.2023 67.2814 52.1622 67.2814H69.5127C70.4356 67.2814 71.2109 67.2446 71.8385 67.171C72.4291 67.0974 73.2782 67.0605 74.3487 67.0605C74.5333 67.0605 74.8656 67.171 75.3824 67.355C75.8992 67.539 76.1576 67.7967 76.1576 68.1279C76.1576 68.5328 75.9731 68.7904 75.6777 69.0113C75.3455 69.1953 75.0502 69.3425 74.7548 69.3793C73.352 69.6738 72.3922 70.1523 71.8015 70.8516C71.2109 71.5877 70.9156 73.1336 70.9156 75.5628V93.7818C70.9156 94.886 71.0263 95.7325 71.2478 96.3582C71.4693 96.984 72.1707 97.2784 73.3889 97.2784C73.6473 97.2784 74.0534 97.2416 74.4964 97.2048C74.9763 97.168 75.3824 97.1312 75.7885 97.1312C76.2315 97.1312 76.6006 97.2048 76.859 97.3152C77.1175 97.4256 77.2651 97.6097 77.2651 97.9041C77.2651 98.0881 77.2282 98.1986 77.1913 98.309C76.9698 98.8611 76.7114 99.4868 76.4161 100.223C76.1207 100.922 75.8254 101.99 75.5301 103.425C75.2347 104.824 75.0502 106.848 74.9394 109.424C74.8656 110.087 74.6441 110.676 74.2749 111.191C73.8688 111.706 73.5366 111.964 73.2782 111.964C72.5399 111.964 72.0969 111.633 71.8754 111.007C71.6539 110.381 71.5431 109.682 71.5431 108.983C71.5431 108.357 71.5431 107.768 71.58 107.142C71.617 106.517 71.617 105.965 71.617 105.413C71.617 103.131 71.3585 101.769 70.8417 101.217C70.3249 100.701 69.402 100.444 68.1468 100.444H50.9439C49.5411 100.444 48.4336 100.849 47.5846 101.658C46.7355 102.468 46.2925 104.161 46.2925 106.738C46.2925 107.106 46.2925 107.474 46.3294 107.805C46.3663 108.136 46.3663 108.504 46.3663 108.983C46.3663 109.682 46.2556 110.381 46.0341 111.007C45.8495 111.596 45.3696 111.927 44.6682 111.927ZM51.1285 97.352H62.4987C63.6062 97.352 64.3076 97.2416 64.6029 97.0576C64.8982 96.8735 65.0459 96.211 65.0459 95.1068V73.6489C65.0459 73.3176 65.0459 72.8759 65.009 72.287C64.9721 71.6981 64.8613 71.1828 64.6767 70.7044C64.4921 70.2259 64.1599 70.005 63.7169 70.005H56.3337C55.8907 70.005 55.5584 70.2259 55.3369 70.7044C55.1154 71.1828 55.0047 71.6981 54.9678 72.287C54.9309 72.8759 54.9309 73.3176 54.9309 73.6489C54.9309 76.5197 54.7832 79.2802 54.5248 81.8934C54.2295 84.5067 53.7496 87.0463 53.0851 89.4387C52.3837 91.8311 51.4238 94.1499 50.2056 96.3582C50.0579 96.5791 49.9472 96.7631 49.9472 96.8735C49.9472 96.984 50.021 97.0944 50.2056 97.2048C50.3902 97.2784 50.6855 97.352 51.1285 97.352Z" fill="white"/>
<path d="M87.3434 101.585C86.0144 101.585 84.7593 101.143 83.6149 100.26C82.4705 99.3763 81.5106 98.2353 80.8462 96.7631C80.1447 95.3276 79.8125 93.8186 79.8125 92.1991C79.8125 89.6227 80.3293 86.7886 81.363 83.8073C82.3966 80.7892 83.7994 77.9551 85.6452 75.2683C87.4541 72.5814 89.5953 70.4098 91.9948 68.6799C94.3944 66.9869 96.9785 66.1035 99.7472 66.1035C102.516 66.1035 104.657 67.0605 106.171 68.9376C107.684 70.8147 108.459 73.1335 108.459 75.894C108.459 78.3968 107.979 81.0836 106.946 84.0649C105.949 87.0094 104.509 89.8067 102.664 92.4567C100.818 95.1068 98.6028 97.2783 96.0187 99.0082C93.4715 100.701 90.5551 101.585 87.3434 101.585ZM88.6724 99.0819C90.0013 99.0819 91.3303 98.493 92.6962 97.352C94.0621 96.1742 95.3542 94.6651 96.6093 92.788C97.8645 90.9109 98.972 88.8497 99.9318 86.5677C100.892 84.3226 101.667 82.0406 102.257 79.7586C102.848 77.5134 103.143 75.4155 103.143 73.5384C103.143 72.1029 102.922 70.9251 102.442 69.9682C101.962 69.048 101.002 68.5695 99.5626 68.5695C98.2706 68.5695 96.9785 69.0848 95.6126 70.1522C94.2467 71.2196 92.9546 72.6182 91.6995 74.3849C90.4443 76.1516 89.3369 78.1391 88.3401 80.3107C87.3434 82.4823 86.5681 84.7642 85.9775 87.1198C85.3868 89.4754 85.0915 91.7574 85.0915 93.9658C85.0915 95.7693 85.4238 97.0943 86.0513 97.9041C86.7158 98.677 87.5649 99.0819 88.6724 99.0819Z" fill="white"/>
<path d="M113.258 124C112.963 124 112.631 123.963 112.188 123.889C111.745 123.816 111.523 123.595 111.523 123.263C111.523 122.822 111.745 122.49 112.151 122.306C112.557 122.122 113 121.938 113.443 121.754C114.255 121.46 115.067 121.165 115.843 120.797C116.618 120.429 116.987 119.693 116.987 118.589V76.63C116.987 76.1883 116.876 75.5258 116.618 74.6425C116.359 73.7591 115.953 72.9126 115.4 72.066C114.846 71.2563 114.108 70.741 113.148 70.5938C112.926 70.557 112.742 70.4098 112.668 70.1889C112.557 69.9681 112.483 69.7473 112.483 69.5264C112.483 69.2688 112.52 69.0111 112.668 68.8639C112.779 68.7167 112.926 68.6063 113.074 68.5327C115.178 68.0174 116.987 67.5021 118.464 66.9132C119.94 66.3243 121.38 65.7722 122.709 65.2201C122.746 65.2201 122.783 65.2201 122.783 65.1833C122.783 65.1465 122.82 65.1465 122.857 65.1465C122.967 65.1465 123.078 65.2201 123.189 65.4041C123.3 65.5514 123.374 65.7354 123.374 65.8826C123.374 66.3611 123.3 67.1708 123.152 68.2382C123.004 69.3056 122.931 70.1889 122.931 70.8514C122.931 71.2931 122.967 71.5508 123.004 71.5876C123.558 71.0355 124.555 70.3362 126.031 69.4896C127.508 68.6431 129.169 67.8701 131.052 67.1708C132.935 66.4715 134.744 66.1402 136.442 66.1402C139.321 66.1402 141.758 66.9132 143.788 68.4222C145.819 69.9313 147.369 71.9188 148.44 74.3112C149.51 76.7036 150.064 79.2064 150.064 81.8197C150.064 84.3225 149.584 86.7149 148.661 89.0705C147.701 91.4261 146.372 93.524 144.674 95.4012C142.939 97.2783 140.946 98.7873 138.694 99.9283C136.405 101.069 133.968 101.621 131.384 101.621C130.609 101.621 129.686 101.511 128.616 101.253C127.545 100.996 126.474 100.701 125.441 100.296C124.407 99.9283 123.632 99.4866 123.078 98.9714C123.004 98.9714 122.967 99.3026 122.931 99.9283C122.857 100.554 122.82 101.217 122.82 101.916C122.783 102.615 122.783 103.02 122.783 103.204V118.699C122.783 119.399 123.078 119.988 123.669 120.393C124.259 120.797 124.924 121.092 125.662 121.313C126.401 121.497 127.065 121.681 127.619 121.865C128.062 122.049 128.505 122.196 128.911 122.417C129.317 122.601 129.538 122.932 129.538 123.374C129.538 123.705 129.317 123.926 128.874 124C128.431 124.073 128.062 124.11 127.693 124.11C126.068 124.11 124.739 124.036 123.669 123.889C122.598 123.742 121.343 123.668 119.903 123.668C118.944 123.668 118.205 123.705 117.615 123.742C117.024 123.779 116.433 123.852 115.843 123.963C115.215 123.963 114.366 124 113.258 124ZM132.713 99.0082C133.525 99.0082 134.559 98.7505 135.74 98.272C136.922 97.7936 138.103 96.9838 139.321 95.8796C140.503 94.7754 141.499 93.3032 142.311 91.3893C143.124 89.5122 143.53 87.1934 143.53 84.4329C143.53 81.2308 143.124 78.6543 142.275 76.7404C141.462 74.8265 140.429 73.3543 139.211 72.3605C137.992 71.3667 136.737 70.7042 135.482 70.373C134.19 70.0417 133.119 69.8577 132.233 69.8577C130.904 69.8577 129.539 70.1521 128.136 70.6674C126.733 71.2195 125.515 71.8452 124.555 72.5445C123.595 73.2438 123.115 73.7591 123.115 74.164C123.115 75.3786 123.115 76.5932 123.078 77.8446C123.041 79.096 123.004 80.2738 123.004 81.4516C122.967 82.6294 122.931 83.66 122.931 84.5433C122.894 85.4635 122.894 86.1628 122.894 86.6413C122.894 88.8497 123.41 90.9108 124.444 92.7879C125.478 94.665 126.733 96.1741 128.283 97.3151C129.686 98.4561 131.2 99.0082 132.713 99.0082Z" fill="white"/>
<path d="M172.509 101.585C169.408 101.585 166.602 100.849 164.129 99.4502C161.655 98.0516 159.662 96.0272 158.185 93.5244C156.709 91.0216 155.97 88.1507 155.97 84.9486C155.97 82.6298 156.413 80.3846 157.336 78.1394C158.259 75.9311 159.551 73.9067 161.212 72.1032C162.874 70.2997 164.83 68.8275 167.045 67.7601C169.26 66.6927 171.623 66.1406 174.207 66.1406C177.418 66.1406 180.298 66.9136 182.882 68.4594C185.466 70.0053 187.497 72.0296 189.047 74.5324C190.561 77.0353 191.336 79.7957 191.336 82.777C191.336 85.9792 190.634 89.0341 189.232 91.9049C187.829 94.7758 185.725 97.0946 182.956 98.8981C180.113 100.665 176.643 101.585 172.509 101.585ZM174.244 99.0822C176.126 99.0822 177.825 98.7141 179.301 98.0148C180.778 97.3155 181.959 96.1377 182.771 94.5182C183.436 93.2668 183.879 91.7209 184.1 89.8806C184.322 88.0403 184.433 86.3472 184.433 84.7277C184.433 82.0777 183.953 79.5381 182.993 77.0721C182.033 74.606 180.667 72.6185 178.932 71.0358C177.197 69.4532 175.13 68.6803 172.73 68.6803C171.253 68.6803 169.888 68.9011 168.706 69.3796C167.525 69.8581 166.417 70.7046 165.421 71.9928C164.313 73.3914 163.575 75.0477 163.243 77.0353C162.91 79.0228 162.763 81.0103 162.763 82.9979C162.763 85.7215 163.243 88.2979 164.276 90.7272C165.273 93.1932 166.639 95.1807 168.337 96.7266C170.035 98.3092 172.029 99.0822 174.244 99.0822Z" fill="white"/>
<path d="M198.055 100.664C197.723 100.664 197.317 100.627 196.837 100.591C196.357 100.517 196.135 100.333 196.135 99.928C196.135 99.4863 196.357 99.1551 196.763 98.971C197.169 98.787 197.612 98.603 198.055 98.4189C198.867 98.1613 199.679 97.8668 200.454 97.646C201.23 97.3884 201.599 96.6891 201.599 95.5481V73.0963C201.599 71.8449 201.304 70.8879 200.676 70.3358C200.048 69.7469 199.347 69.3421 198.535 69.1212C198.092 68.9372 197.649 68.7532 197.243 68.5323C196.837 68.3115 196.615 68.017 196.615 67.6122C196.615 67.1705 196.874 66.9497 197.39 66.9129C197.907 66.876 198.276 66.876 198.498 66.876C199.605 66.876 200.418 66.876 200.897 66.9129C201.377 66.9497 201.857 66.9865 202.3 67.0233C202.743 67.0969 203.371 67.0969 204.22 67.0969C204.995 67.0969 205.697 67.0601 206.287 67.0233C206.878 66.9865 207.579 66.9129 208.355 66.8392C209.13 66.8024 210.053 66.7656 211.16 66.7656C215.369 66.7656 218.765 67.3913 221.386 68.6427C223.97 69.8942 225.299 71.8817 225.299 74.6422C225.299 76.8505 224.671 78.6172 223.453 79.9054C222.235 81.1937 220.721 82.077 218.949 82.5187C218.728 82.5923 218.58 82.6291 218.543 82.7027C218.47 82.7763 218.617 82.8499 218.949 82.9603C219.983 83.1444 221.127 83.5124 222.346 84.1381C223.564 84.7639 224.598 85.5736 225.447 86.6778C226.296 87.7451 226.739 89.107 226.739 90.6896C226.739 93.3029 226.037 95.3272 224.671 96.7627C223.269 98.2349 221.423 99.2655 219.06 99.8176C216.698 100.406 214.04 100.701 211.049 100.701C210.496 100.701 209.573 100.627 208.244 100.443C206.915 100.259 205.623 100.186 204.331 100.186C203.112 100.186 201.82 100.222 200.454 100.296C199.089 100.37 198.129 100.48 197.501 100.554C197.058 100.627 197.169 100.664 198.055 100.664ZM209.868 81.5985C213.375 81.5985 215.848 80.9728 217.399 79.7214C218.913 78.47 219.688 77.0346 219.688 75.3783C219.688 73.7956 219.134 72.397 217.99 71.2928C216.845 70.1518 214.63 69.5997 211.308 69.5997C209.757 69.5997 208.724 69.8205 208.244 70.299C207.764 70.7775 207.505 71.44 207.505 72.3234V79.5374C207.505 80.6048 207.838 81.1937 208.465 81.3777C209.056 81.5249 209.536 81.5985 209.868 81.5985ZM212.009 97.9405C214.778 97.9405 216.919 97.3884 218.433 96.2474C219.946 95.1064 220.721 93.4133 220.721 91.1681C220.721 88.334 219.762 86.4937 217.916 85.5368C216.033 84.6166 213.634 84.1381 210.68 84.1381C209.794 84.1381 209.019 84.2854 208.391 84.543C207.764 84.8375 207.432 85.3527 207.432 86.1993V93.8182C207.432 95.2168 207.801 96.2474 208.539 96.9099C209.314 97.5724 210.459 97.9405 212.009 97.9405Z" fill="white"/>
<path d="M240.915 101.585C238.146 101.585 236.263 101.033 235.229 99.9655C234.196 98.8981 233.79 97.5363 233.974 95.88C234.159 94.2237 234.639 92.5307 235.34 90.8376C236.448 88.0771 237.592 85.2798 238.737 82.4826C239.881 79.6853 241.025 76.888 242.133 74.1276C242.244 73.6859 242.317 73.3178 242.317 73.0602C242.317 72.8025 242.244 72.6553 242.059 72.6553C241.764 72.6553 241.173 72.8394 240.287 73.2442C239.364 73.6491 238.367 74.1276 237.297 74.7901C236.226 75.4158 235.303 76.1151 234.528 76.888C234.417 76.9984 234.196 77.0353 233.9 76.9616C233.605 76.9248 233.458 76.7776 233.458 76.6304C233.458 76.4095 233.494 76.0783 233.642 75.6734C233.753 75.2686 234.011 74.7533 234.454 74.1276C235.451 72.8025 236.595 71.6247 237.851 70.631C239.106 69.6372 240.398 68.7907 241.727 68.1282C243.019 67.4657 244.2 66.9504 245.271 66.6559C246.304 66.3247 247.153 66.1406 247.781 66.1406C248.482 66.1406 249.11 66.5455 249.553 67.3184C250.033 68.0914 250.107 68.7907 249.848 69.4532L243.794 82.777C243.683 83.0715 243.683 83.2187 243.831 83.2555C243.979 83.3291 244.2 83.2187 244.532 82.9242C246.12 81.452 247.818 80.2742 249.553 79.3908C251.288 78.5443 253.06 78.1026 254.832 78.1026C256.641 78.1026 258.044 78.7283 258.967 79.9798C259.889 81.2312 260.369 82.8506 260.369 84.8382C260.369 86.8257 259.816 88.8132 258.671 90.8008C257.527 92.7883 256.013 94.5918 254.131 96.1745C252.248 97.7939 250.144 99.0822 247.855 100.076C245.566 101.07 243.24 101.585 240.915 101.585ZM242.244 99.8183C243.72 99.8183 245.234 99.3398 246.71 98.3828C248.224 97.4259 249.59 96.1745 250.845 94.6286C252.1 93.0828 253.134 91.4265 253.909 89.6598C254.684 87.8931 255.053 86.2368 255.053 84.6909C255.053 83.5131 254.795 82.593 254.278 81.8201C253.761 81.0839 253.171 80.7159 252.58 80.7159C251.251 80.7159 249.848 81.1944 248.372 82.1881C246.895 83.1819 245.529 84.3965 244.274 85.8319C242.834 87.5618 241.616 89.3653 240.656 91.3529C239.696 93.3036 239.216 94.8863 239.216 96.1009C239.216 97.0578 239.475 97.9044 239.992 98.6773C240.582 99.4502 241.321 99.8183 242.244 99.8183Z" fill="white"/>
<path d="M281.374 101.659C278.31 101.659 275.652 100.922 273.401 99.4134C271.112 97.9412 269.34 95.8064 268.085 93.0827C266.793 90.3591 266.165 87.1938 266.165 83.5868C266.165 80.3846 266.903 77.4769 268.38 74.8637C269.857 72.2504 271.813 70.1157 274.25 68.533C276.686 66.9504 279.344 66.1406 282.224 66.1406C284.439 66.1406 286.395 66.5823 288.13 67.4656C289.828 68.349 291.194 69.5636 292.154 71.1463C293.114 72.7289 293.594 74.5324 293.594 76.5568C293.594 78.2867 292.782 79.1332 291.083 79.1332H273.548C272.773 79.1332 272.219 79.354 271.924 79.7589C271.629 80.1638 271.481 80.9735 271.481 82.1881C271.481 84.8382 272.072 87.2674 273.216 89.4389C274.36 91.6105 275.911 93.3772 277.867 94.6654C279.787 95.9536 281.928 96.6161 284.254 96.6161C285.915 96.6161 287.429 96.2849 288.795 95.6592C290.161 95.0335 291.342 94.1133 292.412 92.8987C292.634 92.6411 292.782 92.457 292.892 92.3466C293.003 92.273 293.151 92.2362 293.298 92.2362C293.741 92.2362 293.963 92.5307 293.963 93.0459C293.963 94.1133 293.446 95.2543 292.486 96.5425C291.674 97.6099 290.64 98.4933 289.496 99.2662C288.315 100.039 287.06 100.628 285.657 101.033C284.328 101.438 282.888 101.659 281.374 101.659ZM273.733 76.5568H281.301C282.63 76.5568 283.774 76.52 284.697 76.4832C285.62 76.4464 286.543 76.2991 287.429 76.1519C287.687 76.1151 287.872 75.9311 287.982 75.5998C288.056 75.3054 288.093 74.8637 288.093 74.3116C288.093 72.7289 287.392 71.3303 285.989 70.2261C284.586 69.0851 282.888 68.533 280.968 68.533C279.676 68.533 278.421 68.9011 277.166 69.6372C275.874 70.3733 274.84 71.2935 273.991 72.3977C273.179 73.5019 272.736 74.606 272.736 75.7102C272.736 76.2991 273.068 76.5568 273.733 76.5568Z" fill="white"/>
<path d="M66.7438 52.7421C62.0185 52.7421 58.4745 51.3067 58.1423 50.9386L57.8101 50.5705L58.0316 50.1289C58.0685 50.0184 58.1423 49.908 58.2161 49.7608C59.139 47.8101 61.5386 42.6572 67.7774 40.8537C73.1303 39.3078 81.9163 41.369 82.2854 41.4426L83.8359 41.8107L82.5808 42.7676C82.47 42.878 82.1747 43.4301 81.9163 43.8718C80.7719 46.0066 78.6308 49.9448 73.9424 51.6011C71.4321 52.4108 68.9587 52.7421 66.7438 52.7421ZM59.7297 50.0552C61.5017 50.7178 67.1498 52.3372 73.4994 50.1289C77.634 48.6934 79.5906 45.0496 80.6611 43.0989C80.7719 42.9148 80.8457 42.7676 80.9196 42.6204C78.4093 42.1419 72.1335 41.1113 68.2204 42.2523C62.9045 43.7982 60.6526 48.1045 59.7297 50.0552Z" fill="white"/>
<path d="M74.0901 38.4256L73.3887 38.1311C73.0933 38.0207 66.3746 35.1498 63.126 31.874C59.2498 27.9358 58.1423 21.9732 58.1054 21.7155L57.8101 20.0225L59.2498 20.9426C59.2867 20.9426 61.3171 22.2676 62.7568 22.967C63.2367 23.1878 64.012 23.4454 64.9349 23.7399C67.7405 24.66 71.6167 25.8746 73.4625 28.3407C75.1237 30.5858 76.2681 32.7206 74.3854 37.7262L74.0901 38.4256ZM59.9881 23.151C60.5788 25.1385 61.8339 28.4143 64.1596 30.8067C66.5961 33.3095 71.3952 35.5915 73.2041 36.438C74.57 32.3893 73.4625 30.9171 72.2073 29.224C70.6569 27.1629 66.9283 25.9483 64.418 25.1753C63.4582 24.8809 62.6092 24.5864 62.0554 24.3288C61.4278 23.9975 60.6526 23.5559 59.9881 23.151Z" fill="white"/>
<path d="M78.2617 67.6121L78.594 66.1398C80.1075 59.5147 83.43 55.1716 88.4506 53.1841C92.4006 51.6382 98.7133 51.8222 99.0086 51.8222L100.633 51.859L99.5623 53C99.4885 53.2945 99.4885 54.1778 99.5254 54.8772C99.5623 56.3126 99.5992 57.9689 99.1193 59.0362C98.3441 60.7661 97.5688 62.128 94.874 63.8579C91.1454 66.2503 86.2725 66.1766 83.9099 66.1398C83.5038 66.1398 83.1716 66.1398 82.9132 66.1398C81.3258 66.1766 79.6645 66.9496 79.6276 66.9496L78.2617 67.6121ZM98.0488 53.3313C96.166 53.3313 91.8468 53.4785 89.0412 54.5827C84.8328 56.239 81.9533 59.7724 80.4398 65.1093C81.1412 64.8884 82.0272 64.7044 82.9132 64.6676C83.2085 64.6676 83.5776 64.6676 83.9837 64.6676C86.3463 64.7044 90.7763 64.778 94.1356 62.6433C96.4983 61.1342 97.1259 60.0668 97.8273 58.4473C98.1595 57.6744 98.1226 56.1654 98.0857 54.9508C98.0118 54.2883 98.0118 53.7362 98.0488 53.3313Z" fill="white"/>
<path d="M85.8665 43.0258L85.2758 42.3265C85.1282 42.1425 81.695 38.0938 81.252 35.2229C80.9566 33.125 81.3627 29.9228 81.3996 29.8124L81.5473 28.8555L82.4333 29.2235C82.6179 29.2971 87.1216 31.2479 88.3029 34.4132C89.5212 37.6153 88.7459 39.3452 86.4202 42.2897L85.8665 43.0258ZM82.7655 31.0638C82.6548 32.1312 82.5809 33.8243 82.7286 35.0389C82.987 36.732 84.7221 39.2348 85.8296 40.6703C87.6015 38.3147 87.7492 37.1737 86.9001 35.0021C86.2356 33.1618 84.0207 31.7264 82.7655 31.0638Z" fill="white"/>
<path d="M99.0089 50.1663L98.6028 49.7983C98.5659 49.7615 96.2402 47.6635 94.3944 45.6392C92.364 43.4308 91.6257 40.0446 92.2163 38.2779C92.7701 36.5849 93.9145 35.6647 93.9883 35.6279L94.6159 35.1494L95.0589 35.7751C95.0589 35.7751 95.871 36.8793 96.9047 37.5418C97.0523 37.6154 97.3108 37.7627 97.6061 37.9467C99.7841 39.1981 102.184 40.6703 102.664 42.3266C103.808 46.1913 101.113 49.0253 99.5257 49.9455L99.0089 50.1663ZM94.3944 37.2842C94.136 37.6154 93.8406 38.0939 93.6192 38.7196C93.2131 39.8974 93.7299 42.7315 95.465 44.6086C96.8309 46.0808 98.4182 47.5899 99.1566 48.2892C100.079 47.5531 102.073 45.6392 101.187 42.6947C100.818 41.5169 98.0122 39.8974 96.7939 39.1981C96.4617 39.0141 96.2033 38.8668 96.0187 38.7564C95.3542 38.2779 94.7635 37.7258 94.3944 37.2842Z" fill="white"/>
<path d="M53.1588 38.7558C51.8299 38.7558 50.6855 38.4245 49.3565 37.946C46.6616 37.0259 45.628 36.2161 45.9233 35.2592C46.1448 34.523 47.7322 33.1612 52.3098 32.9772C56.9243 32.7564 59.1762 35.0015 59.25 35.1119L59.6561 35.5168L59.3608 35.9953C59.3238 36.0689 58.364 37.6516 55.6691 38.3877C54.7093 38.6453 53.8972 38.7558 53.1588 38.7558ZM47.5476 35.5536C47.8429 35.7745 48.5074 36.1057 49.7995 36.5474C51.7191 37.2099 53.0112 37.578 55.2262 36.9523C56.4444 36.621 57.2196 36.0689 57.6257 35.7008C56.8135 35.1488 55.1154 34.3022 52.3467 34.4494C49.5411 34.5967 48.1013 35.1487 47.5476 35.5536Z" fill="white"/>
<path d="M118.98 75.0473C118.537 75.0473 118.242 74.6056 117.873 74.1271C117.577 73.7222 117.171 73.0965 116.654 72.3604C113.517 67.7228 107.019 58.0796 100.633 52.8532C91.8099 45.6391 77.3757 36.9897 58.3639 36.18V36.364L56.8872 36.3272L56.9241 34.6709L57.6624 34.7077C77.4495 35.2966 92.4743 44.3141 101.593 51.749C108.127 57.0859 114.735 66.8763 117.91 71.5507C118.316 72.1764 118.722 72.7653 119.017 73.207L119.312 73.0965C119.718 73.9799 120.014 74.6424 119.349 75.0105C119.239 75.0105 119.091 75.0473 118.98 75.0473Z" fill="white"/>
<path d="M118.833 41.6637L119.46 40.2282C119.608 39.8602 123.189 31.5788 127.582 28.2294C132.75 24.2911 138.361 25.3953 140.465 25.837C140.613 25.8738 140.761 25.9106 140.871 25.9106L141.351 25.9842L141.462 26.4627C141.61 27.0884 140.133 29.9961 139.321 31.3211C138.029 33.4927 135.851 36.5476 132.75 38.7192C130.055 40.6331 125.071 40.9275 122.081 41.0748C121.343 41.1116 120.531 41.1484 120.346 41.222L118.833 41.6637ZM136.294 26.8308C134.005 26.8308 131.163 27.3461 128.468 29.4072C125.293 31.8364 122.487 37.2469 121.343 39.6393C121.527 39.6393 121.749 39.6025 122.007 39.6025C124.628 39.4553 129.538 39.1608 131.901 37.5046C136.331 34.376 138.952 29.1128 139.764 27.1988C138.952 27.0148 137.734 26.8308 136.294 26.8308Z" fill="white"/>
<path d="M121.933 31.8365L121.195 31.6157C116.027 30.1802 114.993 28.0087 114.181 25.3218C113.295 22.4141 114.587 18.5495 115.51 15.7522C115.805 14.832 116.101 14.0591 116.175 13.5438C116.47 11.9612 116.618 9.53195 116.618 9.53195L116.728 7.83887L117.91 9.09028C118.094 9.27431 122.266 13.691 123.152 19.1384C123.89 23.7023 122.229 30.8059 122.155 31.1004L121.933 31.8365ZM117.947 11.4827C117.873 12.2556 117.762 13.139 117.614 13.8751C117.504 14.464 117.208 15.3105 116.876 16.2675C116.064 18.7335 114.809 22.4509 115.547 24.9169C116.175 26.9413 116.691 28.6712 120.789 29.9962C121.195 28.0455 122.155 22.819 121.601 19.396C121.121 16.0835 119.202 13.139 117.947 11.4827Z" fill="white"/>
<path d="M126.216 64.4838C125.367 64.4838 124.629 64.3366 123.816 64.1894C122.672 63.9317 121.343 62.938 120.199 62.0546C119.682 61.6498 118.944 61.0977 118.648 60.9872L117.024 61.1713L118.021 59.8094C118.168 59.6254 121.38 55.2823 124.961 53.0371C130.203 49.7614 135.814 49.3933 141.647 51.8961L143.013 52.485L141.684 53.2211C141.684 53.2211 140.06 54.1413 139.1 55.3559C138.952 55.5399 138.731 55.8344 138.509 56.1656C137.143 58.0796 134.301 62.0178 130.166 63.6373C128.505 64.263 127.287 64.4838 126.216 64.4838ZM119.793 59.9199C120.162 60.1407 120.568 60.472 121.085 60.8768C122.045 61.6129 123.263 62.5699 124.075 62.7539C125.773 63.122 127.028 63.2692 129.649 62.2755C133.378 60.84 135.925 57.2698 137.291 55.3559C137.549 55.0246 137.771 54.6934 137.918 54.4725C138.472 53.7732 139.137 53.2211 139.727 52.7795C134.818 51.0496 130.129 51.5649 125.699 54.3253C123.263 55.8344 120.863 58.5948 119.793 59.9199Z" fill="white"/>
<path d="M116.359 44.0932C113.517 44.0932 111.56 43.6147 110.231 40.8174C108.828 37.9465 109.53 33.3458 109.567 33.1617L109.714 32.168L110.637 32.6096C110.748 32.6833 113.738 34.1555 115.141 35.775C116.544 37.3576 118.242 42.5105 118.426 43.0994L118.722 44.0564L117.725 44.0932C117.282 44.0564 116.802 44.0932 116.359 44.0932ZM110.933 34.45C110.822 35.8854 110.785 38.4986 111.597 40.1917C112.557 42.1792 113.738 42.6209 116.728 42.6209C116.064 40.7438 114.883 37.7257 114.07 36.7687C113.258 35.8486 111.855 34.9652 110.933 34.45Z" fill="white"/>
<path d="M117.836 73.7587C117.061 69.8204 116.581 65.8086 116.359 61.8335C115.768 50.0923 117.393 32.7198 128.615 16.4883L129.834 17.3348C118.833 33.2351 117.245 50.2764 117.836 61.7599C118.057 65.6613 118.537 69.5996 119.276 73.5011L117.836 73.7587Z" fill="white"/>
<path d="M102.59 35.7749C101.63 35.7749 100.67 35.1492 99.9318 34.0082C99.378 33.1249 98.935 32.0207 98.7135 30.8061C97.5322 31.579 96.2771 32.0943 95.1327 32.2415C93.693 32.4624 92.5486 32.0943 91.921 31.211C91.2934 30.3644 91.3303 29.1498 91.9948 27.8616C92.4747 26.9414 93.213 26.0213 94.1729 25.2116C91.2565 23.7393 89.5953 21.3101 90.4074 19.5434C91.1827 17.8503 93.8775 17.4454 96.757 18.476C96.5724 15.2003 97.8645 12.587 99.821 12.403C101.704 12.219 103.365 14.2801 103.919 17.335C106.651 15.5315 109.604 15.3475 110.748 16.9302C111.154 17.4823 111.265 18.1448 111.154 18.9177C110.933 20.2059 109.936 21.715 108.496 22.9296C111.413 24.4018 113.074 26.831 112.262 28.5977C111.819 29.5547 110.785 30.1436 109.308 30.2172C108.275 30.254 107.093 30.07 105.912 29.6651C105.986 31.0637 105.801 32.4256 105.358 33.4929C104.805 34.8548 103.919 35.6645 102.848 35.7749C102.737 35.7749 102.664 35.7749 102.59 35.7749ZM99.8949 27.972L100.043 29.3707C100.043 29.4443 100.043 29.4811 100.043 29.5547C100.043 29.5915 100.043 29.6651 100.043 29.7019C100.19 31.0637 100.559 32.3151 101.15 33.1985C101.63 33.9346 102.184 34.3395 102.664 34.2659C103.143 34.2291 103.586 33.7138 103.919 32.904C104.325 31.9471 104.472 30.6221 104.325 29.297C104.288 29.0762 104.288 28.8554 104.214 28.5977L103.956 27.1255L105.285 27.8248C105.358 27.8616 105.469 27.8984 105.543 27.9352C106.761 28.4873 108.09 28.7818 109.124 28.7081C110.01 28.6713 110.601 28.3769 110.822 27.972C111.228 27.0519 109.862 25.1747 107.352 24.0338C107.13 23.9233 106.909 23.8497 106.724 23.7761L105.432 23.2608L106.687 22.3775C106.724 22.3407 106.798 22.3039 106.835 22.2671C108.349 21.1997 109.419 19.7642 109.641 18.6232C109.715 18.2552 109.641 17.9607 109.493 17.7399C108.902 16.9302 106.577 17.1878 104.362 18.7705C104.177 18.9177 103.956 19.0649 103.808 19.2121L102.7 20.1323L102.59 18.5864C102.59 18.5128 102.59 18.4392 102.59 18.3656C102.331 15.6419 101.002 13.728 99.9687 13.8016C98.972 13.9121 98.049 16.0468 98.3075 18.7705C98.3444 18.9913 98.3444 19.2121 98.4182 19.4698L98.5659 20.9788L97.1631 20.2795C97.0892 20.2427 97.0154 20.2059 96.9416 20.1691C94.4313 19.0281 92.1056 19.2121 91.6995 20.1323C91.2934 21.0525 92.6593 22.9296 95.1696 24.0706C95.3542 24.1442 95.5757 24.2546 95.8341 24.3282L97.2 24.8435L95.9448 25.69C95.871 25.7268 95.7972 25.7636 95.7603 25.8373C94.6528 26.6102 93.7668 27.604 93.2869 28.5241C92.8808 29.297 92.807 29.9596 93.1023 30.3644C93.3607 30.7325 94.0252 30.9165 94.9112 30.7693C95.9448 30.6221 97.1631 30.1068 98.2706 29.3338C98.4551 29.1866 98.6397 29.0762 98.8243 28.8922L99.8949 27.972ZM101.298 27.788C99.4149 27.788 97.7537 26.3525 97.5691 24.4386C97.3846 22.3775 98.8612 20.574 100.929 20.3531C102.996 20.1691 104.805 21.6414 105.026 23.7025C105.137 24.6963 104.842 25.6532 104.177 26.4262C103.55 27.1991 102.627 27.6776 101.63 27.7512C101.519 27.788 101.408 27.788 101.298 27.788ZM101.298 21.8254C101.224 21.8254 101.15 21.8254 101.076 21.8254C99.8579 21.9358 98.935 23.04 99.0458 24.2914C99.1565 25.506 100.264 26.4262 101.519 26.3157C102.11 26.2421 102.664 25.9845 103.033 25.506C103.402 25.0275 103.586 24.4754 103.55 23.8497C103.402 22.7087 102.442 21.8254 101.298 21.8254Z" fill="white"/>
<path d="M139.174 18.7705C137.402 18.7705 135.667 17.8503 134.522 16.3045C132.787 17.6663 130.498 18.0344 128.616 17.1878L128.357 17.0774L128.246 16.8197C127.397 15.0162 127.693 12.8079 128.948 11.1148C127.102 9.90019 126.068 7.83904 126.29 5.7779L126.327 5.52025L126.511 5.33622C127.988 3.97439 130.166 3.56953 132.196 4.23204C132.787 2.09728 134.448 0.477807 136.479 0.072939L136.737 0.0361328L136.996 0.183358C138.731 1.14032 139.801 3.09105 139.801 5.2258C142.016 5.11538 144.083 6.18276 145.117 7.98627L145.265 8.24391L145.228 8.50155C144.822 10.4523 143.308 12.0349 141.278 12.6975C142.053 14.7586 141.684 17.0406 140.281 18.5864L140.097 18.8073L139.838 18.8441C139.58 18.7705 139.358 18.7705 139.174 18.7705ZM134.854 13.8384L135.371 14.7954C136.183 16.3781 137.771 17.335 139.321 17.2982C140.281 16.0468 140.429 14.2065 139.617 12.6238L139.026 11.5565L140.06 11.3724C141.832 11.078 143.234 9.90019 143.64 8.39113C142.754 7.06611 141.019 6.4036 139.284 6.69805L138.103 6.91889L138.251 5.88831C138.509 4.12162 137.845 2.42853 136.516 1.58199C135.002 2.02367 133.821 3.4223 133.525 5.189C133.525 5.2258 133.525 5.29942 133.525 5.33622L133.415 6.4036L132.455 5.92512C130.867 5.11539 129.022 5.26261 127.803 6.21957C127.73 7.80224 128.726 9.34809 130.314 10.1578L130.351 10.1946C130.388 10.1946 130.424 10.2314 130.461 10.2314L131.384 10.6731L130.646 11.4092C129.391 12.6607 128.948 14.4642 129.502 15.9364C130.978 16.4885 132.787 16.01 134.042 14.7586C134.079 14.7218 134.116 14.685 134.116 14.685L134.854 13.8384ZM135.297 12.4766C135.15 12.4766 135.039 12.4766 134.891 12.4398C134.227 12.3294 133.599 11.9613 133.193 11.4092C132.787 10.8571 132.603 10.1578 132.713 9.49532C132.935 8.09668 134.264 7.13972 135.667 7.36056C136.331 7.47098 136.959 7.83904 137.365 8.39113C137.771 8.94323 137.918 9.64254 137.845 10.3051C137.734 10.9676 137.365 11.5933 136.811 11.9981C136.368 12.2926 135.851 12.4766 135.297 12.4766ZM135.297 8.796C134.781 8.796 134.301 9.16406 134.227 9.71616C134.19 10.0106 134.264 10.3051 134.411 10.5259C134.596 10.7467 134.818 10.894 135.113 10.9676C135.408 11.0044 135.704 10.9308 135.925 10.7835C136.146 10.5995 136.294 10.3787 136.368 10.0842C136.405 9.78977 136.331 9.49532 136.183 9.27448C135.999 9.05365 135.777 8.90642 135.482 8.83281C135.408 8.83281 135.371 8.796 135.297 8.796Z" fill="white"/>
<path d="M108.607 55.0611C108.164 55.0611 107.684 54.9507 107.278 54.7299C106.207 54.141 105.69 52.9264 105.912 51.7118C105.063 51.0493 104.657 50.0187 104.841 48.9881C105.063 47.8103 106.059 46.927 107.315 46.7797C107.684 45.786 108.533 45.0498 109.603 44.9394C110.785 44.7922 111.929 45.4915 112.483 46.5957C113.553 46.6325 114.513 47.2214 114.956 48.1784C115.473 49.2826 115.178 50.5708 114.255 51.4173C114.55 52.4479 114.292 53.5521 113.516 54.2514C112.631 55.0611 111.302 55.1715 110.231 54.6195C109.751 54.8771 109.16 55.0611 108.607 55.0611ZM107.794 48.2152C107.093 48.2152 106.502 48.6569 106.355 49.2458C106.244 49.7978 106.576 50.3867 107.167 50.6812L107.758 50.9756L107.499 51.6013C107.241 52.3007 107.425 53.0368 108.016 53.368C108.533 53.6625 109.16 53.5153 109.64 53.0736L110.12 52.5951L110.637 53.0368C111.228 53.5153 112.003 53.5153 112.483 53.1104C112.926 52.7055 113 52.043 112.704 51.4541L112.409 50.8652L112.963 50.4972C113.59 50.0923 113.849 49.3562 113.59 48.7673C113.332 48.252 112.741 47.9575 112.077 48.068L111.412 48.1784L111.228 47.5159C111.043 46.7797 110.416 46.3013 109.751 46.3749C109.16 46.4485 108.717 46.927 108.607 47.5895L108.496 48.252L107.831 48.2152H107.794ZM110.009 51.1597L109.456 50.718L109.234 50.4604L109.308 50.0187L109.53 49.577L110.009 49.4666H110.12H110.637L110.895 50.3131L110.637 50.7548L110.452 50.8652L110.009 51.1597ZM110.009 50.1659L109.64 49.6138L110.009 50.1659Z" fill="white"/>
</g>
<defs>
<clipPath id="clip0">
<rect width="294" height="124" fill="white"/>
</clipPath>
</defs>
</svg>
