<svg width="299" height="89" viewBox="0 0 299 89" fill="none" xmlns="http://www.w3.org/2000/svg">
<g clip-path="url(#clip0)">
<path d="M2.46512 88.1296C1.70662 88.1296 1.13775 88.0538 0.682648 87.9023C0.227549 87.7507 0 87.5234 0 87.1824C0 86.5004 0.948123 85.97 2.80644 85.629C4.96816 85.2501 6.59893 84.5681 7.73668 83.6588C8.87443 82.7495 9.4433 81.3097 9.4433 79.3016V40.8448C9.4433 38.8746 9.02613 37.4348 8.19178 36.6013C7.35743 35.7678 5.87836 35.1237 3.71664 34.7069C1.8204 34.3659 0.910198 33.7976 0.910198 33.0019C0.910198 32.6609 1.13775 32.4336 1.59285 32.282C2.08587 32.1305 2.65474 32.0547 3.41324 32.0547C4.93024 32.0547 6.14384 32.0926 7.05403 32.1305C7.92631 32.2062 8.76065 32.2441 9.55708 32.3199C10.3535 32.3957 11.3016 32.3957 12.4394 32.3957C16.4594 32.3957 19.9485 32.3957 22.9066 32.4336C25.8269 32.4715 28.8609 32.4715 32.0086 32.4715C35.1185 32.4715 38.1904 32.4336 41.1864 32.3957C44.1825 32.3578 47.6716 32.3199 51.6537 32.3199C52.9052 32.3199 53.9292 32.3199 54.7256 32.282C55.5221 32.2441 56.3564 32.2062 57.3045 32.1684C58.2147 32.1305 59.4283 32.0926 60.9832 32.0926C61.7038 32.0926 62.3106 32.1684 62.7657 32.3199C63.2208 32.4715 63.4484 32.6988 63.4484 33.0398C63.4484 33.8354 62.5002 34.4038 60.6419 34.7448C58.5181 35.1615 57.0011 35.7678 56.0151 36.6392C55.029 37.4727 54.5739 38.9125 54.5739 40.8827V79.4153C54.5739 81.4234 55.1807 82.8631 56.3564 83.7724C57.57 84.6818 59.2008 85.3259 61.2867 85.7426C63.1829 86.0836 64.0931 86.5762 64.0931 87.2961C64.0931 87.6371 63.8655 87.8644 63.4104 88.016C62.9553 88.1675 62.3485 88.2433 61.628 88.2433C60.111 88.2433 58.8215 88.2054 57.8355 88.1296C56.8494 88.0538 55.9013 87.9781 54.9911 87.9023C54.0809 87.8265 52.9811 87.8265 51.6537 87.8265C50.2126 87.8265 48.999 87.8644 47.9371 87.9023C46.8752 87.9402 45.8133 88.0159 44.6755 88.1296C43.5757 88.2054 42.2483 88.2433 40.6934 88.2433C39.9349 88.2433 39.3661 88.1675 38.911 88.016C38.4559 87.8644 38.2283 87.6371 38.2283 87.2961C38.2283 86.9172 38.4559 86.5762 38.911 86.3489C39.3661 86.1215 40.0866 85.9321 41.0347 85.7426C43.1965 85.3638 44.8272 84.606 45.8891 83.583C46.951 82.5221 47.5199 81.1203 47.5958 79.3774C47.7854 72.2922 47.8233 65.1313 47.7095 57.9704C47.6337 50.8095 47.5958 43.6864 47.5958 36.5634C47.5958 36.2982 47.5199 36.1088 47.3682 36.033C47.2165 35.9951 47.0648 35.9572 46.9131 35.9572C44.5618 35.9572 42.5138 35.9572 40.7313 35.9193C38.9489 35.8814 37.2423 35.8435 35.6494 35.8056C34.0566 35.7678 32.312 35.7299 30.4537 35.7299C28.2161 35.7299 26.0923 35.7299 24.0444 35.7678C21.9964 35.8056 19.5313 35.8814 16.687 35.9951C16.3836 35.9951 16.2698 36.2982 16.2698 36.9423C16.0422 43.9896 15.9285 51.0368 15.9285 58.122C15.9285 65.2071 16.0422 72.2922 16.2698 79.3774C16.3077 81.1581 16.9524 82.56 18.0902 83.583C19.2659 84.6439 20.8966 85.3638 22.9825 85.7426C23.9306 85.9321 24.6512 86.1215 25.1063 86.3489C25.5614 86.5762 25.7889 86.8793 25.7889 87.2961C25.7889 87.6371 25.5614 87.8644 25.1063 88.016C24.6512 88.1675 24.0444 88.2433 23.3238 88.2433C21.7689 88.2433 20.5174 88.2054 19.5313 88.1296C18.5453 88.0538 17.5972 87.9781 16.687 87.9023C15.7768 87.8265 14.6769 87.8265 13.3496 87.8265C11.9084 87.8265 10.6948 87.8644 9.63293 87.9023C8.57103 87.9402 7.50913 88.0159 6.40931 88.1296C5.34741 88.0917 4.02004 88.1296 2.46512 88.1296Z" fill="white"/>
<path d="M73.1951 88.9253C72.5504 88.9253 71.9436 88.66 71.2609 88.1296C70.6162 87.5992 70.1232 86.9551 69.7819 86.1973C69.4405 85.4774 69.3647 84.8712 69.5164 84.4165L78.4667 62.858C78.8459 61.9108 79.1114 61.0772 79.2252 60.3952C79.3389 59.7132 79.1493 59.3722 78.7321 59.3722C78.4287 59.3722 77.9736 59.5996 77.3289 60.0542C76.6842 60.5089 75.9257 61.0772 75.1293 61.7592C74.2949 62.4412 73.4606 63.1611 72.6262 63.881C72.5125 63.9946 72.2849 64.0325 71.9815 63.9567C71.6781 63.9189 71.5264 63.8052 71.5264 63.6157C71.5264 63.3884 71.5643 63.0474 71.6781 62.6307C71.7919 62.2139 72.0574 61.6834 72.5125 61.0393C73.9157 59.107 75.5085 57.4778 77.2531 56.1896C78.9976 54.9014 80.6284 53.8784 82.1833 53.1585C83.7382 52.4387 84.9139 52.0977 85.7103 52.0977C85.9758 52.0977 86.3171 52.2492 86.6964 52.5523C87.0756 52.8554 87.379 53.2343 87.6066 53.6511C87.8341 54.0679 87.8341 54.4846 87.6066 54.9014C85.7103 58.766 83.9279 62.7064 82.2212 66.6468C80.5146 70.6251 78.808 74.5655 77.1014 78.3923C76.6084 79.5289 76.267 80.5898 76.1533 81.537C76.0395 82.5221 76.267 82.9768 76.8359 82.9768C77.4048 82.9768 78.2391 82.4842 79.4148 81.537C80.5525 80.5898 81.842 79.3395 83.2831 77.786C84.7243 76.2326 86.2413 74.6034 87.8341 72.8227C89.9958 70.3978 92.0817 67.8593 94.0917 65.245C96.1018 62.6307 97.8463 60.2816 99.3254 58.1598C100.804 56.0759 101.753 54.5604 102.246 53.7269C102.511 53.1585 102.852 52.7796 103.27 52.6281C103.649 52.4387 104.028 52.3629 104.369 52.3629C104.711 52.3629 105.052 52.5523 105.393 52.8933C105.735 53.2343 106 53.6511 106.19 54.0679C106.379 54.5225 106.417 54.9014 106.228 55.2803L95.3053 80.3625C94.8502 81.4612 94.6606 82.2569 94.6985 82.8252C94.7365 83.3935 95.0399 83.6588 95.5329 83.6588C96.2534 83.6588 97.2395 83.2799 98.4152 82.4842C99.6288 81.6886 100.842 80.7792 102.094 79.7184C103.345 78.6575 104.407 77.7103 105.242 76.8767C105.28 76.8388 105.393 76.8009 105.507 76.8009C105.659 76.8009 105.848 76.8767 106 77.0283C106.19 77.1798 106.266 77.3693 106.266 77.5966C106.266 77.7103 106.228 77.8239 106.19 77.9376C106.114 78.0513 106.076 78.2028 105.962 78.3544C105.886 78.5438 105.773 78.7333 105.621 78.9606C105.469 79.1879 105.318 79.4152 105.128 79.6805C104.938 79.9457 104.673 80.2488 104.407 80.5898C103.307 81.9538 102.056 83.2799 100.653 84.5681C99.2116 85.8563 97.6946 86.9172 96.1017 87.7128C94.471 88.5464 92.7644 88.9631 90.944 88.9631C90.1855 88.9631 89.5407 88.4706 88.9339 87.5234C88.3271 86.5762 88.2134 85.7047 88.5547 84.947C89.3511 83.242 90.1855 81.4233 91.1336 79.491C92.0438 77.5587 92.8402 75.778 93.5608 74.1109C94.2814 72.4817 94.7744 71.2313 95.0399 70.4357C95.3053 69.7537 95.3053 69.3748 94.964 69.3369C94.6227 69.299 94.3193 69.4127 94.0159 69.7537C91.0577 72.9742 88.4409 75.8158 86.1654 78.2407C83.8899 80.6656 81.9178 82.6358 80.2491 84.2271C78.5804 85.7805 77.1393 86.9551 76.0016 87.7507C74.9017 88.5085 73.9536 88.9253 73.1951 88.9253Z" fill="white"/>
<path d="M121.587 87.978C121.284 87.978 120.905 87.9402 120.412 87.8644C119.881 87.7886 119.653 87.5613 119.653 87.2203C119.653 86.7656 119.881 86.4246 120.298 86.2352C120.715 86.0457 121.17 85.8563 121.625 85.6669C122.459 85.4016 123.294 85.0606 124.052 84.6439C124.811 84.265 125.19 83.4314 125.19 82.1811V59.0692C125.19 58.5387 125.114 57.9704 125 57.3263C124.887 56.6822 124.583 56.3412 124.166 56.3412H119.046C118.212 56.3412 117.529 56.5306 116.998 56.8337C116.467 57.1747 116.05 57.7052 115.671 58.425C115.292 59.1449 114.95 60.13 114.609 61.3804C114.495 61.835 114.268 62.2897 113.888 62.7822C113.509 63.2748 113.092 63.5021 112.637 63.5021C112.409 63.5021 112.22 63.3884 112.03 63.1611C111.878 62.9338 111.765 62.6307 111.765 62.2139C111.765 62.1002 111.765 61.9487 111.803 61.7971C111.84 61.6456 111.878 61.4561 111.916 61.3046C112.144 60.5089 112.371 59.3723 112.599 57.8567C112.827 56.3412 112.94 55.053 112.94 53.9921C112.94 53.5374 113.054 53.1586 113.244 52.8933C113.433 52.6281 113.775 52.4766 114.23 52.4766C114.685 52.4766 115.064 52.5523 115.405 52.666C115.747 52.7797 116.24 52.9312 116.96 53.0828C117.567 53.2722 118.212 53.3859 118.781 53.4995C119.388 53.6132 120.184 53.689 121.208 53.689H138.767C139.488 53.689 140.246 53.6511 140.967 53.6132C141.687 53.5753 142.18 53.4238 142.408 53.2722C142.673 53.0449 143.015 52.8554 143.356 52.7039C143.697 52.5523 143.925 52.4766 144.039 52.4766C144.228 52.4766 144.418 52.5902 144.646 52.8176C144.873 53.0449 144.987 53.348 144.987 53.7648C144.987 54.3331 144.911 54.9772 144.797 55.6592C144.683 56.3412 144.646 57.0611 144.646 57.7809C144.646 58.4629 144.646 59.1449 144.683 59.789C144.721 60.4331 144.759 61.0772 144.797 61.7213C144.835 62.1381 144.797 62.517 144.57 62.9717C144.38 63.3884 144.077 63.6158 143.659 63.6158C143.242 63.6158 142.939 63.3506 142.673 62.8201C142.408 62.2897 142.256 61.835 142.218 61.494C142.142 60.471 141.953 59.5617 141.612 58.8039C141.27 58.0462 140.777 57.44 140.057 57.0611C139.374 56.6822 138.502 56.4549 137.402 56.4549H132.282C131.713 56.4549 131.372 56.758 131.22 57.4021C131.068 58.0462 130.993 58.6145 130.993 59.1828V82.3706C130.993 83.583 131.41 84.3786 132.244 84.7575C133.078 85.1743 133.913 85.5153 134.747 85.7805C135.202 85.97 135.657 86.1215 136.074 86.3488C136.492 86.5383 136.719 86.8793 136.719 87.3339C136.719 87.6749 136.454 87.9023 135.961 87.978C135.468 88.0538 135.051 88.0917 134.785 88.0917C133.685 88.0917 132.851 88.0538 132.206 87.978C131.561 87.9023 130.993 87.8265 130.462 87.7507C129.931 87.7128 129.134 87.6749 128.11 87.6749C127.124 87.6749 126.366 87.7128 125.797 87.7507C125.228 87.8265 124.659 87.8644 124.052 87.978C123.597 87.9402 122.725 87.978 121.587 87.978Z" fill="white"/>
<path d="M155.909 88.9247C154.886 88.9247 153.862 88.5079 152.8 87.7122C151.738 86.9166 150.865 85.9694 150.145 84.7948C149.424 83.6582 149.083 82.5973 149.083 81.5743C149.083 79.7557 149.576 78.3538 150.524 77.3308C151.472 76.3078 153.027 75.3606 155.151 74.5271L163.874 70.9277C165.011 70.473 165.694 70.0941 165.884 69.7531C166.073 69.4121 166.225 68.6922 166.263 67.5177L166.453 62.0618C166.491 60.5841 166.111 59.2959 165.201 58.235C164.329 57.1741 163.039 56.6058 161.409 56.6058C160.574 56.6058 159.702 56.7574 158.83 57.0226C157.995 57.3257 157.275 57.6667 156.706 58.1213C156.365 58.3487 156.137 58.6897 156.023 59.1443C155.909 59.599 155.834 60.0915 155.834 60.5841C155.834 60.8114 155.834 61.0766 155.872 61.3419C155.909 61.645 155.909 61.8723 155.909 62.0996C155.909 62.4027 155.568 62.7816 154.848 63.2363C154.127 63.7288 153.331 64.1456 152.458 64.5245C151.586 64.9034 150.865 65.0928 150.297 65.0928C149.993 65.0928 149.804 65.0171 149.614 64.8655C149.424 64.7139 149.348 64.5245 149.348 64.2972C149.348 63.3878 149.652 62.4027 150.259 61.3419C150.865 60.281 151.7 59.2959 152.762 58.3866C154.051 57.1741 155.492 56.1512 157.009 55.2418C158.526 54.3325 160.043 53.6126 161.522 53.1201C163.001 52.6275 164.291 52.3623 165.429 52.3623C167.477 52.3623 169.183 53.0822 170.511 54.5219C171.838 55.9617 172.483 57.7804 172.445 59.94L172.028 80.3998C171.952 81.6122 172.255 82.5594 172.824 83.3172C173.431 84.0749 174.189 84.4159 175.099 84.4159C176.503 84.4159 177.565 84.1128 178.247 83.4687C178.513 83.2035 178.778 83.052 178.93 83.052C179.195 83.052 179.423 83.1277 179.613 83.3172C179.802 83.4687 179.878 83.734 179.878 83.9992C179.878 84.6433 179.575 85.2495 178.93 85.8936C178.02 86.8029 177.034 87.5228 175.972 88.0532C174.91 88.5837 173.924 88.8489 173.014 88.8489C170.397 88.8489 168.311 87.3712 166.794 84.4159H166.528C164.632 85.9315 162.85 87.0681 161.143 87.788C159.474 88.5458 157.73 88.9247 155.909 88.9247ZM159.892 84.8327C161.029 84.8327 161.977 84.6433 162.812 84.2644C163.608 83.8855 164.329 83.393 164.936 82.7867C165.201 82.5215 165.467 82.1047 165.656 81.6501C165.846 81.1575 165.997 80.3998 166.035 79.301L166.225 75.1333C166.263 74.5271 166.263 74.0724 166.149 73.7693C166.035 73.5041 165.808 73.3525 165.467 73.3525C165.353 73.3525 165.163 73.3904 164.86 73.4283C164.556 73.5041 164.215 73.6177 163.76 73.7693C160.726 74.8681 158.64 75.9668 157.502 77.1414C156.327 78.3159 155.758 79.3768 155.758 80.324C155.758 81.8016 156.213 82.9383 157.085 83.6961C157.92 84.4159 158.868 84.8327 159.892 84.8327Z" fill="white"/>
<path d="M183.974 87.9781C183.632 87.9781 183.215 87.9402 182.722 87.9023C182.229 87.8265 182.001 87.6371 182.001 87.2203C182.001 86.7657 182.229 86.4247 182.646 86.2352C183.063 86.0458 183.518 85.8564 183.974 85.6669C184.808 85.4017 185.642 85.0607 186.401 84.6818C187.159 84.3029 187.539 83.5452 187.539 82.3327V58.9555C187.539 57.8189 187.197 57.0232 186.552 56.6064C185.908 56.1897 185.149 55.8487 184.277 55.6214C183.822 55.4319 183.367 55.2425 182.95 55.0151C182.532 54.7878 182.305 54.4847 182.305 54.0679C182.305 53.689 182.532 53.4617 183.025 53.3859C183.518 53.348 183.936 53.3102 184.277 53.3102C185.415 53.3102 186.249 53.348 186.78 53.3859C187.311 53.4617 187.842 53.4996 188.373 53.6133C188.866 53.689 189.624 53.7269 190.573 53.7269C191.596 53.7269 192.317 53.689 192.81 53.6133C193.265 53.5375 193.758 53.4617 194.289 53.3859C194.82 53.348 195.654 53.3102 196.716 53.3102C197.058 53.3102 197.475 53.348 197.968 53.3859C198.461 53.4617 198.688 53.689 198.688 54.0679C198.688 54.4847 198.461 54.7878 198.044 55.0151C197.627 55.2425 197.171 55.4319 196.716 55.6214C195.882 55.8487 195.123 56.1897 194.441 56.6064C193.796 57.0232 193.455 57.8189 193.455 58.9555V67.8972C193.455 68.1245 193.569 68.2761 193.796 68.314C194.024 68.3898 194.175 68.3898 194.327 68.3898H210.18C210.293 68.3898 210.407 68.3519 210.483 68.2003C210.559 68.0867 210.597 67.9351 210.597 67.6699V58.8798C210.597 57.7431 210.293 56.9474 209.763 56.5307C209.194 56.1139 208.473 55.7729 207.639 55.5456C207.184 55.3561 206.729 55.1667 206.311 54.9394C205.894 54.712 205.667 54.4089 205.667 53.9921C205.667 53.6133 205.894 53.3859 206.349 53.3102C206.804 53.2723 207.222 53.2344 207.639 53.2344C208.776 53.2344 209.611 53.2723 210.104 53.3102C210.597 53.3859 211.128 53.4238 211.583 53.5375C212.076 53.6133 212.797 53.6512 213.745 53.6512C214.769 53.6512 215.527 53.6133 216.02 53.5375C216.513 53.4617 217.044 53.3859 217.613 53.3102C218.182 53.2723 219.016 53.2344 220.078 53.2344C220.457 53.2344 220.912 53.2723 221.368 53.3102C221.823 53.3859 222.05 53.6133 222.05 53.9921C222.05 54.4089 221.823 54.712 221.405 54.9394C220.988 55.1667 220.533 55.3561 220.078 55.5456C219.244 55.7729 218.409 56.1139 217.689 56.5307C216.93 56.9474 216.589 57.7431 216.589 58.8798V82.2569C216.589 83.3936 217.006 84.1514 217.841 84.5681C218.675 84.9849 219.509 85.3259 220.344 85.5911C220.799 85.7806 221.254 85.9321 221.671 86.1595C222.088 86.3489 222.316 86.6899 222.316 87.1446C222.316 87.5613 222.088 87.7508 221.595 87.8266C221.102 87.8644 220.685 87.9023 220.344 87.9023C219.244 87.9023 218.409 87.8644 217.765 87.7887C217.12 87.7129 216.551 87.6371 216.02 87.5613C215.489 87.5234 214.693 87.4856 213.669 87.4856C212.683 87.4856 211.924 87.5234 211.355 87.5613C210.786 87.6371 210.218 87.675 209.611 87.7887C209.004 87.8644 208.132 87.9023 206.994 87.9023C206.653 87.9023 206.235 87.8644 205.742 87.8266C205.249 87.7508 205.022 87.5613 205.022 87.1446C205.022 86.6899 205.249 86.3489 205.667 86.1595C206.084 85.97 206.539 85.7806 206.994 85.5911C207.828 85.3259 208.663 84.9849 209.421 84.5681C210.18 84.1893 210.559 83.3936 210.559 82.2569V71.6103C210.559 71.383 210.521 71.2693 210.483 71.2314C210.407 71.1935 210.331 71.1935 210.218 71.1935H193.796C193.682 71.1935 193.606 71.2314 193.569 71.3072C193.531 71.383 193.531 71.5345 193.531 71.7618V82.2569C193.531 83.4315 193.948 84.2271 194.782 84.606C195.617 84.9849 196.451 85.288 197.285 85.5911C197.74 85.7806 198.195 85.9321 198.613 86.1595C199.03 86.3489 199.257 86.6899 199.257 87.1446C199.257 87.5613 199.03 87.7508 198.537 87.8266C198.044 87.8644 197.627 87.9023 197.285 87.9023C196.185 87.9023 195.351 87.8644 194.706 87.7887C194.062 87.7129 193.493 87.6371 192.962 87.5613C192.431 87.5234 191.634 87.4856 190.61 87.4856C189.624 87.4856 188.866 87.5234 188.297 87.5613C187.728 87.6371 187.159 87.675 186.552 87.7887C185.984 87.9402 185.111 87.9781 183.974 87.9781Z" fill="white"/>
<path d="M230.128 88.9253C229.483 88.9253 228.877 88.66 228.194 88.1296C227.549 87.5992 227.056 86.9551 226.715 86.1973C226.374 85.4774 226.298 84.8712 226.449 84.4165L235.4 62.858C235.779 61.9108 236.045 61.0772 236.158 60.3952C236.272 59.7132 236.082 59.3722 235.665 59.3722C235.362 59.3722 234.907 59.5996 234.262 60.0542C233.617 60.5089 232.859 61.0772 232.062 61.7592C231.228 62.4412 230.394 63.1611 229.559 63.881C229.446 63.9946 229.218 64.0325 228.915 63.9567C228.611 63.9189 228.46 63.8052 228.46 63.6157C228.46 63.3884 228.497 63.0474 228.611 62.6307C228.725 62.2139 228.99 61.6834 229.446 61.0393C230.849 59.107 232.442 57.4778 234.186 56.1896C235.931 54.9014 237.562 53.8784 239.116 53.1585C240.671 52.4387 241.847 52.0977 242.643 52.0977C242.909 52.0977 243.25 52.2492 243.63 52.5523C244.009 52.8554 244.312 53.2343 244.54 53.6511C244.767 54.0679 244.767 54.4846 244.54 54.9014C242.643 58.766 240.861 62.7064 239.154 66.6468C237.448 70.6251 235.741 74.5655 234.034 78.3923C233.541 79.5289 233.2 80.5898 233.086 81.537C232.973 82.5221 233.2 82.9768 233.769 82.9768C234.338 82.9768 235.172 82.4842 236.348 81.537C237.486 80.5898 238.775 79.3395 240.216 77.786C241.657 76.2326 243.174 74.6034 244.767 72.8227C246.929 70.3978 249.015 67.8593 251.025 65.245C253.035 62.6307 254.779 60.2816 256.259 58.1598C257.738 56.0759 258.686 54.5604 259.179 53.7269C259.444 53.1585 259.786 52.7796 260.203 52.6281C260.582 52.4387 260.961 52.3629 261.303 52.3629C261.644 52.3629 261.985 52.5523 262.326 52.8933C262.668 53.2343 262.933 53.6511 263.123 54.0679C263.313 54.5225 263.35 54.9014 263.161 55.2803L252.238 80.3625C251.783 81.4612 251.594 82.2569 251.632 82.8252C251.67 83.3935 251.973 83.6588 252.466 83.6588C253.187 83.6588 254.173 83.2799 255.348 82.4842C256.562 81.6886 257.775 80.7792 259.027 79.7184C260.279 78.6575 261.34 77.7103 262.175 76.8767C262.213 76.8388 262.326 76.8009 262.44 76.8009C262.592 76.8009 262.782 76.8767 262.933 77.0283C263.123 77.1798 263.199 77.3693 263.199 77.5966C263.199 77.7103 263.161 77.8239 263.123 77.9376C263.047 78.0513 263.009 78.2028 262.895 78.3544C262.82 78.5438 262.706 78.7333 262.554 78.9606C262.402 79.1879 262.251 79.4152 262.061 79.6805C261.871 79.9457 261.606 80.2488 261.34 80.5898C260.241 81.9538 258.989 83.2799 257.586 84.5681C256.145 85.8563 254.628 86.9172 253.035 87.7128C251.404 88.5464 249.697 88.9631 247.877 88.9631C247.119 88.9631 246.474 88.4706 245.867 87.5234C245.26 86.5762 245.146 85.7047 245.488 84.947C246.284 83.242 247.119 81.4233 248.067 79.491C248.977 77.5587 249.773 75.778 250.494 74.1109C251.214 72.4817 251.708 71.2313 251.973 70.4357C252.238 69.7537 252.238 69.3748 251.897 69.3369C251.556 69.299 251.252 69.4127 250.949 69.7537C247.991 72.9742 245.374 75.8158 243.099 78.2407C240.823 80.6656 238.851 82.6358 237.182 84.2271C235.514 85.7805 234.072 86.9551 232.935 87.7507C231.835 88.5085 230.887 88.9253 230.128 88.9253Z" fill="white"/>
<path d="M286.03 89.0008C282.882 89.0008 280.151 88.2431 277.838 86.6896C275.487 85.1741 273.666 82.9766 272.377 80.1728C271.05 77.3691 270.405 74.1107 270.405 70.3976C270.405 67.1013 271.163 64.1081 272.68 61.418C274.197 58.728 276.207 56.5304 278.71 54.9012C281.213 53.272 283.944 52.4385 286.902 52.4385C289.178 52.4385 291.188 52.8931 292.97 53.8025C294.715 54.7118 296.118 55.9621 297.104 57.5913C298.09 59.2205 298.583 61.077 298.583 63.1609C298.583 64.9417 297.749 65.8131 296.004 65.8131H277.99C277.193 65.8131 276.624 66.0404 276.321 66.4572C276.018 66.874 275.866 67.7075 275.866 68.9578C275.866 71.6858 276.473 74.1865 277.648 76.4219C278.862 78.6573 280.417 80.4759 282.427 81.802C284.399 83.1281 286.599 83.8101 288.988 83.8101C290.695 83.8101 292.25 83.4691 293.653 82.825C295.056 82.1809 296.27 81.2337 297.369 79.9834C297.597 79.7182 297.749 79.5287 297.862 79.4151C297.976 79.3393 298.128 79.3014 298.28 79.3014C298.735 79.3014 298.962 79.6045 298.962 80.1349C298.962 81.2337 298.469 82.4082 297.445 83.7343C296.611 84.8331 295.549 85.7424 294.373 86.5381C293.16 87.3337 291.87 87.94 290.429 88.3567C289.026 88.7735 287.547 89.0008 286.03 89.0008ZM278.179 63.1609H285.954C287.319 63.1609 288.495 63.123 289.443 63.0851C290.391 63.0472 291.339 62.9336 292.25 62.7441C292.515 62.7063 292.705 62.5168 292.818 62.1758C292.894 61.8727 292.932 61.418 292.932 60.8497C292.932 59.2205 292.212 57.7808 290.77 56.6441C289.329 55.4696 287.585 54.9012 285.613 54.9012C284.285 54.9012 282.996 55.2801 281.706 56.0379C280.379 56.7956 279.317 57.7429 278.483 58.8795C277.648 60.0162 277.193 61.1528 277.193 62.2895C277.155 62.8957 277.497 63.1609 278.179 63.1609Z" fill="white"/>
<path d="M101.449 65.7372L100.235 65.0173C106.493 54.3328 108.882 44.3302 109.755 37.8134C110.741 30.7661 110.21 26.1816 110.21 26.1437L111.613 25.9922C111.689 26.1816 113.661 44.8228 101.449 65.7372Z" fill="white"/>
<path d="M105.393 50.8843L104.862 50.7328C102.625 50.1645 100.387 48.0048 99.0976 45.0874C97.8082 42.17 97.6565 39.101 98.7563 37.0551L99.0218 36.5625L99.5527 36.7141C101.828 37.2824 104.028 39.442 105.317 42.3594C106.607 45.239 106.758 48.3458 105.659 50.3918L105.393 50.8843ZM99.7803 38.2675C99.1735 39.9346 99.401 42.3215 100.425 44.557C101.411 46.7924 103.042 48.5353 104.673 49.2172C105.279 47.5502 105.052 45.1632 104.028 42.9278C103.042 40.7302 101.411 38.9495 99.7803 38.2675Z" fill="white"/>
<path d="M106.114 56.341L104.748 56.0758C105.279 53.4993 104.673 52.1354 103.876 50.3546C103.724 50.0515 103.611 49.7105 103.459 49.4074L104.748 48.877C104.9 49.1801 105.014 49.5211 105.166 49.8242C105.962 51.6049 106.721 53.3478 106.114 56.341Z" fill="white"/>
<path d="M116.316 47.7403C114.533 47.7403 112.865 47.3993 111.461 46.7552L110.968 46.5278L111.082 45.9974C111.878 42.2843 115.33 38.5334 120.032 36.2222C124.735 33.911 129.817 33.4942 133.268 35.1234L133.761 35.3507L133.647 35.8812C132.851 39.5942 129.4 43.3452 124.697 45.6564C121.891 47.0204 118.97 47.7403 116.316 47.7403ZM112.599 45.6943C115.633 46.8688 120.032 46.3763 124.09 44.3682C128.11 42.398 131.22 39.1775 132.13 36.1085C129.096 34.934 124.697 35.4265 120.677 37.4346C116.619 39.4048 113.547 42.5874 112.599 45.6943Z" fill="white"/>
<path d="M107.934 51.6804L106.721 50.9984C108.617 47.7021 112.334 44.4437 117.795 41.3747C121.777 39.1393 126.062 37.3585 128.755 36.4492L129.21 37.7753C123.066 39.8592 111.651 45.1636 107.934 51.6804Z" fill="white"/>
<path d="M110.361 26.6743C109.603 26.6743 108.806 26.4849 108.124 26.0681C106.948 25.3861 106.114 24.2495 105.886 22.8855L107.252 22.6203C107.441 23.5675 107.972 24.3631 108.806 24.8178C110.361 25.6892 112.371 25.1209 113.282 23.5296C113.585 22.9991 113.737 22.355 113.737 21.7488L115.14 21.7109C115.178 22.5824 114.95 23.4538 114.495 24.2116C113.585 25.8029 111.992 26.6743 110.361 26.6743Z" fill="white"/>
<path d="M108.769 23.7187C105.052 23.7187 100.729 22.4684 97.1636 18.9069C94.433 16.1789 93.3711 12.5795 94.433 9.73785C95.1156 7.9192 96.5947 6.74466 98.453 6.63099C98.5289 6.63099 98.6426 6.63099 98.7185 6.63099C98.4151 4.6229 98.946 2.80426 100.198 1.59183C101.752 0.0762878 104.218 -0.302597 107.062 0.568838C108.238 0.909834 109.224 1.51605 109.982 2.31171C110.968 0.682503 112.447 -0.113155 114.23 0.0762878C117.719 0.455173 120.942 4.43346 121.739 9.32107C123.37 19.3994 114.95 22.582 113.244 23.1125C111.954 23.4535 110.437 23.7187 108.769 23.7187ZM98.6806 7.99498C98.6426 7.99498 98.6047 7.99498 98.5289 7.99498C97.2394 8.07076 96.2154 8.9043 95.7224 10.1925C95.0398 11.9733 95.3052 15.0422 98.1117 17.8839C102.852 22.582 108.958 22.8851 112.789 21.6727C114.306 21.2181 121.777 18.4143 120.336 9.43474C119.577 4.73657 116.543 1.62971 114.078 1.3645C112.599 1.21294 111.423 2.08438 110.779 3.78936L110.286 5.07757L109.527 3.90302C108.882 2.88003 107.896 2.19804 106.645 1.81916C104.293 1.09928 102.359 1.3645 101.146 2.50115C100.046 3.56203 99.7425 5.26701 100.235 7.19932L100.577 8.48753L99.3253 8.07076C99.1357 8.07076 98.9081 7.99498 98.6806 7.99498Z" fill="white"/>
<path d="M106 13.5647C105.659 12.3902 105.014 10.8746 103.914 8.82867L105.166 8.18457C106.303 10.3063 107.024 11.8976 107.365 13.1858L106 13.5647Z" fill="white"/>
<path d="M111.12 12.6175L109.717 12.5417C109.793 10.4578 110.096 8.79075 110.551 7.61621L111.879 8.10876C111.461 9.16964 111.196 10.6852 111.12 12.6175Z" fill="white"/>
<path d="M108.428 6.79533L107.037 6.97754L107.788 12.6875L109.18 12.5053L108.428 6.79533Z" fill="white"/>
<path d="M108.768 23.7192C105.052 23.7192 100.728 22.4689 97.1635 18.9074C95.0018 16.7478 93.864 14.0198 94.0536 11.4813L94.0916 11.1024L94.4329 10.9129C95.9878 10.0415 97.6186 9.85206 99.1356 10.3446C100.956 10.9129 102.511 12.5421 103.762 15.0807C104.976 13.5651 106.986 12.5043 108.313 12.0496C109.299 11.7465 110.665 11.7086 112.106 12.9589C112.296 11.2918 113.092 9.70051 114.457 8.18497C116.998 5.41911 119.274 5.68433 120.753 6.40421L121.018 6.51788L121.132 6.78309C121.397 7.57875 121.587 8.37441 121.739 9.20796C123.37 19.2863 114.95 22.4689 113.244 22.9994C111.954 23.454 110.437 23.7192 108.768 23.7192ZM95.4569 11.9738C95.4189 13.9819 96.405 16.1415 98.1874 17.9223C102.928 22.6205 109.034 22.9236 112.864 21.7111C114.381 21.2565 121.853 18.4527 120.411 9.47318C120.298 8.82907 120.146 8.18497 119.956 7.57875C118.515 7.01042 117.036 7.54086 115.557 9.17007C113.926 10.9508 113.319 12.6937 113.585 14.7397L113.964 17.5055L112.333 15.2322C111.196 13.6409 110.02 13.0347 108.806 13.4136C107.327 13.9061 104.976 15.2701 104.369 16.8993L104.066 16.7856L103.156 17.1645L103.042 16.9372L103.004 16.8614C102.89 16.6341 102.814 16.3689 102.701 16.1415C101.942 14.4745 100.653 12.3527 98.7184 11.7465C97.6565 11.3676 96.5567 11.4434 95.4569 11.9738Z" fill="white"/>
</g>
<defs>
<clipPath id="clip0">
<rect width="299" height="89" fill="white"/>
</clipPath>
</defs>
</svg>
