<svg width="292" height="80" viewBox="0 0 292 80" fill="none" xmlns="http://www.w3.org/2000/svg">
<g clip-path="url(#clip0)">
<path d="M2.56313 79.2101C1.77448 79.2101 1.18298 79.1312 0.709791 78.9733C0.236597 78.8154 0 78.5786 0 78.2234C0 77.513 0.98582 76.9605 2.91803 76.6447C5.1657 76.2501 6.86131 75.5791 8.04429 74.6319C9.22728 73.7242 9.81877 72.2244 9.81877 70.1327V29.9945C9.81877 27.8633 9.38501 26.3635 8.55692 25.4558C7.72883 24.5875 6.19095 23.9166 3.94328 23.4824C2.01107 23.1272 1.02525 22.5352 1.02525 21.7064C1.02525 21.3512 1.26185 21.1144 1.73504 20.9565C2.20824 20.7987 2.83916 20.7197 3.58839 20.7197C5.1657 20.7197 6.50641 20.7592 7.53167 20.7987C8.55692 20.8776 9.54274 20.9171 10.4891 20.9171C11.4355 20.9565 12.5791 20.9565 13.9592 20.9565C15.2605 20.9565 16.3252 20.9565 17.1533 20.9171C17.9814 20.8776 18.8489 20.8381 19.8347 20.7987C20.7811 20.7592 22.0429 20.7197 23.6597 20.7197C24.4089 20.7197 25.0398 20.7987 25.513 20.9565C25.9862 21.1144 26.2228 21.3512 26.2228 21.7064C26.2228 22.1405 25.9862 22.4958 25.513 22.772C25.0398 23.0878 24.2906 23.3246 23.3048 23.4824C21.0966 23.9166 19.5192 24.548 18.5729 25.4558C17.587 26.3241 17.1138 27.8633 17.1138 29.9945V69.9748C17.1138 71.3956 17.5476 72.6191 18.4151 73.6058C19.2826 74.6319 20.3868 75.1055 21.7275 75.1055H34.7797C36.5937 75.1055 37.9344 74.8293 38.7625 74.2372C39.5905 73.6452 40.1032 72.8954 40.3398 71.9876C40.5764 71.0799 40.6947 70.2116 40.6947 69.3828V30.0735C40.6947 27.9028 40.2609 26.3241 39.3934 25.4558C38.5259 24.5875 36.988 23.9166 34.7403 23.4824C33.7151 23.3246 33.0053 23.0878 32.5321 22.772C32.0589 22.4958 31.8223 22.1405 31.8223 21.7064C31.8223 21.3512 32.0589 21.1144 32.5321 20.9565C33.0053 20.7987 33.6362 20.7197 34.3854 20.7197C35.9627 20.7197 37.3034 20.7592 38.3287 20.7987C39.354 20.8776 40.3398 20.9171 41.2862 20.9171C42.2325 20.9565 43.3761 20.9565 44.7562 20.9565C46.0575 20.9565 47.1222 20.9565 47.9503 20.9171C48.7784 20.8776 49.6459 20.8381 50.6317 20.7987C51.5781 20.7592 52.84 20.7197 54.4567 20.7197C55.2059 20.7197 55.8369 20.7987 56.3101 20.9565C56.7833 21.1144 57.0199 21.3512 57.0199 21.7064C57.0199 22.5352 56.034 23.1272 54.1018 23.4824C51.8936 23.9166 50.3163 24.548 49.3305 25.3769C48.3052 26.2451 47.832 27.7449 47.832 29.8761V70.5273C47.832 71.0799 47.9503 71.6719 48.1869 72.3823C48.4235 73.0927 48.9361 73.7242 49.6853 74.2372C50.4346 74.7898 51.657 75.0266 53.3132 75.0266H66.2471C67.785 75.0266 69.0074 74.3951 69.9932 73.1322C70.9396 71.8692 71.4128 70.5668 71.4128 69.2644V29.9945C71.4128 27.8633 70.9791 26.3635 70.1115 25.4558C69.244 24.5875 67.7061 23.9166 65.4585 23.4824C64.4332 23.3246 63.7234 23.0878 63.2502 22.772C62.777 22.4958 62.5405 22.1405 62.5405 21.7064C62.5405 21.3512 62.777 21.1144 63.2502 20.9565C63.7234 20.7987 64.3544 20.7197 65.1036 20.7197C66.6809 20.7197 68.0216 20.7592 69.0469 20.7987C70.0721 20.8776 71.0579 20.9171 72.0043 20.9171C72.9507 20.9565 74.0943 20.9565 75.4744 20.9565C76.7757 20.9565 77.8404 20.9565 78.6685 20.9171C79.4966 20.8776 80.3641 20.8381 81.3499 20.7987C82.2963 20.7592 83.5581 20.7197 85.1749 20.7197C85.9241 20.7197 86.555 20.7987 87.0282 20.9565C87.5014 21.1144 87.738 21.3512 87.738 21.7064C87.738 22.5352 86.7522 23.1272 84.82 23.4824C82.6118 23.9166 81.0344 24.548 80.0092 25.4558C78.9839 26.3241 78.5107 27.8238 78.5107 29.8761V70.0143C78.5107 72.106 79.1417 73.6058 80.3641 74.553C81.5865 75.5002 83.3215 76.1711 85.4903 76.6053C87.462 76.9605 88.4084 77.4736 88.4084 78.184C88.4084 78.5392 88.1718 78.776 87.6986 78.9338C87.2254 79.0917 86.5945 79.1706 85.8452 79.1706C84.2285 79.1706 82.9272 79.1312 81.902 79.0522C80.8767 78.9733 79.8909 78.8944 78.9445 78.8154C77.9981 78.7365 76.8546 78.7365 75.4744 78.7365C69.4806 78.7365 64.0389 78.7365 59.1098 78.697C54.1807 78.6576 49.3305 78.6576 44.5985 78.6576C39.906 78.6576 35.1346 78.6576 30.2055 78.6576C25.2764 78.6576 19.8347 78.697 13.8804 78.7365C12.3819 78.7365 11.1201 78.776 10.0159 78.8154C8.91182 78.8549 7.8077 78.9338 6.66415 79.0522C5.56003 79.1706 4.17988 79.2101 2.56313 79.2101Z" fill="white"/>
<path d="M99.6468 79.9991C98.2272 79.9991 96.8865 79.5255 95.6641 78.5783C94.4023 77.6311 93.4164 76.4076 92.7067 74.8684C91.9574 73.3291 91.6025 71.711 91.6025 69.9744C91.6025 67.2117 92.1546 64.1727 93.2587 60.9759C94.3628 57.7396 95.8613 54.7006 97.8329 51.8195C99.7651 48.9384 102.052 46.6098 104.615 44.7549C107.178 42.9394 109.939 41.9922 112.896 41.9922C115.854 41.9922 118.141 43.0183 119.758 44.9917C121.374 47.0045 122.202 49.491 122.202 52.451C122.202 55.1348 121.65 58.0159 120.586 61.2127C119.521 64.3701 117.983 67.3696 116.011 70.2112C114.04 73.0529 111.674 75.3814 108.914 77.2364C106.153 79.0913 103.077 79.9991 99.6468 79.9991ZM101.066 77.3153C102.486 77.3153 103.906 76.6838 105.365 75.4604C106.824 74.2369 108.204 72.5793 109.544 70.5664C110.885 68.5536 112.068 66.3434 113.093 63.8965C114.119 61.489 114.947 59.042 115.578 56.6345C116.209 54.227 116.524 51.9774 116.524 49.9646C116.524 48.4253 116.287 47.1624 115.775 46.1362C115.262 45.1496 114.237 44.6365 112.699 44.6365C111.319 44.6365 109.939 45.189 108.48 46.3336C107.021 47.4781 105.641 48.9779 104.3 50.8723C102.959 52.7667 101.776 54.898 100.712 57.2265C99.6468 59.5551 98.8187 62.0021 98.1878 64.528C97.5569 67.0539 97.2414 69.5008 97.2414 71.8689C97.2414 73.8422 97.5963 75.2236 98.2667 76.0918C98.937 76.9207 99.8834 77.3153 101.066 77.3153Z" fill="white"/>
<path d="M127.92 79.0125C127.565 79.0125 127.131 78.973 126.619 78.9335C126.106 78.8546 125.87 78.6573 125.87 78.2231C125.87 77.7495 126.106 77.3943 126.54 77.197C126.974 76.9996 127.447 76.8023 127.92 76.605C128.788 76.3287 129.576 75.9735 130.168 75.5788C130.799 75.1841 131.114 74.3948 131.114 73.2108V50.5566C131.114 48.8595 130.878 47.715 130.365 47.2019C129.852 46.6888 128.867 46.2547 127.408 45.9784C127.171 45.939 126.855 45.7416 126.461 45.3864C126.067 45.0707 125.87 44.676 125.87 44.2813C125.87 43.9261 126.146 43.6104 126.698 43.3341C127.25 43.0579 127.644 42.9395 127.802 42.9395C128.906 42.9395 129.734 42.9789 130.286 43.0579C130.799 43.1368 131.587 43.1763 132.573 43.1763H159.111C160.097 43.1763 160.925 43.1368 161.596 43.0579C162.227 42.9789 163.134 42.9395 164.277 42.9395C164.474 42.9395 164.829 43.0579 165.381 43.3341C165.933 43.6104 166.209 43.9261 166.209 44.2813C166.209 44.7155 166.012 45.0707 165.657 45.3864C165.302 45.7022 164.987 45.8995 164.672 45.9784C163.173 46.2942 162.148 46.6888 161.517 47.2808C160.886 47.8334 160.57 48.9779 160.57 50.7145V73.2503C160.57 74.4343 160.886 75.2236 161.517 75.6183C162.148 76.013 162.897 76.3287 163.765 76.6444C164.238 76.8023 164.711 76.9996 165.145 77.2364C165.578 77.4338 165.815 77.789 165.815 78.2626C165.815 78.6967 165.578 78.8941 165.105 78.973C164.632 79.0125 164.198 79.0519 163.765 79.0519C162.621 79.0519 161.793 79.0125 161.241 78.9335C160.689 78.8546 160.137 78.7757 159.624 78.6967C159.111 78.6573 158.323 78.6178 157.258 78.6178C156.233 78.6178 155.484 78.6573 154.932 78.6967C154.419 78.7757 153.867 78.8151 153.275 78.9335C152.723 79.0125 151.856 79.0519 150.673 79.0519C150.318 79.0519 149.884 79.0125 149.372 78.973C148.859 78.8941 148.622 78.6967 148.622 78.2626C148.622 77.789 148.859 77.4338 149.293 77.2364C149.726 77.0391 150.2 76.8418 150.673 76.6444C151.54 76.3682 152.368 76.013 153.157 75.6183C153.906 75.2236 154.301 74.4343 154.301 73.2503V49.4515C154.301 48.9779 154.222 48.307 154.104 47.3992C153.985 46.531 153.551 46.0574 152.842 46.0574H138.646C137.857 46.0574 137.423 46.4915 137.305 47.3992C137.187 48.2675 137.108 48.9779 137.108 49.4515V73.2503C137.108 74.4343 137.502 75.2236 138.252 75.6183C139.001 76.013 139.829 76.3287 140.736 76.6444C141.209 76.8023 141.682 76.9996 142.116 77.2364C142.55 77.4338 142.786 77.789 142.786 78.2626C142.786 78.6967 142.55 78.8941 142.077 78.973C141.603 79.0125 141.17 79.0519 140.736 79.0519C139.592 79.0519 138.764 79.0125 138.212 78.9335C137.66 78.8546 137.108 78.7757 136.635 78.6967C136.122 78.6573 135.333 78.6178 134.269 78.6178C133.244 78.6178 132.494 78.6573 131.942 78.6967C131.43 78.7757 130.878 78.8151 130.286 78.9335C130.01 78.973 129.103 79.0125 127.92 79.0125Z" fill="white"/>
<path d="M172.4 79.0129C172.085 79.0129 171.73 78.9734 171.296 78.8945C170.863 78.8155 170.626 78.5787 170.626 78.2235C170.626 77.7499 170.863 77.3947 171.296 77.1974C171.73 77 172.203 76.8027 172.676 76.6054C173.544 76.3291 174.412 75.9739 175.2 75.5792C175.989 75.1846 176.383 74.3952 176.383 73.1323V48.781C176.383 47.597 176.028 46.7682 175.358 46.334C174.688 45.8999 173.899 45.5447 172.992 45.3079C172.519 45.1106 172.046 44.9132 171.612 44.6764C171.178 44.4396 170.941 44.1239 170.941 43.6897C170.941 43.3345 171.178 43.0977 171.612 43.0188C172.046 42.9399 172.44 42.9004 172.716 42.9004C173.899 42.9004 174.806 42.9399 175.437 42.9793C176.068 43.0583 176.659 43.0977 177.211 43.2161C177.763 43.2951 178.552 43.3345 179.577 43.3345C180.642 43.3345 181.431 43.2951 181.943 43.2161C182.456 43.1372 183.008 43.0583 183.599 42.9793C184.191 42.9399 185.058 42.9004 186.281 42.9004C186.557 42.9004 186.951 42.9399 187.385 43.0188C187.819 43.0977 188.055 43.3345 188.055 43.6897C188.055 44.1239 187.819 44.4396 187.385 44.6764C186.951 44.9132 186.478 45.1106 186.005 45.3079C185.137 45.5447 184.349 45.8999 183.639 46.334C182.968 46.7682 182.614 47.597 182.614 48.781V66.5412C182.614 66.778 182.732 66.9359 183.008 67.0148C183.284 67.0938 183.442 67.1332 183.481 67.0543L200.437 49.5703C200.555 49.3335 200.674 49.1757 200.753 49.1362C200.832 49.0967 200.871 48.8994 200.871 48.6231C200.871 47.4391 200.555 46.6498 200.003 46.2551C199.412 45.8604 198.663 45.5447 197.795 45.3079C197.322 45.1106 196.849 44.9132 196.415 44.6764C195.981 44.4396 195.745 44.1239 195.745 43.6897C195.745 43.3345 195.942 43.0977 196.376 43.0188C196.77 42.9399 197.164 42.9004 197.519 42.9004C198.702 42.9004 199.57 42.9399 200.201 42.9793C200.792 43.0583 201.344 43.0977 201.896 43.2161C202.409 43.2951 203.197 43.3345 204.183 43.3345C205.248 43.3345 206.037 43.2951 206.589 43.2161C207.141 43.1372 207.693 43.0583 208.324 42.9793C208.955 42.9399 209.862 42.9004 211.045 42.9004C211.4 42.9004 211.794 42.9399 212.188 43.0188C212.582 43.0977 212.819 43.3345 212.819 43.6897C212.819 44.1239 212.582 44.4396 212.149 44.6764C211.715 44.9132 211.242 45.1106 210.769 45.3079C209.901 45.5447 209.034 45.8999 208.284 46.334C207.496 46.7682 207.141 47.597 207.141 48.781V73.1323C207.141 74.3163 207.575 75.1056 208.442 75.5398C209.31 75.9739 210.177 76.3291 211.045 76.6054C211.518 76.7632 211.991 76.9606 212.425 77.1974C212.859 77.3947 213.095 77.7499 213.095 78.2235C213.095 78.5787 212.859 78.8155 212.425 78.8945C211.991 78.9734 211.597 79.0129 211.321 79.0129C210.138 79.0129 209.191 78.9734 208.521 78.8945C207.851 78.8155 207.22 78.7366 206.628 78.6577C206.037 78.6182 205.209 78.5787 204.144 78.5787C203.119 78.5787 202.33 78.6182 201.699 78.6577C201.068 78.7366 200.437 78.7761 199.727 78.8945C199.057 78.9734 198.111 79.0129 196.928 79.0129C196.612 79.0129 196.257 78.9734 195.824 78.8945C195.39 78.8155 195.153 78.5787 195.153 78.2235C195.153 77.7499 195.39 77.3947 195.824 77.1974C196.257 77 196.73 76.8027 197.204 76.6054C198.071 76.3291 198.939 75.9739 199.727 75.5398C200.516 75.1451 200.91 74.3163 200.91 73.1323V54.2275C200.91 53.9907 200.871 53.8328 200.832 53.7539C200.753 53.6749 200.674 53.6749 200.555 53.7933L182.89 72.185C182.732 72.3429 182.614 72.6981 182.614 73.1717C182.614 74.4347 183.047 75.224 183.915 75.6187C184.782 76.0134 185.65 76.3291 186.517 76.6448C186.991 76.8027 187.464 77 187.898 77.2368C188.331 77.4342 188.568 77.7894 188.568 78.263C188.568 78.6182 188.331 78.855 187.898 78.9339C187.464 79.0129 187.069 79.0523 186.793 79.0523C185.61 79.0523 184.664 79.0129 183.994 78.9339C183.323 78.855 182.692 78.7761 182.101 78.6971C181.509 78.6577 180.681 78.6182 179.617 78.6182C178.591 78.6182 177.803 78.6577 177.172 78.6971C176.541 78.7761 175.91 78.8155 175.2 78.9339C174.49 78.9734 173.583 79.0129 172.4 79.0129Z" fill="white"/>
<path d="M219.404 79.0123C219.049 79.0123 218.615 78.9728 218.103 78.9334C217.59 78.8544 217.354 78.6571 217.354 78.223C217.354 77.7493 217.59 77.3941 218.024 77.1968C218.458 76.9995 218.931 76.8021 219.404 76.6048C220.272 76.3285 221.139 75.9733 221.928 75.5787C222.716 75.184 223.111 74.3946 223.111 73.1317V48.7804C223.111 47.5964 222.756 46.7676 222.085 46.3335C221.415 45.8993 220.626 45.5441 219.719 45.3073C219.246 45.11 218.773 44.9126 218.339 44.6758C217.906 44.439 217.669 44.1233 217.669 43.6892C217.669 43.2945 217.906 43.0577 218.418 42.9788C218.931 42.9393 219.365 42.8998 219.719 42.8998C220.902 42.8998 221.77 42.9393 222.322 42.9788C222.874 43.0577 223.426 43.0972 223.978 43.2156C224.491 43.2945 225.28 43.334 226.265 43.334C227.33 43.334 228.079 43.2945 228.592 43.2156C229.065 43.1366 229.578 43.0577 230.13 42.9788C230.682 42.9393 231.549 42.8998 232.653 42.8998C233.008 42.8998 233.442 42.9393 233.955 42.9788C234.467 43.0577 234.704 43.2945 234.704 43.6892C234.704 44.1233 234.467 44.439 234.034 44.6758C233.6 44.9126 233.127 45.11 232.653 45.3073C231.786 45.5441 230.997 45.8993 230.287 46.3335C229.617 46.7676 229.262 47.5964 229.262 48.7804V58.0947C229.262 58.3315 229.381 58.4894 229.617 58.5288C229.854 58.6078 230.011 58.6078 230.169 58.6078H246.652C246.77 58.6078 246.889 58.5683 246.968 58.4104C247.046 58.292 247.086 58.1342 247.086 57.8974V48.741C247.086 47.5569 246.77 46.7281 246.218 46.294C245.627 45.8599 244.878 45.5047 244.01 45.2678C243.537 45.0705 243.064 44.8732 242.63 44.6364C242.196 44.3996 241.96 44.0838 241.96 43.6497C241.96 43.255 242.196 43.0182 242.669 42.9393C243.143 42.8998 243.576 42.8604 244.01 42.8604C245.193 42.8604 246.061 42.8998 246.573 42.9393C247.086 43.0182 247.638 43.0577 248.111 43.1761C248.624 43.255 249.373 43.2945 250.359 43.2945C251.423 43.2945 252.212 43.255 252.725 43.1761C253.237 43.0972 253.789 43.0182 254.381 42.9393C254.972 42.8998 255.84 42.8604 256.944 42.8604C257.338 42.8604 257.812 42.8998 258.285 42.9393C258.758 43.0182 258.995 43.255 258.995 43.6497C258.995 44.0838 258.758 44.3996 258.324 44.6364C257.89 44.8732 257.417 45.0705 256.944 45.2678C256.077 45.5047 255.209 45.8599 254.46 46.294C253.671 46.7281 253.316 47.5569 253.316 48.741V73.0922C253.316 74.2762 253.75 75.0656 254.618 75.4997C255.485 75.9339 256.353 76.2891 257.22 76.5653C257.693 76.7232 258.166 76.9205 258.6 77.1573C259.034 77.3547 259.271 77.7099 259.271 78.1835C259.271 78.6176 259.034 78.815 258.521 78.8939C258.009 78.9334 257.575 78.9728 257.22 78.9728C256.077 78.9728 255.209 78.9334 254.539 78.8544C253.868 78.7755 253.277 78.6966 252.725 78.6176C252.173 78.5782 251.345 78.5387 250.28 78.5387C249.255 78.5387 248.466 78.5782 247.874 78.6176C247.283 78.6966 246.692 78.736 246.061 78.8544C245.43 78.9334 244.523 78.9728 243.34 78.9728C242.985 78.9728 242.551 78.9334 242.038 78.8939C241.526 78.815 241.289 78.6176 241.289 78.1835C241.289 77.7099 241.526 77.3547 241.96 77.1573C242.393 76.96 242.867 76.7627 243.34 76.5653C244.207 76.2891 245.075 75.9339 245.863 75.4997C246.652 75.105 247.046 74.2762 247.046 73.0922V62.0019C247.046 61.7651 247.007 61.6467 246.968 61.6073C246.889 61.5678 246.81 61.5678 246.692 61.5678H229.459C229.341 61.5678 229.262 61.6073 229.223 61.6862C229.183 61.7651 229.183 61.923 229.183 62.1598V73.0922C229.183 74.3552 229.617 75.1445 230.485 75.5392C231.352 75.9339 232.22 76.2496 233.087 76.5653C233.56 76.7232 234.034 76.9205 234.467 77.1573C234.901 77.3547 235.138 77.7099 235.138 78.1835C235.138 78.6176 234.901 78.815 234.388 78.8939C233.876 78.9334 233.442 78.9728 233.087 78.9728C231.944 78.9728 231.076 78.9334 230.406 78.8544C229.735 78.7755 229.144 78.6966 228.592 78.6176C228.04 78.5782 227.212 78.5387 226.147 78.5387C225.122 78.5387 224.333 78.5782 223.742 78.6176C223.15 78.6966 222.559 78.736 221.928 78.8544C221.494 78.9728 220.587 79.0123 219.404 79.0123Z" fill="white"/>
<path d="M265.62 79.0125C265.304 79.0125 264.949 78.9731 264.515 78.8941C264.082 78.8152 263.845 78.5784 263.845 78.2232C263.845 77.7496 264.082 77.3944 264.515 77.197C264.949 76.9997 265.422 76.8024 265.896 76.605C266.763 76.3288 267.591 75.9736 268.34 75.5789C269.09 75.1842 269.445 74.3949 269.445 73.2109V52.0959C269.445 50.3988 269.129 48.9385 268.498 47.794C267.867 46.6494 266.842 45.8996 265.344 45.6233C265.107 45.5838 264.791 45.3865 264.397 45.1497C264.003 44.8734 263.806 44.5577 263.806 44.1235C263.806 43.7683 264.082 43.4921 264.634 43.2947C265.186 43.0974 265.58 42.979 265.738 42.979C266.842 42.979 267.749 43.0185 268.419 43.0974C269.05 43.1763 269.878 43.2158 270.904 43.2158H285.73C287.426 43.2158 288.688 43.1369 289.476 42.979C290.226 42.8211 290.817 42.7422 291.251 42.7422C291.29 42.7422 291.448 42.8211 291.645 42.979C291.842 43.1369 291.961 43.3342 291.961 43.6499C291.961 44.4393 291.882 45.5049 291.803 46.9257C291.685 48.3465 291.606 49.5305 291.606 50.4778C291.606 51.2671 291.527 52.0564 291.409 52.8853C291.29 53.7141 290.975 54.1087 290.423 54.1087C289.831 54.1087 289.279 53.0037 288.727 50.754C288.53 49.9252 288.254 49.1753 287.781 48.4649C287.308 47.7545 286.834 47.1625 286.243 46.7284C285.651 46.2942 285.021 46.0574 284.39 46.0574C283.956 46.0574 283.364 46.0574 282.536 46.018C281.708 45.9785 280.88 45.9785 280.091 45.9785C279.303 45.9785 278.711 45.9785 278.356 45.9785C277.173 45.9785 276.424 46.4126 276.109 47.3204C275.793 48.1887 275.636 48.8991 275.636 49.3727V73.2503C275.636 74.4343 276.109 75.2237 277.016 75.6184C277.923 76.013 278.83 76.3288 279.737 76.6445C280.21 76.8024 280.683 76.9997 281.117 77.2365C281.55 77.4338 281.787 77.7891 281.787 78.2627C281.787 78.6968 281.55 78.8941 281.038 78.9731C280.525 79.0125 280.091 79.052 279.737 79.052C278.593 79.052 277.725 79.0125 277.055 78.9336C276.385 78.8547 275.793 78.7757 275.241 78.6968C274.689 78.6573 273.861 78.6179 272.796 78.6179C271.771 78.6179 270.982 78.6573 270.351 78.6968C269.721 78.7757 269.09 78.8152 268.38 78.9336C267.749 78.9731 266.803 79.0125 265.62 79.0125Z" fill="white"/>
<path d="M78.5503 45.2688C82.2964 42.7429 86.082 40.3354 89.9464 38.0069C116.327 22.22 136.871 17.0893 137.108 17.0498" fill="white"/>
<path d="M135.886 16.9715C135.886 16.9715 143.615 11.604 154.104 9.47278C157.889 8.68343 164.751 8.9597 165.184 10.9725C165.579 12.9854 161.123 15.5902 155.602 16.6953C145.113 18.8265 135.886 16.9715 135.886 16.9715Z" fill="white"/>
<path d="M125.83 22.4962C125.83 22.4962 133.046 22.062 140.42 25.18C143.102 26.285 147.163 29.5608 146.493 31.179C145.823 32.7971 141.84 32.6787 137.975 31.0606C130.562 27.9427 125.83 22.4962 125.83 22.4962Z" fill="white"/>
<path d="M108.085 29.9561C108.085 29.9561 115.183 30.5086 121.769 34.6526C124.174 36.1524 127.486 40.0202 126.501 41.5594C125.515 43.0986 121.69 42.4671 118.22 40.2965C111.674 36.1524 108.085 29.9561 108.085 29.9561Z" fill="white"/>
<path d="M122.991 20.4046C122.991 20.4046 123.031 13.4189 126.146 6.15697C127.289 3.51267 130.365 -0.552455 131.706 0.0395534C133.086 0.631561 132.731 4.45988 131.114 8.2882C128.039 15.5896 122.991 20.4046 122.991 20.4046Z" fill="white"/>
<path d="M111.674 25.7719C111.674 25.7719 109.545 18.4705 111.043 10.2218C111.595 7.22234 114.079 2.36788 115.933 2.68361C117.786 3.03882 118.614 7.10394 117.825 11.4453C116.288 19.694 111.674 25.7719 111.674 25.7719Z" fill="white"/>
<path d="M97.0444 32.3237C97.0444 32.3237 95.6249 28.3375 96.9261 22.97C97.3993 21.0361 99.2921 17.484 100.672 17.2472C102.052 17.0499 102.565 19.339 101.855 22.1806C100.554 27.5876 97.0444 32.3237 97.0444 32.3237Z" fill="white"/>
<path d="M91.918 39.2701C91.918 39.2701 96.3739 37.7703 102.092 39.2701C104.142 39.8226 107.809 41.9538 107.888 43.4536C107.967 44.9533 105.443 45.4664 102.407 44.6771C96.7288 43.1773 91.918 39.2701 91.918 39.2701Z" fill="white"/>
</g>
<defs>
<clipPath id="clip0">
<rect width="292" height="80" fill="white"/>
</clipPath>
</defs>
</svg>
