<svg width="437" height="117" viewBox="0 0 437 117" fill="none" xmlns="http://www.w3.org/2000/svg">
<g clip-path="url(#clip0)">
<path d="M24.974 104.251C24.5874 104.251 24.2781 104.173 24.0462 104.018C23.8142 103.862 23.6596 103.628 23.5565 103.343C23.4534 103.057 23.4019 102.719 23.4019 102.382C23.4019 102.148 23.4019 101.992 23.4276 101.837C23.4534 101.707 23.4792 101.577 23.5307 101.447L31.4171 81.4277C31.6491 80.9344 31.7779 80.493 31.8553 80.1035C31.9326 79.714 31.7264 79.5063 31.2883 79.5063C30.6182 79.5063 29.845 79.714 28.9687 80.1035C28.0925 80.493 27.0358 81.1162 25.8503 81.8951C25.6183 82.0769 25.4121 82.1548 25.1802 82.1288C24.9482 82.1028 24.8451 81.9471 24.8451 81.6355C24.8967 81.246 25.2317 80.7007 25.876 80.0256C26.5203 79.3505 27.3451 78.7014 28.3244 78.0263C29.3038 77.3512 30.3347 76.7799 31.3656 76.2866C32.3965 75.7933 33.3243 75.5596 34.1233 75.5596C34.7418 75.5596 35.283 75.949 35.7727 76.702C36.2624 77.455 36.3655 78.1821 36.1077 78.9091L32.6542 87.4517C32.5254 87.8152 32.5254 88.023 32.6542 88.1268C32.7831 88.2047 32.8862 88.2566 32.9893 88.2566L43.0663 87.8672C43.1437 87.8672 43.2467 87.8152 43.3241 87.7373C43.4014 87.6594 43.4787 87.5036 43.5302 87.3479L47.4477 77.5329C47.6281 77.1435 47.9374 76.8059 48.4013 76.5203C48.8652 76.2606 49.3291 76.0529 49.8188 75.8971C50.3084 75.7413 50.6693 75.6634 50.8754 75.6634C51.2362 75.6634 51.4424 75.7413 51.494 75.9231C51.5713 76.1048 51.5971 76.3905 51.5971 76.7799C51.5971 76.9617 51.494 77.3252 51.262 77.8705C51.0301 78.4158 50.7466 79.1168 50.4115 79.8958L43.4529 97.5003C42.8344 99.24 42.8602 100.097 43.5302 100.097C44.0715 100.097 44.7158 99.8891 45.489 99.4737C46.2621 99.0582 47.0353 98.5389 47.8085 97.9677C48.5817 97.3965 49.2518 96.8512 49.8188 96.3578C50.3858 95.8645 50.7723 95.527 50.9528 95.3452C51.0043 95.2933 51.0301 95.2673 51.0558 95.2673C51.0816 95.2673 51.1074 95.2673 51.1589 95.2673C51.5455 95.2673 51.7517 95.475 51.7517 95.8645C51.7517 96.0463 51.7002 96.228 51.5971 96.4098C51.494 96.5915 51.3909 96.7214 51.2878 96.7993C50.5404 97.6561 49.793 98.4351 49.0714 99.1621C48.3497 99.8891 47.6023 100.564 46.8807 101.187C46.159 101.811 45.4116 102.33 44.69 102.745C43.9684 103.161 43.2467 103.498 42.5251 103.758C41.8293 103.992 41.0819 104.121 40.3344 104.121C39.8963 104.121 39.484 103.94 39.0716 103.55C38.685 103.161 38.3757 102.745 38.2211 102.252C38.0407 101.759 38.0149 101.369 38.1438 101.058L42.0612 91.1128C42.1901 90.7493 42.2932 90.5156 42.3705 90.4118C42.4478 90.3079 42.3705 90.256 42.1385 90.256L32.0614 90.6455C31.9841 90.6455 31.8553 90.6714 31.7006 90.7234C31.546 90.7753 31.3914 90.9051 31.2625 91.1128L26.5719 102.927C26.443 103.291 26.2111 103.576 25.9018 103.836C25.5925 104.121 25.2833 104.251 24.974 104.251Z" fill="#6A489C"/>
<path d="M63.1949 104.173C62.3959 104.173 61.597 103.862 60.7723 103.239C59.9475 102.615 59.2775 101.862 58.7105 100.98C58.1692 100.097 57.8857 99.2398 57.8857 98.4349C57.8857 97.0068 58.2723 95.8903 59.0197 95.0854C59.7671 94.2804 60.9527 93.5534 62.6021 92.8783L69.3545 90.074C70.2308 89.7105 70.7463 89.3989 70.9009 89.1393C71.0555 88.8796 71.1586 88.2824 71.2102 87.3996L71.339 83.1413C71.3906 81.9729 71.0555 80.9862 70.3854 80.1293C69.6896 79.2724 68.7102 78.857 67.4474 78.857C66.7773 78.857 66.133 78.9609 65.4629 79.1946C64.7928 79.4282 64.2516 79.7139 63.8134 80.0514C63.5557 80.2332 63.3753 80.4928 63.2722 80.8563C63.1949 81.2198 63.1433 81.5834 63.1433 81.9988C63.1433 82.1806 63.1433 82.3883 63.1691 82.596C63.1949 82.8297 63.1949 83.0115 63.1949 83.1932C63.1949 83.4269 62.9114 83.7125 62.3702 84.102C61.8289 84.4915 61.2104 84.8031 60.5145 85.1147C59.8187 85.4003 59.2775 85.5561 58.8136 85.5561C58.5816 85.5561 58.427 85.5041 58.2723 85.4003C58.1435 85.2964 58.0661 85.1406 58.0661 84.9589C58.0661 84.2578 58.2981 83.4788 58.762 82.6479C59.2259 81.8171 59.8702 81.0641 60.7207 80.337C61.7259 79.4023 62.8341 78.5714 64.0454 77.8703C65.2309 77.1692 66.4165 76.598 67.5505 76.2085C68.7102 75.819 69.7154 75.6113 70.5916 75.6113C72.1895 75.6113 73.5039 76.1826 74.5348 77.325C75.5657 78.4675 76.0812 79.8697 76.0296 81.5574L75.6946 97.578C75.6431 98.5128 75.8492 99.2658 76.3131 99.837C76.777 100.408 77.3698 100.694 78.0657 100.694C79.1739 100.694 79.9986 100.46 80.5141 99.9669C80.746 99.7332 80.9007 99.6293 81.0553 99.6293C81.2872 99.6293 81.4419 99.7072 81.5965 99.837C81.7254 99.9669 81.8027 100.149 81.8027 100.382C81.8027 100.876 81.5707 101.369 81.0811 101.862C80.3852 102.563 79.612 103.135 78.7873 103.576C77.9626 103.992 77.2152 104.199 76.4935 104.199C74.4575 104.199 72.8596 103.031 71.6483 100.72H71.4421C69.9731 101.914 68.5814 102.797 67.267 103.368C65.9526 103.94 64.6124 104.173 63.1949 104.173ZM66.3134 100.98C67.1896 100.98 67.937 100.824 68.5556 100.538C69.1741 100.252 69.7154 99.863 70.205 99.3697C70.437 99.136 70.6174 98.8504 70.772 98.4609C70.9267 98.0714 71.0298 97.4742 71.0813 96.6173L71.2102 93.3457C71.2617 92.8524 71.2359 92.4888 71.1328 92.2811C71.0555 92.0474 70.8751 91.9436 70.5916 91.9436C70.5143 91.9436 70.3597 91.9695 70.1277 92.0215C69.8958 92.0734 69.6123 92.1513 69.2772 92.2811C66.9319 93.138 65.3082 93.9948 64.4062 94.9296C63.5042 95.8384 63.0403 96.6693 63.0403 97.4223C63.0403 98.5907 63.3753 99.4476 64.0712 100.071C64.7928 100.668 65.5144 100.98 66.3134 100.98Z" fill="#6A489C"/>
<path d="M108.451 104.173C106.673 104.173 105.178 103.966 103.915 103.576C102.652 103.187 101.493 102.719 100.436 102.252C99.9979 102.018 99.534 101.707 99.0443 101.291C98.5546 100.876 98.2711 100.357 98.1938 99.7853C98.0649 98.8505 97.9103 97.734 97.7299 96.4098C97.5495 95.0856 97.4722 93.8392 97.4722 92.6448C97.4722 92.3852 97.6268 92.1515 97.9103 91.9438C98.1938 91.736 98.5031 91.6322 98.8123 91.6322C99.0701 91.6322 99.6113 92.6189 100.41 94.5663C101.338 96.8772 102.627 98.7207 104.328 100.071C106.003 101.421 107.755 102.096 109.559 102.096C111.905 102.096 113.812 101.551 115.333 100.434C116.827 99.3179 117.936 97.8898 118.657 96.1242C119.353 94.3585 119.714 92.541 119.714 90.6195C119.714 88.8798 119.43 87.27 118.889 85.738C118.348 84.232 117.472 82.9857 116.312 82.025C115.152 81.0643 113.657 80.5969 111.853 80.5969C111.544 80.5969 111.235 80.6229 110.925 80.6748C110.616 80.7267 110.281 80.7527 109.92 80.8046C109.559 80.8565 109.147 80.9085 108.657 80.9604C108.168 81.0383 107.601 81.0643 106.931 81.0643C106.621 81.0643 106.261 81.0383 105.848 80.9604C105.436 80.8825 105.049 80.7527 104.714 80.5709C104.379 80.3632 104.225 80.0776 104.225 79.6621C104.225 79.0909 104.534 78.6495 105.178 78.3898C105.822 78.1302 106.364 78.0003 106.802 78.0003C107.42 78.0003 107.91 78.0003 108.297 78.0263C108.683 78.0523 109.018 78.1042 109.328 78.1821C109.688 78.234 110.075 78.26 110.487 78.3119C110.9 78.3639 111.467 78.3898 112.188 78.3898C113.477 78.3898 114.482 77.9744 115.229 77.1435C115.977 76.3126 116.518 75.274 116.853 74.0017C117.188 72.7294 117.343 71.4571 117.343 70.1588C117.343 68.8605 117.162 67.5103 116.776 66.0822C116.389 64.6541 115.642 63.4338 114.482 62.4471C113.322 61.4344 111.621 60.9411 109.328 60.9411C107.549 60.9411 106.003 61.6162 104.663 62.9404C103.323 64.2647 102.24 66.4457 101.441 69.4837C101.364 69.977 101.08 70.3665 100.642 70.6781C100.204 70.9897 99.8948 71.1455 99.7144 71.1455C99.534 71.1455 99.3793 70.9378 99.2505 70.5483C99.1216 70.1588 99.0443 69.7953 99.0443 69.4837C99.0443 68.3153 99.1216 67.3026 99.2505 66.3679C99.3793 65.4591 99.534 64.4464 99.7144 63.3299C99.7917 62.9664 99.8948 62.6808 99.9721 62.4211C100.049 62.1874 100.256 62.0316 100.565 61.9797C101.312 61.7979 102.06 61.5383 102.807 61.1748C103.554 60.8113 104.353 60.4737 105.152 60.1102C105.977 59.7467 106.828 59.4611 107.704 59.2014C108.58 58.9677 109.534 58.8379 110.565 58.8379C112.781 58.8379 114.869 59.2014 116.853 59.9284C118.838 60.6555 120.461 61.7979 121.698 63.3039C122.935 64.8099 123.554 66.8093 123.554 69.25C123.554 71.6908 122.987 73.6382 121.827 75.0922C120.667 76.5463 119.07 77.6888 116.982 78.5197C116.802 78.5716 116.724 78.6754 116.724 78.8312C116.724 78.987 116.802 79.1169 116.982 79.1948C118.296 79.5842 119.688 80.1555 121.131 80.9085C122.575 81.6355 123.76 82.726 124.74 84.1801C125.719 85.6342 126.209 87.6335 126.209 90.23C126.209 92.7747 125.667 94.9038 124.585 96.6695C123.502 98.4351 122.085 99.8632 120.358 100.98C118.606 102.096 116.698 102.901 114.637 103.394C112.446 103.94 110.436 104.173 108.451 104.173Z" fill="#6A489C"/>
<path d="M131.234 117C130.693 117 130.306 116.793 130.074 116.377C129.843 115.962 129.688 115.468 129.636 114.949C129.507 112.846 129.327 111.054 129.095 109.522C128.863 107.99 128.683 106.614 128.502 105.394C128.322 104.173 128.245 102.953 128.245 101.759C128.245 101.499 128.322 101.239 128.502 100.98C128.683 100.746 128.915 100.616 129.224 100.616C131.698 100.616 133.966 99.4737 136.054 97.2147C138.141 94.9557 139.791 91.2686 141.028 86.2054C142.265 81.1421 142.883 74.4431 142.883 66.1082C142.883 64.8099 142.6 63.8492 142.033 63.2001C141.466 62.5509 140.332 62.0836 138.657 61.772C137.188 61.5123 136.466 61.0709 136.466 60.4477C136.466 60.1881 136.646 59.9804 137.007 59.8765C137.368 59.7726 137.832 59.7207 138.399 59.7207C138.837 59.7207 139.404 59.7467 140.048 59.7986C140.719 59.8505 141.44 59.8765 142.265 59.9284C143.09 59.9804 143.889 60.0063 144.688 60.0063C145.925 60.0063 147.11 60.0063 148.27 60.0063C149.43 60.0063 150.538 60.0063 151.62 60.0063C152.703 60.0063 153.785 60.0063 154.894 60.0063C156.002 60.0063 157.11 60.0063 158.244 59.9804C159.378 59.9544 160.563 59.9544 161.775 59.9544C162.754 59.9544 163.553 59.9544 164.223 59.9284C164.893 59.9025 165.589 59.8765 166.337 59.8246C167.084 59.7726 168.063 59.7467 169.249 59.7467C169.816 59.7467 170.28 59.7986 170.641 59.9025C171.001 60.0063 171.182 60.214 171.182 60.4737C171.182 60.7853 171.001 61.0449 170.641 61.2786C170.28 61.5123 169.739 61.6681 168.991 61.8239C167.367 62.1355 166.13 62.6288 165.28 63.3039C164.429 63.979 164.017 65.0955 164.017 66.6535V98.5389C164.017 99.0842 164.3 99.4737 164.842 99.7853C165.383 100.071 166.079 100.279 166.929 100.408C167.78 100.538 168.579 100.616 169.378 100.642C170.177 100.668 170.795 100.668 171.233 100.668C171.594 100.668 171.8 100.798 171.852 101.058C171.929 101.317 171.955 101.603 171.955 101.863C171.955 102.408 171.878 103.291 171.697 104.563C171.517 105.835 171.336 107.367 171.13 109.133C170.924 110.924 170.795 112.846 170.692 114.949C170.641 115.494 170.512 115.962 170.254 116.377C170.022 116.793 169.635 117 169.094 117C168.476 117 168.141 116.689 168.063 116.066C167.986 115.442 167.934 114.793 167.909 114.118C167.728 111.392 167.471 109.263 167.11 107.679C166.749 106.095 166.156 104.978 165.331 104.303C164.481 103.628 163.244 103.291 161.62 103.291H138.708C137.085 103.291 135.848 103.628 134.997 104.329C134.147 105.03 133.554 106.147 133.219 107.731C132.858 109.315 132.626 111.444 132.497 114.17C132.446 114.845 132.394 115.494 132.291 116.118C132.188 116.689 131.853 117 131.234 117ZM138.373 100.85H156.388C157.393 100.85 158.038 100.668 158.321 100.305C158.579 99.9411 158.708 99.4218 158.708 98.6947V66.0043C158.708 64.8359 158.553 63.9271 158.27 63.278C157.986 62.6029 157.419 62.2653 156.569 62.2653H147.368C146.672 62.2653 146.157 62.499 145.873 62.9404C145.59 63.3818 145.435 64.1348 145.435 65.1994C145.435 70.4963 145.203 75.0662 144.765 78.9091C144.327 82.752 143.708 86.0236 142.935 88.724C142.162 91.4244 141.286 93.6315 140.28 95.3712C139.275 97.1108 138.244 98.539 137.136 99.6295C136.569 100.201 136.492 100.564 136.93 100.668C137.42 100.798 137.884 100.85 138.373 100.85Z" fill="#6A489C"/>
<path d="M199.583 104.173C196.671 104.173 193.887 103.654 191.233 102.615C188.578 101.577 186.233 100.071 184.223 98.1491C182.187 96.2017 180.589 93.8908 179.377 91.2164C178.192 88.516 177.599 85.53 177.599 82.2324C177.599 79.2204 178.089 76.3123 179.068 73.534C180.048 70.7557 181.465 68.263 183.372 66.0819C185.279 63.9008 187.625 62.1611 190.46 60.8888C193.295 59.5905 196.542 58.9414 200.202 58.9414C203.114 58.9414 205.897 59.4607 208.552 60.4993C211.207 61.5379 213.552 63.0439 215.562 64.9654C217.598 66.9128 219.196 69.2237 220.407 71.8981C221.593 74.5985 222.186 77.5846 222.186 80.8822C222.186 83.8682 221.696 86.7503 220.717 89.5546C219.737 92.3589 218.32 94.8515 216.413 97.0326C214.506 99.2137 212.16 100.953 209.325 102.226C206.49 103.524 203.243 104.173 199.583 104.173ZM200.563 101.499C203.965 101.499 206.799 100.772 209.042 99.3176C211.284 97.8635 212.985 95.8382 214.119 93.2417C215.253 90.6451 215.82 87.6072 215.82 84.1278C215.82 81.0639 215.459 78.1558 214.763 75.4554C214.067 72.755 213.011 70.3402 211.619 68.2889C210.227 66.2117 208.5 64.6019 206.413 63.4594C204.325 62.2909 201.903 61.7197 199.119 61.7197C195.82 61.7197 193.037 62.4208 190.769 63.8489C188.527 65.277 186.826 67.2763 185.666 69.8209C184.506 72.3915 183.939 75.4035 183.939 78.8569C183.939 81.9727 184.274 84.8808 184.97 87.6072C185.666 90.3336 186.697 92.7224 188.089 94.8256C189.48 96.9288 191.207 98.5646 193.295 99.733C195.356 100.927 197.779 101.499 200.563 101.499Z" fill="#6A489C"/>
<path d="M228.655 103.577C228.088 103.577 227.624 103.525 227.263 103.421C226.902 103.317 226.722 103.109 226.722 102.85C226.722 102.304 227.443 101.915 228.912 101.655C230.588 101.344 231.825 100.824 232.598 100.123C233.371 99.4222 233.758 98.2278 233.758 96.592V68.4195C233.758 66.4202 233.5 64.8882 232.984 63.8236C232.469 62.7591 231.387 62.058 229.711 61.7464C228.964 61.6166 228.397 61.4348 228.062 61.2011C227.701 60.9674 227.521 60.7078 227.521 60.3962C227.521 60.1366 227.701 59.9288 228.062 59.825C228.423 59.7211 228.887 59.6692 229.454 59.6692C230.639 59.6692 231.541 59.6692 232.134 59.6692C232.727 59.6692 233.294 59.6692 233.835 59.6951C234.376 59.7211 235.072 59.7211 235.948 59.7211C236.825 59.7211 237.727 59.6951 238.629 59.6173C239.531 59.5394 240.381 59.4874 241.18 59.4095C241.979 59.3316 242.675 59.3057 243.293 59.3057C248.319 59.3057 252.365 60.3443 255.458 62.4475C258.525 64.5507 260.071 67.4588 260.071 71.1978C260.071 73.9242 259.53 76.4169 258.474 78.7018C257.417 80.9868 255.793 82.8303 253.602 84.2065C251.412 85.5826 248.628 86.2837 245.226 86.2837C244.247 86.2837 243.525 86.1279 243.01 85.8423C242.495 85.5567 242.237 85.271 242.237 85.0114C242.237 84.8296 242.366 84.6219 242.598 84.4142C242.83 84.1805 243.061 84.0766 243.293 84.0766C243.525 84.0766 243.86 84.1026 244.324 84.1545C244.788 84.2065 245.458 84.2324 246.335 84.2324C248.989 84.2324 250.974 83.1159 252.34 80.8829C253.68 78.6499 254.35 75.586 254.35 71.6652C254.35 68.1079 253.319 65.4595 251.231 63.7457C249.144 62.032 246.515 61.1752 243.293 61.1752C242.056 61.1752 241.051 61.3829 240.252 61.7983C239.453 62.2138 239.067 62.9408 239.067 63.9794V95.813C239.067 97.4228 239.402 98.6952 240.072 99.6818C240.742 100.669 241.876 101.318 243.525 101.629C244.273 101.759 244.84 101.915 245.175 102.097C245.536 102.278 245.716 102.512 245.716 102.824C245.716 103.083 245.536 103.291 245.175 103.395C244.814 103.499 244.35 103.551 243.783 103.551C242.598 103.551 241.67 103.499 241.025 103.421C240.381 103.343 239.814 103.265 239.299 103.187C238.783 103.109 238.113 103.083 237.288 103.083C236.18 103.083 235.201 103.109 234.35 103.187C233.5 103.265 232.624 103.343 231.773 103.421C230.871 103.525 229.84 103.577 228.655 103.577Z" fill="#6A489C"/>
<path d="M281.772 104.174C278.318 104.174 275.509 103.395 273.319 101.811C271.128 100.227 269.504 98.1497 268.447 95.5272C267.391 92.9047 266.85 90.1004 266.85 87.0106C266.85 83.8168 267.417 80.5711 268.551 77.2735C269.685 73.9759 271.334 70.938 273.55 68.1597C275.767 65.3814 278.473 63.1484 281.669 61.4606C284.865 59.7729 288.55 58.916 292.699 58.916C296.153 58.916 298.962 59.695 301.179 61.2789C303.395 62.8628 305.019 64.94 306.05 67.5625C307.081 70.159 307.596 72.9893 307.596 76.0791C307.596 79.2729 307.029 82.5185 305.895 85.8162C304.761 89.1138 303.112 92.1517 300.895 94.93C298.679 97.7083 295.973 99.9413 292.777 101.629C289.607 103.343 285.921 104.174 281.772 104.174ZM281.978 102.096C284.375 102.096 286.591 101.525 288.627 100.383C290.663 99.2403 292.545 97.7083 294.194 95.7869C295.844 93.8654 297.261 91.6584 298.395 89.1917C299.555 86.7249 300.431 84.1544 301.05 81.454C301.668 78.7536 301.978 76.1311 301.978 73.5345C301.978 71.4313 301.668 69.432 301.024 67.4586C300.38 65.5112 299.375 63.9014 297.983 62.655C296.591 61.4087 294.761 60.7855 292.519 60.7855C290.225 60.7855 288.06 61.3568 286.024 62.5252C283.988 63.6936 282.158 65.2516 280.535 67.199C278.911 69.1464 277.468 71.3794 276.257 73.8461C275.045 76.3128 274.117 78.9094 273.473 81.6098C272.829 84.3361 272.52 86.9586 272.52 89.5552C272.52 91.6584 272.829 93.6577 273.473 95.5532C274.117 97.4746 275.123 99.0325 276.514 100.253C277.906 101.499 279.71 102.096 281.978 102.096Z" fill="#6A489C"/>
<path d="M310.844 103.576C310.277 103.576 309.813 103.524 309.452 103.42C309.091 103.317 308.911 103.109 308.911 102.849C308.911 102.304 309.632 101.915 311.101 101.655C312.777 101.343 314.065 100.824 314.941 100.123C315.818 99.4218 316.256 98.2534 316.256 96.6435V66.6016C316.256 64.9917 315.921 63.8233 315.251 63.0703C314.581 62.3173 313.447 61.8759 311.797 61.7461C311.05 61.6682 310.483 61.4864 310.148 61.2527C309.787 61.019 309.607 60.7334 309.607 60.4218C309.607 60.1622 309.787 59.9545 310.148 59.8506C310.509 59.7467 310.972 59.6948 311.539 59.6948C312.725 59.6948 313.653 59.6948 314.323 59.6948C314.993 59.6948 315.612 59.6948 316.204 59.7208C316.797 59.7467 317.544 59.7467 318.421 59.7467C319.271 59.7467 319.993 59.7208 320.611 59.6429C321.23 59.565 321.926 59.513 322.699 59.4871C323.472 59.4351 324.503 59.4092 325.792 59.4092C330.946 59.4092 334.812 60.1622 337.338 61.6422C339.889 63.1222 341.152 65.6928 341.152 69.3539C341.152 70.8599 340.894 72.1841 340.379 73.3266C339.864 74.4691 339.374 75.274 338.884 75.7674C338.188 76.4684 337.544 77.0137 336.951 77.4032C336.384 77.7927 335.534 78.1821 334.425 78.6495C334.245 78.7015 334.168 78.8053 334.168 78.9611C334.168 79.1169 334.245 79.2467 334.425 79.3246C335.431 79.6362 336.487 80.0257 337.57 80.519C338.652 81.0124 339.657 81.6355 340.611 82.4145C341.564 83.1935 342.338 84.2061 342.93 85.4784C343.523 86.7507 343.832 88.3606 343.832 90.308C343.832 92.7487 343.446 94.6961 342.673 96.1242C341.9 97.5523 340.972 98.6429 339.915 99.3959C338.858 100.149 337.853 100.772 336.925 101.265C335.56 101.966 333.962 102.538 332.158 102.927C330.353 103.317 328.189 103.524 325.663 103.524C325.096 103.524 324.22 103.472 323.086 103.395C321.926 103.317 320.689 103.265 319.374 103.265C318.215 103.265 317.261 103.291 316.462 103.343C315.663 103.395 314.838 103.446 313.988 103.498C313.215 103.55 312.132 103.576 310.844 103.576ZM324.503 78.4937C325.689 78.4937 326.977 78.3639 328.369 78.1042C329.761 77.8446 331.152 77.3253 332.518 76.5723C333.008 76.3126 333.627 75.6635 334.374 74.6249C335.121 73.6122 335.508 72.1322 335.508 70.2108C335.508 68.9125 335.276 67.5883 334.786 66.2381C334.297 64.8879 333.369 63.7454 332.003 62.8106C330.637 61.8759 328.575 61.4085 325.843 61.4085C324.039 61.4085 322.854 61.6422 322.312 62.1355C321.771 62.6289 321.488 63.3819 321.488 64.3945V76.0011C321.488 77.1695 321.874 77.8706 322.622 78.1042C323.318 78.3639 323.962 78.4937 324.503 78.4937ZM326.694 100.772C328.627 100.772 330.457 100.331 332.132 99.4478C333.807 98.565 335.147 97.3446 336.178 95.8126C337.183 94.2807 337.699 92.567 337.699 90.6455C337.699 88.9059 337.415 87.4778 336.848 86.3353C336.281 85.1928 335.611 84.284 334.864 83.557C334.116 82.8559 333.42 82.3366 332.802 82.025C332.235 81.6615 331.333 81.298 330.096 80.9345C328.859 80.545 327.235 80.3632 325.25 80.3632C323.833 80.3632 322.854 80.6489 322.312 81.2201C321.771 81.7913 321.488 82.3106 321.488 82.7521V96.0204C321.488 97.8899 321.952 99.1362 322.854 99.7853C323.704 100.46 324.993 100.772 326.694 100.772Z" fill="#6A489C"/>
<path d="M349.734 103.576C349.167 103.576 348.703 103.524 348.342 103.421C347.982 103.317 347.801 103.109 347.801 102.849C347.801 102.304 348.523 101.915 349.992 101.655C351.667 101.343 352.956 100.824 353.832 100.123C354.708 99.422 355.146 98.2275 355.146 96.5917V66.6017C355.146 64.9918 354.811 63.8753 354.141 63.2002C353.471 62.5251 352.311 62.0318 350.636 61.7202C349.167 61.4606 348.446 61.0191 348.446 60.396C348.446 60.1363 348.626 59.9286 348.987 59.8247C349.348 59.7209 349.812 59.6689 350.379 59.6689C351.564 59.6689 352.543 59.6949 353.317 59.7468C354.09 59.7988 354.837 59.8247 355.533 59.8507C356.229 59.8767 357.105 59.8767 358.11 59.8767C359.09 59.8767 359.889 59.8767 360.507 59.8507C361.126 59.8247 361.796 59.7988 362.492 59.7468C363.188 59.6949 364.141 59.6689 365.352 59.6689C365.919 59.6689 366.383 59.7209 366.744 59.8247C367.105 59.9286 367.285 60.1363 367.285 60.396C367.285 60.7076 367.105 60.9672 366.744 61.2009C366.383 61.4346 365.842 61.5904 365.095 61.7462C363.471 62.0578 362.26 62.5511 361.487 63.2262C360.713 63.9013 360.327 65.0178 360.327 66.5757V77.7149C360.327 78.7275 360.688 79.2469 361.383 79.2469C361.461 79.2469 361.564 79.2468 361.641 79.2209C361.718 79.1949 361.822 79.169 361.899 79.117C362.466 78.9353 363.368 78.7275 364.605 78.4419C365.842 78.1823 367.157 78.0524 368.522 78.0524C372.543 78.0524 375.765 79.143 378.187 81.2981C380.61 83.4532 381.821 86.4652 381.821 90.3341C381.821 92.7748 381.435 94.7222 380.661 96.1503C379.888 97.5784 378.986 98.669 377.955 99.422C376.924 100.175 375.997 100.798 375.198 101.291C373.883 102.096 372.337 102.668 370.559 103.031C368.78 103.395 366.796 103.576 364.605 103.576C364.218 103.576 363.677 103.55 363.059 103.499C362.414 103.447 361.693 103.421 360.868 103.369C360.043 103.317 359.193 103.291 358.317 103.291C357.157 103.291 356.203 103.317 355.404 103.369C354.605 103.421 353.781 103.473 352.93 103.524C352.08 103.55 351.023 103.576 349.734 103.576ZM365.559 101.447C367.337 101.447 368.986 101.188 370.559 100.668C372.131 100.149 373.419 99.1623 374.399 97.6563C375.404 96.1763 375.893 93.9433 375.893 90.9572C375.893 89.3214 375.636 87.8674 375.094 86.647C374.553 85.4266 373.935 84.414 373.213 83.635C372.491 82.856 371.821 82.3108 371.254 81.9992C370.687 81.6357 369.966 81.2981 369.089 80.9346C368.239 80.5711 366.95 80.3893 365.275 80.3893C364.708 80.3893 363.961 80.4672 363.059 80.597C362.157 80.7269 361.512 80.8827 361.177 81.0644C360.868 81.1943 360.636 81.4279 360.507 81.7395C360.378 82.0511 360.301 82.3887 360.301 82.7522V96.358C360.301 96.9293 360.378 97.5525 360.507 98.2016C360.636 98.8507 360.894 99.37 361.306 99.7595C361.667 100.123 362.234 100.487 363.059 100.85C363.883 101.24 364.734 101.447 365.559 101.447Z" fill="#6A489C"/>
<path d="M383.651 103.576C383.11 103.576 382.723 103.524 382.466 103.42C382.208 103.316 382.079 103.108 382.079 102.849C382.079 102.304 382.878 101.914 384.476 101.654C386.692 101.291 388.265 100.746 389.218 100.019C390.172 99.2915 390.868 98.1491 391.306 96.6431L400.378 66.6011C400.996 64.6797 401.022 63.4334 400.455 62.8362C399.888 62.2389 398.625 61.7975 396.692 61.5379C396.022 61.46 395.584 61.3042 395.326 61.1484C395.094 60.9666 394.965 60.733 394.965 60.4214C394.965 60.1617 395.172 59.954 395.584 59.8501C395.996 59.7463 396.486 59.6943 397.001 59.6943C397.362 59.6943 397.981 59.7203 398.883 59.7722C399.785 59.8242 400.816 59.8501 401.924 59.8761C403.058 59.9021 404.089 59.9021 405.017 59.9021H415.687C418.109 59.9021 419.965 59.8501 421.228 59.7463C422.49 59.6424 423.367 59.5126 423.882 59.4087C424.398 59.3049 424.681 59.2529 424.784 59.2529C424.965 59.2529 425.119 59.3568 425.274 59.5645C425.429 59.7722 425.506 59.954 425.506 60.1358C425.506 60.3954 425.377 60.8888 425.119 61.5639C424.862 62.2649 424.578 63.1218 424.269 64.1344C423.959 65.1471 423.728 66.3155 423.547 67.6138C423.496 68.0552 423.367 68.3927 423.109 68.5745C422.877 68.7822 422.645 68.8861 422.413 68.8861C422.181 68.8861 422.001 68.7303 421.846 68.4187C421.692 68.1071 421.64 67.7176 421.692 67.2243C421.82 65.173 421.64 63.7709 421.15 62.9919C420.661 62.213 419.527 61.8235 417.774 61.8235H409.682C408.625 61.8235 407.877 61.9793 407.439 62.2649C407.001 62.5505 406.666 63.0698 406.434 63.8228L402.001 77.974C401.744 78.7789 401.666 79.3242 401.795 79.6358C401.924 79.9473 402.336 80.0772 403.058 80.0252L411.279 79.8175C412.439 79.7656 413.341 79.5059 414.037 79.0385C414.733 78.5712 415.326 77.9999 415.867 77.3248C416.176 76.9613 416.511 76.5459 416.898 76.0266C417.284 75.5073 417.671 75.2476 418.058 75.2476C418.418 75.2476 418.599 75.4294 418.625 75.8188C418.65 76.2083 418.547 76.6238 418.315 77.1171C417.929 77.8701 417.568 78.5971 417.284 79.2463C417.001 79.9214 416.743 80.5705 416.511 81.1937C416.254 81.8947 416.022 82.6477 415.815 83.4267C415.609 84.2057 415.403 85.0885 415.197 86.0752C415.145 86.3867 415.042 86.6983 414.888 87.0099C414.733 87.3215 414.553 87.4773 414.321 87.4773C413.96 87.4773 413.728 87.2436 413.625 86.7503C413.522 86.2569 413.47 85.8934 413.47 85.6857C413.47 84.3095 413.238 83.3488 412.774 82.7776C412.31 82.2323 411.692 81.9467 410.944 81.9467L403.316 81.8168C402.568 81.8168 401.924 81.9207 401.357 82.1284C400.816 82.3361 400.403 82.9074 400.12 83.8941L396.744 96.0459C396.125 98.3049 395.996 99.8108 396.383 100.512C396.769 101.213 397.62 101.576 399.012 101.576H409.269C410.377 101.576 411.357 101.395 412.207 101.031C413.058 100.668 413.857 100.252 414.553 99.7589C415.223 99.2656 415.841 98.6684 416.408 97.9933C416.975 97.2922 417.568 96.4873 418.135 95.5525C418.315 95.2929 418.496 95.0073 418.676 94.7476C418.857 94.4879 419.063 94.3581 419.346 94.3581C419.578 94.3581 419.707 94.5139 419.733 94.8255C419.784 95.1371 419.81 95.4227 419.81 95.6824C419.81 96.0718 419.655 96.695 419.346 97.5519C419.037 98.4087 418.676 99.2656 418.29 100.122C417.903 100.979 417.542 101.68 417.233 102.226C416.975 102.667 416.666 103.005 416.331 103.264C415.996 103.498 415.558 103.628 415.042 103.628C413.238 103.628 411.46 103.628 409.707 103.602C407.955 103.576 406.28 103.55 404.63 103.498C403.006 103.446 401.434 103.42 399.939 103.368C398.445 103.316 397.001 103.29 395.61 103.264C394.218 103.238 392.904 103.238 391.666 103.238C390.61 103.238 389.682 103.264 388.883 103.342C388.084 103.42 387.311 103.472 386.538 103.55C385.687 103.55 384.759 103.576 383.651 103.576Z" fill="#6A489C"/>
<path d="M58.4268 47.7244C57.8856 47.7244 57.499 47.6725 57.2671 47.5686C57.0351 47.4648 56.9062 47.257 56.9062 46.9974C56.9062 46.6858 57.0867 46.4521 57.4732 46.2963C57.8598 46.1405 58.4011 45.9588 59.1742 45.7251C60.5917 45.3356 61.6226 44.9461 62.3185 44.5826C63.0144 44.2191 63.504 43.57 63.8133 42.5833L73.6842 10.6199C74.1739 9.06199 74.3543 7.97144 74.2254 7.32231C74.0966 6.67317 73.2976 6.2058 71.8286 5.89421C71.1585 5.76438 70.7461 5.58263 70.54 5.34894C70.3338 5.11525 70.2307 4.8556 70.2307 4.54401C70.2307 4.28436 70.4369 4.07663 70.8234 3.97277C71.21 3.86891 71.6739 3.81698 72.2152 3.81698C73.3234 3.81698 74.1739 3.84295 74.7924 3.89488C75.411 3.94681 75.978 3.97277 76.5192 3.99874C77.0604 4.0247 77.7047 4.0247 78.5037 4.0247C79.3542 4.0247 80.05 4.0247 80.5913 3.99874C81.1325 3.97277 81.751 3.94681 82.4211 3.89488C83.0912 3.84295 83.9675 3.81698 85.0757 3.81698C86.1324 3.81698 86.6736 4.05067 86.6736 4.54401C86.6736 4.8556 86.4416 5.11525 86.0035 5.34894C85.5654 5.58263 84.9726 5.73842 84.2252 5.89421C83.1685 6.07597 82.2665 6.36159 81.5191 6.803C80.7717 7.21844 80.1531 7.73775 79.6892 8.36092C79.2253 8.98409 78.8645 9.73709 78.6068 10.6199L74.5605 23.7584C74.4832 24.1479 74.6893 24.3556 75.2306 24.3556H97.4208C97.6785 24.3556 97.9104 24.0959 98.0908 23.5507L102.137 10.542C102.498 9.3476 102.498 8.33496 102.163 7.53003C101.828 6.7251 100.926 6.17983 99.4826 5.86825C98.8125 5.73842 98.4001 5.55666 98.1939 5.32297C97.9878 5.08928 97.8847 4.82963 97.8847 4.51805C97.8847 4.25839 98.0908 4.05067 98.4774 3.94681C98.864 3.84295 99.3279 3.79102 99.8692 3.79102C100.977 3.79102 101.879 3.81698 102.575 3.86891C103.271 3.92084 103.967 3.94681 104.586 3.97277C105.23 3.99874 106.003 3.99874 106.931 3.99874C107.678 3.99874 108.245 3.99874 108.658 3.97277C109.044 3.94681 109.534 3.92084 110.075 3.86891C110.616 3.81698 111.467 3.79102 112.549 3.79102C113.09 3.79102 113.477 3.84295 113.735 3.94681C113.993 4.05067 114.121 4.25839 114.121 4.51805C114.121 5.14121 113.297 5.58263 111.673 5.84228C110.049 6.15386 108.967 6.69914 108.426 7.45213C107.884 8.20513 107.421 9.24374 107.034 10.516L97.4208 41.9341C97.1115 42.9987 97.1115 43.8556 97.395 44.4788C97.6785 45.1019 98.4517 45.5174 99.6887 45.7511C100.359 45.8809 100.797 46.0367 101.003 46.2184C101.235 46.4002 101.338 46.6339 101.338 46.9455C101.338 47.2051 101.132 47.4128 100.745 47.5167C100.359 47.6206 99.8949 47.6725 99.3537 47.6725C98.2455 47.6725 97.395 47.6465 96.8022 47.5686C96.2094 47.4907 95.6425 47.4388 95.1012 47.4128C94.56 47.3609 93.8899 47.3349 93.0394 47.3349C92.1889 47.3349 91.4931 47.3609 90.8745 47.4128C90.2818 47.4648 89.6374 47.5167 88.9931 47.5686C88.323 47.6465 87.4468 47.6725 86.3385 47.6725C85.2819 47.6725 84.7406 47.4388 84.7406 46.9455C84.7406 46.6339 84.9468 46.4002 85.3592 46.2184C85.7716 46.0367 86.3643 45.8809 87.1117 45.7511C88.5292 45.5174 89.7148 45.024 90.6941 44.2191C91.6735 43.4142 92.3693 42.2977 92.8075 40.8696L96.9053 27.8609C96.9826 27.6272 97.0599 27.4195 97.1373 27.1858C97.2146 26.9521 97.1373 26.8483 96.9053 26.8483H74.045C73.8131 26.8483 73.6584 27.082 73.5038 27.5753L69.5864 40.3762C69.0194 42.2977 69.0451 43.5959 69.6895 44.271C70.3338 44.9721 71.3389 45.4395 72.7048 45.6991C73.3749 45.8289 73.8131 45.9847 74.0193 46.1665C74.2512 46.3483 74.3543 46.5819 74.3543 46.8935C74.3543 47.1532 74.1481 47.3609 73.7615 47.4648C73.3749 47.5686 72.911 47.6206 72.3698 47.6206C71.2616 47.6206 70.3595 47.5946 69.6637 47.5167C68.9678 47.4388 68.272 47.3869 67.6019 47.3609C66.9318 47.309 66.1328 47.283 65.205 47.283C64.3288 47.283 63.5814 47.309 62.9628 47.3609C62.3443 47.4128 61.7 47.4648 61.0041 47.5167C60.4371 47.6985 59.5351 47.7244 58.4268 47.7244Z" fill="#6A489C"/>
<path d="M122.085 48.3996C119.663 48.3996 117.549 47.8024 115.719 46.608C113.915 45.4136 112.498 43.6998 111.493 41.4928C110.488 39.2857 109.972 36.7411 109.972 33.859C109.972 31.2884 110.565 28.9255 111.725 26.8223C112.884 24.7192 114.457 23.0054 116.39 21.7072C118.322 20.4089 120.462 19.7598 122.755 19.7598C124.534 19.7598 126.08 20.1233 127.446 20.8243C128.812 21.5254 129.894 22.5381 130.668 23.7844C131.441 25.0567 131.827 26.5108 131.827 28.1466C131.827 29.5227 131.157 30.2238 129.843 30.2238H115.874C115.256 30.2238 114.817 30.3796 114.585 30.7172C114.354 31.0547 114.225 31.7038 114.225 32.6905C114.225 34.8197 114.689 36.7671 115.616 38.5327C116.544 40.2984 117.781 41.7005 119.328 42.7391C120.874 43.7777 122.575 44.297 124.431 44.297C125.745 44.297 126.956 44.0374 128.039 43.5181C129.121 42.9988 130.075 42.2717 130.925 41.2851C131.106 41.0514 131.235 40.9215 131.312 40.8436C131.389 40.7658 131.518 40.7398 131.647 40.7398C132.008 40.7398 132.188 40.9735 132.188 41.4149C132.188 42.2717 131.802 43.2065 131.003 44.2191C130.333 45.076 129.534 45.803 128.606 46.4262C127.678 47.0494 126.673 47.5167 125.565 47.8543C124.431 48.2178 123.271 48.3996 122.085 48.3996ZM116.003 28.1725H122.034C123.09 28.1725 123.992 28.1466 124.74 28.0946C125.487 28.0427 126.209 27.9648 126.931 27.835C127.163 27.7831 127.291 27.6532 127.369 27.3936C127.446 27.1599 127.472 26.7964 127.472 26.355C127.472 25.0567 126.905 23.9662 125.771 23.0574C124.637 22.1486 123.297 21.6812 121.776 21.6812C120.771 21.6812 119.74 21.9928 118.735 22.59C117.73 23.1872 116.879 23.9402 116.209 24.823C115.539 25.7058 115.204 26.6146 115.204 27.4974C115.204 27.9389 115.462 28.1725 116.003 28.1725Z" fill="#6A489C"/>
<path d="M164.867 48.5294C163.63 48.5294 162.471 48.2697 161.362 47.7504C160.254 47.2311 159.713 46.582 159.713 45.7771C159.713 45.0241 159.945 44.3749 160.383 43.8037C160.821 43.2584 161.259 42.9728 161.697 42.9728C162.058 42.9728 162.419 43.1546 162.78 43.5181C163.166 43.8816 163.527 44.2451 163.862 44.6606C164.249 45.102 164.713 45.5174 165.177 45.855C165.666 46.2185 166.285 46.4002 167.032 46.4002C168.527 46.4002 169.919 45.829 171.207 44.6865C172.496 43.544 173.604 42.064 174.584 40.2464C175.563 38.4289 176.285 36.4555 176.774 34.3783C176.465 34.6899 176.156 34.9755 175.821 35.2092C175.486 35.4429 175.176 35.6506 174.893 35.7804C174.609 35.9102 174.352 35.9881 174.12 35.9881C173.553 35.9881 173.089 35.9102 172.728 35.7804C172.367 35.6506 172.032 35.4948 171.671 35.313C171.362 35.1313 171.053 35.0014 170.718 34.8716C170.383 34.7678 169.97 34.7158 169.481 34.7158C169.171 34.7158 168.862 34.7678 168.553 34.8716C168.244 34.9755 167.96 35.0793 167.702 35.1832C167.393 35.365 167.11 35.5207 166.878 35.6765C166.646 35.8323 166.414 35.9102 166.182 35.9102C166.001 35.9102 165.821 35.8843 165.641 35.8064C165.46 35.7285 165.383 35.5727 165.383 35.313C165.383 35.0014 165.692 34.56 166.285 33.9888C166.878 33.4176 167.574 32.8723 168.347 32.353C169.12 31.8337 169.738 31.574 170.228 31.574C170.615 31.574 171.001 31.6519 171.388 31.7817C171.774 31.9116 172.135 32.0933 172.47 32.327C172.857 32.5088 173.269 32.6646 173.707 32.8203C174.12 32.9761 174.584 33.054 175.073 33.054C175.692 33.054 176.156 33.0281 176.465 32.9502C176.774 32.8723 177.006 32.7944 177.187 32.7165C177.316 31.9635 177.419 31.2105 177.496 30.4575C177.573 29.7045 177.599 28.9775 177.599 28.2504C177.599 26.4329 177.161 25.0827 176.31 24.1739C175.46 23.2911 174.403 22.8237 173.166 22.7717C172.161 22.7198 171.079 22.9795 169.945 23.5507C168.811 24.096 167.805 24.9528 166.929 26.0434C166.491 26.6146 166.079 26.9002 165.666 26.9002C165.254 26.9002 165.074 26.6666 165.074 26.1732C165.074 25.9915 165.306 25.576 165.795 24.9009C166.285 24.2258 166.955 23.4988 167.857 22.6939C168.733 21.8889 169.816 21.2138 171.104 20.6166C172.393 20.0454 173.81 19.7598 175.408 19.7598C176.723 19.7598 177.908 20.0973 178.939 20.7984C179.97 21.4994 180.795 22.4082 181.362 23.5767C181.929 24.7451 182.212 25.9915 182.212 27.3157C182.212 29.9901 181.826 32.5867 181.027 35.1313C180.228 37.6759 179.094 39.9349 177.573 41.9602C176.078 43.9855 174.249 45.5953 172.109 46.7638C169.996 47.9322 167.574 48.5294 164.867 48.5294Z" fill="#6A489C"/>
<path d="M189.506 48.399C189.274 48.399 189.042 48.2951 188.784 48.0614C188.527 47.8278 188.295 47.5681 188.089 47.2565C187.882 46.9449 187.779 46.6593 187.779 46.3997C187.779 45.9063 187.779 45.5947 187.779 45.4389C187.779 45.2832 187.831 45.1014 187.908 44.8677C187.985 44.634 188.14 44.2445 188.372 43.6733C189.119 41.674 189.841 39.7006 190.537 37.7272C191.233 35.7798 191.851 33.8584 192.47 31.9889C193.063 30.1194 193.578 28.3278 194.016 26.5881C194.274 25.6014 194.454 24.8744 194.557 24.381C194.635 23.8877 194.48 23.654 194.016 23.654C193.346 23.654 192.65 23.8098 191.929 24.1214C191.207 24.433 190.305 25.2898 189.248 26.7179C189.068 26.8997 188.862 26.9516 188.578 26.9256C188.321 26.8737 188.192 26.6919 188.192 26.3804C188.192 26.1207 188.243 25.7572 188.346 25.3417C188.449 24.9263 188.604 24.4849 188.81 24.0694C189.016 23.654 189.197 23.3164 189.377 23.1087C190.125 22.174 190.975 21.395 191.903 20.7459C192.831 20.0967 194.042 19.7852 195.537 19.7852C196.336 19.7852 197.006 19.9409 197.521 20.2785C198.063 20.616 198.398 21.1094 198.578 21.7845C198.758 22.4596 198.681 23.2645 198.372 24.1993L195.511 32.664C195.331 33.1573 195.356 33.365 195.537 33.3391C195.743 33.2871 195.923 33.1573 196.104 32.9496C197.289 31.3397 198.63 29.7818 200.099 28.2239C201.568 26.666 203.062 25.2639 204.557 23.9915C206.052 22.7192 207.444 21.7066 208.732 20.9536C210.021 20.2006 211.052 19.8111 211.851 19.8111C213.32 19.8111 214.299 20.2525 214.789 21.1094C215.304 21.9662 215.536 22.7452 215.485 23.4203C215.485 24.0954 215.253 24.433 214.763 24.433C214.531 24.433 214.248 24.407 213.913 24.3291C213.552 24.2512 213.191 24.1993 212.779 24.1733C212.418 24.1214 212.083 24.0954 211.722 24.0435C211.361 23.9915 211.026 23.9656 210.665 23.9656C209.738 23.9656 208.732 24.2512 207.65 24.8224C206.568 25.3937 205.485 26.1207 204.428 27.0035C203.372 27.8604 202.418 28.7172 201.568 29.5741C200.717 30.431 200.099 31.1061 199.635 31.6513C199.454 31.8331 199.351 31.9629 199.325 32.0927C199.3 32.1966 199.325 32.3005 199.429 32.4043C200.614 33.7286 201.593 35.3384 202.315 37.182C203.037 39.0255 203.707 40.869 204.325 42.6866C204.506 43.128 204.763 43.5175 205.098 43.8291C205.434 44.1407 205.82 44.2965 206.258 44.2965C206.825 44.2965 207.392 44.1407 207.959 43.8031C208.5 43.4656 209.093 42.9982 209.686 42.401C210.279 41.8038 210.872 41.1547 211.439 40.4276C211.696 40.0641 211.902 39.8045 212.006 39.5967C212.109 39.389 212.263 39.2852 212.444 39.2852C212.573 39.2852 212.701 39.363 212.804 39.4929C212.908 39.6227 212.959 39.8824 212.959 40.2199C212.959 40.921 212.598 41.7519 211.902 42.6607C211.207 43.5694 210.356 44.4782 209.351 45.361C208.346 46.2439 207.366 46.9969 206.413 47.5681C205.434 48.1393 204.686 48.425 204.171 48.425C203.475 48.425 202.856 48.1913 202.392 47.6979C201.903 47.2046 201.439 46.3737 201.001 45.2312L198.475 38.3504C198.088 37.2339 197.702 36.5069 197.392 36.1433C197.057 35.7798 196.594 35.5981 195.975 35.5981C195.717 35.5981 195.434 35.7539 195.176 36.0914C194.918 36.429 194.686 36.7665 194.506 37.13C193.63 39.1294 192.96 40.8431 192.547 42.2712C192.135 43.6993 191.671 45.0754 191.181 46.3997C190.924 47.1007 190.666 47.646 190.408 47.9576C190.228 48.2172 189.918 48.399 189.506 48.399Z" fill="#6A489C"/>
<path d="M230.717 48.3213C228.242 48.3213 226.026 47.7501 224.016 46.5816C222.005 45.4132 220.459 43.8293 219.274 41.804C218.114 39.7787 217.521 37.4678 217.521 34.8972C217.521 33.0277 217.882 31.2101 218.603 29.4185C219.325 27.6269 220.356 26.017 221.696 24.537C223.011 23.057 224.557 21.8885 226.335 21.0317C228.114 20.1748 229.995 19.7334 232.031 19.7334C234.582 19.7334 236.902 20.3566 238.964 21.6029C241.026 22.8492 242.649 24.4851 243.861 26.5104C245.072 28.5357 245.69 30.7427 245.69 33.1575C245.69 35.7281 245.123 38.1948 243.989 40.5057C242.855 42.8166 241.206 44.7121 238.99 46.1402C236.773 47.5943 234.015 48.3213 230.717 48.3213ZM232.108 46.322C233.603 46.322 234.969 46.0363 236.155 45.4651C237.34 44.8939 238.268 43.9591 238.938 42.6608C239.479 41.6482 239.814 40.4018 239.995 38.9218C240.175 37.4418 240.252 36.0656 240.252 34.7933C240.252 32.6642 239.866 30.6129 239.093 28.6136C238.32 26.6402 237.237 25.0044 235.845 23.7321C234.454 22.4598 232.804 21.8366 230.923 21.8366C229.737 21.8366 228.655 22.0184 227.701 22.4078C226.748 22.7973 225.871 23.4984 225.072 24.511C224.196 25.6275 223.603 26.9777 223.346 28.5876C223.088 30.1974 222.959 31.7813 222.959 33.3912C222.959 35.5723 223.346 37.6495 224.145 39.6229C224.944 41.5963 226.026 43.2061 227.392 44.4524C228.758 45.6988 230.33 46.322 232.108 46.322Z" fill="#6A489C"/>
<path d="M251.103 47.5948C250.845 47.5948 250.51 47.5688 250.149 47.5169C249.762 47.4649 249.582 47.2832 249.582 46.9716C249.582 46.6081 249.737 46.3484 250.072 46.1926C250.407 46.0368 250.742 45.881 251.103 45.7512C251.773 45.5175 252.391 45.2838 252.984 44.9722C253.577 44.6866 253.886 44.0635 253.886 43.1287V24.901C253.886 24.0182 253.628 23.395 253.113 23.0575C252.597 22.7199 252.03 22.4603 251.36 22.2785C251 22.1487 250.664 21.9929 250.329 21.8111C249.994 21.6294 249.84 21.3957 249.84 21.0841C249.84 20.7725 250.02 20.5908 250.407 20.5388C250.793 20.4869 251.103 20.4609 251.36 20.4609C252.237 20.4609 252.907 20.4869 253.319 20.5388C253.731 20.5908 254.144 20.6427 254.556 20.6946C254.943 20.7725 255.536 20.7985 256.283 20.7985C257.082 20.7985 257.649 20.7725 258.01 20.6946C258.37 20.6167 258.757 20.5648 259.169 20.5388C259.582 20.4869 260.226 20.4609 261.051 20.4609C261.309 20.4609 261.644 20.4869 262.004 20.5388C262.391 20.5908 262.571 20.7725 262.571 21.0841C262.571 21.3957 262.417 21.6294 262.082 21.8111C261.747 21.9929 261.412 22.1487 261.051 22.2785C260.381 22.4603 259.814 22.7199 259.298 23.0575C258.783 23.395 258.525 23.9922 258.525 24.901V31.9117C258.525 32.0934 258.602 32.1973 258.783 32.2492C258.963 32.3011 259.092 32.3271 259.169 32.3271H271.489C271.566 32.3271 271.643 32.2752 271.721 32.1973C271.798 32.1194 271.824 31.9636 271.824 31.8078V24.901C271.824 24.0182 271.592 23.395 271.154 23.0575C270.716 22.7199 270.149 22.4603 269.504 22.2785C269.143 22.1487 268.808 21.9929 268.473 21.8111C268.138 21.6294 267.984 21.3957 267.984 21.0841C267.984 20.7725 268.164 20.5908 268.525 20.5388C268.886 20.4869 269.221 20.4609 269.53 20.4609C270.406 20.4609 271.051 20.4869 271.463 20.5388C271.85 20.5908 272.236 20.6427 272.623 20.6946C273.009 20.7725 273.551 20.7985 274.324 20.7985C275.123 20.7985 275.715 20.7725 276.076 20.6946C276.463 20.6167 276.849 20.5648 277.313 20.5388C277.751 20.4869 278.396 20.4609 279.246 20.4609C279.556 20.4609 279.891 20.4869 280.251 20.5388C280.612 20.5908 280.793 20.7725 280.793 21.0841C280.793 21.3957 280.638 21.6294 280.303 21.8111C279.968 21.9929 279.633 22.1487 279.272 22.2785C278.602 22.4603 277.983 22.7199 277.416 23.0575C276.849 23.395 276.566 23.9922 276.566 24.901V43.1806C276.566 44.0635 276.875 44.6607 277.52 44.9722C278.164 45.2838 278.808 45.5435 279.478 45.7772C279.839 45.907 280.174 46.0628 280.509 46.2186C280.844 46.3744 280.999 46.634 280.999 46.9975C280.999 47.3091 280.818 47.4909 280.432 47.5428C280.045 47.5948 279.736 47.6207 279.478 47.6207C278.628 47.6207 277.983 47.5948 277.494 47.5169C277.004 47.439 276.566 47.387 276.128 47.3611C275.715 47.3091 275.097 47.2832 274.298 47.2832C273.551 47.2832 272.958 47.3091 272.52 47.3611C272.082 47.413 271.618 47.4649 271.154 47.5169C270.69 47.5688 270.02 47.6207 269.143 47.6207C268.886 47.6207 268.551 47.5948 268.19 47.5428C267.803 47.4909 267.623 47.3091 267.623 46.9975C267.623 46.634 267.777 46.3744 268.113 46.2186C268.448 46.0628 268.783 45.907 269.143 45.7772C269.814 45.5435 270.432 45.2838 271.025 44.9722C271.618 44.6607 271.927 44.0635 271.927 43.1806V34.8458C271.927 34.664 271.901 34.5601 271.85 34.5342C271.798 34.5082 271.746 34.5082 271.643 34.5082H258.783C258.706 34.5082 258.628 34.5342 258.628 34.6121C258.602 34.69 258.602 34.7938 258.602 34.9756V43.1806C258.602 44.1154 258.912 44.7386 259.556 45.0242C260.2 45.3098 260.845 45.5695 261.515 45.8031C261.876 45.933 262.211 46.0888 262.546 46.2446C262.881 46.4003 263.035 46.66 263.035 47.0235C263.035 47.3351 262.855 47.5169 262.468 47.5688C262.082 47.6207 261.772 47.6467 261.515 47.6467C260.664 47.6467 260.02 47.6207 259.53 47.5428C259.041 47.4649 258.602 47.413 258.164 47.387C257.752 47.3351 257.133 47.3091 256.334 47.3091C255.587 47.3091 254.994 47.3351 254.556 47.387C254.118 47.439 253.654 47.4909 253.19 47.5428C252.675 47.5688 252.005 47.5948 251.103 47.5948Z" fill="#6A489C"/>
<path d="M298.009 48.3213C295.534 48.3213 293.318 47.7501 291.308 46.5816C289.297 45.4132 287.751 43.8293 286.566 41.804C285.406 39.7787 284.813 37.4678 284.813 34.8972C284.813 33.0277 285.174 31.2101 285.895 29.4185C286.617 27.6269 287.648 26.017 288.988 24.537C290.303 23.057 291.849 21.8885 293.627 21.0317C295.406 20.1748 297.287 19.7334 299.323 19.7334C301.874 19.7334 304.194 20.3566 306.256 21.6029C308.318 22.8492 309.941 24.4851 311.153 26.5104C312.364 28.5357 312.982 30.7427 312.982 33.1575C312.982 35.7281 312.415 38.1948 311.281 40.5057C310.147 42.8166 308.498 44.7121 306.282 46.1402C304.091 47.5943 301.307 48.3213 298.009 48.3213ZM299.4 46.322C300.895 46.322 302.261 46.0363 303.447 45.4651C304.632 44.8939 305.56 43.9591 306.23 42.6608C306.771 41.6482 307.106 40.4018 307.287 38.9218C307.467 37.4418 307.544 36.0656 307.544 34.7933C307.544 32.6642 307.158 30.6129 306.385 28.6136C305.611 26.6402 304.529 25.0044 303.137 23.7321C301.746 22.4598 300.096 21.8366 298.215 21.8366C297.029 21.8366 295.947 22.0184 294.993 22.4078C294.04 22.7973 293.163 23.4984 292.364 24.511C291.488 25.6275 290.895 26.9777 290.638 28.5876C290.38 30.1974 290.251 31.7813 290.251 33.3912C290.251 35.5723 290.638 37.6495 291.437 39.6229C292.236 41.5963 293.318 43.2061 294.684 44.4524C296.076 45.6988 297.622 46.322 299.4 46.322Z" fill="#6A489C"/>
<path d="M315.354 48.322C315.044 48.322 314.684 48.1403 314.271 47.7768C313.859 47.4132 313.472 46.9978 313.112 46.5044C312.751 46.0111 312.57 45.5957 312.57 45.2321C312.57 44.7388 312.648 44.3234 312.776 43.9858C312.905 43.6483 313.163 43.4925 313.575 43.4925C316.05 43.4925 317.879 43.2068 319.039 42.6616C320.199 42.1163 321.075 41.1556 321.668 39.8313C322.596 37.7022 323.498 35.1835 324.374 32.3014C325.25 29.4192 326.049 26.6929 326.771 24.1483C327.132 23.3953 327.467 22.7461 327.776 22.1749C328.085 21.6296 328.395 21.1622 328.704 20.7987C329.013 20.4352 329.348 20.1756 329.735 19.9678C330.121 19.7601 330.56 19.6562 331.101 19.6562C331.359 19.6562 331.487 19.9678 331.487 20.565C331.487 21.1622 331.513 21.8114 331.565 22.5384L333.627 39.4159C333.678 39.5977 333.755 39.7015 333.884 39.7275C334.013 39.7535 334.116 39.7015 334.219 39.5717L343.085 27.0304C344.374 25.2128 345.533 23.7588 346.642 22.6942C347.724 21.6296 348.703 20.8507 349.58 20.3833C350.456 19.9159 351.229 19.6822 351.899 19.6822C352.209 19.6822 352.441 19.7341 352.621 19.838C352.801 19.9419 352.904 20.0977 352.93 20.3054C352.956 20.5131 352.879 20.7208 352.698 20.9286C352.466 21.2401 352.209 21.6815 351.874 22.2528C351.538 22.824 351.255 23.5251 350.971 24.33L345.611 41.0777C345.302 41.9605 345.147 42.6356 345.173 43.0511C345.198 43.4665 345.405 43.6742 345.791 43.6742C346.332 43.6742 346.951 43.4925 347.673 43.129C348.394 42.7654 349.142 42.35 349.863 41.8307C350.585 41.3114 351.229 40.844 351.796 40.4026C352.337 39.9612 352.724 39.6496 352.879 39.4678C352.93 39.4159 352.982 39.3899 353.085 39.3899C353.214 39.3899 353.343 39.4419 353.471 39.5457C353.6 39.6496 353.678 39.8054 353.678 39.9871C353.678 40.3507 353.42 40.844 352.879 41.5191C352.337 42.1942 351.642 42.9212 350.791 43.7002C349.941 44.4791 348.987 45.2062 347.982 45.9072C346.977 46.6083 345.972 47.1536 344.966 47.621C343.961 48.0624 343.111 48.2961 342.338 48.2961C342.028 48.2961 341.668 48.1403 341.281 47.8287C340.894 47.5171 340.559 47.1276 340.276 46.6862C340.018 46.2448 339.941 45.8293 340.07 45.4139L346.358 26.8746C346.539 26.3813 346.564 26.0697 346.461 25.9399C346.358 25.81 346.152 25.9399 345.843 26.3294L332.467 45.8813C332.157 46.3746 331.848 46.7901 331.513 47.1536C331.178 47.5171 330.895 47.6989 330.611 47.6989C330.353 47.6989 330.173 47.5431 330.121 47.2315C330.044 46.9199 329.993 46.6083 329.967 46.2967L328.24 27.1343C328.24 27.0045 328.188 26.9266 328.111 26.9266C328.034 26.9266 327.931 27.0564 327.853 27.316C326.926 31.055 326.024 34.2488 325.173 36.8973C324.323 39.5457 323.395 41.7009 322.467 43.3626C321.513 45.0244 320.457 46.2708 319.323 47.0757C318.111 47.9325 316.823 48.322 315.354 48.322Z" fill="#6A489C"/>
<path d="M360.533 47.5942C360.301 47.5942 359.992 47.5682 359.579 47.4903C359.167 47.4124 358.961 47.2566 358.961 46.997C358.961 46.6335 359.116 46.3738 359.451 46.218C359.786 46.0622 360.121 45.9064 360.481 45.7766C361.152 45.5429 361.77 45.3092 362.363 44.9976C362.956 44.712 363.265 44.0888 363.265 43.1541V24.9004C363.265 24.0176 363.059 23.3944 362.672 23.0569C362.286 22.7194 361.744 22.4597 361.074 22.2779C360.713 22.1481 360.378 21.9923 360.043 21.8106C359.708 21.6288 359.554 21.3951 359.554 21.0835C359.554 20.8239 359.734 20.6421 360.095 20.5902C360.456 20.5123 360.765 20.4863 361.023 20.4863C361.899 20.4863 362.543 20.5123 362.904 20.5642C363.291 20.6162 363.652 20.6681 363.987 20.72C364.347 20.7979 364.889 20.8239 365.636 20.8239C366.435 20.8239 367.002 20.7979 367.363 20.72C367.724 20.6421 368.084 20.5902 368.497 20.5642C368.883 20.5123 369.502 20.4863 370.352 20.4863C370.584 20.4863 370.894 20.5123 371.306 20.5902C371.718 20.6681 371.925 20.8239 371.925 21.0835C371.925 21.3951 371.77 21.6288 371.435 21.8106C371.1 21.9923 370.765 22.1481 370.404 22.2779C369.734 22.4597 369.167 22.7194 368.651 23.0569C368.136 23.3944 367.878 23.9917 367.878 24.9004V31.6514C367.878 31.8332 367.956 31.963 368.11 32.015C368.265 32.0928 368.419 32.0928 368.548 32.0409C368.935 31.8072 369.631 31.6774 370.61 31.5995C371.589 31.5216 372.388 31.4956 373.007 31.4956C373.754 31.4956 374.631 31.6255 375.662 31.8592C376.667 32.0928 377.672 32.5343 378.677 33.1315C379.682 33.7287 380.507 34.5336 381.151 35.5722C381.821 36.5849 382.156 37.8572 382.156 39.3632C382.156 41.3106 381.641 42.9204 380.61 44.1408C379.579 45.3612 378.187 46.244 376.46 46.7892C374.734 47.3345 372.852 47.5942 370.842 47.5942C369.992 47.5942 369.347 47.5682 368.858 47.4903C368.368 47.4124 367.93 47.3605 367.492 47.3345C367.079 47.2826 366.461 47.2566 365.662 47.2566C364.914 47.2566 364.322 47.2826 363.883 47.3345C363.445 47.3864 362.981 47.4384 362.518 47.4903C362.028 47.5682 361.384 47.5942 360.533 47.5942ZM371.461 45.7247C372.955 45.7247 374.321 45.2313 375.507 44.2187C376.692 43.206 377.285 41.752 377.285 39.7786C377.285 37.5456 376.77 35.9357 375.739 34.8971C374.708 33.8845 373.11 33.3652 370.997 33.3652C369.811 33.3652 368.961 33.5209 368.471 33.8325C368.162 34.0662 367.981 34.3518 367.93 34.7413C367.878 35.1308 367.852 35.3904 367.852 35.5722V42.505C367.852 43.5695 368.239 44.3745 369.038 44.9197C369.863 45.465 370.662 45.7247 371.461 45.7247Z" fill="#6A489C"/>
<path d="M5.12894 107.704C4.2269 105.108 3.196 100.226 3.47949 91.7614C3.6599 86.075 4.45885 79.9731 5.59285 75.4292C6.72684 70.8852 9.51028 66.8606 11.6236 64.29C13.9432 61.5117 15.9534 59.824 16.0307 59.7461L16.5204 60.3433C16.4431 60.4212 8.42783 67.1722 6.34025 75.6109C5.23203 80.103 4.45885 86.1529 4.25267 91.7614C3.96917 100.096 4.9743 104.874 5.87634 107.419L5.12894 107.704Z" fill="#6A489C"/>
<path d="M16.082 60.0841C16.082 60.0841 17.1645 56.5268 20.283 56.345C22.4994 56.2412 24.2004 56.5787 24.2004 56.5787C23.3241 57.9809 22.6798 59.409 21.1592 60.136C19.716 60.8371 18.0407 60.6813 16.082 60.0841Z" fill="#6A489C"/>
<path d="M12.7059 63.2259C12.7059 63.2259 15.2058 60.9409 14.613 58.8637C14.0203 56.7605 12.8863 55.7998 12.8863 55.7998C12.8863 55.7998 10.3348 57.6693 10.6956 59.7206C11.108 62.0055 12.7059 63.2259 12.7059 63.2259Z" fill="#6A489C"/>
<path d="M9.43303 67.8481C9.43303 67.8481 10.5928 65.0439 9.63921 63.7716C8.68563 62.4993 6.93309 61.2529 6.93309 61.2529C6.93309 61.2529 4.43315 64.6804 9.43303 67.8481Z" fill="#6A489C"/>
<path d="M7.31926 71.3528C7.31926 71.3528 7.86048 69.5092 6.88112 68.3667C5.90177 67.2243 4.27809 66.8867 4.27809 66.8867C4.27809 66.8867 3.22142 70.1843 7.31926 71.3528Z" fill="#6A489C"/>
<path d="M13.0669 63.4852C13.0669 63.4852 15.0514 61.9013 17.139 62.7581C19.407 63.6929 19.7162 65.095 19.7162 65.095C19.7162 65.095 16.34 67.2761 13.0669 63.4852Z" fill="#6A489C"/>
<path d="M9.61328 67.9255C9.61328 67.9255 11.7009 66.2378 13.7884 66.8869C15.876 67.536 16.7781 68.7824 16.7781 68.7824C16.7781 68.7824 13.6853 72.1319 9.61328 67.9255Z" fill="#6A489C"/>
<path d="M7.16504 72.8333C7.16504 72.8333 8.04131 71.3013 9.56189 71.535C11.0825 71.7687 12.0103 72.6515 12.0103 72.6515C12.0103 72.6515 10.6443 74.9624 7.16504 72.8333Z" fill="#6A489C"/>
<path d="M5.87646 76.6757C5.87646 76.6757 7.16509 75.3255 8.78877 75.4813C10.464 75.6371 11.6495 76.8315 11.6495 76.8315C11.6495 76.8315 8.86609 79.428 5.87646 76.6757Z" fill="#6A489C"/>
<path d="M4.99988 78.8572C4.99988 78.8572 5.56687 77.3772 4.89679 76.1309C4.2267 74.8845 3.11848 74.8066 3.11848 74.8066C3.11848 74.8066 1.90717 77.1435 4.99988 78.8572Z" fill="#6A489C"/>
<path d="M5.15479 80.5709C5.15479 80.5709 6.15992 78.8831 8.65986 79.3765C11.1598 79.8698 10.799 79.8958 10.799 79.8958C10.799 79.8958 9.66499 82.8299 5.15479 80.5709Z" fill="#6A489C"/>
<path d="M4.04644 84.7252C4.04644 84.7252 3.58253 82.6999 2.47431 81.869C1.46918 81.09 0.000143467 81.0381 0.000143467 81.0381C0.000143467 81.0381 -0.592626 84.3616 4.04644 84.7252Z" fill="#6A489C"/>
<path d="M4.17529 89.347C4.17529 89.347 4.58765 87.6073 5.48969 86.8283C6.44328 86.0234 7.75768 86.1532 7.75768 86.1532C7.75768 86.1532 8.89168 89.6326 4.17529 89.347Z" fill="#6A489C"/>
<path d="M34.8447 28.0686C34.8447 28.0686 31.5974 27.3156 29.8964 29.7564C28.6851 31.522 28.0923 33.054 28.0923 33.054C29.5871 32.9761 31.0046 33.1059 32.2932 32.2231C33.5561 31.3922 34.2777 29.9381 34.8447 28.0686Z" fill="#6A489C" stroke="#6A489C" stroke-width="2" stroke-miterlimit="10"/>
<path d="M40.0506 23.0828C40.0506 23.0828 36.5455 23.4463 34.458 21.5508C32.3704 19.6554 31.7261 18.1234 31.7261 18.1234C31.7261 18.1234 34.793 17.4223 36.9321 19.1361C39.329 21.0056 40.0506 23.0828 40.0506 23.0828Z" fill="#6A489C" stroke="#6A489C" stroke-width="2" stroke-miterlimit="10"/>
<path d="M55.0245 23.7068C55.0245 23.7068 53.0658 21.9931 52.8338 20.6689C52.6019 19.3446 52.705 17.7607 52.705 17.7607C52.705 17.7607 55.5657 19.4745 55.0245 23.7068Z" fill="#6A489C" stroke="#6A489C" stroke-width="2" stroke-miterlimit="10"/>
<path d="M52.8338 23.6545C52.8338 23.6545 49.6122 22.4861 48.1174 20.5646C46.5968 18.6432 46.6226 16.8516 46.6226 16.8516C46.6226 16.8516 52.3441 18.8769 52.8338 23.6545Z" fill="#6A489C" stroke="#6A489C" stroke-width="2" stroke-miterlimit="10"/>
<path d="M32.0354 26.2769C32.0354 26.2769 29.8447 24.4333 27.2932 24.9267C24.5356 25.446 24.0459 26.6923 24.0459 26.6923C24.0459 26.6923 27.8345 29.3148 32.0354 26.2769Z" fill="#6A489C" stroke="#6A489C" stroke-width="2" stroke-miterlimit="10"/>
<path d="M42.2412 29.4707C42.2412 29.4707 39.3031 29.6005 37.1897 31.1065C35.0764 32.5866 34.5352 33.781 34.5352 33.781C34.5352 33.781 39.2 34.0925 42.2412 29.4707Z" fill="#6A489C" stroke="#6A489C" stroke-width="2" stroke-miterlimit="10"/>
<path d="M56.5707 29.627C56.5707 29.627 53.8646 29.9126 52.1121 32.4312C50.3596 34.9499 50.0503 37.0531 50.0503 37.0531C50.0503 37.0531 54.1739 36.5857 56.5707 29.627Z" fill="#6A489C" stroke="#6A489C" stroke-width="2" stroke-miterlimit="10"/>
<path d="M43.5559 30.0156C43.5559 30.0156 41.9322 30.8206 41.159 32.4823C40.3858 34.1701 40.5405 35.728 40.5405 35.728C40.5405 35.728 43.8651 33.8066 43.5559 30.0156Z" fill="#6A489C" stroke="#6A489C" stroke-width="2" stroke-miterlimit="10"/>
<path d="M76.0809 25.9393C71.5449 26.3029 32.2675 26.4587 30.5923 26.4587V25.7576C31.0046 25.7576 71.5192 25.6278 76.0294 25.2383L76.0809 25.9393Z" fill="#6A489C" stroke="#6A489C" stroke-width="2" stroke-miterlimit="10"/>
<path d="M39.9735 26.3548C37.6797 26.926 33.4014 28.8994 33.3499 28.8994L33.0664 28.2762C33.2468 28.1983 37.4477 26.2769 39.8188 25.6797L39.9735 26.3548Z" fill="#6A489C" stroke="#6A489C" stroke-width="2" stroke-miterlimit="10"/>
<path d="M52.9629 26.3294C48.2465 26.9785 39.0199 31.3147 38.9168 31.3667L38.6333 30.7435C39.0199 30.5618 48.0661 26.3034 52.8855 25.6543L52.9629 26.3294Z" fill="#6A489C" stroke="#6A489C" stroke-width="2" stroke-miterlimit="10"/>
<path d="M44.5608 25.7575L44.1484 26.3287C41.9835 24.7708 37.4475 21.9406 37.396 21.9146L37.7568 21.3174C37.8341 21.3174 42.3959 24.1736 44.5608 25.7575Z" fill="#6A489C" stroke="#6A489C" stroke-width="2" stroke-miterlimit="10"/>
<path d="M58.3751 25.5763L58.2204 26.2514C57.0864 25.9918 54.0968 25.057 50.6948 21.9412L51.1587 21.4219C54.4576 24.4598 57.2926 25.3426 58.3751 25.5763Z" fill="#6A489C" stroke="#6A489C" stroke-width="2" stroke-miterlimit="10"/>
<path d="M58.1947 25.4984L57.8854 26.1216L57.7565 26.0697C57.0864 25.7321 55.7205 25.0051 53.8906 22.2528L54.4576 21.8633C56.1844 24.4858 57.3957 25.109 58.0658 25.4465L58.1947 25.4984Z" fill="#6A489C" stroke="#6A489C" stroke-width="2" stroke-miterlimit="10"/>
<path d="M64.1482 26.2249C59.4834 26.8481 53.633 32.6643 53.5815 32.7422L53.0918 32.2489C53.3495 32.0152 59.1741 26.1989 64.0451 25.5498L64.1482 26.2249Z" fill="#6A489C" stroke="#6A489C" stroke-width="2" stroke-miterlimit="10"/>
<path d="M286.23 76.728C284.375 73.0669 281.849 71.9244 281.823 71.9244L282.029 71.457C282.133 71.509 284.736 72.6774 286.669 76.4943L286.23 76.728Z" fill="#6A489C"/>
<path d="M280.303 70.6779C280.303 71.301 280.741 72.0021 281.462 72.4435C282.184 72.9109 282.983 72.9888 283.55 72.7551C283.55 72.1319 283.112 71.4309 282.39 70.9894C281.669 70.4961 280.87 70.4182 280.303 70.6779Z" fill="#6A489C"/>
<path d="M285.741 75.845C284.839 73.5601 285.586 71.5867 285.612 71.5088L286.076 71.6905C286.076 71.7165 285.38 73.5601 286.205 75.6632L285.741 75.845Z" fill="#6A489C"/>
<path d="M286.024 69.665C286.488 70.0545 286.772 70.8335 286.694 71.6644C286.617 72.5212 286.179 73.2223 285.638 73.5079C285.174 73.1184 284.89 72.3395 284.968 71.5086C285.071 70.6517 285.483 69.9507 286.024 69.665Z" fill="#6A489C"/>
<path d="M284.401 74.5202C284.194 74.8837 283.73 75.1434 283.163 75.1953C282.597 75.2472 282.107 75.0395 281.849 74.702C282.055 74.3384 282.519 74.0788 283.086 74.0269C283.653 74.0009 284.143 74.1827 284.401 74.5202Z" fill="#6A489C"/>
<path d="M294.271 91.5798C294.271 91.9693 293.988 92.4107 293.524 92.6704C293.06 92.956 292.57 93.0079 292.209 92.8262C292.209 92.4367 292.493 91.9953 292.957 91.7356C293.421 91.476 293.936 91.424 294.271 91.5798Z" fill="#6A489C"/>
<path d="M291.617 92.6449L291.23 92.3074C292.7 90.5937 292.622 88.6203 292.622 88.5943L293.112 88.5684C293.138 88.6722 293.215 90.7754 291.617 92.6449Z" fill="#6A489C"/>
<path d="M293.318 86.7246C292.751 86.9323 292.235 87.5815 292.029 88.4124C291.849 89.2433 292.029 90.0482 292.442 90.4896C293.009 90.2819 293.524 89.6327 293.73 88.8018C293.936 87.9709 293.756 87.166 293.318 86.7246Z" fill="#6A489C"/>
<path d="M287.184 86.4645C287.519 86.6722 288.06 86.6722 288.576 86.4385C289.091 86.2049 289.426 85.7634 289.478 85.348C289.143 85.1403 288.602 85.1403 288.086 85.374C287.571 85.6336 287.236 86.0491 287.184 86.4645Z" fill="#6A489C"/>
<path d="M288.73 81.1416L288.318 80.8559C290.689 77.5324 290.534 74.7541 290.534 74.7281L291.024 74.7021C291.076 74.78 291.23 77.6362 288.73 81.1416Z" fill="#6A489C"/>
<path d="M290.998 72.7549C290.457 73.0405 290.045 73.7416 289.967 74.5984C289.89 75.4553 290.173 76.2083 290.663 76.5978C291.204 76.3121 291.617 75.6111 291.694 74.7542C291.746 73.8974 291.462 73.1444 290.998 72.7549Z" fill="#6A489C"/>
<path d="M289.581 79.7912L289.168 79.5316C290.122 77.9996 292.055 77.1168 292.132 77.0908L292.338 77.5582C292.338 77.5322 290.483 78.3891 289.581 79.7912Z" fill="#6A489C"/>
<path d="M289.297 80.2327L288.833 80.0509C289.607 77.9477 288.833 76.1302 288.808 76.1042L289.272 75.8965C289.323 76.0003 290.148 77.9218 289.297 80.2327Z" fill="#6A489C"/>
<path d="M294.529 76.8059C294.374 77.4031 293.807 77.9743 293.008 78.2599C292.21 78.5456 291.385 78.4417 290.921 78.0782C291.076 77.481 291.643 76.9097 292.441 76.6241C293.24 76.3385 294.039 76.4424 294.529 76.8059Z" fill="#6A489C"/>
<path d="M282.777 84.3351C283.241 84.7246 284.04 84.8544 284.864 84.5947C285.689 84.3351 286.282 83.7898 286.437 83.1926C285.973 82.8031 285.174 82.6733 284.349 82.9329C283.524 83.1666 282.931 83.7379 282.777 84.3351Z" fill="#6A489C"/>
<path d="M285.2 78.7266C285.664 78.6487 286.256 79.0901 286.746 79.9469C287.236 80.7778 287.468 81.7905 287.39 82.4916C286.926 82.5695 286.334 82.128 285.844 81.2712C285.354 80.4403 285.122 79.4536 285.2 78.7266Z" fill="#6A489C"/>
<path d="M289.349 76.6759C288.937 76.7278 288.447 76.5201 288.086 76.0787C287.725 75.6373 287.571 75.118 287.674 74.7285C288.086 74.6766 288.576 74.8843 288.937 75.3257C289.298 75.7412 289.452 76.2605 289.349 76.6759Z" fill="#6A489C"/>
<path d="M289.736 84.5434C287.931 84.1799 286.849 82.2325 286.823 82.1546L287.261 81.9209C287.261 81.9469 288.292 83.7385 289.839 84.0501L289.736 84.5434Z" fill="#6A489C"/>
<path d="M283.885 84.361L283.55 83.9975C283.628 83.9196 285.457 82.2318 288.267 83.2445L288.112 83.7119C285.586 82.7771 283.911 84.3351 283.885 84.361Z" fill="#6A489C"/>
<path d="M292.107 100.927H291.617C291.952 84.0237 285.457 75.533 285.406 75.4551L285.792 75.1436C285.87 75.2215 292.442 83.8679 292.107 100.927Z" fill="#6A489C"/>
<path d="M415.325 40.48C414.011 40.1684 412.825 39.701 411.794 39.1298L411.588 39L411.639 38.7663C412.902 33.3135 417 29.1331 422.309 27.8868C426.768 26.8482 431.098 28.0945 433.623 31.1844C434.732 32.5346 435.685 34.0406 436.407 35.6504L436.51 35.9101L436.278 36.0659C434.835 37.1045 433.16 38.0133 431.355 38.7663L431.046 38.8961L430.479 37.5978L429.964 39.3115L429.809 39.3635C428.469 39.8309 427.077 40.2203 425.66 40.506C421.948 41.2589 418.34 41.233 415.325 40.48ZM412.335 38.6624C415.66 40.4281 420.454 40.8695 425.582 39.8568C426.897 39.5972 428.211 39.2336 429.474 38.7922L430.428 35.7024L431.459 38.0392C433.005 37.3641 434.448 36.5852 435.711 35.6764C435.015 34.1964 434.139 32.8462 433.134 31.5998C430.763 28.7177 426.691 27.5233 422.49 28.5359C418.521 29.4447 413.856 32.5865 412.335 38.6624Z" fill="#6A489C"/>
<path d="M420.299 41.4408C418.521 41.4408 416.794 41.2591 415.248 40.8696C413.908 40.532 412.67 40.0646 411.614 39.4674L411.15 39.2078L411.279 38.6885C412.593 33.08 416.794 28.7957 422.232 27.5234C426.82 26.4328 431.304 27.7571 433.933 30.9508C435.067 32.327 436.02 33.8589 436.768 35.5207L437.025 36.066L436.536 36.4035C435.067 37.4681 433.392 38.3769 431.536 39.1559L430.892 39.4155L430.582 38.7145L430.299 39.6232L429.964 39.7531C428.598 40.2204 427.206 40.6099 425.763 40.8955C423.907 41.2591 422.052 41.4408 420.299 41.4408ZM412.774 38.4548C415.995 40.0647 420.608 40.4282 425.479 39.4674C426.716 39.2338 427.954 38.8962 429.139 38.4808L430.325 34.586L431.613 37.52C432.902 36.9488 434.087 36.2737 435.196 35.5467C434.526 34.2224 433.727 32.9761 432.799 31.8336C430.531 29.0553 426.588 27.9388 422.541 28.8995C418.804 29.7824 414.346 32.7424 412.774 38.4548Z" fill="#6A489C"/>
<path d="M408.831 43.5706C409.449 40.8183 411.511 38.741 412.361 37.988L412.387 37.9621C418.16 32.7171 424.346 32.3276 428.521 32.9248C433.031 33.5739 436.15 35.4175 436.278 35.4953L435.943 36.0666C435.918 36.0406 432.799 34.1971 428.392 33.5739C422.516 32.743 417.284 34.3788 412.825 38.4554L412.8 38.4814C412.001 39.2084 410.068 41.1558 409.475 43.7004L408.831 43.5706Z" fill="#6A489C"/>
<path d="M409.758 44.1938L408.367 43.8822L408.444 43.4927C409.088 40.6365 411.202 38.5073 412.078 37.7024L412.104 37.6764C417.98 32.3535 424.294 31.9381 428.547 32.5613C433.134 33.2104 436.33 35.1059 436.459 35.1838L436.794 35.3915L436.046 36.6378L435.711 36.4301C435.686 36.4041 432.619 34.6125 428.315 33.9894C422.567 33.1844 417.439 34.7943 413.057 38.767L413.032 38.793C412.258 39.494 410.403 41.3635 409.836 43.8043L409.758 44.1938Z" fill="#6A489C"/>
<path d="M433.967 32.1247L431.58 33.7588L431.956 34.3172L434.344 32.6832L433.967 32.1247Z" fill="#6A489C"/>
<path d="M434.075 31.5462L431.047 33.6172L431.858 34.8203L434.886 32.7493L434.075 31.5462Z" fill="#6A489C"/>
<path d="M431.985 30.0015L428.401 33.0098L428.83 33.5284L432.414 30.5201L431.985 30.0015Z" fill="#6A489C"/>
<path d="M432.045 29.4677L427.867 32.9746L428.791 34.0918L432.969 30.5849L432.045 29.4677Z" fill="#6A489C"/>
<path d="M429.525 28.5218L425.178 32.8076L425.646 33.2901L429.994 29.0043L429.525 28.5218Z" fill="#6A489C"/>
<path d="M429.526 27.9656L424.627 32.7969L425.637 33.8359L430.535 29.0046L429.526 27.9656Z" fill="#6A489C"/>
<path d="M426.128 27.6958L422.147 33.127L422.687 33.528L426.667 28.0968L426.128 27.6958Z" fill="#6A489C"/>
<path d="M426.036 27.1423L421.596 33.2002L422.757 34.0639L427.197 28.0061L426.036 27.1423Z" fill="#6A489C"/>
<path d="M422.916 27.9399L419.645 33.7422L420.227 34.0756L423.499 28.2734L422.916 27.9399Z" fill="#6A489C"/>
<path d="M422.746 27.3925L419.093 33.8721L420.348 34.5902L424.001 28.1107L422.746 27.3925Z" fill="#6A489C"/>
<path d="M419.234 29.0921L416.52 35.0938L417.13 35.3736L419.844 29.372L419.234 29.0921Z" fill="#6A489C"/>
<path d="M419.028 28.5874L415.994 35.2979L417.307 35.9006L420.341 29.1901L419.028 28.5874Z" fill="#6A489C"/>
<path d="M415.925 31.3173L413.809 36.8408L414.434 37.0839L416.55 31.5604L415.925 31.3173Z" fill="#6A489C"/>
<path d="M415.71 30.8171L413.316 37.0674L414.663 37.5908L417.057 31.3406L415.71 30.8171Z" fill="#6A489C"/>
<path d="M432.168 33.8249L431.566 34.1221L433.211 37.5026L433.813 37.2055L432.168 33.8249Z" fill="#6A489C"/>
<path d="M432.345 33.3033L431.049 33.9434L433.035 38.0234L434.331 37.3833L432.345 33.3033Z" fill="#6A489C"/>
<path d="M428.888 33.1394L428.307 33.4756L431.208 38.5639L431.789 38.2277L428.888 33.1394Z" fill="#6A489C"/>
<path d="M429.036 32.5677L427.784 33.292L431.071 39.0557L432.322 38.3315L429.036 32.5677Z" fill="#6A489C"/>
<path d="M425.701 32.888L425.097 33.1816L428.158 39.5642L428.761 39.2705L425.701 32.888Z" fill="#6A489C"/>
<path d="M425.879 32.3636L424.579 32.9961L427.976 40.08L429.276 39.4475L425.879 32.3636Z" fill="#6A489C"/>
<path d="M422.706 33.1664L422.087 33.4268L424.96 40.3499L425.578 40.0896L422.706 33.1664Z" fill="#6A489C"/>
<path d="M422.949 32.6922L421.617 33.2529L424.787 40.8956L426.119 40.3349L422.949 32.6922Z" fill="#6A489C"/>
<path d="M420.219 33.7717L419.592 34.0107L422.12 40.7371L422.747 40.498L420.219 33.7717Z" fill="#6A489C"/>
<path d="M420.443 33.2673L419.093 33.7822L421.895 41.2371L423.245 40.7222L420.443 33.2673Z" fill="#6A489C"/>
<path d="M417.117 35.1099L416.5 35.3711L418.773 40.83L419.391 40.5688L417.117 35.1099Z" fill="#6A489C"/>
<path d="M417.325 34.6025L415.994 35.165L418.567 41.3423L419.898 40.7797L417.325 34.6025Z" fill="#6A489C"/>
<path d="M414.425 36.814L413.834 37.1328L415.563 40.383L416.153 40.0642L414.425 36.814Z" fill="#6A489C"/>
<path d="M414.572 36.3087L413.299 36.9951L415.392 40.9319L416.664 40.2455L414.572 36.3087Z" fill="#6A489C"/>
<path d="M404.346 44.2715L404.115 44.2196C398.986 42.8174 394.888 38.9746 393.135 33.9892C391.383 28.9779 392.233 23.4213 395.352 19.0851L395.481 18.9033L395.713 18.9553C400.841 20.3574 404.939 24.2003 406.692 29.1856C408.444 34.1969 407.594 39.7535 404.475 44.0897L404.346 44.2715ZM393.78 33.7296C395.429 38.4553 399.269 42.0904 404.089 43.4925C406.975 39.364 407.723 34.119 406.099 29.3933C404.45 24.6676 400.609 21.0325 395.79 19.6303C392.878 23.7588 392.13 29.0039 393.78 33.7296Z" fill="#6A489C"/>
<path d="M404.501 44.7125L404.037 44.5827C398.779 43.1286 394.579 39.2079 392.8 34.0927C391.022 28.9775 391.872 23.2651 395.068 18.825L395.352 18.4355L395.816 18.5654C401.073 20.0194 405.274 23.9142 407.052 29.0554C408.831 34.1706 407.98 39.883 404.784 44.323L404.501 44.7125ZM394.14 33.5993C395.713 38.1173 399.346 41.6226 403.934 43.0248C406.614 39.0521 407.284 34.0148 405.738 29.4968C404.166 24.9788 400.532 21.4735 395.945 20.0714C393.238 24.07 392.568 29.1073 394.14 33.5993Z" fill="#6A489C"/>
<path d="M405.48 56.8119C404.398 42.1934 401.769 32.8718 399.784 27.6009C397.619 21.8885 395.686 19.6035 395.661 19.6035L396.15 19.1621C396.46 19.5256 404.037 28.5616 406.15 56.7859L405.48 56.8119Z" fill="#6A489C"/>
<path d="M405.119 57.2277L405.094 56.8382C404.011 42.2716 401.408 32.976 399.424 27.731C397.31 22.1485 395.377 19.8635 395.377 19.8376L395.12 19.5519L396.202 18.6172L396.46 18.9028C396.795 19.2663 404.424 28.4061 406.537 56.7344L406.563 57.1238L405.119 57.2277Z" fill="#6A489C"/>
<path d="M401.034 22.1211L398.886 25.3906L399.445 25.7632L401.592 22.4937L401.034 22.1211Z" fill="#6A489C"/>
<path d="M400.93 21.5848L398.355 25.5039L399.559 26.3064L402.133 22.3873L400.93 21.5848Z" fill="#6A489C"/>
<path d="M402.941 24.0195L400.295 28.0469L400.854 28.4195L403.5 24.3921L402.941 24.0195Z" fill="#6A489C"/>
<path d="M402.83 23.4642L399.757 28.1406L400.96 28.9434L404.034 24.267L402.83 23.4642Z" fill="#6A489C"/>
<path d="M404.916 26.77L401.376 32.2559L401.938 32.6239L405.478 27.138L404.916 26.77Z" fill="#6A489C"/>
<path d="M404.791 26.2497L400.83 32.3887L402.04 33.1811L406.001 27.0422L404.791 26.2497Z" fill="#6A489C"/>
<path d="M406.58 30.8292L402.59 37.0117L403.152 37.3797L407.142 31.1972L406.58 30.8292Z" fill="#6A489C"/>
<path d="M406.448 30.2912L402.036 37.126L403.246 37.9187L407.658 31.084L406.448 30.2912Z" fill="#6A489C"/>
<path d="M406.962 35.2631L403.31 40.0977L403.843 40.5066L407.496 35.672L406.962 35.2631Z" fill="#6A489C"/>
<path d="M406.883 34.7012L402.763 40.1562L403.911 41.0368L408.032 35.5818L406.883 34.7012Z" fill="#6A489C"/>
<path d="M394.652 20.8435L394.366 21.4541L397.886 23.1275L398.172 22.5169L394.652 20.8435Z" fill="#6A489C"/>
<path d="M394.449 20.355L393.833 21.6699L398.051 23.6758L398.667 22.3608L394.449 20.355Z" fill="#6A489C"/>
<path d="M393.344 23.6735L393.058 24.2842L399.679 27.4278L399.965 26.8171L393.344 23.6735Z" fill="#6A489C"/>
<path d="M393.121 23.1544L392.506 24.4697L399.827 27.9446L400.442 26.6292L393.121 23.1544Z" fill="#6A489C"/>
<path d="M392.67 28.882L392.409 29.5039L401.835 33.5159L402.096 32.894L392.67 28.882Z" fill="#6A489C"/>
<path d="M392.467 28.3734L391.905 29.7129L402.043 34.028L402.605 32.6886L392.467 28.3734Z" fill="#6A489C"/>
<path d="M393.655 34.0758L393.463 34.7227L402.872 37.553L403.064 36.9061L393.655 34.0758Z" fill="#6A489C"/>
<path d="M393.397 33.5921L392.984 34.9854L403.134 38.0386L403.547 36.6453L393.397 33.5921Z" fill="#6A489C"/>
<path d="M396.333 38.327L396.122 38.9678L403.632 41.4772L403.843 40.8364L396.333 38.327Z" fill="#6A489C"/>
<path d="M396.084 37.8327L395.629 39.2129L403.874 41.9675L404.328 40.5873L396.084 37.8327Z" fill="#6A489C"/>
<path d="M413.058 27.757L412.903 27.6532C408.625 24.4594 406.924 19.526 408.084 13.7617C409.295 7.91949 412.31 3.24572 414.759 0.804977L414.991 0.571289L415.223 0.830943C417.98 3.89486 421.047 9.26969 421.356 15.2158C421.64 20.9022 418.676 25.4461 413.187 27.6791L413.058 27.757ZM408.754 13.8915C407.645 19.3183 409.218 23.9661 413.161 27.004C418.341 24.823 421.021 20.6425 420.738 15.2417C420.454 9.6332 417.619 4.54399 414.991 1.53201C412.671 3.94679 409.888 8.38687 408.754 13.8915Z" fill="#6A489C"/>
<path d="M413.006 28.1988L412.671 27.9651C408.264 24.6675 406.511 19.6043 407.723 13.6842C408.934 7.76405 412.027 3.01239 414.501 0.545675L415.042 0.0263672L415.557 0.57164C418.367 3.68749 421.485 9.16618 421.794 15.2161C422.104 21.0583 419.037 25.7581 413.393 28.069L413.006 28.1988ZM409.114 13.9698C408.058 19.1369 409.501 23.6029 413.212 26.563C418.083 24.4338 420.609 20.4352 420.351 15.294C420.068 9.99707 417.465 5.08962 414.99 2.12956C413.65 3.58362 410.429 7.68615 409.114 13.9698Z" fill="#6A489C"/>
<path d="M403.522 65.095L402.903 64.8873C404.63 59.876 407.62 49.6975 412.053 29.6782C412.156 29.2368 412.207 28.9512 412.259 28.7954C414.063 20.9539 414.991 10.4379 414.707 1.40194L415.377 1.37598C415.661 10.4639 414.733 21.0318 412.903 28.9252C412.877 29.081 412.8 29.3667 412.697 29.8081C408.264 49.8793 405.249 60.0837 403.522 65.095Z" fill="#6A489C"/>
<path d="M403.78 65.5888L402.414 65.1214L402.542 64.7579C404.269 59.7466 407.259 49.5941 411.692 29.5748C411.795 29.1334 411.846 28.8478 411.898 28.692C413.702 20.8764 414.63 10.4123 414.346 1.40235V1.01287L415.79 0.960938V1.35042C416.099 10.4643 415.145 21.0841 413.315 29.0035C413.29 29.1593 413.212 29.445 413.109 29.8864C408.651 49.9576 405.661 60.188 403.934 65.2253L403.78 65.5888Z" fill="#6A489C"/>
<path d="M415.351 8.36183L414.887 7.89445C416.253 6.54425 417.207 5.58353 417.722 4.98633L418.212 5.42774C417.696 6.02494 416.743 7.01163 415.351 8.36183Z" fill="#6A489C"/>
<path d="M415.351 8.93284L414.346 7.89423L414.63 7.63457C415.996 6.31034 416.949 5.32365 417.439 4.75242L417.697 4.4668L418.779 5.40155L418.521 5.68717C418.006 6.28437 417.027 7.29702 415.635 8.67319L415.351 8.93284Z" fill="#6A489C"/>
<path d="M415.196 12.4373L414.758 11.918C415.867 10.9833 418.134 8.90603 419.062 7.94531L419.526 8.41269C418.598 9.39938 416.305 11.4766 415.196 12.4373Z" fill="#6A489C"/>
<path d="M415.145 12.9829L414.217 11.8924L414.501 11.6327C415.583 10.698 417.851 8.64673 418.779 7.68601L419.037 7.40039L420.068 8.38707L419.81 8.67269C418.856 9.65938 416.537 11.7626 415.429 12.7233L415.145 12.9829Z" fill="#6A489C"/>
<path d="M414.888 16.4361L414.501 15.8909C416.846 14.1252 418.805 12.4375 420.171 10.9834L420.661 11.4508C418.882 13.3203 416.537 15.1898 414.888 16.4361Z" fill="#6A489C"/>
<path d="M414.81 16.9818L413.959 15.8133L414.269 15.5796C416.588 13.8399 418.547 12.1522 419.887 10.7241L420.145 10.4385L421.176 11.4252L420.918 11.7108C419.114 13.6063 416.769 15.4758 415.119 16.7221L414.81 16.9818Z" fill="#6A489C"/>
<path d="M414.449 20.3834L414.088 19.8381C416.485 18.2283 419.191 16.4107 420.841 14.9307L421.279 15.424C419.578 16.93 416.872 18.7735 414.449 20.3834Z" fill="#6A489C"/>
<path d="M414.346 20.929L413.547 19.7346L413.882 19.5269C416.279 17.943 418.96 16.1254 420.583 14.6454L420.867 14.3857L421.82 15.4503L421.537 15.71C419.836 17.2419 417.104 19.0855 414.681 20.7213L414.346 20.929Z" fill="#6A489C"/>
<path d="M413.857 24.2521L413.521 23.6808C415.558 22.4864 419.269 20.2534 420.325 19.5264L420.686 20.0716C419.372 20.9804 414.424 23.9145 413.857 24.2521Z" fill="#6A489C"/>
<path d="M413.702 24.7717L412.98 23.5254L413.315 23.3177C415.326 22.1233 419.037 19.9162 420.094 19.1892L420.403 18.9814L421.202 20.1759L420.893 20.3836C419.527 21.3443 414.269 24.4342 414.037 24.564L413.702 24.7717Z" fill="#6A489C"/>
<path d="M414.811 7.84213C414.115 6.98527 413.238 5.81683 412.517 4.88208L412.208 4.49259L412.723 4.07715L413.032 4.46663C413.754 5.40138 414.63 6.56983 415.3 7.42668L414.811 7.84213Z" fill="#6A489C"/>
<path d="M414.759 8.38735L414.527 8.07577C413.831 7.21891 412.955 6.05047 412.233 5.08975L411.692 4.38868L412.826 3.50586L413.367 4.20692C414.089 5.16764 414.965 6.31012 415.635 7.14101L415.867 7.4526L414.759 8.38735Z" fill="#6A489C"/>
<path d="M414.578 12.126C413.831 11.2173 413.032 10.0748 412.259 8.95827C411.718 8.17931 411.202 7.42631 410.712 6.80314L411.228 6.3877C411.718 7.01086 412.233 7.76386 412.774 8.56879C413.547 9.6853 414.32 10.8278 415.068 11.6846L414.578 12.126Z" fill="#6A489C"/>
<path d="M414.527 12.6711L414.269 12.3855C413.496 11.4767 412.697 10.3082 411.924 9.19173C411.383 8.41277 410.867 7.65978 410.403 7.06257L410.171 6.75099L411.305 5.86816L411.537 6.17975C412.027 6.80292 412.542 7.55591 413.084 8.36084C413.857 9.47735 414.63 10.6198 415.377 11.4767L415.635 11.7623L414.527 12.6711Z" fill="#6A489C"/>
<path d="M414.424 15.9173C412.903 14.1776 411.022 11.8927 409.372 9.78947L409.888 9.37402C411.511 11.4772 413.393 13.7362 414.913 15.4759L414.424 15.9173Z" fill="#6A489C"/>
<path d="M414.398 16.4624L414.14 16.1767C412.62 14.4371 410.738 12.1521 409.089 10.0489L408.857 9.73732L409.991 8.85449L410.223 9.16608C411.847 11.2693 413.728 13.5283 415.223 15.242L415.48 15.5276L414.398 16.4624Z" fill="#6A489C"/>
<path d="M414.011 19.8638C412.903 18.6694 410.119 15.6315 408.29 13.3725L408.805 12.957C410.635 15.1901 413.393 18.202 414.501 19.3964L414.011 19.8638Z" fill="#6A489C"/>
<path d="M413.985 20.4094L413.728 20.1238C412.619 18.9294 409.836 15.8915 407.98 13.6325L407.723 13.3209L408.831 12.4121L409.089 12.7237C410.893 14.9567 413.65 17.9687 414.759 19.1631L415.016 19.4487L413.985 20.4094Z" fill="#6A489C"/>
<path d="M413.444 23.7327C412.877 23.1615 412.181 22.4864 411.46 21.7594C410.145 20.4611 408.779 19.1369 407.852 18.0723L408.341 17.6309C409.243 18.6695 410.609 19.9937 411.924 21.266C412.645 21.993 413.341 22.6681 413.934 23.2394L413.444 23.7327Z" fill="#6A489C"/>
<path d="M413.444 24.2783L413.161 23.9927C412.594 23.4215 411.924 22.7464 411.176 22.0453C409.836 20.7471 408.47 19.3969 407.542 18.3323L407.285 18.0467L408.367 17.0859L408.625 17.3716C409.527 18.4102 410.867 19.7084 412.181 20.9807C412.929 21.7078 413.599 22.3829 414.192 22.9541L414.475 23.2397L413.444 24.2783Z" fill="#6A489C"/>
<path d="M204.841 102.719L203.269 102.667C203.655 89.6588 198.372 82.6222 198.32 82.5443L199.557 81.5576C199.764 81.8692 205.227 89.0876 204.841 102.719Z" fill="#6A489C"/>
<path d="M196.001 76.6758C195.073 78.3895 195.202 80.986 196.491 83.3749C197.779 85.7637 199.893 87.2697 201.826 87.4255C202.753 85.7117 202.625 83.1152 201.336 80.7264C200.047 78.3376 197.934 76.8316 196.001 76.6758Z" fill="#6A489C"/>
<path d="M203.114 97.6817C202.985 91.9693 206.464 86.179 206.619 85.9453L207.959 86.7762C207.933 86.8281 204.583 92.3847 204.686 97.6297L203.114 97.6817Z" fill="#6A489C"/>
<path d="M203.217 99.7586C201.542 92.7739 196.284 89.4504 196.233 89.4244L197.058 88.0742C197.29 88.23 202.934 91.7873 204.738 99.3951L203.217 99.7586Z" fill="#6A489C"/>
<path d="M212.444 81.0125C213.114 82.8561 212.624 85.4007 211 87.5817C209.377 89.7628 207.083 90.9572 205.15 90.8274C204.48 88.9839 204.969 86.4393 206.593 84.2582C208.217 82.0771 210.511 80.8827 212.444 81.0125Z" fill="#6A489C"/>
<path d="M198.552 89.9183C197.599 90.7752 195.923 91.1127 194.171 90.6453C192.444 90.178 191.156 89.0355 190.743 87.8151C191.697 86.9583 193.372 86.6207 195.124 87.0881C196.851 87.5555 198.14 88.672 198.552 89.9183Z" fill="#6A489C"/>
<path d="M233.861 5.1416C233.165 6.43987 233.268 8.38727 234.221 10.1789C235.201 11.9705 236.773 13.113 238.242 13.2168C238.938 11.9186 238.835 9.97116 237.881 8.17955C236.902 6.38794 235.33 5.27143 233.861 5.1416Z" fill="#6A489C"/>
<path d="M248.01 8.23145C248.396 9.27006 247.649 10.9059 245.922 12.4378C244.221 13.9698 242.005 14.9824 240.278 15.1382C239.891 14.0996 240.639 12.4638 242.365 10.9318C244.092 9.39989 246.283 8.38724 248.01 8.23145Z" fill="#6A489C"/>
<path d="M237.83 21.6038H236.644C236.644 17.2156 240.639 13.7363 240.793 13.6064L241.567 14.5152C241.541 14.5412 237.83 17.7609 237.83 21.6038Z" fill="#6A489C"/>
<path d="M239.015 17.527L237.855 17.3453C238.783 11.0357 234.531 7.86789 234.35 7.73806L235.046 6.77734C235.226 6.93314 240.046 10.4644 239.015 17.527Z" fill="#6A489C"/>
</g>
<defs>
<clipPath id="clip0">
<rect width="437" height="117" fill="white"/>
</clipPath>
</defs>
</svg>
