<svg width="192" height="214" viewBox="0 0 192 214" fill="none" xmlns="http://www.w3.org/2000/svg">
<path d="M45 213.86C37.847 214.013 30.8439 211.799 25.08 207.56C19.2159 203.073 14.415 197.347 11.02 190.79C7.16918 183.536 4.3679 175.772 2.7 167.73C0.91872 159.516 0.0136618 151.135 0 142.73C0.0149976 134.034 0.919705 125.362 2.7 116.85C4.36169 108.54 7.20027 100.509 11.13 93.0001C14.6675 86.1594 19.7066 80.2075 25.87 75.5901C31.87 71.1701 38.9967 68.96 47.25 68.96C54.4005 68.8021 61.4019 71.0175 67.16 75.2601C73.0216 79.7373 77.8225 85.4533 81.22 92.0001C85.0672 99.2356 87.8717 106.979 89.55 115C91.325 123.094 92.2301 131.354 92.25 139.64C92.2271 148.26 91.3224 156.855 89.55 165.29C87.8607 173.664 85.0204 181.765 81.11 189.36C77.6207 196.304 72.6219 202.379 66.48 207.14C60.56 211.62 53.4 213.86 45 213.86ZM48.87 208C54.87 208 59.7067 204.96 63.38 198.88C67.0533 192.8 69.72 184.89 71.38 175.15C73.0847 164.738 73.9143 154.201 73.86 143.65C73.8687 135.363 73.2268 127.087 71.94 118.9C70.8184 111.355 68.8561 103.959 66.09 96.8501C63.9408 91.0118 60.6539 85.6583 56.42 81.1001C54.7138 79.2522 52.6429 77.7784 50.3382 76.7714C48.0335 75.7645 45.5451 75.2465 43.03 75.2501C37.03 75.2501 32.2667 78.1734 28.74 84.0201C25.2133 89.8668 22.6633 97.6301 21.09 107.31C19.464 117.693 18.6747 128.19 18.73 138.7C18.7272 147.07 19.3657 155.428 20.64 163.7C21.7595 171.334 23.6457 178.835 26.27 186.09C28.7433 192.757 31.8567 198.09 35.61 202.09C37.274 203.96 39.3171 205.454 41.6035 206.473C43.8898 207.492 46.3669 208.013 48.87 208Z" fill="#ED057D"/>
<path d="M121.95 211.38C121.497 211.406 121.044 211.34 120.618 211.185C120.191 211.03 119.801 210.79 119.47 210.48C119.208 210.255 118.993 209.98 118.838 209.671C118.684 209.362 118.593 209.025 118.57 208.68C118.57 207.346 119.697 206.373 121.95 205.76C127.644 204.26 132.33 202.87 136.01 201.59C139.195 200.651 142.019 198.768 144.11 196.19C145.83 193.87 146.694 190.536 146.7 186.19V100.19C146.778 98.968 146.573 97.7449 146.104 96.6146C145.634 95.4842 144.911 94.4768 143.99 93.6698C141.954 92.0567 139.548 90.9744 136.99 90.5197C133.949 89.8946 130.862 89.5167 127.76 89.3897C126.37 89.2638 125.014 88.8842 123.76 88.2697C123.223 88.0539 122.763 87.6805 122.442 87.1986C122.121 86.7167 121.953 86.1488 121.96 85.5697C121.984 85.0129 122.151 84.4717 122.445 83.9986C122.739 83.5255 123.151 83.1366 123.64 82.8697C124.822 82.1011 126.176 81.6373 127.58 81.5197C133.697 80.6057 139.747 79.2894 145.69 77.5797C151.024 75.9997 156.237 72.6663 161.33 67.5797C161.403 67.5055 161.491 67.447 161.587 67.4074C161.683 67.3679 161.786 67.3482 161.89 67.3497H162.46C163.166 67.3465 163.859 67.5405 164.46 67.9097C164.725 68.039 164.937 68.2563 165.059 68.5245C165.181 68.7927 165.207 69.095 165.13 69.3797C164.83 71.6331 164.607 74.0697 164.46 76.6897C164.31 79.3197 164.24 82.1997 164.24 85.3497V188.85C164.24 192.6 164.94 195.45 166.37 197.4C167.8 199.35 170.23 200.89 173.69 202.01C177.15 203.13 181.93 204.45 188.09 205.95C189.008 206.108 189.885 206.448 190.67 206.95C191.028 207.131 191.332 207.405 191.55 207.742C191.767 208.08 191.892 208.469 191.91 208.87C191.91 210.52 190.86 211.34 188.76 211.34C184.56 211.34 180.69 211.23 177.17 211C173.65 210.77 170.17 210.59 166.82 210.44C163.47 210.29 159.74 210.22 155.69 210.22C151.64 210.22 147.81 210.29 144.21 210.44C140.61 210.59 137.01 210.78 133.41 211C129.81 211.22 125.99 211.38 121.95 211.38Z" fill="#ED057D"/>
<path d="M42.5902 71.3802L46.8002 71.2603C46.2702 53.1903 49.9102 39.6203 53.0502 31.4103C56.4602 22.5203 60.0502 17.8303 60.0502 17.7903L56.7202 15.2002C56.1202 16.0002 41.5202 35.1903 42.5902 71.3802Z" fill="#ED057D"/>
<path d="M48.7404 31.78C45.8404 26.38 46.3504 18.78 50.0704 11.95C53.7904 5.11995 59.9204 0.579985 66.0704 0.109985L67.4404 0L68.0904 1.20996C71.0004 6.60996 70.4904 14.21 66.7604 21.04C63.0304 27.87 56.9104 32.41 50.7604 32.89L49.3904 32.99L48.7404 31.78ZM53.7404 13.97C51.0404 18.91 50.3404 24.42 51.8304 28.47C56.0304 27.53 60.2904 23.97 62.9904 19.02C65.6904 14.07 66.3804 8.57003 64.9004 4.53003C60.7404 5.46003 56.4804 9 53.7804 14L53.7404 13.97Z" fill="#ED057D"/>
<path d="M44.1402 53.1401C39.2802 52.8401 34.3802 49.3401 31.3502 44.0001C28.3202 38.6601 27.8402 32.6501 30.0802 28.3201L30.7202 27.1001L32.0902 27.1901C36.9502 27.4901 41.8502 31.0001 44.8802 36.3301C47.9102 41.6601 48.3902 47.6801 46.1502 52.0101L45.5102 53.2301L44.1402 53.1401ZM35.0202 41.9202C37.0202 45.4002 40.0202 47.9201 42.9502 48.7001C43.8002 45.7601 43.1802 41.8902 41.2102 38.4102C39.2402 34.9302 36.2102 32.4101 33.2802 31.6401C32.4302 34.5801 33.0502 38.4402 35.0202 41.9202Z" fill="#ED057D"/>
<path d="M46.7502 62.3101C49.6802 49.6001 65.6902 39.47 65.8502 39.37L63.6101 35.79C60.3487 37.9277 57.2833 40.3505 54.4501 43.03C48.0201 49.1 44.0501 55.26 42.6401 61.36L46.7502 62.3101Z" fill="#ED057D"/>
</svg>
