<svg width="243" height="146" viewBox="0 0 243 146" fill="none" xmlns="http://www.w3.org/2000/svg">
<path d="M45 145.86C37.8499 146.015 30.8495 143.8 25.09 139.56C19.22 135.077 14.4151 129.35 11.02 122.79C7.16921 115.536 4.36792 107.772 2.70001 99.7299C0.918736 91.5154 0.0136618 83.1352 0 74.7299C0.0149976 66.0337 0.919721 57.3618 2.70001 48.8498C4.3605 40.5377 7.20268 32.5062 11.14 24.9999C14.6671 18.1469 19.7036 12.1838 25.87 7.55993C31.87 3.13993 38.9967 0.929921 47.25 0.929921C54.4007 0.770431 61.4026 2.98592 67.16 7.22985C73.0275 11.713 77.8291 17.4402 81.22 23.9999C85.0672 31.2354 87.8717 38.9788 89.55 46.9999C91.325 55.0936 92.2301 63.3538 92.25 71.6399C92.2271 80.2596 91.3224 88.8544 89.55 97.2899C87.8652 105.665 85.0247 113.766 81.11 121.36C77.6244 128.303 72.629 134.378 66.49 139.14C60.5567 143.62 53.3933 145.86 45 145.86ZM48.82 140.01C54.82 140.01 59.66 136.97 63.34 130.89C67.02 124.81 69.6867 116.9 71.34 107.16C73.0448 96.7476 73.8743 86.2107 73.82 75.6599C73.8271 67.3728 73.1884 59.0978 71.91 50.9099C70.7788 43.3667 68.8169 35.9717 66.06 28.8599C63.4333 22.2599 60.2067 17.0099 56.38 13.1099C54.6742 11.2616 52.6034 9.78733 50.2986 8.78039C47.9938 7.77344 45.5051 7.2557 42.99 7.25988C36.99 7.25988 32.23 10.1832 28.71 16.0299C25.19 21.8766 22.64 29.6398 21.06 39.3198C19.4253 49.7022 18.6328 60.1997 18.69 70.7098C18.6855 79.0802 19.3274 87.4383 20.61 95.7098C21.7263 103.343 23.6092 110.844 26.23 118.1C28.71 124.767 31.8233 130.1 35.57 134.1C37.2346 135.966 39.2767 137.457 41.561 138.474C43.8452 139.491 46.3195 140.011 48.82 140V140.01Z" fill="#ED057D"/>
<path d="M192.15 143.38C191.15 143.38 189.45 143.3 187.2 143.16C184.95 143.02 182.4 142.85 179.55 142.71L170.66 142.26C167.58 142.107 164.617 142.03 161.77 142.03C158.923 142.03 154.873 142.107 149.62 142.26C144.373 142.413 138.86 142.523 133.08 142.59C127.3 142.657 122.24 142.77 117.9 142.93C113.553 143.077 110.777 143.153 109.57 143.16C108.544 142.948 107.605 142.436 106.87 141.69C105.67 140.69 105.07 139.93 105.07 139.33C105.011 138.768 105.172 138.205 105.52 137.76L106.87 136.41L145.35 96.58C152.827 88.808 159.118 79.9765 164.02 70.37C168.816 61.3174 171.364 51.2442 171.45 41C171.45 33.0534 169.05 26.79 164.25 22.21C162.028 20.0095 159.393 18.2704 156.496 17.0931C153.599 15.9157 150.497 15.3233 147.37 15.35C141.297 15.3254 135.351 17.0849 130.27 20.4101C125.076 23.7233 120.754 28.2368 117.67 33.57C117.258 34.4224 116.684 35.1865 115.98 35.82C115.41 36.3792 114.648 36.7009 113.85 36.72C113.25 36.72 112.53 36.0901 111.71 34.8101C110.832 33.3527 110.401 31.6699 110.47 29.97C110.47 28.17 111.557 25.6968 113.73 22.5501C116.337 18.9411 119.403 15.687 122.85 12.87C127.058 9.38398 131.759 6.5399 136.8 4.4301C142.354 2.09753 148.327 0.930041 154.35 1.00004C161.85 1.00004 168.3 2.57335 173.7 5.72001C178.999 8.75916 183.298 13.2766 186.07 18.72C189.027 24.7337 190.495 31.3702 190.35 38.07C190.285 42.5018 189.564 46.8997 188.21 51.12C186.732 55.8839 184.772 60.4844 182.36 64.85C179.926 69.2919 177.101 73.5084 173.92 77.45C171.973 79.85 169.087 83.0367 165.26 87.01C161.433 90.9834 157.31 95.22 152.89 99.72C148.463 104.22 144.263 108.457 140.29 112.43C136.317 116.403 133.053 119.703 130.5 122.33C127.953 124.963 126.677 126.427 126.67 126.72C126.67 127.47 127.72 128 129.82 128.3C132.367 128.453 135.253 128.603 138.48 128.75C141.707 128.897 145.42 128.97 149.62 128.97C153.967 128.97 158.3 128.897 162.62 128.75L175.22 128.3C178.615 128.109 181.997 127.732 185.35 127.17C187.59 126.797 189.687 125.826 191.42 124.36C193.478 122.426 195.225 120.186 196.6 117.72C197.2 116.82 197.98 115.72 198.96 114.46C199.312 113.905 199.792 113.443 200.359 113.11C200.926 112.778 201.564 112.586 202.22 112.55C202.517 112.506 202.819 112.574 203.068 112.74C203.318 112.907 203.496 113.159 203.57 113.45C203.72 114.038 203.798 114.643 203.8 115.25C203.597 116.761 203.179 118.236 202.56 119.63C201.73 121.81 200.8 124.47 199.75 127.63C198.637 131.021 197.735 134.478 197.05 137.98C196.597 140.38 195.847 141.88 194.8 142.48C194.005 142.996 193.095 143.305 192.15 143.38Z" fill="#ED057D"/>
<path d="M200.18 121.72L196.77 119.72C212.95 91.6502 209.55 70.1103 209.51 69.9003L213.4 69.2402C213.55 70.2002 217.06 92.4402 200.18 121.72Z" fill="#ED057D"/>
<path d="M211.36 54.3999C207.36 57.0699 204.52 62.8899 204.56 69.6399C204.6 76.3899 207.47 82.1699 211.56 84.7899C215.56 82.1199 218.4 76.2999 218.36 69.5499C218.32 62.7999 215.44 56.9999 211.36 54.3999Z" fill="#ED057D"/>
<path d="M203.81 114.94L200.6 112.66C207.364 103.062 217.326 96.1876 228.7 93.27L229.48 97.13L229.09 95.2L229.48 97.13C219.115 99.9055 210.039 106.202 203.81 114.94Z" fill="#ED057D"/>
<path d="M242.61 88.2601C242.11 93.0801 238.24 98.26 232.24 101.33C226.24 104.4 219.78 104.55 215.57 102.14C216.07 97.3201 219.94 92.14 225.94 89.07C231.94 86 238.4 85.8501 242.61 88.2601Z" fill="#ED057D"/>
<path d="M203.54 98.0698C200.33 98.2998 196.54 96.3699 193.79 92.7999C191.04 89.2299 190.25 85.0299 191.34 81.9999C194.55 81.7599 198.34 83.6999 201.08 87.2699C203.82 90.8399 204.63 94.9998 203.54 98.0698Z" fill="#ED057D"/>
</svg>
