<svg width="197" height="198" viewBox="0 0 197 198" fill="none" xmlns="http://www.w3.org/2000/svg">
<path d="M45 191.86C37.8499 192.015 30.8494 189.8 25.09 185.56C19.22 181.077 14.4151 175.35 11.02 168.79C7.16921 161.536 4.36785 153.772 2.69995 145.73C0.918675 137.515 0.0136618 129.135 0 120.73C0.0149976 112.034 0.91966 103.362 2.69995 94.8498C4.36044 86.5377 7.20268 78.5062 11.14 70.9999C14.6671 64.1469 19.7036 58.1838 25.87 53.5599C31.87 49.1399 38.9967 46.9299 47.25 46.9299C54.4007 46.7704 61.4026 48.9859 67.16 53.2298C73.0264 57.7102 77.8279 63.4338 81.22 69.9899C85.0672 77.2254 87.8717 84.9688 89.55 92.9899C91.325 101.084 92.2301 109.344 92.25 117.63C92.2271 126.25 91.3224 134.844 89.55 143.28C87.8652 151.655 85.0247 159.756 81.11 167.35C77.6244 174.293 72.629 180.368 66.49 185.13C60.5567 189.617 53.3933 191.86 45 191.86ZM48.8199 186.01C54.8199 186.01 59.66 182.97 63.34 176.89C67.02 170.81 69.6866 162.9 71.34 153.16C73.0447 142.748 73.8743 132.211 73.8199 121.66C73.827 113.373 73.1885 105.098 71.91 96.9099C70.7789 89.3667 68.817 81.9717 66.0601 74.8599C63.4334 68.2599 60.2067 63.0099 56.38 59.1099C54.6742 57.2616 52.6034 55.7873 50.2986 54.7804C47.9938 53.7734 45.5051 53.2557 42.99 53.2599C36.99 53.2599 32.23 56.1832 28.71 62.0299C25.19 67.8766 22.6401 75.6398 21.0601 85.3198C19.4254 95.7022 18.6327 106.2 18.6899 116.71C18.6855 125.08 19.3274 133.438 20.61 141.71C21.7263 149.343 23.6092 156.844 26.23 164.1C28.71 170.767 31.8233 176.1 35.5699 180.1C37.2346 181.966 39.2766 183.457 41.5609 184.474C43.8452 185.491 46.3195 186.011 48.8199 186V186.01Z" fill="#ED057D"/>
<path d="M134.1 197.26C130.372 197.211 126.67 196.642 123.1 195.57C119.664 194.628 116.343 193.307 113.2 191.63C110.5 190.13 109.15 188.78 109.15 187.58C109.344 186.099 109.97 184.708 110.95 183.58C112.141 181.943 113.539 180.467 115.11 179.19C116.69 177.92 118 177.28 119.05 177.28C120.652 177.266 122.22 177.736 123.55 178.63C124.883 179.53 126.31 180.58 127.83 181.78C129.942 183.545 132.2 185.128 134.58 186.51C137.133 188.01 140.506 188.76 144.7 188.76C150.237 188.762 155.675 187.284 160.45 184.48C165.437 181.597 169.649 177.544 172.72 172.67C175.932 167.675 177.612 161.848 177.55 155.91C177.568 150.156 176.58 144.443 174.63 139.03C172.872 133.93 169.9 129.334 165.97 125.64C162.137 122.12 157.296 120.36 151.45 120.36C149.23 120.407 147.016 120.594 144.82 120.92C141.992 121.312 139.271 122.267 136.82 123.73C136.42 123.952 135.967 124.06 135.509 124.04C135.052 124.021 134.609 123.875 134.23 123.62C133.23 123.1 132.84 122.46 132.99 121.71C133.506 119.91 134.43 118.254 135.69 116.87C136.803 115.654 138.168 114.695 139.69 114.06C141.023 113.46 143.2 112.297 146.22 110.57C149.556 108.621 152.751 106.439 155.78 104.04C159.095 101.484 162.013 98.451 164.44 95.0399C166.795 91.8085 168.057 87.9088 168.04 83.9099C168.088 77.9219 165.955 72.1209 162.04 67.5899C160.218 65.3269 157.901 63.5121 155.268 62.2847C152.634 61.0573 149.755 60.4501 146.85 60.5099C140.997 60.5099 136.31 61.5099 132.79 63.5099C129.563 65.2945 126.7 67.669 124.35 70.5099C122.558 72.6882 120.978 75.0321 119.63 77.5099C118.63 79.5099 117.63 80.5099 116.7 80.5099C115.81 80.3508 115.009 79.8704 114.45 79.1599C114.038 78.7905 113.706 78.3409 113.474 77.8389C113.242 77.3368 113.115 76.7928 113.1 76.2399C113.1 74.2866 113.927 71.6965 115.58 68.4699C117.587 64.7893 120.212 61.4811 123.34 58.6898C127.296 55.1157 131.871 52.2929 136.84 50.3599C142.313 48.1132 148.877 46.9899 156.53 46.9899C161.406 46.9752 166.218 48.0911 170.59 50.2499C174.897 52.3299 178.639 55.4171 181.5 59.2499C184.367 63.1178 185.872 67.8263 185.78 72.6399C185.73 76.4965 184.967 80.3106 183.53 83.8899C181.785 88.1733 179.266 92.0987 176.1 95.4699C172.012 99.7967 167.292 103.479 162.1 106.39C161.65 106.54 161.43 106.8 161.43 107.17C161.43 107.54 161.73 107.74 162.33 107.74C168.448 107.647 174.463 109.325 179.65 112.57C184.728 115.778 188.941 120.184 191.92 125.4C195.003 130.77 196.595 136.868 196.53 143.06C196.658 150.931 194.801 158.707 191.13 165.67C187.567 172.306 182.663 178.129 176.73 182.77C170.698 187.518 163.882 191.173 156.59 193.57C149.341 196.004 141.746 197.251 134.1 197.26Z" fill="#ED057D"/>
<path d="M155.81 54.7599C153.94 37.8999 128.22 3.91983 127.96 3.57983L130.28 1.81982C131.36 3.23982 156.74 36.8198 158.7 54.4398L155.81 54.7599Z" fill="#ED057D"/>
<path d="M154.65 43.4301L152.52 42.6C144.79 39.6 137.17 31.6 132.16 21.16C129.283 15.346 127.542 9.03647 127.03 2.56995L126.88 0.290039L129.01 1.12C136.74 4.12 144.36 12.1201 149.37 22.5601C152.247 28.3741 153.988 34.6835 154.5 41.15L154.65 43.4301ZM134.75 19.9C138.89 28.48 145.09 35.51 151.33 38.85C150.59 33.639 149.034 28.577 146.72 23.85C142.58 15.26 136.38 8.22998 130.14 4.84998C130.876 10.0618 132.432 15.1244 134.75 19.85V19.9Z" fill="#ED057D"/>
<path d="M157.75 49.9998H154.84C154.84 46.4098 156.21 41.9098 158.23 36.2598L160.97 37.2598C159.3 41.8698 157.75 46.6298 157.75 49.9998Z" fill="#ED057D"/>
<path d="M157.81 41.6803L157.59 39.1503C157.283 34.439 157.887 29.7127 159.37 25.2302C161.93 17.0102 166.67 9.82024 172.04 6.00024L174.11 4.53027L174.33 7.0603C174.637 11.7716 174.032 16.4977 172.55 20.9802C169.99 29.2002 165.25 36.3902 159.88 40.2102L157.81 41.6803ZM171.51 10.2102C167.6 13.9202 164.13 19.7502 162.14 26.1002C161.108 29.3043 160.526 32.6361 160.41 36.0002C164.32 32.2902 167.79 26.4602 169.78 20.1102C170.812 16.9061 171.394 13.5743 171.51 10.2102Z" fill="#ED057D"/>
</svg>
