<svg width="214" height="182" viewBox="0 0 214 182" fill="none" xmlns="http://www.w3.org/2000/svg">
<path d="M52.1299 181.17C44.9769 181.324 37.9738 179.109 32.2099 174.87C26.3458 170.383 21.5449 164.657 18.1499 158.1C14.2991 150.846 11.4978 143.082 9.82988 135.04C8.0486 126.826 7.14354 118.445 7.12988 110.04C7.14488 101.344 8.04959 92.6722 9.82988 84.1602C11.4916 75.8499 14.3302 67.8189 18.2599 60.3101C21.7974 53.4695 26.8365 47.5177 32.9999 42.9002C38.9999 38.4802 46.1265 36.2701 54.3799 36.2701C61.5304 36.1121 68.5318 38.3276 74.2899 42.5702C80.1514 47.0474 84.9523 52.7634 88.3499 59.3101C92.1927 66.53 94.997 74.2562 96.6799 82.2601C98.4548 90.3538 99.36 98.6142 99.3799 106.9C99.357 115.52 98.4522 124.115 96.6799 132.55C94.9906 140.924 92.1503 149.025 88.2399 156.62C84.7505 163.564 79.7518 169.639 73.6099 174.4C67.6899 178.914 60.5299 181.17 52.1299 181.17ZM55.9999 175.31C61.9999 175.31 66.8366 172.27 70.5099 166.19C74.1832 160.11 76.8499 152.2 78.5099 142.46C80.2146 132.048 81.0442 121.511 80.9899 110.96C80.9986 102.673 80.3567 94.3971 79.0699 86.21C77.9446 78.6819 75.9824 71.3029 73.2199 64.21C71.0707 58.3718 67.7838 53.0183 63.5499 48.46C61.8437 46.6122 59.7728 45.1383 57.4681 44.1314C55.1634 43.1245 52.6749 42.6066 50.1599 42.6102C44.1599 42.6102 39.3965 45.5335 35.8699 51.3802C32.3432 57.2269 29.7932 64.9903 28.2199 74.6703C26.5938 85.0535 25.8046 95.5505 25.8599 106.06C25.8571 114.43 26.4956 122.788 27.7699 131.06C28.8894 138.694 30.7756 146.195 33.3999 153.45C35.8732 160.117 38.9865 165.45 42.7399 169.45C44.4084 171.311 46.4536 172.796 48.7397 173.806C51.0258 174.817 53.5006 175.329 55.9999 175.31Z" fill="#ED057D"/>
<path d="M152.25 178.69C151.349 178.653 150.466 178.425 149.66 178.02C149.213 177.842 148.833 177.53 148.572 177.127C148.31 176.724 148.18 176.25 148.2 175.77C148.218 175.369 148.357 174.983 148.598 174.662C148.838 174.341 149.17 174.1 149.55 173.97C150.4 173.536 151.31 173.233 152.25 173.07C159.303 172.17 163.953 170.67 166.2 168.57C167.34 167.468 168.231 166.135 168.814 164.66C169.397 163.186 169.658 161.603 169.58 160.02V139.09C169.58 138.34 169.05 137.82 168 137.52C167.411 137.329 166.809 137.178 166.2 137.07C160.053 137.07 154.316 137.18 148.99 137.4C143.663 137.62 138.076 137.847 132.23 138.08C126.376 138.3 119.473 138.487 111.52 138.64C111.215 138.636 110.915 138.563 110.643 138.427C110.371 138.29 110.134 138.092 109.95 137.85C109.557 137.459 109.316 136.942 109.27 136.39C109.261 136.269 109.277 136.147 109.317 136.031C109.356 135.916 109.419 135.81 109.5 135.72C111.45 133.32 112.88 131.63 113.77 130.65C114.66 129.67 115.42 128.85 116.02 128.18C116.835 127.231 117.587 126.229 118.27 125.18L177.67 39.9099C178.663 38.4468 179.756 37.0534 180.94 35.7397C182.206 34.3197 183.366 33.6099 184.42 33.6099H189.15C189.903 33.6099 189.753 34.6598 188.7 36.7598L128 124.02C127.814 124.416 127.663 124.827 127.55 125.25C127.4 125.78 127.55 126.04 128 126.04H166.93C167.568 126.029 168.189 125.835 168.72 125.48C168.966 125.369 169.179 125.197 169.338 124.98C169.498 124.762 169.598 124.507 169.63 124.24V89.3699C169.571 88.2331 169.682 87.0937 169.96 85.9897C170.308 85.2739 170.91 84.7141 171.65 84.4199C173.895 83.2213 176.331 82.4194 178.85 82.0498C180.637 81.7522 182.44 81.5651 184.25 81.4897C185.903 81.4897 186.876 82.6898 187.17 85.0898C187.529 88.6781 187.683 92.2841 187.63 95.8899V124.89C187.63 125.79 188 126.24 188.75 126.24C190.4 126.39 191.97 126.46 193.47 126.46H197.75C199.85 126.46 201.99 126.46 204.16 126.35C206.33 126.24 208.62 126.16 211.03 126.01C212.67 126.01 213.5 126.61 213.5 127.81C213.467 129.147 213.124 130.458 212.5 131.64C211.916 132.84 211.198 133.971 210.36 135.01C209.61 135.91 209.08 136.36 208.79 136.36C207.13 136.36 205.33 136.36 203.39 136.25C201.45 136.14 199.56 136.14 197.76 136.14C196.41 136.14 195.13 136.14 193.94 136.25C192.75 136.36 191.68 136.44 190.79 136.59C190.131 136.757 189.489 136.981 188.87 137.26C188.2 137.56 187.87 137.79 187.87 137.94V159.09C187.87 163.443 188.87 166.443 190.87 168.09C192.87 169.737 196.87 171.403 202.87 173.09C203.839 173.269 204.759 173.651 205.57 174.21C205.944 174.403 206.263 174.687 206.498 175.037C206.732 175.387 206.874 175.79 206.91 176.21C206.888 176.549 206.786 176.878 206.612 177.17C206.438 177.462 206.197 177.709 205.91 177.89C205.238 178.419 204.404 178.698 203.55 178.68C199.35 178.68 196.016 178.567 193.55 178.34C191.083 178.113 188.793 177.926 186.68 177.78C184.58 177.63 181.74 177.56 178.13 177.56C174.52 177.56 171.35 177.63 169.02 177.78C166.69 177.93 164.33 178.12 161.93 178.34C159.53 178.56 156.3 178.69 152.25 178.69Z" fill="#ED057D"/>
<path d="M31.8701 48.7397L28.3101 48.6299C28.7868 37.1748 26.9924 25.7383 23.0301 14.9797C21.57 10.8982 19.576 7.02792 17.1001 3.46973L19.9201 1.27979C20.4401 1.95979 32.7701 18.1697 31.8701 48.7397Z" fill="#ED057D"/>
<path d="M28.0001 37.45C27.7001 24.6 35.5801 11.6601 35.9101 11.1201L38.9101 12.99C38.8101 13.15 31.25 25.6001 31.53 37.3601L28.0001 37.45Z" fill="#ED057D"/>
<path d="M28.2299 42.1003C25.9465 32.7114 20.3456 24.4646 12.46 18.8804L14.32 15.8804C23.0622 21.9126 29.2553 30.974 31.7 41.3103L28.2299 42.1003Z" fill="#ED057D"/>
<path d="M49.09 0.0200107C50.6 4.14001 49.5 9.88001 45.84 14.77C42.18 19.66 36.99 22.33 32.61 22.04C31.1 17.92 32.2 12.19 35.86 7.30004C39.52 2.41004 44.71 -0.259989 49.09 0.0200107Z" fill="#ED057D"/>
<path d="M17.65 19.9902C15.49 21.9902 11.65 22.6803 7.77002 21.6303C3.89002 20.5803 0.92002 18.0402 0.0200195 15.2802C2.18002 13.3302 6.02002 12.5904 9.91002 13.6404C13.8 14.6904 16.75 17.2202 17.65 19.9902Z" fill="#ED057D"/>
</svg>
