<svg width="193" height="185" viewBox="0 0 193 185" fill="none" xmlns="http://www.w3.org/2000/svg">
<path d="M45.25 179.938C38.0999 180.093 31.0995 177.878 25.34 173.638C19.47 169.155 14.6651 163.428 11.27 156.868C7.41921 149.614 4.61792 141.85 2.95001 133.808C1.16874 125.594 0.263662 117.213 0.25 108.808C0.264998 100.112 1.16972 91.4402 2.95001 82.9282C4.6105 74.6161 7.45268 66.5845 11.39 59.0781C14.9171 52.2251 19.9536 46.262 26.12 41.6382C32.12 37.2182 39.2467 35.008 47.5 35.008C54.6507 34.8486 61.6526 37.0642 67.41 41.3081C73.2775 45.7913 78.0791 51.5185 81.47 58.0781C85.3172 65.3137 88.1217 73.057 89.8 81.0781C91.575 89.1718 92.4801 97.432 92.5 105.718C92.4771 114.338 91.5724 122.933 89.8 131.368C88.1152 139.744 85.2747 147.845 81.36 155.438C77.8744 162.382 72.879 168.456 66.74 173.218C60.8067 177.698 53.6433 179.938 45.25 179.938ZM49.07 174.088C55.07 174.088 59.91 171.048 63.59 164.968C67.27 158.888 69.9367 150.978 71.59 141.238C73.2948 130.826 74.1243 120.289 74.07 109.738C74.0771 101.451 73.4384 93.1759 72.16 84.988C71.0252 77.4618 69.0634 70.0838 66.31 62.988C63.6833 56.388 60.4567 51.138 56.63 47.238C54.9242 45.3897 52.8534 43.9156 50.5486 42.9087C48.2438 41.9017 45.7551 41.384 43.24 41.3882C37.24 41.3882 32.48 44.3115 28.96 50.1582C25.44 56.0049 22.89 63.7682 21.31 73.4482C19.6753 83.8306 18.8828 94.328 18.94 104.838C18.9355 113.208 19.5774 121.567 20.86 129.838C21.9763 137.471 23.8592 144.972 26.48 152.228C28.96 158.895 32.0733 164.228 35.82 168.228C37.4892 170.085 39.5332 171.567 41.8173 172.575C44.1013 173.583 46.5733 174.096 49.07 174.078V174.088Z" fill="#ED057D"/>
<path d="M122.65 184.57C120.836 184.553 119.028 184.362 117.25 184C115.25 183.63 114.32 182.91 114.32 181.87C114.32 180.657 115.32 179.657 117.32 178.87C118.915 178.144 120.631 177.723 122.38 177.63C134.227 177.63 144.017 175.493 151.75 171.22C159.484 166.947 165.257 161.583 169.07 155.13C172.711 149.324 174.696 142.633 174.81 135.78C174.888 130.17 173.062 124.699 169.63 120.26C166.184 115.76 160.517 111.633 152.63 107.88C144.744 104.127 134.13 100.527 120.79 97.0801C119.084 95.7272 117.669 94.0435 116.63 92.1301C115.796 90.4535 115.371 88.6027 115.39 86.73C115.465 84.1365 115.882 81.5644 116.63 79.0801C117.45 76.0801 118.45 72.8934 119.63 69.52C120.81 66.1467 122.01 62.8134 123.23 59.52C124.43 56.22 125.407 53.37 126.16 50.97C126.775 48.9298 127.941 47.0992 129.53 45.6802C131.239 44.3066 133.24 43.3451 135.38 42.8701C138.827 41.9701 142.354 41.1435 145.96 40.3901C149.567 39.6368 153.317 38.9233 157.21 38.25C161.11 37.5833 165.11 36.9833 169.21 36.45C173.31 35.9166 177.55 35.43 181.93 34.99C182.412 34.8751 182.918 34.9094 183.381 35.0879C183.843 35.2664 184.24 35.5809 184.52 35.99C184.775 36.4213 184.899 36.9172 184.878 37.4177C184.857 37.9183 184.691 38.402 184.4 38.8101C183.8 40.0101 183.17 41.25 182.49 42.52C181.81 43.79 181.18 45.03 180.58 46.23C179.771 48.1351 178.584 49.8565 177.09 51.29C175.72 52.46 174.038 53.204 172.25 53.4302C169.404 53.7302 166.104 54.0635 162.35 54.4302L151.1 55.5601C147.35 55.9401 143.9 56.2701 140.75 56.5601C137.6 56.8501 135.2 57.16 133.55 57.46C132.504 57.6133 131.23 58.9268 129.73 61.4002C128.202 63.928 126.849 66.5573 125.68 69.27C124.773 71.1816 124.101 73.1964 123.68 75.27C123.51 76.1835 123.629 77.1272 124.02 77.97C124.308 78.4079 124.69 78.7762 125.138 79.0479C125.586 79.3195 126.089 79.4876 126.61 79.5401C135.01 81.9401 142.66 84.3768 149.56 86.8501C155.735 89.0152 161.75 91.6116 167.56 94.6201C175.96 98.9668 182.224 104.103 186.35 110.03C190.477 115.957 192.537 123.493 192.53 132.64C192.514 140.948 189.922 149.047 185.11 155.82C179.897 163.261 173.058 169.417 165.11 173.82C161.009 176.094 156.72 178.011 152.29 179.55C147.669 181.162 142.928 182.405 138.11 183.27C133.006 184.165 127.832 184.6 122.65 184.57Z" fill="#ED057D"/>
<path d="M134.43 48L132.08 47.53C134.27 36.53 131.98 28.53 129.68 23.76C128.329 20.8053 126.429 18.1344 124.08 15.8899L125.63 14.05C128.208 16.4764 130.296 19.3757 131.78 22.5901C134.28 27.6801 136.77 36.26 134.43 48Z" fill="#ED057D"/>
<path d="M135.24 34.6699L132.9 34.1299C133.56 31.2499 135.45 27.8699 138.09 23.6799L140.09 24.96C138 28.4 135.86 31.9999 135.24 34.6699Z" fill="#ED057D"/>
<path d="M136.78 28L137.06 25.9099C137.664 22.0547 139.001 18.3511 141 15C144.54 8.85 149.64 3.91005 154.64 1.80005L156.57 0.97998L156.29 3.06006C155.696 6.90513 154.365 10.5992 152.37 13.9399C148.84 20.0999 143.74 25.0299 138.74 27.1499L136.78 28ZM153.44 5.12012C149.128 7.92345 145.564 11.737 143.06 16.23C141.655 18.6248 140.588 21.2025 139.89 23.8899C144.208 21.0881 147.772 17.27 150.27 12.77C151.68 10.3776 152.747 7.79921 153.44 5.11011V5.12012Z" fill="#ED057D"/>
<path d="M123.06 16.52C122.308 16.52 121.574 16.2972 120.949 15.8796C120.324 15.4621 119.837 14.8687 119.549 14.1743C119.261 13.48 119.186 12.7159 119.333 11.9788C119.479 11.2416 119.841 10.5644 120.373 10.033C120.904 9.50152 121.581 9.13955 122.318 8.99292C123.056 8.8463 123.82 8.92162 124.514 9.20923C125.208 9.49684 125.802 9.98398 126.219 10.6089C126.637 11.2338 126.86 11.9684 126.86 12.72C126.86 13.7278 126.459 14.6943 125.747 15.407C125.034 16.1196 124.068 16.52 123.06 16.52ZM123.06 11.3201C122.783 11.3201 122.512 11.4021 122.282 11.5559C122.052 11.7097 121.872 11.9285 121.766 12.1843C121.66 12.4401 121.633 12.7216 121.687 12.9932C121.741 13.2647 121.874 13.5142 122.07 13.71C122.266 13.9058 122.515 14.039 122.787 14.093C123.058 14.147 123.34 14.1194 123.596 14.0134C123.851 13.9075 124.07 13.728 124.224 13.4978C124.378 13.2676 124.46 12.9969 124.46 12.72C124.46 12.5361 124.424 12.3542 124.353 12.1843C124.283 12.0145 124.18 11.86 124.05 11.73C123.92 11.6 123.765 11.4969 123.596 11.4265C123.426 11.3562 123.244 11.3201 123.06 11.3201Z" fill="#ED057D"/>
</svg>
