<svg width="223" height="149" viewBox="0 0 223 149" fill="none" xmlns="http://www.w3.org/2000/svg">
<path d="M45 148.17C37.8499 148.325 30.8494 146.11 25.09 141.87C19.22 137.387 14.4151 131.66 11.02 125.1C7.16921 117.846 4.36785 110.082 2.69995 102.04C0.918675 93.8256 0.0136618 85.4454 0 77.04C0.0149976 68.3439 0.91966 59.6721 2.69995 51.1601C4.36044 42.848 7.20268 34.8164 11.14 27.31C14.6671 20.457 19.7036 14.494 25.87 9.87011C31.87 5.45011 38.9967 3.23998 47.25 3.23998C54.4007 3.08049 61.4026 5.2961 67.16 9.54003C73.0264 14.0204 77.8279 19.744 81.22 26.3C85.0628 33.5199 87.8672 41.2461 89.55 49.25C91.325 57.3437 92.2301 65.6041 92.25 73.8901C92.2271 82.5098 91.3224 91.1045 89.55 99.54C87.8652 107.916 85.0247 116.016 81.11 123.61C77.6244 130.553 72.629 136.629 66.49 141.39C60.5567 145.91 53.3933 148.17 45 148.17ZM48.8199 142.32C54.8199 142.32 59.66 139.28 63.34 133.2C67.02 127.12 69.6866 119.21 71.34 109.47C73.0447 99.0576 73.8743 88.5208 73.8199 77.97C73.827 69.6829 73.1885 61.4078 71.91 53.22C70.7753 45.6937 68.8134 38.3158 66.0601 31.22C63.4334 24.62 60.2067 19.37 56.38 15.47C54.6742 13.6217 52.6034 12.1476 50.2986 11.1406C47.9938 10.1337 45.5051 9.61593 42.99 9.62011C36.99 9.62011 32.23 12.5435 28.71 18.3901C25.19 24.2368 22.6401 32.0002 21.0601 41.6802C19.4254 52.0625 18.6327 62.56 18.6899 73.0701C18.6855 81.4404 19.3274 89.7986 20.61 98.0701C21.7263 105.703 23.6092 113.204 26.23 120.46C28.71 127.127 31.8233 132.46 35.5699 136.46C37.2391 138.317 39.2832 139.798 41.5673 140.807C43.8513 141.815 46.3233 142.328 48.8199 142.31V142.32Z" fill="#ED057D"/>
<path d="M154.57 148.62C146.936 148.611 139.406 146.838 132.57 143.44C125.458 139.934 119.461 134.519 115.25 127.8C110.75 120.834 108.5 112.097 108.5 101.59C108.316 87.1628 111.882 72.9349 118.85 60.3002C121.507 55.4859 124.554 50.8972 127.96 46.5802C130.389 43.4831 132.979 40.5155 135.72 37.6901C140.265 33.0664 145.073 28.7094 150.12 24.6403C156.499 19.4844 163.315 14.8937 170.49 10.9203C178.456 6.47032 186.963 3.06548 195.8 0.790196C196.879 0.468975 198.037 0.550696 199.06 1.02018C199.88 1.47018 200.15 1.92027 199.85 2.37027C199.285 3.66595 198.288 4.72598 197.03 5.37027C196.056 5.91174 195.055 6.40237 194.03 6.84024C184.793 10.718 176.063 15.7044 168.03 21.6901C160.49 27.5187 153.922 34.5055 148.57 42.3903C146.17 45.9903 143.32 50.9003 140.02 57.1203C136.541 63.7849 133.679 70.7538 131.47 77.9401C129.094 85.4344 127.88 93.2484 127.87 101.11C128.023 109.364 129.747 116.364 133.04 122.11C135.945 127.465 140.164 131.993 145.3 135.27C149.708 138.123 154.795 139.755 160.04 140C163.036 140.093 166.018 139.572 168.805 138.467C171.591 137.363 174.121 135.7 176.24 133.58C180.907 129.16 183.24 122.3 183.24 113C183.277 108.554 182.396 104.149 180.65 100.06C179.057 96.2739 176.59 92.9189 173.45 90.2702C170.461 87.7539 166.667 86.3978 162.76 86.4501C159.414 86.4102 156.07 86.6344 152.76 87.1203C149.963 87.5743 147.26 88.4865 144.76 89.8202C143.41 90.4202 142.63 90.3801 142.4 89.7101C142.315 89.282 142.343 88.8393 142.482 88.4255C142.62 88.0116 142.864 87.641 143.19 87.3503C144.39 86.1503 145.4 85.1703 146.19 84.4203C146.98 83.6703 148.02 82.8501 149.19 81.9501C152.069 80.1115 155.124 78.5641 158.31 77.3302C162.387 75.5321 166.785 74.5762 171.24 74.5202C176.238 74.4892 181.165 75.6958 185.583 78.0321C190.001 80.3685 193.772 83.7622 196.56 87.9103C199.397 92.1684 200.86 97.1945 200.75 102.31C200.863 108.902 199.496 115.436 196.75 121.43C194.163 126.979 190.491 131.954 185.95 136.06C181.549 140.044 176.468 143.204 170.95 145.39C165.747 147.505 160.186 148.601 154.57 148.62Z" fill="#ED057D"/>
<path d="M175.6 34.9897C173.3 39.2497 173.6 45.6999 176.83 51.6199C180.06 57.5399 185.33 61.2799 190.16 61.6199C192.45 57.3499 192.16 50.9097 188.92 44.9897C185.68 39.0697 180.43 35.3597 175.6 34.9897Z" fill="#ED057D"/>
<path d="M222.6 45.1899C223.85 48.6399 221.38 54.0301 215.69 59.1001C210 64.1701 202.69 67.52 196.97 68.04C195.73 64.59 198.2 59.2101 203.88 54.1301C209.56 49.0501 216.89 45.7099 222.6 45.1899Z" fill="#ED057D"/>
<path d="M188.75 89.3101H184.82C184.82 74.7901 198.06 63.3701 198.63 62.8901L201.18 65.8901L199.9 64.3901L201.18 65.8901C201.08 65.9901 188.75 76.6301 188.75 89.3101Z" fill="#ED057D"/>
<path d="M192.75 75.8398L188.85 75.2698C191.91 54.4298 177.85 44.0399 177.2 43.6099L179.48 40.3999C180.11 40.8899 196.11 52.5498 192.75 75.8398Z" fill="#ED057D"/>
</svg>
