<svg width="207" height="150" viewBox="0 0 207 150" fill="none" xmlns="http://www.w3.org/2000/svg">
<path d="M45 144.938C37.847 145.091 30.8439 142.877 25.08 138.638C19.216 134.151 14.415 128.425 11.02 121.868C7.16921 114.614 4.36792 106.85 2.70001 98.8079C0.918736 90.5935 0.0136618 82.2133 0 73.8079C0.0149976 65.1118 0.919721 56.4401 2.70001 47.9281C4.36171 39.6177 7.20029 31.5867 11.13 24.078C14.6675 17.2373 19.7066 11.2855 25.87 6.66806C31.87 2.24805 38.9967 0.0379283 47.25 0.0379283C54.4005 -0.120048 61.4019 2.09541 67.16 6.33798C73.0215 10.8152 77.8224 16.5312 81.22 23.078C85.0628 30.2978 87.8672 38.024 89.55 46.0279C91.325 54.1217 92.2301 62.382 92.25 70.6681C92.2271 79.2878 91.3224 87.8824 89.55 96.318C87.8607 104.692 85.0204 112.793 81.11 120.388C77.6207 127.332 72.6219 133.407 66.48 138.168C60.56 142.681 53.4 144.938 45 144.938ZM48.87 139.078C54.87 139.078 59.7067 136.038 63.38 129.958C67.0533 123.878 69.72 115.968 71.38 106.228C73.0847 95.8155 73.9143 85.2787 73.86 74.7279C73.8687 66.4403 73.2268 58.1649 71.94 49.9779C70.8147 42.4497 68.8525 35.0707 66.09 27.9779C63.9408 22.1396 60.6539 16.7861 56.42 12.2279C54.7138 10.3801 52.643 8.90617 50.3383 7.89926C48.0336 6.89235 45.545 6.37444 43.03 6.37802C37.03 6.37802 32.2667 9.30137 28.74 15.148C25.2133 20.9947 22.6633 28.7581 21.09 38.4381C19.4639 48.8213 18.6747 59.3183 18.73 69.828C18.7272 78.1979 19.3657 86.5556 20.64 94.828C21.7595 102.462 23.6458 109.963 26.27 117.218C28.7367 123.885 31.85 129.218 35.61 133.218C37.2785 135.079 39.3237 136.564 41.6098 137.574C43.8959 138.584 46.3707 139.097 48.87 139.078Z" fill="#ED057D"/>
<path d="M126.45 148.988C125.755 149.045 125.057 148.919 124.425 148.622C123.794 148.326 123.251 147.869 122.85 147.298C122.062 146.058 121.668 144.607 121.72 143.138C122.052 141.863 122.582 140.649 123.29 139.538C124.344 137.591 125.397 135.715 126.45 133.908L190.12 20.0781C190.404 19.6891 190.526 19.2051 190.46 18.728C190.38 18.278 189.52 17.9781 187.87 17.8281H130.27C127.007 17.747 123.771 18.432 120.82 19.8281C118.12 21.1615 115.497 23.9349 112.95 28.1482C112.64 28.5982 112.23 29.2782 111.71 30.1482C111.178 31.0497 110.533 31.8797 109.79 32.6182C109.509 32.9467 109.165 33.2159 108.779 33.4099C108.393 33.6039 107.972 33.7188 107.54 33.748C106.94 33.748 106.54 33.3682 106.31 32.6182C106.099 31.9718 105.985 31.2979 105.97 30.6182C105.984 29.7447 106.099 28.8756 106.31 28.0281C106.53 27.0281 106.72 26.2682 106.87 25.6682C107.624 22.3349 108.337 18.5082 109.01 14.1882C109.684 9.86823 110.17 6.26818 110.47 3.38818C110.476 3.00115 110.569 2.62038 110.742 2.27417C110.915 1.92796 111.164 1.62518 111.47 1.38818C111.842 1.14157 112.267 0.987338 112.71 0.938232C113.01 0.938232 115.07 1.26823 118.9 1.93823C123.1 2.63733 127.353 2.97191 131.61 2.93823H138.02C140.02 2.93823 142.33 2.9381 144.88 3.0481C147.43 3.1581 150.43 3.16821 153.88 3.16821C161.214 3.16821 168.604 3.1281 176.05 3.0481C183.497 2.9681 189.947 2.81814 195.4 2.59814C200.867 2.37814 204.277 2.19142 205.63 2.03809C205.93 2.03809 206.23 2.37809 206.53 3.03809C206.812 3.63975 206.966 4.29365 206.98 4.95801C206.811 6.67845 206.235 8.33409 205.3 9.78809C204.17 11.7881 202.94 13.7881 201.59 15.7881C200.24 17.7881 199.18 19.388 198.44 20.738L130.71 142.908C130.11 144.108 129.36 145.421 128.46 146.848C127.57 148.268 126.87 148.988 126.45 148.988Z" fill="#ED057D"/>
<path d="M150.67 96.4285C146.425 89.7831 140.512 84.3663 133.52 80.7183C130.711 79.2259 127.694 78.1609 124.57 77.5583L125 74.3884C125.68 74.4784 141.65 76.8085 153.35 94.6685L150.67 96.4285Z" fill="#ED057D"/>
<path d="M145.87 86.2275L142.87 87.3076C141.54 83.5776 141.25 78.4076 141.21 71.7976H144.42C144.43 77.2176 144.63 82.7275 145.87 86.2275Z" fill="#ED057D"/>
<path d="M142.81 77.5879L141.63 75.0479C139.571 70.2795 138.421 65.1684 138.24 59.9778C137.77 50.9778 139.42 44.6579 142.8 42.6479C143.452 42.241 144.206 42.0251 144.975 42.0251C145.744 42.0251 146.497 42.241 147.15 42.6479C149.3 43.9479 150.51 47.0678 150.3 50.7878C149.63 62.7878 147.81 70.3679 144.41 75.2979L142.81 77.5879ZM144.42 45.418C143.95 45.718 140.83 48.1579 141.42 59.8079C141.58 63.4851 142.218 67.1259 143.32 70.6379C145.98 64.7979 146.74 56.6379 147.08 50.6379C147.23 47.8179 146.35 45.958 145.47 45.428C145.322 45.3291 145.148 45.2761 144.97 45.2761C144.792 45.2761 144.618 45.3291 144.47 45.428L144.42 45.418Z" fill="#ED057D"/>
<path d="M123.87 79.0777C123.023 79.62 122.034 79.8986 121.029 79.8785C120.024 79.8583 119.047 79.5402 118.222 78.9644C117.398 78.3887 116.763 77.5813 116.398 76.6444C116.032 75.7074 115.954 74.6831 116.171 73.7012C116.388 72.7194 116.892 71.8242 117.619 71.129C118.345 70.4338 119.262 69.9698 120.252 69.796C121.243 69.6221 122.263 69.7462 123.183 70.1524C124.103 70.5586 124.881 71.2286 125.42 72.0777C126.14 73.2123 126.381 74.5858 126.091 75.8978C125.8 77.2097 125.002 78.3531 123.87 79.0777ZM120.14 73.2176C119.828 73.4163 119.582 73.7034 119.433 74.0421C119.284 74.3807 119.239 74.7558 119.303 75.1202C119.367 75.4845 119.538 75.8218 119.794 76.0889C120.05 76.3561 120.38 76.5411 120.741 76.6209C121.102 76.7007 121.479 76.6716 121.824 76.5372C122.169 76.4027 122.466 76.1691 122.678 75.8658C122.889 75.5625 123.007 75.203 123.014 74.8331C123.022 74.4632 122.919 74.0994 122.72 73.7877C122.455 73.3796 122.042 73.0908 121.568 72.9825C121.093 72.8742 120.596 72.9549 120.18 73.2076L120.14 73.2176Z" fill="#ED057D"/>
<path d="M128.21 64.9283C127.363 65.4706 126.374 65.7493 125.369 65.7291C124.363 65.709 123.387 65.3908 122.562 64.8151C121.738 64.2393 121.103 63.4319 120.737 62.495C120.372 61.558 120.293 60.5337 120.511 59.5519C120.728 58.57 121.232 57.6748 121.959 56.9796C122.685 56.2844 123.602 55.8205 124.592 55.6466C125.583 55.4727 126.603 55.5966 127.522 56.0028C128.442 56.409 129.221 57.0793 129.76 57.9283C130.477 59.0636 130.717 60.4363 130.426 61.7474C130.136 63.0586 129.339 64.202 128.21 64.9283ZM124.48 59.0682C124.168 59.267 123.922 59.5538 123.773 59.8925C123.624 60.2311 123.579 60.6065 123.643 60.9708C123.707 61.3352 123.878 61.6722 124.134 61.9393C124.39 62.2065 124.72 62.3917 125.081 62.4716C125.442 62.5514 125.819 62.5222 126.164 62.3878C126.509 62.2534 126.806 62.0198 127.017 61.7164C127.229 61.4131 127.346 61.0536 127.354 60.6837C127.362 60.3138 127.259 59.95 127.06 59.6383C126.791 59.2226 126.369 58.9303 125.886 58.8253C125.402 58.7203 124.897 58.8112 124.48 59.0782V59.0682Z" fill="#ED057D"/>
<path d="M141.1 81.7183L138.16 83.0083C134.07 73.7083 126.22 64.7184 126.16 64.6284L128.57 62.5183C128.87 62.8983 136.8 71.9483 141.1 81.7183Z" fill="#ED057D"/>
</svg>
