<svg width="197" height="145" viewBox="0 0 197 145" fill="none" xmlns="http://www.w3.org/2000/svg">
<path d="M45.25 144.938C38.0999 145.093 31.0994 142.878 25.34 138.638C19.47 134.155 14.6651 128.428 11.27 121.868C7.41921 114.614 4.61785 106.85 2.94995 98.8081C1.16867 90.5937 0.263662 82.2134 0.25 73.8081C0.264998 65.1119 1.16966 56.4402 2.94995 47.9282C4.61044 39.6161 7.45268 31.5845 11.39 24.0781C14.9171 17.2251 19.9536 11.262 26.12 6.63817C32.12 2.21817 39.2467 0.00804556 47.5 0.00804556C54.6507 -0.151444 61.6526 2.06417 67.41 6.30809C73.2764 10.7884 78.0779 16.5121 81.47 23.0681C85.3128 30.288 88.1172 38.0142 89.8 46.0181C91.575 54.1118 92.4801 62.3721 92.5 70.6582C92.4771 79.2779 91.5724 87.8725 89.8 96.3081C88.1152 104.684 85.2747 112.785 81.36 120.378C77.8744 127.321 72.879 133.397 66.74 138.158C60.8067 142.678 53.6433 144.938 45.25 144.938ZM49.0699 139.088C55.0699 139.088 59.91 136.048 63.59 129.968C67.27 123.888 69.9366 115.978 71.59 106.238C73.2947 95.8257 74.1243 85.2889 74.0699 74.738C74.077 66.4509 73.4385 58.1759 72.16 49.988C71.0253 42.4618 69.0634 35.0838 66.3101 27.988C63.6834 21.388 60.4567 16.138 56.63 12.238C54.9242 10.3897 52.8534 8.91563 50.5486 7.90868C48.2438 6.90173 45.7551 6.38399 43.24 6.38817C37.24 6.38817 32.48 9.31153 28.96 15.1582C25.44 21.0049 22.8901 28.7682 21.3101 38.4482C19.6754 48.8306 18.8827 59.328 18.9399 69.8381C18.9355 78.2085 19.5774 86.5666 20.86 94.8381C21.9763 102.471 23.8592 109.972 26.48 117.228C28.96 123.895 32.0733 129.228 35.8199 133.228C37.4891 135.085 39.5332 136.567 41.8173 137.575C44.1013 138.583 46.5733 139.096 49.0699 139.078V139.088Z" fill="#ED057D"/>
<path d="M152.57 144.938C145.834 144.971 139.179 143.47 133.11 140.548C127.232 137.784 122.158 133.564 118.37 128.288C114.599 122.967 112.63 116.579 112.75 110.058C112.574 104.02 114.391 98.0913 117.92 93.1881C121.283 88.6216 125.439 84.6959 130.19 81.5981C134.91 78.5247 139.147 75.938 142.9 73.8381C143.9 73.2381 144.32 72.788 144.02 72.488C143.72 72.188 143.12 71.6581 142.22 70.9081C137.72 67.0081 133.483 63.2946 129.51 59.768C125.632 56.3712 122.359 52.3407 119.83 47.8481C117.363 43.4281 116.127 38.0646 116.12 31.758C116.128 25.8617 118.29 20.1716 122.2 15.758C126.443 10.8114 131.748 6.88709 137.72 4.27799C143.788 1.48062 150.388 0.024192 157.07 0.00796956C163.01 -0.00841278 168.884 1.25701 174.29 3.71793C179.555 6.02932 184.156 9.62619 187.67 14.1781C191.156 18.7726 192.981 24.4126 192.85 30.1781C192.85 35.5781 191.517 39.9647 188.85 43.338C186.468 46.3705 183.832 49.194 180.97 51.778C178.87 53.578 176.997 55.1148 175.35 56.3881C173.703 57.6614 171.603 59.2746 169.05 61.2279C167.05 62.5779 166.12 63.518 166.12 64.038C166.12 64.558 166.72 65.1982 167.92 65.9482C173.155 69.4935 178.189 73.326 183 77.4281C187.084 80.8622 190.547 84.9718 193.24 89.578C195.796 94.265 197.075 99.5411 196.95 104.878C197.067 112.302 194.776 119.565 190.42 125.578C186.06 131.523 180.373 136.368 173.81 139.727C167.248 143.086 159.992 144.867 152.62 144.928L152.57 144.938ZM155.72 138.408C158.843 138.47 161.942 137.848 164.8 136.585C167.657 135.322 170.203 133.449 172.26 131.098C176.014 127.028 178.315 121.829 178.803 116.313C179.292 110.797 177.94 105.275 174.96 100.608C172.184 96.2315 168.819 92.2575 164.96 88.798C160.985 85.19 156.776 81.8493 152.36 78.798C151.627 78.1545 150.837 77.5789 150 77.078C149.35 76.7118 148.616 76.5188 147.87 76.518C146.861 76.7053 145.925 77.1733 145.17 77.8681C140.921 81.1584 137.268 85.153 134.37 89.6781C131.97 93.6781 130.77 99.2648 130.77 106.438C130.759 111.642 131.75 116.799 133.69 121.628C135.494 126.279 138.433 130.404 142.24 133.628C146.005 136.804 150.795 138.503 155.72 138.408ZM162.92 61.2379C168.173 56.8913 171.587 52.0914 173.16 46.838C174.823 40.9072 175.618 34.7668 175.52 28.6081C175.666 22.7987 173.976 17.0912 170.69 12.298C167.457 7.73134 162.543 5.44481 155.95 5.43815C152.304 5.49064 148.736 6.49732 145.6 8.35807C142.158 10.3009 139.198 12.9942 136.94 16.2379C134.643 19.4437 133.422 23.2946 133.45 27.2379C133.45 32.938 134.537 37.438 136.71 40.7379C139.178 44.3352 142.311 47.4275 145.94 49.8481C149.94 52.6281 154.55 56.1913 159.77 60.538C160.266 60.8588 160.796 61.1238 161.35 61.328C161.599 61.444 161.872 61.4963 162.146 61.4806C162.42 61.4649 162.686 61.3816 162.92 61.2379Z" fill="#ED057D"/>
</svg>
