<svg width="132" height="439" viewBox="0 0 132 439" fill="none" xmlns="http://www.w3.org/2000/svg">
<g clip-path="url(#clip0)">
<path d="M25.0001 143.4C20.5001 143.4 13.3001 142.7 6.90011 138.6C0.800107 134.7 -1.69989 127.8 1.20011 123.1C4.30011 118.3 13.3001 119 17.6001 121.7C27.4001 128 31.0001 139.7 31.2001 140.2L32.0001 142.7L29.4001 143.1C29.2001 143.1 27.5001 143.4 25.0001 143.4ZM9.30011 124.1C7.40011 124.1 5.70011 124.5 5.10011 125.5C3.60011 127.9 5.60011 132.3 9.40011 134.7C15.1001 138.3 22.0001 138.8 25.8001 138.7C24.3001 135.2 20.9001 129.2 15.2001 125.5C13.8001 124.7 11.4001 124.1 9.30011 124.1Z" fill="#ED057D"/>
<path d="M18.9001 171.9C17.6001 171.9 16.3001 171.8 14.9001 171.6C7.80011 170.5 2.60011 165.2 3.40011 159.8C4.20011 154.2 12.7001 151.1 17.8001 151.8C29.4001 153.5 37.4001 162.7 37.7001 163.1L39.4001 165.1L37.2001 166.5C36.9001 166.8 28.7001 171.9 18.9001 171.9ZM16.2001 156.3C12.9001 156.3 8.30011 158.3 8.00011 160.5C7.60011 163.3 11.2001 166.5 15.7001 167.1C22.4001 168.1 28.9001 165.7 32.3001 164.1C29.5001 161.5 24.0001 157.4 17.3001 156.4C16.9001 156.3 16.5001 156.3 16.2001 156.3Z" fill="#ED057D"/>
<path d="M26.7002 144.2L27.2002 141C27.3002 140.5 29.2002 129.4 37.4002 121.2C39.7002 118.9 42.4002 117.3 45.1002 116.5C48.3002 115.6 51.0002 116.1 52.8002 117.9C53.5002 118.6 54.4002 120 54.4002 122.3C54.4002 126.2 52.0002 130.9 49.6002 133.3C41.5002 141.5 30.4002 143.5 29.9002 143.6L26.7002 144.2ZM47.9002 120.7C47.4002 120.7 46.9002 120.8 46.3002 120.9C44.4002 121.4 42.4002 122.7 40.7002 124.4C36.2002 128.9 33.9002 134.5 32.7002 138.1C36.3002 136.9 41.9002 134.5 46.3002 130.1C47.9002 128.5 49.8002 124.8 49.8002 122.3C49.8002 121.7 49.7002 121.3 49.5002 121.2C49.2002 120.9 48.6002 120.7 47.9002 120.7Z" fill="#ED057D"/>
<path d="M31.8 167.7L32.2001 164.7C32.3001 164.2 33.9 152.8 42.1 144.6C44.4 142.3 47.1001 140.7 49.9001 140C53.0001 139.2 55.9001 139.8 57.7001 141.6C61.6 145.5 58.1 153.9 54.8 157.2C46.6 165.4 35.3 167.2 34.8 167.2L31.8 167.7ZM52.6 144.3C52.1 144.3 51.6 144.4 51 144.5C49.1 145 47 146.2 45.3 147.9C40.7 152.5 38.5001 158.4 37.4001 162C41.0001 160.9 46.9 158.7 51.5 154.1C54.1 151.5 55.6001 146.1 54.4001 145C54.1001 144.5 53.4 144.3 52.6 144.3Z" fill="#ED057D"/>
<path d="M44.9001 198.1V195.8C44.9001 195.4 45.0001 185.3 51.5001 178.8C55.6001 174.7 61.8001 174.2 65.3001 177.6C68.9001 181.2 67.1001 188.5 64.2001 191.4C57.7001 197.9 47.6001 198.1 47.2001 198.1H44.9001ZM59.6001 179.9C58.0001 179.9 56.2001 180.6 54.9001 182C51.5001 185.4 50.3001 190.3 49.8001 193.3C52.8001 192.8 57.7001 191.6 61.1001 188.2C62.6001 186.7 63.7001 182.3 62.2001 180.9C61.5001 180.2 60.6001 179.9 59.6001 179.9Z" fill="#ED057D"/>
<path d="M36.2 200.1C33.7 200.1 31 199.8 28.3 199C24.8 198 22 195.8 20.6 193.2C19.7 191.6 19.5 189.9 20 188.3C20.3 187.3 21 186 23 185C26 183.4 30.4 183.3 32.9 184.1C42 186.9 47.7 194.6 47.9 194.9L49.6 197.3L46.8 198.3C46.5 198.4 42 200.1 36.2 200.1ZM29.2 188.1C27.8 188.1 26.2 188.4 25.1 188.9C24.6 189.2 24.4 189.4 24.3 189.5C24.2 190 24.4 190.5 24.6 190.9C25.4 192.4 27.4 193.8 29.6 194.5C34.2 195.9 38.8 195.4 41.8 194.8C39.6 192.6 36 189.7 31.5 188.3C30.9 188.2 30.1 188.1 29.2 188.1Z" fill="#ED057D"/>
<path d="M66.2002 331.2L65.8002 326.6L66.0002 328.9L65.8002 326.6C66.0002 326.6 70.5002 326 73.9002 319.9C87.0002 296.4 63.0002 236.8 47.5002 203.3C29.1002 163.6 26.9002 139.8 25.4002 124.1C25.0002 120.1 24.7002 116.7 24.2002 113.8L28.7002 112.9C29.3002 116 29.6002 119.5 30.0002 123.6C31.5002 139 33.7002 162.3 51.7002 201.3C71.1002 243.4 91.5002 298.5 77.8002 322.3C73.0002 330.4 66.4002 331.1 66.2002 331.2Z" fill="#ED057D"/>
<path d="M27.7001 123.2L25.6001 121.4C25.2001 121 14.7001 111.9 12.6001 98.6998C11.3001 90.6998 15.0001 83.2998 21.0001 82.3998C27.6001 81.2998 33.4001 90.1998 34.2001 95.2998C36.4001 108.5 29.4001 120.4 29.1001 120.9L27.7001 123.2ZM22.0001 86.8998C21.9001 86.8998 21.8001 86.8998 21.7001 86.8998C18.4001 87.3998 16.2001 92.6998 17.1001 98.0998C18.4001 106.2 23.5001 112.7 26.5001 115.9C28.3001 111.9 31.0001 104.1 29.7001 95.9998C28.9001 91.4998 24.6001 86.8998 22.0001 86.8998Z" fill="#ED057D"/>
<path d="M95.2 38.2999L92.7 37.0998C92.2 36.7999 79.7 30.7999 74.2 18.5999C70.8 11.0999 72.5 3.09985 78 0.599851C84.1 -2.20015 92 4.99985 94.1 9.59985C99.6 21.7999 96 35.0999 95.8 35.6999L95.2 38.2999ZM81 4.59985C80.6 4.59985 80.3 4.69985 80 4.79985C76.9 6.19985 76.2 11.7999 78.4 16.7999C81.8 24.2999 88.4 29.2999 92.1 31.5999C92.8 27.2999 93.4 19.0999 90 11.5999C88.3 7.69985 83.6 4.59985 81 4.59985Z" fill="#ED057D"/>
<path d="M81.4002 55.6999C78.6002 55.6999 75.6002 55.3999 72.7002 54.3999C65.8002 52.1999 61.5002 46.1999 63.2002 40.8999C64.9002 35.4999 73.8002 33.7999 78.7002 35.2999C89.8002 38.7999 96.3002 49.1999 96.6002 49.5999L98.0002 51.8999L95.6002 52.9999C95.2002 53.0999 89.1002 55.6999 81.4002 55.6999ZM74.8002 39.3999C71.7002 39.3999 68.2002 40.5999 67.6002 42.2999C66.8002 44.9999 69.9002 48.6999 74.1002 49.9999C80.6002 51.9999 87.3002 50.6999 91.0002 49.5999C88.6002 46.5999 83.8002 41.6999 77.4002 39.5999C76.6002 39.4999 75.7002 39.3999 74.8002 39.3999Z" fill="#ED057D"/>
<path d="M81.9 80.4C80.8 80.4 79.6 80.3 78.5 80.2C71.3 79.2 66 74 66.7 68.6C67.4 62.9 75.9 59.7 81 60.4C92.6 61.9 100.8 70.9 101.1 71.3L102.9 73.3L100.7 74.8C100.3 75 92 80.4 81.9 80.4ZM79.6 64.8C76.3 64.8 71.6 66.9 71.3 69.1C70.9 71.9 74.6 75 79.1 75.6C85.9 76.5 92.3 74 95.7 72.3C92.8 69.8 87.3 65.7 80.5 64.9C80.2 64.9 79.9 64.8 79.6 64.8Z" fill="#ED057D"/>
<path d="M99.2001 53.2997L98.9001 50.0997C98.9001 49.5997 97.8001 38.3997 103.6 28.3997C107.3 21.9997 113.4 18.8997 117.6 21.2997C118.5 21.7997 119.7 22.8997 120.3 25.0997C121.3 28.7997 120.2 34.0997 118.5 36.9997C112.8 46.9997 102.6 51.7997 102.1 51.9997L99.2001 53.2997ZM114.4 25.0997C112.6 25.0997 109.5 27.1997 107.5 30.6997C104.4 36.1997 103.5 42.1997 103.4 45.9997C106.6 43.8997 111.4 40.1997 114.5 34.6997C115.7 32.6997 116.5 28.6997 115.8 26.2997C115.6 25.6997 115.4 25.3997 115.2 25.2997C115 25.0997 114.7 25.0997 114.4 25.0997Z" fill="#ED057D"/>
<path d="M103.6 101.6L103.8 98.9999C103.8 98.4999 104.9 86.2999 113.2 78.0999C116.9 74.4999 125.6 71.9999 129.6 75.9999C133.5 79.8999 132.4 87.2999 127.3 92.2999C119 100.5 106.8 101.4 106.3 101.4L103.6 101.6ZM123.9 78.4999C121.4 78.4999 118.1 79.7999 116.4 81.3999C111.6 86.1999 109.6 92.6999 108.8 96.4999C112.5 95.7999 119.2 93.8999 124 89.0999C127.2 85.9999 128.3 81.2999 126.3 79.2999C125.8 78.6999 124.9 78.4999 123.9 78.4999Z" fill="#ED057D"/>
<path d="M90.6002 103C87.4002 103 83.8002 102.6 80.1002 101.5C76.9002 100.5 72.5002 97.3998 70.7002 93.9998C69.6002 91.9998 69.8002 90.3998 70.1002 89.3998C70.8002 86.9998 73.0002 85.2998 76.2002 84.5998C78.9002 83.9998 82.1002 84.1998 85.2002 85.0998C96.2002 88.4998 103.2 97.3998 103.4 97.7998L105.4 100.4L102.3 101.4C102.1 101.4 97.2002 103 90.6002 103ZM79.6002 88.7998C78.8002 88.7998 78.0002 88.8998 77.3002 88.9998C75.8002 89.2998 74.8002 89.9998 74.6002 90.6998C74.5002 90.8998 74.6002 91.2998 74.9002 91.7998C76.0002 93.9998 79.4002 96.2998 81.6002 96.9998C87.6002 98.8998 93.7002 98.3998 97.4002 97.6998C94.7002 95.0998 90.0002 91.1998 84.0002 89.2998C82.5002 88.9998 81.0002 88.7998 79.6002 88.7998Z" fill="#ED057D"/>
<path d="M102.7 73.8997L103 70.8997C103 70.3997 104.2 58.9997 112 50.3997C116.9 44.9997 123.8 43.3997 127.4 46.6997C131.5 50.4997 128.3 58.9997 125.2 62.3997C117.4 70.9997 106.1 73.1997 105.7 73.2997L102.7 73.8997ZM122.6 49.4997C120.6 49.4997 117.7 50.7997 115.4 53.3997C111.1 58.1997 109.1 64.1997 108.2 67.7997C111.8 66.5997 117.5 63.9997 121.9 59.1997C124.4 56.4997 125.6 50.9997 124.4 49.8997C123.9 49.6997 123.3 49.4997 122.6 49.4997Z" fill="#ED057D"/>
<path d="M100.7 136.7L98.1 136.6C97.6 136.6 85.4 136 76.9 128C71.6 123 70.4 115.8 74.2 111.7C78.1 107.5 86.8 109.9 90.6 113.4C99.1 121.4 100.5 133.5 100.5 134.1L100.7 136.7ZM80.1 114C79 114 78 114.2 77.5 114.8C75.6 116.9 76.8 121.5 80 124.6C84.9 129.2 91.6 131 95.4 131.6C94.5 127.9 92.4 121.3 87.4 116.7C85.8 115.2 82.5 114 80.1 114Z" fill="#ED057D"/>
<path d="M101.3 132.5L101.6 129.5C101.6 129 102.8 117.6 110.6 109C115.5 103.6 122.4 102 126 105.3C130.1 109.1 126.9 117.6 123.8 121C116 129.6 104.7 131.8 104.3 131.9L101.3 132.5ZM121.2 108.1C119.2 108.1 116.3 109.4 114 112C109.7 116.8 107.7 122.8 106.8 126.4C110.4 125.2 116.1 122.6 120.5 117.8C123 115.1 124.2 109.6 123 108.5C122.6 108.3 122 108.1 121.2 108.1Z" fill="#ED057D"/>
<path d="M101.8 160.5C101.2 160.5 100.8 160.5 100.8 160.5L98.5 160.4L98.7 158.1C98.7 157.7 99.6 147.6 106.6 141.6C111 137.8 117.2 137.7 120.4 141.5C122 143.3 122.5 146 121.7 149.1C121.1 151.6 119.8 153.9 118.3 155.2C112.5 160 104.6 160.5 101.8 160.5ZM114 143.2C112.5 143.2 110.9 143.8 109.5 145C105.9 148.2 104.3 153 103.6 155.9C106.6 155.7 111.6 154.8 115.2 151.6C115.9 151 116.8 149.6 117.2 147.9C117.6 146.4 117.4 145.1 116.9 144.4C116.2 143.6 115.2 143.2 114 143.2Z" fill="#ED057D"/>
<path d="M96.1001 161.8L93.2001 161.2C92.8001 161.1 83.5001 159.1 77.2001 151.9C74.8001 149.2 73.5001 145.8 73.7001 142.9C73.8001 141 74.6001 139.5 75.8001 138.4C77.5001 136.9 80.1001 136.7 83.1001 137.8C85.4001 138.6 87.6001 140.1 88.9001 141.6C95.2001 148.8 95.8001 158.3 95.9001 158.7L96.1001 161.8ZM79.5001 141.7C79.1001 141.7 78.9001 141.8 78.8001 141.9C78.4001 142.2 78.3001 142.8 78.3001 143.2C78.2001 144.9 79.1001 147.1 80.6001 148.9C83.7001 152.5 87.9001 154.6 90.8001 155.7C90.1001 152.7 88.6001 148.3 85.5001 144.7C84.7001 143.8 83.1001 142.7 81.5001 142.2C80.7001 141.8 80.0001 141.7 79.5001 141.7Z" fill="#ED057D"/>
<path d="M88.2001 438.6C88.1001 438.3 77.0001 406.8 69.4001 366.7C64.9001 343.2 62.5001 321.3 62.2001 301.7C61.8001 277.1 64.8001 256.1 71.1001 239.2C85.9001 199.5 95.4001 162.5 99.3001 129.2C103.7 91.3999 100.8 59.5999 90.7001 34.5999L94.9001 32.8999C105.4 58.5999 108.4 91.1999 103.8 129.7C99.8001 163.4 90.3001 200.8 75.4001 240.8C67.8001 261.3 61.3001 299.7 73.9001 365.8C81.4001 405.5 92.4001 436.7 92.5001 437L88.2001 438.6Z" fill="#ED057D"/>
</g>
<defs>
<clipPath id="clip0">
<rect width="131.9" height="438.6" fill="white"/>
</clipPath>
</defs>
</svg>
