<svg width="196" height="276" viewBox="0 0 196 276" fill="none" xmlns="http://www.w3.org/2000/svg">
<g clip-path="url(#clip0)">
<path d="M39.8 274.7C39.8 275.1 39.7 275.4 39.5 275.6C39.3 275.9 38.9 276 38.3 275.9L1.5 274.8C0.5 274.8 0 274.2 0 273.2L0.4 259.2C0.5 257.4 0.9 255.7 1.6 254.1C2.4 252.5 3.4 251.2 4.6 250.1C5.9 249 7.3 248.1 9 247.5C10.6 246.9 12.4 246.6 14.2 246.7C16 246.8 17.6 247.1 19.2 247.8C20.8 248.5 22.1 249.4 23.3 250.6C24.5 251.8 25.4 253.1 26.1 254.7C26.8 256.3 27.1 258 27 259.8L26.7 271L38.6 271.4C39.1 271.4 39.4 271.5 39.6 271.8C39.8 272 39.9 272.3 39.9 272.7L39.8 274.7ZM14.1 251.1C12.9 251.1 11.8 251.3 10.7 251.7C9.6 252.1 8.6 252.7 7.8 253.4C6.9 254.1 6.3 255 5.7 256.1C5.2 257.1 4.9 258.2 4.9 259.4L4.6 270.5L22.2 271L22.5 259.9C22.5 258.8 22.3 257.7 21.9 256.6C21.5 255.5 20.9 254.6 20.1 253.8C19.3 253 18.4 252.4 17.4 251.9C16.4 251.4 15.3 251.1 14.1 251.1Z" fill="#ED057D"/>
<path d="M6.9 207.4C7.1 206.5 7.6 206.2 8.4 206.3L10.5 206.7C11 206.8 11.3 207 11.4 207.2C11.6 207.5 11.6 207.8 11.6 208.2L7.8 230.1L25.4 233.2L28.5 215.3C28.6 214.9 28.7 214.6 29 214.4C29.3 214.2 29.6 214.1 30 214.2L32.1 214.6C32.9 214.7 33.3 215.2 33.1 216.1L30.1 234L37.7 235.3L41.7 212.6C41.8 212.2 41.9 211.9 42.2 211.7C42.5 211.5 42.8 211.4 43.2 211.5L45.3 211.9C46.2 212 46.5 212.6 46.3 213.4L41.7 239.8C41.6 240.1 41.5 240.3 41.2 240.4C40.9 240.5 40.6 240.6 40.3 240.5L3.6 234.1C3.2 234 2.9 233.9 2.7 233.6C2.5 233.3 2.5 233 2.5 232.6L6.9 207.4Z" fill="#ED057D"/>
<path d="M14.6999 197C14.3999 197.1 14.0999 197.1 13.8999 197C13.6999 196.9 13.4999 196.7 13.3999 196.5C13.2999 196.3 13.0999 196 13.0999 195.8C12.9999 195.5 12.8999 195.2 12.8999 195C12.5999 193.9 12.4999 192.9 12.3999 191.8C12.3999 190.7 12.3999 189.7 12.4999 188.7C12.5999 187.7 12.7999 186.7 12.9999 185.8C13.1999 184.9 13.3999 184 13.6999 183.3C14.2999 181.5 14.9999 180 15.9999 178.6C16.8999 177.2 17.9999 176.2 19.1999 175.3C20.3999 174.5 21.7999 174 23.2999 173.8C24.7999 173.6 26.3999 173.8 28.0999 174.3C29.5999 174.8 30.9999 175.6 32.1999 176.8C33.3999 178 34.1999 179.2 34.6999 180.7C36.2999 179.4 37.9999 178.5 39.8999 178.1C41.7999 177.6 43.6999 177.7 45.6999 178.3C47.3999 178.8 48.7999 179.7 49.8999 180.9C50.9999 182.1 51.7999 183.5 52.3999 185.1C52.9999 186.7 53.1999 188.4 53.1999 190.3C53.1999 192.1 52.8999 193.9 52.2999 195.7C51.8999 197 51.3999 198.2 50.9999 199.3C50.4999 200.4 49.9999 201.3 49.3999 202.2C48.7999 203.1 48.1999 203.9 47.4999 204.6C46.7999 205.3 45.9999 206 44.9999 206.5C44.7999 206.7 44.4999 206.8 44.1999 207C43.8999 207.2 43.5999 207.3 43.2999 207.3C42.9999 207.4 42.7999 207.4 42.4999 207.3C42.2999 207.2 42.0999 207.1 41.9999 206.8L40.9999 204.6C40.8999 204.3 40.7999 204.1 40.8999 203.8C40.9999 203.5 41.0999 203.4 41.4999 203.2C43.1999 202.5 44.4999 201.4 45.4999 200C46.4999 198.6 47.2999 197 47.8999 195L48.3999 193.4C48.7999 192.3 48.8999 191.1 48.8999 190C48.8999 188.9 48.6999 187.8 48.2999 186.9C47.8999 185.9 47.3999 185.1 46.6999 184.4C45.9999 183.7 45.1999 183.2 44.1999 182.9C43.2999 182.6 42.3999 182.5 41.3999 182.6C40.4999 182.7 39.5999 182.9 38.7999 183.3C37.9999 183.7 37.2999 184.3 36.5999 185C35.9999 185.7 35.4999 186.5 35.1999 187.4L33.1999 193.5C33.0999 193.7 32.9999 193.9 32.7999 194C32.5999 194.1 32.3999 194.1 32.1999 194.1L30.0999 193.4C29.6999 193.3 29.3999 193.1 29.1999 192.8C28.9999 192.5 28.9999 192 29.2999 191.2L30.6999 186.9C30.9999 186.1 31.0999 185.2 30.9999 184.4C30.8999 183.6 30.6999 182.8 30.2999 182.1C29.8999 181.4 29.3999 180.8 28.7999 180.2C28.1999 179.7 27.4999 179.3 26.6999 179C24.7999 178.4 23.0999 178.5 21.5999 179.2C20.0999 180 18.9999 181.5 18.2999 183.7L17.9999 184.5C17.7999 185.1 17.5999 185.8 17.4999 186.6C17.3999 187.4 17.1999 188.4 17.1999 189.3C17.0999 190.3 17.1999 191.2 17.2999 192.2C17.3999 193.2 17.5999 194.1 17.9999 194.9C18.0999 195.2 18.0999 195.4 17.9999 195.7C17.8999 196 17.6999 196.1 17.3999 196.3L14.6999 197Z" fill="#ED057D"/>
<path d="M56.1 157.7C57.1 158.8 58 159.9 58.8 161C59.6 162.1 60.3 163.3 60.7 164.6C61.1 165.9 61.3 167.2 61.2 168.7C61.1 170.2 60.6 171.8 59.7 173.6C59.5 174 59.2 174.3 58.9 174.4C58.6 174.5 58.3 174.5 58 174.3L55.4 173.1C55 172.9 54.8 172.7 54.9 172.4C55 172.1 55.1 171.9 55.2 171.6C55.6 170.7 55.9 170 56.2 169.4C56.5 168.8 56.5 168.1 56.5 167.5C56.5 166.9 56.2 166.2 55.8 165.5C55.4 164.8 54.8 163.9 53.9 162.9L50.8 159.2L24.6 158.4C24.2 158.4 23.9 158.2 23.6 158C23.3 157.8 23.3 157.4 23.5 157L24.5 155C24.7 154.5 24.9 154.2 25.1 153.9C25.3 153.7 25.6 153.5 26.1 153.5L46.8 154.4L33 139.6C32.6 139.2 32.4 138.8 32.5 138.5C32.6 138.2 32.7 137.9 32.8 137.6L33.8 135.5C34 135.1 34.2 134.9 34.4 134.8C34.6 134.7 34.8 134.7 35 134.7C35.2 134.8 35.4 134.9 35.6 135C35.8 135.2 36 135.3 36.1 135.5L56.1 157.7Z" fill="#ED057D"/>
<path d="M44.6 119.6C43.9 119.1 43.8 118.5 44.2 117.9L60.8 93.8997C61 93.5997 61.3 93.3997 61.6 93.2997C61.9 93.1997 62.2 93.2997 62.6 93.5997L93.3 114.9C94 115.4 94.1 115.9 93.6 116.7L92.4 118.5C91.9 119.2 91.4 119.3 90.7 118.8L62.8 99.1997L50 117.7L69.5 131.2C70.9 132.2 72 133.3 72.9 134.5C73.8 135.7 74.4 137 74.7 138.4C75 139.8 75 141.2 74.6 142.7C74.3 144.2 73.5 145.7 72.5 147.2C71.8 148.2 71.1 148.4 70.3 147.9L69.2 147.1C68.8 146.8 68.6 146.4 68.6 146C68.6 145.6 68.8 145.2 69 144.9C69.6 144 70.1 143 70.3 142.1C70.5 141.2 70.5 140.3 70.3 139.4C70.1 138.5 69.7 137.7 69.1 136.9C68.5 136.1 67.8 135.4 66.8 134.8L44.6 119.6Z" fill="#ED057D"/>
<path d="M73.3 79.4996C73.5 79.1996 73.8 79.0996 74.1 79.0996C74.4 79.0996 74.7 79.1996 75.1 79.5996L83.7 87.8996L91.9 79.3996C93.2 78.0996 94.6 77.0996 96.2 76.4996C97.8 75.8996 99.4 75.5996 101.1 75.5996C102.8 75.5996 104.4 75.9996 106 76.5996C107.6 77.1996 109 78.1996 110.3 79.3996C111.5 80.4996 112.4 81.7996 113.1 83.2996C113.8 84.6996 114.2 86.1996 114.4 87.6996C114.6 89.1996 114.4 90.7996 114.1 92.2996C113.7 93.7996 113 95.1996 112 96.4996C111.3 97.4996 110.5 98.3996 109.7 99.1996L100.7 108.5C100 109.2 99.3 109.3 98.6 108.6L71.9 82.9996C71.5 82.5996 71.3 82.1996 71.3 81.8996C71.4 81.5996 71.5 81.2996 71.7 81.0996L73.3 79.4996ZM107.2 82.4996C106.4 81.6996 105.4 81.0996 104.4 80.6996C103.3 80.2996 102.2 80.0996 101.1 80.0996C100 80.0996 98.9 80.2996 97.8 80.6996C96.7 81.0996 95.8 81.6996 95 82.5996L86.9 90.9996L99.6 103.3L107.7 94.8996C108.5 93.9996 109.1 93.0996 109.5 91.9996C109.9 90.8996 110 89.7996 110 88.6996C109.9 87.5996 109.7 86.4996 109.2 85.3996C108.7 84.2996 108 83.3996 107.2 82.4996Z" fill="#ED057D"/>
<path d="M121.4 36.4998C122 35.9998 122.5 36.0998 123 36.6998L124.5 38.5998C124.7 38.7998 124.8 39.0998 124.8 39.3998C124.8 39.6998 124.7 39.9998 124.4 40.1998L114.5 47.8998L135.4 74.5998C135.9 75.2998 135.9 75.8998 135.2 76.3998L133.5 77.6998C132.8 78.1998 132.2 78.1998 131.7 77.4998L110.8 50.7998L100.9 58.4998C100.3 58.9998 99.8001 58.8998 99.3001 58.2998L97.8001 56.3998C97.3001 55.7998 97.4001 55.2998 98.0001 54.8998L121.4 36.4998Z" fill="#ED057D"/>
<path d="M167.1 45.0999L150.4 54.6999H150.3L151.5 63.5999C151.5 63.9999 151.3 64.3999 150.9 64.6999L148.7 65.9999C148.3 66.1999 148 66.2999 147.7 66.1999C147.4 66.0999 147.2 65.6999 147.1 64.7999L142.1 25.1999C142 24.7999 142.1 24.3999 142.2 24.0999C142.3 23.7999 142.6 23.5999 143 23.2999L144.1 22.6999C144.5 22.4999 144.8 22.3999 145.2 22.3999C145.5 22.3999 145.8 22.5999 146.2 22.8999L177.9 47.0999C178.5 47.5999 178.8 47.9999 178.8 48.2999C178.7 48.5999 178.5 48.8999 178.1 49.0999L175.9 50.3999C175.4 50.6999 175 50.6999 174.6 50.3999L167.1 45.0999ZM149.6 49.6999L163 41.9999L147 29.5999L149.6 49.6999Z" fill="#ED057D"/>
<path d="M193 0.0998438C193.7 -0.200156 194.2 -0.000156224 194.5 0.699844L195.4 2.99984C195.5 3.29984 195.5 3.59984 195.4 3.89984C195.3 4.19984 195.1 4.39984 194.7 4.59984L183.1 9.29984L195.7 40.6998C196 41.4998 195.8 42.0998 195 42.3998L193 43.1998C192.2 43.4998 191.6 43.2998 191.3 42.4998L178.7 11.0998L167.1 15.7998C166.4 16.0998 165.9 15.7998 165.6 15.0998L164.7 12.7998C164.4 12.0998 164.6 11.6998 165.3 11.3998L193 0.0998438Z" fill="#ED057D"/>
</g>
<defs>
<clipPath id="clip0">
<rect width="195.9" height="276" fill="white"/>
</clipPath>
</defs>
</svg>
