<svg width="159" height="48" viewBox="0 0 159 48" fill="none" xmlns="http://www.w3.org/2000/svg">
<g clip-path="url(#clip0)">
<path d="M0.4 23.2998L0 20.2998C18.8 17.5998 37.9 16.3998 56.7 16.6998C104.4 17.2998 136.2 27.2998 136.5 27.3998L135.5 30.2998C135.2 30.1998 104.3 20.3998 56.6 19.7998C38 19.3998 19 20.6998 0.4 23.2998Z" fill="#ED057D"/>
<path d="M129.5 27.8002L131.4 27.2002C131.8 27.1002 141.1 24.3002 150.3 27.7002C153.8 29.0002 159.5 34.0002 158 38.2002C156.6 42.0002 151 43.3002 145.4 41.3002C136.2 38.0002 130.9 29.9002 130.6 29.5002L129.5 27.8002ZM155.1 36.1002C154.6 34.3002 152 31.5002 149.3 30.5002C143.6 28.4002 137.7 29.0002 134.6 29.6002C136.6 32.0002 140.8 36.3002 146.5 38.4002C150.7 39.9002 154.5 39.0002 155.2 37.1002C155.2 36.9002 155.2 36.5002 155.1 36.1002Z" fill="#ED057D"/>
<path d="M115.6 33.3001C114.4 29.2001 114.4 25.9001 114.4 25.7001V23.6001L116.4 24.3001C116.7 24.4001 125 27.3001 130.1 34.5001C131.6 36.6001 132.8 40.4001 132.3 43.3001C132 45.0001 131.2 45.9001 130.6 46.3001C127.7 48.4001 122.8 46.4001 119.6 42.0001C117.6 39.1001 116.3 36.0001 115.6 33.3001ZM117.6 28.1001C118 31.0001 119 36.0001 122.1 40.2001C124.4 43.4001 127.6 44.7001 128.9 43.8001C129.1 43.6001 129.3 43.3001 129.4 42.8001C129.7 40.9001 128.8 37.7001 127.7 36.2001C124.6 32.0001 120.2 29.3001 117.6 28.1001Z" fill="#ED057D"/>
<path d="M87.0001 34.5999C85.3001 28.5999 86.8001 22.8999 86.9001 22.5999L87.4001 20.8999L89.0001 21.5999C89.3001 21.6999 96.8001 24.8999 100.2 31.7999C101.7 34.8999 101.4 40.7999 98.0001 42.4999C94.7001 44.0999 90.3001 41.9999 88.2001 37.6999C87.7001 36.5999 87.3001 35.5999 87.0001 34.5999ZM89.5001 25.1999C89.2001 27.6999 88.9001 32.1999 90.9001 36.1999C92.2001 38.8999 94.9001 40.4999 96.6001 39.5999C98.1001 38.8999 98.3001 34.8999 97.4001 32.9999C95.5001 28.9999 91.7001 26.4999 89.5001 25.1999Z" fill="#ED057D"/>
<path d="M115.2 28.5001V26.8001C115.2 26.5001 115.4 18.4001 120.5 12.7001C122.8 10.2001 128.4 8.20009 131.2 10.8001C132.3 11.8001 132.9 13.2001 133 14.8001C133.1 17.1001 132.1 19.7001 130.4 21.6001C125.3 27.3001 117.3 28.3001 116.9 28.3001L115.2 28.5001ZM129.8 14.1001C129.7 13.7001 129.5 13.3001 129.1 13.0001C127.9 11.9001 124.1 13.1001 122.7 14.7001C119.7 18.0001 118.7 22.4001 118.4 24.9001C120.8 24.3001 125.1 22.8001 128.1 19.6001C129.3 18.2001 130 16.5001 130 15.0001C129.9 14.7001 129.9 14.4001 129.8 14.1001Z" fill="#ED057D"/>
<path d="M86.8999 23.1L87.0999 21.1C87.0999 20.7 87.9999 11.7 94.1999 4.90001C95.4999 3.50001 97.5999 2.20001 99.6999 1.40001C102.4 0.400007 104.7 0.600007 106.1 1.90001C108.9 4.40001 108.1 9.90001 104.4 14.1C98.2999 20.9 89.2999 22.7 88.9999 22.8L86.8999 23.1ZM104.6 5.10001C104.5 4.70001 104.3 4.40001 104 4.10001C102.8 3.10001 98.3999 4.70001 96.3999 6.80001C92.6999 10.9 91.0999 16.1 90.4999 19C93.2999 18.1 98.2999 16 102.1 11.9C104.3 9.60001 105.1 6.80001 104.6 5.10001Z" fill="#ED057D"/>
<path d="M57.8001 20.2L57.7001 18.7C57.7001 18.3 57.2001 9.09999 62.7001 3.09999C63.9001 1.79999 66.0001 0.699988 68.1001 0.299988C70.7001 -0.200012 73.0001 0.199988 74.6001 1.59999C76.2001 2.99999 77.1001 5.09999 77.0001 7.39999C76.9001 9.59999 76.0001 11.8 74.4001 13.5C68.9001 19.6 59.7001 20.1 59.4001 20.1L57.8001 20.2ZM73.7001 5.59999C73.5001 4.89999 73.1001 4.19999 72.6001 3.79999C70.8001 2.19999 66.4001 3.49999 65.0001 5.09999C61.6001 8.79999 60.9001 14.2 60.8001 16.9C63.4001 16.5 68.7001 15.2 72.1001 11.5C73.2001 10.3 73.8001 8.79999 73.9001 7.29999C73.9001 6.69999 73.9001 6.09999 73.7001 5.59999Z" fill="#ED057D"/>
<path d="M58.9999 30.6C57.5999 25.5 58.0999 20.8 58.1999 20.6L58.3999 19L59.9999 19.3C60.3999 19.4 69.1999 21.3 73.9999 28.1C75.3999 30 75.9999 33.3 75.5999 36C75.2999 37.8 74.4999 39.2 73.2999 40C71.5999 41.2 69.3999 41.5 67.1999 40.8C65.0999 40.1 63.1999 38.7 61.7999 36.8C60.4999 34.8 59.5999 32.7 58.9999 30.6ZM61.0999 22.8C60.9999 25.5 61.3999 30.8 64.2999 35C65.2999 36.4 66.5999 37.4 68.0999 37.9C69.3999 38.3 70.6999 38.2 71.4999 37.6C72.1999 37.1 72.3999 36.2 72.5999 35.5C72.8999 33.5 72.2999 31 71.4999 29.9C68.5999 25.7 63.6999 23.6 61.0999 22.8Z" fill="#ED057D"/>
<path d="M27.2 21.2999L27.4 19.0999C27.4 18.8999 28.0999 13.0999 33.2999 8.19993C35.1999 6.39993 40.4999 3.79993 43.2999 5.09993C44.4 5.59993 45 6.49993 45.2 7.69993C45.5 9.59993 44.4 11.7999 42.2999 13.7999C37.1999 18.4999 29.5999 20.5999 29.2999 20.6999L27.2 21.2999ZM42.2 7.99993C42.2 7.89993 42.1 7.89993 42 7.79993C41.1 7.39993 37.2 8.69993 35.4 10.3999C33 12.5999 31.8 15.0999 31.1 16.7999C33.6 15.7999 37.4 14.0999 40.2 11.4999C41.8 9.99993 42.3 8.69993 42.2 7.99993C42.2 8.09993 42.2 8.09993 42.2 7.99993Z" fill="#ED057D"/>
<path d="M24.8 18.2002L27.5 18.8002C27.8 18.9002 35.1 20.6002 41.7001 27.5002C43.6 29.5002 48 36.3002 46.2001 39.5002C45.7001 40.5002 44.8001 41.1002 43.7001 41.2002C41.5 41.5002 38.3 39.9002 35.6 37.0002C29.1 30.2002 25.9 21.1002 25.8 20.7002L24.8 18.2002ZM43.4001 36.5002C42.9001 34.6002 41.3 31.5002 39.5 29.6002C36.1 26.0002 32.4 24.0002 29.9 22.9002C31.3 26.0002 34 31.0002 37.8 34.9002C40 37.2002 42.3 38.3002 43.3 38.2002C43.5 38.2002 43.5 38.1002 43.5 38.1002C43.6 37.8002 43.6001 37.2002 43.4001 36.5002Z" fill="#ED057D"/>
</g>
<defs>
<clipPath id="clip0">
<rect width="158.2" height="47.1" fill="white"/>
</clipPath>
</defs>
</svg>
