<svg width="98" height="226" viewBox="0 0 98 226" fill="none" xmlns="http://www.w3.org/2000/svg">
<g clip-path="url(#clip0)">
<path d="M41.7999 225.1L38.7 223.9C47.3 201.7 52.7999 179.3 55.0999 157.2C56.8999 139.5 56.7 121.9 54.4 105.1C50.2 74.7999 40.9 57.7999 40.9 57.5999C41.2 57.9999 41.7999 58.3999 42.5999 58.2999L42.2999 56.5999L40.7 56.1999L41.9 54.8999L43.5999 55.3999C44.0999 55.8999 46.5999 60.7999 49.2999 68.5999C51.9 75.8999 55.5 87.8999 57.7 103.4C60.2 120.6 60.5 138.5 58.7 156.7C56.2 179.4 50.5999 202.4 41.7999 225.1Z" fill="#ED057D"/>
<path d="M44.5999 61.4L43.4999 61C43.0999 60.9 42.8999 60.7 42.6999 60.5C42.5999 60.4 42.4999 60.3 42.3999 60.2C35.7999 54.2 23.1999 41.8 12.0999 26.5C7.29994 19.7 2.59994 10.4 3.99994 4.60002C4.39994 2.80002 5.49994 1.40002 6.99994 0.600019C13.3999 -2.79998 27.8999 9.10002 32.5999 16.6C43.9999 34.2 45.4999 52.2 45.5999 59.1C45.5999 59.2 45.5999 59.2 45.5999 59.3C45.5999 59.4 45.5999 59.6 45.5999 59.8L45.4999 60.3L44.5999 61.4ZM45.0999 58.2C45.2999 58.4 45.3999 58.5 45.4999 58.7C45.3999 58.5 45.2999 58.3 45.0999 58.2ZM9.89994 3.30002C9.39994 3.30002 8.99994 3.40002 8.59994 3.60002C7.99994 3.90002 7.49994 4.50002 7.29994 5.40002C6.39994 9.20002 9.39994 16.9 14.7999 24.5C24.3999 37.8 35.1999 48.8 42.0999 55.3C41.4999 47.2 39.0999 32.6 29.7999 18.3C25.3999 11.3 14.4999 3.30002 9.89994 3.30002Z" fill="#ED057D"/>
<path d="M41.2001 58.0001C41.1001 57.6001 30.6001 20.2001 6.6001 3.9001L8.5001 1.1001C33.6001 18.2001 44.5001 57.1001 44.5001 57.4001L41.1001 57.7001L42.8001 57.6001L41.2001 58.0001Z" fill="#ED057D"/>
<path d="M42.1 58.6C42.1 58.6 41.9 58.4 41.8 58.2C34.8 49.7 11.4 20.5 6.30005 3L9.40005 2C14.4 18.9 37.4 47.6 44.3 56C44.8 56.6 45 56.9 45.1 57.4L41.7001 57.6L43.4001 57.5L42.1 58.6Z" fill="#ED057D"/>
<path d="M54.5 97.7001C53.9 97.7001 53 97.4002 50.7 96.6002C48.9 96.0002 46 94.9002 42.4 93.4002C36.1 90.8002 26.5 86.4002 16.6 80.0002C7.30001 74.0002 -2.39999 65.1002 0.600011 59.7002C1.20001 58.7002 2.20001 58.0002 3.70001 57.6002C9.00001 56.3002 20.5 59.9002 26.5 63.8002C43 74.1002 52.4 88.9002 55.2 93.9002L65.3 90.5002L55.4 97.3002C55 97.5002 54.8 97.7001 54.5 97.7001ZM6.30001 60.7002C5.60001 60.7002 4.90001 60.8002 4.40001 60.9002C3.80001 61.0002 3.50001 61.2002 3.50001 61.4002C2.40001 63.2002 7.10001 69.9001 18.4 77.2001C31.7 85.7001 44.4 90.8002 50.7 93.0002C46.8 86.8002 38.2 75.2001 24.7 66.7001C19.6 63.4001 11.1 60.7002 6.30001 60.7002Z" fill="#ED057D"/>
<path d="M57.4001 141C56.9001 141 56.0001 140.8 54.1001 140.3C52.5001 139.9 49.8001 139.1 46.6001 138C40.9001 136 32.3001 132.4 23.2001 126.6C18.5001 123.6 14.4001 120.2 11.7001 117C8.30011 113.1 7.20011 109.9 8.30011 107.4C8.60011 106.6 9.40011 105.6 11.2001 105.1C16.1001 103.6 26.2001 106.4 31.8001 109.9C41.2001 115.5 48.1001 123 52.2001 128.4C54.5001 131.4 56.2001 134.1 57.2001 135.7C59.1001 138.9 59.1001 139.2 59.1001 139.6L59.0001 140.4L58.4001 140.9C58.0001 140.8 57.8001 141 57.4001 141ZM14.3001 107.9C13.4001 107.9 12.7001 108 12.1001 108.2C11.7001 108.3 11.3001 108.5 11.3001 108.7C10.3001 111 15.6001 117.7 25.0001 123.7C37.0001 131.4 48.3001 135.2 53.9001 136.7C50.5001 131.2 42.5001 120.1 30.0001 112.6C25.6001 109.9 18.6001 107.9 14.3001 107.9Z" fill="#ED057D"/>
<path d="M55.9001 97.5002L54.7001 95.0002C54.5001 94.6002 54.5001 94.3002 54.6001 93.9002V93.7002C55.5001 89.0002 58.9001 72.0002 67.9001 54.0002C71.9001 45.9002 78.2001 37.2002 83.1001 36.0002C84.7001 35.6002 85.8001 36.0002 86.5001 36.5002C87.3001 37.0002 89.8001 38.7002 87.6001 48.7002C86.5001 53.8002 84.5001 59.6002 82.4001 63.5002C73.4001 80.9002 62.1001 91.6002 57.6001 95.4002L57.5001 95.5002L55.9001 97.5002ZM84.3001 39.2002C84.2001 39.2002 84.1001 39.2002 83.9001 39.3002C81.2001 40.0002 75.7001 46.0002 70.9001 55.6002C64.1001 69.3002 60.5001 82.4002 58.9001 89.7002C64.2001 84.6002 72.4001 75.3002 79.3001 62.0002C81.2001 58.4002 83.1001 53.0002 84.1001 48.3002C85.5001 41.9002 84.8001 39.6002 84.5001 39.3002C84.5001 39.2002 84.4001 39.2002 84.3001 39.2002Z" fill="#ED057D"/>
<path d="M60.0999 128.9H57.8999L58.4999 126.8V126.7V126.5C59.6999 122 64.4999 106.3 75.2999 92.3999C80.4999 85.7999 86.8999 81.4999 91.3999 81.3999C93.2999 81.3999 94.8999 82.0999 95.9999 83.4999C98.2999 86.4999 97.0999 91.8999 95.6999 95.9999C94.0999 100.7 91.4999 105.6 89.0999 108.5C78.2999 121.6 65.6999 126.9 60.6999 128.5C60.5999 128.8 60.2999 128.9 60.0999 128.9ZM91.4999 84.7999C87.9999 84.7999 82.4999 88.7999 77.9999 94.4999C69.2999 105.7 64.5999 118.1 62.6999 124.4C68.3999 122.1 78.0999 116.9 86.6999 106.5C92.0999 99.9999 95.4999 88.1999 93.4999 85.6999C93.1999 85.2999 92.6999 84.7999 91.4999 84.7999Z" fill="#ED057D"/>
<path d="M54.3 167.6L55.6 164.4C55.6 164.3 55.7 164.2 55.8 164.1C55.8 164 55.9001 164 55.9001 163.9C59.0001 158.2 67.4 143.7 78.7 133.3C84.3 128.2 89.7 125.9 93.1 127.2C94.9 127.8 96.0001 129.4 96.3001 131.5C97.1001 137.8 88.5 150.3 83.5 154.6C71.9 164.9 61.5 166.5 57.5 166.7L54.3 167.6ZM57.7001 166.6H57.6H57.7001ZM58.6 165.8C58.5 166 58.4001 166.1 58.2001 166.3C58.4001 166.1 58.5 166 58.6 165.8ZM91 130.2C88.9001 130.2 85.1001 132 80.9001 135.8C71.3001 144.6 63.9001 156.5 60.2001 163C70.1 161.3 78.7 154.3 81.2 152C85.9 147.8 93.5 136.3 92.9001 131.8C92.7001 130.5 92.1001 130.3 91.9001 130.2C91.7001 130.2 91.4001 130.2 91 130.2Z" fill="#ED057D"/>
<path d="M47.9001 203.3C47.7001 203.3 47.5001 203.3 47.3001 203.2C47.1001 203.1 46.8001 202.9 46.6001 202.6C46.5001 202.5 46.3001 202.3 46.2001 202.1C45.9001 201.8 45.5001 201.2 45.0001 200.6C44.1001 199.4 42.5001 197.4 40.8001 194.9C37.6001 190.4 33.0001 183.3 28.7001 175C26.5001 170.6 24.8001 166.3 24.0001 162.6C23.0001 158.1 23.2001 155.3 24.9001 153.9C25.6001 153.3 26.6001 153 27.6001 153.2C31.5001 154 37.5001 161.8 39.9001 166.8C46.5001 180.3 48.8001 194.5 49.6001 200L58.2001 200.5L48.6001 203.2C48.2001 203.3 48.0001 203.3 47.9001 203.3ZM26.9001 156.5C26.7001 157 26.4001 158.5 27.2001 161.8C28.0001 165.2 29.6001 169.3 31.7001 173.4C36.6001 182.9 41.9001 190.7 45.4001 195.5C44.2001 188.8 41.7001 178.3 36.8001 168.2C33.8001 162.2 28.5001 156.8 26.9001 156.5Z" fill="#ED057D"/>
<path d="M55.7 96.9001L53 95.0001C53.3 94.6001 81.2 55.0001 83.9 37.6001L87.2 38.1001C84.4 56.3001 56.9 95.3001 55.7 96.9001Z" fill="#ED057D"/>
<path d="M61.0001 128.6L59.1001 125.8C73.5001 116 82.0001 105.2 86.6001 97.9002C91.6001 90.0002 93.2001 84.3002 93.2001 84.2002L96.5001 85.1002C96.2001 86.0002 89.7001 109.1 61.0001 128.6Z" fill="#ED057D"/>
<path d="M46.3001 202C40.1001 176 23.8001 158 23.6001 157.8L26.1001 155.5C26.8001 156.3 43.1001 174.3 49.6001 201.2L46.3001 202Z" fill="#ED057D"/>
<path d="M57.7999 166.6L56.3999 163.5C77.4999 153.5 92.9999 128.9 93.1999 128.6L96.0999 130.4C95.3999 131.5 79.8999 156.1 57.7999 166.6Z" fill="#ED057D"/>
<path d="M51.1 94.8999C34.6 79.4999 22.1 71.3999 14.5 67.3999C6.20005 62.9999 1.80005 62.1999 1.80005 62.1999L2.30005 58.8999C3.00005 58.9999 20.9001 62.0999 53.4001 92.4999L51.1 94.8999Z" fill="#ED057D"/>
<path d="M51.7 95.2999C18.1 81.9999 1.39995 62.4999 0.699951 61.5999L3.29995 59.3999C3.49995 59.5999 20.2 79.1999 52.9 92.0999L51.7 95.2999ZM1.99995 60.4999L3.29995 59.3999L1.99995 60.4999Z" fill="#ED057D"/>
<path d="M56.0999 140.4C55.7999 140.1 26.4 109.8 9.69995 109.6V106.2C27.8 106.4 57.2 136.7 58.5 138L56.0999 140.4Z" fill="#ED057D"/>
<path d="M55.9001 96.6002L52.8 95.3002C53.6 93.4002 72.5001 49.6002 84.3001 36.7002L86.8001 39.0002C75.4001 51.5002 56.1001 96.2002 55.9001 96.6002Z" fill="#ED057D"/>
<path d="M61.5001 128L58.6001 126.3C78.2001 91.9001 93.4001 83.5001 94.0001 83.1001L95.6001 86.1001L94.8001 84.6001L95.6001 86.1001C95.4001 86.2001 80.6001 94.6001 61.5001 128Z" fill="#ED057D"/>
<path d="M58.5 166L55.8 164C72.8 141.4 93.5 128.2 93.7 128.1L95.5 131C95.3 131.1 75.1 143.9 58.5 166Z" fill="#ED057D"/>
<path d="M56.5 140.7C55 139.8 20.4 119.3 8.69995 109.2L10.9 106.6C22.4 116.5 57.9 137.5 58.2 137.7L56.5 140.7Z" fill="#ED057D"/>
</g>
<defs>
<clipPath id="clip0">
<rect width="97.4" height="225.1" fill="white"/>
</clipPath>
</defs>
</svg>
