<svg width="177" height="370" viewBox="0 0 177 370" fill="none" xmlns="http://www.w3.org/2000/svg">
<path d="M59.8404 64.8718L59.4604 64.7619C45.1098 60.8706 31.1685 55.6029 17.8304 49.0319C10.5704 45.2919 2.31038 39.2718 0.920378 33.6018C0.692059 32.7757 0.648045 31.9097 0.791471 31.0647C0.934897 30.2197 1.26228 29.4164 1.75039 28.7119C4.12039 25.3319 10.4504 25.392 15.3404 26.042C20.8997 26.7309 26.2873 28.4251 31.2404 31.042C44.0616 38.4388 54.613 49.2045 61.7504 62.1718L61.8204 62.302C61.9133 62.4308 61.9874 62.5721 62.0404 62.7219L62.2004 63.1418L61.9104 64.7519L60.7504 64.9419H60.4504C60.2445 64.9567 60.0376 64.9328 59.8404 64.8718ZM59.6004 64.7319C59.3661 64.5596 59.1689 64.3418 59.0204 64.0918C59.1506 64.3548 59.3513 64.5766 59.6004 64.7319ZM61.4304 61.9719C61.2526 61.8475 61.0522 61.7592 60.8404 61.7119C61.0477 61.7722 61.246 61.8596 61.4304 61.9719ZM4.43039 30.6218C4.21472 30.9407 4.07468 31.3047 4.02096 31.686C3.96724 32.0672 4.00126 32.4559 4.12039 32.822C5.03039 36.542 11.1204 41.8717 19.3104 46.0817C31.4126 52.0535 44.0266 56.9265 57.0004 60.6418C50.2104 49.5963 40.772 40.4193 29.5404 33.9419C24.3904 30.9419 16.1004 29.0019 10.4004 29.0019C7.49042 29.0019 5.24041 29.5018 4.45041 30.6218H4.43039Z" fill="#ED057D"/>
<path d="M57.3598 63.3123L58.5198 62.2522L59.9898 61.3223C54.6683 55.7538 48.8584 50.6733 42.6298 46.1421C33.0998 39.1421 18.5398 30.3822 3.2298 28.5522L2.83984 31.832C17.3098 33.572 31.2198 41.902 40.3498 48.582C46.4293 52.9981 52.1201 57.9263 57.3598 63.3123Z" fill="#ED057D"/>
<path d="M58.3698 63.4419L59.0398 61.9619L60.4898 61.0818C60.2098 60.6218 59.9498 60.5119 59.1998 60.1919C49.3698 56.0019 16.3698 41.3518 4.43982 28.8818L2.0498 31.1619C14.4098 44.1019 47.9198 58.9819 57.8998 63.2319L58.3698 63.4419Z" fill="#ED057D"/>
<path d="M115.41 269.002L105.83 262.442L115.55 265.632C118.2 260.822 125.47 248.702 136.31 238.752C140.31 235.022 148.54 230.052 152.4 230.752C152.87 230.816 153.318 230.991 153.708 231.263C154.097 231.534 154.417 231.893 154.64 232.312C157.43 237.622 144.98 248.932 143.55 250.202C137.812 255.241 131.73 259.876 125.35 264.072C122.8 265.752 120.71 267.022 119.41 267.792C118.69 268.222 118.13 268.542 117.74 268.792C117.56 268.892 117.39 268.992 117.22 269.072C116.977 269.243 116.687 269.334 116.39 269.332H116.29C115.969 269.317 115.662 269.202 115.41 269.002ZM138.56 241.172C131.741 247.62 125.814 254.952 120.94 262.972C128.131 258.429 134.955 253.33 141.35 247.722C149.86 240.142 151.85 235.102 151.73 233.972C150.12 233.712 143.32 236.722 138.56 241.202V241.172Z" fill="#ED057D"/>
<path d="M106 281.942C121.72 260.652 154.55 236.942 154.88 236.692L152.94 234.002C152.61 234.242 119.36 258.272 103.34 280.002L106 281.942Z" fill="#ED057D"/>
<path d="M86.8001 121.092C86.558 121.072 86.3245 120.993 86.12 120.862L85.5601 120.552C85.1701 120.332 84.56 120.012 83.89 119.552C82.6 118.772 80.52 117.492 77.98 115.792C71.6245 111.549 65.5701 106.871 59.86 101.792C58.44 100.502 46.06 89.1221 48.86 83.8621C49.0829 83.4372 49.4045 83.0721 49.7977 82.7971C50.191 82.5222 50.6444 82.3457 51.12 82.2822C54.99 81.6122 63.2 86.6421 67.12 90.3821C77.91 100.382 85.12 112.562 87.72 117.382L100.02 113.382L87.77 120.792C87.5272 120.945 87.2469 121.028 86.96 121.032L86.8001 121.092ZM51.8 85.5723C51.66 86.6223 53.58 91.6921 62.1 99.3721C68.4595 105.028 75.2575 110.171 82.43 114.752C77.5982 106.7 71.7091 99.3305 64.92 92.8421C60.38 88.5321 53.92 85.5523 52.01 85.5523L51.8 85.5723Z" fill="#ED057D"/>
<path d="M97.1996 133.822L99.8696 131.872C83.9796 110.072 50.8696 85.8718 50.5496 85.5918L48.5996 88.262C48.9296 88.502 81.6096 112.442 97.1996 133.822Z" fill="#ED057D"/>
<path d="M99.9102 81.4923L89.0801 77.6322L99.1901 78.2022C100.61 72.7622 105.73 56.3124 118.67 42.3224C123.3 37.1424 133.23 30.7822 138.67 30.6322C139.294 30.5787 139.922 30.656 140.515 30.8592C141.107 31.0624 141.65 31.3871 142.11 31.8123C146.39 36.0823 139.46 47.0321 132.21 55.1121C125.785 62.1504 118.758 68.615 111.21 74.4322C108.21 76.7822 105.67 78.5224 104.12 79.5724C101.8 81.1424 101.12 81.5724 100.5 81.5724C100.3 81.5833 100.1 81.5561 99.9102 81.4923ZM138.71 33.9422C134.71 34.0522 125.64 39.4923 121.12 44.5523C112.923 53.6563 106.814 64.4409 103.22 76.1522C112.891 69.4119 121.776 61.61 129.71 52.8922C138.47 43.1322 141.19 35.6122 139.71 34.1422C139.438 33.9758 139.117 33.9054 138.8 33.9422H138.71Z" fill="#ED057D"/>
<path d="M103.23 78.1321C125.58 42.1321 141.43 34.5622 141.58 34.4922L140.22 31.4922C139.55 31.7922 123.42 39.3421 100.42 76.4121L103.23 78.1321Z" fill="#ED057D"/>
<path d="M100.84 75.9321C128.46 55.3521 139.27 32.5622 139.4 32.2822L142.4 33.6721C141.96 34.6721 131.18 57.452 102.82 78.592L100.84 75.9321ZM139.4 32.2822L140.9 32.9822L139.4 32.2822Z" fill="#ED057D"/>
<path d="M83.0002 66.8122C82.4502 66.6122 82.0602 66.4722 80.1802 62.8122C79.3102 61.0922 77.9402 58.2022 76.3802 54.2522C72.8434 45.3793 70.3891 36.1124 69.0702 26.6521C68.5197 21.5357 68.5903 16.3716 69.2802 11.2722C70.2002 4.54217 71.8702 0.961997 74.3802 0.341997C74.9503 0.211141 75.5422 0.207117 76.1141 0.32979C76.6859 0.452462 77.224 0.69905 77.6902 1.0522C81.7502 3.8822 84.5802 13.9922 85.5902 22.7722C87.0569 36.8079 86.9328 50.9643 85.2202 64.9721C85.2672 65.244 85.2463 65.5234 85.159 65.7851C85.0718 66.0469 84.921 66.2829 84.7202 66.4721L83.9602 67.1821L83.0002 66.8122ZM75.1902 3.52217C74.7602 3.67217 73.3702 5.52206 72.5302 11.9021C71.8999 16.6378 71.8394 21.432 72.3502 26.1821C73.9849 37.8602 77.3908 49.2207 82.4502 59.872C83.6288 47.6445 83.5785 35.3296 82.3002 23.112C81.1002 12.632 78.0502 5.31214 75.8002 3.74214C75.6473 3.61319 75.4592 3.53309 75.2602 3.51216L75.1902 3.52217Z" fill="#ED057D"/>
<path d="M81.1401 63.502L84.3401 62.6619C84.2301 62.2319 73.0701 19.1919 76.4201 2.23193L73.1801 1.5918C69.6801 19.2918 80.6701 61.702 81.1401 63.502Z" fill="#ED057D"/>
<path d="M82.3495 66.042L85.6595 65.8518C85.5495 63.8518 82.8195 17.152 76.3295 1.29199L73.2695 2.54199C79.5495 17.892 82.3295 65.562 82.3495 66.042Z" fill="#ED057D"/>
<path d="M92.6296 252.632C92.3886 252.581 92.1626 252.475 91.9696 252.322C82.1995 246.129 74.3031 237.389 69.1296 227.042C66.2196 221.352 62.7396 205.842 67.9396 201.592C68.6192 201.054 69.4159 200.683 70.2653 200.509C71.1148 200.335 71.9932 200.364 72.8296 200.592C77.2296 201.592 82.3697 207.062 85.9297 214.592C93.3197 230.242 94.4995 246.262 94.6895 250.802V250.962C94.6938 250.989 94.6938 251.016 94.6895 251.042L94.7996 253.232L92.6296 252.632ZM91.3496 251.102C91.3589 251.433 91.4747 251.752 91.6797 252.012C91.4968 251.741 91.3834 251.428 91.3496 251.102ZM69.9796 204.102C67.1296 206.432 68.8196 219.212 71.9796 225.492C76.4422 234.371 83.0014 242.029 91.0896 247.802C90.2062 236.765 87.4149 225.965 82.8396 215.882C79.2896 208.412 74.7296 204.352 71.9996 203.732C71.7569 203.676 71.5088 203.645 71.2596 203.642C70.7967 203.652 70.3514 203.821 69.9996 204.122L69.9796 204.102Z" fill="#ED057D"/>
<path d="M91.7896 252.202L94.2095 249.942C71.7995 226.032 70.5895 203.052 70.5795 202.822L67.2695 202.962C67.3195 203.902 68.5496 227.352 91.7896 252.202Z" fill="#ED057D"/>
<path d="M91.4099 251.502L94.5798 250.502C83.2398 213.352 70.5798 202.032 70.0098 201.562L67.8398 204.062L68.9298 202.812L67.8398 204.062C67.9998 204.203 80.3999 215.432 91.4099 251.502Z" fill="#ED057D"/>
<path d="M125.74 125.922C125.579 125.571 125.551 125.173 125.66 124.802C126.24 120.932 128.76 110.922 139.79 100.472C144.51 95.9822 157.46 88.6322 163.51 89.9722C164.427 90.1214 165.283 90.5302 165.976 91.1505C166.669 91.7707 167.17 92.5764 167.42 93.4722C168.34 96.9622 165.64 102.032 160.18 107.032C148.99 117.182 134.18 124.122 128.28 126.642L128.05 126.732C127.951 126.786 127.847 126.829 127.74 126.862L126.32 127.292L125.74 125.922ZM125.74 124.552C125.978 124.175 126.327 123.882 126.74 123.712C126.53 123.78 126.336 123.89 126.17 124.034C126.003 124.178 125.867 124.355 125.77 124.552H125.74ZM142.03 102.872C139.59 105.182 132.03 112.962 129.49 122.472C136.24 119.392 148.49 113.152 157.92 104.582C162.67 100.242 164.67 96.1223 164.19 94.3123C164.12 94.0623 163.97 93.4722 162.76 93.2022C162.431 93.1305 162.096 93.0969 161.76 93.1021C156.86 93.1021 146.23 98.9121 142.06 102.872H142.03Z" fill="#ED057D"/>
<path d="M128.69 126.112C140.29 106.342 165.69 93.3419 165.94 93.2119L164.45 90.2119C163.37 90.7619 137.94 103.772 125.83 124.402L128.69 126.112Z" fill="#ED057D"/>
<path d="M128.13 126.682C142.682 117.525 155.645 106.058 166.51 92.7324L163.88 90.7324C153.262 103.738 140.6 114.931 126.39 123.872L128.13 126.682Z" fill="#ED057D"/>
<path d="M127.35 198.752L126.73 198.302L126.66 197.542C126.66 197.092 126.6 196.822 128.51 193.682C130.037 191.191 131.706 188.79 133.51 186.492C139.013 179.283 145.792 173.144 153.51 168.382C158.93 165.032 168.93 162.262 173.69 163.712C174.308 163.861 174.886 164.145 175.382 164.542C175.878 164.94 176.28 165.441 176.56 166.012C177.65 168.442 176.56 171.612 173.21 175.452C169.889 179.105 166.076 182.279 161.88 184.882C154.695 189.463 147.012 193.214 138.98 196.062C135.75 197.202 133.17 197.942 131.57 198.362C130.51 198.704 129.418 198.939 128.31 199.062C127.963 199.083 127.62 198.972 127.35 198.752ZM155.16 171.212C142.85 178.592 135.01 189.512 131.67 194.882C141.683 192.017 151.226 187.712 160 182.102C169.18 176.222 174.45 169.622 173.44 167.372C173.235 167.115 172.944 166.941 172.62 166.882C171.913 166.69 171.182 166.603 170.45 166.622C165.066 166.936 159.83 168.504 155.16 171.202V171.212Z" fill="#ED057D"/>
<path d="M129.51 198.552C129.79 198.252 158.65 168.552 175 168.342V165.032C157.28 165.242 128.38 195.032 127.16 196.252L129.51 198.552Z" fill="#ED057D"/>
<path d="M129.16 198.822C130.6 197.972 164.55 177.822 176.06 167.942L173.9 165.432C162.61 175.162 127.82 195.772 127.47 195.972L129.16 198.822Z" fill="#ED057D"/>
<path d="M94.3403 126.852L97.5703 126.152C92.9902 104.892 81.4003 86.5922 72.4803 74.9822C66.9403 67.6698 60.7556 60.8692 54.0003 54.6621L51.8203 57.1521C58.387 63.2536 64.4097 69.9156 69.8203 77.0623C78.5903 88.3923 89.8903 106.202 94.3403 126.852Z" fill="#ED057D"/>
<path d="M92.0001 117.202L95.2902 116.812C92.5902 94.3925 109.98 61.4123 110.16 61.0823L107.23 59.5225C103.938 65.9616 101.046 72.5974 98.5701 79.3923C93.0001 94.6223 90.7901 107.342 92.0001 117.202Z" fill="#ED057D"/>
<path d="M109.41 242.392C111.19 219.912 135.31 191.232 135.55 190.952L133.03 188.802C132.03 190.012 107.97 218.582 106.11 242.132L109.41 242.392Z" fill="#ED057D"/>
<path d="M99.1896 145.952L102.47 145.512C102.47 145.152 98.5796 113.632 118.21 95.3721L115.95 92.9521C107.28 101.022 101.63 112.752 99.6196 126.872C98.6834 133.189 98.5389 139.599 99.1896 145.952Z" fill="#ED057D"/>
<path d="M88.0004 369.762C98.3347 334.351 105.161 298.01 108.38 261.262C110.727 234.218 110.56 207.015 107.88 180.002C103.33 136.002 92.8804 111.432 92.8104 111.182L89.8104 112.492C93.3704 120.792 101.06 145.682 104.65 180.492C107.291 207.284 107.445 234.262 105.11 261.082C101.91 297.573 95.127 333.66 84.8604 368.822L88.0004 369.762Z" fill="#ED057D"/>
<path d="M91.9998 117.522L95.1498 116.522C87.4298 92.0725 85.1498 56.1725 85.1498 55.8125L81.8398 56.0125C81.9398 56.3725 84.1898 92.6725 91.9998 117.522Z" fill="#ED057D"/>
<path d="M107.28 176.002C107.28 175.752 109.28 150.152 129.28 125.612L126.72 123.522C106.02 148.922 104.1 174.702 104.03 175.782L107.28 176.002Z" fill="#ED057D"/>
<path d="M106.76 194.872L108.76 192.242C92.3996 179.822 91.1996 164.182 91.1896 164.032L87.8896 164.242C87.9296 164.942 89.2096 181.552 106.76 194.872Z" fill="#ED057D"/>
<path d="M85.4601 164.552C84.4915 163.824 83.8055 162.782 83.5188 161.604C83.2321 160.426 83.3626 159.186 83.8879 158.093C84.4132 157.001 85.3009 156.125 86.3998 155.614C87.4987 155.102 88.7409 154.988 89.9148 155.289C91.0887 155.591 92.1215 156.291 92.8377 157.268C93.5538 158.246 93.9088 159.442 93.8422 160.652C93.7756 161.863 93.2916 163.012 92.4725 163.906C91.6535 164.799 90.55 165.381 89.3501 165.552C89.0887 165.592 88.8247 165.612 88.5602 165.612C87.4399 165.6 86.3529 165.229 85.4601 164.552ZM87.0001 159.202C86.8506 159.406 86.7427 159.637 86.6826 159.882C86.6226 160.128 86.6115 160.382 86.6501 160.632C86.6849 160.884 86.77 161.126 86.9006 161.345C87.0312 161.563 87.2046 161.752 87.4102 161.902C87.613 162.053 87.8438 162.163 88.0892 162.225C88.3346 162.287 88.5898 162.299 88.8401 162.262C89.217 162.203 89.5681 162.033 89.8494 161.776C90.1306 161.518 90.3295 161.183 90.4213 160.812C90.5131 160.442 90.4936 160.053 90.3654 159.694C90.2371 159.334 90.0056 159.021 89.7001 158.792C89.286 158.493 88.7712 158.369 88.2664 158.445C87.7615 158.522 87.3069 158.794 87.0001 159.202Z" fill="#ED057D"/>
<path d="M70.5897 167.982C69.4712 167.155 68.7267 165.918 68.5197 164.542C68.3665 163.519 68.5196 162.473 68.9597 161.537C69.3999 160.601 70.1074 159.816 70.9929 159.281C71.8785 158.746 72.9026 158.485 73.9361 158.532C74.9696 158.578 75.9664 158.929 76.8007 159.541C77.635 160.153 78.2695 160.998 78.6242 161.97C78.979 162.941 79.0381 163.997 78.7941 165.002C78.5502 166.007 78.0141 166.918 77.2534 167.619C76.4928 168.32 75.5416 168.781 74.5197 168.942C74.2582 168.982 73.9941 169.002 73.7296 169.002C72.6004 169.01 71.4991 168.652 70.5897 167.982ZM72.1497 162.612C71.8529 163.03 71.7276 163.545 71.7996 164.052C71.8328 164.303 71.9175 164.545 72.0482 164.762C72.179 164.978 72.3531 165.166 72.5596 165.312C72.7614 165.466 72.9921 165.576 73.2379 165.638C73.4836 165.7 73.7393 165.712 73.9896 165.672C74.4946 165.591 74.9491 165.319 75.2597 164.912C75.4102 164.708 75.5189 164.476 75.5798 164.23C75.6406 163.984 75.6524 163.728 75.6143 163.477C75.5762 163.226 75.4891 162.986 75.3579 162.769C75.2267 162.552 75.0539 162.363 74.8496 162.212C74.5221 161.963 74.1213 161.829 73.7097 161.832C73.4076 161.836 73.1103 161.908 72.8402 162.043C72.57 162.178 72.3339 162.373 72.1497 162.612Z" fill="#ED057D"/>
<path d="M116.93 95.2018C115.956 94.4715 115.265 93.4261 114.976 92.2436C114.687 91.0611 114.816 89.8149 115.343 88.7175C115.87 87.62 116.761 86.739 117.865 86.225C118.968 85.7111 120.216 85.596 121.395 85.8991C122.574 86.2022 123.611 86.9047 124.33 87.8871C125.049 88.8696 125.405 90.0711 125.337 91.2865C125.269 92.502 124.782 93.6563 123.958 94.5527C123.134 95.449 122.025 96.0318 120.82 96.2018C120.558 96.242 120.294 96.2622 120.03 96.2619C118.909 96.2511 117.822 95.8793 116.93 95.2018ZM118.49 89.8417C118.338 90.044 118.228 90.2751 118.168 90.5209C118.108 90.7667 118.098 91.0223 118.14 91.2719C118.173 91.5229 118.258 91.7643 118.388 91.9811C118.519 92.1979 118.693 92.3855 118.9 92.5319C119.103 92.6819 119.334 92.7899 119.58 92.85C119.825 92.9101 120.08 92.9209 120.33 92.8818C120.835 92.8001 121.289 92.5282 121.6 92.1217C121.75 91.9176 121.859 91.6858 121.92 91.4396C121.981 91.1934 121.993 90.9377 121.954 90.6869C121.916 90.4362 121.829 90.1953 121.698 89.9782C121.567 89.7611 121.394 89.5721 121.19 89.4218C120.862 89.1725 120.461 89.039 120.05 89.0419C119.748 89.0364 119.45 89.1024 119.179 89.2345C118.907 89.3666 118.671 89.5611 118.49 89.8019V89.8417Z" fill="#ED057D"/>
<path d="M94.3002 181.342L95.8401 178.412C86.5501 173.532 77.8402 164.812 77.7702 164.722L75.4102 167.052C75.7802 167.432 84.5502 176.202 94.3002 181.342Z" fill="#ED057D"/>
<path d="M98.4203 328.573C103.169 321.909 109.337 316.383 116.48 312.392C119.269 310.796 122.263 309.592 125.38 308.812L124.74 305.562C124.09 305.692 108.64 308.892 95.7402 326.622L98.4203 328.573Z" fill="#ED057D"/>
<path d="M125.81 310.422C124.677 309.617 123.908 308.396 123.674 307.026C123.439 305.655 123.758 304.248 124.56 303.112C125.363 301.977 126.583 301.207 127.953 300.972C129.323 300.736 130.73 301.055 131.865 301.857C133 302.659 133.77 303.88 134.006 305.25C134.241 306.62 133.923 308.027 133.12 309.162C132.725 309.728 132.221 310.208 131.637 310.576C131.053 310.943 130.401 311.19 129.72 311.302C129.427 311.358 129.129 311.385 128.83 311.382C127.749 311.382 126.694 311.047 125.81 310.422ZM127.26 305.022C127.046 305.334 126.927 305.702 126.92 306.08C126.913 306.458 127.016 306.83 127.219 307.15C127.421 307.47 127.713 307.723 128.059 307.878C128.404 308.033 128.787 308.083 129.16 308.022C129.537 307.958 129.887 307.784 130.164 307.521C130.442 307.259 130.635 306.919 130.72 306.547C130.805 306.174 130.777 305.784 130.64 305.427C130.503 305.071 130.263 304.763 129.95 304.542C129.627 304.31 129.238 304.188 128.84 304.192C128.53 304.194 128.224 304.27 127.949 304.415C127.674 304.559 127.438 304.768 127.26 305.022Z" fill="#ED057D"/>
<path d="M102.07 286.802L105.33 286.202C102.875 272.844 99.0478 259.775 93.9102 247.202L90.9102 248.542C95.937 260.878 99.6767 273.699 102.07 286.802Z" fill="#ED057D"/>
</svg>
