<svg width="228" height="248" viewBox="0 0 228 248" fill="none" xmlns="http://www.w3.org/2000/svg">
<path d="M0.960022 0C28.71 6.28 60.74 25.36 82.72 40.26C109.48 58.39 136.45 80.69 154.88 99.92C190.09 136.63 198.35 197.46 198.43 198.07L194.08 198.64C194.01 198.04 185.91 138.64 151.72 102.95C133.49 83.95 106.78 61.86 80.26 43.88C41 17.27 14.95 7.66003 0 4.28003L0.960022 0Z" fill="#ED057D"/>
<path d="M196.8 197.44C196.8 197.44 210.64 213.56 201.9 229.17C198.244 235.76 193.827 241.899 188.74 247.46C184.66 238.92 179.74 231.46 180.9 222C181.99 212.78 187.93 205.16 196.8 197.44Z" fill="#ED057D"/>
<path d="M191.931 171.58C191.931 171.58 195.281 190.58 207.191 194.04C219.101 197.5 227.191 194.98 227.191 194.98C227.191 194.98 225.971 176.98 215.011 172.55C207.662 169.56 199.504 169.218 191.931 171.58Z" fill="#ED057D"/>
<path d="M179.681 141.62C179.681 141.62 189.681 155.74 198.681 154.99C207.681 154.24 219.031 149.56 219.031 149.56C219.031 149.56 210.181 126.92 179.681 141.62Z" fill="#ED057D"/>
<path d="M169.29 120.77C169.29 120.77 176.52 129.03 185.02 127.68C193.52 126.33 200.02 119.47 200.02 119.47C200.02 119.47 187.4 104.51 169.29 120.77Z" fill="#ED057D"/>
<path d="M189.62 172.45C189.62 172.45 191.23 186.87 180.62 194.45C169.22 202.56 161.62 199.84 161.62 199.84C161.62 199.84 161.3 176.79 189.62 172.45Z" fill="#ED057D"/>
<path d="M178.77 142.36C178.77 142.36 180.55 157.59 171.07 165.81C161.59 174.03 152.9 174.54 152.9 174.54C152.9 174.54 146.01 149.36 178.77 142.36Z" fill="#ED057D"/>
<path d="M162.57 115.62C162.57 115.62 167.24 124.46 161.57 131.11C158.178 135.089 153.72 138.017 148.72 139.55C148.72 139.55 141.72 126.02 162.57 115.62Z" fill="#ED057D"/>
<path d="M147.97 97.6797C147.97 97.6797 150.55 108.01 144.75 115.46C138.95 122.91 129.57 125.36 129.57 125.36C129.57 125.36 125.57 103.74 147.97 97.6797Z" fill="#ED057D"/>
<path d="M140.17 86.8501C140.17 86.8501 145.55 94.0901 153.58 94.6301C161.61 95.1701 165.48 90.0001 165.48 90.0001C165.48 90.0001 157.9 76.9601 140.17 86.8501Z" fill="#ED057D"/>
<path d="M131.43 82.3599C131.43 82.3599 136.54 92.3599 126.53 103.03C116.52 113.7 117.53 111.86 117.53 111.86C117.53 111.86 106.77 97.3599 131.43 82.3599Z" fill="#ED057D"/>
<path d="M114.881 64.4596C114.881 64.4596 126.091 68.2897 133.431 65.5397C140.211 62.9897 144.991 56.1296 144.991 56.1296C144.991 56.1296 130.741 42.9596 114.881 64.4596Z" fill="#ED057D"/>
<path d="M92.3 51C92.3 51 99.42 58.2799 100.4 65.0699C101.4 72.0699 96.75 78.21 96.75 78.21C96.75 78.21 76.38 73.05 92.3 51Z" fill="#ED057D"/>
</svg>
